<?xml version="1.0" encoding="iso-8859-1"?>
<!-- Generator: Adobe Illustrator 19.0.0, SVG Export Plug-In . SVG Version: 6.00 Build 0)  -->
<svg version="1.1" id="Layer_1" xmlns="http://www.w3.org/2000/svg" xmlns:xlink="http://www.w3.org/1999/xlink" x="0px" y="0px"
	 viewBox="0 0 481.882 481.882" style="enable-background:new 0 0 481.882 481.882;" xml:space="preserve">
<path style="fill:#64798A;" d="M458.993,73.487v304.791H22.889V73.487c0-6.626,4.819-11.445,11.445-11.445h413.816
	C454.174,62.042,458.993,66.861,458.993,73.487z"/>
<rect y="378.278" style="fill:#EBF0F3;" width="481.882" height="31.322"/>
<g>
	<polygon style="fill:#D5D6DB;" points="481.28,410.202 0.602,410.202 33.732,419.84 448.151,419.84 	"/>
	<rect x="207.209" y="390.325" style="fill:#D5D6DB;" width="67.464" height="7.228"/>
</g>
<path style="fill:#2F4859;" d="M423.454,88.546H58.428c-5.421,0-9.035,4.216-9.035,9.035v36.744h383.699V97.581
	C433.092,92.762,428.875,88.546,423.454,88.546z"/>
<circle style="fill:#FCD462;" cx="334.306" cy="111.435" r="10.24"/>
<circle style="fill:#44C4A1;" cx="371.652" cy="111.435" r="10.24"/>
<circle style="fill:#E56353;" cx="409.6" cy="111.435" r="10.24"/>
<path style="fill:#EBF0F3;" d="M133.12,127.699h65.054l-3.614-11.445c-0.602-1.807-2.409-3.012-4.216-3.012h-62.645
	c0,0.602,0.602,0.602,0.602,0.602L133.12,127.699z"/>
<path style="fill:#3A556A;" d="M433.092,134.927H131.313c-1.807,0-3.614-1.205-4.216-3.012l-5.421-15.059
	c-0.602-1.807-2.409-3.012-4.216-3.012H69.873c-1.807,0-3.614,1.205-4.216,3.012l-5.421,15.059
	c-0.602,1.807-2.409,3.012-4.216,3.012h-7.228v31.925h383.699v-31.925H433.092z"/>
<g>
	<path style="fill:#FFFFFF;" d="M118.664,154.805H77.101c-2.409,0-4.216-1.807-4.216-4.216c0-2.409,1.807-4.216,4.216-4.216h41.562
		c2.409,0,4.216,1.807,4.216,4.216C122.88,152.998,121.073,154.805,118.664,154.805z"/>
	<path style="fill:#FFFFFF;" d="M190.344,154.805h-41.562c-2.409,0-4.216-1.807-4.216-4.216c0-2.409,1.807-4.216,4.216-4.216h41.562
		c2.409,0,4.216,1.807,4.216,4.216C194.56,152.998,192.753,154.805,190.344,154.805z"/>
	<path style="fill:#FFFFFF;" d="M262.024,154.805h-42.165c-2.409,0-4.216-1.807-4.216-4.216c0-2.409,1.807-4.216,4.216-4.216h42.165
		c2.409,0,4.216,1.807,4.216,4.216C266.24,152.998,264.433,154.805,262.024,154.805z"/>
	<path style="fill:#FFFFFF;" d="M333.704,154.805h-41.562c-2.409,0-4.216-1.807-4.216-4.216c0-2.409,1.807-4.216,4.216-4.216h41.562
		c2.409,0,4.216,1.807,4.216,4.216C337.92,152.998,335.511,154.805,333.704,154.805z"/>
	<path style="fill:#FFFFFF;" d="M404.781,154.805h-41.562c-2.409,0-4.216-1.807-4.216-4.216c0-2.409,1.807-4.216,4.216-4.216h41.562
		c2.409,0,4.216,1.807,4.216,4.216C408.998,152.998,407.191,154.805,404.781,154.805z"/>
	<rect x="48.791" y="166.852" style="fill:#FFFFFF;" width="383.699" height="185.525"/>
</g>
<path style="fill:#E56353;" d="M128.904,308.405c-2.409,9.035-3.614,18.673-3.614,28.913c0,4.819,0.602,10.24,1.205,15.059h28.913
	c-0.602-4.819-1.205-9.638-1.205-15.059c0-48.188,39.153-86.739,86.739-86.739s86.739,39.153,86.739,86.739
	c0,4.819-0.602,10.24-1.205,15.059h28.913c0.602-4.819,1.205-9.638,1.205-15.059c0-9.638-1.205-19.275-3.614-28.913l18.071-15.661
	c3.012-2.409,3.614-6.626,1.807-10.24l-18.673-31.925c-1.807-3.614-6.024-4.819-9.638-3.614l-22.287,7.831
	c-13.854-13.252-30.72-23.492-49.393-28.913l-4.819-23.492c-0.602-3.614-4.216-6.626-7.831-6.626h-36.744
	c-3.614,0-7.228,2.409-7.831,6.626l-6.024,23.492c-18.673,5.421-36.141,15.059-49.393,28.913l-22.287-7.831
	c-3.614-1.205-7.831,0-9.638,3.614l-18.673,31.925c-1.807,3.614-1.205,7.228,1.807,10.24L128.904,308.405z"/>
<path style="fill:#D15241;" d="M171.068,351.774c-1.205-4.819-1.807-9.638-1.807-15.059c0-39.153,31.925-71.68,71.68-71.68
	s71.68,31.925,71.68,71.68c0,4.819-0.602,10.24-1.807,15.059h15.661c0.602-4.819,1.205-9.638,1.205-15.059
	c0-48.188-39.153-86.739-86.739-86.739s-86.739,39.153-86.739,86.739c0,4.819,0.602,10.24,1.205,15.059H171.068z"/>
<path style="fill:#CE412D;" d="M279.492,351.774c1.807-4.819,3.012-9.638,3.012-15.059c0-22.889-18.673-41.562-41.562-41.562
	s-41.562,18.673-41.562,41.562c0,5.421,1.205,10.24,3.012,15.059H279.492z"/>
<g>
</g>
<g>
</g>
<g>
</g>
<g>
</g>
<g>
</g>
<g>
</g>
<g>
</g>
<g>
</g>
<g>
</g>
<g>
</g>
<g>
</g>
<g>
</g>
<g>
</g>
<g>
</g>
<g>
</g>
</svg>
