<?xml version="1.0" encoding="iso-8859-1"?>
<!-- Generator: Adobe Illustrator 19.1.0, SVG Export Plug-In . SVG Version: 6.00 Build 0)  -->
<svg version="1.1" id="Capa_1" xmlns="http://www.w3.org/2000/svg" xmlns:xlink="http://www.w3.org/1999/xlink" x="0px" y="0px"
	 viewBox="0 0 64 64" style="enable-background:new 0 0 64 64;" xml:space="preserve">
<g>
	<g id="group-33svg">
		<path id="path-1_77_" style="fill:#FF917B;" d="M61,56c0,4.418-3.582,8-8,8H18c-4.418,0-8-3.582-8-8V12c0-4.419,3.582-8,8-8h35
			c4.418,0,8,3.581,8,8V56z"/>
		<path id="path-2_77_" d="M47.5,63h-35C7.262,63,3,58.738,3,53.5v-44C3,4.262,7.262,0,12.5,0h35C52.738,0,57,4.262,57,9.5v44
			C57,58.738,52.738,63,47.5,63z M12.5,3C8.916,3,6,5.916,6,9.5v44c0,3.584,2.916,6.5,6.5,6.5h35c3.584,0,6.5-2.916,6.5-6.5v-44
			C54,5.916,51.084,3,47.5,3H12.5z"/>
		<path id="path-3_76_" d="M49,14H13c-0.828,0-1.5-0.672-1.5-1.5S12.172,11,13,11h36c0.828,0,1.5,0.672,1.5,1.5S49.828,14,49,14z"/>
		<path id="path-4_74_" d="M49,22H13c-0.828,0-1.5-0.672-1.5-1.5S12.172,19,13,19h36c0.828,0,1.5,0.672,1.5,1.5S49.828,22,49,22z"/>
		<path id="path-5_65_" style="fill:#FFFFFF;" d="M41.42,30.741c2.541,2.541,2.541,6.66,0,9.201c-2.541,2.541-6.661,2.541-9.202,0
			s-2.541-6.66,0-9.201C34.759,28.2,38.879,28.2,41.42,30.741z"/>
		<path id="path-6_58_" d="M33.819,42.349c-2.139,0-4.15-0.833-5.662-2.346c-3.122-3.122-3.122-8.201,0-11.323
			c1.513-1.512,3.524-2.345,5.662-2.345s4.149,0.833,5.661,2.345c1.513,1.511,2.346,3.522,2.346,5.661s-0.833,4.15-2.346,5.662
			C37.969,41.516,35.958,42.349,33.819,42.349z M33.819,29.335c-1.338,0-2.595,0.52-3.541,1.466c-1.952,1.952-1.952,5.129,0,7.081
			c0.946,0.945,2.203,1.467,3.541,1.467c1.337,0,2.595-0.522,3.54-1.467c0.946-0.946,1.467-2.203,1.467-3.541
			c0-1.337-0.521-2.595-1.467-3.54C36.414,29.855,35.156,29.335,33.819,29.335z"/>
		<path id="path-7_42_" d="M44.393,46.409c-0.383,0-0.767-0.146-1.06-0.439l-4.335-4.336c-0.586-0.586-0.586-1.535,0-2.121
			c0.586-0.586,1.535-0.586,2.121,0l4.335,4.336c0.586,0.586,0.586,1.535,0,2.121C45.161,46.263,44.777,46.409,44.393,46.409z"/>
	</g>
</g>
<g>
</g>
<g>
</g>
<g>
</g>
<g>
</g>
<g>
</g>
<g>
</g>
<g>
</g>
<g>
</g>
<g>
</g>
<g>
</g>
<g>
</g>
<g>
</g>
<g>
</g>
<g>
</g>
<g>
</g>
</svg>
