<?xml version="1.0" encoding="iso-8859-1"?>
<!-- Generator: Adobe Illustrator 19.0.0, SVG Export Plug-In . SVG Version: 6.00 Build 0)  -->
<svg version="1.1" id="Layer_1" xmlns="http://www.w3.org/2000/svg" xmlns:xlink="http://www.w3.org/1999/xlink" x="0px" y="0px"
	 viewBox="0 0 512.467 512.467" style="enable-background:new 0 0 512.467 512.467;" xml:space="preserve">
<path style="fill:#F2F2F2;" d="M266.878,0H21.545C9.811,0,0.211,9.6,0.211,21.333v469.333C0.211,502.4,9.811,512,21.545,512h342.4
	c11.733,0,21.333-9.6,21.333-21.333V117.333L266.878,0z"/>
<g>
	<path style="fill:#CDD6E0;" d="M266.878,96c0,11.733,9.6,21.333,21.333,21.333h96L266.878,0V96z"/>
	<rect x="45.011" y="243.2" style="fill:#CDD6E0;" width="295.467" height="26.667"/>
	<rect x="45.011" y="323.2" style="fill:#CDD6E0;" width="295.467" height="26.667"/>
	<rect x="45.011" y="404.267" style="fill:#CDD6E0;" width="142.933" height="26.667"/>
	<rect x="45.011" y="162.133" style="fill:#CDD6E0;" width="295.467" height="26.667"/>
</g>
<rect x="45.011" y="81.067" style="fill:#FFD15C;" width="169.6" height="26.667"/>
<g>
	
		<rect x="363.805" y="371.606" transform="matrix(-0.7071 0.7071 -0.7071 -0.7071 937.7674 388.9081)" style="fill:#40596B;" width="49.066" height="34.133"/>
	<circle style="fill:#40596B;" cx="288.212" cy="288" r="145.067"/>
</g>
<circle style="fill:#84DBFF;" cx="288.212" cy="288" r="110.933"/>
<path style="fill:#FFD15C;" d="M495.145,432l-70.4-54.4l-45.867,45.867l54.4,70.4l1.067,1.067L495.145,432
	C495.145,433.067,495.145,433.067,495.145,432z"/>
<path style="fill:#FF7058;" d="M496.212,433.067L433.278,496c17.067,20.267,46.933,22.4,66.133,3.2
	C517.545,480,516.478,450.133,496.212,433.067z"/>
<g>
</g>
<g>
</g>
<g>
</g>
<g>
</g>
<g>
</g>
<g>
</g>
<g>
</g>
<g>
</g>
<g>
</g>
<g>
</g>
<g>
</g>
<g>
</g>
<g>
</g>
<g>
</g>
<g>
</g>
</svg>
