<svg xmlns="http://www.w3.org/2000/svg" xmlns:xlink="http://www.w3.org/1999/xlink" viewBox="0 0 504 441"><defs><style>.a{fill:none;}.b,.l,.m{fill:#aea79f;}.b{opacity:0.5;}.c{fill:#ebf0f3;}.d{fill:#e1e6e9;}.e{fill:#fff;}.f{fill:#64798a;}.g{fill:#3a556a;}.h{fill:#2f4859;}.i{fill:#e56353;}.j{fill:#27a2db;}.k{fill:#2d93ba;}.l{font-size:27.62px;font-family:Menlo-Bold, Menlo;font-weight:700;}.n{fill:#44c4a1;}.o{clip-path:url(#a);}.p{fill:#ffb4a9;}.q{fill:#fff0d3;}.r{fill:#ff6337;}.s{fill:#ffd9d4;}.t{fill:#ff4128;}</style><clipPath id="a"><rect class="a" x="99.23" y="199.91" width="109.36" height="95.69" transform="translate(-125.24 332.29) rotate(-75)"/></clipPath></defs><title>intro-img-id-card</title><path class="b" d="M463.88,108.94,303.47,66l13-48.41c.53-2-.19-3.2-2.14-3.72L260.5-.59a3.26,3.26,0,0,0-3.72,2.15L243.81,50,83.4,7a5.63,5.63,0,0,0-6.82,3.94L.19,296a5.62,5.62,0,0,0,3.93,6.83L384.6,404.81a5.62,5.62,0,0,0,6.82-3.93l76.39-285.12A5.62,5.62,0,0,0,463.88,108.94Z"/><path class="c" d="M499.88,144.94,119.4,43a5.62,5.62,0,0,0-6.82,3.93L36.19,332.05a5.62,5.62,0,0,0,3.93,6.82L420.6,440.81a5.62,5.62,0,0,0,6.82-3.93l76.39-285.12A5.62,5.62,0,0,0,499.88,144.94Z"/><rect class="d" x="145.98" y="72.9" width="237.96" height="375.67" transform="translate(-55.47 449.18) rotate(-75)"/><rect class="e" x="153.5" y="80.55" width="223.28" height="360.99" transform="translate(-55.64 449.58) rotate(-75)"/><path class="d" d="M336.74,118l-62.59-16.78A6.08,6.08,0,0,0,271,113l62.11,16.64a6.15,6.15,0,0,0,7.44-4.29C341.47,121.89,339.68,118.79,336.74,118Z"/><path class="e" d="M337.27,116.05l-62.6-16.77A6.07,6.07,0,1,0,271.53,111l62.11,16.65a6.17,6.17,0,0,0,7.44-4.3C341.86,120.43,340.2,116.84,337.27,116.05Z"/><path class="f" d="M350.3,49.83,296.5,35.41a3.26,3.26,0,0,0-3.72,2.15L275,104.07a3.26,3.26,0,0,0,2.15,3.72l53.79,14.42a3.27,3.27,0,0,0,3.72-2.15l17.82-66.51C353,51.59,352.25,50.35,350.3,49.83Z"/><circle class="g" cx="316.85" cy="67.07" r="17.21"/><path class="h" d="M328.63,60.27a16.61,16.61,0,0,1,.12,7.37A13.62,13.62,0,0,1,312,77.31a13.83,13.83,0,0,1-8.25-6.4,13.42,13.42,0,0,0,9.55,9.37,13.62,13.62,0,0,0,16.74-9.67A13.82,13.82,0,0,0,328.63,60.27Z"/><rect class="i" x="273.23" y="29.1" width="22.28" height="316.43" transform="translate(29.84 413.51) rotate(-75)"/><rect class="j" x="99.23" y="199.91" width="109.36" height="95.69" transform="translate(-125.24 332.29) rotate(-75)"/><rect class="k" x="131.98" y="259.08" width="12.15" height="95.69" transform="translate(-194.15 360.83) rotate(-75)"/><text class="l" transform="matrix(0.97, 0.26, -0.26, 0.97, 250.32, 238.64)">REGISTERED!</text><rect class="m" x="325.07" y="194.47" width="11.14" height="178.22" transform="translate(-28.85 529.56) rotate(-75)"/><rect class="m" x="316.69" y="225.77" width="11.14" height="178.22" transform="translate(-65.3 544.65) rotate(-75)"/><rect class="n" x="308.43" y="256.58" width="11.14" height="178.22" transform="translate(-101.17 559.52) rotate(-75)"/><g class="o"><path class="p" d="M177.64,333.69l-7.8-2.09,6.89-25.73A12.13,12.13,0,0,0,168.17,291l-3.9-1,2.09-7.8,3.9,1A20.21,20.21,0,0,1,184.53,308l-6.89,25.73Z"/><path class="p" d="M92.92,311l6.9-25.74A20.2,20.2,0,0,1,124.54,271l3.9,1-2.09,7.8-3.9-1.05a12.12,12.12,0,0,0-14.83,8.57l-6.9,25.74L92.92,311Z"/><path class="q" d="M161.6,273.94,146,269.77,139.68,335l15.6,4.18,13.93-52A10.77,10.77,0,0,0,161.6,273.94Z"/><path class="e" d="M146,269.77,135.6,267a10.77,10.77,0,0,0-13.19,7.61l-13.93,52,31.2,8.36,13.93-52A10.76,10.76,0,0,0,146,269.77Z"/><circle class="r" cx="130.26" cy="234.9" r="13.46"/><path class="p" d="M168.53,225.39l-15.75,29.47a24.22,24.22,0,0,0,29.67-17.13Z"/><path class="s" d="M166.85,233.55a69,69,0,0,0,1.68-8.16L150,209a24.22,24.22,0,0,0,2.75,45.88C157.09,256,163.39,246.48,166.85,233.55Z"/><path class="t" d="M165.32,208.06l2.2,22.79a48.29,48.29,0,0,0,14.93,6.88A24.24,24.24,0,0,0,165.32,208.06Z"/><path class="r" d="M165.32,208.06A24.15,24.15,0,0,0,150,209a48.61,48.61,0,0,0,17.5,21.87C170.2,219.08,169.32,209.14,165.32,208.06Z"/></g></svg>