<svg xmlns="http://www.w3.org/2000/svg" viewBox="0 0 504 433.89"><defs><style>.a{fill:#aea79f;opacity:0.5;}.b{fill:#64798a;}.c{fill:#fff;}.d{fill:#ebf0f3;}.e{fill:#df382c;}.f{fill:#d5d6db;}.g{fill:#efb73e;}.h{fill:#27a2db;}.i{fill:#fcd462;}.j{fill:#e95420;}</style></defs><title>Asset 8</title><path class="a" d="M95.24,22.2,88.81,3.51C88.23,1.17,85.89,0,83.55,0H26.29A5.93,5.93,0,0,0,21,3.51L14.61,22.2c-.59,2.34-2.92,3.51-5.26,3.51H.58V64.85H0V386.79H.58a11.1,11.1,0,0,0,11.11,11.1H456.31a11.1,11.1,0,0,0,11.11-11.1V64.85H468V25.71H100.49A5.92,5.92,0,0,1,95.24,22.2Z"/><path class="b" d="M504,61.71H136.49a5.92,5.92,0,0,1-5.25-3.51l-6.43-18.7c-.58-2.33-2.92-3.5-5.26-3.5H62.29A5.94,5.94,0,0,0,57,39.5L50.61,58.2c-.59,2.34-2.92,3.51-5.26,3.51H36.58v39.14H504V61.71Z"/><path class="c" d="M36.58,422.78a11.1,11.1,0,0,0,11.11,11.11H492.31a11.1,11.1,0,0,0,11.11-11.11V100.85H36V422.78Z"/><path class="c" d="M121.3,86.25H70.47a5.26,5.26,0,1,1,0-10.52H121.3a5.26,5.26,0,1,1,0,10.52Z"/><path class="c" d="M208.36,86.25H157.53a5.26,5.26,0,1,1,0-10.52h50.83a5.26,5.26,0,0,1,0,10.52Z"/><path class="c" d="M296,86.25H245.17a5.26,5.26,0,1,1,0-10.52H296A5.24,5.24,0,0,1,301.26,81C300.67,83.91,298.34,86.25,296,86.25Z"/><path class="c" d="M383.06,86.25H332.22a5.26,5.26,0,0,1,0-10.52h50.84A5.23,5.23,0,0,1,388.31,81C387.73,83.91,386,86.25,383.06,86.25Z"/><path class="c" d="M470.11,86.25H419.28a5.26,5.26,0,1,1,0-10.52h50.83a5.26,5.26,0,0,1,0,10.52Z"/><path class="d" d="M155.77,119H64a10.46,10.46,0,0,0-10.51,10.51v277A10.46,10.46,0,0,0,64,416.94h91.73a10.47,10.47,0,0,0,10.52-10.51V128.9C166.29,123.64,161.62,119,155.77,119Z"/><circle class="e" cx="108.45" cy="172.13" r="33.89"/><rect class="f" x="69.3" y="238.74" width="81.21" height="8.76"/><rect class="f" x="69.3" y="268.54" width="81.21" height="8.76"/><rect class="f" x="69.3" y="298.92" width="81.21" height="8.76"/><rect class="f" x="69.3" y="328.72" width="81.21" height="8.76"/><rect class="f" x="69.3" y="358.52" width="81.21" height="8.76"/><rect class="f" x="69.3" y="388.31" width="81.21" height="8.76"/><rect class="g" x="206.61" y="127.15" width="74.79" height="74.79"/><rect class="h" x="206.61" y="223.55" width="74.79" height="74.79"/><circle class="b" cx="426.88" cy="374.87" r="46.16"/><circle class="d" cx="426.88" cy="351.5" r="16.94"/><path class="d" d="M426.88,412.85A37,37,0,0,0,459,394.74a35.07,35.07,0,0,0-64.27,0A37.05,37.05,0,0,0,426.88,412.85Z"/><circle class="i" cx="252.18" cy="374.87" r="46.16"/><circle class="j" cx="252.18" cy="351.5" r="16.94"/><path class="j" d="M252.18,412.85a37,37,0,0,0,32.13-18.11,35.06,35.06,0,0,0-64.26,0C227.06,405.84,238.74,412.85,252.18,412.85Z"/><rect class="f" x="307.1" y="133.57" width="170.61" height="8.76"/><rect class="f" x="307.1" y="160.45" width="170.61" height="8.76"/><rect class="f" x="307.1" y="186.74" width="119.77" height="8.76"/><rect class="f" x="307.1" y="230.56" width="170.61" height="8.76"/><rect class="f" x="307.1" y="256.85" width="170.61" height="8.76"/><rect class="f" x="307.1" y="283.73" width="119.77" height="8.76"/></svg>