<?xml version="1.0"?>
<svg xmlns="http://www.w3.org/2000/svg" xmlns:xlink="http://www.w3.org/1999/xlink" version="1.1" id="Layer_1" x="0px" y="0px" viewBox="0 0 481.882 481.882" style="enable-background:new 0 0 481.882 481.882;" xml:space="preserve" width="512px" height="512px" class=""><g><g>
	<path style="fill:#EBF0F3;" d="M67.464,240.941H49.995c0-105.412,85.534-190.946,190.946-190.946v17.468   C145.167,67.464,67.464,145.167,67.464,240.941z" data-original="#EBF0F3" class=""/>
	<path style="fill:#EBF0F3;" d="M145.769,405.986c-5.421-3.012-10.24-6.626-15.661-9.638l10.24-14.456   c4.819,3.012,9.035,6.024,13.854,9.035L145.769,405.986z M115.652,384.904c-4.819-4.216-9.035-8.433-13.252-12.649l12.649-12.047   c3.614,4.216,7.831,7.831,12.047,11.445L115.652,384.904z M90.353,358.4c-3.614-4.819-7.228-9.638-10.842-15.059l15.059-9.638   c3.012,4.819,6.024,9.035,9.638,13.854L90.353,358.4z M71.078,327.078c-3.012-5.421-5.421-10.842-7.831-16.866l16.264-6.626   c1.807,5.421,4.216,10.24,6.626,15.059L71.078,327.078z M57.224,293.346c-1.807-6.024-3.012-12.047-4.216-18.071l17.468-3.012   c1.205,5.421,2.409,10.842,3.614,16.264L57.224,293.346z M50.598,257.205c-0.602-5.421-0.602-10.842-0.602-16.264h17.468   c0,4.819,0,9.638,0.602,14.456L50.598,257.205z" data-original="#EBF0F3" class=""/>
	<path style="fill:#EBF0F3;" d="M240.941,431.887c-33.732,0-66.861-9.035-95.172-25.299l9.035-15.059   c26.504,15.059,56.019,23.492,86.739,23.492c95.774,0,173.478-77.704,173.478-173.478h17.468   C431.887,346.353,346.353,431.887,240.941,431.887z" data-original="#EBF0F3" class=""/>
	<path style="fill:#EBF0F3;" d="M431.887,240.941h-17.468c0-1.807,0-3.614,0-5.421l17.468-0.602   C431.887,236.725,431.887,239.134,431.887,240.941z M412.612,219.256c-0.602-5.421-1.807-10.842-3.012-16.264l16.866-3.614   c1.205,6.024,2.409,12.047,3.012,18.071L412.612,219.256z M405.384,186.729c-1.807-5.421-3.614-10.24-6.024-15.661l16.264-7.228   c2.409,5.421,4.819,11.445,6.626,16.866L405.384,186.729z M392.132,156.009c-2.409-4.819-5.421-9.638-9.035-13.854l14.456-10.24   c3.614,4.819,6.626,10.24,9.638,15.661L392.132,156.009z M372.856,128.904c-3.614-4.216-7.228-8.433-11.445-12.047l12.047-12.649   c4.216,4.216,8.433,8.433,12.649,13.252L372.856,128.904z M348.762,105.412c-4.216-3.614-9.035-6.626-13.252-9.638l9.638-14.456   c4.819,3.012,10.24,6.626,15.059,10.842L348.762,105.412z M321.054,87.341c-4.819-2.409-10.24-4.819-15.059-7.228l6.626-16.264   c5.421,2.409,11.445,4.819,16.866,7.831L321.054,87.341z M290.334,74.692c-5.421-1.807-10.842-3.012-16.264-4.216l3.614-17.468   c6.024,1.205,12.047,2.409,18.071,4.216L290.334,74.692z M257.807,68.668c-5.421-0.602-10.842-0.602-16.866-0.602V50.598   c6.024,0,12.047,0,18.071,0.602L257.807,68.668z" data-original="#EBF0F3" class=""/>
</g><polygon style="fill:#FCD462;" points="240.941,12.047 315.633,162.635 481.882,186.729 361.412,304.188 389.722,469.835   240.941,391.529 92.16,469.835 120.471,304.188 0,186.729 166.249,162.635 " data-original="#FCD462" class=""/><polygon style="fill:#EFB73E" points="240.941,119.868 280.094,199.379 368.038,212.631 304.791,274.673 319.849,362.014   240.941,320.452 162.033,362.014 177.092,274.673 113.845,212.631 201.788,199.379 " data-original="#F6C358" class="active-path" data-old_color="#F6C358"/></g> </svg>
