<svg id="Layer_1" data-name="Layer 1" xmlns="http://www.w3.org/2000/svg" viewBox="0 0 361.7 432.21"><defs><style>.cls-1{fill:#00a060}.cls-2,.cls-3{fill:#dbddde}.cls-3,.cls-4{stroke:#00a060;stroke-linejoin:round}.cls-3{stroke-width:3px}.cls-4,.cls-5{fill:none}.cls-4{stroke-width:4px}.cls-5{stroke:#dbddde;stroke-linecap:round;stroke-miterlimit:10}</style></defs><title>Artboard 1 copy 2</title><rect class="cls-1" width="361.7" height="432.2" rx="139.93" ry="139.93"/><path class="cls-2" d="M226.55 30.71c28.1 0 54.65 11.36 74.76 32a108.38 108.38 0 0 1 31.1 76V293.5a108.39 108.39 0 0 1-31.1 76c-20.11 20.62-46.67 32-74.76 32h-91.4c-28.1 0-54.65-11.36-74.76-32a108.39 108.39 0 0 1-31.1-76V138.71a108.38 108.38 0 0 1 31.1-76c20.11-20.62 46.67-32 74.76-32h91.41m0-11h-91.41c-64.54 0-116.87 54.46-116.87 119V293.5c0 64.54 52.32 119 116.87 119h91.41c64.54 0 116.87-54.46 116.87-119V138.71c0-64.54-52.32-119-116.87-119z"/><rect class="cls-3" x="134.72" y="356.66" width="13.92" height="26.86" rx="2.61" ry="2.61"/><rect class="cls-3" x="208.04" y="356.66" width="13.92" height="26.86" rx="2.61" ry="2.61"/><path class="cls-2" d="M106.22 150.92v-.13s-29.69 19.27-34.79 31.15a24.88 24.88 0 0 0-1.24 7.42 1.2 1.2 0 0 0 1.39 1.26l30.55-5.12c.99-13.94 2.63-25.9 4.09-34.58zm-4.31 37.53L73 192.8c-.22 16.15 2.49 43.41 4.52 61.37a30 30 0 0 0 18.68 24.46l14.9 6v-.1c-10.04-32.97-10.98-68.19-9.19-96.08zm153.57-37.53v-.13s29.69 19.27 34.79 31.15a24.88 24.88 0 0 1 1.24 7.42 1.2 1.2 0 0 1-1.39 1.26l-30.55-5.12c-.99-13.94-2.63-25.9-4.09-34.58zm4.31 37.53l28.9 4.35c.22 16.15-2.49 43.41-4.52 61.37a30 30 0 0 1-18.66 24.46l-14.9 6v-.1c10.03-32.97 10.97-68.19 9.18-96.08z"/><path class="cls-2" d="M249.17 151.89c-1-4.2-1.82-7.63-2.48-10.14l-32.53-4.83h-75.45l-24 5.12c-.65 2.47-1.48 5.78-2.4 9.81-5.92 26-15.41 81.93-2.85 133.63q1.24 5.09 2.76 10.11a16 16 0 0 0 15.31 11.31h106.4a16 16 0 0 0 15.31-11.31q1.54-5 2.77-10.14c12.54-51.66 3.08-107.51-2.84-133.56z"/><path class="cls-2" d="M214.25 136.93h29.64a2.84 2.84 0 0 0 2.59-4l-15.27-38.75A27.26 27.26 0 0 0 207.88 81h-54.06a27.26 27.26 0 0 0-23.33 13.16l-15.26 38.75a2.84 2.84 0 0 0 2.59 4h29.64"/><rect class="cls-2" x="96.73" y="311.2" width="168.23" height="48.46" rx="21" ry="21"/><rect class="cls-3" x="137.47" y="309.75" width="13.92" height="55.9" rx="2.61" ry="2.61"/><rect class="cls-3" x="210.79" y="309.75" width="13.92" height="55.9" rx="2.61" ry="2.61"/><path class="cls-2" d="M148.24 66.56h13.15a4.29 4.29 0 0 1 4.29 4.29V81H144V70.85a4.29 4.29 0 0 1 4.24-4.29zm52.07 0h13.15a4.29 4.29 0 0 1 4.29 4.29V81H196V70.85a4.29 4.29 0 0 1 4.31-4.29z"/><path class="cls-4" d="M219.34 240.32h-77a6.46 6.46 0 0 1-6.52-6.4v-9.83a6.46 6.46 0 0 1 6.52-6.4h77a6.46 6.46 0 0 1 6.52 6.4v9.83a6.46 6.46 0 0 1-6.52 6.4zm0 45.26h-77a6.46 6.46 0 0 1-6.52-6.4v-9.83a6.46 6.46 0 0 1 6.52-6.4h77a6.46 6.46 0 0 1 6.52 6.4v9.83a6.46 6.46 0 0 1-6.52 6.4z"/><path class="cls-4" d="M219.34 262.95h-77a6.46 6.46 0 0 1-6.52-6.4v-9.83a6.46 6.46 0 0 1 6.52-6.4h77a6.46 6.46 0 0 1 6.52 6.4v9.83a6.46 6.46 0 0 1-6.52 6.4zm-5-11.32h-19.2m19.2 22.63h-19.2m19.2-45.26h-19.2"/><path class="cls-1" d="M173.57 110a7.34 7.34 0 0 1 14.56 0l-4.39 3.17h-5.09l-3-.93z"/><circle class="cls-1" cx="180.85" cy="99.85" r="3.95"/><path class="cls-1" d="M180.85 92.89a9.63 9.63 0 1 1-9.63 9.63 9.63 9.63 0 0 1 9.63-9.63m0-4a13.63 13.63 0 1 0 13.63 13.63 13.65 13.65 0 0 0-13.63-13.63z"/><circle class="cls-4" cx="156.56" cy="176.35" r="9.11"/><circle class="cls-1" cx="156.56" cy="176.35" r="2.19"/><circle class="cls-4" cx="156.56" cy="136.88" r="9.11"/><circle class="cls-1" cx="156.56" cy="136.88" r="2.19"/><circle class="cls-4" cx="205.14" cy="136.88" r="9.11"/><path class="cls-1" d="M207.33 136.88a2.19 2.19 0 1 0-2.19 2.19 2.19 2.19 0 0 0 2.19-2.19"/><path class="cls-4" d="M156.56 145.98v21.26m0 18.21v32.23m9.11-41.33H193a12.14 12.14 0 0 0 12.14-12.14V146m-5.42-17.31v-11.23h10.84v11.23m-59.42 0v-11.23h10.84v11.23"/><path class="cls-2" d="M26.87 217.22l37.89 1.5-37.89 1.5v-3zm-6.46 15.61l35.76 1.5-35.76 1.5v-3zm314.39-12.61l-37.9-1.5 37.9-1.5v3zm-229.75 61.34l-53.1-1.5 53.1-1.5v3zm18.41 74.68l-53.1-2 53.1-2v4zm-2.93-8.81l-39.23-2 39.23-2v4zm-5.07-8.55l-25.08-2 25.08-2v4zm-21.87-66.66l-27.23-1.5 27.23-1.5v3zM296.9 381.05l-65.53-2 65.53-2v4zm21.35-18.6l-38.85-2 38.85-2v4zm19.43-56.28l-38.86-2 38.86-2v4zm-52.84 86.09l-69.81-2 69.81-2v4zM26.87 113.73l77.88 1-77.88 1v-2zm307.93 2l-77.84-1 77.84-1v2z"/><path class="cls-2" d="M42.17 114.52l19.9-23.65v23.86l-19.9-.21zm39.81 0L62.07 90.87v23.86l19.91-.21z"/><path class="cls-5" d="M59 96.06l6.14-7.03m0 7.03L59 89.03"/><path class="cls-1" d="M58 114.58l4.18-10.99-.11 11.14-4.07-.15zm8.36 0l-4.18-10.99.1 11.14 4.08-.15z"/><path class="cls-1" d="M62.07 114.73h.21l.41-9.32-.51-1.42-.49 1.49.38 9.25zm.11-11.14l-.61 1.12c-.19.38-.45.72-.67 1.08l-1.4 2.11-2.78 4.25V112c.22.42.48.82.68 1.26l.59 1.3-.79-1.2c-.26-.4-.46-.83-.7-1.24V112l2.78-4.25 1.39-2.12c.24-.35.44-.72.72-1z"/><path class="cls-2" d="M302.68 114.16a2.33 2.33 0 0 0-.13-.23l-4.93-8.29c-.21-.36-.14-.49.28-.53l1-.1a.4.4 0 0 0 .33-.64l-.09-.15-3.89-6.68-.09-.15c-.13-.25-.09-.35.2-.41l.44-.07c.49-.08.61-.31.35-.75l-1.37-2.38-1.45-2.51c-.14-.25-.11-.33.17-.42h.09c.4-.12.5-.34.29-.7l-2.74-4.74c-.19-.32-.47-.32-.66 0l-.58 1-2.14 3.7c-.24.41-.16.61.28.75.31.1.34.18.19.45L287 93.44l-1.6 2.76c-.24.42-.12.66.36.73l.46.08c.26.06.31.16.18.4l-.09.15c-1.3 2.23-2.59 4.46-3.9 6.67-.28.47-.11.82.42.82a7.53 7.53 0 0 1 1 .09c.29 0 .37.18.23.44l-.11.19-4.89 8.23a.49.49 0 0 0-.06.55c.11.19.3.18.48.18h22.87a.39.39 0 0 0 .33-.57z"/><path class="cls-2" d="M285.81 114.36a1.53 1.53 0 0 0-.09-.15l-3.23-5.43c-.14-.24-.09-.32.18-.35l.67-.07a.26.26 0 0 0 .21-.42l-.06-.1-2.55-4.38-.06-.1c-.09-.16-.06-.23.13-.27h.29c.32 0 .4-.21.23-.49l-.9-1.56-.95-1.64c-.09-.16-.07-.22.11-.28h.06c.26-.08.33-.22.19-.46l-1.79-3.11c-.12-.21-.31-.21-.43 0l-.38.65-1.44 2.36c-.16.27-.1.4.19.49.2.06.23.12.12.3l-.8 1.39-1 1.81c-.16.27-.08.43.24.48l.3.05c.17 0 .2.11.12.26l-.06.1c-.85 1.46-1.7 2.92-2.56 4.37-.18.31-.07.54.27.53a4.94 4.94 0 0 1 .62.06c.19 0 .24.12.15.29l-.07.12-3.22 5.42a.32.32 0 0 0 0 .36c.07.12.19.12.31.12h15a.25.25 0 0 0 .2-.35zm40.48 0a1.53 1.53 0 0 0-.09-.15l-3.2-5.44c-.14-.24-.09-.32.18-.35l.67-.07a.26.26 0 0 0 .21-.42l-.06-.1-2.55-4.38-.06-.1c-.09-.16-.06-.23.13-.27h.29c.32 0 .4-.21.23-.49l-.9-1.56-.95-1.64c-.09-.16-.07-.22.11-.28h.06c.26-.08.33-.22.19-.46l-1.79-3.11c-.12-.21-.31-.21-.43 0l-.38.65-1.4 2.42c-.16.27-.1.4.19.49.2.06.23.12.12.3l-.8 1.39-1 1.81c-.16.27-.08.43.24.48l.3.05c.17 0 .2.11.12.26l-.06.1c-.85 1.46-1.7 2.92-2.56 4.37-.18.31-.07.54.27.53a4.94 4.94 0 0 1 .62.06c.19 0 .24.12.15.29l-.07.12-3.22 5.42a.32.32 0 0 0 0 .36c.07.12.19.12.31.12h15a.25.25 0 0 0 .13-.4zm-60.13.06l-.07-.13-2.69-4.53c-.12-.2-.08-.27.15-.29l.56-.06a.22.22 0 0 0 .18-.35v-.08l-2.13-3.65v-.08c-.07-.14 0-.19.11-.22h.24c.27 0 .33-.17.19-.41l-.75-1.3-.79-1.37c-.08-.14-.06-.18.09-.23h.05c.22-.07.27-.18.16-.38l-1.5-2.59c-.1-.18-.26-.18-.36 0l-.32.55-1.17 2c-.13.23-.09.34.16.41.17.05.19.1.1.25l-.67 1.16-.87 1.51c-.13.23-.07.36.2.4h.25c.14 0 .17.09.1.22v.08c-.71 1.22-1.41 2.44-2.13 3.65-.15.26-.06.45.23.45a4.12 4.12 0 0 1 .52.05c.16 0 .2.1.13.24l-.06.1-2.69 4.52a.27.27 0 0 0 0 .3c.06.1.16.1.26.1H266a.21.21 0 0 0 .16-.32zm-170.49-.06a1.53 1.53 0 0 0-.09-.15l-3.23-5.43c-.14-.24-.09-.32.18-.35l.67-.07a.26.26 0 0 0 .21-.42l-.06-.1-2.55-4.38-.06-.1c-.09-.16-.06-.23.13-.27h.29c.32 0 .4-.21.23-.49l-.89-1.6-.95-1.64c-.09-.16-.07-.22.11-.28h.06c.26-.08.33-.22.19-.46l-1.79-3.11c-.12-.21-.31-.21-.43 0l-.38.65-1.4 2.42c-.16.27-.1.4.19.49.2.06.23.12.12.3l-.8 1.39-1 1.81c-.16.27-.08.43.24.48l.3.05c.17 0 .2.11.12.26l-.06.1c-.85 1.46-1.7 2.92-2.56 4.37-.18.31-.07.54.27.53a4.94 4.94 0 0 1 .62.06c.19 0 .24.12.15.29l-.07.12-3.22 5.42a.32.32 0 0 0 0 .36c.07.12.19.12.31.12h15a.25.25 0 0 0 .15-.37zm-53.18.07l-.07-.12-2.59-4.31c-.11-.19-.07-.26.15-.28l.54-.05a.21.21 0 0 0 .17-.34v-.08l-2-3.5v-.08c-.07-.13 0-.18.1-.21h.23c.26 0 .32-.16.19-.39l-.72-1.25-.76-1.32c-.07-.13-.06-.17.09-.22.21-.06.26-.18.15-.37l-1.44-2.49c-.1-.17-.25-.17-.35 0l-.3.52-1.12 1.94c-.12.22-.08.32.15.39.16.05.18.09.1.24l-.64 1.12-.9 1.37c-.13.22-.06.35.19.39h.24c.14 0 .16.08.09.21v.08c-.68 1.17-1.36 2.34-2 3.5-.15.25-.06.43.22.43a4 4 0 0 1 .5 0c.15 0 .19.09.12.23l-.06.1-2.58 4.34a.26.26 0 0 0 0 .29c.06.1.16.09.25.09h12a.2.2 0 0 0 .05-.23z"/><path class="cls-2" d="M109.47 114.08c0-.09-.06-.18-.09-.27l-3.23-9.41c-.14-.41-.09-.56.18-.6l.67-.12c.24-.05.33-.35.21-.73l-.06-.17-2.55-7.58-.06-.17c-.09-.28-.06-.4.13-.47l.29-.08c.32-.09.4-.36.23-.85l-.9-2.7-.95-2.85c-.09-.28-.07-.37.11-.48h.06c.26-.14.33-.38.19-.79l-1.79-5.38c-.12-.36-.31-.36-.43 0l-.38 1.13-1.4 4.2c-.16.47-.1.7.19.85.2.11.23.2.12.51l-.8 2.41-1 3.14c-.16.48-.08.75.24.83l.3.09c.17.07.2.18.12.46l-.06.17c-.85 2.53-1.7 5.06-2.56 7.58-.18.54-.07.93.27.93a2.94 2.94 0 0 1 .62.1c.19 0 .24.2.15.5l-.07.22-3.22 9.36a.9.9 0 0 0 0 .62c.07.21.19.2.31.2h15c.13-.04.24-.34.16-.65zm203.75-.08c0-.1-.07-.2-.11-.29L309 103.44c-.18-.45-.12-.61.23-.66l.87-.13c.31-.06.42-.39.28-.79l-.07-.19-3.31-8.29-.07-.19c-.11-.31-.07-.43.17-.51l.37-.09c.42-.09.51-.39.3-.93l-1.16-3-1.22-3.11c-.12-.31-.09-.41.14-.52h.08c.34-.15.42-.42.24-.87l-2.31-5.88c-.16-.4-.4-.4-.56 0l-.49 1.24-1.8 4.59c-.2.51-.13.76.24.93.26.12.29.22.16.56l-1 2.64-1.35 3.43c-.2.52-.1.82.31.91l.39.1c.22.07.26.2.15.5l-.07.19c-1.1 2.76-2.18 5.53-3.3 8.28-.24.59-.09 1 .35 1a4.4 4.4 0 0 1 .8.11c.25 0 .31.22.2.54l-.09.24-4.15 10.26a.84.84 0 0 0-.05.68c.1.23.25.22.4.22h19.31c.21-.01.34-.34.23-.7zM26.87 125.63l61.38 1-61.38 1v-2zm-1.48 15.71l70.99 1-70.99 1v-2zm311.82 2l-70.99-1 70.99-1v2zm.94 13.19l-47.44-1 47.44-1v2zm-.07-28.9l-64.58-1 64.58-1v2z"/><path class="cls-3" d="M134.28 338.27h20.29v11.96h-20.29zm73.33 0h20.29v11.96h-20.29z"/><path class="cls-1" d="M165.91 136.93h30.36v2h-30.36zm48.34 0h34.47v2h-34.47zm-100.52 0h33.97v2h-33.97zm145.95 141.61a18.66 18.66 0 0 0 2.07-1 30.89 30.89 0 0 0 4.94-3.4 32.2 32.2 0 0 0 2.87-2.74 31.48 31.48 0 0 0 2.76-3.44 35.47 35.47 0 0 0 2.43-4 34.9 34.9 0 0 0 1.91-4.47c.29-.76.54-1.54.76-2.33s.42-1.57.62-2.35c.35-1.57.68-3.14.87-4.67l.16-1.14.11-1.12c.07-.74.18-1.47.2-2.18.08-1.42.17-2.77.17-4v-3.41c0-1.01 0-1.91-.07-2.64l-.08-2.31.47 2.27c.15.72.32 1.6.44 2.63s.31 2.17.38 3.44c0 .63.12 1.29.14 2v4.38a23.39 23.39 0 0 1-.16 2.35c-.08.8-.15 1.61-.29 2.42s-.23 1.65-.44 2.46-.36 1.66-.61 2.48-.47 1.65-.77 2.46a36.9 36.9 0 0 1-2.08 4.7 30.82 30.82 0 0 1-2.72 4.17 26.22 26.22 0 0 1-3.13 3.44 25.42 25.42 0 0 1-3.23 2.6 24.47 24.47 0 0 1-5.46 2.85 14.25 14.25 0 0 1-2.26.55zm2.17-113.1a30.86 30.86 0 0 1 5 2.34c.72.41 1.49.85 2.27 1.38s1.62 1.07 2.45 1.68 1.67 1.27 2.51 2 1.65 1.43 2.44 2.21 1.57 1.55 2.27 2.39a29.09 29.09 0 0 1 2 2.47 23.48 23.48 0 0 1 1.7 2.46 21.46 21.46 0 0 1 1.33 2.32c.37.74.69 1.43 1 2s.43 1.18.59 1.64c.31.91.47 1.43.47 1.43s-.31-.46-.83-1.26l-.95-1.5c-.39-.53-.83-1.13-1.28-1.79s-1-1.32-1.57-2.06-1.2-1.45-1.85-2.21-1.37-1.5-2.07-2.27-1.49-1.5-2.24-2.26-1.56-1.46-2.32-2.19-1.55-1.4-2.33-2-1.5-1.28-2.23-1.85l-2-1.63c-1.28-1-2.35-1.82-3.12-2.39zM204.74 89.4s1 .06 2.61.34c.83.15 1.83.33 3 .62a36 36 0 0 1 3.78 1.12 32.07 32.07 0 0 1 4.32 1.86 21.42 21.42 0 0 1 4.39 3 9.58 9.58 0 0 1 1 1 8 8 0 0 1 .93 1.13c.28.42.56.8.84 1.25l.66 1.24c.44.82.85 1.72 1.27 2.58l1.19 2.62c1.52 3.52 2.93 7.07 4.16 10.43s2.34 6.52 3.22 9.24c1.79 5.44 2.76 9.15 2.76 9.15s-1.6-3.48-3.83-8.74l-3.79-9-2.12-5.07c-.72-1.73-1.47-3.47-2.23-5.21l-1.14-2.59c-.4-.84-.77-1.68-1.2-2.51l-.64-1.25-.67-1.07a6.55 6.55 0 0 0-.78-1 8.09 8.09 0 0 0-.85-.94 23 23 0 0 0-3.91-3 40.72 40.72 0 0 0-4-2.09c-1.28-.59-2.5-1.05-3.58-1.46s-2-.71-2.84-1c-1.62-.43-2.55-.65-2.55-.65zm34.11 210.98l.48-1.59 1.28-4.5c1.08-3.88 2.51-9.46 3.92-16.21.72-3.37 1.37-7 2-10.94s1.07-8 1.38-12.29.32-8.72.36-13.26c0-2.26 0-4.54-.05-6.83l-.19-6.88-.27-6.88-.37-6.82-.45-6.71-.53-6.54c-.41-4.29-.78-8.44-1.26-12.36q-.32-2.95-.72-5.71c-.26-1.84-.46-3.63-.75-5.33l-.79-4.88c-.25-1.55-.56-3-.81-4.39-.48-2.77-1.12-5.12-1.55-7.09s-1-3.46-1.23-4.51l-.45-1.6.55 1.56.67 1.88c.26.74.58 1.59.84 2.56.53 1.95 1.29 4.29 1.9 7 .32 1.37.7 2.82 1 4.36l1 4.87c.35 1.7.61 3.48.94 5.32s.61 3.75.88 5.72c.58 3.93 1.08 8.08 1.53 12.39l.63 6.56.52 6.73.41 6.85.3 6.91.16 6.92v6.87c0 2.28 0 4.53-.16 6.77l-.15 3.33-.23 3.26c-.36 4.35-.95 8.51-1.67 12.42s-1.5 7.59-2.35 10.95-1.68 6.42-2.49 9.12-1.55 5-2.18 6.95c-1.25 3.87-2.1 6.02-2.1 6.02zm9.87 24.62a8.65 8.65 0 0 1 1.63.49 11.83 11.83 0 0 1 1.78.86 14 14 0 0 1 2.11 1.5 13.75 13.75 0 0 1 2.09 2.28 11.66 11.66 0 0 1 .92 1.43c.14.25.3.51.42.78l.35.83a12.8 12.8 0 0 1 .6 1.74 11.7 11.7 0 0 1 .41 1.84l.08.47v.12a.67.67 0 0 1 0 .09v.29l.08.91a18.77 18.77 0 0 1 .07 1.91 21.64 21.64 0 0 1-.42 3.81 17.27 17.27 0 0 1-1.17 3.53 15.33 15.33 0 0 1-1.75 3c-.31.46-.67.85-1 1.24s-.71.72-1 1.06-.69.61-1 .89l-1 .72a17.32 17.32 0 0 1-1.69 1 11.61 11.61 0 0 1-1.14.54l-.41.18.35-.27c.23-.18.56-.43 1-.78s.88-.78 1.43-1.27l.81-.84.85-1a22.45 22.45 0 0 0 1.63-2.34 13.34 13.34 0 0 0 .73-1.36 15.34 15.34 0 0 0 .64-1.47c.22-.5.34-1 .52-1.57s.25-1.1.38-1.65a20.09 20.09 0 0 0 .31-3.44 16.24 16.24 0 0 0 0-1.75l-.06-.91v-.29c0 .05 0 0 0 0v-.11l-.07-.42a16.22 16.22 0 0 0-.74-3.25l-.27-.76-.32-.72a10.18 10.18 0 0 0-.7-1.36 16.63 16.63 0 0 0-1.65-2.29 18.61 18.61 0 0 0-1.82-1.66 16.12 16.12 0 0 0-1.53-1.13 11.75 11.75 0 0 0-1.45-.87z"/></svg>