<svg id="Layer_1" data-name="Layer 1" xmlns="http://www.w3.org/2000/svg" viewBox="0 0 548.05 368.87"><defs><style>.cls-1,.cls-7{fill:#606bb3}.cls-2,.cls-4,.cls-5,.cls-6,.cls-8,.cls-9{fill:none}.cls-2,.cls-4,.cls-5,.cls-9{stroke:#e9ebec}.cls-2,.cls-4,.cls-5,.cls-7,.cls-9{stroke-miterlimit:10}.cls-2{stroke-width:11px}.cls-3{fill:#e9ebec}.cls-4,.cls-5{stroke-width:2px}.cls-5{stroke-linecap:round}.cls-6,.cls-7{stroke:#606bb3}.cls-6{stroke-linejoin:round}.cls-6,.cls-9{stroke-width:3px}.cls-7{stroke-width:4px}</style></defs><title>Artboard 5</title><path class="cls-1" d="M392.14 0H155.91a47.38 47.38 0 0 0-37.14 18L10.24 155a47.38 47.38 0 0 0 0 58.83L118.77 350.9a47.38 47.38 0 0 0 37.14 18h236.23a47.38 47.38 0 0 0 37.14-18l108.53-137.05a47.38 47.38 0 0 0 0-58.83L429.28 18a47.38 47.38 0 0 0-37.14-18z"/><path class="cls-2" d="M378.94 20.61H169.11a42.09 42.09 0 0 0-33 16L31.7 168.43a25.79 25.79 0 0 0 0 32L136.12 332.3a42.09 42.09 0 0 0 33 16h209.82a42.09 42.09 0 0 0 33-16l104.41-131.86a25.79 25.79 0 0 0 0-32L411.93 36.57a42.09 42.09 0 0 0-32.99-15.96z"/><path class="cls-3" d="M282.68 140.23h.66a17.66 17.66 0 0 1 1.91.07 15.15 15.15 0 0 1 3.05.56 31.32 31.32 0 0 1 3.89 1.54 18.33 18.33 0 0 0 10.8 1 14.14 14.14 0 0 0 3.08-1c1-.45 2.06-1 3.21-1.54a18 18 0 0 1 7.81-1.49h1l1.08.09a16.66 16.66 0 0 1 2.16.36 21.6 21.6 0 0 1 4.16 1.52 18.48 18.48 0 0 0 3.93 1.39 19.17 19.17 0 0 0 4.24.34h1.15l1.06-.11a15.75 15.75 0 0 0 2.12-.44 26.28 26.28 0 0 0 4.21-1.79 17.26 17.26 0 0 1 5-1.56 24.58 24.58 0 0 1 5.24-.15 17.25 17.25 0 0 1 5.32 1.26 43.33 43.33 0 0 0 4.6 1.91 15.88 15.88 0 0 0 4.73.61 17.91 17.91 0 0 0 4.79-.58 37.53 37.53 0 0 0 4.7-2 17.4 17.4 0 0 1 5.59-1.39c.48-.06.95-.05 1.42-.07h2.09l.73.06a13.12 13.12 0 0 1 1.46.19 16.65 16.65 0 0 1 2.84.73c.92.33 1.78.73 2.59 1.11a16.25 16.25 0 0 0 4.65 1.61 10.74 10.74 0 0 0 1.21.16 11.8 11.8 0 0 0 1.24.08h1.25c.44 0 .91 0 1.28-.06a14.38 14.38 0 0 0 4.66-1.15 37.68 37.68 0 0 1 5.06-2.07 20.61 20.61 0 0 1 5.63-.65l1.31.05 1.41.18a17.89 17.89 0 0 1 2.75.62 45 45 0 0 1 4.84 2.08 14.6 14.6 0 0 0 4.49 1.12c.38.05.78.06 1.17.07h1.17a19.33 19.33 0 0 0 2.33-.16 15.58 15.58 0 0 0 4.32-1.27 27.59 27.59 0 0 1 4.62-1.81 19.32 19.32 0 0 1 4.91-.56 23.12 23.12 0 0 1 2.37.12 17.21 17.21 0 0 1 2.38.39 19.62 19.62 0 0 1 4.31 1.65 19.54 19.54 0 0 0 3.76 1.53 16.57 16.57 0 0 0 3.85.54h1.94c.62-.05 1.22-.07 1.82-.18a15 15 0 0 0 3.44-.93c1.1-.43 2.17-1 3.29-1.39a15.27 15.27 0 0 1 3.37-.89 22.75 22.75 0 0 1 6.21 0 16.28 16.28 0 0 1 5 1.56 38 38 0 0 0 3.77 1.73 14.92 14.92 0 0 0 3 .74 17.7 17.7 0 0 0 1.9.19h.65-.66a17.75 17.75 0 0 1-1.91-.07 15.18 15.18 0 0 1-3.05-.56 31.22 31.22 0 0 1-3.9-1.54 15.56 15.56 0 0 0-4.88-1.27 21.85 21.85 0 0 0-5.93.27 14.07 14.07 0 0 0-3.08 1c-1 .44-2.06 1-3.21 1.54a15.56 15.56 0 0 1-3.74 1.17c-.65.14-1.35.19-2 .27h-2.05a18.34 18.34 0 0 1-4.26-.46 21.46 21.46 0 0 1-4.16-1.52 18.51 18.51 0 0 0-3.93-1.39 15.05 15.05 0 0 0-2.07-.29 21.09 21.09 0 0 0-2.19-.06 17 17 0 0 0-4.32.59 25.55 25.55 0 0 0-4.21 1.78 17.27 17.27 0 0 1-5 1.56 22.05 22.05 0 0 1-2.61.22h-1.33c-.44 0-.88 0-1.33-.06a17.32 17.32 0 0 1-5.3-1.25 44.53 44.53 0 0 0-4.61-1.92 15.11 15.11 0 0 0-2.3-.48l-1.16-.1h-1.3a17.88 17.88 0 0 0-4.76.57 36.32 36.32 0 0 0-4.7 2 17.33 17.33 0 0 1-5.62 1.4c-.51.06-.93.06-1.38.07h-1.43a14.21 14.21 0 0 1-1.42-.08 13.21 13.21 0 0 1-1.44-.18 16.75 16.75 0 0 1-2.84-.72c-.91-.34-1.78-.72-2.59-1.11a16.31 16.31 0 0 0-4.65-1.62 10.17 10.17 0 0 0-1.19-.16l-.6-.06h-1.93c-.42 0-.84 0-1.24.06a14.39 14.39 0 0 0-4.69 1.14 38.82 38.82 0 0 1-5.06 2.08 20.53 20.53 0 0 1-5.6.66 18.71 18.71 0 0 1-5.52-.81 44 44 0 0 1-4.84-2.08 14.58 14.58 0 0 0-4.46-1.13 22 22 0 0 0-4.69.06 15.48 15.48 0 0 0-4.32 1.26 28.24 28.24 0 0 1-4.62 1.81 18 18 0 0 1-2.48.45l-1.25.1h-1.15a21.27 21.27 0 0 1-4.77-.5 19.46 19.46 0 0 1-4.31-1.65 19.69 19.69 0 0 0-3.76-1.53 14.85 14.85 0 0 0-1.91-.39l-.95-.11-1-.05a16.77 16.77 0 0 0-7.2 1.1c-1.1.43-2.17 1-3.29 1.39a15.32 15.32 0 0 1-3.37.89 19.18 19.18 0 0 1-11.14-1.51 38.2 38.2 0 0 0-3.77-1.73 14.86 14.86 0 0 0-3-.74 17.52 17.52 0 0 0-1.9-.19zM94 134.82h1.2a12.28 12.28 0 0 1 3.4.46 15.58 15.58 0 0 1 2.3.9c.81.37 1.64.82 2.55 1.16a13.82 13.82 0 0 0 6.42.6 10.89 10.89 0 0 0 3.43-1c1.13-.52 2.24-1.3 3.64-2a13.19 13.19 0 0 1 4.62-1.3l1.21-.08H124a15.31 15.31 0 0 1 2.55.3 17.16 17.16 0 0 1 4.73 1.92 12 12 0 0 0 4.11 1.43c.37 0 .73.09 1.1.1s.8 0 1.09 0 .84 0 1.22-.06.69-.07 1.05-.14a12.28 12.28 0 0 0 4.16-1.65 22.11 22.11 0 0 1 2.4-1.18 13.31 13.31 0 0 1 2.7-.75 17.55 17.55 0 0 1 2.71-.21h1.3c.42 0 .93.09 1.38.15a13.81 13.81 0 0 1 5 1.85 14.45 14.45 0 0 0 4 1.8 12.54 12.54 0 0 0 2.08.31c.34 0 .74.05 1 0h1.13a10.8 10.8 0 0 0 3.83-.87c1.21-.5 2.43-1.28 3.79-1.8a12.76 12.76 0 0 1 4.09-.84 19 19 0 0 1 1.93 0l.89.07.92.14a12.57 12.57 0 0 1 3.24 1 26.7 26.7 0 0 1 2.51 1.45 14.87 14.87 0 0 0 2.09 1.1 13.35 13.35 0 0 0 3.22.86l1.19.12h-1.2a12.26 12.26 0 0 1-3.4-.46 15.63 15.63 0 0 1-2.3-.9c-.81-.37-1.64-.82-2.55-1.16a11.29 11.29 0 0 0-3-.66l-.8-.05h-.89c-.55 0-1.15.06-1.73.11a10.87 10.87 0 0 0-3.45 1c-1.13.52-2.24 1.3-3.64 2a13.13 13.13 0 0 1-4.66 1.31l-1.14.07h-1.26a15.08 15.08 0 0 1-2.52-.3 17.05 17.05 0 0 1-4.73-1.92 12.08 12.08 0 0 0-4.1-1.44c-.36 0-.67-.09-1.07-.1h-1.17a14.61 14.61 0 0 0-2.23.2 12.32 12.32 0 0 0-4.16 1.64 23.22 23.22 0 0 1-2.4 1.18 13.31 13.31 0 0 1-2.7.75c-.46.09-.94.12-1.41.17s-.84 0-1.26 0h-1.38c-.46 0-.9-.09-1.35-.14a13.79 13.79 0 0 1-5-1.84 14.56 14.56 0 0 0-4-1.8 12.47 12.47 0 0 0-2.05-.31h-2.13a10.79 10.79 0 0 0-3.87.87c-1.21.5-2.43 1.28-3.79 1.8a12.7 12.7 0 0 1-4.12.84h-1.9l-.92-.07-.9-.14a12.61 12.61 0 0 1-3.24-1 26.68 26.68 0 0 1-2.51-1.45 14.88 14.88 0 0 0-2.09-1.1 13.35 13.35 0 0 0-3.21-.86z"/><path class="cls-4" d="M88 100.41c6.92 0 6.92 4 13.84 4s6.92-4 13.84-4 6.92 4 13.84 4 6.92-4 13.84-4 6.92 4 13.84 4 6.92-4 13.84-4 6.92 4 13.84 4 6.92-4 13.84-4 6.92 4 13.84 4 6.92-4 13.84-4 6.92 4 13.84 4 6.92-4 13.84-4 6.92 4 13.84 4 6.92-4 13.84-4 6.92 4 13.84 4 6.92-4 13.84-4 6.92 4 13.84 4 6.92-4 13.85-4 6.92 4 13.84 4 6.92-4 13.85-4 6.92 4 13.85 4 6.92-4 13.84-4 6.92 4 13.84 4 6.92-4 13.85-4 6.92 4 13.85 4 6.93-4 13.85-4 6.93 4 13.85 4"/><path class="cls-3" d="M509.86 205.54a22.61 22.61 0 0 1-6 1.29 26.07 26.07 0 0 1-12.64-1.83c-2-.88-3.9-2.1-6-3.22a24.2 24.2 0 0 0-6.95-2.47 15.9 15.9 0 0 0-1.87-.28 17.65 17.65 0 0 0-1.85-.17l-1.79-.07-1.92.05a25.83 25.83 0 0 0-7.51 1.38 46.09 46.09 0 0 0-6.82 3.33 23.3 23.3 0 0 1-6.58 2.52 26.18 26.18 0 0 1-3.49.47l-1.9.06c-.53 0-1.19 0-1.78-.05a22.76 22.76 0 0 1-7.05-1.38 53.1 53.1 0 0 1-6.74-3.45 25.36 25.36 0 0 0-7.86-2.82 30.15 30.15 0 0 0-4.17-.42h-2.1c-.7 0-1.4 0-2.1.1a24.31 24.31 0 0 0-8.3 2.13c-2.63 1.19-4.9 2.71-7.21 3.73a22 22 0 0 1-3.56 1.25l-1.86.38-1.85.21c-.64.05-1.36.06-2 .09H385l-1-.11a15.51 15.51 0 0 1-1.91-.29 23 23 0 0 1-7.22-2.79c-1.18-.66-2.43-1.38-3.74-2a25.51 25.51 0 0 0-4.19-1.65c-.36-.1-.73-.22-1.09-.31l-1.11-.23a18.61 18.61 0 0 0-2.27-.34c-.38 0-.77-.09-1.14-.12h-3.29a26.24 26.24 0 0 0-8.91 1.56 30.29 30.29 0 0 0-4.11 1.9c-1.28.7-2.5 1.41-3.7 2a21.25 21.25 0 0 1-7.52 2.25 30.79 30.79 0 0 1-8.1-.18 22.89 22.89 0 0 1-7.49-2.78c-1.23-.68-2.51-1.42-3.87-2.12a25.36 25.36 0 0 0-4.36-1.71 19.34 19.34 0 0 0-2.29-.54 21.93 21.93 0 0 0-2.36-.34 22.4 22.4 0 0 0-2.25-.14h-2.31a26.43 26.43 0 0 0-9.18 1.79c-3 1.16-5.45 2.9-7.9 4a21 21 0 0 1-3.76 1.37c-.64.17-1.31.27-2 .41l-1.95.23-2.18.08c-.59 0-1.35 0-2-.05a19.41 19.41 0 0 1-2-.18 17.44 17.44 0 0 1-2-.34 25.56 25.56 0 0 1-7.51-3.16 29.55 29.55 0 0 0-8.61-3.57 22.07 22.07 0 0 0-2.36-.4c-.79-.08-1.65-.21-2.34-.21h-2.29l-2.32.09a25.18 25.18 0 0 0-9.11 2.39c-2.85 1.34-5.19 3-7.68 4a16.86 16.86 0 0 1-1.88.65c-.32.09-.63.2-1 .27l-1 .2a16.78 16.78 0 0 1-2 .29 17.67 17.67 0 0 1-2.09.14 26.24 26.24 0 0 1-8-.83 21.56 21.56 0 0 1-3.73-1.44c-1.22-.62-2.44-1.31-3.75-2a26.73 26.73 0 0 0-8.67-3.17c-.76-.15-1.57-.2-2.35-.29s-1.46-.07-2.19-.11h-3.44l-1.14.13a25 25 0 0 0-8.79 2.64 68.36 68.36 0 0 1-7.42 3.79 20.73 20.73 0 0 1-3.77 1c-.64.12-1.27.16-1.91.25s-1.39.07-2.08.11a26.25 26.25 0 0 1-7.79-.88 21.65 21.65 0 0 1-3.62-1.4c-1.19-.6-2.36-1.26-3.61-2a26.65 26.65 0 0 0-8.25-3.14 18.29 18.29 0 0 0-2.22-.33l-1.12-.12h-3.12c-.72 0-1.44 0-2.16.1a24.42 24.42 0 0 0-8.47 2.16c-2.66 1.2-4.92 2.74-7.2 3.77a21.49 21.49 0 0 1-3.51 1.26c-.6.15-1.22.25-1.82.39s-1.21.15-1.81.23-1.31.07-2 .11h-1.88a27.11 27.11 0 0 1-3.73-.32 22 22 0 0 1-6.93-2.4 56.31 56.31 0 0 0-7.15-3.54 22.58 22.58 0 0 0-4-1.07 18.39 18.39 0 0 0-2-.28l-1-.11h-1a30.61 30.61 0 0 0-7.91.62 26.17 26.17 0 0 0-7.33 2.87 44.47 44.47 0 0 1-6.39 3.24 20.18 20.18 0 0 1-3.3.91 14.05 14.05 0 0 1-1.67.26 14.22 14.22 0 0 1-1.72.16l-1.75.07-1.72-.05a14.73 14.73 0 0 1-1.7-.13 14.32 14.32 0 0 1-1.67-.23 20.68 20.68 0 0 1-4.85-1.47l2.66 3.6c.57.15 1.15.29 1.73.39a16.41 16.41 0 0 0 1.84.28 16.75 16.75 0 0 0 1.86.17l1.86.08 1.85-.05a17 17 0 0 0 1.88-.14 16.64 16.64 0 0 0 1.91-.27 22.89 22.89 0 0 0 3.74-1 46.66 46.66 0 0 0 6.81-3.34 23.25 23.25 0 0 1 6.59-2.51 27.73 27.73 0 0 1 7.19-.46h1l.87.11a15.36 15.36 0 0 1 1.75.27A19.54 19.54 0 0 1 83 203a54.4 54.4 0 0 1 6.74 3.46 25.24 25.24 0 0 0 7.86 2.81 30.36 30.36 0 0 0 4.17.41h2.06c.68 0 1.3 0 2-.1s1.45-.14 2.16-.25 1.41-.26 2.11-.44a24.88 24.88 0 0 0 4.07-1.45c2.63-1.19 4.89-2.71 7.2-3.73a20.92 20.92 0 0 1 7.34-1.83c.64 0 1.3 0 1.95-.08h2.94l.93.11a14.86 14.86 0 0 1 1.87.29 23.08 23.08 0 0 1 7.22 2.8c1.18.66 2.44 1.38 3.74 2a25.19 25.19 0 0 0 4.2 1.65 29.72 29.72 0 0 0 8.91 1.05c.72 0 1.38 0 2.15-.1s1.55-.15 2.3-.28a24.36 24.36 0 0 0 4.43-1.18 30.45 30.45 0 0 0 4.1-1.9c1.28-.7 2.5-1.41 3.7-2 4.71-2.47 10.25-2.83 15.63-2a22.91 22.91 0 0 1 7.49 2.79c1.22.68 2.52 1.43 3.88 2.12a25.3 25.3 0 0 0 4.36 1.7 30 30 0 0 0 9.22 1 20.92 20.92 0 0 0 2.26-.14 20.5 20.5 0 0 0 2.36-.34l1.16-.23c.38-.09.76-.21 1.14-.32a20.64 20.64 0 0 0 2.24-.77c3-1.16 5.44-2.9 7.89-4a21.2 21.2 0 0 1 7.75-2l2.06-.07h2.1a19.25 19.25 0 0 1 2 .19 18.1 18.1 0 0 1 2 .34 25.6 25.6 0 0 1 7.51 3.18 29.11 29.11 0 0 0 8.61 3.56 21.16 21.16 0 0 0 2.34.4 23.24 23.24 0 0 0 2.33.2c.8 0 1.5.08 2.37 0l2.2-.09 2.4-.28c.77-.16 1.56-.29 2.32-.49a24.89 24.89 0 0 0 4.45-1.64c2.85-1.34 5.19-3 7.67-4a22.56 22.56 0 0 1 7.86-1.54h2a19.37 19.37 0 0 1 2.1.13 18.08 18.08 0 0 1 1.95.27 15.76 15.76 0 0 1 1.94.45 21.58 21.58 0 0 1 3.72 1.45c1.22.62 2.45 1.32 3.75 2a26.71 26.71 0 0 0 8.68 3.16 34.39 34.39 0 0 0 9.08.19 25 25 0 0 0 8.82-2.66c1.34-.69 2.58-1.41 3.8-2.09a26.69 26.69 0 0 1 3.62-1.69 22.64 22.64 0 0 1 7.73-1.36h3.07c.33 0 .64.07 1 .11a15.28 15.28 0 0 1 1.9.28l1 .19c.31.08.62.18.93.26a21.92 21.92 0 0 1 3.62 1.41c1.19.6 2.36 1.26 3.61 2a26.62 26.62 0 0 0 8.26 3.13 18.7 18.7 0 0 0 2.19.32l1.09.12h3.3c.69 0 1.35 0 2.08-.1l2.23-.26c.72-.15 1.44-.28 2.16-.44a25.41 25.41 0 0 0 4.14-1.47c2.66-1.21 4.91-2.74 7.19-3.76a20.89 20.89 0 0 1 7.29-1.55c.62-.08 1.26-.07 1.89-.11h1.89a26.31 26.31 0 0 1 3.73.33 22 22 0 0 1 6.92 2.41 55.23 55.23 0 0 0 7.16 3.54 25.84 25.84 0 0 0 8 1.47c.68 0 1.29.07 2 0l1.9-.08a29.15 29.15 0 0 0 4-.58 26.21 26.21 0 0 0 7.32-2.89 43.89 43.89 0 0 1 6.39-3.23 23.12 23.12 0 0 1 6.72-1.31l1.68-.07 1.79.05a14.8 14.8 0 0 1 1.7.14 13.62 13.62 0 0 1 1.65.23 21.63 21.63 0 0 1 6.28 2.16c2 1 4 2.26 6.2 3.21a28.38 28.38 0 0 0 13.78 1.91 24.78 24.78 0 0 0 5.8-1.21l2.49-3.37a23.68 23.68 0 0 1-2.43 1.04z"/><path class="cls-1" d="M96.54 241.9c10.09-1 10.43 6 20.57 6s10.14-6 20.28-6 10.14 6 20.28 6 10.14-6 20.28-6 9.85 4.71 19.91 6c2.83.36-1.33.79-4 1.73s-4.66-4.73-7.35-3.8-.72 6.6-3.41 7.54-4.66-4.73-7.36-3.79-.88 6.88-3.63 7.61-4-5.35-6.75-4.85-1.63 6.4-4.35 6.9-3.8-5.4-6.52-4.9-1.63 6.4-4.35 6.9-3.22-5-6-5c-4.26 0-4.58 5.48-8.81 5s-3.53-6.46-7.76-7-4.94 5.46-9.17 5-3.53-6.46-7.77-7-5.61 6.09-9.69 4.85c-1-.31 3-5.22 2.52-6.15s-5.79 1.89-6.29 1 4.8-3.76 4.3-4.69-5.85 1.83-6.33.89c-1.14-2.39.35-6.14 1.4-6.24zM276.56 187c177.13 0 155.21-18.64 161.27-29.77.86-1.58 3.48-.71 4.34.86 5.42 9.81 20 37.06 3.54 59.44a29 29 0 0 1-21 11.49c-34 2.92-286.66 2.92-320.7 0a29 29 0 0 1-21-11.49c-16.56-22.5-1.72-50 3.62-59.6.84-1.51 3-2.25 4.2-1 10.76 11.89-15.02 30.13 185.73 30.07z"/><path class="cls-1" d="M298.52 187c177.13 0 155.21-18.64 161.27-29.77.86-1.58 3.48-.71 4.34.86 5.42 9.81 20 37.06 3.54 59.44a29 29 0 0 1-21 11.49c-34 2.92-286.66 2.92-320.7 0a29 29 0 0 1-21-11.49c-16.56-22.5-1.72-50 3.62-59.6.84-1.51 3-2.25 4.2-1 10.76 11.89-15.02 30.13 185.73 30.07z"/><path class="cls-3" d="M287.35 187c177.13 0 155.21-18.64 161.27-29.77.86-1.58 3.48-.71 4.34.86 5.42 9.81 20 37.06 3.54 59.44a29 29 0 0 1-21 11.49c-34 2.92-286.66 2.92-320.7 0a29 29 0 0 1-21-11.49c-16.56-22.5-1.72-50 3.62-59.6.84-1.51 3-2.25 4.2-1 10.76 11.89-15.02 30.13 185.73 30.07z"/><path class="cls-5" d="M106 181.83s177.69-5.65 339.93 0"/><path class="cls-6" d="M114.03 193.49l-7.98 7.11 7.98 6.58m6.32 0l7.99-7.11-7.99-6.58m299.48.22l-8.25 6.88 8.25 6.37m17.9 0l8.25-6.88-8.25-6.37m-6.23 0l-5.5 13.25"/><path class="cls-1" d="M62 222c14-1.66 14.41 6 28.47 6s14.06-6 28.11-6 14.06 6 28.11 6 14.06-6 28.11-6 14.06 6 28.11 6 14.06-6 28.12-6 14.05 6 28.11 6 14.06-6 28.11-6 14.06 6 28.11 6 14.06-6 28.12-6 14.06 6 28.12 6 14.06-6 28.12-6 14.06 6 28.12 6 14.06-6 28.12-6 13.77 3.81 27.66 6c3.82.59-1.77 1.39-5.27 3s-6-3.8-9.54-2.16-1 7.07-4.46 8.71-6-3.8-9.54-2.16-1 7.07-4.46 8.71-6-3.8-9.54-2.16-1 7.07-4.45 8.71-6-3.8-9.54-2.16-1 7.07-4.46 8.71-6-3.8-9.54-2.16-1 7.07-4.46 8.71-6-3.8-9.54-2.16-1 7.07-4.46 8.71-6-3.79-9.55-2.16-1.54 8.52-5.38 9c-8.76 1-9.11-6.15-17.93-6.33s-8.94 5.82-17.75 5.65-8.7-6.17-17.51-6.35-8.93 5.82-17.75 5.65-8.7-6.17-17.51-6.35-8.94 5.82-17.75 5.65-8.7-6.17-17.51-6.35-8.94 5.82-17.75 5.65-8.7-6.17-17.52-6.35-8.94 5.82-17.75 5.65-8.7-6.17-17.51-6.35-8.94 5.82-17.76 5.65-8.7-6.17-17.52-6.35-8.94 5.82-17.76 5.65-8.4-5-17.12-6.31c-2.25-.35-4.13 3.8-5.87 2.33s2.12-6.05.39-7.51-5.6 3.13-7.34 1.67 2.12-6.05.39-7.52-5.6 3.08-7.33 1.62 2.12-6.05.38-7.52-5.6 3.13-7.34 1.67 2.12-6.06.38-7.52-5.6 3.13-7.34 1.66 2.12-6.05.38-7.52-5.6 3.13-7.34 1.66 2.12-6.06.38-7.52-5.6 3.13-7.34 1.66 2.14-5.95.44-7.47c-2.87-2.59-8.1-3.39-5.87-3.64z"/><path class="cls-3" d="M144.38 269.9h.8a16.8 16.8 0 0 1 2.33.12l.81.09.89.18a14.45 14.45 0 0 1 2 .55 21.89 21.89 0 0 1 4.58 2.35 28.91 28.91 0 0 0 5.44 3 18.35 18.35 0 0 0 7.06 1c.65-.06 1.36-.06 2-.17a16.56 16.56 0 0 0 1.93-.38 15.12 15.12 0 0 0 3.81-1.52c2.46-1.36 4.82-3.58 8.08-5a19.93 19.93 0 0 1 5.17-1.32c.91 0 1.76-.15 2.74-.13a20.44 20.44 0 0 1 2.71.17 16.81 16.81 0 0 1 5.59 1.62 46.32 46.32 0 0 1 4.88 3 17.39 17.39 0 0 0 4.72 2.25 16.75 16.75 0 0 0 2.59.48l.66.08h1.98a18.24 18.24 0 0 0 5.4-.88 19.78 19.78 0 0 0 4.92-2.66 28.49 28.49 0 0 1 5.66-3.3 19.1 19.1 0 0 1 6.73-1.34h2.51a6 6 0 0 1 .84.07c.6.08 1.21.14 1.8.25l1.73.41a22.24 22.24 0 0 1 6.22 3.12 25.32 25.32 0 0 0 5.22 3 16.09 16.09 0 0 0 5.69 1h.28c.11 0 0 0 0 0h2.03l.68-.1a9.84 9.84 0 0 0 1.38-.25 10.33 10.33 0 0 0 1.38-.39 21.05 21.05 0 0 0 5.24-2.86 24.69 24.69 0 0 1 6.23-3.31 17.73 17.73 0 0 1 3.55-.79l.89-.12h2.7l1.63.07c.6.07 1.23.16 1.85.25a19.22 19.22 0 0 1 3.51 1 29.09 29.09 0 0 1 6 3.42A16.24 16.24 0 0 0 310 276c.51 0 1.09 0 1.54-.08l1.34-.17 1.35-.31c.45-.12.87-.29 1.31-.43a25.53 25.53 0 0 0 5-2.86 23.1 23.1 0 0 1 5.8-3 20.83 20.83 0 0 1 6.4-.92h2.28l.81.12a19.61 19.61 0 0 1 3.13.68 20.39 20.39 0 0 1 5.45 2.77 44 44 0 0 0 4.51 2.91 14.63 14.63 0 0 0 4.67 1.51 18.27 18.27 0 0 0 2.45.24h2.5a17.66 17.66 0 0 0 4.48-1c2.84-1.08 5.22-3.16 8-4.57a18.48 18.48 0 0 1 8.58-1.85 19.69 19.69 0 0 1 7.51 1.44 29.81 29.81 0 0 1 5.46 3.36 24.12 24.12 0 0 0 4.32 2.55 14.05 14.05 0 0 0 1.91.67l.86.24.79.14a16.72 16.72 0 0 0 2.31.28l.8.06h-.8a16.89 16.89 0 0 1-2.34-.12l-.81-.09-.89-.18a14.45 14.45 0 0 1-2-.55 21.89 21.89 0 0 1-4.58-2.35 29 29 0 0 0-5.44-3 18.32 18.32 0 0 0-7.08-1 16.75 16.75 0 0 0-7.71 2.06c-2.46 1.35-4.82 3.58-8.07 5a19.81 19.81 0 0 1-5.23 1.33l-1.28.08h-1.37a21 21 0 0 1-2.78-.17 16.82 16.82 0 0 1-5.56-1.62 45.93 45.93 0 0 1-4.88-3 17.3 17.3 0 0 0-4.72-2.26 16.52 16.52 0 0 0-2.54-.48l-.64-.08h-2.01c-.1 0 0 0 0 0h-.09a18.62 18.62 0 0 0-5.34.87 19.7 19.7 0 0 0-4.92 2.65 28.72 28.72 0 0 1-5.66 3.3c-.54.19-1.09.41-1.64.57l-1.69.42-1.78.25c-.59.07-1.07.07-1.6.1a22.07 22.07 0 0 1-6.91-.73 22.32 22.32 0 0 1-6.22-3.12 25.59 25.59 0 0 0-5.22-3 15.33 15.33 0 0 0-2.74-.75l-1.38-.19-1.63-.07h-2.18l-.72.1a13.78 13.78 0 0 0-2.81.64 21.09 21.09 0 0 0-5.24 2.85 24.92 24.92 0 0 1-6.23 3.31 14 14 0 0 1-1.76.49 13.62 13.62 0 0 1-1.83.32l-.93.12h-2.56a20 20 0 0 1-7-1.29 28.82 28.82 0 0 1-6-3.42 18.85 18.85 0 0 0-5.16-2.67l-1.37-.35c-.45-.08-.9-.13-1.34-.21a4.41 4.41 0 0 0-.74-.07h-2.23a15.45 15.45 0 0 0-5.52 1 25.25 25.25 0 0 0-5 2.85 23.19 23.19 0 0 1-5.8 3 20.83 20.83 0 0 1-6.33.92h-2.42l-.78-.11a20 20 0 0 1-3.09-.67 20.45 20.45 0 0 1-5.45-2.76 44.34 44.34 0 0 0-4.51-2.92 14.73 14.73 0 0 0-4.64-1.51 17.93 17.93 0 0 0-2.51-.25c-.75-.05-1.61 0-2.4 0a17.58 17.58 0 0 0-4.54 1c-2.84 1.07-5.22 3.16-8 4.57a16.94 16.94 0 0 1-4.33 1.48 18.15 18.15 0 0 1-2.19.31c-.72.08-1.37 0-2 .07a19.6 19.6 0 0 1-7.53-1.43 29.7 29.7 0 0 1-5.46-3.36 24.16 24.16 0 0 0-4.32-2.55 14.07 14.07 0 0 0-1.91-.67l-.86-.24-.79-.14a16.62 16.62 0 0 0-2.31-.28z"/><path class="cls-7" d="M220.2 166a1.76 1.76 0 0 1-.37-.82l-.86-5.09a1.76 1.76 0 0 1 3.1-1.4l5.67 7a1.76 1.76 0 0 1-2 2.75l-4.81-1.89a1.76 1.76 0 0 1-.73-.55z"/><path class="cls-7" d="M162.79 212.57a1.76 1.76 0 0 1 .26-2.48l59.39-48.17a1.76 1.76 0 1 1 2.22 2.73l-59.39 48.17a1.76 1.76 0 0 1-2.48-.25z"/><path class="cls-7" d="M162.38 223.24c-1.27-4.56 4.37-13.87 4.37-13.87s-10.27 3.6-14.47 1.41c-5.24-2.73-25.09 11.63-29.08 17.55-3.39 5 1.16 11 2.86 12.93q.57.65 1.09 1.35c1.54 2.06 6.43 7.75 12.06 5.47 6.62-2.69 24.79-19.16 23.17-24.84z"/><path class="cls-7" d="M162.91 210.48s-11.69-1.62-16.92 1.09l10.54 1.67zm1.96 2.4s-.83 11.78-4.56 16.33l.54-10.66zm58.29-40.97a1.76 1.76 0 0 1-.37-.82l-.86-5.09a1.76 1.76 0 0 1 3.1-1.4l5.67 7a1.76 1.76 0 0 1-2 2.75l-4.81-1.89a1.76 1.76 0 0 1-.73-.55z"/><path class="cls-7" d="M165.75 218.48A1.76 1.76 0 0 1 166 216l59.39-48.17a1.76 1.76 0 1 1 2.22 2.73l-59.39 48.17a1.76 1.76 0 0 1-2.47-.25z"/><path class="cls-7" d="M165.33 229.14c-1.27-4.56 4.37-13.87 4.37-13.87s-10.27 3.6-14.47 1.41c-5.24-2.73-25.09 11.63-29.08 17.55-3.39 5 1.16 11 2.86 12.93q.57.65 1.09 1.35c1.54 2.06 6.43 7.75 12.06 5.47 6.62-2.68 24.76-19.15 23.17-24.84z"/><path class="cls-7" d="M165.87 216.39s-11.69-1.62-16.92 1.09l10.54 1.67zm1.95 2.4s-.83 11.78-4.56 16.33l.54-10.66z"/><path class="cls-3" d="M221.68 170.43a1.76 1.76 0 0 1-.37-.82l-.86-5.09a1.76 1.76 0 0 1 3.1-1.4l5.67 7a1.76 1.76 0 0 1-2 2.75L222.4 171a1.76 1.76 0 0 1-.72-.57z"/><path class="cls-3" d="M164.27 217a1.76 1.76 0 0 1 .26-2.48l59.39-48.17a1.76 1.76 0 0 1 2.22 2.73l-59.39 48.17a1.76 1.76 0 0 1-2.48-.25z"/><path class="cls-3" d="M163.85 227.66c-1.27-4.56 4.37-13.87 4.37-13.87s-10.27 3.6-14.47 1.41c-5.24-2.73-25.09 11.63-29.08 17.55-3.39 5 1.16 11 2.86 12.93q.57.65 1.09 1.35c1.54 2.06 6.43 7.75 12.06 5.47 6.62-2.68 24.76-19.15 23.17-24.84z"/><path class="cls-3" d="M164.39 214.91s-11.69-1.62-16.92 1.09l10.53 1.67zm1.95 2.4s-.83 11.78-4.56 16.33l.54-10.66z"/><path class="cls-1" d="M108 247.94c7.94-.77 8.27 6 16.26 6s8-6 16-6 8 6 16 6 8-6 16-6 7.68 5 15.6 6c2.22.28-.76.59-2.88 1.33s-4.09-4.93-6.21-4.19-.15 6.4-2.27 7.14-4.09-4.93-6.21-4.19 0 6.24-2.13 7.09-4.53-4.51-6.67-3.52.39 6.43-1.75 7.43-4.67-4.45-6.81-3.46.38 6.44-1.76 7.43-3.19-3.73-5.55-3.73c-3.48 0-4.19 4.88-7.52 3.89s-1.62-6.74-4.95-7.74-5 4.76-8.38 3.76-1.62-6.74-5-7.74-5.63 5.07-8.79 3.61c-.76-.35 3.52-4.87 3.13-5.6s-5.69 2.09-6.08 1.35 4.9-3.56 4.51-4.3-5.81 1.95-6.16 1.19c-1.06-2.2.76-5.69 1.62-5.75z"/><path class="cls-3" d="M104.79 72.69l128.89 1.5-128.89 1.5a1.5 1.5 0 1 1 0-3z"/><path class="cls-3" d="M442.52 75.69l-208.85-1.5 208.85-1.5a1.5 1.5 0 1 1 0 3zm-14.47 234.78c-.59-.1-1.2-.17-1.8-.25a6.19 6.19 0 0 0-.84-.07h-2.51a19.1 19.1 0 0 0-6.73 1.34 28.49 28.49 0 0 0-5.66 3.3 19.79 19.79 0 0 1-4.92 2.66 18.24 18.24 0 0 1-5.4.88h-1.98l-.66-.08a16.81 16.81 0 0 1-2.59-.48 17.39 17.39 0 0 1-4.72-2.25 46.32 46.32 0 0 0-4.88-3 16.81 16.81 0 0 0-5.59-1.62 20.44 20.44 0 0 0-2.71-.17c-1 0-1.84.08-2.74.13a20 20 0 0 0-5.17 1.32c-3.25 1.41-5.62 3.64-8.08 5a15.09 15.09 0 0 1-3.81 1.52 16.46 16.46 0 0 1-1.93.38c-.64.11-1.34.11-2 .17a18.35 18.35 0 0 1-7.06-1 28.94 28.94 0 0 1-5.44-3 21.89 21.89 0 0 0-4.58-2.35 14.45 14.45 0 0 0-2-.55l-.89-.18-.81-.09a16.72 16.72 0 0 0-2.33-.12h-.8l.8.06a16.62 16.62 0 0 1 2.31.28l.79.14.86.24a14.07 14.07 0 0 1 1.91.67 24.16 24.16 0 0 1 4.32 2.55 29.7 29.7 0 0 0 5.46 3.36 19.6 19.6 0 0 0 7.53 1.43c.67 0 1.32 0 2-.07a18 18 0 0 0 2.19-.31 16.92 16.92 0 0 0 4.33-1.48c2.83-1.4 5.2-3.5 8-4.57a17.58 17.58 0 0 1 4.54-1c.79 0 1.65-.08 2.4 0a17.92 17.92 0 0 1 2.51.25 14.73 14.73 0 0 1 4.64 1.51 44.42 44.42 0 0 1 4.51 2.92 20.42 20.42 0 0 0 5.48 2.76 19.9 19.9 0 0 0 3.09.67l.78.11h2.42a20.83 20.83 0 0 0 6.33-.92 23.19 23.19 0 0 0 5.8-3 25.25 25.25 0 0 1 5-2.85 15.46 15.46 0 0 1 5.52-1h2.23a4.31 4.31 0 0 1 .74.07l.41.06 2.68-3.14z"/><path class="cls-5" d="M290.41 179.32l-19.89 12.49"/><path class="cls-3" d="M274 42.73a22.38 22.38 0 0 0-22.38 22.38h44.76A22.38 22.38 0 0 0 274 42.73z"/><path class="cls-8" d="M140.59 30.48l-16.82 19.03 104.96 8.5-88.14-27.53zm185.61-9.94l-24.54-.05L292.95 41l33.25-20.46zm78.43 5.26l-17.11-5.19h-27.24l-24.5-.05-34.81 29.82L404.63 25.8zm17.68 23.87l-3.6-4.54-11.64-15.98-89.04 28.98 104.28-8.46zM213.53 20.46l-44.42.15-24.38 5.19-1.51 1.7 104.25 23.01-33.94-30.05zm33.68-.08l-6.33-.01-20.05.06 35 20.77-8.62-20.82zm23.76.05l-17.35-.04 14.2 17.07 3.15-17.03z"/><path class="cls-3" d="M267.82 37.46l.07.09a28.17 28.17 0 0 1 12.68.09l-3.18-17.2H271zM318 58.13l-15.8 5.15c0 .61.08 1.71.08 2.33l44.43-.09 78.51-12.17-2.92-3.69zm-194.23-8.62L120.66 53l80.45 12.5 44.67-.39c0-.59 0-1.18.06-1.76L228.73 58z"/><path class="cls-3" d="M409.07 30.15l-5.44-3.35L301 50.38 299.05 52a28.07 28.07 0 0 1 3.15 11.26l15.8-5.13zM144.22 25.5l-2.63 4L228.73 58l17.11 5.35a28.07 28.07 0 0 1 3.22-11.44l-1.58-1.4z"/><path class="cls-3" d="M345.78 20.56h-9.58L293 41l-1 2.31a28.36 28.36 0 0 1 7.05 8.69l1.95-1.62zm-134.95-.12h-7.3l43.94 30 1.58 1.4a28.36 28.36 0 0 1 7.49-9l-.72-1.73z"/><path class="cls-3" d="M301.66 20.49h-6.78l-14.08 17.2a28.15 28.15 0 0 1 11.2 5.62l1-2.31zm-48.04-.1h-6.4l8.62 20.82.72 1.73a28.13 28.13 0 0 1 11.34-5.39l-.07-.09z"/><path class="cls-9" d="M112.72 64.23h133.06m56.42 0h133.06"/><path class="cls-1" d="M453.32 173a39.61 39.61 0 0 1 2.24 6.17 54.55 54.55 0 0 1 1.43 6.6c.17 1.23.36 2.5.44 3.8s.15 2.63.16 4-.09 2.66-.2 4a35.68 35.68 0 0 1-.58 3.81 27.74 27.74 0 0 1-.93 3.48 24.43 24.43 0 0 1-1.19 3c-.22.45-.43.88-.64 1.28l-.66 1.11c-.41.7-.86 1.25-1.18 1.72-.74.89-1.17 1.38-1.17 1.38l.83-1.59c.23-.52.54-1.13.84-1.86l.46-1.16.45-1.3c.29-.92.57-1.91.82-3s.45-2.21.63-3.38.28-2.41.39-3.66.13-2.53.13-3.81 0-2.56-.08-3.82-.14-2.5-.26-3.71c-.23-2.4-.52-4.65-.81-6.57-.59-3.94-1.12-6.49-1.12-6.49z"/></svg>