<svg id="Layer_1" data-name="Layer 1" xmlns="http://www.w3.org/2000/svg" viewBox="0 0 378.1 426.6"><defs><style>.cls-1{fill:#0eaac8}.cls-2{fill:#393d40}.cls-3{fill:#5d5d5d}.cls-4{fill:none}</style></defs><title>Artboard 4</title><path class="cls-1" d="M375.83 59.78L326.08 5a8.72 8.72 0 0 0-11.86-.94C270.72 38.27 209.39 9.66 193.13 1A8.69 8.69 0 0 0 185 1c-16.29 8.66-77.62 37.27-121.12 3.11A8.72 8.72 0 0 0 52 5L2.27 59.78a8.68 8.68 0 0 0 .09 11.79c8.75 9.3 24.44 28.58 23.34 46.26-1.53 24.43-30.54 156-23.41 196.95 6.44 37 27.48 85.5 132.32 93.64 22.23 1.73 38.34 7.88 49.15 16.35a8.61 8.61 0 0 0 10.6 0c10.81-8.47 26.92-14.62 49.15-16.35 104.84-8.14 125.87-56.64 132.32-93.64 7.13-40.92-21.88-172.52-23.41-196.95-1.1-17.68 14.58-37 23.34-46.26a8.68 8.68 0 0 0 .07-11.79z"/><path class="cls-2" d="M189 31.8c13.58 6.77 45.09 18.45 76.4 18.45 20.06 0 37.43-4.65 51.68-13.83L344.69 68a77.76 77.76 0 0 0-19.21 60.65c.67 6.06 2.8 17.82 5.76 34.08 7.37 40.55 21.07 116 16.6 141.69-2.2 12.62-7 31.14-23.22 46.17-18 16.69-47.26 26.71-87 29.79-20 1.55-36.36 6.83-48.6 15.68-12.25-8.85-28.58-14.12-48.6-15.68-39.71-3.08-69-13.11-87-29.79-16.22-15-21-33.55-23.22-46.17-4.47-25.68 9.24-101.15 16.6-141.69 3-16.27 5.09-28 5.76-34.08A77.76 77.76 0 0 0 33.41 68L61 36.43c14.24 9.18 31.62 13.83 51.68 13.83 31.31 0 62.82-11.69 76.4-18.45m0-11.37a8.08 8.08 0 0 0-3.71.92c-8.5 4.42-40.05 17.91-72.69 17.91-16.42 0-33.11-3.41-47.28-13.11a9.09 9.09 0 0 0-5.11-1.63A7.54 7.54 0 0 0 54.6 27L23.41 62.71a7.89 7.89 0 0 0 .08 10.71c7.95 8.45 21.22 26.53 18.2 54C39.26 149.53 13 269.14 19.42 306.3c5.85 33.6 25 77.65 120.17 85 20.19 1.57 34.82 7.16 44.64 14.85a6.94 6.94 0 0 0 4.5 1.65h.27a7.8 7.8 0 0 0 4.82-1.66c9.82-7.69 24.45-13.28 44.64-14.85 95.21-7.4 114.32-51.44 120.17-85 6.47-37.16-19.83-156.77-22.26-178.87-3-27.49 10.25-45.57 18.2-54a7.89 7.89 0 0 0 .08-10.71L323.5 27a7.54 7.54 0 0 0-5.67-2.48 9.09 9.09 0 0 0-5.11 1.63c-14.17 9.7-30.86 13.11-47.28 13.11-32.63 0-64.19-13.49-72.69-17.91a8.81 8.81 0 0 0-3.89-.92z"/><path class="cls-3" d="M188.77 269.54v4.67l.56-4.67h-.56z"/><path class="cls-2" d="M199.49 106.74h-20.88V96.29a10.44 10.44 0 0 1 20.88 0zm-16.69-4.19h12.5v-6.26a6.25 6.25 0 0 0-12.5 0z"/><path class="cls-2" d="M174.59 110h45.89a5.39 5.39 0 0 0 0-10.78h-62.86a5.39 5.39 0 0 0 0 10.78h17zm45.75-9a1.06 1.06 0 0 1 .54.15 6.39 6.39 0 0 1 3 3.95s-3.51-3.76-5.51-4.09zm-3.61 9.03h-42.14l-13.22 1.64v6.81h55.36v-8.45zm-60.87 21.22h75.5V128a9.49 9.49 0 0 0-9.49-9.49h-65.64a9.49 9.49 0 0 0-9.49 9.49v3.29h9.12zm66.72-9.78a1.77 1.77 0 0 1 .9.25 10.61 10.61 0 0 1 5 6.55s-5.82-6.24-9.14-6.8z"/><path class="cls-2" d="M227.23 131.25h-71.37l-8 .7c-2.69 1.18-5.16 3.69-5.16 6.24v1.24h92.64v-1.23c.03-3.51-4.6-6.95-8.11-6.95z"/><path class="cls-2" d="M237.65 251.7h-97.2l9.85-117.95h77.5zM145 247.5h88.09l-9.15-109.56h-69.78z"/><rect class="cls-2" x="132.44" y="247.8" width="113.21" height="11.93" rx="5.58" ry="5.58"/><path class="cls-2" d="M231.78 272.67h4.34a6.21 6.21 0 0 1 6.21 6.21v.48a.79.79 0 0 1-.79.79h-15.19a.79.79 0 0 1-.79-.79v-.48a6.21 6.21 0 0 1 6.21-6.21z" transform="rotate(90 233.945 276.415)"/><path class="cls-2" transform="rotate(90 228.955 276.415)" d="M222.68 275.17h12.55v2.49h-12.55z"/><rect class="cls-2" x="168.57" y="209.88" width="40.96" height="6.11" rx="2.86" ry="2.86"/><path class="cls-2" d="M179.07 216l-5.92 1.51v30.29h31.8V216h-25.88zm9.98-58s-21.28 31.15-7.93 46.47a10.33 10.33 0 0 0 4.14 2.87 6 6 0 0 1-.82-.77c-7.76-8.9 4.61-27 4.61-27s12.37 18.11 4.61 27a6 6 0 0 1-.82.77 10.33 10.33 0 0 0 4.14-2.87c13.35-15.32-7.93-46.47-7.93-46.47z"/><path class="cls-4" d="M225.07 303.33h5.54s-9.28-6.44-25.45-5.09c.01.01 16.77.9 19.91 5.09zm15.72 12.13a15.18 15.18 0 0 0-7.14-9.38 2.53 2.53 0 0 0-1.29-.35h-4.66c4.76.8 13.09 9.73 13.09 9.73z"/><path class="cls-2" d="M227.71 294.65v-40.88h-77.32v5.97h12.29l-12.29 2.21v32.7h77.32zm-43.21 45.88a3.77 3.77 0 0 1 4.54-1.64 4.17 4.17 0 0 1 1.75 1.3c.47.61 1.44 2.74 2 3.37a.76.76 0 0 0-.06-.46l-3.06-11.17h-.62a11.82 11.82 0 1 1 7.51-2.7c.55 2 1.1 4 1.53 5.61.1.39.26.43.51.19 1.52-1.51 2.86-2.23 4.49-.29.13.16.22.13.36 0 1.46-1.29 2.76-2.41 5-.62.22.18.27 0 .39-.05a3.69 3.69 0 0 1 3.55-.76 3.44 3.44 0 0 1 2.46 2.5q1.17 4.29 2.35 8.58h28.51v-28.72c0-11.61-15.4-21-27-21h-50.85l-19 2.21c-8.65 3.45-16.39 10.57-16.39 18.81v28.74h52.29a4.05 4.05 0 0 1-.26-3.9zm49.15-34.44a15.18 15.18 0 0 1 7.14 9.38s-8.33-8.93-13.08-9.73h4.66a2.53 2.53 0 0 1 1.28.34zm-3-2.75h-5.54c-3.14-4.19-19.91-5.09-19.91-5.09 16.13-1.35 25.41 5.08 25.41 5.08zm22.16 54.54c0-7.44-9-13.47-16.46-13.47h-19.2l.34 1.26a12.19 12.19 0 0 1-.76 8.7 12.88 12.88 0 0 1-2.44 3.51z"/><path class="cls-2" d="M185 344.77a3.15 3.15 0 0 1-.26-.36h-43c-7.44 0-16.46 6-16.46 13.47h71l-.33-.36c-3.63-4.27-7.26-8.52-10.95-12.75z"/><path class="cls-1" d="M200.87 320.13A11.82 11.82 0 1 0 189 332h.62l-1-3.55a8.25 8.25 0 1 1 6.79-3.07l1.08 4a11.8 11.8 0 0 0 4.38-9.25z"/><path class="cls-2" d="M189 311.87a8.25 8.25 0 0 0-.35 16.5L188 326a3.71 3.71 0 0 1 2.62-4.48 3.65 3.65 0 0 1 4.48 2.54l.34 1.26a8.25 8.25 0 0 0-6.44-13.45z"/><path class="cls-2" d="M191.62 321.38a3.63 3.63 0 0 1 3.52 2.67c.84 3.09 2.12 7.73 3 10.83.06.23.14.34.25.34a.42.42 0 0 0 .26-.15 3.94 3.94 0 0 1 2.51-1.46 2.68 2.68 0 0 1 2 1.18c.06.08.12.11.17.11a.32.32 0 0 0 .19-.11 4.59 4.59 0 0 1 2.82-1.55 3.42 3.42 0 0 1 2.14.93.31.31 0 0 0 .18.09c.08 0 .13-.08.21-.14a3.84 3.84 0 0 1 2.44-.93 3.8 3.8 0 0 1 1.12.17 3.44 3.44 0 0 1 2.46 2.5c.89 3.28 1.8 6.55 2.69 9.83a12.19 12.19 0 0 1-.76 8.7 12.52 12.52 0 0 1-8.15 6.83 12 12 0 0 1-3.39.49 12.19 12.19 0 0 1-3.81-.62 11.75 11.75 0 0 1-5.45-3.55c-3.62-4.27-7.25-8.55-10.94-12.76a4 4 0 0 1-.5-4.24 3.82 3.82 0 0 1 3.29-1.88 3.23 3.23 0 0 1 1.25.24 4.17 4.17 0 0 1 1.75 1.3c.47.61 1.44 2.74 2 3.37a.76.76 0 0 0-.06-.46L188 326a3.69 3.69 0 0 1 3.58-4.61m0-3a6.67 6.67 0 0 0-5.8 3.37 6.55 6.55 0 0 0-.67 5l2.43 8.88a6.78 6.78 0 0 0-5.72 3.44 7 7 0 0 0 .88 7.64c3.54 4 6.89 8 10.91 12.72a14.76 14.76 0 0 0 6.81 4.46 15.21 15.21 0 0 0 4.74.77 15.06 15.06 0 0 0 4.23-.61 15.43 15.43 0 0 0 10-8.42 15.15 15.15 0 0 0 .95-10.77q-.79-2.92-1.6-5.84l-1.09-4a6.43 6.43 0 0 0-4.46-4.57 6.81 6.81 0 0 0-2-.31 6.51 6.51 0 0 0-2.66.58 5.43 5.43 0 0 0-5.29.37 4.82 4.82 0 0 0-3.22-.41l-.95-3.46-1.09-4a6.64 6.64 0 0 0-6.41-4.87z"/><path class="cls-2" d="M203 353.37a1.2 1.2 0 0 1-1.15-.88l-2-7.4a1.2 1.2 0 1 1 2.31-.63l2 7.4a1.2 1.2 0 0 1-1.16 1.51zm4.3-1.19a1.2 1.2 0 0 1-1.15-.88l-2-7.4a1.2 1.2 0 1 1 2.31-.63l2 7.4a1.2 1.2 0 0 1-1.16 1.51zm4.32-1.18a1.2 1.2 0 0 1-1.15-.88l-2-7.4a1.2 1.2 0 1 1 2.31-.63l2 7.4a1.2 1.2 0 0 1-1.16 1.51zM144 180.74h1.49v15.45H144a3.91 3.91 0 0 1-3.91-3.91v-7.63a3.91 3.91 0 0 1 3.91-3.91z"/><path class="cls-2" d="M236.51 180.74H238v15.45h-1.49a3.91 3.91 0 0 1-3.91-3.91v-7.63a3.91 3.91 0 0 1 3.91-3.91z" transform="rotate(180 235.295 188.46)"/><path class="cls-2" d="M188.77 303.78h-29.19a35.73 35.73 0 0 1-35.69-35.69v-76.81a4.91 4.91 0 0 1 4.91-4.91h14v4.19h-14a.72.72 0 0 0-.72.72v76.82a31.53 31.53 0 0 0 31.5 31.5h29.19zm42.23-2.44l-1.53-3.9a31.32 31.32 0 0 0 20-29.34v-76.82a.72.72 0 0 0-.72-.72h-14v-4.19h14a4.91 4.91 0 0 1 4.91 4.91v76.82A35.49 35.49 0 0 1 231 301.34zM187.25 77.3l1.8-29.71 1.8 29.71a1.8 1.8 0 0 1-3.59.33 1.93 1.93 0 0 1-.01-.33zm67.02 75.39l29.71 1.8-29.71 1.8a1.8 1.8 0 0 1-.33-3.59zm-130.44 3.6l-29.71-1.8 29.71-1.8a1.8 1.8 0 0 1 .33 3.59zm118.54-57.66L260.5 83l-15.59 18.13a1.8 1.8 0 1 1-2.77-2.31 2 2 0 0 1 .23-.19zm-109.17 2.55L117.6 83l18.14 15.6a1.8 1.8 0 0 1-2.31 2.77 1.92 1.92 0 0 1-.23-.19zm79.8 78.67l7.56 1.5-7.56 1.5a1.55 1.55 0 1 1 0-3zm-47.89 2.99l-7.56-1.5 7.56-1.5a1.55 1.55 0 1 1 0 3zm37.41-19.48l6-3.87-3.87 6a1.55 1.55 0 1 1-2.12-2.12zm-31.73 35.97l-6 3.87 3.87-6a1.55 1.55 0 1 1 2.69 1.55 1.57 1.57 0 0 1-.56.58zm38.64-2.12l3.87 6-6-3.87a1.55 1.55 0 0 1 1.55-2.69 1.57 1.57 0 0 1 .58.56zm-35.97-31.73l-3.87-6 6 3.87a1.55 1.55 0 1 1-2.12 2.12zM24.42 309.3l93.47 2-93.47 2v-4zm328.6 4l-94.13-2 94.13-2v4zm-4.96 14.48l-68.42-2 68.42-2v4zm-6.66 14.42l-42.34-2 42.34-2v4zm-210.68 15.08l-51.33-1.5 51.33-1.5v3zm3-6.31l-39.66-1.5 39.66-1.5v3zm11.4-17.51l-39.66-1.5 39.66-1.5v3zm-29.98-98.36a31.69 31.69 0 0 0-4.46 1.89 30.12 30.12 0 0 0-4 2.54l-.68.47-.62-.83c-.28-.38-.55-.76-.86-1.11a12.33 12.33 0 0 0-1-1c-.33-.32-.69-.61-1-.9a12.2 12.2 0 0 0-1.11-.79 12.85 12.85 0 0 0-5-1.9 12.92 12.92 0 0 0-2.63-.18h-.68l-.62.07c-.43.06-.86.15-1.28.24a13.27 13.27 0 0 0-4.62 2.18l-2.69 2-.74-3.56c-.19-.89-.3-1.8-.53-2.67a22.82 22.82 0 0 0-.8-2.6l-.48-1.27-.58-1.22a21.34 21.34 0 0 0-1.3-2.37c-.45-.78-1-1.47-1.54-2.22s-1.13-1.4-1.79-2a22 22 0 0 0-2-1.83c-.35-.28-.68-.59-1-.86l-1.13-.72a25.24 25.24 0 0 0-2.31-1.39c-.8-.4-1.62-.79-2.45-1.14l-1.27-.45-.64-.23-.66-.17-1.31-.35c-.44-.12-.89-.16-1.33-.24s-.89-.17-1.34-.21l-1.36-.1c-.47 0-.87-.09-1.38-.08s-.9 0-1.35 0a27.23 27.23 0 0 0-5.43.78l-2.77.71.27-2.68.08-.75v-.72a15.14 15.14 0 0 0 0-1.6 13.1 13.1 0 0 0-.16-1.46 15.27 15.27 0 0 0-.28-1.5 12.62 12.62 0 0 0-.4-1.48 12 12 0 0 0-.54-1.45 11.39 11.39 0 0 0-.66-1.41l-.37-.69-.42-.66a12.59 12.59 0 0 0-.89-1.3 13.88 13.88 0 0 0-1-1.23 15.4 15.4 0 0 0-1.12-1.15c-.37-.39-.81-.7-1.21-1.07s-.87-.64-1.3-1-.93-.57-1.4-.86-1-.51-1.47-.77l-1.55-.65c.55.09 1.11.17 1.67.28s1.1.28 1.65.45 1.08.38 1.61.62 1.06.47 1.56.76a15.63 15.63 0 0 1 1.49.91 17.2 17.2 0 0 1 1.4 1.06 15.84 15.84 0 0 1 1.31 1.18 14.7 14.7 0 0 1 1.21 1.3 12.06 12.06 0 0 1 1.09 1.42 13.83 13.83 0 0 1 1 1.52 14.7 14.7 0 0 1 .82 1.6 15.53 15.53 0 0 1 .68 1.68 14.51 14.51 0 0 1 .53 1.74 16.58 16.58 0 0 1 .36 1.85c.13.66.13 1.16.19 1.73v1.87l-2.5-2a27.12 27.12 0 0 1 6.23-1.4c.54-.05 1.06-.09 1.62-.12s1.07 0 1.59 0h1.61c.54 0 1.07.12 1.6.18s1.07.11 1.6.22l1.58.35.79.18.77.25 1.54.51c1 .39 2 .82 3 1.29a30.19 30.19 0 0 1 2.8 1.64l1.34.91c.44.32.84.68 1.27 1a25.1 25.1 0 0 1 2.37 2.21c.77.76 1.41 1.64 2.12 2.45s1.27 1.76 1.79 2.7a26.12 26.12 0 0 1 1.49 2.88c.22.49.45 1 .64 1.49l.51 1.54a27.44 27.44 0 0 1 .81 3.12c.23 1.05.3 2.13.44 3.19l-3.43-1.58a16 16 0 0 1 6.36-2.45 17 17 0 0 1 1.69-.17h1.69a16.46 16.46 0 0 1 3.32.52 15.79 15.79 0 0 1 5.85 3.06 15.18 15.18 0 0 1 4 5.06l-1.31-.32a24.66 24.66 0 0 1 4.64-1.91 23.19 23.19 0 0 1 4.77-.83zm223.33-56.93c-.58.11-1.17.17-1.74.31a13.07 13.07 0 0 0-1.65.5l-.8.29-.77.37a13.32 13.32 0 0 0-1.47.83c-.46.31-.91.65-1.35 1a13.63 13.63 0 0 0-1.21 1.13l-.56.6-.5.65a13.6 13.6 0 0 0-.9 1.35c-.26.47-.52.94-.74 1.42a12.47 12.47 0 0 0-.55 1.49l-.22.76-.14.78a11.89 11.89 0 0 0-.18 1.55v1.53c0 .32 0 .53.06.79s.06.51.11.76a12.83 12.83 0 0 0 .89 2.93l1.64 3.76-4.13-1.19a27.88 27.88 0 0 0-4.83-.93 24.09 24.09 0 0 0-2.45-.12h-1.16l-1.33.08a9.66 9.66 0 0 0-1.21.15l-1.15.17c-.78.21-1.59.31-2.36.57a20.41 20.41 0 0 0-2.29.78 24.12 24.12 0 0 0-2.21 1c-.73.35-1.41.78-2.11 1.18s-1.36.87-2 1.41l-1 .75-.89.82c-.62.52-1.13 1.15-1.69 1.73s-1 1.24-1.51 1.89a22.35 22.35 0 0 0-1.33 2 22.72 22.72 0 0 0-1.14 2.14c-.38.72-.62 1.5-.95 2.24l-2 4.61-2.2-4.25a13.64 13.64 0 0 0-2.39-3.27 14.06 14.06 0 0 0-3.34-2.38 13 13 0 0 0-1.93-.76 12.35 12.35 0 0 0-2-.45c-.17 0-.35 0-.53-.05h-1.64a9.72 9.72 0 0 0-1 .07 6.08 6.08 0 0 0-1 .14 12.71 12.71 0 0 0-2.08.56l-1 .41-1 .51a14.69 14.69 0 0 0-1.84 1.23 6.79 6.79 0 0 0-.85.72 8.51 8.51 0 0 0-.8.8 18.12 18.12 0 0 0-1.41 1.78 15.56 15.56 0 0 0-1.11 2 8.52 8.52 0 0 0-.43 1.08 7.59 7.59 0 0 0-.36 1.12 18.81 18.81 0 0 0-.48 2.35 14.74 14.74 0 0 1-.05-2.44 7.67 7.67 0 0 1 .13-1.23 9.31 9.31 0 0 1 .24-1.22 16.79 16.79 0 0 1 .79-2.39 15.32 15.32 0 0 1 1.24-2.22 10.15 10.15 0 0 1 .76-1 8.41 8.41 0 0 1 .85-1 14.47 14.47 0 0 1 1.94-1.74l1.08-.74 1.15-.64a15.71 15.71 0 0 1 2.46-1 8.84 8.84 0 0 1 1.32-.35c.44-.08 1-.21 1.34-.24l1.2-.11h1.43a16.07 16.07 0 0 1 2.69.34 17 17 0 0 1 2.62.78 16.42 16.42 0 0 1 8.18 7.13l-4.23.38c.34-.9.6-1.84 1-2.72a23.07 23.07 0 0 1 1.28-2.61 27.21 27.21 0 0 1 1.53-2.47c.55-.8 1.16-1.56 1.77-2.3s1.28-1.46 2-2.1l1.07-1 1.14-.91c.74-.63 1.59-1.11 2.39-1.67s1.67-1 2.55-1.4a23.37 23.37 0 0 1 2.68-1.14 25.13 25.13 0 0 1 2.78-.86c.93-.27 1.9-.4 2.84-.59l1.5-.16a14.22 14.22 0 0 1 1.44-.1h2.83a28.57 28.57 0 0 1 2.87.32 26.79 26.79 0 0 1 5.54 1.5l-2.61 2.63a16.64 16.64 0 0 1-.82-3.88c0-.33 0-.66-.05-1s0-.71 0-1a19.36 19.36 0 0 1 .21-2 15.08 15.08 0 0 1 .46-1.9l.29-.93.38-.89a15.3 15.3 0 0 1 .88-1.72c.33-.55.7-1.07 1.08-1.59a15.74 15.74 0 0 1 1.28-1.41l.68-.65.74-.59a15.53 15.53 0 0 1 1.55-1.06 15.85 15.85 0 0 1 1.66-.83 14.6 14.6 0 0 1 1.74-.6l.88-.24.9-.15a13.68 13.68 0 0 1 1.8-.14c.64.05 1.22.13 1.81.16zm-7.78 70.44A9.83 9.83 0 0 0 328 247a9.1 9.1 0 0 0-2.86-.61 7.8 7.8 0 0 0-1.42.08c-.23 0-.47.08-.68.12a6.47 6.47 0 0 0-.68.18A7.56 7.56 0 0 0 320 248l-1.23 1-.78-1.67-.39-.84-.46-.8-.52-.75-.57-.71-.63-.65-.67-.6a11.92 11.92 0 0 0-1.47-1 12.65 12.65 0 0 0-1.6-.76 11.71 11.71 0 0 0-1.69-.48 11 11 0 0 0-1.74-.2h-.88l-.8.06-1 .17-.76.2-.82.29-.8.35-.77.42-.73.48-.69.49-.65.59-.59.65-.54.7-.49.74-.42.78-.36.81-.3.84-.23.86-.15.88-.41 2.36-1.91-.93a7.13 7.13 0 0 0-1.75-.58 8.71 8.71 0 0 0-.93-.12 7.12 7.12 0 0 0-.9 0 9.76 9.76 0 0 0-1 .13 5.67 5.67 0 0 0-.91.21 8.86 8.86 0 0 0-.92.34 8 8 0 0 0-.87.48 7.83 7.83 0 0 0-.82.58 8.9 8.9 0 0 0-.77.68 8.13 8.13 0 0 0-.67.79 7.64 7.64 0 0 0-.58.88 9.24 9.24 0 0 0-1.1 3.07c-.08.37-.08.75-.13 1.13a8.9 8.9 0 0 1-.22-1.14 6.9 6.9 0 0 1-.06-1.18 8.9 8.9 0 0 1 .38-2.38 9.7 9.7 0 0 1 1-2.23 10.74 10.74 0 0 1 .75-1 7.58 7.58 0 0 1 .9-.9 10.27 10.27 0 0 1 1-.79 11.3 11.3 0 0 1 1.12-.64 8.37 8.37 0 0 1 1.24-.51 9.84 9.84 0 0 1 1.19-.32 9.35 9.35 0 0 1 1.36-.17 9.14 9.14 0 0 1 1.34 0 10.38 10.38 0 0 1 2.63.57l-2.32 1.43.1-1.19.2-1.18.31-1.16.42-1.13.51-1.09.6-1 .7-1 .79-.92.86-.85c.31-.26.62-.52.94-.77l1-.68 1.06-.59 1.11-.5 1.15-.4 1.26-.31 1-.16h2.5a14.84 14.84 0 0 1 2.39.37 13.7 13.7 0 0 1 4.37 2 15.38 15.38 0 0 1 1.84 1.51c.28.28.54.58.81.87l.73.94.64 1 .54 1 .44 1.08.34 1.11-2-.72a10 10 0 0 1 3.39-1.12c.27 0 .63-.08.87-.08a7.68 7.68 0 0 1 .89 0 9.58 9.58 0 0 1 1.72.26 8.65 8.65 0 0 1 3.06 1.41 8.2 8.2 0 0 1 2.24 2.3zm-253.4 9.15a9.83 9.83 0 0 0-1.93-2.4 9.1 9.1 0 0 0-2.48-1.55 7.82 7.82 0 0 0-1.36-.41c-.23-.05-.47-.08-.68-.12a6.41 6.41 0 0 0-.7-.07 7.56 7.56 0 0 0-2.68.36L66 254l-.16-1.84-.08-.92-.15-.91-.23-.89-.29-.86-.37-.83-.43-.79a11.92 11.92 0 0 0-1-1.46 12.67 12.67 0 0 0-1.29-1.23 11.7 11.7 0 0 0-1.42-1 11 11 0 0 0-1.56-.79c-.28-.09-.54-.21-.83-.29l-.77-.22-1-.19-.78-.07h-.87l-.87.05-.86.13-.85.2-.83.27-.81.33-.78.4-.75.47-.71.52-.67.58-.61.64-.57.68-.51.73-.45.78-1.19 2.07L42.8 248a7.13 7.13 0 0 0-1.45-1.15 8.7 8.7 0 0 0-.83-.44 7.13 7.13 0 0 0-.85-.32 9.81 9.81 0 0 0-1-.23 5.68 5.68 0 0 0-.93-.12 8.85 8.85 0 0 0-1 0 8.1 8.1 0 0 0-1 .15 7.8 7.8 0 0 0-1 .26 8.91 8.91 0 0 0-1 .37 8.15 8.15 0 0 0-.9.51 7.63 7.63 0 0 0-.85.62 9.25 9.25 0 0 0-2.09 2.5c-.2.32-.33.67-.51 1a8.9 8.9 0 0 1 .18-1.14 6.9 6.9 0 0 1 .34-1.13 8.9 8.9 0 0 1 1.17-2.1 9.7 9.7 0 0 1 1.75-1.74 10.78 10.78 0 0 1 1.05-.69 7.6 7.6 0 0 1 1.15-.54 10.28 10.28 0 0 1 1.22-.39 11.26 11.26 0 0 1 1.28-.22 8.36 8.36 0 0 1 1.34 0 9.83 9.83 0 0 1 1.23.11 9.35 9.35 0 0 1 1.34.3 9.14 9.14 0 0 1 1.25.47 10.39 10.39 0 0 1 2.27 1.44l-2.67.55.5-1.08.6-1 .69-1L45 242l.86-.85.93-.77 1-.68 1.05-.59 1.1-.5c.38-.14.76-.28 1.14-.4l1.18-.3 1.2-.19 1.21-.09h1.22l1.29.15 1 .21h.33l.29.09.58.17c.38.13.75.3 1.13.44a14.83 14.83 0 0 1 2.14 1.31 14.16 14.16 0 0 1 1.87 1.52 14 14 0 0 1 1.56 1.82 15.39 15.39 0 0 1 1.21 2.05c.17.36.31.73.46 1.09l.36 1.13.26 1.15.15 1.17v1.17l-.06 1.16-1.64-1.36a10 10 0 0 1 3.57.11c.27.06.62.15.85.22a7.68 7.68 0 0 1 .83.31 9.58 9.58 0 0 1 1.52.83 8.64 8.64 0 0 1 2.41 2.41 8.2 8.2 0 0 1 1.29 2.98zm41.71 20.4a11.62 11.62 0 0 0-.89-1.35 8.05 8.05 0 0 0-1-1.15 7.85 7.85 0 0 0-1.16-.94 9.94 9.94 0 0 0-1.26-.7 8.49 8.49 0 0 0-1.32-.47 7.47 7.47 0 0 0-1.34-.23 8.74 8.74 0 0 0-1.33 0l-.7.09a4 4 0 0 0-.62.14 6.72 6.72 0 0 0-1.19.42 3.59 3.59 0 0 0-.57.28 3.67 3.67 0 0 0-.54.33 6.93 6.93 0 0 0-1 .78 7.25 7.25 0 0 0-.83.94 7.37 7.37 0 0 0-1.14 2.2l-.16.6-.1.62-.06.63v.1-.07.62l.07 3.07-2.74-1.21a7.79 7.79 0 0 0-1.6-.53c-.28-.06-.56-.09-.84-.13h-.94c-.28 0-.5 0-.78.06a6.44 6.44 0 0 0-.86.17 6.72 6.72 0 0 0-.85.26 8 8 0 0 0-.83.36c-.26.15-.54.28-.8.46a8.19 8.19 0 0 0-.75.56 7.55 7.55 0 0 0-.7.65c-.23.22-.43.48-.65.73a8.45 8.45 0 0 0-.55.83 7 7 0 0 0-.49.9 10.23 10.23 0 0 0-.4 1c-.13.33-.2.68-.31 1a7.42 7.42 0 0 1-.17-2.23 6.71 6.71 0 0 1 .16-1.15 9.88 9.88 0 0 1 .33-1.13 8.65 8.65 0 0 1 1.13-2.11 7.54 7.54 0 0 1 .78-.94 11.79 11.79 0 0 1 .9-.85 10.94 10.94 0 0 1 1-.71 7.32 7.32 0 0 1 1.12-.58 9.63 9.63 0 0 1 1.2-.44 11.12 11.12 0 0 1 1.33-.28l.53-.06h.67a9.37 9.37 0 0 1 1.3.06 9.92 9.92 0 0 1 2.53.62l-2.67 1.86v-1.91l.14-1 .24-1a10.26 10.26 0 0 1 .74-1.84 10.79 10.79 0 0 1 1.08-1.66 9.58 9.58 0 0 1 1.38-1.41 9 9 0 0 1 1.61-1.12 6.8 6.8 0 0 1 .88-.43 6.57 6.57 0 0 1 .91-.35 9.47 9.47 0 0 1 1.93-.42 7.2 7.2 0 0 1 1-.07h.91a9.29 9.29 0 0 1 1.87.34 8.53 8.53 0 0 1 1.74.69 8.93 8.93 0 0 1 1.55 1 8.35 8.35 0 0 1 1.28 1.28 9.36 9.36 0 0 1 1 1.48 8.34 8.34 0 0 1 .63 1.61 7.36 7.36 0 0 1 .2 1.73zm183.63 19.65a9.83 9.83 0 0 0-1.73-2.75 8.6 8.6 0 0 0-2.42-1.87 10.25 10.25 0 0 0-1.37-.56c-.25-.07-.44-.13-.72-.19s-.46-.08-.69-.11a8 8 0 0 0-2.79.19l-1.7.44-.07-2.06a8.38 8.38 0 0 0-.12-1.32 7.35 7.35 0 0 0-.34-1.26 7 7 0 0 0-.55-1.17 8.15 8.15 0 0 0-.73-1 6.78 6.78 0 0 0-.9-.89 6.64 6.64 0 0 0-1-.72 6.9 6.9 0 0 0-1.14-.52h-.07.09-.08l-.19-.06-.39-.11-.19-.06h-.39a6 6 0 0 0-1.21-.09 4.11 4.11 0 0 0-.62 0 3.57 3.57 0 0 0-.62.09 6 6 0 0 0-1.2.34 7.22 7.22 0 0 0-1.13.54 6.87 6.87 0 0 0-1 .74 8.56 8.56 0 0 0-.88.9l-.38.51-.33.55-.29.58v.07-.06l-.07.19-.14.38-1 2.67-1.88-1.91a7.89 7.89 0 0 0-1.34-1.09 7.4 7.4 0 0 0-.77-.43h-.15.07l-.25-.09-.5-.19c-.28-.07-.5-.16-.8-.22a8.86 8.86 0 0 0-.9-.14 5.68 5.68 0 0 0-.92 0 8.35 8.35 0 0 0-.93.06c-.3.06-.62.1-.93.19a8.9 8.9 0 0 0-.92.29 6.94 6.94 0 0 0-.89.4c-.3.15-.57.33-.85.51s-.56.38-.8.62a6.38 6.38 0 0 0-.74.72 9.64 9.64 0 0 0-.67.81c-.22.28-.39.59-.6.9a9.65 9.65 0 0 1 .26-1.07 6.7 6.7 0 0 1 .41-1 7.21 7.21 0 0 1 .56-1 8.22 8.22 0 0 1 .69-.92c.27-.28.53-.57.83-.82a8.68 8.68 0 0 1 .94-.72 7.14 7.14 0 0 1 1-.6 12 12 0 0 1 1.12-.46 10.71 10.71 0 0 1 1.18-.31 8.12 8.12 0 0 1 1.22-.17 7.93 7.93 0 0 1 1.24 0 13 13 0 0 1 1.31.17l.52.12.26.06.37.11a10.62 10.62 0 0 1 1.18.47 9.77 9.77 0 0 1 2.15 1.39l-2.84.76.1-.39v-.43c.11-.3.22-.61.35-.91l.44-.87.53-.83a10.58 10.58 0 0 1 1.28-1.49 10.74 10.74 0 0 1 1.54-1.22 9.59 9.59 0 0 1 1.75-.92 9.84 9.84 0 0 1 1.89-.57 6.86 6.86 0 0 1 1-.15 6 6 0 0 1 1-.06 9.83 9.83 0 0 1 2 .18l.53.11.26.06.19.06.39.12.19.06.19.07h.11a10.79 10.79 0 0 1 1.76.89 9.31 9.31 0 0 1 1.56 1.2 10.53 10.53 0 0 1 1.3 1.47 9.82 9.82 0 0 1 1 1.68 10.43 10.43 0 0 1 .64 1.82 9.28 9.28 0 0 1 .29 1.9 10.52 10.52 0 0 1-.07 1.9l-1.76-1.62a9.53 9.53 0 0 1 3.83.36c.31.09.6.2.91.33s.57.26.83.4a8.72 8.72 0 0 1 1.55 1 8.91 8.91 0 0 1 2.25 2.83 8.07 8.07 0 0 1 .9 3.19z"/><path class="cls-2" d="M338.47 265.08a20.63 20.63 0 0 0-20.61 20.5 15.17 15.17 0 0 0-7.16 8.7 10.82 10.82 0 0 0-1.83-.16 11 11 0 0 0-9.11 17.18h5.77a7 7 0 0 1 5.9-12.69l2.3.9.41-2.43a11.2 11.2 0 0 1 6.59-8.45l1.28-.56-.1-1.69v-.69a16.61 16.61 0 0 1 30.38-9.28l3.31-2.24a20.6 20.6 0 0 0-17.13-9.09zM59.39 293.12a10.92 10.92 0 0 0-1.83.15 15.17 15.17 0 0 0-7.16-8.7 20.56 20.56 0 0 0-23.91-20.22l-.49 4.17a16.59 16.59 0 0 1 20.4 16.17v.68l-.1 1.7 1.28.56a11.2 11.2 0 0 1 6.59 8.45l.41 2.43 2.3-.9a7 7 0 0 1 5.77 12.77l.34.65H68a11 11 0 0 0-8.6-17.91zm-29.9 30.66l53.23 2-53.23 2v-4z"/></svg>