<svg id="Layer_1" data-name="Layer 1" xmlns="http://www.w3.org/2000/svg" viewBox="0 0 347.86 449.3"><defs><style>.cls-1{fill:#ffcd00}.cls-2{fill:#d9374a}</style></defs><title>Artboard 1</title><path class="cls-1" d="M347.86 38.81C173.93-48.51 0 38.81 0 38.81v236.52a122.46 122.46 0 0 0 59.27 104.9l114.66 69.07 114.54-68.82a122.46 122.46 0 0 0 59.39-105z"/><path class="cls-2" d="M173.93 306.49L128 283l-42 21.55c20.89 6.19 20.71 28.74 20.71 28.74a65.87 65.87 0 0 0-3.81-8.73c.18.51.34 1 .49 1.54a27.77 27.77 0 0 1 .92 4.72q0 .48.08 1 .06.88 0 1.74a19.43 19.43 0 0 1-.32 3.34q-.15.79-.36 1.54a14 14 0 0 1-.5 1.43 12.16 12.16 0 0 1-.64 1.31 10.11 10.11 0 0 1-1.67 2.22 8.73 8.73 0 0 1-2.19 1.6l75.22-38.46zM219.82 283l-9.62-4.94a.35.35 0 0 1 .2-.66l13 3.74 39-20a20.89 20.89 0 0 0-19-37.2l-29.63 15.26-7.17 3.67-32.68 16.71 45.9 23.42zM77.11 331.92q-.68-1.38-1.21-2.78.53 1.39 1.21 2.78zm8.29 10.42a25.23 25.23 0 0 1-2.75-2.46 25.22 25.22 0 0 0 2.75 2.46zm-6.08-6.59q-.64-1-1.23-2 .58 1.04 1.23 2z"/><path class="cls-2" d="M98.71 345a8.63 8.63 0 0 1-1.42.57 8.64 8.64 0 0 0 1.42-.57 8.73 8.73 0 0 0 2.19-1.6 8.73 8.73 0 0 1-2.19 1.6z"/><path class="cls-2" d="M100.91 343.35a10.11 10.11 0 0 0 1.67-2.22 12.16 12.16 0 0 0 .64-1.31 14 14 0 0 0 .5-1.43q.22-.74.36-1.54a19.43 19.43 0 0 0 .32-3.34v-1.74q0-.47-.08-1a27.77 27.77 0 0 0-.92-4.72c-.15-.51-.31-1-.49-1.54-10-18.87-23.17-16.81-23.17-16.81a8.63 8.63 0 0 0-1.16.72 9 9 0 0 0-1.5 1.38 10.09 10.09 0 0 0-.84 1.11 12.17 12.17 0 0 0-1.27 2.62c-.14.41-.27.85-.38 1.29s-.17.73-.24 1.11-.15.92-.19 1.4v.16q-.07.79-.08 1.62a24.27 24.27 0 0 0 .28 3.87 29.49 29.49 0 0 0 1.61 6.07q.53 1.39 1.21 2.78l.24.49c.23.46.48.9.73 1.34q.59 1 1.23 2l.36.53q.43.62.89 1.2l.26.33c.58.73 1.19 1.42 1.82 2.07a25.23 25.23 0 0 0 2.75 2.46l.71.52.66.44a19.28 19.28 0 0 0 2 1.13c.32.16.65.31 1 .45a15 15 0 0 0 1.46.52 12.17 12.17 0 0 0 2.88.51 10.11 10.11 0 0 0 1.38 0 9.2 9.2 0 0 0 1.35-.22l.49-.13a8.63 8.63 0 0 0 1.42-.57 8.73 8.73 0 0 0 2.1-1.55zm145.58-.5a10.09 10.09 0 0 1-.84-1.11 12.59 12.59 0 0 1-1.5-3.35q-.22-.74-.36-1.54a20 20 0 0 1-.31-4.23q0-.89.12-1.81 0-.46.11-.92a29 29 0 0 1 1.29-5.33 65.88 65.88 0 0 0-3.81 8.73s-.18-22.55 20.71-28.74L219.82 283l-45.89-23.46L104.41 224a20.89 20.89 0 0 0-28.11 9.09 20.89 20.89 0 0 0 9.09 28.11l38.75 19.8 14-4a.35.35 0 0 1 .2.66L128 283l45.89 23.46-1-6.49a.41.41 0 0 1 .75-.27l5.51 9.43 70 35.79a8.73 8.73 0 0 1-2.19-1.6q-.25-.21-.47-.47zm18.73-2.97a25.23 25.23 0 0 1-2.75 2.46 25.22 25.22 0 0 0 2.75-2.46zm1.46-1.63a31.79 31.79 0 0 0 3.83-5.84 32.24 32.24 0 0 0 2.08-5.08 32.25 32.25 0 0 1-2.08 5.08 31.79 31.79 0 0 1-3.83 5.84zm-14.35 7.62a9.2 9.2 0 0 1-1.16-.19 9.19 9.19 0 0 0 1.16.19zm7.98-2.08q-.72.43-1.46.77.74-.35 1.46-.77z"/><path class="cls-2" d="M247 343.35a8.73 8.73 0 0 0 2.19 1.6 8.36 8.36 0 0 0 .87.38 8.35 8.35 0 0 1-.87-.38 8.73 8.73 0 0 1-2.19-1.6z"/><path class="cls-2" d="M273.82 318.27q0-.77-.14-1.51a16.09 16.09 0 0 0-.74-3.17q-.13-.36-.27-.7a10.72 10.72 0 0 0-2.31-3.53q-.24-.24-.5-.46a8.66 8.66 0 0 0-1.69-1.14S255 305.69 245 324.56a29 29 0 0 0-1.29 5.33q-.07.47-.11.92-.1.92-.12 1.81a20 20 0 0 0 .31 4.23q.15.79.36 1.54a12.59 12.59 0 0 0 1.5 3.35 10.09 10.09 0 0 0 .84 1.11q.23.26.47.5a8.73 8.73 0 0 0 2.19 1.6 8.35 8.35 0 0 0 .87.38 9 9 0 0 0 .9.28l.26.06a9.2 9.2 0 0 0 1.16.19h.11a10.1 10.1 0 0 0 1.36 0l.71-.06a12.15 12.15 0 0 0 1.44-.25 14.44 14.44 0 0 0 2.18-.71l.73-.32q.73-.34 1.46-.77t1.44-.93l.71-.52a25.23 25.23 0 0 0 2.75-2.46q.75-.77 1.46-1.63a31.79 31.79 0 0 0 3.83-5.84 32.25 32.25 0 0 0 2.08-5.08 26.57 26.57 0 0 0 1.26-8.13c-.01-.28-.02-.59-.04-.89zm-60.05-79.07c-2.92-1.16-2.53-3.81-1.85-5.62a.87.87 0 0 0-1.1-1.13l-.94.32a.88.88 0 0 0-.47.38l-7.2 12 4.39-2.24 7.17-3.67zm24.99-75.06c-3.17 4.46-8.25 6.44-12.95 5s-7.41-5.46-7.63-11c-.5-13 12.52-25.32 12.65-25.44l2-1.83-2.54-.85c-3.34-1.11-9.47-1.28-12.42-1-4.19.44-10.56 2.29-14.75 6-.8.72-1.62 1.53-2.41 2.33-2.65 2.65-5.39 5.38-7.87 5-1.87-.3-3.79-2.41-5.72-6.25-8.73-17.46-4.16-47.48-4.12-47.78l.49-3.15-2.82 1.49c-19.46 10.33-29.82 29.64-35.08 44a128.49 128.49 0 0 0-6.09 23.28c-7.75-13.86-24-20-24.73-20.25l-3.11-1.14 1 3.14c.06.18 6.11 18.76 5.25 45.3-.46 14.38 3 26.84 10.22 37a57.5 57.5 0 0 0 22.94 18.63l.67.3 1.29-2.92c-.53-.24-12.86-5.95-13.27-22.61-.2-8.28-.81-22.18-2.67-31.26 4 3.14 9.3 7.89 10.19 11.42.14.58.53 2.11 2 2s1.53-1.61 1.58-2.3.14-1.25.14-2.25c.28-7.69 1.1-30.23 11.64-48.55 2.28 8.53 8.33 27.9 16.81 29.82 6.36 1.44 11.92-3.36 16.83-7.59a45.29 45.29 0 0 1 5.6-4.38 108.46 108.46 0 0 0-3.72 11.56c-2.82 11-2.46 18.58 1.08 22.58 2.55 2.89 6.58 3.79 12 2.69-2.07 7.81-9.44 31.47-24.15 39.08l1.33 2.89 4.05-1.64c21.69-9.61 33.9-28.19 40.32-42.08a110 110 0 0 0 8.82-28.08l.91-6.48z"/><path class="cls-2" d="M211.81 105.27a8.62 8.62 0 0 0-1.38-1.66l1.13-3-3.4-1.78-1.84 2.65a8.61 8.61 0 0 0-4.29.18L200 99.13l-3.24 2.05 1.37 2.92a8.61 8.61 0 0 0-2 3.8l-3.18.53.16 3.83 3.22.27a8.37 8.37 0 0 0 2.29 3.62l-1.13 3 3.4 1.78 1.84-2.65a8.61 8.61 0 0 0 4.29-.18l2.05 2.49 3.24-2.05-1.37-2.92a8.61 8.61 0 0 0 2-3.8l3.18-.53-.16-3.83-3.22-.27a8.62 8.62 0 0 0-.93-1.92zm-5.24 7.86a3.84 3.84 0 1 1 1.19-5.29 3.84 3.84 0 0 1-1.19 5.28zm-64.8-20.4a18.71 18.71 0 0 0 1.81-4.33l7-.86v-8.33l-6.94-.88a18.71 18.71 0 0 0-4.64-8.08l2.73-6.45-7.21-4.18-4.24 5.58a18.71 18.71 0 0 0-9.33 0l-4.25-5.6-7.22 4.16 2.72 6.46a18.17 18.17 0 0 0-4.67 8.06l-7 .86v8.33l6.94.88a18.71 18.71 0 0 0 4.66 8.08l-2.73 6.45 7.21 4.18 4.24-5.58a18.71 18.71 0 0 0 9.33 0l4.22 5.59 7.22-4.16-2.72-6.46a18.71 18.71 0 0 0 2.87-3.72zm-20.4-2.19a8.33 8.33 0 1 1 11.39-3 8.33 8.33 0 0 1-11.38 3.01zM203 60.38a5.74 5.74 0 0 0 .6-1.31l2.14-.2.08-2.56-2.14-.31a5.74 5.74 0 0 0-1.35-2.52l.9-2-2.17-1.35-1.35 1.67a5.74 5.74 0 0 0-2.86-.09L195.6 50l-2.25 1.21.77 2a5.58 5.58 0 0 0-1.51 2.43l-2.14.2-.08 2.56 2.12.33a5.74 5.74 0 0 0 1.35 2.52l-.9 2 2.17 1.35 1.35-1.67a5.74 5.74 0 0 0 2.86.09l1.24 1.75 2.25-1.21-.77-2a5.74 5.74 0 0 0 .94-1.18zm-6.24-.86a2.56 2.56 0 1 1 3.52-.83 2.56 2.56 0 0 1-3.53.83zm-91.03 132.03a6.77 6.77 0 0 0-1-1.35l1-2.34-2.61-1.5-1.52 2a6.77 6.77 0 0 0-3.37 0l-1.53-2-2.7 1.54 1 2.33a6.77 6.77 0 0 0-1.68 2.92l-2.51.32v3l2.52.31a6.57 6.57 0 0 0 1.67 2.93l-1 2.34 2.61 1.5 1.52-2a6.77 6.77 0 0 0 3.37 0l1.53 2 2.61-1.51-1-2.33a6.77 6.77 0 0 0 1.68-2.92l2.51-.32v-3l-2.52-.31a6.77 6.77 0 0 0-.58-1.61zm-4.35 6a3 3 0 1 1 1.09-4.12 3 3 0 0 1-1.09 4.14z"/><path class="cls-2" d="M179.74 27.94c49.92 0 97 10.39 140.13 30.89v211.71a99.5 99.5 0 0 1-48.25 85.29l-97.61 59.6-97.79-59.77A99.5 99.5 0 0 1 28 270.38V59c18.55-8.09 77.75-31.07 151.75-31.07m0-11C86.74 16.94 17 52 17 52v218.38A110.5 110.5 0 0 0 70.47 365l103.46 63.32 103.35-63.1a110.5 110.5 0 0 0 53.59-94.72V52c-52.31-26.26-104.63-35-151.13-35z"/><path class="cls-2" d="M236.43 331.56l-65.5-2 65.5-2v4zm23.75 6.44l-65.5-2 65.5-2v4zm-36.97-13.35l-65.5-2 65.5-2v4zm-13.45-7.86l-65.5-2 65.5-2v4zm-58.15-37.85l-65.5-2 65.5-2v4zm35.75 11.43l-65.5-2 65.5-2v4zm-48.97-18.35l-65.5-2 65.5-2v4zm-13.45-7.86l-65.49-2 65.49-2v4zm199.99-105.84l-72.34-1.5 72.34-1.5v3zm0 16.22l-37.69-1.5 37.69-1.5v3zm0 16.21l-55.41-1.5 55.41-1.5v3zm0 16.22l-28.73-1.5 28.73-1.5v3zM22.77 155.32l82.34 1.5-82.34 1.5v-3zm.01 16.22l37.69 1.5-37.69 1.5v-3zm0 16.21l55.41 1.5-55.41 1.5v-3zm0 16.22l28.73 1.5-28.73 1.5v-3zm73.88 138.96l-29.4-1.5 29.4-1.5v3zm1.65-11.16l-29.4-1.5 29.4-1.5v3zm-10.1 5.17l-29.4-1.5 29.4-1.5v3zm164.72 36.71l-69-2 69-2v4zm23.33-12.54l-52.61-2 52.61-2v4zm-40.25 25.54l-69-2 69-2v4zM311.4 54.31L308.65 57a6 6 0 0 0 1.38-4.3 24 24 0 0 0-45.35 9.14 6.73 6.73 0 0 0 3.4 4.8c-1.46 0-4.66-2.53-4.72-2.59a12 12 0 1 0-3.54 23.45h48a16.78 16.78 0 0 0 3.59-33.17zM30.35 69.52l1.78 1.73a3.87 3.87 0 0 1-.9-2.79 15.58 15.58 0 0 1 29.45 5.94 4.37 4.37 0 0 1-2.21 3.11c.95 0 3-1.64 3.07-1.68a7.79 7.79 0 1 1 2.3 15.22H32.68a10.89 10.89 0 0 1-2.33-21.54zm26.53 78.29a3.16 3.16 0 0 0-.18-.32L50 136.28c-.29-.49-.19-.67.37-.72s.93-.08 1.39-.14a.54.54 0 0 0 .44-.86l-.12-.2-5.27-9-.12-.2c-.18-.34-.12-.47.26-.55l.59-.1c.66-.1.82-.42.48-1l-1.86-3.22-2-3.39c-.19-.33-.15-.45.23-.57h.13c.55-.17.67-.46.39-.94l-3.7-6.41c-.25-.43-.64-.43-.89 0s-.52.9-.78 1.35l-2.89 5c-.32.56-.22.83.39 1h.06c.42.13.46.24.25.61l-1.66 2.87-2.16 3.74c-.33.57-.16.89.49 1 .21 0 .42.06.62.11.36.08.41.22.24.54l-.12.2c-1.76 3-3.5 6-5.28 9-.38.64-.15 1.11.56 1.1a10.19 10.19 0 0 1 1.29.12c.39 0 .5.24.32.59 0 .09-.1.17-.15.26l-6.56 11.13a.66.66 0 0 0-.08.74c.15.25.4.24.64.24h30.93a.53.53 0 0 0 .45-.77zm34.62.13a2.61 2.61 0 0 0-.15-.26l-5.51-9.27c-.24-.4-.16-.55.31-.59l1.15-.12a.45.45 0 0 0 .37-.72l-.1-.17-4.36-7.47-.1-.17c-.15-.28-.1-.39.22-.46l.49-.08c.55-.08.68-.35.4-.84l-1.54-2.66-1.62-2.81c-.16-.28-.12-.37.19-.47h.1c.45-.14.55-.38.32-.78l-3.06-5.3c-.21-.36-.53-.36-.74 0l-.65 1.12-2.38 4.11c-.27.46-.18.69.32.84h.05c.35.11.38.2.21.5L74 124.72l-1.78 3.09c-.27.47-.13.74.4.82l.51.09c.29.07.34.18.2.45l-.1.17c-1.45 2.49-2.89 5-4.36 7.47-.31.53-.12.92.47.91a8.43 8.43 0 0 1 1.07.1c.33 0 .41.2.26.49l-.12.21-5.5 9.25a.55.55 0 0 0-.07.61c.13.21.33.2.53.2h25.62a.43.43 0 0 0 .37-.64z"/><path class="cls-2" d="M101.79 148.21a1.57 1.57 0 0 0-.08-.15l-2.94-5.41c-.13-.23-.08-.32.17-.35l.61-.07c.22 0 .3-.2.2-.42l-.05-.1-2.32-4.36-.05-.1c-.08-.16-.05-.23.12-.27h.26c.29 0 .36-.21.21-.49l-.82-1.55-.86-1.64c-.09-.16-.06-.22.1-.28h.06c.24-.08.3-.22.17-.46l-1.63-3.09c-.11-.21-.28-.21-.39 0l-.34.65-1.27 2.41c-.14.27-.1.4.17.49.19.06.21.12.11.29l-.73 1.39-1 1.8c-.14.27-.07.43.22.48l.29.02c.16 0 .18.1.1.26l-.05.1c-.77 1.45-1.54 2.91-2.33 4.35-.17.31-.07.54.25.53a4.13 4.13 0 0 1 .57.06c.17 0 .22.12.14.29l-.07.12-2.94 5.4a.34.34 0 0 0 0 .36c.07.12.18.12.28.12h13.65a.25.25 0 0 0 .19-.38zm-30.65-.59c0-.14-.1-.26-.15-.39l-5.63-13.92c-.24-.6-.16-.83.32-.89s.78-.1 1.17-.18.57-.52.37-1.07l-.1-.25-4.45-11.21-.1-.25c-.15-.42-.1-.59.22-.69l.5-.12c.56-.13.69-.53.4-1.26l-1.57-4-1.65-4.21c-.16-.42-.12-.55.2-.71h.11c.46-.21.57-.57.33-1.17l-3.13-8c-.21-.54-.54-.54-.76 0s-.44 1.12-.66 1.68l-2.44 6.21c-.27.69-.18 1 .33 1.26h.05c.35.17.39.3.21.76l-1.4 3.57-1.82 4.64c-.27.7-.14 1.11.41 1.23.18 0 .35.08.52.13s.35.27.2.67l-.1.25c-1.48 3.74-3 7.48-4.46 11.2-.32.79-.13 1.38.48 1.37a6 6 0 0 1 1.09.15c.33.06.42.3.27.73 0 .11-.08.21-.13.32l-5.62 13.88a1.14 1.14 0 0 0-.07.92c.13.32.34.3.54.3h25.89a1.64 1.64 0 0 0 .25 0c.34-.04.51-.49.38-.95zm222.86.19a3.16 3.16 0 0 0-.18-.32l-6.67-11.21c-.29-.49-.19-.67.37-.72s.93-.08 1.39-.14a.54.54 0 0 0 .44-.86l-.12-.2-5.27-9-.12-.2c-.18-.34-.12-.47.26-.55l.59-.1c.66-.1.82-.42.48-1l-1.86-3.22-2-3.39c-.19-.33-.15-.45.23-.57h.13c.55-.17.67-.46.39-.94l-3.7-6.41c-.25-.43-.64-.43-.89 0s-.52.9-.78 1.35l-2.89 5c-.32.56-.22.83.39 1h.06c.42.13.46.24.25.61l-1.66 2.87-2.16 3.74c-.33.57-.16.89.49 1 .21 0 .42.06.62.11.36.08.41.22.24.54l-.12.2c-1.76 3-3.5 6-5.28 9-.38.64-.15 1.11.56 1.1a10.19 10.19 0 0 1 1.29.12c.39 0 .5.24.32.59 0 .09-.1.17-.15.26L262 147.6a.66.66 0 0 0-.08.74c.15.25.4.24.64.24h30.93a.53.53 0 0 0 .51-.77zm34.6.13a2.61 2.61 0 0 0-.15-.26l-5.51-9.27c-.24-.4-.16-.55.31-.59l1.15-.12a.45.45 0 0 0 .37-.72l-.1-.17-4.36-7.47-.1-.17c-.15-.28-.1-.39.22-.46l.49-.08c.55-.08.68-.35.4-.84l-1.54-2.66-1.62-2.81c-.16-.28-.12-.37.19-.47h.1c.45-.14.55-.38.32-.78l-3.06-5.3c-.21-.36-.53-.36-.74 0l-.65 1.12-2.38 4.11c-.27.46-.18.69.32.84h.05c.35.11.38.2.21.5l-1.37 2.38-1.78 3.09c-.27.47-.13.74.4.82l.51.09c.29.07.34.18.2.45l-.1.17c-1.45 2.49-2.89 5-4.36 7.47-.31.53-.12.92.47.91a8.43 8.43 0 0 1 1.07.1c.33 0 .41.2.26.49l-.12.21-5.5 9.25a.55.55 0 0 0-.07.61c.13.21.33.2.53.2h25.58a.43.43 0 0 0 .36-.64z"/><path class="cls-2" d="M271.16 148.08a2.07 2.07 0 0 0-.12-.21l-4.37-7.35c-.19-.32-.12-.44.25-.47l.91-.09a.35.35 0 0 0 .29-.57l-.08-.13-3.45-5.92-.08-.13c-.12-.22-.08-.31.17-.36l.39-.07c.44-.07.54-.28.31-.67l-1.21-2.11-1.28-2.22c-.13-.22-.1-.29.15-.37h.08c.36-.11.44-.3.26-.62l-2.43-4.2c-.16-.28-.42-.28-.59 0l-.51.89-1.85 3.24c-.21.37-.14.54.25.66.28.09.3.16.16.4l-1.09 1.88-1.41 2.45c-.21.37-.11.59.32.65l.41.07c.23.05.27.14.16.36l-.08.13c-1.15 2-2.29 4-3.46 5.92-.25.42-.1.73.37.72a6.68 6.68 0 0 1 .84.08c.26 0 .32.16.21.39l-.1.17-4.36 7.33a.43.43 0 0 0-.05.49c.1.17.26.16.42.16h20.27a.34.34 0 0 0 .3-.5zm37.08-.46c0-.14-.1-.26-.15-.39l-5.63-13.92c-.24-.6-.16-.83.32-.89s.78-.1 1.17-.18.57-.52.37-1.07l-.1-.25-4.45-11.21-.1-.25c-.15-.42-.1-.59.22-.69l.5-.12c.56-.13.69-.53.4-1.26l-1.57-4-1.65-4.21c-.16-.42-.12-.55.2-.71h.11c.46-.21.57-.57.33-1.17l-3.13-8c-.21-.54-.54-.54-.76 0s-.44 1.12-.66 1.68l-2.44 6.21c-.27.69-.18 1 .33 1.26h.05c.35.17.39.3.21.76l-1.4 3.57-1.82 4.64c-.27.7-.14 1.11.41 1.23.18 0 .35.08.52.13s.35.27.2.67l-.1.25c-1.48 3.74-3 7.48-4.46 11.2-.32.79-.13 1.38.48 1.37a6 6 0 0 1 1.09.15c.33.06.42.3.27.73 0 .11-.08.21-.13.32l-5.62 13.88a1.14 1.14 0 0 0-.07.92c.13.32.34.3.54.3h25.87a1.64 1.64 0 0 0 .25 0c.36-.04.54-.49.4-.95zm-2.16-97.64h7.37v7.37h-7.37z"/><path class="cls-1" d="M174.93 103.15s.12 3 .4 7.41c.15 2.21.36 4.79.64 7.54.13 1.38.33 2.79.5 4.22s.4 2.89.66 4.33.5 2.89.82 4.3.63 2.79 1 4.11.76 2.58 1.16 3.78.85 2.29 1.28 3.3.86 1.92 1.29 2.71.82 1.46 1.14 2c.69 1.09 1.11 1.71 1.11 1.71l-.38-.38c-.24-.25-.63-.6-1.05-1.1a22.62 22.62 0 0 1-1.47-1.86 27.08 27.08 0 0 1-1.67-2.6l-.84-1.56-.8-1.71-.76-1.85c-.24-.64-.47-1.29-.7-2-.43-1.35-.87-2.74-1.2-4.19s-.65-2.91-.91-4.39a76.27 76.27 0 0 1-.94-8.76c-.09-1.4-.1-2.76-.1-4s0-2.5.08-3.62a57.41 57.41 0 0 1 .74-7.39zm43.5 36.78a55.35 55.35 0 0 0-2.77 5.38c-.37.82-.74 1.72-1.11 2.68s-.69 2-1 3a32.09 32.09 0 0 0-.75 3.31 21 21 0 0 0-.34 3.45 18 18 0 0 0 .21 3.43c.07.56.23 1.1.32 1.65s.3 1.06.48 1.57a21.24 21.24 0 0 0 1.3 2.85c.26.43.5.85.76 1.25l.79 1.13c.26.36.56.67.81 1a9.38 9.38 0 0 0 .76.88c.52.51.92 1 1.33 1.36.78.72 1.22 1.16 1.22 1.16s-.53-.29-1.46-.84a17.41 17.41 0 0 1-1.6-1.11 19.43 19.43 0 0 1-1.92-1.68l-1-1.08c-.33-.39-.63-.83-1-1.26a17 17 0 0 1-1.68-3c-.23-.55-.43-1.13-.63-1.72a16.43 16.43 0 0 1-.43-1.82 19.67 19.67 0 0 1-.31-3.8 23 23 0 0 1 .44-3.76 24.89 24.89 0 0 1 1-3.5 30.09 30.09 0 0 1 2.79-5.71 29.61 29.61 0 0 1 2.63-3.61c.73-.79 1.16-1.21 1.16-1.21zM208.35 219l1.15-1.45c.73-.92 1.76-2.24 3-3.84l1.95-2.58c.7-.91 1.38-1.91 2.14-2.9 1.44-2 3-4.19 4.44-6.42.75-1.1 1.48-2.21 2.16-3.32l1-1.64 1-1.63c.65-1.07 1.26-2.1 1.8-3.11s1.11-1.93 1.56-2.82.9-1.69 1.29-2.41l.93-1.9c.53-1 .85-1.65.85-1.65s-.16.65-.48 1.79l-.6 2c-.27.78-.59 1.65-1 2.6s-.78 2-1.27 3l-.74 1.63c-.26.55-.57 1.09-.86 1.66-.59 1.13-1.19 2.29-1.9 3.42s-1.4 2.29-2.14 3.42-1.55 2.22-2.32 3.3-1.62 2.09-2.39 3.09c-1.62 2-3.18 3.72-4.61 5.15s-2.66 2.59-3.55 3.36-1.41 1.25-1.41 1.25zm-24.42 43.16s1-.61 2.8-1.63 4.35-2.5 7.45-4.19 6.72-3.66 10.63-5.72c2-1 4-2.1 6-3.15l6.26-3.2 6.29-3.14c2.07-1 4.13-2 6.11-3 4-1.93 7.7-3.69 10.91-5.17s5.91-2.66 7.79-3.51 3-1.29 3-1.29-1 .61-2.8 1.64-4.34 2.5-7.45 4.19-6.72 3.67-10.63 5.72c-2 1-4 2.1-6 3.15L218 246l-6.29 3.14c-2.07 1-4.13 2-6.11 3-4 1.93-7.7 3.69-10.91 5.17s-5.91 2.66-7.79 3.52-2.97 1.33-2.97 1.33zm10.75 17.99s3.2 1.26 7.88 3.4c2.35 1.06 5.06 2.33 8 3.73 1.44.71 2.94 1.42 4.45 2.18l4.57 2.3 4.53 2.36c1.5.77 3 1.58 4.37 2.33 2.83 1.53 5.45 3 7.67 4.28 4.47 2.56 7.36 4.42 7.36 4.42s-3.2-1.26-7.88-3.4c-2.35-1.06-5.06-2.33-8-3.73-1.44-.71-2.94-1.41-4.45-2.18l-4.57-2.3-4.53-2.36c-1.5-.77-3-1.58-4.37-2.34-2.83-1.53-5.45-3-7.67-4.28-4.46-2.56-7.36-4.41-7.36-4.41z"/></svg>