<svg id="Layer_1" data-name="Layer 1" xmlns="http://www.w3.org/2000/svg" viewBox="0 0 483.04 337.69"><defs><style>.cls-1,.cls-5{fill:#ffcd00}.cls-2{fill:#393d40}.cls-3,.cls-4,.cls-6{fill:none;stroke:#393d40}.cls-3,.cls-5{stroke-miterlimit:10}.cls-3,.cls-4{stroke-width:3px}.cls-4,.cls-6{stroke-linejoin:round}.cls-5{stroke:#ffcd00;stroke-width:7px}.cls-6{stroke-width:11px}</style></defs><title>Artboard 22</title><rect class="cls-1" width="483.04" height="337.68" rx="168.84" ry="168.84"/><path class="cls-2" d="M142.87 89.44a4.48 4.48 0 0 0-.25-.45l-9.45-15.9c-.41-.69-.27-.95.53-1s1.31-.12 2-.2a.76.76 0 0 0 .63-1.23l-.16-.29-7.47-12.81-.16-.29c-.26-.48-.17-.67.38-.79.28-.06.56-.1.84-.14.94-.14 1.16-.6.68-1.44l-2.63-4.57-2.81-4.81c-.27-.47-.21-.63.33-.81l.18-.06c.77-.24 1-.65.55-1.34l-5.25-9.09c-.36-.62-.91-.62-1.27 0s-.74 1.28-1.11 1.92l-4.1 7.09c-.46.79-.31 1.18.55 1.44h.09c.6.19.66.34.36.86l-2.35 4.08-3.06 5.3c-.46.8-.23 1.27.69 1.41.29 0 .59.09.88.15.5.11.59.31.34.77l-.16.29c-2.49 4.27-5 8.55-7.48 12.8-.54.91-.21 1.58.8 1.56a14.45 14.45 0 0 1 1.83.18c.56.07.7.34.45.84-.06.13-.14.24-.21.37l-9.48 15.87a.94.94 0 0 0-.12 1.05c.22.36.57.34.91.34h43.44a4.05 4.05 0 0 0 .42 0 .74.74 0 0 0 .64-1.1zm158.49-12.85a4.48 4.48 0 0 0-.25-.45l-9.45-15.9c-.41-.69-.27-.95.53-1s1.31-.12 2-.2a.76.76 0 0 0 .63-1.23l-.16-.29-7.51-12.82-.16-.29c-.26-.48-.17-.67.38-.79.28-.06.56-.1.84-.14.94-.14 1.16-.6.68-1.44l-2.63-4.57-2.78-4.81c-.27-.47-.21-.63.33-.81l.18-.06c.77-.24 1-.65.55-1.34l-5.25-9.09c-.36-.62-.91-.62-1.27 0s-.74 1.28-1.11 1.92l-4.1 7.09c-.46.79-.31 1.18.55 1.44h.09c.6.19.66.34.36.86l-2.35 4.08-3.06 5.3c-.46.8-.23 1.27.69 1.41.29 0 .59.09.88.15.5.11.59.31.34.77l-.16.29c-2.49 4.27-5 8.55-7.48 12.8-.54.91-.21 1.58.8 1.56a14.45 14.45 0 0 1 1.83.18c.56.07.7.34.45.84-.06.13-.14.24-.21.37l-9.47 15.88a.94.94 0 0 0-.12 1.05c.22.36.57.34.91.34h43.44a4.05 4.05 0 0 0 .42 0 .74.74 0 0 0 .64-1.1zm78.91 6.61a4.48 4.48 0 0 0-.25-.45l-9.45-15.9c-.41-.69-.27-.95.53-1s1.31-.12 2-.2a.76.76 0 0 0 .63-1.23l-.16-.29-7.47-12.81-.16-.29c-.26-.48-.17-.67.38-.79.28-.06.56-.1.84-.14.94-.14 1.16-.6.68-1.44l-2.63-4.57-2.78-4.81c-.27-.47-.21-.63.33-.81l.18-.06c.77-.24 1-.65.55-1.34L358.18 28c-.36-.62-.91-.62-1.27 0s-.74 1.28-1.11 1.92L351.71 37c-.46.79-.31 1.18.55 1.44h.09c.6.19.66.34.36.86l-2.35 4.08-3.06 5.3c-.46.8-.23 1.27.69 1.41.29 0 .59.09.88.15.5.11.59.31.34.77l-.16.29c-2.49 4.27-5 8.55-7.48 12.8-.54.91-.21 1.58.8 1.56a14.45 14.45 0 0 1 1.83.18c.56.07.7.34.45.84-.06.13-.14.24-.21.37L335 82.91a.94.94 0 0 0-.12 1.05c.22.36.57.34.91.34h43.41a4.05 4.05 0 0 0 .42 0 .74.74 0 0 0 .65-1.1zM207.18 68.41A3.7 3.7 0 0 0 207 68l-7.82-13.15c-.34-.57-.22-.78.44-.84s1.09-.1 1.63-.17a.63.63 0 0 0 .52-1l-.14-.24-6.21-10.6-.14-.24c-.21-.39-.14-.56.31-.65l.69-.12c.78-.12 1-.5.56-1.19l-2.18-3.78-2.3-4c-.23-.39-.17-.52.27-.67h.15c.64-.2.79-.54.46-1.11l-4.34-7.52c-.3-.51-.75-.51-1 0s-.61 1.06-.92 1.58l-3.39 5.87c-.38.65-.25 1 .45 1.19h.07c.49.16.55.28.29.71l-1.95 3.37-2.53 4.38c-.38.66-.19 1 .57 1.16.24 0 .49.07.73.12.42.09.48.25.28.64l-.14.24c-2.06 3.53-4.1 7.07-6.19 10.59-.44.75-.18 1.3.66 1.29a12 12 0 0 1 1.51.15c.46.05.58.28.37.69-.05.1-.12.2-.18.3l-7.8 13.12a.78.78 0 0 0-.1.87c.18.3.47.28.76.28h35.9a3.35 3.35 0 0 0 .35 0 .62.62 0 0 0 .54-.86z"/><path class="cls-2" d="M262.46 78.48a3.7 3.7 0 0 0-.21-.37L254.43 65c-.34-.57-.22-.78.44-.84S256 64 256.49 64a.63.63 0 0 0 .52-1l-.14-.24-6.17-10.66-.14-.24c-.21-.39-.14-.56.31-.65l.69-.12c.78-.12 1-.5.56-1.19l-2.18-3.78-2.3-4c-.23-.39-.17-.52.27-.67h.15c.64-.2.79-.54.46-1.11l-4.34-7.52c-.3-.51-.75-.51-1 0s-.61 1.06-.92 1.58l-3.39 5.87c-.38.65-.25 1 .45 1.19h.07c.49.16.55.28.29.71l-1.95 3.37-2.53 4.38c-.38.66-.19 1 .57 1.16.24 0 .49.07.73.12.42.09.48.25.28.64l-.14.24c-2.06 3.53-4.1 7.07-6.19 10.59-.44.75-.18 1.3.66 1.29a12 12 0 0 1 1.51.15c.46.05.58.28.37.69-.05.1-.12.2-.18.3L225 78.24a.78.78 0 0 0-.1.87c.18.3.47.28.76.28h35.93a3.35 3.35 0 0 0 .35 0 .62.62 0 0 0 .52-.91zm-106.12 4.7c-.06-.19-.14-.37-.21-.56l-8-19.74c-.35-.86-.23-1.18.45-1.27s1.11-.15 1.66-.25.81-.74.53-1.52c0-.12-.09-.24-.14-.35l-6.31-15.9-.14-.35c-.22-.59-.14-.83.32-1 .23-.07.47-.12.71-.17.8-.18 1-.75.57-1.79l-2.23-5.67-2.35-6c-.23-.59-.17-.79.28-1l.15-.07c.65-.29.8-.8.47-1.66l-1-2.57-8.42 1.27-.47 1.19c-.38 1-.26 1.46.46 1.78h.08c.5.23.56.42.3 1.07l-2 5.06-2.58 6.58c-.39 1-.19 1.57.59 1.75.25.06.5.11.74.19.43.14.49.38.28 1l-.14.35c-2.1 5.3-4.19 10.61-6.32 15.89-.45 1.12-.18 2 .67 1.94a8.45 8.45 0 0 1 1.54.22c.47.08.59.43.38 1-.05.16-.12.3-.18.45l-8 19.68a1.62 1.62 0 0 0-.1 1.31c.18.45.48.42.77.42h36.69a2.33 2.33 0 0 0 .36 0c.54 0 .79-.63.59-1.28z"/><path class="cls-2" d="M278.57 76.37c-.06-.19-.14-.37-.21-.56l-8-19.74c-.35-.86-.23-1.18.45-1.27s1.11-.15 1.66-.25.81-.74.53-1.52c0-.12-.09-.24-.14-.35l-6.31-15.9-.14-.35c-.22-.59-.14-.83.32-1 .23-.07.47-.12.71-.17.8-.18 1-.75.57-1.79l-2.23-5.67-2.35-6c-.23-.59-.17-.79.28-1l.15-.07c.65-.29.8-.8.47-1.66l-1.1-2.81h-7.73L254.45 19c-.38 1-.26 1.46.46 1.78h.08c.5.23.56.42.3 1.07l-2 5.06-2.58 6.58c-.39 1-.19 1.57.59 1.75.25.06.5.11.74.19.43.14.49.38.28 1l-.14.35c-2.1 5.3-4.19 10.61-6.32 15.89-.45 1.12-.18 2 .67 1.94a8.43 8.43 0 0 1 1.54.22c.47.08.59.43.38 1-.05.16-.12.3-.18.45l-8 19.68a1.62 1.62 0 0 0-.1 1.31c.18.45.48.42.77.42h36.69a2.33 2.33 0 0 0 .36 0c.53-.04.78-.69.58-1.32z"/><path class="cls-1" d="M72.78 63.11a10.89 10.89 0 0 1 8.89 4.6 17.27 17.27 0 0 1 18-7.11 10.9 10.9 0 0 1 21.09-.52h.43a12.32 12.32 0 0 1 9.16 4.08 20.3 20.3 0 0 1 19.6-15h.57a12.35 12.35 0 1 1 24.62-1.84c.66-.06 1.33-.1 2-.1a20.29 20.29 0 0 1 5.44.76 15.51 15.51 0 0 1 29.06 4.25 9.7 9.7 0 0 1 8.94 12.08 21.26 21.26 0 0 1 9.87 12.37 21.15 21.15 0 0 1 13.8-7.07 9.71 9.71 0 0 1 7.8-13.05A17 17 0 0 1 281.29 41a15.47 15.47 0 0 1 20.32 7 20.29 20.29 0 0 1 5.44-.76c.68 0 1.35 0 2 .1a12.36 12.36 0 1 1 24.62 1.84h.57a20.3 20.3 0 0 1 19.6 15 12.32 12.32 0 0 1 9.16-4.12h.43a10.9 10.9 0 0 1 21.09.52 17.27 17.27 0 0 1 18 7.11 10.89 10.89 0 0 1 8.89-4.6l24.76 27.61-101.83 21-239-1.57z"/><path class="cls-2" d="M450.73 137l-94.16-1.5 94.16-1.5v3zm-419.9-2l104.16 1.5L30.83 138v-3zm-3.76 20.69l72.79 1.5-72.79 1.5v-3zm7.76 66.1l73.53 2-73.53 2v-4zm368.7 63.06l-117.58-2 117.58-2v4zm-308.9 7.12l79.2 2-79.2 2v-4zm-16.8-17.08l51.03 2-51.03 2v-4z"/><path class="cls-3" d="M411.46 63.11a10.89 10.89 0 0 0-8.89 4.6 17.27 17.27 0 0 0-18-7.11 10.9 10.9 0 0 0-21.09-.52h-.43a12.32 12.32 0 0 0-9.16 4.08 20.3 20.3 0 0 0-19.6-15h-.57a12.35 12.35 0 1 0-24.62-1.84c-.66-.06-1.33-.1-2-.1a20.29 20.29 0 0 0-5.44.76 15.47 15.47 0 0 0-20.32-7 17 17 0 0 0-29.24 15.55 9.71 9.71 0 0 0-7.8 13.05 21.15 21.15 0 0 0-13.8 7.07 21.26 21.26 0 0 0-9.87-12.37 9.7 9.7 0 0 0-8.94-12.08 15.51 15.51 0 0 0-29.07-4.2 20.29 20.29 0 0 0-5.44-.76c-.68 0-1.35 0-2 .1a12.36 12.36 0 1 0-24.62 1.84h-.57a20.3 20.3 0 0 0-19.6 15 12.32 12.32 0 0 0-9.16-4.08h-.43a10.9 10.9 0 0 0-21.09.52 17.27 17.27 0 0 0-18 7.11 10.89 10.89 0 0 0-8.89-4.6"/><path class="cls-2" d="M162.27 97.22c-.09-.48-.13-1-.25-1.43s-.22-.92-.4-1.36l-.24-.66-.3-.64a13.1 13.1 0 0 0-.67-1.22c-.24-.39-.52-.76-.8-1.12a12.06 12.06 0 0 0-.93-1 8.57 8.57 0 0 0-1-.9 10.68 10.68 0 0 0-1.1-.77c-.38-.23-.78-.43-1.18-.62s-.8-.37-1.23-.48a8.14 8.14 0 0 0-1.27-.34 9.25 9.25 0 0 0-1.29-.18c-.43-.06-.87 0-1.3 0a11.37 11.37 0 0 0-1.28.11 10.9 10.9 0 0 0-2.48.68l-1.26.51-.51-1.37a7.54 7.54 0 0 0-3.29-3.92 6.58 6.58 0 0 0-1.18-.54 7.68 7.68 0 0 0-1.25-.32l-.64-.07h-1.37l-.57.09a8.28 8.28 0 0 0-1.24.36 7.18 7.18 0 0 0-1.16.58 6.58 6.58 0 0 0-1 .78 4.13 4.13 0 0 0-.46.46 4.43 4.43 0 0 0-.43.49 6.22 6.22 0 0 0-.72 1.09 6.88 6.88 0 0 0-.51 1.21 8.17 8.17 0 0 0-.29 1.29l-.05.66v1.99h-2.4c-.36 0-.67.07-1 .1s-.69.14-1 .21-.68.21-1 .31-.66.28-1 .41-.64.33-1 .5-.61.4-.92.59l-.86.69-.8.77-.73.84-.65.92-.57 1c-.16.34-.33.69-.48 1s-.27.72-.38 1.09l-.29 1.13-.19 1.17-.07-1.19c0-.4 0-.8.05-1.21s.13-.8.19-1.2.21-.79.31-1.19.3-.76.45-1.15.37-.74.56-1.11l.67-1.05c.25-.33.52-.65.79-1l.89-.9c.32-.27.64-.55 1-.81s.7-.49 1.06-.71.75-.41 1.14-.6.79-.34 1.2-.48.82-.26 1.25-.36.9-.18 1.32-.24l.59-.05h.65l-1.26 1.31v-1.74a10.77 10.77 0 0 1 .3-1.78 9.6 9.6 0 0 1 .62-1.7 9 9 0 0 1 .92-1.57 5.54 5.54 0 0 1 .57-.71 6.61 6.61 0 0 1 .64-.65 9.46 9.46 0 0 1 1.44-1.12 10.13 10.13 0 0 1 1.62-.85 11.12 11.12 0 0 1 1.75-.54l1-.15.79-.05a9.58 9.58 0 0 1 1.87.13 10.63 10.63 0 0 1 1.77.48 9.51 9.51 0 0 1 1.65.79 9.85 9.85 0 0 1 2.74 2.39 8.87 8.87 0 0 1 1 1.53 10.52 10.52 0 0 1 .69 1.68l-1.77-.86a13.56 13.56 0 0 1 3.13-.68 10.88 10.88 0 0 1 1.6 0c.53.06 1.06.06 1.58.17a11.46 11.46 0 0 1 1.55.35 10.22 10.22 0 0 1 1.49.53 11.55 11.55 0 0 1 1.4.7c.44.28.88.57 1.29.89a12.39 12.39 0 0 1 1.16 1 10.11 10.11 0 0 1 1 1.15 12.86 12.86 0 0 1 .86 1.27c.25.45.49.89.69 1.35a10.1 10.1 0 0 1 .51 1.42l.19.72.12.74a9.28 9.28 0 0 1 .13 1.48c-.1.51-.16 1-.17 1.48zm-59.92-17.05a12.71 12.71 0 0 0-5.3-2.17 11 11 0 0 0-2.74-.1 11.46 11.46 0 0 0-1.36.19 10.69 10.69 0 0 0-1.27.34c-.41.16-.83.31-1.22.5a9.75 9.75 0 0 0-1.15.64 10.66 10.66 0 0 0-1.06.76 12.46 12.46 0 0 0-.95.89 9.33 9.33 0 0 0-.83 1 9.66 9.66 0 0 0-.71 1.08 10.14 10.14 0 0 0-.56 1.16 11.35 11.35 0 0 0-.43 1.22L84 87.95l-1.69-1.57a7.62 7.62 0 0 0-3.61-1.88 8 8 0 0 0-1-.14 8.7 8.7 0 0 0-1.11 0h-.49l-.53.09a7.23 7.23 0 0 0-1 .29 7.13 7.13 0 0 0-1 .44 7.58 7.58 0 0 0-1 .56 7.48 7.48 0 0 0-.87.71 10.59 10.59 0 0 0-.79.83 7.59 7.59 0 0 0-.68.94 10.72 10.72 0 0 0-.57 1 8.9 8.9 0 0 0-.42 1.14 11.83 11.83 0 0 0-.3 1.21 8.26 8.26 0 0 1-.11-1.27 7.87 7.87 0 0 1 .1-1.29 7.16 7.16 0 0 1 .32-1.28 8.8 8.8 0 0 1 .52-1.24 7.29 7.29 0 0 1 .72-1.15 9.19 9.19 0 0 1 .89-1 9.1 9.1 0 0 1 1.05-.9 9.28 9.28 0 0 1 1.19-.73 9.59 9.59 0 0 1 1.3-.55l.68-.21.74-.15a10.67 10.67 0 0 1 1.38-.14 8.78 8.78 0 0 1 1.44.08 9.71 9.71 0 0 1 5.2 2.39l-2.44.72a14.3 14.3 0 0 1 .54-1.59 10.88 10.88 0 0 1 .74-1.51 12.64 12.64 0 0 1 .94-1.39 12.23 12.23 0 0 1 1.13-1.24 11.83 11.83 0 0 1 1.28-1.08 13.35 13.35 0 0 1 1.42-.89A12.05 12.05 0 0 1 91.05 76a12.79 12.79 0 0 1 1.65-.22 13.64 13.64 0 0 1 1.61 0 12.16 12.16 0 0 1 3.14.67 10.36 10.36 0 0 1 4.9 3.72zm232-2.44a11.48 11.48 0 0 0-.23-1.29l-.16-.62-.22-.61a10 10 0 0 0-.52-1.16 11 11 0 0 0-.68-1.06 8.74 8.74 0 0 0-.78-1 9.65 9.65 0 0 0-.9-.84 9 9 0 0 0-1-.71 8 8 0 0 0-2.18-1 7.86 7.86 0 0 0-1.15-.27c-.39-.06-.78-.09-1.17-.12a11.67 11.67 0 0 0-1.19 0 8.52 8.52 0 0 0-2.23.52 9.58 9.58 0 0 0-2 1.07l-1.3.9L318 70a13.84 13.84 0 0 0-.7-1.47 11.62 11.62 0 0 0-.89-1.36 10.13 10.13 0 0 0-1.07-1.17 11.28 11.28 0 0 0-1.2-1.08 11.94 11.94 0 0 0-1.33-.91 13.29 13.29 0 0 0-1.44-.71 13 13 0 0 0-1.53-.5 13.32 13.32 0 0 0-1.58-.29 11.08 11.08 0 0 0-1.59-.1 10.67 10.67 0 0 0-1.62.13 10.39 10.39 0 0 0-1.57.35 12.92 12.92 0 0 0-1.51.56 12.14 12.14 0 0 0-1.43.75 11.56 11.56 0 0 0-1.32.95 11 11 0 0 0-1.22 1.1 15.73 15.73 0 0 0-1 1.27l-1.2 1.58-.89-1.6a6.27 6.27 0 0 0-2.91-2.68 6.61 6.61 0 0 0-2-.55h-.26a1.86 1.86 0 0 0-.25 0h-.58a6.53 6.53 0 0 0-1 .14 6.82 6.82 0 0 0-3.71 2.16 7 7 0 0 0-.69.89 7.18 7.18 0 0 0-.54 1 6.82 6.82 0 0 0-.39 1.1 8.27 8.27 0 0 0-.23 1.16 8.41 8.41 0 0 1 0-1.2 6.44 6.44 0 0 1 .17-1.21 7.64 7.64 0 0 1 5-5.42 8 8 0 0 1 1.32-.33c.23 0 .4 0 .61-.07s.15 0 .35 0h.33a7.82 7.82 0 0 1 2.66.44 8.56 8.56 0 0 1 4.21 3.26h-2.1a14.47 14.47 0 0 1 5.84-5.32 14 14 0 0 1 1.87-.74 13.34 13.34 0 0 1 2-.47 14 14 0 0 1 2-.19 13.87 13.87 0 0 1 2 .09 11.75 11.75 0 0 1 2 .37 15.87 15.87 0 0 1 1.91.66 16.19 16.19 0 0 1 1.79.93 14.86 14.86 0 0 1 1.69 1.13 12.56 12.56 0 0 1 1.42 1.35 12.89 12.89 0 0 1 1.24 1.58 14.32 14.32 0 0 1 1 1.73 16.42 16.42 0 0 1 .76 1.85l-1.94-.65a10.16 10.16 0 0 1 2.7-1.21 11 11 0 0 1 1.44-.31 10.58 10.58 0 0 1 1.48-.11 14 14 0 0 1 1.44.09 10 10 0 0 1 1.42.29 9.75 9.75 0 0 1 1.36.49 9.65 9.65 0 0 1 2.44 1.47 8.46 8.46 0 0 1 1 1 10.87 10.87 0 0 1 .88 1.09 9.79 9.79 0 0 1 .71 1.19 10 10 0 0 1 .53 1.27 10.64 10.64 0 0 1 .33 1.32l.11.67v.68a11.66 11.66 0 0 1 .03 1.29zm54.38 27.06l-.11-.68-.17-.65a8.89 8.89 0 0 0-.53-1.22 7.06 7.06 0 0 0-.74-1.07c-.15-.16-.28-.33-.44-.47a6.37 6.37 0 0 0-.47-.42 6 6 0 0 0-1.05-.69 5.51 5.51 0 0 0-1.15-.45 5.65 5.65 0 0 0-1.19-.22 3.42 3.42 0 0 0-.6 0 3.8 3.8 0 0 0-.62 0l-1.06.14.17-1.21a10.06 10.06 0 0 0 .08-2.05l-.1-1.07-.19-.94-.3-1c-.13-.31-.25-.62-.39-.92a12.35 12.35 0 0 0-1-1.69 9.78 9.78 0 0 0-1.34-1.45 9 9 0 0 0-1.59-1.15 6 6 0 0 0-.87-.44 6.55 6.55 0 0 0-.9-.37 6 6 0 0 0-.93-.27 9.52 9.52 0 0 0-1.93-.26h-.99a6.47 6.47 0 0 0-1 .12 8 8 0 0 0-.92.21 10.43 10.43 0 0 0-1.81.67l-.85.48c-.26.19-.54.35-.79.56a9.37 9.37 0 0 0-1.4 1.35 6.61 6.61 0 0 0-.59.77 6.89 6.89 0 0 0-.53.82 9.69 9.69 0 0 0-.79 1.79c-.11.31-.17.63-.26 1l-.16 1-.36 2.23-1.71-1.24a8.1 8.1 0 0 0-3.94-1.66h-1.11c-.45 0-.74 0-1.1.07a8.58 8.58 0 0 0-1.09.23 7 7 0 0 0-1.06.37 8.49 8.49 0 0 0-1 .52 8.63 8.63 0 0 0-.95.65 9.2 9.2 0 0 0-.87.77 9.38 9.38 0 0 0-.75.91 8.24 8.24 0 0 0-1.16 2.09 8.61 8.61 0 0 0-.37 1.16 10.32 10.32 0 0 0-.23 1.22 10.51 10.51 0 0 1 0-1.26 6.92 6.92 0 0 1 .13-1.27 9.68 9.68 0 0 1 .32-1.25 8.82 8.82 0 0 1 .51-1.2 10.42 10.42 0 0 1 .68-1.13 10.53 10.53 0 0 1 .85-1 8.76 8.76 0 0 1 1-.91 10.06 10.06 0 0 1 1.12-.76 8.66 8.66 0 0 1 1.23-.6 10.47 10.47 0 0 1 1.31-.44 10 10 0 0 1 1.37-.23h1.38a10 10 0 0 1 5.28 1.75l-2 .94c0-.41.08-.83.14-1.25s.15-.83.26-1.23a12.44 12.44 0 0 1 .9-2.36 10.4 10.4 0 0 1 1.38-2.12 12.3 12.3 0 0 1 1.79-1.79c.32-.28.68-.5 1-.75s.73-.44 1.1-.64a13 13 0 0 1 2.37-.93 10.87 10.87 0 0 1 1.27-.26 10.22 10.22 0 0 1 1.26-.13h.56a6.74 6.74 0 0 1 .69 0 8.92 8.92 0 0 1 1.26.12 8.78 8.78 0 0 1 1.25.25 8.53 8.53 0 0 1 1.21.38 7.46 7.46 0 0 1 1.16.5 8.5 8.5 0 0 1 1.1.63 11.69 11.69 0 0 1 2 1.58 12.41 12.41 0 0 1 1.6 1.93 11.77 11.77 0 0 1 1.07 2.1c.14.39.26.79.39 1.18l.27 1.21.14 1.28v1.18a12 12 0 0 1-.38 2.41l-.89-1.07a5 5 0 0 1 .75 0 4.81 4.81 0 0 1 .76.12 4.87 4.87 0 0 1 .74.19 4.37 4.37 0 0 1 .71.27 6.83 6.83 0 0 1 1.3.75 7.15 7.15 0 0 1 1.11 1 6.7 6.7 0 0 1 .87 1.18 7.76 7.76 0 0 1 .59 1.32l.19.69.1.7v.7zm52.91 2.14l-.22-.86-.27-.81a12.47 12.47 0 0 0-.72-1.51 11 11 0 0 0-.94-1.33 8.48 8.48 0 0 0-1.12-1.12 9.75 9.75 0 0 0-1.26-.9 8 8 0 0 0-1.38-.64 7.62 7.62 0 0 0-1.44-.39 7.2 7.2 0 0 0-1.47-.13h-1.17l-.33.06a5.73 5.73 0 0 0-.68.15 4.69 4.69 0 0 0-.7.22 8.06 8.06 0 0 0-1.32.62 8.4 8.4 0 0 0-2.23 1.88 8.58 8.58 0 0 0-.84 1.21l-.35.66-.28.7-.23.72-.16.75-.27 1.24-.86-.2h-.89a6.44 6.44 0 0 0-.87.15 5.08 5.08 0 0 0-.86.32 7.21 7.21 0 0 0-.8.49 5.64 5.64 0 0 0-.72.65 7.94 7.94 0 0 0-.61.8 6.26 6.26 0 0 0-.47.93 7.54 7.54 0 0 0-.32 1 5.57 5.57 0 0 1-.1-1.12 6.08 6.08 0 0 1 .16-1.15 5.49 5.49 0 0 1 .42-1.11 6.9 6.9 0 0 1 .66-1 6 6 0 0 1 1.94-1.56 5.85 5.85 0 0 1 1.2-.47l.67-.13c.21 0 .3 0 .6-.07l-1.13 1 .06-1 .16-1 .27-1c.12-.31.23-.63.36-.93a11.36 11.36 0 0 1 1-1.74 10.6 10.6 0 0 1 1.35-1.5 9.61 9.61 0 0 1 1.63-1.21 8.92 8.92 0 0 1 1.84-.86 7.31 7.31 0 0 1 1-.29 6.35 6.35 0 0 1 1-.19l.54-.06h.89a5.08 5.08 0 0 1 .56 0 9.62 9.62 0 0 1 6.87 3.54 10.28 10.28 0 0 1 1 1.61 8.56 8.56 0 0 1 .67 1.77 8.23 8.23 0 0 1 .27 1.83 8 8 0 0 1-.11 1.98zM205.28 74.68a10.19 10.19 0 0 0 .15-1.13 10.46 10.46 0 0 0 0-1.1 7.88 7.88 0 0 0-.16-1.07 7.2 7.2 0 0 0-.28-1 7.12 7.12 0 0 0-2.36-3.25 8.64 8.64 0 0 0-.81-.54 6.25 6.25 0 0 0-.88-.41c-.14 0-.32-.12-.44-.16a4.35 4.35 0 0 0-.49-.13 6.1 6.1 0 0 0-.92-.13 6.18 6.18 0 0 0-3.59.77l-1.07.6-.74-1.13a7 7 0 0 0-2.69-2.29l-.42-.18h-.11.06-.07l-.26-.08a6.87 6.87 0 0 0-.88-.24 7.36 7.36 0 0 0-.88-.12 6.79 6.79 0 0 0-.9 0 7 7 0 0 0-.9.1 7.38 7.38 0 0 0-.88.22 8.36 8.36 0 0 0-.86.31 7.43 7.43 0 0 0-.81.43 6.52 6.52 0 0 0-.76.53 7.32 7.32 0 0 0-.68.63 8.61 8.61 0 0 0-.61.71 8.36 8.36 0 0 0-.53.78l-1.25 1.78-.81-1.72a4.37 4.37 0 0 0-1.61-1.86 3.62 3.62 0 0 0-.5-.29l-.34-.15-.27-.09a4.3 4.3 0 0 0-.59-.15c-.21 0-.42-.05-.63-.06a4.74 4.74 0 0 0-2.53.61 5.45 5.45 0 0 0-2 2 5.06 5.06 0 0 1 1.52-2.63 5.6 5.6 0 0 1 2.91-1.41 5.43 5.43 0 0 1 .84-.07 6 6 0 0 1 .87.06l.45.08.36.09a5.27 5.27 0 0 1 .84.3 6.13 6.13 0 0 1 2.62 2.32l-2.06.07a10.76 10.76 0 0 1 .58-1.12 7.12 7.12 0 0 1 .72-1 9.94 9.94 0 0 1 .87-.93 9.17 9.17 0 0 1 1-.81 10.14 10.14 0 0 1 1.08-.68 9.76 9.76 0 0 1 1.17-.52 10.29 10.29 0 0 1 1.24-.36 10 10 0 0 1 1.28-.19 8.2 8.2 0 0 1 1.29 0 10.2 10.2 0 0 1 1.3.16 9 9 0 0 1 1.23.33l.26.09.2.07.15.06.59.27a9.76 9.76 0 0 1 3.8 3.4l-1.86-.45a8.88 8.88 0 0 1 5.22-.73 8.15 8.15 0 0 1 1.29.34c.24.08.41.16.58.23s.4.2.6.3a8.44 8.44 0 0 1 1.1.69 7.27 7.27 0 0 1 1 .85 8.23 8.23 0 0 1 1.45 2.08 6.56 6.56 0 0 1 .46 1.16 8.38 8.38 0 0 1 .26 1.21 7.78 7.78 0 0 1 .07 1.22 8.71 8.71 0 0 1-.13 1.19 7.11 7.11 0 0 1-.33 1.14 7.2 7.2 0 0 1-.52 1zM73.47 110.11a5.18 5.18 0 0 0-1.12-2.41 4.43 4.43 0 0 0-2-1.38 3.86 3.86 0 0 0-1.14-.24 3.28 3.28 0 0 0-.57 0h-.31l-.26.05a4 4 0 0 0-1.91 1l-1.36 1.28-.55-2A5.85 5.85 0 0 0 63 104a5.5 5.5 0 0 0-2.16-1.5 5.27 5.27 0 0 0-1.27-.31 5.56 5.56 0 0 0-.65 0h-.66a5.39 5.39 0 0 0-2.42.93l-1 .71-.85-.84a6.86 6.86 0 0 0-3.27-1.8 6.15 6.15 0 0 0-.95-.15h-1.02a6.43 6.43 0 0 0-.92.11 7 7 0 0 0-1 .25c-.31.12-.62.24-.92.39a7.11 7.11 0 0 0-.89.5 7.43 7.43 0 0 0-.81.65 8.71 8.71 0 0 0-.74.75 7.34 7.34 0 0 0-.63.87 9.13 9.13 0 0 0-.53 1 8.91 8.91 0 0 0-.4 1 10.9 10.9 0 0 0-.29 1.12 7.51 7.51 0 0 1-.1-1.17 7.06 7.06 0 0 1 .09-1.2 6.83 6.83 0 0 1 .3-1.19 8.48 8.48 0 0 1 .48-1.14 7.34 7.34 0 0 1 .67-1.07 9.08 9.08 0 0 1 .83-1 9 9 0 0 1 1-.83 7.54 7.54 0 0 1 1.11-.62 9.23 9.23 0 0 1 1.19-.46 8.62 8.62 0 0 1 1.34-.33c.23 0 .39-.05.59-.08h.68a8.81 8.81 0 0 1 1.34.09 9 9 0 0 1 4.83 2.3l-1.88-.12a8 8 0 0 1 3.79-1.52h1.03a8.5 8.5 0 0 1 1 .08 7.17 7.17 0 0 1 1 .21 8.16 8.16 0 0 1 1 .35 7.85 7.85 0 0 1 3.19 2.49 7.21 7.21 0 0 1 .55.85 7.92 7.92 0 0 1 .44.91 7.78 7.78 0 0 1 .51 1.77l-1.91-.73a6 6 0 0 1 3.16-1.13h.83a5 5 0 0 1 .81.14A5.5 5.5 0 0 1 71 105a5.36 5.36 0 0 1 2.08 2.28 4.78 4.78 0 0 1 .39 2.83z"/><path class="cls-4" d="M450.73 120.5H34.83"/><path class="cls-1" d="M158.53 114.18l-7.67 19.24 14.34-2.24 4.32-17h-10.99zm165.48 0l7.67 19.24-14.34-2.24-4.32-17h10.99z"/><path class="cls-2" d="M219.29 204.55l31.86 2-31.86 2v-4z"/><path class="cls-2" d="M345.58 227l1.54-18.38A84.5 84.5 0 0 0 340.9 169l-25-59.86a22 22 0 0 0-20.29-13.52h-13.16a22 22 0 0 0-21.81 19.19l-.29-.09a66.42 66.42 0 0 0-37.93.09 22 22 0 0 0-21.82-19.16h-13.18a22 22 0 0 0-20.29 13.52l-25 59.86a84.5 84.5 0 0 0-6.23 39.62l1.56 18.35 84.95-7.83v-71a13 13 0 0 1 13-13h12.2a13 13 0 0 1 13 13v71z"/><circle class="cls-5" cx="304.28" cy="219.2" r="43.65"/><circle class="cls-5" cx="178.76" cy="219.2" r="43.65"/><circle class="cls-2" cx="304.28" cy="219.2" r="43.65"/><circle class="cls-2" cx="178.76" cy="219.2" r="43.65"/><path class="cls-2" d="M222.41 133.42h38.23v35.95h-38.23z"/><circle class="cls-1" cx="304.28" cy="219.2" r="26.29"/><circle class="cls-1" cx="178.84" cy="219.2" r="26.29"/><path class="cls-1" d="M241.52 148.14a21.23 21.23 0 1 0 21.23 21.23 21.26 21.26 0 0 0-21.23-21.23z"/><circle class="cls-2" cx="241.52" cy="169.37" r="19.11"/><circle class="cls-2" cx="241.52" cy="169.37" r="6.64"/><path class="cls-1" d="M241.52 164.23a5.14 5.14 0 1 1-5.14 5.14 5.14 5.14 0 0 1 5.14-5.14m0-3a8.14 8.14 0 1 0 8.14 8.14 8.15 8.15 0 0 0-8.14-8.14z"/><path class="cls-2" d="M178.84 95.28a11 11 0 0 1 11-10.49h12.06a11 11 0 0 1 11 11v1.5zm125.36 0a11 11 0 0 0-11-10.49h-12.06a11 11 0 0 0-11 11v1.5z"/><path class="cls-4" d="M175.49 211.94l-8.45 7.54 8.45 6.97m6.7 0l8.45-7.54-8.45-6.97m112.62.24l-8.75 7.29 8.75 6.74m18.95 0l8.74-7.29-8.74-6.74m-6.59 0l-5.83 14.03"/><path class="cls-1" d="M186.42 254.57s.18 0 .52-.15.82-.29 1.43-.51 1.34-.53 2.16-.93l1.29-.63 1.39-.77a16.36 16.36 0 0 0 1.47-.9c.49-.34 1-.62 1.53-1a40.15 40.15 0 0 0 6.09-5.43 17.85 17.85 0 0 0 1.39-1.66c.45-.57.92-1.13 1.35-1.72l1.21-1.82a16.66 16.66 0 0 0 1.15-1.84c.63-1.29 1.42-2.49 2-3.76s1.07-2.5 1.58-3.66l1.15-3.4.52-1.52c.15-.49.25-1 .37-1.4l.6-2.28.57-2s-.05.75-.17 2.06l-.25 2.37c-.06.46-.1.95-.18 1.46l-.35 1.59c-.25 1.11-.51 2.32-.84 3.58s-.88 2.54-1.38 3.89a17.5 17.5 0 0 1-.89 2q-.48 1-1 2a18 18 0 0 1-1.17 2l-1.3 1.86c-.46.62-1 1.2-1.45 1.79a19.29 19.29 0 0 1-1.5 1.73 30.34 30.34 0 0 1-3.29 3 19.09 19.09 0 0 1-1.69 1.28l-1.73 1.12c-.55.37-1.14.63-1.68.92a17.26 17.26 0 0 1-1.62.77l-1.52.63-1.41.46a22.28 22.28 0 0 1-2.32.59 14.88 14.88 0 0 1-2.03.28zm124.87 0s.18 0 .52-.15.82-.29 1.43-.51 1.34-.53 2.16-.93l1.29-.63 1.39-.77a16.36 16.36 0 0 0 1.47-.9c.49-.34 1-.62 1.53-1a40.15 40.15 0 0 0 6.09-5.43 17.85 17.85 0 0 0 1.39-1.66c.45-.57.92-1.13 1.35-1.72l1.21-1.82a16.66 16.66 0 0 0 1.15-1.84c.63-1.29 1.42-2.49 2-3.76s1.07-2.5 1.58-3.66l1.15-3.4.52-1.52c.15-.49.25-1 .37-1.4l.6-2.28.57-2s-.05.75-.17 2.06l-.25 2.37c-.06.46-.1.95-.18 1.46l-.35 1.59c-.25 1.11-.51 2.32-.84 3.58s-.88 2.54-1.38 3.89a17.5 17.5 0 0 1-.89 2q-.48 1-1 2a18 18 0 0 1-1.17 2l-1.29 1.86c-.46.62-1 1.2-1.45 1.79a19.29 19.29 0 0 1-1.5 1.73 30.34 30.34 0 0 1-3.29 3 19.09 19.09 0 0 1-1.69 1.28l-1.71 1.09c-.55.37-1.14.63-1.68.92a17.26 17.26 0 0 1-1.62.77l-1.52.63-1.41.46a22.28 22.28 0 0 1-2.32.59 14.88 14.88 0 0 1-2.06.31zm-163.54-48.02a12 12 0 0 1 .44-1.34c.15-.43.37-.92.63-1.5s.57-1.21 1-1.87a22 22 0 0 1 1.33-2.12 26.94 26.94 0 0 1 1.7-2.23c.65-.72 1.31-1.49 2.06-2.19a29.81 29.81 0 0 1 2.38-2l1.27-.92c.44-.28.89-.54 1.33-.8a17.44 17.44 0 0 1 2.71-1.35 15.32 15.32 0 0 1 2.66-.94l1.25-.36 1.21-.19c.77-.11 1.47-.24 2.1-.27s1.18 0 1.63 0h1.41s-.5.14-1.36.36l-1.55.36c-.59.15-1.24.42-1.95.63l-1.1.35-1.14.49a21.61 21.61 0 0 0-2.41 1.12l-1.24.65c-.42.22-.8.51-1.22.76s-.82.51-1.23.78l-1.17.89a27.81 27.81 0 0 0-2.27 1.85c-.71.65-1.41 1.3-2.07 2s-1.28 1.3-1.82 2-1.09 1.26-1.56 1.85c-.94 1.17-1.69 2.19-2.2 2.91s-.82 1.08-.82 1.08zm125.77 0a12 12 0 0 1 .44-1.34c.15-.43.37-.92.63-1.5s.57-1.21 1-1.87a22 22 0 0 1 1.33-2.12 27 27 0 0 1 1.7-2.23c.65-.72 1.31-1.49 2.06-2.19a29.8 29.8 0 0 1 2.38-2l1.27-.92c.44-.28.89-.54 1.33-.8a17.44 17.44 0 0 1 2.71-1.35 15.32 15.32 0 0 1 2.66-.94l1.25-.36 1.21-.19c.77-.11 1.47-.24 2.1-.27s1.18 0 1.63 0h1.41s-.5.14-1.36.36l-1.55.36c-.59.15-1.24.42-1.95.63l-1.1.35-1.14.49a21.61 21.61 0 0 0-2.41 1.12l-1.24.65c-.42.22-.8.51-1.22.76s-.82.51-1.23.78l-1.17.89a27.81 27.81 0 0 0-2.27 1.85c-.71.65-1.41 1.3-2.07 2s-1.28 1.3-1.82 2-1.09 1.26-1.56 1.85c-.94 1.17-1.69 2.19-2.2 2.91s-.82 1.08-.82 1.08zm-68.39-96.38s.2 3.59.24 9v9.17c0 1.68 0 3.41-.11 5.17l-.16 5.34-.23 5.33c-.07 1.76-.19 3.49-.28 5.16-.19 3.35-.42 6.47-.65 9.15-.44 5.35-.9 8.92-.9 8.92s-.2-3.59-.24-9v-9.17c0-1.68 0-3.41.11-5.17l.16-5.34.23-5.33c.07-1.76.19-3.49.28-5.16.2-3.35.42-6.47.65-9.15.44-5.36.9-8.92.9-8.92zm96.66-4.24s1.41 3.33 3.26 8.42c.94 2.54 2 5.51 3.08 8.71.53 1.6 1.12 3.25 1.65 4.94l1.66 5.12 1.59 5.14c.53 1.69 1 3.37 1.49 5 1 3.24 1.8 6.28 2.5 8.9 1.41 5.23 2.17 8.76 2.17 8.76s-1.41-3.33-3.27-8.42c-.94-2.54-2-5.51-3.08-8.71-.53-1.6-1.12-3.25-1.65-4.94l-1.66-5.12-1.59-5.14c-.53-1.69-1-3.37-1.49-5-1-3.24-1.8-6.28-2.49-8.9-1.41-5.22-2.17-8.76-2.17-8.76zm-90.25-7.36s-4.88-3.2-13-2.9a53.43 53.43 0 0 1 16.22 1zm95.05 0s-4.88-3.2-13-2.9a53.43 53.43 0 0 1 16.22 1zm-70.21 34.85s-14 0-14 18c.03-.03-.13-12.23 14-18zm10.28 0s14 0 14 18c-.03-.03.13-12.23-14-18z"/><path class="cls-2" d="M260.63 180.74v-21.08l5.68 8.37-5.68 12.71zm-38.22 0v-24.23l-5.88 12.11 5.88 12.12z"/><path class="cls-1" d="M254.13 140.62a9.89 9.89 0 0 1 .29 1.35 20.83 20.83 0 0 1 0 5.95 9.79 9.79 0 0 1-.29 1.35 9.79 9.79 0 0 1-.29-1.35 20.83 20.83 0 0 1 0-5.95 9.89 9.89 0 0 1 .29-1.35zm-24.74 0a9.89 9.89 0 0 1 .29 1.35 20.84 20.84 0 0 1 0 5.95 9.79 9.79 0 0 1-.29 1.35 9.79 9.79 0 0 1-.29-1.35 20.83 20.83 0 0 1 0-5.95 9.89 9.89 0 0 1 .29-1.35zm12.13-6.44a14.93 14.93 0 0 1 .29 1.68 32.24 32.24 0 0 1 0 7.4 14.79 14.79 0 0 1-.29 1.68 14.79 14.79 0 0 1-.29-1.68 32.23 32.23 0 0 1 0-7.4 14.92 14.92 0 0 1 .29-1.68zm19.11 20.12v-27.54l-2.51 13.77 2.51 13.77zm-38.22-3.97v-27.72l1.12 20.51-1.12 7.21z"/><path class="cls-2" d="M330.4 249.49l59.59 2-59.59 2v-4zm-130.98 0l59.59 2-59.59 2v-4zm139.42-14.61l31.86 2-31.86 2v-4zm3.67-21.19l30.08 2-30.08 2v-4zm-126.16 21.19l31.86 2-31.86 2v-4zm122.25-67.85l34.44 2-34.44 2v-4z"/><path class="cls-6" d="M307 317H176.07c-84 0-152-66.35-152-148.19C24 87 92.1 20.66 176.07 20.66H307c84 0 152 66.35 152 148.19S390.94 317 307 317z"/></svg>