<?xml version="1.0" encoding="iso-8859-1"?>
<!-- Generator: Adobe Illustrator 19.1.0, SVG Export Plug-In . SVG Version: 6.00 Build 0)  -->
<svg version="1.1" id="Capa_1" xmlns="http://www.w3.org/2000/svg" xmlns:xlink="http://www.w3.org/1999/xlink" x="0px" y="0px"
	 viewBox="0 0 64 64" style="enable-background:new 0 0 64 64;" xml:space="preserve">
<g>
	<g id="group-59svg">
		<path id="path-1_105_" style="fill:#FF917B;" d="M61,56c0,4.418-3.582,8-8,8H18c-4.418,0-8-3.582-8-8V12c0-4.418,3.582-8,8-8h35
			c4.418,0,8,3.582,8,8V56z"/>
		<path id="path-2_105_" d="M47.5,63h-35C7.262,63,3,58.738,3,53.5v-44C3,4.262,7.262,0,12.5,0h35C52.738,0,57,4.262,57,9.5v44
			C57,58.738,52.738,63,47.5,63z M12.5,3C8.916,3,6,5.916,6,9.5v44c0,3.584,2.916,6.5,6.5,6.5h35c3.584,0,6.5-2.916,6.5-6.5v-44
			C54,5.916,51.084,3,47.5,3H12.5z"/>
		<path id="path-3_104_" d="M49,14H13c-0.828,0-1.5-0.672-1.5-1.5S12.172,11,13,11h36c0.828,0,1.5,0.672,1.5,1.5S49.828,14,49,14z"
			/>
		<path id="path-4_102_" d="M49,22H13c-0.828,0-1.5-0.672-1.5-1.5S12.172,19,13,19h36c0.828,0,1.5,0.672,1.5,1.5S49.828,22,49,22z"
			/>
		<path id="path-5_93_" d="M22.516,34.507c0-1.048,0.336-2.109,1.008-3.184c0.672-1.075,1.654-1.965,2.944-2.67
			c1.289-0.706,2.795-1.058,4.513-1.058c1.599,0,3.01,0.295,4.235,0.883c1.223,0.59,2.168,1.393,2.835,2.407
			c0.668,1.014,1.001,2.116,1.001,3.307c0,0.937-0.191,1.759-0.571,2.464c-0.38,0.706-0.833,1.315-1.356,1.827
			c-0.524,0.513-1.463,1.376-2.819,2.588c-0.375,0.342-0.676,0.643-0.901,0.902c-0.226,0.259-0.395,0.496-0.505,0.711
			c-0.11,0.214-0.195,0.429-0.256,0.644c-0.061,0.215-0.152,0.593-0.273,1.133c-0.21,1.147-0.865,1.721-1.968,1.721
			c-0.573,0-1.055-0.188-1.447-0.564c-0.391-0.374-0.587-0.931-0.587-1.67c0-0.926,0.143-1.727,0.43-2.406
			c0.287-0.677,0.667-1.273,1.141-1.785c0.474-0.513,1.114-1.122,1.918-1.827c0.705-0.618,1.215-1.084,1.53-1.398
			c0.314-0.314,0.579-0.664,0.794-1.05c0.214-0.385,0.322-0.804,0.322-1.256c0-0.883-0.327-1.626-0.984-2.233
			c-0.656-0.606-1.502-0.91-2.539-0.91c-1.212,0-2.105,0.307-2.677,0.918c-0.574,0.612-1.059,1.513-1.455,2.704
			c-0.376,1.246-1.086,1.869-2.134,1.869c-0.617,0-1.139-0.218-1.563-0.654C22.728,35.485,22.516,35.014,22.516,34.507z
			 M30.586,52.631c-0.674,0-1.26-0.218-1.762-0.654c-0.502-0.435-0.753-1.044-0.753-1.827c0-0.695,0.242-1.279,0.728-1.753
			c0.485-0.473,1.081-0.712,1.787-0.712c0.693,0,1.278,0.239,1.752,0.712c0.474,0.474,0.711,1.058,0.711,1.753
			c0,0.772-0.247,1.377-0.744,1.819C31.808,52.409,31.235,52.631,30.586,52.631z"/>
	</g>
</g>
<g>
</g>
<g>
</g>
<g>
</g>
<g>
</g>
<g>
</g>
<g>
</g>
<g>
</g>
<g>
</g>
<g>
</g>
<g>
</g>
<g>
</g>
<g>
</g>
<g>
</g>
<g>
</g>
<g>
</g>
</svg>
