<svg xmlns="http://www.w3.org/2000/svg" viewBox="0 0 504 311"><defs><style>.a{opacity:0.5;}.b{fill:#aea79f;}.c{fill:#44c4a1;}.d{fill:#3ea69b;}.e{fill:#31978c;}.f{fill:#e56353;}.g{fill:#64798a;}.h{fill:#3a556a;}.i{fill:#2f4859;}.j{fill:#d15241;}.k{fill:#fcd462;}</style></defs><title>intro-img-settings</title><g class="a"><path class="b" d="M460.39,101.79H414.46v-.29h-8.78v24.16h-.08V101.38H353.28l7.63-6.61c2.93-2.34,3.51-6.44,1.76-10l-18.14-31.6a7.62,7.62,0,0,0-9.37-3.51l-22.23,7.61a115.41,115.41,0,0,0-48.57-28.09L259.68,6.4A8.1,8.1,0,0,0,252.07,0H215.79a8.1,8.1,0,0,0-7.61,6.43L203.5,29.23a115.35,115.35,0,0,0-48.57,28.09l-22.24-7.61a8.31,8.31,0,0,0-9.36,3.51l-18.14,31c-1.76,3.51-1.17,7.61,1.75,10l8.51,7.37H62.83v.36L22.09,124a19.79,19.79,0,0,1,0,28.09l40.71,22.1v.49H114l-7,6.09c-2.92,2.34-3.51,6.44-1.75,10l18.14,31a7.6,7.6,0,0,0,9.36,3.51l22.24-7.61a115.35,115.35,0,0,0,48.57,28.09l4.68,22.83a8.08,8.08,0,0,0,7.61,6.43h36.28a8.1,8.1,0,0,0,7.61-6.43l4.68-22.83a115.41,115.41,0,0,0,48.57-28.09l22.23,7.61a8.33,8.33,0,0,0,9.37-3.51l18.14-31c1.75-3.51,1.17-7.61-1.76-10l-7.44-6.2h52.09V150.24h.12v24.4h8.48v.3h46.23c4.1-.59,7.61-4.1,7.61-8.2V150.36h0v-24h0v-17A7.75,7.75,0,0,0,460.39,101.79ZM63.11,150.13h-.06v-24h.06ZM233.93,74.29A63.78,63.78,0,0,1,286,101.38H234.14v.17H181.71A63.81,63.81,0,0,1,233.93,74.29Zm0,127.57a63.79,63.79,0,0,1-52.14-27.16h52.46v-.11h51.89A63.79,63.79,0,0,1,233.93,201.86ZM22.09,151.53,2.19,141a3.46,3.46,0,0,1,0-6.44L22.09,124a20.42,20.42,0,0,1,5.85,14C27.94,143.34,25.6,148.6,22.09,151.53Z"/></g><rect class="c" x="270.1" y="186" width="171.46" height="24.58"/><rect class="d" x="270.41" y="161.66" width="171.46" height="24.58"/><rect class="e" x="270.14" y="137.38" width="171.46" height="24.58"/><rect class="f" x="441.68" y="137.49" width="8.78" height="73.15"/><path class="g" d="M504,202.74V186.36H450.16v24.57h46.23C500.49,210.35,504,206.84,504,202.74Z"/><rect class="h" x="450.16" y="161.78" width="53.84" height="24.58"/><path class="i" d="M504,161.78V145.39a7.74,7.74,0,0,0-7.61-7.6H450.16v24.57H504Z"/><path class="f" d="M379.36,202.16a114.16,114.16,0,0,0,0-56.18l17.55-15.22c2.93-2.34,3.51-6.43,1.76-9.94l-18.14-31.6a7.61,7.61,0,0,0-9.37-3.51l-22.23,7.6a115.62,115.62,0,0,0-48.57-28.09L295.68,42.4A8.11,8.11,0,0,0,288.07,36H251.79a8.11,8.11,0,0,0-7.61,6.44L239.5,65.22a115.56,115.56,0,0,0-48.57,28.09l-22.24-7.6a8.29,8.29,0,0,0-9.36,3.51l-18.14,31c-1.76,3.51-1.17,7.61,1.75,10l17.56,15.21a114.16,114.16,0,0,0,0,56.18l-17.56,15.22c-2.92,2.34-3.51,6.43-1.75,9.94l18.14,31a7.6,7.6,0,0,0,9.36,3.51l22.24-7.61a115.46,115.46,0,0,0,48.57,28.09l4.68,22.82a8.09,8.09,0,0,0,7.61,6.44h36.28a8.11,8.11,0,0,0,7.61-6.44l4.68-22.82a115.52,115.52,0,0,0,48.57-28.09l22.23,7.61a8.34,8.34,0,0,0,9.37-3.51l18.14-31c1.75-3.51,1.17-7.6-1.76-9.94ZM269.93,248.39a74.32,74.32,0,1,1,74.32-74.32A74.42,74.42,0,0,1,269.93,248.39Z"/><path class="j" d="M269.93,95.07a79,79,0,1,0,79,79A79,79,0,0,0,269.93,95.07Zm0,142.78a63.79,63.79,0,1,1,63.78-63.78A63.94,63.94,0,0,1,269.93,237.85Z"/><rect class="c" x="98.8" y="186.12" width="171.46" height="24.58"/><rect class="d" x="99.11" y="161.84" width="171.46" height="24.58"/><rect class="e" x="98.83" y="137.55" width="171.46" height="24.58"/><path class="k" d="M99.05,137.79,58.09,160a19.79,19.79,0,0,1,0,28.09l41,22.24Z"/><path class="g" d="M63.94,174.07a20.44,20.44,0,0,0-5.85-14l-19.9,10.54a3.45,3.45,0,0,0,0,6.43l19.9,10.54C61.6,184.6,63.94,179.33,63.94,174.07Z"/></svg>