<svg xmlns="http://www.w3.org/2000/svg" viewBox="0 0 504 311.03"><defs><style>.a{opacity:0.5;}.b{fill:#aea79f;}.c{fill:#f4c76e;}.d{fill:#efb73e;}.e{fill:#d39924;}.f{fill:#e56353;}.g{fill:#64798a;}.h{fill:#3a556a;}.i{fill:#2f4859;}.j{fill:#d15241;}.k{fill:#fcd462;}</style></defs><title>a1-icon</title><g class="a"><path class="b" d="M460.39,101.82H414.46v-.29h-8.78V125.7h-.08V101.41H353.28l7.63-6.61c2.93-2.34,3.51-6.44,1.76-10l-18.14-31.6a7.62,7.62,0,0,0-9.37-3.51l-22.23,7.61a115.52,115.52,0,0,0-48.57-28.09L259.68,6.44A8.11,8.11,0,0,0,252.07,0H215.79a8.1,8.1,0,0,0-7.61,6.44L203.5,29.26a115.46,115.46,0,0,0-48.57,28.09l-22.24-7.61a8.32,8.32,0,0,0-9.36,3.51l-18.14,31c-1.76,3.51-1.17,7.6,1.75,9.94l8.51,7.38H62.83v.35L22.09,124.06a19.79,19.79,0,0,1,0,28.09L62.8,174.24v.5H114l-7,6.08c-2.92,2.34-3.51,6.44-1.75,10l18.14,31a7.59,7.59,0,0,0,9.36,3.51l22.24-7.6a115.56,115.56,0,0,0,48.57,28.09l4.68,22.82a8.09,8.09,0,0,0,7.61,6.44h36.28a8.11,8.11,0,0,0,7.61-6.44l4.68-22.82a115.62,115.62,0,0,0,48.57-28.09l22.23,7.6a8.31,8.31,0,0,0,9.37-3.51l18.14-31c1.75-3.51,1.17-7.61-1.76-10l-7.44-6.2h52.09V150.27h.12v24.41h8.48V175h46.23c4.1-.59,7.61-4.1,7.61-8.19V150.39h0v-24h0v-17A7.75,7.75,0,0,0,460.39,101.82ZM63.11,150.16h-.06v-24h.06ZM233.93,74.32A63.78,63.78,0,0,1,286,101.41H234.14v.18H181.71A63.8,63.8,0,0,1,233.93,74.32Zm0,127.57a63.81,63.81,0,0,1-52.14-27.15h52.46v-.12h51.89A63.76,63.76,0,0,1,233.93,201.89ZM22.09,151.56,2.19,141a3.46,3.46,0,0,1,0-6.44l19.9-10.53a20.44,20.44,0,0,1,5.85,14C27.94,143.37,25.6,148.64,22.09,151.56Z"/></g><rect class="c" x="270.1" y="186.04" width="171.46" height="24.58"/><rect class="d" x="270.41" y="161.69" width="171.46" height="24.58"/><rect class="e" x="270.14" y="137.41" width="171.46" height="24.58"/><rect class="f" x="441.68" y="137.53" width="8.78" height="73.15"/><path class="g" d="M504,202.77V186.39H450.16V211h46.23C500.49,210.38,504,206.87,504,202.77Z"/><rect class="h" x="450.16" y="161.81" width="53.84" height="24.58"/><path class="i" d="M504,161.81V145.43a7.75,7.75,0,0,0-7.61-7.61H450.16V162.4H504Z"/><path class="f" d="M379.36,202.19a114.16,114.16,0,0,0,0-56.18l17.55-15.21c2.93-2.34,3.51-6.44,1.76-10l-18.14-31.6a7.62,7.62,0,0,0-9.37-3.51l-22.23,7.61a115.41,115.41,0,0,0-48.57-28.09l-4.68-22.83A8.1,8.1,0,0,0,288.07,36H251.79a8.1,8.1,0,0,0-7.61,6.43L239.5,65.26a115.35,115.35,0,0,0-48.57,28.09l-22.24-7.61a8.31,8.31,0,0,0-9.36,3.51l-18.14,31c-1.76,3.51-1.17,7.61,1.75,10l17.56,15.22a114.12,114.12,0,0,0,0,56.17l-17.56,15.22c-2.92,2.34-3.51,6.44-1.75,10l18.14,31a7.6,7.6,0,0,0,9.36,3.51l22.24-7.61a115.35,115.35,0,0,0,48.57,28.09l4.68,22.83a8.08,8.08,0,0,0,7.61,6.43h36.28a8.1,8.1,0,0,0,7.61-6.43l4.68-22.83a115.41,115.41,0,0,0,48.57-28.09l22.23,7.61a8.33,8.33,0,0,0,9.37-3.51l18.14-31c1.75-3.51,1.17-7.61-1.76-10ZM269.93,248.42a74.32,74.32,0,1,1,74.32-74.32A74.42,74.42,0,0,1,269.93,248.42Z"/><path class="j" d="M269.93,95.1a79,79,0,1,0,79,79A79,79,0,0,0,269.93,95.1Zm0,142.79a63.79,63.79,0,1,1,63.78-63.79A63.94,63.94,0,0,1,269.93,237.89Z"/><rect class="c" x="98.8" y="186.16" width="208.83" height="24.58"/><rect class="d" x="99.17" y="161.87" width="208.83" height="24.58"/><rect class="e" x="98.84" y="137.58" width="208.83" height="24.58"/><path class="k" d="M99.05,137.82l-41,22.24a19.77,19.77,0,0,1,0,28.08l41,22.24Z"/><path class="g" d="M63.94,174.1a20.42,20.42,0,0,0-5.85-14l-19.9,10.53a3.46,3.46,0,0,0,0,6.44l19.9,10.53C61.6,184.63,63.94,179.37,63.94,174.1Z"/></svg>