<?xml version="1.0" encoding="iso-8859-1"?>
<!-- Generator: Adobe Illustrator 19.0.0, SVG Export Plug-In . SVG Version: 6.00 Build 0)  -->
<svg version="1.1" id="Layer_1" xmlns="http://www.w3.org/2000/svg" xmlns:xlink="http://www.w3.org/1999/xlink" x="0px" y="0px"
	 viewBox="0 0 481.732 481.732" style="enable-background:new 0 0 481.732 481.732;" xml:space="preserve">
<rect x="240.971" y="253.756" style="fill:#44C4A1;" width="176.489" height="25.299"/>
<rect x="241.291" y="228.698" style="fill:#3EA69B;" width="176.489" height="25.299"/>
<rect x="241.007" y="203.701" style="fill:#31978C;" width="176.489" height="25.299"/>
<rect x="417.581" y="203.821" style="fill:#E56353;" width="9.035" height="75.294"/>
<path style="fill:#64798A;" d="M481.732,270.984v-16.866h-55.416v25.299h47.586C478.118,278.814,481.732,275.2,481.732,270.984z"/>
<rect x="426.315" y="228.819" style="fill:#3A556A;" width="55.416" height="25.299"/>
<path style="fill:#2F4859;" d="M481.732,228.819v-16.866c0-4.216-3.614-7.831-7.831-7.831h-47.586v25.299h55.417V228.819z"/>
<path style="fill:#E56353;" d="M353.431,270.381c2.409-9.035,3.614-18.673,3.614-28.913s-1.205-19.878-3.614-28.913l18.071-15.661
	c3.012-2.409,3.614-6.626,1.807-10.24l-18.673-32.527c-1.807-3.614-6.024-4.819-9.638-3.614l-22.889,7.831
	c-13.854-13.252-30.72-23.492-49.995-28.913l-4.819-23.492c-0.602-3.614-4.216-6.626-7.831-6.626h-37.346
	c-3.614,0-7.228,3.012-7.831,6.626l-4.819,23.492c-19.275,5.421-36.141,15.661-49.995,28.913l-22.889-7.831
	c-3.614-1.205-7.831,0.602-9.638,3.614l-18.673,31.925c-1.807,3.614-1.205,7.831,1.807,10.24l18.071,15.661
	c-2.409,9.035-3.614,18.673-3.614,28.913s1.205,19.878,3.614,28.913L110.08,285.44c-3.012,2.409-3.614,6.626-1.807,10.24
	l18.673,31.925c1.807,3.614,6.024,4.819,9.638,3.614l22.889-7.831c13.854,13.252,30.72,23.492,49.995,28.913l4.819,23.492
	c0.602,3.614,4.216,6.626,7.831,6.626h37.346c3.614,0,7.228-3.012,7.831-6.626l4.819-23.492
	c19.275-5.421,36.141-15.661,49.995-28.913l22.889,7.831c3.614,1.205,7.831-0.602,9.638-3.614l18.673-31.925
	c1.807-3.614,1.205-7.831-1.807-10.24L353.431,270.381z M240.791,317.967c-42.165,0-76.499-34.334-76.499-76.499
	s34.334-76.499,76.499-76.499s76.499,34.334,76.499,76.499S282.955,317.967,240.791,317.967z"/>
<path style="fill:#D15241;" d="M240.791,160.151c-44.574,0-81.318,36.141-81.318,81.318s36.744,81.318,81.318,81.318
	s81.318-36.141,81.318-81.318S285.365,160.151,240.791,160.151z M240.791,307.125c-36.141,0-65.656-29.515-65.656-65.656
	s29.515-65.656,65.656-65.656s65.656,29.515,65.656,65.656S276.932,307.125,240.791,307.125z"/>
<rect x="64.638" y="253.877" style="fill:#44C4A1;" width="176.489" height="25.299"/>
<rect x="64.958" y="228.879" style="fill:#3EA69B;" width="176.489" height="25.299"/>
<rect x="64.675" y="203.881" style="fill:#31978C;" width="176.489" height="25.299"/>
<path style="fill:#FCD462;" d="M64.904,204.122l-42.165,22.889c3.614,3.614,6.024,9.035,6.024,14.456s-2.409,10.842-6.024,14.456
	l42.165,22.889V204.122z"/>
<path style="fill:#64798A;" d="M28.762,241.468c0-5.421-2.409-10.842-6.024-14.456l-20.48,10.842c-3.012,1.205-3.012,5.421,0,6.626
	l20.48,10.842C26.353,252.311,28.762,246.889,28.762,241.468z"/>
<g>
</g>
<g>
</g>
<g>
</g>
<g>
</g>
<g>
</g>
<g>
</g>
<g>
</g>
<g>
</g>
<g>
</g>
<g>
</g>
<g>
</g>
<g>
</g>
<g>
</g>
<g>
</g>
<g>
</g>
</svg>
