<?xml version="1.0" encoding="iso-8859-1"?>
<!-- Generator: Adobe Illustrator 19.0.0, SVG Export Plug-In . SVG Version: 6.00 Build 0)  -->
<svg version="1.1" id="Capa_1" xmlns="http://www.w3.org/2000/svg" xmlns:xlink="http://www.w3.org/1999/xlink" x="0px" y="0px"
	 viewBox="0 0 429.986 429.986" style="enable-background:new 0 0 429.986 429.986;" xml:space="preserve">
<path id="XMLID_2_" d="M205.994,47.708c0-4.971,4.029-9,9-9c26.212,0,47.538,21.326,47.538,47.539c0,4.971-4.029,9-9,9s-9-4.029-9-9
	c0-16.288-13.25-29.539-29.538-29.539C210.023,56.708,205.994,52.679,205.994,47.708z M287.48,329.386
	c-21.087-39.577-35.152-84.251-41.804-132.781c-0.675-4.924-5.208-8.374-10.139-7.694c-4.925,0.675-8.37,5.214-7.694,10.139
	c6.942,50.643,21.662,97.342,43.751,138.8c1.619,3.039,4.732,4.77,7.951,4.77c1.428,0,2.876-0.341,4.224-1.059
	C288.156,339.224,289.817,333.773,287.48,329.386z M378.487,379.546v31.383c0,10.508-8.548,19.057-19.056,19.057H70.557
	c-10.508,0-19.058-8.549-19.058-19.057v-31.383c0-10.508,8.549-19.057,19.058-19.057h8.909
	c42.171-57.533,68.597-133.077,74.635-213.221c-15.654-15.622-25.353-37.21-25.353-61.021C128.748,38.69,167.438,0,214.994,0
	s86.247,38.69,86.247,86.247c0,23.81-9.699,45.398-25.353,61.021c6.04,80.144,32.465,155.688,74.635,213.221h8.909
	C369.939,360.489,378.487,369.038,378.487,379.546z M214.994,154.494c37.631,0,68.247-30.615,68.247-68.247
	c0-37.632-30.615-68.247-68.247-68.247s-68.247,30.615-68.247,68.247C146.748,123.878,177.363,154.494,214.994,154.494z
	 M101.481,360.489h227.026c-37.774-55.774-62.11-125.801-69.535-200.072c-12.885,7.668-27.927,12.077-43.979,12.077
	s-31.094-4.408-43.979-12.077C163.592,234.688,139.256,304.715,101.481,360.489z M360.487,379.546c0-0.563-0.493-1.057-1.056-1.057
	H70.557c-0.563,0-1.058,0.494-1.058,1.057v31.383c0,0.563,0.494,1.057,1.058,1.057h288.875c0.563,0,1.056-0.494,1.056-1.057V379.546
	z"/>
<g>
</g>
<g>
</g>
<g>
</g>
<g>
</g>
<g>
</g>
<g>
</g>
<g>
</g>
<g>
</g>
<g>
</g>
<g>
</g>
<g>
</g>
<g>
</g>
<g>
</g>
<g>
</g>
<g>
</g>
</svg>
