<?xml version="1.0" encoding="iso-8859-1"?>
<!-- Generator: Adobe Illustrator 19.0.0, SVG Export Plug-In . SVG Version: 6.00 Build 0)  -->
<svg version="1.1" id="Capa_1" xmlns="http://www.w3.org/2000/svg" xmlns:xlink="http://www.w3.org/1999/xlink" x="0px" y="0px"
	 viewBox="0 0 432.918 432.918" style="enable-background:new 0 0 432.918 432.918;" xml:space="preserve">
<path id="XMLID_1098_" d="M207.46,159.556v-21.377c0-4.971,4.029-9,9-9s9,4.029,9,9v21.377c0,4.971-4.029,9-9,9
	S207.46,164.526,207.46,159.556z M184.303,176.604c1.758,1.757,4.061,2.636,6.364,2.636s4.606-0.879,6.364-2.636
	c3.515-3.515,3.515-9.213,0-12.728l-15.116-15.116c-3.516-3.515-9.213-3.514-12.729,0c-3.515,3.515-3.515,9.213,0,12.728
	L184.303,176.604z M242.254,179.238c2.304,0,4.606-0.879,6.364-2.636l15.115-15.116c3.515-3.515,3.515-9.213-0.001-12.728
	c-3.514-3.515-9.212-3.514-12.728,0l-15.115,15.116c-3.515,3.515-3.515,9.213,0.001,12.728
	C237.647,178.36,239.95,179.238,242.254,179.238z M318.912,92.928c-2.597-9.689-1.702-19.751,2.521-28.33
	c4.421-8.983,11.913-15.285,21.096-17.746c9.183-2.46,18.823-0.748,27.143,4.821c7.945,5.318,13.751,13.585,16.348,23.276
	c2.598,9.691,1.703,19.753-2.519,28.333c-4.421,8.983-11.913,15.286-21.096,17.746c-2.696,0.723-5.452,1.078-8.206,1.078
	c-7.17,0-14.342-2.406-20.508-7.011C326.563,109.773,321.313,101.899,318.912,92.928z M336.3,88.271
	c1.361,5.085,4.259,9.489,8.162,12.403c4.146,3.098,8.864,4.152,13.283,2.968h0.001c4.097-1.098,7.508-4.048,9.604-8.307
	c2.295-4.664,2.751-10.249,1.282-15.726c-1.468-5.478-4.654-10.087-8.974-12.978c-2.82-1.888-5.888-2.86-8.904-2.86
	c-1.203,0-2.398,0.155-3.567,0.468c-4.097,1.098-7.508,4.048-9.604,8.307C335.287,77.21,334.832,82.794,336.3,88.271z
	 M333.268,284.163h59.823c2.591,0,5.057-1.117,6.766-3.065c1.709-1.948,2.495-4.538,2.158-7.107l-17.816-135.686
	c-0.435-3.305-2.659-6.099-5.783-7.262c-3.122-1.162-6.633-0.505-9.124,1.711l-54.55,48.544H272.19c-4.971,0-9,4.029-9,9
	s4.029,9,9,9h45.976c2.206,0,4.335-0.81,5.983-2.277l44.414-39.524l14.269,108.666h-59.823c-2.591,0-5.057,1.117-6.766,3.064
	c-1.709,1.948-2.495,4.538-2.158,7.107l12.148,92.518h-11.119c-4.971,0-9,4.029-9,9s4.029,9,9,9h21.378
	c2.591,0,5.057-1.117,6.766-3.065c1.709-1.948,2.495-4.538,2.158-7.107L333.268,284.163z M49.419,103.283
	c-4.222-8.579-5.116-18.641-2.52-28.333c2.598-9.691,8.403-17.958,16.348-23.276c8.32-5.57,17.959-7.282,27.144-4.821
	c9.182,2.46,16.674,8.763,21.095,17.746c4.223,8.579,5.117,18.641,2.52,28.333c-2.4,8.968-7.649,16.841-14.777,22.165
	c-6.165,4.604-13.338,7.011-20.507,7.011c-2.756,0-5.511-0.355-8.207-1.078C61.331,118.568,53.839,112.266,49.419,103.283z
	 M65.569,95.336c2.096,4.259,5.506,7.209,9.603,8.307h0.001c4.422,1.185,9.136,0.131,13.283-2.968
	c3.903-2.915,6.801-7.318,8.161-12.4c1.469-5.479,1.014-11.064-1.282-15.728c-2.096-4.259-5.507-7.209-9.604-8.307
	c-1.169-0.313-2.364-0.468-3.567-0.468c-3.017,0-6.084,0.972-8.903,2.86c-4.32,2.891-7.507,7.5-8.975,12.977
	C62.818,85.086,63.274,90.671,65.569,95.336z M423.918,318.44c4.971,0,9-4.029,9-9s-4.029-9-9-9h-27.644
	c-0.143-0.003-0.285-0.003-0.428,0h-27.642c-4.971,0-9,4.029-9,9s4.029,9,9,9h18.855v50.719h-15.925c-4.971,0-9,4.029-9,9
	s4.029,9,9,9h24.715c0.07,0.001,0.14,0.002,0.21,0.002s0.14-0.001,0.21-0.002h24.717c4.971,0,9-4.029,9-9s-4.029-9-9-9h-15.927
	V318.44H423.918z M251.502,369.16H225.46V235.124H328.5c4.971,0,9-4.029,9-9s-4.029-9-9-9h-71.941
	c0.374-0.99,0.579-2.063,0.579-3.183c0-4.971-4.029-9-9-9h-63.355c-4.971,0-9,4.029-9,9c0,1.121,0.205,2.193,0.579,3.183h-71.942
	c-4.971,0-9,4.029-9,9s4.029,9,9,9H207.46V369.16h-26.04c-4.971,0-9,4.029-9,9s4.029,9,9,9h34.83c0.07,0.001,0.14,0.002,0.21,0.002
	s0.14-0.001,0.21-0.002h34.832c4.971,0,9-4.029,9-9S256.473,369.16,251.502,369.16z M64.714,300.44H37.071
	c-0.143-0.003-0.285-0.003-0.428,0H9c-4.971,0-9,4.029-9,9s4.029,9,9,9h18.857v50.719H11.931c-4.971,0-9,4.029-9,9s4.029,9,9,9
	h24.717c0.07,0.001,0.14,0.002,0.21,0.002s0.14-0.001,0.21-0.002h24.715c4.971,0,9-4.029,9-9s-4.029-9-9-9H45.857V318.44h18.856
	c4.971,0,9-4.029,9-9S69.685,300.44,64.714,300.44z M117.804,368.853h-11.119l12.148-92.518c0.337-2.569-0.449-5.159-2.158-7.107
	c-1.709-1.948-4.175-3.064-6.766-3.064H50.086l14.269-108.666l44.414,39.524c1.648,1.467,3.777,2.277,5.983,2.277h45.976
	c4.971,0,9-4.029,9-9s-4.029-9-9-9h-42.551l-54.55-48.544c-2.49-2.217-6.001-2.874-9.124-1.711
	c-3.124,1.163-5.349,3.958-5.783,7.262L30.903,273.991c-0.337,2.569,0.449,5.159,2.158,7.107c1.709,1.948,4.175,3.065,6.766,3.065
	H99.65l-12.148,92.518c-0.337,2.569,0.449,5.159,2.158,7.107c1.709,1.948,4.175,3.065,6.766,3.065h21.378c4.971,0,9-4.029,9-9
	S122.774,368.853,117.804,368.853z"/>
<g>
</g>
<g>
</g>
<g>
</g>
<g>
</g>
<g>
</g>
<g>
</g>
<g>
</g>
<g>
</g>
<g>
</g>
<g>
</g>
<g>
</g>
<g>
</g>
<g>
</g>
<g>
</g>
<g>
</g>
</svg>
