<?xml version="1.0" encoding="iso-8859-1"?>
<!-- Generator: Adobe Illustrator 19.0.0, SVG Export Plug-In . SVG Version: 6.00 Build 0)  -->
<svg version="1.1" id="Capa_1" xmlns="http://www.w3.org/2000/svg" xmlns:xlink="http://www.w3.org/1999/xlink" x="0px" y="0px"
	 viewBox="0 0 425.197 425.197" style="enable-background:new 0 0 425.197 425.197;" xml:space="preserve">
<path id="XMLID_654_" d="M133.596,220.966c-1.774,1.936-4.202,2.918-6.636,2.918c-2.173,0-4.352-0.782-6.08-2.366l-1.602-1.468
	c-3.664-3.359-3.911-9.052-0.552-12.716c3.36-3.664,9.053-3.911,12.716-0.552l1.602,1.468
	C136.708,211.609,136.956,217.302,133.596,220.966z M230.314,135.173c2.304,0,4.606-0.879,6.364-2.636L346.397,22.818
	c3.515-3.515,3.515-9.213,0-12.728c-3.516-3.516-9.213-3.516-12.729,0L223.95,119.809c-3.515,3.515-3.515,9.213,0,12.728
	C225.708,134.294,228.011,135.173,230.314,135.173z M81.641,224.658c-3.662-3.361-9.355-3.118-12.716,0.543
	c-3.361,3.662-3.118,9.355,0.543,12.716l1.602,1.47c1.729,1.587,3.909,2.37,6.084,2.37c2.433,0,4.858-0.98,6.632-2.914
	c3.361-3.662,3.118-9.355-0.543-12.716L81.641,224.658z M170.296,206.866c1.729,1.588,3.91,2.372,6.086,2.372
	c2.432,0,4.856-0.98,6.631-2.912c3.362-3.661,3.121-9.354-0.54-12.717l-1.6-1.47c-3.661-3.363-9.354-3.12-12.717,0.54
	c-3.362,3.661-3.121,9.354,0.54,12.717L170.296,206.866z M420.634,2.636c-3.516-3.516-9.213-3.515-12.729,0l-134.739,134.74
	c-3.515,3.515-3.515,9.213,0,12.728c1.758,1.757,4.061,2.636,6.364,2.636s4.606-0.879,6.364-2.636l134.739-134.74
	C424.148,11.849,424.148,6.151,420.634,2.636z M405.23,75.451L295.513,185.168c-3.515,3.515-3.515,9.213,0,12.728
	c1.758,1.757,4.061,2.636,6.364,2.636s4.606-0.879,6.364-2.636L417.959,88.179c3.515-3.515,3.515-9.213,0-12.728
	C414.443,71.937,408.746,71.937,405.23,75.451z M308.557,298.016c1.634,3.328,1.06,7.316-1.446,10.048L202.292,422.359
	c-0.007,0.007-0.014,0.015-0.021,0.022c-0.003,0.004-0.007,0.008-0.011,0.012c-0.003,0.003-0.006,0.007-0.01,0.01
	c-1.826,2.235-6.045,3.672-10.041,2.188L67.061,376.074c-2.107-0.817-3.831-2.397-4.826-4.426L3.026,251.018
	c-0.072-0.144-3.257-5.817,1.564-10.255l104.677-114.141c2.505-2.732,6.429-3.648,9.886-2.309l125.222,48.547
	c2.086,0.774,3.891,2.317,4.948,4.473L308.557,298.016z M26.619,243.373l107.328,41.608l91.758-100.054l-107.328-41.609
	L26.619,243.373z M177.426,399.554l-47.531-96.839L29.313,263.722l47.532,96.839L177.426,399.554z M289.689,300.428l-50.719-103.335
	l-91.758,100.053l50.72,103.334L289.689,300.428z M232.444,259.91c-3.664-3.359-9.356-3.114-12.716,0.548
	c-3.36,3.663-3.115,9.356,0.548,12.716l1.601,1.468c1.729,1.585,3.908,2.368,6.082,2.368c2.434,0,4.859-0.981,6.634-2.916
	c3.36-3.663,3.115-9.356-0.548-12.716L232.444,259.91z M108.651,324.271c-3.664-3.36-9.356-3.114-12.716,0.55
	s-3.114,9.356,0.55,12.716l1.602,1.468c1.728,1.585,3.907,2.367,6.081,2.367c2.434,0,4.86-0.981,6.636-2.917
	c3.359-3.664,3.113-9.356-0.55-12.716L108.651,324.271z M215.022,322.93c-3.662-3.359-9.355-3.114-12.715,0.55
	c-3.36,3.663-3.113,9.356,0.55,12.716l1.602,1.469c1.728,1.584,3.907,2.367,6.081,2.367c2.434,0,4.86-0.981,6.636-2.917
	c3.359-3.664,3.113-9.356-0.551-12.716L215.022,322.93z"/>
<g>
</g>
<g>
</g>
<g>
</g>
<g>
</g>
<g>
</g>
<g>
</g>
<g>
</g>
<g>
</g>
<g>
</g>
<g>
</g>
<g>
</g>
<g>
</g>
<g>
</g>
<g>
</g>
<g>
</g>
</svg>
