<?xml version="1.0" encoding="iso-8859-1"?>
<!-- Generator: Adobe Illustrator 19.0.0, SVG Export Plug-In . SVG Version: 6.00 Build 0)  -->
<svg version="1.1" id="Capa_1" xmlns="http://www.w3.org/2000/svg" xmlns:xlink="http://www.w3.org/1999/xlink" x="0px" y="0px"
	 viewBox="0 0 442.152 442.152" style="enable-background:new 0 0 442.152 442.152;" xml:space="preserve">
<path id="XMLID_40_" d="M336.919,272.493h-57.134c-10.509,0-19.058,8.55-19.058,19.059v17.799c0,3.689,1.054,7.137,2.876,10.058
	c-1.822,2.921-2.876,6.369-2.876,10.058v17.799c0,0.366,0.011,0.728,0.03,1.089c-0.36-0.021-0.724-0.031-1.089-0.031h-57.132
	c-10.509,0-19.058,8.549-19.058,19.057v17.8c0,3.689,1.054,7.136,2.876,10.057c-1.822,2.921-2.876,6.368-2.876,10.058v17.8
	c0,10.508,8.549,19.058,19.058,19.058h57.132c3.689,0,7.137-1.054,10.059-2.876c2.921,1.822,6.368,2.876,10.058,2.876h57.134
	c10.508,0,19.056-8.549,19.056-19.058v-17.8c0-3.689-1.054-7.136-2.875-10.058c1.821-2.921,2.875-6.368,2.875-10.057v-17.8
	c0-3.689-1.054-7.136-2.875-10.058c1.821-2.921,2.875-6.368,2.875-10.058v-17.799c0-3.689-1.054-7.137-2.875-10.058
	c1.821-2.921,2.875-6.369,2.875-10.058v-17.799C355.975,281.042,347.427,272.493,336.919,272.493z M260.728,423.095
	c0,0.563-0.495,1.058-1.059,1.058h-57.132c-0.563,0-1.058-0.494-1.058-1.058v-17.8c0-0.563,0.494-1.058,1.058-1.058h57.132
	c0.563,0,1.059,0.494,1.059,1.058V423.095z M260.728,385.18c0,0.563-0.495,1.057-1.059,1.057h-57.132
	c-0.563,0-1.058-0.494-1.058-1.057v-17.8c0-0.563,0.494-1.057,1.058-1.057h57.132c0.563,0,1.059,0.494,1.059,1.057V385.18z
	 M337.975,423.095c0,0.563-0.493,1.058-1.056,1.058h-57.134c-0.563,0-1.058-0.494-1.058-1.058v-17.8
	c0-0.563,0.494-1.058,1.058-1.058h57.134c0.563,0,1.056,0.494,1.056,1.058V423.095z M337.975,385.18
	c0,0.563-0.493,1.057-1.056,1.057h-57.134c-0.563,0-1.058-0.494-1.058-1.057v-17.8c0-0.563,0.494-1.057,1.058-1.057h57.134
	c0.563,0,1.056,0.494,1.056,1.057V385.18z M337.975,347.265c0,0.563-0.493,1.058-1.056,1.058h-57.134
	c-0.563,0-1.058-0.495-1.058-1.058v-17.799c0-0.563,0.494-1.058,1.058-1.058h57.134c0.563,0,1.056,0.495,1.056,1.058V347.265z
	 M337.975,309.35c0,0.563-0.493,1.058-1.056,1.058h-57.134c-0.563,0-1.058-0.494-1.058-1.058v-17.799
	c0-0.564,0.494-1.059,1.058-1.059h57.134c0.563,0,1.056,0.495,1.056,1.059V309.35z M431.676,399.858
	c-10.037-7.81-17.265-18.79-20.434-31.008V207.306c0-40.41-14.474-79.72-40.754-110.689c-24.062-28.354-56.609-48.181-92.388-56.449
	l4.303-29.885c0.372-2.584-0.396-5.203-2.105-7.176C278.588,1.134,276.105,0,273.495,0H170.499c-2.61,0-5.093,1.134-6.803,3.107
	c-1.709,1.973-2.478,4.592-2.105,7.176l4.303,29.885c-35.778,8.269-68.326,28.095-92.387,56.449
	c-26.28,30.97-40.754,70.279-40.754,110.689V356.31c-0.033,0.251-0.056,0.505-0.067,0.763c-0.78,16.814-8.875,32.409-22.209,42.786
	c-2.191,1.705-3.473,4.326-3.473,7.103v14.025c0,4.971,4.029,9,9,9h144.912c4.971,0,9-4.029,9-9s-4.029-9-9-9H25.004v-0.793
	c15.104-13.256,24.325-31.93,25.593-52.027c0.103-0.543,0.156-1.104,0.156-1.676V207.306c0-73.907,52.399-137.01,124.875-150.799
	c-15.737,10.25-29.897,24.043-41.605,40.773c-21.226,30.329-33.074,68.622-33.463,108.025l-7.875,17.041
	c-2.085,4.512-0.117,9.86,4.395,11.945c4.512,2.085,9.859,0.118,11.945-4.395l0.525-1.138l0.526,1.139
	c2.086,4.512,7.438,6.479,11.945,4.394c4.513-2.085,6.479-7.434,4.395-11.945l-7.856-16.997
	c0.748-73.505,43.645-135.841,102.689-149.062h4.23c38.102,8.545,71.065,38.72,88.91,81.231l-7.059,15.269
	c-2.085,4.512-0.118,9.86,4.394,11.946c4.513,2.085,9.86,0.118,11.945-4.393l0.527-1.14l0.526,1.139
	c2.085,4.512,7.435,6.477,11.945,4.395c4.513-2.085,6.479-7.434,4.395-11.945l-8.589-18.584
	c-13.02-32.92-34.236-59.638-60.094-76.877c70.391,15.313,120.861,77.442,120.861,149.98v162.649c0,0.708,0.083,1.413,0.249,2.101
	c3.627,15.114,11.962,28.854,23.657,39.135v0.796h-41.234c-4.971,0-9,4.029-9,9s4.029,9,9,9h50.234c4.971,0,9-4.029,9-9v-14.025
	C435.148,404.185,433.867,401.563,431.676,399.858z M260.186,38.287h-76.377L180.888,18h82.219L260.186,38.287z"/>
<g>
</g>
<g>
</g>
<g>
</g>
<g>
</g>
<g>
</g>
<g>
</g>
<g>
</g>
<g>
</g>
<g>
</g>
<g>
</g>
<g>
</g>
<g>
</g>
<g>
</g>
<g>
</g>
<g>
</g>
</svg>
