<?xml version="1.0" encoding="iso-8859-1"?>
<!-- Generator: Adobe Illustrator 19.0.0, SVG Export Plug-In . SVG Version: 6.00 Build 0)  -->
<svg version="1.1" id="Capa_1" xmlns="http://www.w3.org/2000/svg" xmlns:xlink="http://www.w3.org/1999/xlink" x="0px" y="0px"
	 viewBox="0 0 429.988 429.988" style="enable-background:new 0 0 429.988 429.988;" xml:space="preserve">
<path id="XMLID_1157_" d="M397.854,119.912c-4.527,2.052-6.533,7.386-4.481,11.913c10.82,23.871,17.109,49.328,18.376,74.17h-29.331
	c-1.052-20.052-5.628-39.484-13.643-57.887c-1.984-4.557-7.286-6.645-11.845-4.657c-4.557,1.984-6.643,7.287-4.657,11.845
	c8.215,18.862,12.38,38.947,12.38,59.699c0,82.522-67.138,149.66-149.66,149.66S65.334,297.517,65.334,214.995
	s67.137-149.66,149.659-149.66c18.194,0,35.973,3.229,52.843,9.595c4.649,1.758,9.844-0.592,11.598-5.242
	c1.756-4.65-0.592-9.843-5.242-11.598c-16.113-6.082-32.961-9.608-50.198-10.519V18.2c25.454,1.13,50.019,7.067,73.146,17.692
	c4.516,2.073,9.859,0.095,11.936-4.422c2.074-4.517,0.095-9.86-4.422-11.936C276.438,6.573,246.272,0,214.993,0
	C157.567,0,103.577,22.364,62.971,62.971C22.363,103.579,0,157.568,0,214.995s22.363,111.416,62.971,152.023
	c40.606,40.606,94.596,62.97,152.022,62.97c57.533,0,111.605-22.422,152.255-63.135c40.548-40.612,62.829-94.548,62.739-151.873
	c-0.049-30.186-7.04-61.51-20.22-90.587C407.715,119.865,402.38,117.86,397.854,119.912z M205.993,18.204v29.369
	c-39.458,2.098-75.345,17.905-102.964,42.729L82.271,69.544C115.242,39.43,158.448,20.352,205.993,18.204z M69.543,82.272
	l20.758,20.758c-24.824,27.62-40.631,63.506-42.729,102.965H18.203C20.352,158.45,39.43,115.243,69.543,82.272z M18.203,223.995
	h29.369c2.098,39.459,17.904,75.345,42.729,102.965l-20.757,20.758C39.431,314.746,20.352,271.54,18.203,223.995z M205.993,411.785
	c-47.545-2.148-90.751-21.227-123.722-51.34l20.758-20.758c27.619,24.824,63.506,40.632,102.964,42.729V411.785z M223.993,411.788
	v-29.371c39.459-2.098,75.345-17.905,102.965-42.729l20.854,20.855C313.632,391.768,270.253,409.723,223.993,411.788z
	 M360.547,347.821l-20.86-20.861c24.824-27.62,40.631-63.506,42.729-102.965h29.386
	C409.803,270.242,391.845,313.634,360.547,347.821z M307.626,109.634l-72.608,72.608c-3.369-2.068-7.078-3.63-11.024-4.581v-58.653
	c10.883,0.999,21.397,3.818,31.363,8.419c4.513,2.085,9.859,0.114,11.943-4.398s0.114-9.86-4.398-11.943
	c-15.07-6.958-31.189-10.486-47.908-10.486c-31.165,0-59.46,12.528-80.113,32.812c-0.276,0.22-0.542,0.457-0.797,0.714
	c-0.241,0.242-0.466,0.495-0.673,0.757c-20.284,20.652-32.812,48.948-32.812,80.113s12.527,59.46,32.811,80.113
	c0.214,0.269,0.445,0.528,0.693,0.777c0.249,0.248,0.509,0.479,0.777,0.692c20.652,20.284,48.948,32.813,80.113,32.813
	s59.457-12.524,80.109-32.808c0.271-0.215,0.532-0.447,0.782-0.697c0.25-0.251,0.482-0.512,0.697-0.783
	c20.279-20.651,32.806-48.945,32.806-80.107c0-16.969-3.635-33.313-10.803-48.577c-2.113-4.5-7.473-6.436-11.972-4.321
	c-4.499,2.112-6.434,7.473-4.321,11.972c4.759,10.135,7.668,20.84,8.686,31.927h-58.652c-0.951-3.945-2.514-7.655-4.58-11.023
	l72.608-72.608c21.973,7.952,44.594,4.208,58.971-10.169l48.028-48.027c1.688-1.688,2.636-3.978,2.636-6.364
	s-0.948-4.676-2.636-6.364L378.551,2.636C376.862,0.949,374.573,0,372.187,0s-4.677,0.948-6.364,2.636l-48.027,48.029
	C303.418,65.042,299.675,87.666,307.626,109.634z M205.993,119.016v58.646c-3.872,0.934-7.516,2.455-10.833,4.465l-41.614-41.351
	C168.069,128.731,186.168,120.859,205.993,119.016z M140.813,153.5l41.545,41.282c-2.124,3.419-3.728,7.192-4.696,11.212h-58.646
	C120.86,186.147,128.746,168.033,140.813,153.5z M119.016,223.995h58.647c0.937,3.891,2.478,7.612,4.57,11.032l-41.438,41.438
	C128.739,261.938,120.859,243.83,119.016,223.995z M205.993,310.973c-19.835-1.844-37.944-9.725-52.471-21.78l41.444-41.444
	c3.412,2.084,7.135,3.628,11.026,4.569V310.973z M199.83,228.633c-3.374-3.746-5.232-8.59-5.232-13.64
	c0-11.247,9.15-20.396,20.398-20.396c2.301,0,4.514,0.383,6.578,1.089l-12.945,12.944c-3.515,3.515-3.515,9.214,0,12.729
	c3.515,3.513,9.212,3.515,12.729,0l12.943-12.944c0.706,2.065,1.089,4.278,1.089,6.579c0,11.248-9.148,20.398-20.394,20.398
	C209.224,235.392,203.696,232.929,199.83,228.633z M223.993,310.973v-58.646c3.946-0.951,7.656-2.514,11.025-4.581l41.446,41.446
	C261.938,301.249,243.828,309.129,223.993,310.973z M252.324,223.995h58.646c-1.844,19.835-9.724,37.943-21.778,52.47
	l-41.447-41.446C249.812,231.65,251.374,227.939,252.324,223.995z M330.523,63.394l41.663-41.665l11.673,11.672l-32.817,32.816
	c-3.515,3.515-3.515,9.213,0,12.729c3.515,3.513,9.212,3.515,12.729,0l32.816-32.816l11.674,11.673l-41.665,41.664
	c-9.651,9.65-25.676,11.666-41.516,5.442C318.855,89.068,320.872,73.044,330.523,63.394z"/>
<g>
</g>
<g>
</g>
<g>
</g>
<g>
</g>
<g>
</g>
<g>
</g>
<g>
</g>
<g>
</g>
<g>
</g>
<g>
</g>
<g>
</g>
<g>
</g>
<g>
</g>
<g>
</g>
<g>
</g>
</svg>
