<?xml version="1.0" encoding="iso-8859-1"?>
<!-- Generator: Adobe Illustrator 19.0.0, SVG Export Plug-In . SVG Version: 6.00 Build 0)  -->
<svg version="1.1" id="Capa_1" xmlns="http://www.w3.org/2000/svg" xmlns:xlink="http://www.w3.org/1999/xlink" x="0px" y="0px"
	 viewBox="0 0 451.816 451.816" style="enable-background:new 0 0 451.816 451.816;" xml:space="preserve">
<path id="XMLID_750_" d="M451.102,83.854L357.446,367.73c-1.171,3.552-3.661,6.439-7.012,8.128c-1.991,1.003-4.142,1.51-6.306,1.51
	c-1.477,0-2.959-0.236-4.4-0.712l-23.427-7.728c-4.721-1.557-7.285-6.646-5.728-11.366c1.557-4.721,6.652-7.285,11.366-5.728
	l19.656,6.484L432.766,81.98L254.237,23.079l-25.332,76.787c-1.558,4.721-6.652,7.284-11.366,5.727
	c-4.721-1.557-7.285-6.646-5.728-11.367l26.576-80.557c2.428-7.347,10.375-11.352,17.72-8.928L442.177,66.13
	c3.553,1.17,6.441,3.661,8.13,7.013C451.995,76.495,452.277,80.299,451.102,83.854z M266.66,75.754
	c0.937,0.309,1.887,0.456,2.822,0.456c3.777,0,7.297-2.398,8.545-6.183l2.684-8.134c1.558-4.72-1.007-9.809-5.727-11.367
	c-4.718-1.557-9.811,1.006-11.367,5.727l-2.684,8.134C259.376,69.108,261.94,74.197,266.66,75.754z M317.808,311.37l-2.684,8.134
	c-1.558,4.72,1.007,9.81,5.728,11.367c0.936,0.309,1.886,0.456,2.821,0.456c3.778,0,7.297-2.398,8.545-6.183l2.684-8.134
	c1.558-4.72-1.007-9.81-5.728-11.367C324.46,304.088,319.365,306.648,317.808,311.37z M254.475,153.195
	c2.594-7.861,8.096-14.242,15.492-17.97c7.398-3.728,15.8-4.352,23.662-1.758c9.703,3.201,14.975,8.879,18.027,15.584
	c6.444-3.573,14.058-4.999,23.765-1.796c16.23,5.356,25.081,22.92,19.728,39.152c-8.065,24.442-38.011,39.528-66.97,54.117
	c-1.298,0.654-2.681,0.964-4.042,0.964c-3.291,0-6.462-1.812-8.044-4.952C261.5,207.578,246.411,177.632,254.475,153.195z
	 M288.124,220.381c22.958-11.707,44.8-24.063,49.931-39.612c2.245-6.807-1.467-14.174-8.274-16.42
	c-5.487-1.811-9.042-1.295-16.862,6.573c-2.403,2.418-5.966,3.272-9.203,2.203c-3.237-1.068-5.594-3.873-6.086-7.246
	c-1.604-10.98-4.155-13.509-9.64-15.318c-1.337-0.441-2.712-0.66-4.08-0.66c-2.006,0-3.998,0.47-5.843,1.399
	c-3.104,1.563-5.411,4.239-6.498,7.534C266.438,174.381,276.64,197.31,288.124,220.381z M219.371,215.799v87.776
	c0,4.971,4.029,9,9,9s9-4.029,9-9v-87.776c0-31.532-5.767-58.022-17.139-78.734c-10.568-19.248-26.006-33.107-44.666-40.111
	L115.515,69.87c-3.178-1.433-6.895-0.902-9.544,1.359c-2.649,2.262-3.756,5.851-2.839,9.212l5.005,18.355
	c-30.925,11.524-59.459,35.96-81.08,69.646c-0.931,1.45-1.426,3.138-1.426,4.861v55.688c0,4.971,4.029,9,9,9h34.846
	c0.301,0,0.601-0.015,0.899-0.045c9.531-0.957,25.041-5.985,27.291-28.24c3.023-1.18,6.26-1.792,9.546-1.792
	c14.474,0,26.248,11.774,26.248,26.246c0,16.639-10.229,20.619-31.509,27.364c-26.514,8.404-62.826,19.914-62.826,80.096v14.324
	c-16.903,0.04-30.643,13.802-30.643,30.716c0,2.761,0.374,5.497,1.103,8.135C3.541,400.521,0,408.516,0,417.064
	c-0.001,8.18,3.201,15.887,9.018,21.703c5.814,5.814,13.521,9.017,21.698,9.017h115.101c4.971,0,9-4.029,9-9s-4.029-9-9-9H30.716
	c-3.37,0-6.556-1.33-8.972-3.745c-2.415-2.415-3.745-5.601-3.744-8.973c0-2.644,0.826-5.164,2.296-7.26h115.952c4.971,0,9-4.029,9-9
	s-4.029-9-9-9H27.588c-0.723-1.614-1.104-3.365-1.104-5.143c0-7.013,5.704-12.718,12.716-12.718l106.617,0.001c4.97,0,9-4.03,9-9
	s-4.029-9-9-9l-88.69-0.001v-14.322c0-47.005,24.416-54.744,50.265-62.938c20.657-6.548,44.07-13.969,44.07-44.523
	c0-24.397-19.85-44.246-44.248-44.246c-8.106,0-16.039,2.216-22.942,6.409c-2.688,1.632-4.328,4.548-4.328,7.692
	c0,12.2-4.006,15.182-10.944,15.975H43.631V209.09h3.84c4.971,0,9-4.029,9-9s-4.029-9-9-9h-3.84v-15.112
	c20.792-31.454,49.088-54.241,77.958-62.698c4.707-1.379,7.443-6.273,6.152-11.005l-2.221-8.146l42.238,19.049
	c0.346,0.181,0.703,0.34,1.071,0.475C200.95,125.446,219.371,162.677,219.371,215.799z M130.496,146.061c-4.971,0-9,4.029-9,9
	s4.029,9,9,9h2.012c4.971,0,9-4.029,9-9s-4.029-9-9-9H130.496z M295.101,345.846v82.882c0,10.507-8.55,19.055-19.059,19.055h-82.881
	c-10.508,0-19.057-8.548-19.057-19.055v-82.882c0-10.508,8.549-19.057,19.057-19.057h82.881
	C286.551,326.789,295.101,335.337,295.101,345.846z M277.101,345.846c0-0.563-0.495-1.057-1.059-1.057h-82.881
	c-0.563,0-1.057,0.494-1.057,1.057v82.882c0,0.562,0.494,1.055,1.057,1.055h82.881c0.563,0,1.059-0.493,1.059-1.055V345.846z
	 M251.314,362.027h-1.981c-4.971,0-9,4.029-9,9s4.029,9,9,9h1.981c4.971,0,9-4.029,9-9S256.285,362.027,251.314,362.027z
	 M251.313,394.543h-1.981c-4.971,0-9,4.029-9,9s4.029,9,9,9h1.981c4.971,0,9-4.029,9-9S256.283,394.543,251.313,394.543z
	 M219.874,362.027h-1.981c-4.971,0-9,4.029-9,9s4.029,9,9,9h1.981c4.971,0,9-4.029,9-9S224.845,362.027,219.874,362.027z
	 M219.873,394.543h-1.981c-4.971,0-9,4.029-9,9s4.029,9,9,9h1.981c4.971,0,9-4.029,9-9S224.844,394.543,219.873,394.543z"/>
<g>
</g>
<g>
</g>
<g>
</g>
<g>
</g>
<g>
</g>
<g>
</g>
<g>
</g>
<g>
</g>
<g>
</g>
<g>
</g>
<g>
</g>
<g>
</g>
<g>
</g>
<g>
</g>
<g>
</g>
</svg>
