<?xml version="1.0" encoding="iso-8859-1"?>
<!-- Generator: Adobe Illustrator 19.0.0, SVG Export Plug-In . SVG Version: 6.00 Build 0)  -->
<svg version="1.1" id="Capa_1" xmlns="http://www.w3.org/2000/svg" xmlns:xlink="http://www.w3.org/1999/xlink" x="0px" y="0px"
	 viewBox="0 0 429.986 429.986" style="enable-background:new 0 0 429.986 429.986;" xml:space="preserve">
<path id="XMLID_1021_" d="M426.159,23.346c-2.397-1.684-5.467-2.097-8.226-1.102L283.658,70.659L149.38,22.245
	c-1.973-0.712-4.133-0.712-6.105,0L5.947,71.76C2.379,73.047,0,76.433,0,80.227v319.049c0,2.932,1.428,5.68,3.827,7.365
	c1.535,1.079,4.291,2.103,8.226,1.102l134.274-48.415l134.278,48.415c1.973,0.712,4.133,0.712,6.105,0l137.328-49.516
	c3.568-1.287,5.947-4.673,5.947-8.466V30.711C429.986,27.779,428.559,25.031,426.159,23.346z M411.986,343.438l-128.328,46.271
	L149.38,341.293c-0.986-0.356-2.02-0.534-3.053-0.534s-2.066,0.178-3.053,0.534L18,386.463V86.549l128.327-46.271l134.278,48.415
	c1.973,0.712,4.133,0.712,6.105,0l125.275-45.17V343.438z M284.656,168.937l7.583,7.583l7.584-7.583
	c3.514-3.514,9.212-3.515,12.728,0c3.515,3.515,3.515,9.213-0.001,12.728l-7.583,7.583l7.58,7.58c3.515,3.515,3.515,9.213,0,12.728
	c-1.758,1.757-4.061,2.636-6.364,2.636s-4.606-0.879-6.364-2.636l-7.58-7.58l-7.581,7.581c-3.514,3.514-9.212,3.515-12.728,0
	c-3.515-3.515-3.515-9.213,0-12.728l7.581-7.58l-7.583-7.583c-3.515-3.515-3.515-9.213,0-12.728
	C275.443,165.422,281.141,165.422,284.656,168.937z M204.849,101.943L165.05,86.252c-3.086-1.219-6.599-0.635-9.131,1.516
	l-22.687,19.291L98.795,96.28c-1.719-0.538-3.56-0.549-5.284-0.029l-40.724,12.266c-3.832,1.154-6.441,4.701-6.404,8.703
	l0.124,13.102c0.007,0.723,0.102,1.442,0.28,2.142l6.606,25.865l-6.554,23.429c-0.221,0.79-0.333,1.605-0.333,2.425v70.01
	c0,1.189,0.236,2.368,0.694,3.466l7.782,18.652l-7.503,14.792c-0.64,1.262-0.974,2.657-0.974,4.071v34.687c0,4.971,4.029,9,9,9
	h12.021c1.063,0,2.117-0.188,3.114-0.556l77.254-28.497l98.233,34.448c0.966,0.338,1.973,0.507,2.979,0.507
	c1.275,0,2.549-0.271,3.73-0.81l52.995-24.141l11.345,16.288c2.377,3.414,6.785,4.752,10.661,3.239l49.648-19.403
	c3.416-1.335,5.681-4.611,5.723-8.279l0.393-34.118c0.015-1.238-0.227-2.465-0.708-3.605l-13.78-32.63l13.664-29.672
	c0.547-1.187,0.828-2.478,0.825-3.784l-0.188-88.12c-0.007-3.38-1.907-6.47-4.919-8.003l-18.07-9.192
	c-2.228-1.132-4.821-1.29-7.166-0.433l-66.982,24.443L204.849,101.943z M64.446,123.804l31.609-9.521l36.537,11.436
	c2.949,0.925,6.166,0.269,8.519-1.732l22.356-19.01l27.147,10.703l-12.142,35.801c-0.818,2.415-0.575,5.063,0.67,7.287l7.912,14.132
	l-26.943,25.171l-47.719-21.543c-1.174-0.53-2.437-0.797-3.703-0.797c-0.949,0-1.899,0.15-2.815,0.452L64.507,189.81v-4.392
	l6.87-24.559c0.426-1.52,0.443-3.124,0.053-4.652l-6.934-27.144L64.446,123.804z M248.67,326.072l-97.873-34.322
	c-0.965-0.338-1.972-0.507-2.979-0.507c-1.055,0-2.11,0.186-3.115,0.556L65.92,320.861h-1.413v-23.535l8.408-16.577
	c1.192-2.35,1.294-5.105,0.279-7.537l-8.688-20.821v-43.629l43.673-14.386l44.694,20.178v25.432c0,4.053,2.709,7.605,6.616,8.679
	l53.182,14.606c1.023,0.28,2.086,0.38,3.144,0.289l48.007-4.066l31.553,45.303L248.67,326.072z M289.63,144.482l66.123-24.13
	l9.674,4.921l0.173,80.631l-14.496,31.478c-1.059,2.298-1.101,4.936-0.116,7.266l14.595,34.56l-0.301,26.172l-37.388,14.611
	l-11.473-16.472c-0.072-0.108-0.146-0.215-0.223-0.32l-40.574-58.256c-1.838-2.638-4.943-4.095-8.146-3.824l-51.585,4.37
	l-45.02-12.365v-20.474l33.625-31.414c3.028-2.829,3.733-7.358,1.71-10.973l-9.402-16.794l10.813-31.886l76.322,23.059
	C285.807,145.206,287.803,145.149,289.63,144.482z"/>
<g>
</g>
<g>
</g>
<g>
</g>
<g>
</g>
<g>
</g>
<g>
</g>
<g>
</g>
<g>
</g>
<g>
</g>
<g>
</g>
<g>
</g>
<g>
</g>
<g>
</g>
<g>
</g>
<g>
</g>
</svg>
