<?xml version="1.0" encoding="iso-8859-1"?>
<!-- Generator: Adobe Illustrator 19.0.0, SVG Export Plug-In . SVG Version: 6.00 Build 0)  -->
<svg version="1.1" id="Capa_1" xmlns="http://www.w3.org/2000/svg" xmlns:xlink="http://www.w3.org/1999/xlink" x="0px" y="0px"
	 viewBox="0 0 424.079 424.079" style="enable-background:new 0 0 424.079 424.079;" xml:space="preserve">
<path id="XMLID_1093_" d="M235.154,312.939c4.971,0,9,4.029,9,9v39.31c0,4.971-4.029,9-9,9s-9-4.029-9-9v-39.31
	C226.154,316.969,230.184,312.939,235.154,312.939z M282.284,313.896c0,4.971,4.029,9,9,9s9-4.029,9-9
	c0-35.913-29.218-65.13-65.131-65.13c-35.912,0-65.128,29.217-65.128,65.13c0,4.971,4.029,9,9,9s9-4.029,9-9
	c0-25.988,21.142-47.13,47.128-47.13C261.142,266.765,282.284,287.908,282.284,313.896z M281.322,77.665
	c0-12.104,2.388-23.568,6.646-33.791c0.179-0.563,0.41-1.099,0.687-1.601C299.722,17.195,322.163,0,347.987,0
	c25.833,0,48.282,17.206,59.347,42.295c0.268,0.489,0.491,1.008,0.667,1.555c4.264,10.228,6.657,21.703,6.657,33.815
	c0,42.824-29.908,77.664-66.671,77.664C311.229,155.329,281.322,120.489,281.322,77.665z M310.151,40.181
	c12.161,2.086,24.84,3.14,37.839,3.14c12.998,0,25.678-1.054,37.838-3.14C376.898,26.659,363.252,18,347.987,18
	C332.725,18,319.08,26.659,310.151,40.181z M299.322,77.665c0,32.898,21.831,59.664,48.665,59.664
	c26.837,0,48.671-26.765,48.671-59.664c0-7.245-1.059-14.19-2.996-20.62c-14.621,2.839-29.946,4.275-45.672,4.275
	c-15.725,0-31.052-1.437-45.673-4.274C300.381,63.474,299.322,70.422,299.322,77.665z M175.22,349.331
	c-3.828-3.167-9.503-2.633-12.672,1.197c-3.168,3.83-2.632,9.503,1.197,12.672l20.551,17.002c1.679,1.389,3.711,2.065,5.732,2.065
	c2.589,0,5.16-1.112,6.939-3.263c3.168-3.83,2.632-9.503-1.197-12.672L175.22,349.331z M72.041,335.823v-87.037
	c0-32.899,25.137-59.664,56.034-59.664c8.516,0,16.711,2.013,24.356,5.983c4.416,2.291,9.846,0.569,12.135-3.841
	c2.291-4.411,0.571-9.844-3.84-12.134c-10.234-5.313-21.22-8.008-32.651-8.008c-40.822,0-74.034,34.84-74.034,77.664v87.037
	c0,22.045,9.058,43.163,24.851,57.938c1.735,1.624,3.943,2.428,6.146,2.428c2.404,0,4.802-0.958,6.574-2.852
	c3.396-3.629,3.206-9.325-0.424-12.721C79.021,369.232,72.041,352.905,72.041,335.823z M362.686,406.079h-78.467
	c0.009-0.167,0.014-0.334,0.014-0.503c0-4.971-4.029-9-9-9h-80.156c-4.971,0-9,4.029-9,9c0,0.168,0.005,0.336,0.014,0.503h-78.468
	c-4.971,0-9,4.029-9,9s4.029,9,9,9h255.063c4.971,0,9-4.029,9-9S367.656,406.079,362.686,406.079z M342.236,171.122
	c-11.436,0-22.422,2.695-32.654,8.01c-4.411,2.291-6.13,7.725-3.838,12.135c2.291,4.411,7.725,6.128,12.135,3.838
	c7.644-3.97,15.839-5.983,24.357-5.983c30.897,0,56.034,26.765,56.034,59.664v87.037c0,17.083-6.979,33.409-19.149,44.792
	c-3.63,3.396-3.819,9.091-0.424,12.721c1.771,1.895,4.17,2.852,6.574,2.852c2.202,0,4.411-0.804,6.146-2.427
	c15.794-14.774,24.853-35.892,24.853-57.938v-87.037C416.271,205.962,383.059,171.122,342.236,171.122z M183.788,174.994
	c0-33.724,23.043-61.16,51.366-61.16s51.365,27.437,51.365,61.16s-23.042,61.16-51.365,61.16S183.788,208.717,183.788,174.994z
	 M201.788,174.994c0,23.799,14.968,43.16,33.366,43.16c18.397,0,33.365-19.361,33.365-43.16s-14.968-43.16-33.365-43.16
	C216.756,131.833,201.788,151.195,201.788,174.994z M13.916,115.462c-5.088-7.873-8.999-19.402-3.277-25.985
	c3.091-3.554,7.951-4.523,12.387-2.468c5.74,2.662,9.173,1.911,11.253,1.114c10.145-3.882,17.946-22.042,24.215-36.635
	c2.978-6.932,5.79-13.48,8.797-18.467C79.755,12.344,100.162,0,121.879,0c25.192,0,47.168,16.365,58.503,40.447
	c0.311,0.526,0.568,1.087,0.767,1.677c4.729,10.656,7.399,22.741,7.399,35.541c0,42.824-29.907,77.664-66.669,77.664
	c-17.405,0-34.133-7.959-46.519-21.987c-0.313,0.099-0.627,0.196-0.945,0.292C36.542,145.032,18.533,122.606,13.916,115.462z
	 M112.722,92.943c-4.367,11.033-9.148,23.111-20.604,31.897c8.488,8.106,18.825,12.488,29.761,12.488
	c26.836,0,48.669-26.765,48.669-59.664c0-8.251-1.373-16.115-3.854-23.27C126.672,57.697,120.182,74.097,112.722,92.943z
	 M69.23,116.396c16.856-5.072,21.226-16.107,26.756-30.079c7.651-19.329,17-42.955,61.696-49.028
	C148.781,25.437,136.026,18,121.879,18c-15.351,0-29.995,9.089-39.173,24.314c-2.37,3.932-4.947,9.929-7.675,16.279
	c-7.605,17.706-17.071,39.741-34.319,46.342c-3.523,1.348-7.141,1.997-10.887,1.931c1.522,2.121,3.546,4.322,6.183,6.274
	C44.452,119.393,55.627,120.489,69.23,116.396z M280.283,382.266c2.021,0,4.054-0.677,5.732-2.065l20.55-17.002
	c3.829-3.169,4.365-8.842,1.197-12.672c-3.169-3.829-8.84-4.366-12.672-1.197l-20.55,17.001c-3.83,3.169-4.365,8.842-1.197,12.672
	C275.124,381.154,277.693,382.266,280.283,382.266z"/>
<g>
</g>
<g>
</g>
<g>
</g>
<g>
</g>
<g>
</g>
<g>
</g>
<g>
</g>
<g>
</g>
<g>
</g>
<g>
</g>
<g>
</g>
<g>
</g>
<g>
</g>
<g>
</g>
<g>
</g>
</svg>
