<?xml version="1.0" encoding="iso-8859-1"?>
<!-- Generator: Adobe Illustrator 19.0.0, SVG Export Plug-In . SVG Version: 6.00 Build 0)  -->
<svg version="1.1" id="Capa_1" xmlns="http://www.w3.org/2000/svg" xmlns:xlink="http://www.w3.org/1999/xlink" x="0px" y="0px"
	 viewBox="0 0 440.762 440.762" style="enable-background:new 0 0 440.762 440.762;" xml:space="preserve">
<path id="XMLID_7_" d="M190.615,209.243c1.015,0.376,2.074,0.561,3.127,0.561c1.863,0,3.709-0.579,5.263-1.699
	c2.433-1.753,3.832-4.603,3.733-7.6l-1.229-37.042l22.473-28.417c1.86-2.352,2.426-5.476,1.51-8.331
	c-0.916-2.855-3.193-5.067-6.074-5.898l-35.607-10.278l-20.082-30.155c-1.662-2.496-4.458-4-7.457-4.011
	c-2.975,0-5.806,1.472-7.487,3.954l-20.778,30.689l-34.885,9.782c-2.887,0.81-5.182,3.004-6.119,5.852
	c-0.938,2.849-0.395,5.977,1.447,8.342l22.766,29.245l-1.477,36.2c-0.122,2.996,1.256,5.856,3.675,7.627
	c2.419,1.772,5.563,2.224,8.381,1.202l34.848-12.615L190.615,209.243z M128.271,187.78l1.065-26.103
	c0.086-2.127-0.583-4.215-1.891-5.896l-16.558-21.27l25.154-7.054c2.05-0.575,3.83-1.857,5.023-3.62l15.112-22.321l14.48,21.743
	c1.18,1.771,2.95,3.068,4.995,3.658l25.898,7.476l-16.204,20.49c-1.32,1.669-2.006,3.753-1.936,5.881l0.894,26.941l-24.495-9.079
	c-1.996-0.74-4.19-0.749-6.191-0.023L128.271,187.78z M111.71,379.29c0,4.971-4.029,9-9,9H12.594c-4.971,0-9-4.029-9-9V18.802
	c0-4.971,4.029-9,9-9h88.214c4.971,0,9,4.029,9,9s-4.029,9-9,9H21.594V370.29h81.116C107.681,370.29,111.71,374.32,111.71,379.29z
	 M124.784,15.364c-3.515-3.515-3.515-9.213,0-12.728c3.515-3.515,9.213-3.515,12.728,0l3.734,3.734l3.735-3.735
	c3.516-3.514,9.213-3.515,12.728,0c3.515,3.515,3.514,9.213,0,12.728l-3.734,3.734l3.732,3.733c3.515,3.515,3.515,9.213,0,12.728
	c-3.515,3.515-9.213,3.515-12.728,0l-3.733-3.732l-3.733,3.733c-1.757,1.757-4.061,2.636-6.364,2.636
	c-2.304,0-4.606-0.878-6.364-2.636c-3.515-3.515-3.514-9.213,0-12.728l3.733-3.732L124.784,15.364z M171.79,18.802
	c0-4.971,4.029-9,9-9h192.292c4.971,0,9,4.029,9,9v196.117c0,4.971-4.029,9-9,9s-9-4.029-9-9V27.802H180.79
	C175.819,27.802,171.79,23.773,171.79,18.802z M101.919,62.131l-7.583,7.583l7.58,7.58c3.515,3.515,3.515,9.213,0,12.728
	c-1.757,1.757-4.061,2.636-6.364,2.636s-4.606-0.878-6.364-2.636l-7.58-7.58l-7.58,7.58c-3.515,3.515-9.213,3.516-12.728,0
	c-3.515-3.515-3.515-9.213,0-12.728l7.579-7.58l-7.583-7.583c-3.515-3.515-3.515-9.213,0-12.728s9.213-3.515,12.728,0l7.583,7.583
	l7.583-7.583c3.515-3.515,9.213-3.515,12.728,0C105.434,52.918,105.435,58.617,101.919,62.131z M188.185,357.757
	c0,4.971-4.029,9-9,9h-2.859c-4.971,0-9-4.029-9-9s4.029-9,9-9h2.859C184.156,348.757,188.185,352.786,188.185,357.757z
	 M436.495,277.504l-39.829,148.645c-2.359,8.797-10.347,14.613-19.05,14.613c-1.685,0-3.395-0.218-5.098-0.674l-20.82-5.579
	c-4.801-1.287-7.65-6.222-6.364-11.023c1.287-4.802,6.225-7.647,11.023-6.364l20.82,5.579c0.896,0.239,1.862-0.315,2.103-1.213
	l39.828-148.642c0.241-0.897-0.316-1.861-1.215-2.102l-47.206-12.648c-4.801-1.286-7.651-6.221-6.364-11.022
	c1.286-4.801,6.221-7.65,11.022-6.364l47.207,12.648C433.052,256.172,439.307,267.004,436.495,277.504z M280.055,350.202
	c0.466-0.465,0.921-0.943,1.362-1.433c6.034-6.704,9.357-15.365,9.357-24.39c0-20.104-16.355-36.458-36.459-36.458
	c-20.533,0-36.459,19.599-36.459,36.458c0,13.135,4.771,20.802,10.628,26.071l-29.654,77.043c-1.065,2.768-0.699,5.882,0.98,8.327
	s4.454,3.906,7.419,3.906h94.176c2.966,0,5.741-1.461,7.419-3.906s2.045-5.56,0.98-8.328L280.055,350.202z M220.336,421.726
	l18.836-48.937v0l8.535-22.177c1.523-3.958,0.076-8.444-3.475-10.765c-5.793-3.788-8.378-6.92-8.378-15.468
	c0-7.289,8.27-18.458,18.459-18.458c10.178,0,18.459,8.28,18.459,18.458c0,4.57-1.682,8.955-4.735,12.347
	c-1.075,1.194-2.299,2.243-3.637,3.117c-3.552,2.32-5.001,6.807-3.478,10.766l27.372,71.117H220.336z M349.188,394.08
	c0,10.871-8.844,19.716-19.715,19.716c-4.971,0-9-4.029-9-9s4.029-9,9-9c0.93,0,1.715-0.786,1.715-1.716V240.193
	c0-0.93-0.785-1.715-1.715-1.715H213.736c-0.93,0-1.715,0.786-1.715,1.715v47.903c0,4.971-4.029,9-9,9s-9-4.029-9-9v-47.903
	c0-10.871,8.844-19.715,19.715-19.715h115.737c10.871,0,19.715,8.844,19.715,19.715V394.08z M188.185,393.962c0,4.971-4.029,9-9,9
	h-2.857c-4.971,0-9-4.029-9-9s4.029-9,9-9h2.857C184.156,384.962,188.185,388.992,188.185,393.962z M195.456,329.992h-45.497
	c-0.913,0-1.713,0.802-1.713,1.716v88.302c0,0.93,0.784,1.716,1.713,1.716h27.426c4.971,0,9,4.029,9,9s-4.029,9-9,9h-27.426
	c-10.87,0-19.713-8.844-19.713-19.716v-88.302c0-10.872,8.843-19.716,19.713-19.716h45.497c4.971,0,9,4.029,9,9
	S200.427,329.992,195.456,329.992z"/>
<g>
</g>
<g>
</g>
<g>
</g>
<g>
</g>
<g>
</g>
<g>
</g>
<g>
</g>
<g>
</g>
<g>
</g>
<g>
</g>
<g>
</g>
<g>
</g>
<g>
</g>
<g>
</g>
<g>
</g>
</svg>
