<?xml version="1.0" encoding="iso-8859-1"?>
<!-- Generator: Adobe Illustrator 19.0.0, SVG Export Plug-In . SVG Version: 6.00 Build 0)  -->
<svg version="1.1" id="Capa_1" xmlns="http://www.w3.org/2000/svg" xmlns:xlink="http://www.w3.org/1999/xlink" x="0px" y="0px"
	 viewBox="0 0 429.986 429.986" style="enable-background:new 0 0 429.986 429.986;" xml:space="preserve">
<path id="XMLID_1428_" d="M420.986,0H9C4.029,0,0,4.029,0,9v77.247c0,4.971,4.029,9,9,9h25.75c9.236,0,16.75,7.514,16.75,16.749
	s-7.514,16.749-16.75,16.749H9c-4.971,0-9,4.029-9,9V292.24c0,4.971,4.029,9,9,9h25.75c9.236,0,16.75,7.514,16.75,16.749
	s-7.514,16.749-16.75,16.749H9c-4.971,0-9,4.029-9,9v77.248c0,4.971,4.029,9,9,9h205.993c4.971,0,9-4.029,9-9v-77.248
	c0-4.971-4.029-9-9-9h-25.75c-9.235,0-16.749-7.514-16.749-16.75c0-9.235,7.513-16.748,16.749-16.748h25.75c4.971,0,9-4.029,9-9
	v-68.247h59.248v16.75c0,19.16,15.588,34.748,34.75,34.748s34.75-15.588,34.75-34.748v-16.75h68.247c4.971,0,9-4.029,9-9V9
	C429.986,4.029,425.957,0,420.986,0z M205.993,283.24h-16.75c-19.16,0-34.749,15.588-34.749,34.749s15.588,34.749,34.749,34.749
	h16.75v59.248H18v-59.248h16.75c19.161,0,34.75-15.589,34.75-34.75c0-19.16-15.588-34.748-34.75-34.748H18v-59.247h68.247
	c4.971,0,9-4.029,9-9v-25.75c0-9.235,7.515-16.748,16.751-16.748c9.234,0,16.748,7.513,16.748,16.748v25.75c0,4.971,4.029,9,9,9
	h68.248V283.24z M214.993,128.745c-4.971,0-9,4.029-9,9v68.248h-59.248v-16.75c0-19.16-15.588-34.748-34.75-34.748
	s-34.75,15.588-34.75,34.748v16.75H18v-59.248h16.75c19.161,0,34.75-15.589,34.75-34.75c0-19.16-15.588-34.748-34.75-34.748H18V18
	h187.993v68.247c0,4.971,4.029,9,9,9h25.75c9.234,0,16.748,7.514,16.748,16.749s-7.513,16.749-16.748,16.749H214.993z
	 M411.986,205.993H343.74c-4.971,0-9,4.029-9,9v25.75c0,9.235-7.514,16.748-16.75,16.748c-9.235,0-16.749-7.513-16.749-16.748
	v-25.75c0-4.971-4.029-9-9-9h-68.248v-59.248h16.75c19.16,0,34.748-15.589,34.748-34.75c0-19.16-15.588-34.748-34.748-34.748h-16.75
	V18h187.993V205.993z"/>
<g>
</g>
<g>
</g>
<g>
</g>
<g>
</g>
<g>
</g>
<g>
</g>
<g>
</g>
<g>
</g>
<g>
</g>
<g>
</g>
<g>
</g>
<g>
</g>
<g>
</g>
<g>
</g>
<g>
</g>
</svg>
