<svg xmlns="http://www.w3.org/2000/svg" viewBox="0 0 504 497"><defs><style>.a{fill:#aea79f;opacity:0.5;}.b{fill:#3a556a;}.c{fill:#ebf0f3;}.d{fill:#fcd462;}.e{fill:#44c4a1;}.f{fill:#e56353;}.g{fill:#fff;}.h{fill:#3ea69b;}.i{fill:#31978c;}.j{fill:#64798a;}.k{fill:#2f4859;}.l{fill:#f6c358;}.m{fill:#dc8744;}</style></defs><title>intro-img-work-browser</title><path class="a" d="M468,16.78A11.61,11.61,0,0,0,456.84,5.72H11.26A11.06,11.06,0,0,0,.19,16.78v66.5H0V449.93A11.06,11.06,0,0,0,11.07,461H456.64a11.06,11.06,0,0,0,11.07-11.07V83.47H468Z"/><path class="b" d="M492.84,41.72H47.26A11.06,11.06,0,0,0,36.19,52.78v66.69H504V52.78A11.61,11.61,0,0,0,492.84,41.72Z"/><rect class="c" x="54.25" y="68.02" width="292.97" height="25.72"/><circle class="d" cx="384.11" cy="80.84" r="12.91"/><circle class="e" cx="429.64" cy="80.84" r="12.91"/><circle class="f" cx="475.27" cy="80.84" r="12.91"/><path class="g" d="M503.71,119.28V485.93A11.06,11.06,0,0,1,492.64,497H47.07A11.06,11.06,0,0,1,36,485.93V119.28Z"/><polygon class="h" points="150.06 209.07 164.53 194.51 373.92 403.81 359.75 418.47 150.06 209.07"/><polygon class="e" points="138.51 222.28 151.42 209.07 359.75 417.01 346.45 430.21 138.51 222.28"/><polygon class="i" points="164.53 195.87 177.83 182.57 385.86 390.61 372.56 403.9 164.53 195.87"/><polygon class="b" points="363.05 422.06 377.8 407.5 406.93 436.81 392.36 451.47 363.05 422.06"/><path class="j" d="M384.11,459.72l8.74-8.73-29.22-29.22-12.91,12.91,25.14,25.14A5.66,5.66,0,0,0,384.11,459.72Z"/><path class="k" d="M406.15,437.59l8.83-8.74a5.63,5.63,0,0,0,0-8.15l-24.75-25.34-13.2,13Z"/><path class="d" d="M177.83,182.57l-34.08-9.9a16.36,16.36,0,0,1-4.07,11.07,13.31,13.31,0,0,1-11.07,4.08l9.9,34.46Z"/><path class="j" d="M139.77,184.22A14.12,14.12,0,0,0,144,172.77l-16.51-4.27A2.74,2.74,0,0,0,124,172l4.66,16.41C132.78,188.3,136.86,187.14,139.77,184.22Z"/><rect class="d" x="100.3" y="276.66" width="339.17" height="76.01" transform="translate(-143.45 283) rotate(-45)"/><rect class="l" x="100.5" y="306.39" width="339.17" height="16.99" transform="translate(-143.55 283.21) rotate(-45)"/><rect class="m" x="401.61" y="221.54" width="2.91" height="11.07" transform="translate(-42.51 351.52) rotate(-45)"/><rect class="m" x="396.94" y="226.45" width="2.91" height="11.07" transform="translate(-47.35 349.65) rotate(-45)"/><rect class="m" x="391.78" y="231.74" width="2.91" height="11.07" transform="translate(-52.6 347.56) rotate(-45)"/><rect class="m" x="384.4" y="231.82" width="2.91" height="17.57" transform="translate(-57.12 343.31) rotate(-45)"/><rect class="m" x="381.07" y="241.94" width="2.91" height="11.07" transform="translate(-62.95 342.97) rotate(-45)"/><rect class="m" x="375.94" y="247.27" width="2.91" height="11.07" transform="translate(-68.22 340.9) rotate(-45)"/><rect class="m" x="371.13" y="252.18" width="2.91" height="11.07" transform="translate(-73.1 338.94) rotate(-45)"/><rect class="m" x="363.81" y="252.17" width="2.91" height="17.57" transform="translate(-77.54 334.71) rotate(-45)"/><rect class="m" x="360.9" y="262.83" width="2.91" height="11.07" transform="translate(-83.63 334.83) rotate(-45)"/><rect class="m" x="355.29" y="267.71" width="2.91" height="11.07" transform="translate(-88.72 332.29) rotate(-45)"/><rect class="m" x="350.62" y="272.62" width="2.91" height="11.07" transform="translate(-93.56 330.43) rotate(-45)"/><rect class="m" x="343.3" y="272.61" width="2.91" height="17.57" transform="translate(-98 326.2) rotate(-45)"/><rect class="m" x="340.32" y="283.21" width="2.91" height="11.07" transform="translate(-104.07 326.24) rotate(-45)"/><rect class="m" x="335.23" y="288.56" width="2.91" height="11.07" transform="translate(-109.34 324.21) rotate(-45)"/><rect class="m" x="329.65" y="293.48" width="2.91" height="11.07" transform="translate(-114.46 321.7) rotate(-45)"/><rect class="m" x="322.67" y="293.07" width="2.91" height="17.57" transform="translate(-118.51 317.6) rotate(-45)"/><rect class="m" x="319.81" y="303.63" width="2.91" height="11.07" transform="translate(-124.52 317.72) rotate(-45)"/><rect class="m" x="314.65" y="308.94" width="2.91" height="11.07" transform="translate(-129.78 315.63) rotate(-45)"/><rect class="m" x="309.58" y="314.3" width="2.91" height="11.07" transform="translate(-135.06 313.61) rotate(-45)"/><rect class="m" x="302.16" y="313.51" width="2.91" height="17.57" transform="translate(-138.97 309.09) rotate(-45)"/><rect class="m" x="299.31" y="324.1" width="2.91" height="11.07" transform="translate(-144.99 309.22) rotate(-45)"/><rect class="m" x="294.07" y="329.41" width="2.91" height="11.07" transform="translate(-150.29 307.07) rotate(-45)"/><rect class="m" x="288.93" y="334.73" width="2.91" height="11.07" transform="translate(-155.55 305) rotate(-45)"/><rect class="m" x="281.16" y="334.33" width="2.91" height="17.57" transform="translate(-159.84 300.34) rotate(-45)"/><rect class="m" x="278.31" y="344.91" width="2.91" height="11.07" transform="translate(-165.85 300.47) rotate(-45)"/><rect class="m" x="273.51" y="349.82" width="2.91" height="11.07" transform="translate(-170.74 298.51) rotate(-45)"/><rect class="m" x="268.42" y="355.18" width="2.91" height="11.07" transform="translate(-176.02 296.48) rotate(-45)"/><rect class="m" x="261.1" y="355.18" width="2.91" height="17.57" transform="translate(-180.46 292.26) rotate(-45)"/><rect class="m" x="257.67" y="365.39" width="2.91" height="11.07" transform="translate(-186.38 291.87) rotate(-45)"/><rect class="m" x="252.99" y="370.26" width="2.91" height="11.07" transform="translate(-191.2 289.99) rotate(-45)"/><rect class="m" x="247.84" y="375.54" width="2.91" height="11.07" transform="translate(-196.45 287.89) rotate(-45)"/><rect class="m" x="240.46" y="375.62" width="2.91" height="17.57" transform="translate(-200.96 283.65) rotate(-45)"/><rect class="m" x="237.61" y="386.2" width="2.91" height="11.07" transform="translate(-206.98 283.78) rotate(-45)"/><rect class="m" x="232" y="391.09" width="2.91" height="11.07" transform="translate(-212.08 281.24) rotate(-45)"/><rect class="m" x="227.33" y="396" width="2.91" height="11.07" transform="translate(-216.92 279.38) rotate(-45)"/><rect class="m" x="219.94" y="396.04" width="2.91" height="17.57" transform="translate(-221.41 275.13) rotate(-45)"/><rect class="m" x="217.03" y="406.58" width="2.91" height="11.07" transform="translate(-227.41 275.19) rotate(-45)"/><rect class="m" x="211.49" y="411.52" width="2.91" height="11.07" transform="translate(-232.53 272.73) rotate(-45)"/><rect class="m" x="206.34" y="416.82" width="2.91" height="11.07" transform="translate(-237.78 270.64) rotate(-45)"/><rect class="m" x="199.37" y="416.41" width="2.91" height="17.57" transform="translate(-241.84 266.54) rotate(-45)"/><rect class="m" x="196.45" y="427.09" width="2.91" height="11.07" transform="translate(-247.95 266.65) rotate(-45)"/><rect class="m" x="191.29" y="432.37" width="2.91" height="11.07" transform="translate(-253.19 264.55) rotate(-45)"/><rect class="m" x="185.76" y="437.23" width="2.91" height="11.07" transform="translate(-258.25 262.07) rotate(-45)"/><rect class="m" x="178.86" y="436.85" width="2.91" height="17.57" transform="translate(-262.3 258.03) rotate(-45)"/><polygon class="f" points="346.35 430.12 385.67 390.41 390.52 395.46 350.91 434.77 346.35 430.12"/></svg>