<svg xmlns="http://www.w3.org/2000/svg" viewBox="0 0 504 504"><defs><style>.a{fill:#aea79f;opacity:0.5;}.b{fill:#64798a;}.c{fill:#ebf0f3;}.d{fill:#3a556a;}.e{fill:#e56353;}.f{fill:#d15241;}.g{fill:#9b2b1f;}.h{fill:#fff;}</style></defs><title>intro-web-dev-course-graphics</title><rect class="a" width="468" height="468"/><rect class="b" x="36" y="36" width="468" height="468"/><rect class="c" x="36" y="139.54" width="468" height="260.91"/><rect class="c" x="36" y="139.54" width="468" height="260.91"/><rect class="d" x="418.12" y="59.4" width="59.09" height="59.09"/><rect class="d" x="299.72" y="59.63" width="59.09" height="59.09"/><rect class="d" x="181.31" y="59.28" width="59.09" height="59.09"/><rect class="d" x="62.9" y="59.51" width="59.09" height="59.09"/><rect class="d" x="418" y="421.4" width="59.09" height="59.09"/><rect class="d" x="299.6" y="421.64" width="59.09" height="59.09"/><rect class="d" x="181.2" y="421.28" width="59.09" height="59.09"/><rect class="d" x="62.79" y="421.52" width="59.09" height="59.09"/><path class="e" d="M177.57,270A92.62,92.62,0,0,0,270,362.43V177.57A92.62,92.62,0,0,0,177.57,270Z"/><circle class="f" cx="270" cy="270" r="93"/><path class="e" d="M223.5,350.54a93,93,0,1,0,93-161.08Z"/><path class="g" d="M297.87,262,240,214.63a5.3,5.3,0,0,0-8.77,4.09v95.36a5.3,5.3,0,0,0,8.77,4.09l57.92-47.38C300.21,267.86,300.21,263.77,297.87,262Z"/><path class="h" d="M306.07,269.21l-57.92-47.38a5.3,5.3,0,0,0-8.77,4.09v95.36a5.3,5.3,0,0,0,8.77,4.09L306.07,278A6.37,6.37,0,0,0,306.07,269.21Z"/></svg>