<?xml version="1.0" encoding="iso-8859-1"?>
<!-- Generator: Adobe Illustrator 19.0.0, SVG Export Plug-In . SVG Version: 6.00 Build 0)  -->
<svg version="1.1" id="Layer_1" xmlns="http://www.w3.org/2000/svg" xmlns:xlink="http://www.w3.org/1999/xlink" x="0px" y="0px"
	 viewBox="0 0 512 512" style="enable-background:new 0 0 512 512;" xml:space="preserve">
<path style="fill:#F7B239;" d="M256,137.089L153.012,315.455h205.976L256,137.089z"/>
<path style="fill:#F2F2F2;" d="M314.821,259.841c-32.491-32.491-85.164-32.491-117.643,0l-13.412,13.412l13.412,13.4
	c32.479,32.491,85.152,32.491,117.643,0l13.412-13.4L314.821,259.841z M256,300.927c-15.288,0-27.687-12.398-27.687-27.674
	c0-15.289,12.398-27.687,27.687-27.687c15.276,0,27.674,12.398,27.674,27.687C283.674,288.529,271.276,300.927,256,300.927z"/>
<path style="fill:#F95428;" d="M256,245.567c15.276,0,27.674,12.398,27.674,27.687c0,15.276-12.398,27.674-27.674,27.674
	c-15.288,0-27.687-12.398-27.687-27.674C228.313,257.965,240.712,245.567,256,245.567z"/>
<path style="fill:#F2F2F2;" d="M503.342,189.725l-0.57,0.152L385.737,221.24c-0.545-2.041-1.141-4.069-1.775-6.085
	c-5.92-18.597-15.783-35.432-28.625-49.529c-1.42-1.559-2.878-3.093-4.374-4.589l86.052-86.052c1.496,1.496,2.966,3.004,4.424,4.538
	c27.661,29.043,48.566,64.577,60.178,104.104C502.226,185.642,502.796,187.684,503.342,189.725z"/>
<path style="fill:#CCCCCC;" d="M512,256c0,20.702-2.459,40.845-7.112,60.127c-0.482,2.066-1.001,4.107-1.547,6.148l-0.57-0.152
	L385.737,290.76c0.545-2.028,1.052-4.082,1.496-6.148v-0.013c2.016-9.216,3.068-18.775,3.068-28.599s-1.052-19.396-3.068-28.612
	c-0.444-2.066-0.951-4.12-1.496-6.148l117.034-31.363l0.57-0.152c0.545,2.028,1.065,4.082,1.547,6.136
	C509.541,215.142,512,235.286,512,256z"/>
<path style="fill:#B3B3B3;" d="M503.342,322.276c-0.545,2.041-1.116,4.082-1.724,6.098c-11.612,39.527-32.517,75.061-60.178,104.104
	c-1.458,1.534-2.928,3.042-4.424,4.538l-0.368-0.368l-85.684-85.684c1.496-1.496,2.954-3.03,4.374-4.589
	c12.842-14.097,22.705-30.932,28.625-49.529c0.634-2.016,1.23-4.044,1.775-6.085l117.034,31.363L503.342,322.276z"/>
<path style="fill:#F95428;" d="M437.015,437.015c-1.496,1.496-3.004,2.966-4.538,4.424c-29.056,27.661-64.59,48.566-104.104,60.178
	c-2.016,0.608-4.057,1.179-6.098,1.724l-0.152-0.57L290.76,385.737c2.054-0.545,4.069-1.141,6.085-1.775
	c18.597-5.92,35.432-15.783,49.529-28.625c1.559-1.42,3.093-2.878,4.589-4.374l85.684,85.684L437.015,437.015z"/>
<path style="fill:#E54728;" d="M322.276,503.342c-2.041,0.545-4.082,1.065-6.148,1.547C296.845,509.541,276.714,512,256,512
	s-40.845-2.459-60.127-7.112c-2.066-0.482-4.107-1.001-6.148-1.547l0.025-0.089l0.127-0.482l31.363-117.022
	c2.041,0.545,4.095,1.04,6.161,1.496c9.216,2.003,18.787,3.055,28.599,3.055c9.812,0,19.383-1.052,28.599-3.081
	c2.066-0.444,4.12-0.938,6.161-1.483l31.363,117.034L322.276,503.342z"/>
<path style="fill:#CC321D;" d="M221.24,385.749l-31.363,117.022l-0.127,0.482l-0.025,0.089c-2.003-0.532-3.981-1.09-5.958-1.686
	l-0.139-0.038c-39.514-11.612-75.061-32.517-104.104-60.178c-1.534-1.458-3.042-2.928-4.538-4.424l0.368-0.368l85.684-85.684
	c1.496,1.496,3.03,2.954,4.589,4.374c14.097,12.842,30.932,22.705,49.529,28.625C217.17,384.609,219.186,385.204,221.24,385.749z"/>
<path style="fill:#B27214;" d="M437.015,74.985l-86.052,86.052c-1.496-1.496-3.03-2.954-4.589-4.374
	c-14.097-12.842-30.919-22.705-49.516-28.612c-2.016-0.647-4.044-1.242-6.098-1.787L322.123,9.229l0.152-0.57
	c2.041,0.545,4.082,1.116,6.098,1.724c39.514,11.612,75.048,32.517,104.104,60.178C434.011,72.018,435.519,73.489,437.015,74.985z"
	/>
<path style="fill:#E09B2D;" d="M322.276,8.658l-0.152,0.57L290.76,126.263c-2.028-0.545-4.082-1.04-6.148-1.483h-0.013
	c-9.216-2.028-18.775-3.081-28.599-3.081c-9.812,0-19.396,1.052-28.612,3.055c-2.066,0.456-4.12,0.951-6.148,1.496L189.877,9.229
	l-0.152-0.57c2.041-0.545,4.082-1.065,6.148-1.547C215.155,2.459,235.286,0,256,0s40.845,2.459,60.127,7.112
	C318.194,7.594,320.235,8.113,322.276,8.658z"/>
<path style="fill:#F7B239;" d="M221.24,126.251c-2.054,0.545-4.082,1.141-6.098,1.787c-18.597,5.92-35.42,15.783-49.516,28.625
	c-1.559,1.42-3.093,2.878-4.589,4.374L74.985,74.985c1.496-1.496,3.004-2.966,4.538-4.424
	c29.043-27.661,64.589-48.566,104.104-60.178c2.016-0.608,4.057-1.179,6.098-1.724l0.152,0.57L221.24,126.251z"/>
<path style="fill:#168BBF;" d="M161.036,161.036c-1.496,1.496-2.954,3.03-4.374,4.589c-12.842,14.097-22.705,30.919-28.612,49.516
	c-0.647,2.016-1.242,4.044-1.787,6.098L9.229,189.877l-0.57-0.152c0.545-2.041,1.116-4.082,1.724-6.098
	C21.995,144.1,42.899,108.566,70.56,79.523c1.458-1.534,2.928-3.042,4.424-4.538L161.036,161.036z"/>
<path style="fill:#2197D8;" d="M124.767,284.612c0.444,2.066,0.951,4.12,1.496,6.148L9.229,322.123l-0.57,0.152
	c-0.545-2.041-1.065-4.082-1.547-6.148C2.459,296.845,0,276.702,0,256s2.459-40.845,7.112-60.127
	c0.482-2.066,1.001-4.107,1.547-6.148l0.57,0.152l117.034,31.363c-0.545,2.028-1.052,4.082-1.496,6.148
	c-2.016,9.216-3.068,18.787-3.068,28.612S122.752,275.396,124.767,284.612z"/>
<path style="fill:#2BA5F7;" d="M161.036,350.964l-85.684,85.684l-0.368,0.368c-1.496-1.496-2.966-3.004-4.424-4.538
	C42.899,403.434,21.995,367.9,10.382,328.373c-0.608-2.016-1.179-4.057-1.724-6.098l0.57-0.152l117.034-31.363
	c0.545,2.054,1.141,4.069,1.787,6.085v0.013c5.908,18.597,15.77,35.42,28.612,49.517
	C158.083,347.934,159.54,349.468,161.036,350.964z"/>
<g>
	<path style="fill:#FFFFFF;" d="M328.373,501.618c-2.016,0.608-4.057,1.179-6.098,1.724c-2.041,0.545-4.082,1.065-6.148,1.547
		L284.599,387.22c2.066-0.444,4.12-0.938,6.161-1.483c2.054-0.545,4.069-1.141,6.085-1.775L328.373,501.618z"/>
	<path style="fill:#FFFFFF;" d="M227.388,124.755c-2.066,0.456-4.12,0.951-6.148,1.496c-2.054,0.545-4.082,1.141-6.098,1.787
		L183.627,10.383c2.016-0.608,4.057-1.179,6.098-1.724c2.041-0.545,4.082-1.065,6.148-1.547L227.388,124.755z"/>
	<path style="fill:#FFFFFF;" d="M441.44,432.477c-1.458,1.534-2.928,3.042-4.424,4.538s-3.004,2.966-4.538,4.424l-86.102-86.102
		c1.559-1.42,3.093-2.878,4.589-4.374c1.496-1.496,2.954-3.03,4.374-4.589L441.44,432.477z"/>
	<path style="fill:#FFFFFF;" d="M165.625,156.663c-1.559,1.42-3.093,2.878-4.589,4.374c-1.496,1.496-2.954,3.03-4.374,4.589
		L70.56,79.523c1.458-1.534,2.928-3.042,4.424-4.538c1.496-1.496,3.004-2.966,4.538-4.424L165.625,156.663z"/>
	<path style="fill:#FFFFFF;" d="M504.888,316.127c-0.482,2.066-1.001,4.107-1.547,6.148c-0.545,2.041-1.116,4.082-1.724,6.098
		l-117.656-31.528c0.634-2.016,1.23-4.044,1.775-6.085c0.545-2.028,1.052-4.082,1.496-6.148L504.888,316.127z"/>
	<path style="fill:#FFFFFF;" d="M128.051,215.142c-0.647,2.016-1.242,4.044-1.787,6.098c-0.545,2.028-1.052,4.082-1.496,6.148
		L7.112,195.873c0.482-2.066,1.001-4.107,1.547-6.148c0.545-2.041,1.116-4.082,1.724-6.098L128.051,215.142z"/>
	<path style="fill:#FFFFFF;" d="M504.888,195.86l-117.656,31.528c-0.444-2.066-0.951-4.12-1.496-6.148
		c-0.545-2.041-1.141-4.069-1.775-6.085l117.656-31.528c0.609,2.016,1.179,4.057,1.724,6.098
		C503.887,191.753,504.406,193.807,504.888,195.86z"/>
	<path style="fill:#FFFFFF;" d="M128.051,296.845v0.013L10.382,328.373c-0.608-2.016-1.179-4.057-1.724-6.098
		c-0.545-2.041-1.065-4.082-1.547-6.148l117.656-31.515c0.444,2.066,0.951,4.12,1.496,6.148
		C126.808,292.814,127.404,294.83,128.051,296.845z"/>
	<path style="fill:#FFFFFF;" d="M441.44,79.523l-86.102,86.102c-1.42-1.559-2.878-3.093-4.374-4.589
		c-1.496-1.496-3.03-2.954-4.589-4.374l86.102-86.102c1.534,1.458,3.042,2.928,4.538,4.424
		C438.511,76.481,439.982,77.989,441.44,79.523z"/>
	<path style="fill:#FFFFFF;" d="M165.625,355.337L79.523,441.44c-1.534-1.458-3.042-2.928-4.538-4.424s-2.966-3.004-4.424-4.538
		l86.102-86.102c1.42,1.559,2.878,3.093,4.374,4.589C162.532,352.46,164.066,353.917,165.625,355.337z"/>
	<path style="fill:#FFFFFF;" d="M328.373,10.383l-31.515,117.668c-2.016-0.647-4.044-1.242-6.098-1.787
		c-2.028-0.545-4.082-1.04-6.148-1.483L316.127,7.112c2.066,0.482,4.107,1.001,6.148,1.547
		C324.317,9.204,326.358,9.774,328.373,10.383z"/>
	<path style="fill:#FFFFFF;" d="M227.401,387.245l-31.528,117.643l-6.123-1.635l-5.984-1.597l-0.139-0.038l31.528-117.656
		c2.016,0.647,4.031,1.242,6.085,1.787C223.281,386.295,225.334,386.789,227.401,387.245z"/>
</g>
<g>
</g>
<g>
</g>
<g>
</g>
<g>
</g>
<g>
</g>
<g>
</g>
<g>
</g>
<g>
</g>
<g>
</g>
<g>
</g>
<g>
</g>
<g>
</g>
<g>
</g>
<g>
</g>
<g>
</g>
</svg>
