<?xml version="1.0" encoding="iso-8859-1"?>
<!-- Generator: Adobe Illustrator 19.1.0, SVG Export Plug-In . SVG Version: 6.00 Build 0)  -->
<svg version="1.1" id="Capa_1" xmlns="http://www.w3.org/2000/svg" xmlns:xlink="http://www.w3.org/1999/xlink" x="0px" y="0px"
	 viewBox="0 0 64 64" style="enable-background:new 0 0 64 64;" xml:space="preserve">
<g>
	<g id="group-56svg">
		<path id="path-1_102_" style="fill:#FF917B;" d="M61,56c0,4.418-3.582,8-8,8H18c-4.419,0-8-3.582-8-8V12c0-4.418,3.581-8,8-8h35
			c4.418,0,8,3.582,8,8V56z"/>
		<path id="path-2_102_" d="M47.5,63h-35C7.262,63,3,58.738,3,53.5v-44C3,4.262,7.262,0,12.5,0h35C52.738,0,57,4.262,57,9.5v44
			C57,58.738,52.738,63,47.5,63z M12.5,3C8.916,3,6,5.916,6,9.5v44c0,3.584,2.916,6.5,6.5,6.5h35c3.584,0,6.5-2.916,6.5-6.5v-44
			C54,5.916,51.084,3,47.5,3H12.5z"/>
		<path id="path-3_101_" d="M49,14H13c-0.829,0-1.5-0.672-1.5-1.5S12.171,11,13,11h36c0.829,0,1.5,0.672,1.5,1.5S49.829,14,49,14z"
			/>
		<path id="path-4_99_" d="M49,22H13c-0.829,0-1.5-0.672-1.5-1.5S12.171,19,13,19h36c0.829,0,1.5,0.672,1.5,1.5S49.829,22,49,22z"/>
		<path id="path-5_90_" style="fill:#FFFFFF;" d="M28.758,50.662l-6.09,1.089l1.089-6.09l14.98-14.98
			c1.382-1.381,3.62-1.381,5.002,0l0,0c1.381,1.38,1.381,3.62,0,5.001L28.758,50.662z"/>
		<path id="path-6_80_" d="M19.668,51.251c-0.394,0-0.776-0.155-1.06-0.44c-0.347-0.346-0.503-0.841-0.416-1.324l1.088-6.09
			c0.054-0.301,0.199-0.58,0.416-0.796L34.677,27.62c0.951-0.951,2.216-1.475,3.561-1.475c1.345,0,2.61,0.524,3.561,1.475
			c1.964,1.964,1.964,5.158,0,7.122L26.818,49.724c-0.217,0.216-0.494,0.362-0.797,0.416l-6.089,1.087
			C19.844,51.243,19.756,51.251,19.668,51.251z M22.15,44.389l-0.626,3.506l3.506-0.626l14.648-14.648
			c0.384-0.385,0.596-0.895,0.596-1.44c0-0.544-0.212-1.055-0.596-1.44c-0.769-0.769-2.111-0.768-2.88,0L22.15,44.389z"/>
	</g>
</g>
<g>
</g>
<g>
</g>
<g>
</g>
<g>
</g>
<g>
</g>
<g>
</g>
<g>
</g>
<g>
</g>
<g>
</g>
<g>
</g>
<g>
</g>
<g>
</g>
<g>
</g>
<g>
</g>
<g>
</g>
</svg>
