<svg xmlns="http://www.w3.org/2000/svg" viewBox="0 0 504 480.02"><defs><style>.a{fill:#aea79f;opacity:0.5;}.b{fill:#fcd462;}.c{fill:#44c4a1;}.d{fill:#3ea69b;}.e{fill:#e56353;}.f{fill:#f6c358;}.g{fill:#d15241;}</style></defs><title>Asset 4</title><path class="a" d="M100.62,174.92C42.71,190.12,0,243.36,0,306.54a136.91,136.91,0,0,0,233.68,96.83,3.57,3.57,0,0,1-.27.28A137.54,137.54,0,0,0,330.53,444C406.58,443.43,468,382.59,468,306.54c0-63.76-43.88-117.59-103.55-132.8-.05.19-.11.37-.16.55a124.29,124.29,0,0,0-33.18-4A134.26,134.26,0,0,0,291,175.67a136.45,136.45,0,0,1,40.07-6,153.51,153.51,0,0,1,33.34,4.09,127.5,127.5,0,0,0,5.27-36.85A136.69,136.69,0,0,0,232.83,0C156.78,0,95.35,60.84,95.35,136.89a138.83,138.83,0,0,0,5.27,38l.17,0"/><path class="b" d="M270,246a137.52,137.52,0,0,1,97.11-40.37,152.89,152.89,0,0,1,33.34,4.1,127.61,127.61,0,0,0,5.27-36.86A136.69,136.69,0,0,0,268.83,36c-76,0-137.48,60.84-137.48,136.89a138.83,138.83,0,0,0,5.27,38,146.43,146.43,0,0,1,36.27-4.68A132.27,132.27,0,0,1,270,246Z"/><path class="c" d="M234.9,305.69c-47.39-11.7-84.82-48.56-98.28-94.77C78.71,226.13,36,279.36,36,342.54a136.92,136.92,0,0,0,234,96.53A137.53,137.53,0,0,1,229.64,342C229.63,329.67,232,317.39,234.9,305.69Z"/><path class="d" d="M234.9,305.69A137.12,137.12,0,0,1,270,246a137.54,137.54,0,0,0-97.11-40.37,150.58,150.58,0,0,0-36.27,4.68A140.29,140.29,0,0,0,234.9,305.69Z"/><path class="e" d="M400.45,209.75a136.35,136.35,0,0,1-95.94,94.77,137.68,137.68,0,0,1-35.1,135.13A137.56,137.56,0,0,0,366.53,480C442.58,479.43,504,418.59,504,342.54,504,278.78,460.12,225,400.45,209.75Z"/><path class="f" d="M270,246a134.07,134.07,0,0,1,34.51,59.08c46.22-12.87,83.07-48.55,95.94-94.77a124.17,124.17,0,0,0-33.34-4.09A132.27,132.27,0,0,0,270,246Z"/><path class="g" d="M304.51,305.1C298.08,282.29,285.8,262.4,270,246a137.12,137.12,0,0,0-35.1,59.67,127.55,127.55,0,0,0-5.27,36.85A136.09,136.09,0,0,0,270,439.65a137.51,137.51,0,0,0,40.36-97.11A131.5,131.5,0,0,0,304.51,305.1Z"/></svg>