<?xml version="1.0"?>
<svg xmlns="http://www.w3.org/2000/svg" xmlns:xlink="http://www.w3.org/1999/xlink" version="1.1" id="Layer_1" x="0px" y="0px" viewBox="0 0 512.282 512.282" style="enable-background:new 0 0 512.282 512.282;" xml:space="preserve" width="512px" height="512px" class=""><g><rect x="323.345" y="411.249" transform="matrix(-0.7073 -0.7069 0.7069 -0.7073 427.6503 1031.5646)" width="208.078" height="32" data-original="#000000" class=""/><ellipse style="fill:#EFB73E" cx="213.712" cy="213.738" rx="213.712" ry="213.568" data-original="#F2B851" class="active-path" data-old_color="#F2B851"/><g>
	<path style="fill:#FFFFFF" d="M63.632,178.755h14.264v33.312h0.224c1.728-2.64,4.024-4.832,7.016-6.44   c2.76-1.608,6.096-2.52,9.656-2.52c9.544,0,19.544,6.32,19.544,24.232v32.968h-14.144v-31.36c0-8.16-2.992-14.24-10.816-14.24   c-5.512,0-9.424,3.672-10.92,7.92c-0.464,1.152-0.568,2.648-0.568,4.248v33.432H63.632V178.755z" data-original="#FFFFFF" class=""/>
	<path style="fill:#FFFFFF" d="M145.056,188.402v15.968h13.456v10.56h-13.456v24.696c0,6.784,1.832,10.344,7.24,10.344   c2.416,0,4.256-0.344,5.52-0.696l0.224,10.808c-2.072,0.808-5.752,1.376-10.232,1.376c-5.168,0-9.544-1.728-12.184-4.592   c-2.992-3.216-4.368-8.272-4.368-15.624v-26.304h-8.048v-10.56h8.056v-12.64L145.056,188.402z" data-original="#FFFFFF" class=""/>
	<path style="fill:#FFFFFF" d="M185.416,188.402v15.968h13.456v10.56h-13.456v24.696c0,6.784,1.832,10.344,7.24,10.344   c2.416,0,4.256-0.344,5.52-0.696l0.224,10.808c-2.072,0.808-5.752,1.376-10.232,1.376c-5.168,0-9.544-1.728-12.184-4.592   c-2.992-3.216-4.368-8.272-4.368-15.624v-26.304h-8.056v-10.56h8.056v-12.64L185.416,188.402z" data-original="#FFFFFF" class=""/>
	<path style="fill:#FFFFFF" d="M209.56,222.979c0-7.352-0.224-13.32-0.456-18.6h12.416l0.688,8.608h0.232   c4.144-6.312,10.696-9.872,19.2-9.872c12.872,0,23.568,11.024,23.568,28.488c0,20.216-12.76,29.984-25.52,29.984   c-7.016,0-12.88-2.992-15.76-7.472h-0.224v28.944h-14.152v-60.08H209.56z M223.704,236.883c0,1.376,0.12,2.64,0.464,3.896   c1.376,5.752,6.44,9.88,12.416,9.88c8.968,0,14.256-7.472,14.256-18.496c0-9.88-4.832-17.92-13.912-17.92   c-5.856,0-11.264,4.248-12.648,10.456c-0.344,1.152-0.568,2.416-0.568,3.56v8.624H223.704z" data-original="#FFFFFF" class=""/>
	<path style="fill:#FFFFFF" d="M275.104,213.906c0-5.28,3.68-9.08,8.736-9.08c5.176,0,8.624,3.8,8.744,9.08   c0,5.168-3.456,8.96-8.744,8.96C278.664,222.867,275.104,219.075,275.104,213.906z M275.104,252.618c0-5.28,3.68-9.08,8.736-9.08   c5.176,0,8.624,3.68,8.744,9.08c0,5.056-3.456,8.96-8.744,8.96C278.664,261.578,275.104,257.674,275.104,252.618z" data-original="#FFFFFF" class=""/>
	<path style="fill:#FFFFFF" d="M297.288,264.906l28.056-83.28h9.888l-28.056,83.28H297.288z" data-original="#FFFFFF" class=""/>
	<path style="fill:#FFFFFF" d="M336.04,264.906l28.056-83.28h9.888l-28.056,83.28H336.04z" data-original="#FFFFFF" class=""/>
</g></g> </svg>
