<svg id="Layer_1" data-name="Layer 1" xmlns="http://www.w3.org/2000/svg" viewBox="0 0 232.32 250.19"><defs><style>.cls-1{fill:#79af33;}.cls-2{fill:#535757;}.cls-3{fill:none;stroke:#535757;stroke-linecap:round;stroke-linejoin:round;stroke-width:23.83px;}</style></defs><title>hw-icon-upload</title><path class="cls-1" d="M155.79,218.36a11.8,11.8,0,0,1-11.92-11.91V135H114.09A12.1,12.1,0,0,1,105,115l58.38-65.52a12.65,12.65,0,0,1,8.58-4h.48a12,12,0,0,1,8.34,3.33l66.71,65.53a12.06,12.06,0,0,1,2.62,13.1,11.87,11.87,0,0,1-11,7.39H209.4v71.48a11.79,11.79,0,0,1-11.91,11.91h-41.7Z" transform="translate(-60.48 -33.7)"/><path class="cls-2" d="M172.47,57.53l66.71,65.52H197.49v83.4h-41.7v-83.4h-41.7l58.38-65.52m0-23.83h-.72a24.14,24.14,0,0,0-16.92,7.86L96.46,107.09a23.69,23.69,0,0,0,17.63,39.55H132v59.57A23.9,23.9,0,0,0,155.79,230h41.7a23.89,23.89,0,0,0,23.82-23.83V146.64h17.87a24.2,24.2,0,0,0,22.16-14.77,23.53,23.53,0,0,0-5.48-26L189.15,40.37a24.25,24.25,0,0,0-16.68-6.67Z" transform="translate(-60.48 -33.7)"/><polyline class="cls-3" points="11.91 196.58 11.91 238.27 220.4 238.27 220.4 196.58"/></svg>