<?xml version="1.0"?>
<svg xmlns="http://www.w3.org/2000/svg" xmlns:xlink="http://www.w3.org/1999/xlink" version="1.1" id="Capa_1" x="0px" y="0px" width="512px" height="512px" viewBox="0 0 478.157 478.157" style="enable-background:new 0 0 478.157 478.157;" xml:space="preserve" class=""><g><g>
	<path d="M407.299,272.947V149.22c0-6.688-5.444-12.129-12.129-12.129H191.171c-6.688,0-12.128,5.441-12.128,12.129v53.173h-96.05   c-6.688,0-12.129,5.44-12.129,12.135V338.25c0,6.69,5.441,12.141,12.129,12.141h203.999c6.685,0,12.129-5.45,12.129-12.141v-53.174   h96.05C401.854,285.076,407.299,279.639,407.299,272.947z M287.222,338.25c0,0.129-0.106,0.236-0.236,0.236L82.756,338.25   l0.23-123.958l204.229,0.236V338.25H287.222z M395.4,272.947c0,0.13-0.106,0.23-0.23,0.23l-96.05-0.112v-58.537   c0-6.688-5.444-12.135-12.129-12.135h-95.917l0.104-53.41l204.229,0.236v123.727H395.4z M13.376,250.333v-54.477   c0-4.962,4.055-9.079,9.079-9.079c5.024,0,9.079,4.117,9.079,9.079v54.477c0,5.024-4.055,9.079-9.079,9.079   C17.431,259.412,13.376,255.357,13.376,250.333z M464.781,107.555v54.474c0,5.024-4.055,9.079-9.079,9.079   s-9.079-4.055-9.079-9.079v-54.474c0-5.024,4.055-9.079,9.079-9.079S464.781,102.531,464.781,107.555z M13.376,359.28v-54.474   c0-4.965,4.055-9.079,9.079-9.079c5.024,0,9.079,4.114,9.079,9.079v54.474c0,5.023-4.055,9.079-9.079,9.079   C17.431,368.359,13.376,364.304,13.376,359.28z M34.622,472.104c-1.696,2.3-4.359,3.63-7.265,3.63c-1.998,0-3.874-0.604-5.446-1.75   c-5.326-3.996-8.535-10.355-8.535-17.012v-43.219c0-4.959,4.055-9.079,9.079-9.079c5.024,0,9.079,4.12,9.079,9.079v43.219   c0,0.97,0.425,1.814,1.211,2.424C36.8,462.423,37.586,468.104,34.622,472.104z M104.106,9.079c0-5.024,4.114-9.079,9.079-9.079   h54.474c5.024,0,9.079,4.055,9.079,9.079c0,5.024-4.055,9.079-9.079,9.079h-54.474C108.22,18.158,104.106,14.097,104.106,9.079z    M322,9.079C322,4.055,326.114,0,331.079,0h54.474c5.024,0,9.079,4.055,9.079,9.079c0,5.024-4.055,9.079-9.079,9.079h-54.474   C326.114,18.158,322,14.097,322,9.079z M213.112,9.079c0-5.024,4.055-9.079,9.079-9.079h54.474c4.965,0,9.02,4.055,9.02,9.079   c0,5.024-4.055,9.079-9.02,9.079h-54.474C217.167,18.158,213.112,14.097,213.112,9.079z M67.79,9.079   c0,5.024-4.055,9.079-9.079,9.079H34.56c-1.634,0-3.026,1.33-3.026,3.026v11.198v0.06c0,5.024-4.055,9.079-9.079,9.079   c-5.024,0-9.079-4.055-9.079-9.079V21.184C13.376,9.501,22.88,0,34.56,0h24.151C63.735,0,67.79,4.055,67.79,9.079z M13.376,141.383   V86.909c0-4.962,4.055-9.02,9.079-9.02c5.024,0,9.079,4.058,9.079,9.02v54.474c0,5.024-4.055,9.079-9.079,9.079   C17.431,150.461,13.376,146.413,13.376,141.383z M144.84,469.078c0,5.024-4.055,9.079-9.079,9.079H81.288   c-5.024,0-9.079-4.055-9.079-9.079c0-5.023,4.055-9.079,9.079-9.079h54.474C140.785,459.999,144.84,464.055,144.84,469.078z    M464.781,216.502v54.47c0,5.024-4.055,9.079-9.079,9.079s-9.079-4.055-9.079-9.079v-54.47c0-4.965,4.055-9.079,9.079-9.079   S464.781,211.531,464.781,216.502z M464.781,434.395v22.578c0,11.68-9.505,21.185-21.185,21.185h-35.465   c-5.024,0-9.079-4.055-9.079-9.079c0-5.023,4.055-9.079,9.079-9.079h35.465c1.632,0,3.026-1.395,3.026-3.026v-22.578   c0-4.966,4.055-9.08,9.079-9.08S464.781,429.429,464.781,434.395z M464.781,325.447v54.473c0,5.024-4.055,9.079-9.079,9.079   s-9.079-4.055-9.079-9.079v-54.473c0-5.024,4.055-9.08,9.079-9.08S464.781,320.423,464.781,325.447z M464.781,21.184v31.897   c0,5.024-4.055,9.079-9.079,9.079s-9.079-4.055-9.079-9.079V21.184c0-1.696-1.395-3.026-3.026-3.026h-3.57   c-4.965,0-9.02-4.055-9.02-9.079c0-5.024,4.055-9.079,9.02-9.079h3.57C455.276,0,464.781,9.496,464.781,21.184z M253.79,469.078   c0,5.024-4.055,9.079-9.079,9.079h-54.476c-5.024,0-9.079-4.055-9.079-9.079c0-5.023,4.055-9.079,9.079-9.079h54.476   C249.735,459.999,253.79,464.055,253.79,469.078z M362.737,469.078c0,5.024-4.055,9.079-9.079,9.079h-54.474   c-5.023,0-9.079-4.055-9.079-9.079c0-5.023,4.056-9.079,9.079-9.079h54.474C358.683,459.999,362.737,464.055,362.737,469.078z" data-original="#000000" class="active-path" data-old_color="#B65D5D" fill="#772953"/>
</g></g> </svg>
