<?xml version="1.0"?>
<svg xmlns="http://www.w3.org/2000/svg" xmlns:xlink="http://www.w3.org/1999/xlink" version="1.1" id="Capa_1" x="0px" y="0px" viewBox="0 0 64 64" style="enable-background:new 0 0 64 64;" xml:space="preserve" width="512px" height="512px" class=""><g><g>
	<g id="group-29svg">
		<path id="path-1_72_" style="fill:#EDC951;" d="M35,11.957v-0.931C35,6.398,32.175,4,27.547,4h-9.311C13.608,4,9,6.398,9,11.026    v3.722v42.364C9,60.455,12.566,64,15.909,64h21.533h18.501C59.285,64,61,60.455,61,57.112v-36.31C61,17.459,59.285,15,55.943,15    H38.719C37.177,15,35,13.5,35,11.957z" data-original="#EDC951" class=""/>
		<path id="path-2_72_" d="M50.943,63H10.909C6.696,63,3,59.314,3,55.112V9.026C3,3.881,7.4,0,13.236,0h9.311    C28.112,0,32,3.712,32,9.026v0.931C32,10.483,32.851,11,33.719,11h17.224C54.9,11,58,14.427,58,18.802v36.31    C58,59.535,54.9,63,50.943,63z M13.236,3C9.641,3,6,5.07,6,9.026v46.086C6,57.625,8.386,60,10.909,60h40.034    C53.482,60,55,57.515,55,55.112v-36.31C55,16.474,53.578,14,50.943,14H33.719C31.449,14,29,12.454,29,9.957V9.026    C29,5.365,26.467,3,22.547,3H13.236z" data-original="#000000" class="" style="fill: rgb(0, 0, 0);"/>
		<path id="path-3_71_" style="fill:#81BDA4" d="M17,64h0.81c2.789,0,5.19-2.66,5.19-5.449V31.978V29.6c0-2.209,1.65-3.6,3.859-3.6    h29C58.068,26,60,27.391,60,29.6v26.512C60,60.23,56.49,64,52.371,64H17L17,64z" data-original="#81BDA4" class="active-path" data-old_color=" rgb(129, 189, 164)"/>
		<path id="path-4_69_" d="M50.598,63H12c-0.828,0-1.5-0.672-1.5-1.5S11.172,60,12,60h0.81c3.566,0,5.19-3.416,5.19-6.59V28.112    C18,24.399,21.304,22,26.417,22h24.181C55.232,22,58,24.285,58,28.112v27C58,59.388,54.61,63,50.598,63z M18.921,60h31.677    C52.984,60,55,57.762,55,55.112v-27C55,27.261,55,25,50.598,25H26.417C25.862,25,21,25.087,21,28.112V53.41    C21,56.035,20.231,58.319,18.921,60z" data-original="#000000" class="" style="fill: rgb(0, 0, 0);"/>
		<path id="path-5_61_" d="M29.515,38.106c0-1.046,0.337-2.108,1.009-3.183c0.672-1.075,1.654-1.965,2.944-2.67    c1.289-0.706,2.795-1.059,4.513-1.059c1.599,0,3.01,0.295,4.235,0.885c1.223,0.59,2.168,1.392,2.835,2.406    c0.668,1.014,1.001,2.117,1.001,3.307c0,0.937-0.191,1.759-0.571,2.465c-0.38,0.705-0.833,1.314-1.356,1.826    c-0.524,0.513-1.463,1.376-2.819,2.588c-0.375,0.342-0.676,0.643-0.901,0.902c-0.226,0.259-0.395,0.496-0.505,0.711    c-0.11,0.214-0.195,0.43-0.257,0.645c-0.06,0.214-0.151,0.592-0.272,1.132c-0.21,1.147-0.865,1.72-1.968,1.72    c-0.573,0-1.055-0.187-1.447-0.562c-0.391-0.375-0.587-0.931-0.587-1.67c0-0.926,0.143-1.729,0.43-2.407    c0.287-0.677,0.667-1.272,1.141-1.785c0.474-0.513,1.114-1.122,1.918-1.828c0.705-0.617,1.215-1.083,1.53-1.397    c0.314-0.314,0.579-0.664,0.794-1.05c0.214-0.385,0.322-0.805,0.322-1.256c0-0.883-0.327-1.626-0.984-2.233    c-0.656-0.606-1.502-0.91-2.539-0.91c-1.212,0-2.105,0.307-2.677,0.918c-0.574,0.612-1.059,1.513-1.455,2.704    c-0.376,1.246-1.086,1.869-2.134,1.869c-0.617,0-1.139-0.218-1.563-0.654C29.728,39.085,29.515,38.614,29.515,38.106z     M37.586,56.23c-0.674,0-1.26-0.217-1.762-0.653c-0.502-0.435-0.753-1.045-0.753-1.827c0-0.695,0.242-1.279,0.728-1.753    c0.485-0.474,1.081-0.711,1.787-0.711c0.693,0,1.278,0.237,1.752,0.711c0.474,0.474,0.711,1.058,0.711,1.753    c0,0.772-0.247,1.378-0.744,1.819C38.808,56.009,38.235,56.23,37.586,56.23z" data-original="#000000" class="" style="fill: rgb(0, 0, 0);"/>
	</g>
</g></g> </svg>
