<svg id="Layer_1" data-name="Layer 1" xmlns="http://www.w3.org/2000/svg" viewBox="0 0 387.04 387.04"><defs><style>.cls-1,.cls-5,.cls-6{fill:none}.cls-2{fill:#55bc65}.cls-3{clip-path:url(#clip-path)}.cls-4{fill:#393d40}.cls-5,.cls-6{stroke:#393d40}.cls-5{stroke-miterlimit:10}.cls-6{stroke-linejoin:round;stroke-width:11px}</style><clipPath id="clip-path"><rect class="cls-1" x="25.97" y="25.97" width="335.1" height="335.1" rx="37.95" ry="37.95"/></clipPath></defs><title>Artboard 16</title><rect class="cls-2" width="387.04" height="387.04" rx="58.7" ry="58.7"/><g class="cls-3"><path class="cls-4" d="M25.97 170.78l196.56 1.5-196.56 1.5v-3z"/><path class="cls-2" d="M142.11 169.14l14.4 1.25-.15 2.86-11.5-.29-2.75-3.82zm-19.25.82l2.5 4.25 19.5-1.25-6.12-3.25-15.88.25z"/><path class="cls-4" d="M195.86 81.24c4.78-13.63-10.09-33.54-10.09-33.54-.17 10.2-6.22 20.45-11.3 20.49s-9.55-9-9.55-9C153 72.15 159.08 81 159.08 81c3.51 6.56 8.76 10.16 14.25 11.42-.07 0-9.6-7-6.78-18.87 0 0 12.77 13.45 21.4-5.5 0 0 5.66 10.9-3.05 23.68a17.63 17.63 0 0 0 10.96-10.49z"/><path class="cls-2" d="M185.05 88.14l1 4.31 1.5-1-1.5-3.62-1 .31z"/><path class="cls-4" d="M565.83 530.44l-6 5.2-329.62-380.27a2 2 0 0 1-.34-2.07l1.68-4.08a2 2 0 0 1 3.36-.55z"/><path class="cls-4" d="M309.97 235.27l-4.28-33.35 3.88 1.93 7.82 39.98-7.42-8.56zm48.58 68.17l-7.74-1.89-3.78 3.28 18.4 6.54-6.88-7.93zm-74.93-121.77l-21.05-24.29a39.45 39.45 0 0 1-9.89 8.19c4.34-3.83 6.22-6.57 7-8.33a4.16 4.16 0 0 0 .56-2.51c-1.24-1.43-8.86 3.14-17 10.21s-13.76 14-12.52 15.4l.09.06a2 2 0 0 0 1 .16c1.66-.08 5.54-1.38 13.78-8.63a44.64 44.64 0 0 1-12.47 11.19l20.94 24.16c1.24 1.43 8.86-3.14 17-10.21s13.81-13.97 12.56-15.4z"/><path class="cls-2" d="M261.15 163.77c.76.71 1.49 1.44 2.22 2.18s1.47 1.46 2.18 2.22q2.15 2.24 4.23 4.54 4.17 4.59 8.12 9.38l.17.21v.22a1.47 1.47 0 0 1 0 .34 2 2 0 0 1-.07.24 4.26 4.26 0 0 1-.16.43 6.91 6.91 0 0 1-.4.76 12.2 12.2 0 0 1-.95 1.33c-.34.41-.69.81-1.06 1.2s-.75.74-1.13 1.11-.77.71-1.18 1-.81.67-1.23 1q-1.24 1-2.54 1.83l2.2-2.21c.72-.75 1.42-1.51 2.1-2.27s1.33-1.56 1.9-2.38a13 13 0 0 0 .77-1.26 5.67 5.67 0 0 0 .3-.63 2.92 2.92 0 0 0 .1-.3v-.18l.16.42q-4.18-4.59-8.13-9.37-2-2.38-3.89-4.83c-.64-.81-1.27-1.64-1.88-2.47s-1.23-1.65-1.83-2.51zM241.91 169s3.15-.45 6.06-5.25c0 0-2 4.55-5.18 6.15zm25.56 31.08s4.84-4 6.85-5.94l-4.71 8.4zm52.95 47.25l-6.87-7.94 6.39 4.55.48 3.39zm44.55 65.98l-2.82-5.71 5.35 6.17-2.53-.46z"/><path class="cls-4" d="M257.55 468.88L244.12 462a.49.49 0 0 1 .29-.91l18.19 5.22 54.4-27.85a29.15 29.15 0 0 0-26.54-51.9l-41.4 21.17-10 5.11-45.59 23.31 64 32.74z"/><path class="cls-4" d="M294.75 552.35a14.07 14.07 0 0 1-1.17-1.55 17.57 17.57 0 0 1-2.1-4.68q-.3-1-.51-2.14a27.91 27.91 0 0 1-.43-5.89q0-1.24.17-2.53.07-.64.16-1.29a40.43 40.43 0 0 1 1.8-7.44 91.92 91.92 0 0 0-5.31 12.17s-.25-31.47 28.89-40.1l-58.71-30-64-32.74-97-49.59a29.15 29.15 0 0 0-39.22 12.68A29.15 29.15 0 0 0 70 438.46l54 27.64 19.52-5.52a.49.49 0 0 1 .29.91l-14.39 7.38 64 32.74-1.46-9.06a.57.57 0 0 1 1-.38l7.68 13.15 97.67 49.94a12.19 12.19 0 0 1-2.91-2.26q-.33-.29-.65-.65zM284 303c-4.42 6.23-11.51 9-18.07 7-6.37-1.9-10.34-7.62-10.64-15.31-.7-18.09 17.47-35.33 17.65-35.5l2.73-2.55-3.55-1.18c-4.66-1.55-13.21-1.78-17.33-1.35-5.84.62-14.73 3.2-20.58 8.43-1.12 1-2.26 2.14-3.36 3.25-3.69 3.7-7.52 7.51-11 7-2.61-.42-5.29-3.36-8-8.73-12.18-24.36-5.81-66.24-5.75-66.66l.69-4.39-3.93 2.08c-27.15 14.41-41.6 41.35-49 61.42a179.27 179.27 0 0 0-8.41 32.49c-10.81-19.33-33.44-27.86-34.51-28.26l-4.33-1.6 1.45 4.38c.09.26 8.52 26.17 7.33 63.2-.65 20.07 4.15 37.44 14.26 51.65a80.23 80.23 0 0 0 32 26l.93.41 1.8-4.07c-.73-.33-17.95-8.3-18.51-31.54-.28-11.55-1.13-30.95-3.73-43.62 5.64 4.38 13 11 14.22 15.94.2.8.74 2.94 2.8 2.72s2.14-2.24 2.21-3.21c.06-.78.1-1.9.15-3.3.39-10.73 1.54-42.18 16.24-67.73 3.18 11.9 11.63 38.93 23.45 41.6 8.87 2 16.63-4.69 23.48-10.59a63.19 63.19 0 0 1 7.82-6.11 151.32 151.32 0 0 0-5.2 16.13c-3.93 15.32-3.43 25.92 1.5 31.51 3.56 4 9.18 5.29 16.72 3.75-2.89 10.9-13.17 43.9-33.69 54.53l1.86 4 5.65-2.29h.06c30.26-13.41 47.3-39.33 56.26-58.71A153.49 153.49 0 0 0 288 304.6l1.27-9zM145.07 143.32C132.61 163.93 126 131.09 126 131.09c-19.14 12.09-12 42.64 3.37 45.9s-9.89-10.1-5.74-24.72c0 0 9.65 16.88 19.66 3 0 0 2.58 12.53-.46 18 15.17-11.04 2.24-29.95 2.24-29.95z"/><path class="cls-2" d="M142.55 167.96l-.44 1.18 4.38 3.19.93-1.25-4.87-3.12zm-14.25 5.75l-3 3.28 1 .9 3.19-3.06-1.19-1.12z"/><path class="cls-4" d="M-186 541.61l-5.76-5.46 346.25-365.22a2 2 0 0 1 2-.54l4.23 1.27a2 2 0 0 1 .88 3.29z"/><path class="cls-4" d="M148.4 182.57c-7.83-7.43-13.13-14.56-11.82-15.94L112 192.51l28.37 26.89L165 193.53c-1.35 1.37-8.76-3.53-16.6-10.96z"/><ellipse class="cls-4" cx="150.77" cy="180.08" rx="3.43" ry="19.55" transform="rotate(-46.53 150.758 180.08)"/><ellipse class="cls-4" cx="126.23" cy="205.96" rx="3.43" ry="19.55" transform="rotate(-46.53 126.24 205.957)"/><path class="cls-2" d="M165 193.53s-3.2 1.26-11.53-6.49a39.21 39.21 0 0 0 12.94 11.42zm-28.42-26.9s-2.14 2.81 9.82 14a44.83 44.83 0 0 1-14.85-15zM156 195.29c-.63.83-1.29 1.62-1.95 2.43s-1.31 1.6-2 2.39q-2 2.36-4.1 4.66-4.16 4.6-8.54 9l-.19.19H139a1.49 1.49 0 0 1-.35 0h-.25a4.22 4.22 0 0 1-.44-.12 7 7 0 0 1-.79-.32 12.32 12.32 0 0 1-1.42-.81c-.44-.3-.88-.61-1.3-.94s-.81-.67-1.21-1-.79-.7-1.15-1.07-.74-.74-1.09-1.13q-1.08-1.14-2.07-2.35l2.41 2c.81.64 1.64 1.26 2.46 1.87s1.68 1.17 2.56 1.66a13 13 0 0 0 1.33.64 5.73 5.73 0 0 0 .66.23l.31.07h.18l-.41.21q4.16-4.6 8.53-9 2.18-2.21 4.43-4.35c.74-.72 1.51-1.42 2.28-2.12s1.57-1.43 2.33-2.14zm-7-18.64s.75 3.1 5.82 5.52c0 0-4.72-1.54-6.63-4.56zm-28.48 28.48s4.47 4.42 6.58 6.24l-8.82-3.87z"/><path class="cls-4" d="M98.34 231.31l-1.84-27.5a.83.83 0 0 0-1.17-.71l-3.88 1.72a.83.83 0 0 0-.5.73l-1.11 33.55zM61.7 278.57l11.42-4.29a.83.83 0 0 1 1.09 1L72.77 280a.83.83 0 0 1-.47.52l-20.91 9zM3.06 331.83l1.78-12.3a.83.83 0 0 0-.25-.72l-3.29-3.12a.83.83 0 0 0-1.39.45l-4.41 23.68z"/><path class="cls-2" d="M87.62 238.38l.28 2.79 6.31-6.66-6.59 3.87zm-34.83 51.4l5-5.37-2.07 4.36-2.93 1.01z"/><circle class="cls-4" cx="161.33" cy="169.43" r="8" transform="rotate(-46.53 161.332 169.428)"/><circle class="cls-2" cx="161.33" cy="169.43" r="4.13" transform="rotate(-46.53 161.332 169.428)"/><circle class="cls-4" cx="94.46" cy="201.57" r="8" transform="rotate(-46.53 94.452 201.563)"/><circle class="cls-2" cx="94.46" cy="201.57" r="4.13" transform="rotate(-46.53 94.452 201.563)"/><circle class="cls-4" cx="79.51" cy="277.53" r="8" transform="rotate(-46.53 79.508 277.537)"/><circle class="cls-2" cx="79.51" cy="277.53" r="4.13" transform="rotate(-46.53 79.508 277.537)"/><circle class="cls-4" cx="3.78" cy="314.14" r="8" transform="rotate(-46.53 3.778 314.135)"/><circle class="cls-2" cx="3.78" cy="314.14" r="4.13" transform="rotate(-46.53 3.778 314.135)"/><circle class="cls-4" cx="231.16" cy="151.01" r="8" transform="rotate(-46.53 231.163 151.004)"/><circle class="cls-2" cx="231.16" cy="151.01" r="4.13" transform="rotate(-46.53 231.163 151.004)"/><circle class="cls-4" cx="307.69" cy="200.58" r="8" transform="rotate(-46.53 307.693 200.58)"/><circle class="cls-2" cx="307.69" cy="200.58" r="4.13" transform="rotate(-46.53 307.693 200.58)"/><circle class="cls-4" cx="344.03" cy="301.98" r="8" transform="rotate(-46.53 344.03 301.979)"/><circle class="cls-2" cx="344.03" cy="301.98" r="4.13" transform="rotate(-46.53 344.03 301.979)"/><path class="cls-4" d="M293.36 128.55s-5.34 6.26-10.16 3.16c0 0-.38-14.5-13.83-20.33 0 0-2.43 28.53-13.77 24.8-5.06-1.66-6.9-5.74-7.39-9.75 0 0-7.24 13.24-5.72 21.71 1.26 7 4.79 15.8 13.75 19-1-1.52-8.52-13.53-4.61-23.38 0 0 13.44 13 19.95-7.2 0 0 1 10.89 9.14 4 0 0-5.25 22.34-14.11 27.54 13.09-2.13 17.08-17.71 17.08-17.71s7.82-6.39 9.67-21.84z"/><path class="cls-2" d="M269.23 164.97l3.53 4.08.93-1.06-4-4.7-.46 1.68zm-22.95-4.56l6.58-4v1.17l-5.57 4.02-1.01-1.19z"/><path class="cls-4" d="M-306.69 33.47l1.28-7.84 506.56 82.55a2 2 0 0 1 1.59 1.37l1.33 4.21a2 2 0 0 1-2.23 2.57z"/><path class="cls-4" d="M178.23 108.09c1.74-10.65 4.66-19 6.53-18.74l-35.19-5.74-6.29 38.58 35.19 5.74c-1.87-.3-1.98-9.18-.24-19.84z"/><ellipse class="cls-4" cx="181.62" cy="108.64" rx="19.55" ry="3.43" transform="rotate(-80.74 181.63 108.639)"/><ellipse class="cls-4" cx="146.43" cy="102.91" rx="19.55" ry="3.43" transform="rotate(-80.74 146.436 102.913)"/><path class="cls-2" d="M178.47 127.93s-2.84-1.94-1.12-13.19a39.21 39.21 0 0 0-2.17 17.12zm6.29-38.58s-3.53-.19-6 16a44.83 44.83 0 0 1 4.04-20.75zm-8.07 3.42c-1-.06-2.07-.15-3.1-.25s-2.06-.19-3.09-.31q-3.09-.34-6.16-.78-6.15-.85-12.24-2l.45-.08s-.08.06-.13.13a2.92 2.92 0 0 0-.21.24 5.72 5.72 0 0 0-.38.59 13.06 13.06 0 0 0-.67 1.32c-.4.92-.71 1.89-1 2.87s-.57 2-.83 3l-.72 3q.05-1.56.22-3.12c0-.52.12-1 .19-1.56s.18-1 .27-1.55.21-1 .35-1.54.29-1 .46-1.53a12.24 12.24 0 0 1 .64-1.51 6.92 6.92 0 0 1 .44-.74 4.28 4.28 0 0 1 .28-.36l.17-.18a1.45 1.45 0 0 1 .27-.22l.18-.12h.27q6.15.85 12.24 2 3.05.56 6.09 1.22c1 .21 2 .45 3 .69s2.01.51 3.01.79zm6.75 12.45s-2.14 2.36-1.29 7.91c0 0-1.38-4.78 0-8zm-39.54-7.5s-1.14 6.18-1.46 8.95l-1.76-9.47z"/><circle class="cls-4" cx="206.24" cy="113" r="8" transform="matrix(.16 -.99 .99 .16 61.54 298.38)"/><circle class="cls-2" cx="206.24" cy="113" r="4.13" transform="rotate(-80.74 206.254 112.997)"/><path class="cls-4" d="M88.44 95.51l7.67 9.49a.72.72 0 0 1 .15.56l-.77 4.72a.72.72 0 0 1-1.25.34l-13.7-16.4zm28.72-.12l7.84-4.66a.72.72 0 0 0 .34-.5l.48-3a.72.72 0 0 0-.95-.79l-17.82 6.39zM46.1 88.8l6.9 18.59a.72.72 0 0 1 0 .61l-1.56 2.71a.72.72 0 0 1-1.24 0L35.84 85.43z"/><path class="cls-2" d="M105.09 92.53l7.53 1.23-5.27-2.39-2.26 1.16zm-24.92 3.99l7.36 1.2-5.37.31-1.99-1.51zm-44.19-7.01l7.15 1.17-5.98.97-1.17-2.14z"/><circle class="cls-4" cx="128.99" cy="84.99" r="8" transform="rotate(-80.74 128.999 84.988)"/><circle class="cls-2" cx="128.99" cy="84.99" r="4.13" transform="rotate(-80.74 128.999 84.988)"/><circle class="cls-4" cx="100.45" cy="111.96" r="8" transform="rotate(-80.74 100.455 111.96)"/><circle class="cls-2" cx="100.45" cy="111.96" r="4.13" transform="rotate(-80.74 100.455 111.96)"/><circle class="cls-4" cx="56.56" cy="114.12" r="8" transform="rotate(-80.74 56.563 114.129)"/><circle class="cls-2" cx="56.56" cy="114.12" r="4.13" transform="matrix(.16 -.99 .99 .16 -65.18 151.59)"/><path class="cls-2" d="M160.86 85.46l9.19 1.49-.31-1.31-9.63-1.69.75 1.51z"/><path class="cls-4" d="M338.81 162.36a3.16 3.16 0 0 0-.18-.32L332 150.83c-.29-.49-.19-.67.37-.72s.93-.08 1.39-.14a.54.54 0 0 0 .44-.86l-.12-.2-5.27-9-.12-.2c-.18-.34-.12-.47.26-.55l.59-.1c.66-.1.82-.42.48-1l-1.86-3.22-2-3.39c-.19-.33-.15-.45.23-.57h.13c.55-.17.67-.46.39-.94l-3.7-6.41c-.25-.43-.64-.43-.89 0s-.52.9-.78 1.35l-2.89 5c-.32.56-.22.83.39 1h.06c.42.13.46.24.25.61l-1.66 2.87-2.13 3.64c-.33.57-.16.89.49 1 .21 0 .42.06.62.11.36.08.41.22.24.54l-.12.2c-1.76 3-3.5 6-5.28 9-.38.64-.15 1.11.56 1.1a10.19 10.19 0 0 1 1.29.12c.39 0 .5.24.32.59 0 .09-.1.17-.15.26l-6.65 11.18a.66.66 0 0 0-.08.74c.15.25.4.24.64.24h30.93a.53.53 0 0 0 .44-.72zm34.62.13a2.61 2.61 0 0 0-.15-.26l-5.51-9.23c-.24-.4-.16-.55.31-.59l1.15-.12a.45.45 0 0 0 .37-.72l-.1-.17-4.36-7.47-.1-.17c-.15-.28-.1-.39.22-.46l.49-.08c.55-.08.68-.35.4-.84l-1.54-2.66-1.61-2.85c-.16-.28-.12-.37.19-.47h.1c.45-.14.55-.38.32-.78l-3.06-5.3c-.21-.36-.53-.36-.74 0l-.65 1.12-2.39 4.14c-.27.46-.18.69.32.84h.05c.35.11.38.2.21.5l-1.35 2.35-1.78 3.09c-.27.47-.13.74.4.82l.51.09c.29.07.34.18.2.45l-.1.17c-1.45 2.49-2.89 5-4.36 7.47-.31.53-.12.92.47.91a8.43 8.43 0 0 1 1.07.1c.33 0 .41.2.26.49l-.12.21-5.5 9.25a.55.55 0 0 0-.07.61c.13.21.33.2.53.2h25.58a.43.43 0 0 0 .34-.64z"/><path class="cls-4" d="M383.72 162.76a1.57 1.57 0 0 0-.08-.15l-2.94-5.41c-.13-.23-.08-.32.17-.35l.61-.07c.22 0 .3-.2.2-.42l-.05-.1-2.32-4.36-.05-.1c-.08-.16-.05-.23.12-.27h.26c.29 0 .36-.21.21-.49l-.82-1.55-.86-1.64c-.09-.16-.06-.22.1-.28h.06c.24-.08.3-.22.17-.46l-1.65-3.11c-.11-.21-.28-.21-.39 0l-.34.65-1.29 2.35c-.14.27-.1.4.17.49.19.06.21.12.11.29l-.73 1.39-1 1.8c-.14.27-.07.43.22.48l.27.05c.16 0 .18.1.1.26l-.05.1c-.77 1.45-1.54 2.91-2.33 4.35-.17.31-.07.54.25.53a4.13 4.13 0 0 1 .57.06c.17 0 .22.12.14.29l-.07.12-2.94 5.4a.34.34 0 0 0 0 .36c.07.12.18.12.28.12h13.65a.25.25 0 0 0 .25-.33zm-30.65-.59c0-.14-.1-.26-.15-.39l-5.63-13.92c-.24-.6-.16-.83.32-.89s.78-.1 1.17-.18.57-.52.37-1.07l-.1-.25-4.45-11.21-.1-.25c-.15-.42-.1-.59.22-.69l.5-.12c.56-.13.69-.53.4-1.26l-1.57-4-1.65-4.21c-.16-.42-.12-.55.2-.71h.11c.46-.21.57-.57.33-1.17l-3.13-8c-.21-.54-.54-.54-.76 0s-.44 1.12-.66 1.68l-2.44 6.21c-.27.69-.18 1 .33 1.26h.05c.35.17.39.3.21.76l-1.4 3.57-1.81 4.67c-.27.7-.14 1.11.41 1.23.18 0 .35.08.52.13s.35.27.2.67l-.1.25c-1.48 3.74-3 7.48-4.46 11.2-.32.79-.13 1.38.48 1.37a6 6 0 0 1 1.09.15c.33.06.42.3.27.73 0 .11-.08.21-.13.32l-5.62 13.88a1.14 1.14 0 0 0-.07.92c.13.32.34.3.54.3h25.87a1.64 1.64 0 0 0 .25 0c.32-.08.53-.52.39-.98zm-320.97.19a3.16 3.16 0 0 0-.18-.32l-6.67-11.21c-.29-.49-.19-.67.37-.72s.94-.11 1.38-.11a.54.54 0 0 0 .44-.86l-.12-.2-5.27-9-.12-.2c-.18-.34-.12-.47.26-.55l.59-.1c.66-.1.82-.42.48-1l-1.86-3.22-2-3.39c-.19-.33-.15-.45.23-.57h.13c.55-.17.67-.46.39-.94l-3.7-6.41c-.25-.43-.64-.43-.89 0s-.52.9-.78 1.35l-2.89 5c-.32.56-.22.83.39 1h.06c.42.13.46.24.25.61L11 134.29 8.85 138c-.33.57-.16.89.49 1 .21 0 .42.06.62.11.36.08.41.22.24.54l-.12.2c-1.76 3-3.5 6-5.28 9-.38.64-.15 1.11.56 1.1a10.19 10.19 0 0 1 1.29.12c.39 0 .5.24.32.59 0 .09-.1.17-.15.26L.17 162.15a.66.66 0 0 0-.08.74c.15.25.4.24.64.24h30.92a.53.53 0 0 0 .45-.77zm34.62.13a2.61 2.61 0 0 0-.15-.26L61.06 153c-.24-.4-.16-.55.31-.59l1.15-.12a.45.45 0 0 0 .37-.72l-.1-.17-4.36-7.47-.1-.17c-.15-.28-.1-.39.22-.46l.49-.08c.55-.08.68-.35.4-.84l-1.54-2.66-1.62-2.81c-.16-.28-.12-.37.19-.47h.1c.45-.14.55-.38.32-.78l-3.06-5.3c-.21-.36-.53-.36-.74 0l-.65 1.12-2.39 4.14c-.27.46-.18.69.32.84h.05c.35.11.38.2.21.5l-1.37 2.38-1.78 3.09c-.27.47-.13.74.4.82l.51.09c.29.07.34.18.2.45l-.1.17c-1.45 2.49-2.89 5-4.36 7.47-.31.53-.12.92.47.91a8.43 8.43 0 0 1 1.07.1c.33 0 .41.2.26.49l-.12.21-5.5 9.25a.55.55 0 0 0-.07.61c.13.21.33.2.53.2h25.58a.43.43 0 0 0 .37-.71z"/><path class="cls-4" d="M77 162.76a1.57 1.57 0 0 0-.08-.15L74 157.2c-.13-.23-.08-.32.17-.35l.61-.07c.22 0 .3-.2.2-.42l-.05-.1-2.32-4.36-.05-.1c-.08-.16-.05-.23.12-.27h.26c.29 0 .36-.21.21-.49l-.82-1.55-.86-1.64c-.09-.16-.06-.22.1-.28h.06c.24-.08.3-.22.17-.46L70.14 144c-.11-.21-.28-.21-.39 0l-.34.65-1.29 2.35c-.14.27-.1.4.17.49.19.06.21.12.11.29l-.73 1.39-1 1.8c-.14.27-.07.43.22.48l.27.05c.16 0 .18.1.1.26l-.05.1c-.77 1.45-1.54 2.91-2.33 4.35-.17.31-.07.54.25.53a4.13 4.13 0 0 1 .57.06c.17 0 .22.12.14.29l-.07.12-2.94 5.4a.34.34 0 0 0 0 .36c.07.12.18.12.28.12h13.71a.25.25 0 0 0 .18-.33zm20-.06c0-.06-.05-.12-.08-.18l-2.94-6.34c-.13-.28-.08-.38.17-.41l.61-.08c.22 0 .3-.24.2-.49l-.05-.11-2.38-5.09-.05-.11c-.08-.19-.05-.27.12-.31l.26-.06c.29-.06.36-.24.21-.58l-.82-1.82-.86-1.92c-.09-.19-.06-.25.1-.32h.06c.24-.09.3-.26.17-.53l-1.63-3.63c-.11-.25-.28-.25-.39 0l-.34.76-1.27 2.83c-.14.32-.1.47.17.57.19.08.21.14.11.34l-.73 1.63-1 2.11c-.14.32-.07.51.22.56l.27.06c.16 0 .18.12.1.31l-.05.11c-.77 1.7-1.54 3.41-2.33 5.1-.17.36-.07.63.25.62a3.54 3.54 0 0 1 .57.07c.17 0 .22.14.14.33l-.07.15-2.94 6.32a.46.46 0 0 0 0 .42c.07.14.18.14.28.14h13.68c.18-.04.24-.24.24-.45zm-50.64-.53c0-.14-.1-.26-.15-.39l-5.63-13.92c-.24-.6-.16-.83.32-.89s.78-.1 1.17-.18.57-.52.37-1.07l-.1-.25-4.44-11.21-.1-.25c-.15-.42-.1-.59.22-.69l.5-.12c.56-.13.69-.53.4-1.26l-1.57-4-1.65-4.21c-.16-.42-.12-.55.2-.71h.11c.46-.21.57-.57.33-1.17l-3.13-8c-.21-.54-.54-.54-.76 0s-.44 1.12-.66 1.68l-2.44 6.21c-.27.69-.18 1 .33 1.26h.05c.35.17.39.3.21.76l-1.4 3.57-1.82 4.67c-.27.7-.14 1.11.41 1.23.18 0 .35.08.52.13s.35.27.2.67l-.1.25c-1.48 3.74-3 7.48-4.46 11.2-.32.79-.13 1.38.48 1.37a6 6 0 0 1 1.09.15c.33.06.42.3.27.73 0 .11-.08.21-.13.32l-5.62 13.88a1.14 1.14 0 0 0-.07.92c.13.32.34.3.54.3h25.88a1.64 1.64 0 0 0 .25 0c.34-.08.52-.52.38-.98z"/><path class="cls-5" d="M25.36 163.13h71.59m209.93 0h63.26"/></g><rect class="cls-6" x="25.97" y="25.97" width="335.1" height="335.1" rx="37.95" ry="37.95"/><path class="cls-4" d="M187.64 152.73l-1.9-.56a10.65 10.65 0 0 1 18.77-3.31l-1.6 1.18a8.66 8.66 0 0 0-15.27 2.69z"/><path class="cls-4" d="M204.72 150.7l-4.5-.64.21-1.47 2.92.41.2-2.94 1.49.1-.32 4.54zm-9.02 13.09a10.69 10.69 0 0 1-8.56-4.32l1.6-1.18A8.66 8.66 0 0 0 204 155.6l1.9.56a10.7 10.7 0 0 1-10.2 7.63z"/><path class="cls-4" d="M188.09 162.28l-1.48-.11.31-4.54 4.51.64-.21 1.48-2.92-.42-.21 2.95zm68.82-85.82l-1.39-.46a7.75 7.75 0 0 1 13.67-2.41l-1.19.91a6.31 6.31 0 0 0-11.12 2z"/><path class="cls-4" d="M269.35 74.98l-3.29-.46.16-1.08 2.12.3.15-2.14 1.08.07-.22 3.31zm-6.57 9.53a7.79 7.79 0 0 1-6.23-3.14l1.16-.86a6.31 6.31 0 0 0 11.12-2l1.39.41a7.79 7.79 0 0 1-7.44 5.59z"/><path class="cls-4" d="M257.24 83.41l-1.09-.08.23-3.3 3.29.46-.16 1.08-2.13-.3-.14 2.14zm-7.36 150.12l-1.18-.35a6.61 6.61 0 0 1 11.65-2.05l-1 .73a5.38 5.38 0 0 0-9.48 1.67z"/><path class="cls-4" d="M260.48 232.27l-2.8-.4.13-.91 1.82.26.12-1.83.93.06-.2 2.82zm-5.6 8.13a6.64 6.64 0 0 1-5.31-2.68l1-.73a5.38 5.38 0 0 0 9.48-1.67l1.18.35a6.64 6.64 0 0 1-6.35 4.73z"/><path class="cls-4" d="M250.16 239.46l-.93-.07.2-2.82 2.8.4-.13.92-1.82-.26-.12 1.83zM91.93 306.32l-1.19-.32a6.61 6.61 0 0 1 11.65-2.05l-1 .73a5.38 5.38 0 0 0-9.48 1.67z"/><path class="cls-4" d="M102.53 305.06l-2.8-.39.13-.92 1.81.26.13-1.83.92.07-.19 2.81zm-5.6 8.13a6.64 6.64 0 0 1-5.31-2.68l1-.73a5.38 5.38 0 0 0 9.48-1.67l1.18.35a6.64 6.64 0 0 1-6.35 4.73z"/><path class="cls-4" d="M92.21 312.25l-.93-.07.2-2.81 2.8.39-.13.92-1.82-.26-.12 1.83zm268.46-138.47l-70.76-1.5 70.76-1.5v3zm-333.7 152.3l52.89 2-52.89 2v-4zm-1-141.5l43.32 1.5-43.32 1.5v-3zm330.87 157.94l-63.98-2 63.98-2v4zm4.23-17.41l-50.54-2 50.54-2v4zm-.4-96.28l-30.88-1.5 30.88-1.5v3z"/><path class="cls-2" d="M195.12 219.41s-.26 4-.25 10.09c0 3 .09 6.54.35 10.29.11 1.88.32 3.81.52 5.77s.5 3.94.86 5.9.73 3.92 1.25 5.81 1 3.74 1.66 5.5c.3.88.68 1.71 1 2.56s.72 1.62 1.07 2.4l1.16 2.2 1.2 2a37.37 37.37 0 0 0 2.42 3.28c.74 1 1.54 1.68 2.13 2.34s1.16 1.06 1.51 1.38l.54.49-.61-.4c-.39-.27-1-.62-1.7-1.17a26.09 26.09 0 0 1-2.43-2.12 29.45 29.45 0 0 1-2.8-3.14l-1.4-2-1.34-2.21c-.41-.78-.84-1.58-1.25-2.42s-.78-1.71-1.13-2.61a50.86 50.86 0 0 1-1.88-5.63c-.55-1.94-1-4-1.35-6s-.61-4-.81-6-.31-4-.36-5.88 0-3.76 0-5.5.14-3.4.27-4.92a73.83 73.83 0 0 1 1.37-10.01zm63.06 46.67s-.56.54-1.45 1.56a43.28 43.28 0 0 0-3.36 4.41c-.62 1-1.27 2-1.89 3.16a38.63 38.63 0 0 0-1.74 3.69 37.65 37.65 0 0 0-1.4 4.11 31.72 31.72 0 0 0-.88 4.38 33.2 33.2 0 0 0-.35 4.46v2.2l.16 2.15.27 2.07c.09.68.24 1.33.35 2s.28 1.25.42 1.86.26 1.19.43 1.73c.33 1.1.6 2.12.92 3s.54 1.67.8 2.29l.74 2s-.41-.66-1.1-1.83c-.36-.58-.73-1.32-1.15-2.17a31.57 31.57 0 0 1-1.3-2.92 33.92 33.92 0 0 1-1.21-3.6c-.17-.66-.36-1.32-.51-2s-.27-1.42-.4-2.15l-.27-2.25c0-.76-.1-1.54-.11-2.32a34.56 34.56 0 0 1 .3-4.73 33.69 33.69 0 0 1 1-4.64 31.22 31.22 0 0 1 1.65-4.28 29.17 29.17 0 0 1 2.07-3.74 30.73 30.73 0 0 1 2.25-3.08 29.65 29.65 0 0 1 4-4 16.4 16.4 0 0 1 1.76-1.36z"/></svg>