<svg id="Layer_1" data-name="Layer 1" xmlns="http://www.w3.org/2000/svg" viewBox="0 0 232.32 250.19"><defs><style>.cls-1{fill:#79af33;}.cls-2{fill:#333;}.cls-3{fill:none;stroke:#333;stroke-linecap:round;stroke-linejoin:round;stroke-width:23.83px;}</style></defs><title>hw-icon-upload</title><path class="cls-1" d="M116.54,198a11.8,11.8,0,0,1-11.92-11.67V114.66H74.84a12.1,12.1,0,0,1-9.09-20l58.38-65.51a12.62,12.62,0,0,1,8.58-4h.48a11.94,11.94,0,0,1,8.34,3.33L208.24,94a12,12,0,0,1,2.62,13.1,11.87,11.87,0,0,1-11,7.39H170.15V186a11.79,11.79,0,0,1-11.67,11.92H116.54Z" transform="translate(-21.34 -13.36)"/><path class="cls-2" d="M133.22,37.19l66.71,65.52H158.24v83.4h-41.7v-83.4H74.84l58.38-65.52m0-23.83h-.72a24.17,24.17,0,0,0-16.92,7.86L57.21,86.75A23.69,23.69,0,0,0,74.84,126.3H92.75v59.57a23.9,23.9,0,0,0,23.79,23.79h41.7a23.87,23.87,0,0,0,23.82-23.83V126.3h17.87a24.18,24.18,0,0,0,22.16-14.77,23.52,23.52,0,0,0-5.48-26L149.9,20a24.29,24.29,0,0,0-16.68-6.67Z" transform="translate(-21.34 -13.36)"/><polyline class="cls-3" points="11.91 196.58 11.91 238.27 220.41 238.27 220.41 196.58"/></svg>