<svg id="Layer_1" data-name="Layer 1" xmlns="http://www.w3.org/2000/svg" viewBox="0 0 436.92 468.04"><defs><style>.cls-1,.cls-10,.cls-11,.cls-5,.cls-6,.cls-7,.cls-8,.cls-9{fill:none}.cls-2{fill:#d9374a}.cls-3{clip-path:url(#clip-path)}.cls-4{fill:#e9ebec}.cls-11,.cls-5,.cls-7{stroke:#e9ebec}.cls-5,.cls-6,.cls-7,.cls-8,.cls-9{stroke-miterlimit:10}.cls-5{stroke-width:6px}.cls-10,.cls-6,.cls-8,.cls-9{stroke:#d9374a}.cls-6,.cls-7{stroke-width:4px}.cls-8{stroke-width:1.5px}.cls-10,.cls-11{stroke-linejoin:round}.cls-11{stroke-width:2px}</style><clipPath id="clip-path"><path class="cls-1" d="M19.3 220.51L201.53 25.45a20.91 20.91 0 0 1 33.86 0l182.23 195.06a20.91 20.91 0 0 1 0 24.54L235.39 442.59a20.91 20.91 0 0 1-33.86 0L19.3 245a20.91 20.91 0 0 1 0-24.49z"/></clipPath></defs><title>Artboard 17</title><path class="cls-2" d="M6.15 213.82L192.3 13.35a32.31 32.31 0 0 1 52.32 0l186.15 200.47a32.31 32.31 0 0 1 0 37.91l-186.15 203a32.31 32.31 0 0 1-52.32 0l-186.15-203a32.31 32.31 0 0 1 0-37.91z"/><g class="cls-3"><path class="cls-2" d="M185.82 443.3s-25.18-15.3-17.61-48.93a87 87 0 0 1 9.13-22.43 31.06 31.06 0 0 0 4.19-20.65s11.88 8.63 8.48 30.44c0 0 3.32-15.33 20.31-24 8.37-4.27 16.66-20.21 14.26-30.89 0 0 41.47 27.64 18.56 72.5a28.08 28.08 0 0 0 15.51-15.83s6.8 67.72-51.4 67.22z"/><path class="cls-2" d="M215.71 452.2s-27.61-10.31-26.49-44.75a87 87 0 0 1 4.78-23.74 31.06 31.06 0 0 0 .24-21.07s13.29 6.25 14 28.31c0 0 .38-15.68 15.44-27.38 7.42-5.76 12.57-23 8.21-33 0 0 45.92 19.36 31.84 67.73A28.08 28.08 0 0 0 276 379.83s19.4 65.23-37.87 75.67z"/><path class="cls-4" d="M207.71 447.53s-27.61-10.31-26.49-44.75A87 87 0 0 1 186 379a31.06 31.06 0 0 0 .24-21.07s13.29 6.25 14 28.31c0 0 .38-15.68 15.44-27.38 7.42-5.76 12.57-23 8.21-33 0 0 45.92 19.36 31.84 67.73A28.08 28.08 0 0 0 268 375.16s19.4 65.23-37.87 75.67z"/><path class="cls-2" d="M207.71 447.53s-23.78-16.52.66-40.1c0 0 .15 15.17 7.27 18.39 0 0-9.72-32.62 17.46-51.68 0 0-3.58 13.23 4 28.89s17.57 36.58-7 47.8"/></g><path class="cls-4" d="M65.28 173.34h306.5v8.82H65.28z"/><path class="cls-2" d="M217.57 169.67s-19.39.52-41.89 19.77l-10.37-3.12 18.13-11.65 19.21-5.93 13.17-1.79z"/><path class="cls-4" d="M121.09 158c-.8 4.89-4.85 23.74-20.29 29.26v133.68l10.36 9.62v-137.1s14.79-4.41 21-36.23a1.7 1.7 0 0 0-2-2l-7.74 1.38a1.68 1.68 0 0 0-1.33 1.39z"/><path class="cls-4" d="M111.16 193.46s-20.16 2.1-22.69-32.4l7.33-8.5s1.13 36 22 36.34"/><path class="cls-2" d="M109.36 182.16a24.8 24.8 0 0 1-6.81 4.57s2.91-2.05 2.92-4.57z"/><path class="cls-2" d="M109.16 182.16l-16.67 1.77 1.34-1.77h15.33z"/><path class="cls-2" d="M102.55 186.72s8.93-2.83 15.12-16.9h-3.5a36.5 36.5 0 0 1-11.62 16.9zm-1.1-13.38H89.39v-.28l12.06-1.23v1.51zm6.23 19.86s4.3.08 6.8-1.51l-3.31 2.62z"/><path class="cls-4" d="M107.68 210.56l8.7-8.54a.44.44 0 0 1 .31-.12h2.05a.44.44 0 0 1 .34.71l-11.4 14.29z"/><path class="cls-2" d="M112.07 211.38l-4.4 5.51 4.4-3.02v-2.49zm-.45-4.69l-1.75 1.71 1.75-3.15v1.44z"/><path class="cls-4" d="M103.13 254.56L90.48 243a.63.63 0 0 0-.42-.16h-3.41a.63.63 0 0 0-.48 1l16.39 19.64zm301 5l-283.99-1.5 283.99-1.5v3z"/><path class="cls-2" d="M320.86 252.65h17.68v10.46h-17.68zm-222.85 5.46l6.8 8.19-6.8-3.78v-4.41zm2-6.39l3.13 2.84-3.13-6v3.16z"/><path class="cls-4" d="M344.76 158c-.8 4.89-4.85 23.74-20.29 29.26v151.8l10.36-8.5v-137.1s14.79-4.41 21-36.23a1.7 1.7 0 0 0-2-2l-7.74 1.38a1.68 1.68 0 0 0-1.33 1.39z"/><path class="cls-4" d="M334.83 193.46s-20 2.07-22.65-31.86a1.33 1.33 0 0 1 .31-1l4.92-5.7a1.3 1.3 0 0 1 2.28.72c.83 8.74 4.68 33 21.78 33.24"/><path class="cls-2" d="M317.78 160.67a18.05 18.05 0 0 1 .83 1.89 41.13 41.13 0 0 1 1.39 4.24c.41 1.55.74 3.13.94 4.33.11.6.17 1.11.21 1.47s.05.57.05.57a11 11 0 0 1-1.08-1.77 21.57 21.57 0 0 1-1.57-4.22 23.66 23.66 0 0 1-.73-4.43 12.54 12.54 0 0 1-.04-2.08zm-224.06 0a18.05 18.05 0 0 1 .83 1.89 41.13 41.13 0 0 1 1.35 4.23c.41 1.55.74 3.13.94 4.33.11.6.17 1.11.21 1.47s.05.57.05.57a11 11 0 0 1-1.1-1.76 21.57 21.57 0 0 1-1.57-4.22 23.66 23.66 0 0 1-.73-4.43 12.54 12.54 0 0 1 .02-2.08zM333 182.16a24.8 24.8 0 0 1-6.81 4.57s2.91-2.05 2.92-4.57z"/><path class="cls-2" d="M332.83 182.16l-16.67 1.77 1.34-1.77h15.33z"/><path class="cls-2" d="M326.22 186.72s8.93-2.83 15.12-16.9h-3.5a36.5 36.5 0 0 1-11.62 16.9zm-1.11-13.38h-12.06v-.28l12.06-1.23v1.51zm6.23 19.86s4.3.08 6.8-1.51l-3.31 2.62z"/><path class="cls-4" d="M329.62 208.39l-6.47-7.11a.6.6 0 0 0-.78-.09l-1.26.87a.6.6 0 0 0-.16.82l8.66 13z"/><path class="cls-2" d="M324.07 202.29l2.41 2.65-2.76-5.72.35 3.07zm-.09 5.13l4.83 7.24-5.09-4.6.26-2.64z"/><path class="cls-4" d="M331.34 230.31l6.69-4.47a.41.41 0 0 1 .23-.07h2.16a.41.41 0 0 1 .31.68l-9.38 10.45z"/><path class="cls-2" d="M335.71 227.38l-2.48 1.67 2.07-3.29.41 1.62zm.38 4.24l-4.75 5.28 4.37-2.64.38-2.64z"/><path class="cls-4" d="M330.42 293.53L343.07 282a.63.63 0 0 1 .42-.16h3.41a.63.63 0 0 1 .48 1L331 302.53z"/><path class="cls-2" d="M335.54 297.08l-6.8 8.19 6.8-3.78v-4.41zm0-8.22l-2.68 2.45 2.38-4.75.3 2.3zM140.8 252.31l-3.32 10.8h6.32l2.38-9.55-5.38-1.25zm195.29-64.4a6.87 6.87 0 0 0 .86-.55c.27-.18.56-.44.91-.72s.7-.64 1.07-1 .75-.85 1.17-1.31.79-1 1.17-1.57.77-1.14 1.14-1.76a21.31 21.31 0 0 0 1.08-1.88c.37-.62.68-1.29 1-1.93s.63-1.28.9-1.92.58-1.23.8-1.82.47-1.14.69-1.65c.43-1 .75-1.9 1-2.5s.42-.95.42-.95 0 .37-.13 1l-.18 1.17a14.8 14.8 0 0 1-.3 1.51c-.13.55-.28 1.14-.46 1.77a20.18 20.18 0 0 1-.63 1.94 18.15 18.15 0 0 1-.81 2c-.31.68-.61 1.37-1 2a22.61 22.61 0 0 1-1.17 1.95 17.57 17.57 0 0 1-1.31 1.78 17.88 17.88 0 0 1-1.4 1.53 14.43 14.43 0 0 1-1.42 1.2 11.45 11.45 0 0 1-1.31.86 9.28 9.28 0 0 1-1.09.51 5 5 0 0 1-.74.24zm-226.22 1.52s.25-.1.65-.3c.2-.11.44-.23.7-.39s.55-.35.87-.55.63-.45 1-.72.66-.57 1-.86.66-.66 1-1 .67-.71 1-1.11a14.35 14.35 0 0 0 .9-1.16c.26-.41.59-.77.82-1.18s.51-.77.74-1.14.43-.73.63-1.05c.42-.65.69-1.23.95-1.61s.39-.61.39-.61 0 .26-.11.71a12.19 12.19 0 0 1-.44 1.86 14.25 14.25 0 0 1-1 2.51 11.44 11.44 0 0 1-.77 1.33 15 15 0 0 1-.94 1.29c-.33.43-.73.79-1.09 1.18a13.76 13.76 0 0 1-1.2 1 10.44 10.44 0 0 1-2.42 1.33 7.84 7.84 0 0 1-1.88.46 4.22 4.22 0 0 1-.8.01z"/><path class="cls-4" d="M204.5 366.79s0-13.09-2.78-16.24 3.41 5.07 11.71 6.78c0 0-7.95 6.53-8.93 9.46z"/><path class="cls-5" d="M150.5 245.31h-12.58a1.62 1.62 0 0 1-1.62-1.71 82.31 82.31 0 0 1 164.32 0 1.62 1.62 0 0 1-1.62 1.71h-12.58"/><path class="cls-2" d="M141.43 249.43l4.75-4.87-2.93 6.19-1.82-1.32zm154.2-.37l-5.16-4.5 2.58 5.5 2.58-1z"/><path class="cls-4" d="M268.1 232.28h13.81c-49.94-13.28-111.78-2.55-125.18.06h18.58c22.23-3.08 58.99-6.2 92.79-.06z"/><path class="cls-2" d="M154.38 243.84a79.48 79.48 0 1 0 140.4-.07 6.67 6.67 0 0 0-5.9-3.5l-128.61.06a6.67 6.67 0 0 0-5.89 3.51z"/><path class="cls-4" d="M148.38 238.84a79.48 79.48 0 1 0 140.4-.07 6.67 6.67 0 0 0-5.9-3.5l-128.61.06a6.67 6.67 0 0 0-5.89 3.51z"/><path class="cls-6" d="M218.96 237.27v118.32m-81.48-79.3h161.96m-151.18 41.02h140.68M219 355.59s41.64-15.11 41.76-79.48c0-15.5-2.37-28.15-6-38.41m-36.04 117.89s-41.63-15.11-41.72-79.48c0-15.9 2.5-28.8 6.33-39.21"/><path class="cls-7" d="M154.28 237.46h128.61"/><path class="cls-2" d="M226.3 169.77l39.5 3.57h-28.5l-11-3.57zm56.59 83.79l.36.92c.23.6.56 1.49.91 2.65s.76 2.57 1.16 4.2.79 3.5 1.09 5.56c.18 1 .3 2.1.45 3.21s.24 2.27.31 3.46a74.15 74.15 0 0 1-.49 15.55 80.86 80.86 0 0 1-1.58 8.19c-.39 1.34-.76 2.69-1.19 4s-.86 2.65-1.41 3.91-1 2.55-1.62 3.76-1.15 2.42-1.81 3.56-1.23 2.29-1.94 3.33-1.32 2.11-2.05 3.06-1.35 1.94-2.08 2.8l-2.09 2.5c-1.41 1.53-2.69 2.94-3.94 4.08s-2.29 2.16-3.26 2.9c-1.89 1.51-3 2.34-3 2.34s.93-1 2.57-2.77c.84-.85 1.73-2 2.83-3.25.56-.61 1.09-1.32 1.65-2.06s1.19-1.49 1.79-2.31c1.17-1.67 2.44-3.46 3.64-5.45.64-1 1.2-2 1.79-3.08.29-.54.61-1.06.89-1.61l.84-1.68c.59-1.12 1.1-2.29 1.61-3.49s1-2.42 1.47-3.65.86-2.51 1.31-3.77.74-2.58 1.1-3.87a77.92 77.92 0 0 0 1.62-7.86c.42-2.62.7-5.22.89-7.74s.27-5 .23-7.31-.09-4.53-.24-6.57c-.28-4.07-.73-7.46-1.12-9.82-.2-1.18-.36-2.11-.49-2.74zm-142.21-15l-2.89 5.54 4.51-2.98-1.62-2.56zm155.96 0l2.89 5.54-4.51-2.98 1.62-2.56zm-35.92 150.92s-3.76 4.49-8.26 5.2l5.67-5.2zm-58.9-10.98s-3 8.72-1.51 16.89c0 0-3.49-27.34-6.09-32.75z"/><path class="cls-4" d="M184.37 377.34s-3.77 7.6-4 9.59c0 0-.13-10.83-2.47-15.36-.01 0 5.48 1.43 6.47 5.77zM258 359.11s4.69 10.28 4.4 14.15a69 69 0 0 0 6.27-25.26s-4.62 9.56-10.67 11.11zm-10.3-136.05L239.63 203a4.76 4.76 0 0 1 2.64-6.19l12.28-4.94 8.06 20 2.69 6.68L231.89 232l-2.69-6.68-8.06-20 12.28-4.94a4.76 4.76 0 0 1 6.19 2.64l6.65 16.55"/><path class="cls-8" d="M229.2 225.32l12.25-4.92a4.8 4.8 0 0 1 6.24 2.66m16.03-11.61l-13.36 5.37a4.8 4.8 0 0 0-2.66 6.24m.89 2.23l-1.34-3.34m-20.52-12.45l8.9-3.58m-7.11 8.04l8.9-3.58m-7.11 8.03l8.9-3.58m-9.8 1.36l8.91-3.58m-10.7-.88l8.91-3.58m8.01-5.81l8.91-3.58m-8.01 5.81l8.9-3.58m-7.11 8.03l8.9-3.58m-9.8 1.36l8.91-3.58m-7.12 8.03l4.46-1.79m-4.88 13.6l-10.3-25.61"/><rect class="cls-4" x="238.82" y="102.85" width="26.65" height="26.65" rx="2.22" ry="2.22" transform="rotate(-84.01 252.129 116.182)"/><path class="cls-9" d="M242.85 119.66l17.66 1.86"/><circle class="cls-2" cx="242.75" cy="104.58" r=".56" transform="rotate(-84.01 242.74 104.59)"/><circle class="cls-2" cx="245.52" cy="104.87" r=".56" transform="rotate(-84.01 245.5 104.874)"/><circle class="cls-2" cx="248.28" cy="105.16" r=".56" transform="rotate(-84.01 248.262 105.169)"/><path class="cls-9" d="M244.01 108.62l8.83.93m-10.23 12.32l13.26 1.39m-12.1-12.43l13.26 1.39m-9.07 1.28l13.25 1.39m-13.72 3.03l8.84.93m-8.6-3.14l4.41.46"/><rect class="cls-4" x="211.76" y="129.57" width="5.08" height="20.34" rx=".85" ry=".85" transform="rotate(-86.22 214.286 139.743)"/><rect class="cls-4" x="210.86" y="143.1" width="5.08" height="20.34" rx=".85" ry=".85" transform="rotate(-86.22 213.397 153.272)"/><rect class="cls-4" x="211.31" y="136.34" width="5.08" height="20.34" rx=".85" ry=".85" transform="rotate(-86 214.51 145.935)"/><path class="cls-9" d="M221.46 147.01l-4.22-.28m3.78 7.04l-4.23-.28m5.12-13.25l-4.23-.28"/><path class="cls-4" d="M195.01 92.66l10.8-1.58 5.51 4.34-8.5 13-11.85-10.03 4.04-5.73z"/><path class="cls-9" d="M211.32 95.42l-20.36 2.97"/><path class="cls-10" d="M205.46 96.28l-2.64 12.14-5.99-10.88 3.58-5.67 5.05 4.41z"/><rect class="cls-4" x="172.22" y="190.63" width="18.57" height="18.57" rx="3.09" ry="3.09" transform="rotate(-74.11 181.508 199.912)"/><path class="cls-2" transform="rotate(-74.11 178.319 199.812)" d="M177.93 197.88h.77v3.87h-.77z"/><path class="cls-2" d="M183.68 205a3.09 3.09 0 1 1 3.82-2.13 3.1 3.1 0 0 1-3.82 2.13zm1.48-5.21a2.32 2.32 0 1 0 1.6 2.87 2.32 2.32 0 0 0-1.59-2.91z"/><path class="cls-2" transform="rotate(-74.11 187.2 202.535)" d="M184.29 202.15h5.8v.77h-5.8z"/><path class="cls-2" d="M174.77 202.02l4.91-7.03.48 8.56.79.23-.62-11.06-6.35 9.07.79.23z"/><path class="cls-4" d="M181.05 119.8l-10.47.92a2.71 2.71 0 0 1-1.72-.54l-.71-.6a2.71 2.71 0 0 0-1.71-.54l-4.39.39a1.4 1.4 0 0 0-1.26 1.51L162 135a.71.71 0 0 0 .77.65l20.23-1.73a.71.71 0 0 0 .65-.77l-1.06-12.08a1.4 1.4 0 0 0-1.54-1.27z"/><path class="cls-9" d="M182.61 121.7l-21.6 1.89"/><rect class="cls-4" x="220.15" y="52.58" width="28.97" height="16.41" rx="2" ry="2" transform="rotate(-17.11 234.596 60.783)"/><path class="cls-10" d="M219.8 61.82l11.99-3.69m3.7-1.14l11.99-3.69"/><path class="cls-10" transform="rotate(-17.11 233.89 58.468)" d="M231.99 55.59h3.86v5.79h-3.86z"/><path class="cls-10" d="M233.64 57.56l.57 1.85"/><path class="cls-10" transform="matrix(.96 -.29 .29 .96 -9.18 72.52)" d="M225.86 64.86h21.24v3.86h-21.24z"/><path class="cls-11" d="M226.68 54.65l-.57-1.85c-.31-1 1.15-2.38 3.25-3l3.43-1.06c2.1-.65 4.08-.35 4.39.67l.57 1.85"/><path class="cls-2" d="M227.11 220.13l5.9 14.68-8.61-13.58 2.71-1.1zm24.78 3.84l-19.11 7.68 25.3-5.93-6.19-1.75z"/><path class="cls-4" d="M218.46 27.81a9.81 9.81 0 0 1 8 4.09 11 11 0 0 0 .87 1.06L409 227.43a9.88 9.88 0 0 1 0 10.73l-181.71 197a11 11 0 0 0-.82 1 9.91 9.91 0 0 1-16 0 11 11 0 0 0-.82-1L27.9 238.15a9.88 9.88 0 0 1 0-10.73L209.57 33a11 11 0 0 0 .87-1.06 9.81 9.81 0 0 1 8-4.09m0-11a20.78 20.78 0 0 0-16.93 8.64L19.3 220.51a20.91 20.91 0 0 0 0 24.54l182.23 197.54a20.91 20.91 0 0 0 33.86 0L417.62 245a20.91 20.91 0 0 0 0-24.54L235.39 25.45a20.78 20.78 0 0 0-16.93-8.64z"/><path class="cls-4" d="M34.13 256.56l53.01 1.5-53.01 1.5v-3zm354 16.24l-39.33-1.5 39.33-1.5v3zm-260.66 80.79l42.54 2-42.54 2v-4zm10.01 12.2l27.82 2-27.82 2v-4zm186.99-24.73l-38.34-2 38.34-2v4zM64.3 286.93l28.19 2-28.19 2v-4z"/></svg>