<svg xmlns="http://www.w3.org/2000/svg" xmlns:xlink="http://www.w3.org/1999/xlink" viewBox="0 0 504 386"><defs><style>.a{fill:none;}.b{fill:#aea79f;opacity:0.5;}.c{fill:#64798a;}.d{fill:#ebf0f3;}.e{fill:#d5d6db;}.f{fill:#2f4859;}.g{fill:#fcd462;}.h{fill:#44c4a1;}.i{fill:#e56353;}.j{fill:#3a556a;}.k{fill:#fff;}.l{clip-path:url(#a);}.m{fill:#d15241;}.n{fill:#ce412d;}</style><clipPath id="a"><rect class="a" x="107" y="147.51" width="328" height="174"/></clipPath></defs><title>intro-img-workspace</title><path class="b" d="M468,310.63H445.77v-296c0-6.43-4.68-11.11-10.53-11.11H33.34A10.75,10.75,0,0,0,22.23,14.62v296H0v30.42H2L32.76,350H435.24L466,341.05h2Z"/><path class="c" d="M481.77,50.62v296H58.23v-296A10.75,10.75,0,0,1,69.34,39.51h401.9C477.09,39.51,481.77,44.19,481.77,50.62Z"/><rect class="d" x="36" y="346.64" width="468" height="30.42"/><polygon class="e" points="503.42 376.64 36.59 376.64 68.76 386 471.24 386 503.42 376.64"/><rect class="e" x="237.24" y="358.34" width="65.52" height="7.02"/><path class="f" d="M447.26,65.25H92.74A8.61,8.61,0,0,0,84,74v35.69H456.62V74C456.62,69.34,452.52,65.25,447.26,65.25Z"/><circle class="g" cx="360.68" cy="87.48" r="9.95"/><circle class="h" cx="396.95" cy="87.48" r="9.95"/><circle class="i" cx="433.8" cy="87.48" r="9.95"/><path class="d" d="M165.29,103.27h63.18L225,92.16a4.4,4.4,0,0,0-4.1-2.93H160a.57.57,0,0,0,.58.59Z"/><path class="j" d="M456.62,110.29H163.53a4.4,4.4,0,0,1-4.09-2.92l-5.27-14.63a4.4,4.4,0,0,0-4.09-2.92H103.86a4.4,4.4,0,0,0-4.09,2.92L94.5,107.37a4.4,4.4,0,0,1-4.09,2.92h-7v31H456v-31Z"/><path class="k" d="M151.25,129.6H110.88a4.1,4.1,0,0,1,0-8.19h40.36a4.1,4.1,0,0,1,0,8.19Z"/><path class="k" d="M220.86,129.6H180.5a4.1,4.1,0,1,1,0-8.19h40.36a4.1,4.1,0,1,1,0,8.19Z"/><path class="k" d="M290.48,129.6h-41a4.1,4.1,0,1,1,0-8.19h41a4.1,4.1,0,0,1,0,8.19Z"/><path class="k" d="M360.09,129.6H319.73a4.1,4.1,0,1,1,0-8.19h40.36a4,4,0,0,1,4.1,4.1A4.39,4.39,0,0,1,360.09,129.6Z"/><path class="k" d="M429.12,129.6H388.76a4.1,4.1,0,1,1,0-8.19h40.36a4.1,4.1,0,0,1,0,8.19Z"/><rect class="k" x="83.39" y="141.3" width="372.65" height="180.18"/><g class="l"><path class="i" d="M161.19,279.78a108.55,108.55,0,0,0-3.51,28.08,124.13,124.13,0,0,0,1.17,14.62h28.08a114.87,114.87,0,0,1-1.17-14.62A84.26,84.26,0,0,1,270,223.62c46.22,0,84.24,38,84.24,84.24a122,122,0,0,1-1.17,14.62h28.08a113.07,113.07,0,0,0,1.17-14.62,115.33,115.33,0,0,0-3.51-28.08l17.55-15.21c2.93-2.34,3.51-6.44,1.76-9.95l-18.14-31a7.59,7.59,0,0,0-9.36-3.51L349,227.71a117.15,117.15,0,0,0-48-28.08l-4.68-22.81a8.11,8.11,0,0,0-7.61-6.44H253a7.54,7.54,0,0,0-7.61,6.44l-5.85,22.81c-18.14,5.27-35.1,14.63-48,28.08L170,220.11a7.59,7.59,0,0,0-9.36,3.51l-18.13,31c-1.76,3.51-1.17,7,1.75,9.95Z"/><path class="m" d="M202.14,321.89a58.92,58.92,0,0,1-1.76-14.62,69.62,69.62,0,0,1,139.24,0,62.44,62.44,0,0,1-1.76,14.62h15.21a114.87,114.87,0,0,0,1.17-14.62A84.26,84.26,0,0,0,270,223c-46.22,0-84.24,38-84.24,84.24a122,122,0,0,0,1.17,14.62Z"/><path class="n" d="M307.44,321.89a40.36,40.36,0,1,0-74.88,0Z"/></g></svg>