<?xml version="1.0" encoding="utf-8"?>
<!-- Generator: Adobe Illustrator 22.0.1, SVG Export Plug-In . SVG Version: 6.00 Build 0)  -->
<svg version="1.1" xmlns="http://www.w3.org/2000/svg" xmlns:xlink="http://www.w3.org/1999/xlink" x="0px" y="0px"
	 viewBox="0 0 512 512" style="enable-background:new 0 0 512 512;" xml:space="preserve">
<style type="text/css">
	.st0{fill:#CBBBA0;}
	.st1{fill:#F9B233;}
	.st2{fill:#FAC15C;}
	.st3{fill:#1D1D1B;}
	.st4{fill:#FFFFFF;}
	.st5{opacity:0.4;}
	.st6{fill:none;stroke:#7C7C7C;stroke-width:30;stroke-miterlimit:10;}
	.st7{fill:none;stroke:#7C7C7C;stroke-width:30;stroke-linecap:round;stroke-miterlimit:10;}
	.st8{opacity:0.5;fill:#92DFF4;stroke:#000000;stroke-miterlimit:10;}
	.st9{opacity:0.5;fill:none;stroke:#FFFFFF;stroke-width:20;stroke-miterlimit:10;}
	.st10{opacity:0.5;fill:none;stroke:#FFFFFF;stroke-width:10;stroke-miterlimit:10;}
	.st11{fill:none;stroke:#000000;stroke-width:30;stroke-miterlimit:10;}
	.st12{fill:none;stroke:#000000;stroke-width:30;stroke-linecap:round;stroke-miterlimit:10;}
</style>
<g id="Layer_1">
	<rect x="144" y="47.8" class="st0" width="224.1" height="32"/>
	<path class="st1" d="M216,47.8c0-22.1,17.9-40,40-40s40,17.9,40,40"/>
	<rect x="152" y="71.8" class="st2" width="208.1" height="32"/>
	<g>
		<rect x="152" y="103.8" class="st0" width="205.7" height="408.2"/>
		<rect x="7.9" y="169.6" class="st0" width="144.1" height="30.3"/>
		<rect x="360" y="169.6" class="st0" width="144.1" height="30.3"/>
	</g>
	<g>
		<rect x="7.9" y="199.9" class="st2" width="144.1" height="312.1"/>
		<rect x="360" y="199.9" class="st2" width="144.1" height="312.1"/>
	</g>
	<g>
		<rect x="23.9" y="192.1" class="st3" width="112" height="15.6"/>
		<rect x="168" y="96" class="st3" width="176.1" height="15.6"/>
		<rect x="32.1" y="231.9" class="st3" width="15.6" height="32"/>
	</g>
	<rect x="72.1" y="231.9" class="st4" width="15.6" height="32"/>
	<rect x="112.2" y="231.9" class="st3" width="15.6" height="32"/>
	<rect x="176.2" y="127.8" class="st4" width="15.6" height="32"/>
	<g>
		<rect x="224.2" y="127.8" class="st3" width="15.6" height="32"/>
		<rect x="272.2" y="127.8" class="st3" width="15.6" height="32"/>
		<rect x="320.2" y="127.8" class="st3" width="15.6" height="32"/>
		<rect x="176.2" y="183.9" class="st3" width="15.6" height="32"/>
	</g>
	<rect x="224.2" y="183.9" class="st4" width="15.6" height="32"/>
	<g>
		<rect x="272.2" y="183.9" class="st3" width="15.6" height="32"/>
		<rect x="320.2" y="183.9" class="st3" width="15.6" height="32"/>
		<rect x="176.2" y="239.9" class="st3" width="15.6" height="32"/>
		<rect x="224.2" y="239.9" class="st3" width="15.6" height="32"/>
	</g>
	<g>
		<rect x="272.2" y="239.9" class="st4" width="15.6" height="32"/>
		<rect x="320.2" y="239.9" class="st4" width="15.6" height="32"/>
	</g>
	<rect x="176.2" y="295.9" class="st3" width="15.6" height="32"/>
	<rect x="224.2" y="295.9" class="st4" width="15.6" height="32"/>
	<g>
		<rect x="272.2" y="295.9" class="st3" width="15.6" height="32"/>
		<rect x="320.2" y="295.9" class="st3" width="15.6" height="32"/>
		<rect x="176.2" y="351.9" class="st3" width="15.6" height="32"/>
		<rect x="224.2" y="351.9" class="st3" width="15.6" height="32"/>
	</g>
	<rect x="272.2" y="351.9" class="st4" width="15.6" height="32"/>
	<g>
		<rect x="320.2" y="351.9" class="st3" width="15.6" height="32"/>
		<rect x="176.2" y="408" class="st3" width="15.6" height="32"/>
	</g>
	<rect x="224.2" y="408" class="st4" width="15.6" height="32"/>
	<g>
		<rect x="272.2" y="408" class="st3" width="15.6" height="32"/>
		<rect x="320.2" y="408" class="st3" width="15.6" height="32"/>
	</g>
	<rect x="176.2" y="464" class="st4" width="15.6" height="32"/>
	<g>
		<rect x="224.2" y="464" class="st3" width="15.6" height="32"/>
		<rect x="272.2" y="464" class="st3" width="15.6" height="32"/>
	</g>
	<g>
		<rect x="320.2" y="464" class="st4" width="15.6" height="32"/>
		<rect x="32.1" y="287.9" class="st4" width="15.6" height="32"/>
	</g>
	<g>
		<rect x="72.1" y="287.9" class="st3" width="15.6" height="32"/>
		<rect x="112.2" y="287.9" class="st3" width="15.6" height="32"/>
		<rect x="32.1" y="343.9" class="st3" width="15.6" height="32"/>
	</g>
	<rect x="72.1" y="343.9" class="st4" width="15.6" height="32"/>
	<g>
		<rect x="112.2" y="343.9" class="st3" width="15.6" height="32"/>
		<rect x="32.1" y="400" class="st3" width="15.6" height="32"/>
	</g>
	<rect x="72.1" y="400" class="st4" width="15.6" height="32"/>
	<g>
		<rect x="112.2" y="400" class="st3" width="15.6" height="32"/>
		<rect x="32.1" y="456" class="st3" width="15.6" height="32"/>
		<rect x="72.1" y="456" class="st3" width="15.6" height="32"/>
	</g>
	<rect x="112.2" y="456" class="st4" width="15.6" height="32"/>
	<g>
		<rect x="376" y="192.1" class="st3" width="112" height="15.6"/>
		<rect x="464.3" y="231.9" class="st3" width="15.6" height="32"/>
		<rect x="424.3" y="231.9" class="st3" width="15.6" height="32"/>
		<rect x="384.3" y="231.9" class="st3" width="15.6" height="32"/>
		<rect x="464.3" y="287.9" class="st3" width="15.6" height="32"/>
		<rect x="424.3" y="287.9" class="st3" width="15.6" height="32"/>
	</g>
	<rect x="384.3" y="287.9" class="st4" width="15.6" height="32"/>
	<rect x="464.3" y="343.9" class="st3" width="15.6" height="32"/>
	<rect x="424.3" y="343.9" class="st4" width="15.6" height="32"/>
	<rect x="384.3" y="343.9" class="st3" width="15.6" height="32"/>
	<rect x="464.3" y="400" class="st4" width="15.6" height="32"/>
	<g>
		<rect x="424.3" y="400" class="st3" width="15.6" height="32"/>
		<rect x="384.3" y="400" class="st3" width="15.6" height="32"/>
		<rect x="464.3" y="456" class="st3" width="15.6" height="32"/>
	</g>
	<rect x="424.3" y="456" class="st4" width="15.6" height="32"/>
	<g>
		<rect x="384.3" y="456" class="st3" width="15.6" height="32"/>
		<path class="st3" d="M303.2,40C299.4,17.3,279.7,0,256,0s-43.4,17.3-47.2,40H144v15.6H368V40H303.2z M256,15.6
			c15.1,0,27.8,10.4,31.3,24.4h-62.5C228.2,26,240.9,15.6,256,15.6z"/>
		<rect x="400.3" y="95.8" class="st3" width="15.6" height="16"/>
		<polygon class="st3" points="415.9,160.1 415.9,119.8 400.3,119.8 400.3,160.1 367.8,160.1 367.8,64 144.2,64 144.2,160.1 
			111.7,160.1 111.7,119.8 96.1,119.8 96.1,160.1 0.1,160.1 0.1,512 15.7,512 15.7,175.6 144.2,175.6 144.2,512 159.7,512 
			159.7,79.6 352.3,79.6 352.3,512 367.8,512 367.8,175.6 496.3,175.6 496.3,512 511.9,512 511.9,160.1 		"/>
		<rect x="96.1" y="95.8" class="st3" width="15.6" height="16"/>
	</g>
</g>
<g id="Layer_2">
	<g>
		<g class="st5">
			<circle class="st6" cx="317" cy="159.9" r="71.2"/>
			<line class="st7" x1="365" y1="224.6" x2="430.6" y2="315.4"/>
		</g>
		<circle class="st8" cx="330.2" cy="147.8" r="71.2"/>
		<line class="st9" x1="259.7" y1="180.8" x2="364" y2="97.2"/>
		<line class="st10" x1="278.1" y1="200" x2="382.4" y2="116.5"/>
		<circle class="st11" cx="330" cy="148.7" r="71.2"/>
		<line class="st12" x1="378.1" y1="213.4" x2="443.6" y2="304.2"/>
	</g>
</g>
</svg>
