<?xml version="1.0" encoding="iso-8859-1"?>
<!-- Generator: Adobe Illustrator 19.0.0, SVG Export Plug-In . SVG Version: 6.00 Build 0)  -->
<svg version="1.1" id="Layer_1" xmlns="http://www.w3.org/2000/svg" xmlns:xlink="http://www.w3.org/1999/xlink" x="0px" y="0px"
	 viewBox="0 0 512 512" style="enable-background:new 0 0 512 512;" xml:space="preserve">
<rect x="108.907" y="8.233" style="fill:#9A6B58;" width="294.194" height="495.53"/>
<rect x="329.475" y="231.074" style="fill:#FED771;" width="46.357" height="79.597"/>
<circle style="fill:#E5AB46;" cx="352.659" cy="251.404" r="12.246"/>
<path style="fill:#1E252B;" d="M326.093,324.71h53.125c4.547,0,8.233-3.686,8.233-8.233v-91.213c0-4.547-3.686-8.233-8.233-8.233
	h-53.125c-4.547,0-8.233,3.686-8.233,8.233v91.213C317.86,321.023,321.546,324.71,326.093,324.71z M334.326,233.496h36.659v74.747
	h-36.659V233.496z M358.779,282.897c0-3.381-2.741-6.123-6.123-6.123c-3.382,0-6.123,2.742-6.123,6.123
	c0,2.054,1.021,3.862,2.573,4.973l-1.474,12.412h10.049l-1.473-12.412C357.758,286.76,358.779,284.951,358.779,282.897z
	 M352.656,243.59c-4.317,0-7.817,3.5-7.817,7.817c0,4.319,3.5,7.818,7.817,7.818c4.319,0,7.818-3.5,7.818-7.818
	C360.473,247.09,356.973,243.59,352.656,243.59z M231.38,83.938l-14.414,11.807c-1.884,1.521-2.897,3.404-2.897,5.578
	c0,3.331,2.535,5.288,6.012,5.288h27.525c2.68,0,4.852-2.102,4.852-4.781c0-2.681-2.172-4.854-4.852-4.854h-17.674l8.256-6.375
	c8.982-6.954,13.328-11.153,13.328-19.63v-0.145c0-9.489-6.953-15.645-17.456-15.645c-7.678,0-12.458,2.752-16.514,7.46
	c-0.797,0.941-1.303,2.246-1.303,3.478c0,2.823,2.245,5.069,5.07,5.069c1.738,0,3.042-0.797,3.765-1.593
	c2.826-3.042,5.072-4.418,8.258-4.418c3.984,0,6.809,2.317,6.809,6.592C240.144,75.971,237.681,78.796,231.38,83.938z M403.097,0
	H108.903c-4.547,0-8.233,3.686-8.233,8.233v495.534c0,4.547,3.686,8.233,8.233,8.233h294.194c4.547,0,8.233-3.686,8.233-8.233V8.233
	C411.33,3.686,407.644,0,403.097,0z M394.864,495.534H117.136V389.27h5.048v-31.727h-5.048V154.456h5.048V122.73h-5.048V16.466
	h277.727V495.534z M246.533,131.626c0,5.229,4.238,9.466,9.467,9.466c5.229,0,9.467-4.237,9.467-9.466
	c0-5.229-4.238-9.466-9.467-9.466C250.771,122.161,246.533,126.399,246.533,131.626z M278.745,97.485
	c-3.984,0-7.027-1.304-9.924-3.767c-0.868-0.725-1.955-1.377-3.549-1.377c-2.897,0-5.36,2.462-5.36,5.36
	c0,1.594,0.869,3.114,1.884,3.985c4.129,3.549,9.561,5.794,16.804,5.794c11.3,0,18.253-7.026,18.253-16.588v-0.145
	c0-9.416-6.737-13.037-13.617-14.197l9.925-9.488c2.027-1.956,3.332-3.478,3.332-6.23c0-3.042-2.39-4.924-5.649-4.924h-24.7
	c-2.608,0-4.781,2.172-4.781,4.78c0,2.607,2.172,4.78,4.781,4.78h15.572l-9.85,9.925c-1.739,1.738-2.391,3.042-2.391,4.562
	c0,2.607,2.172,4.78,4.78,4.78h1.739c6.23,0,9.924,2.317,9.924,6.447v0.146C285.916,95.094,282.945,97.485,278.745,97.485z"/>
<g>
</g>
<g>
</g>
<g>
</g>
<g>
</g>
<g>
</g>
<g>
</g>
<g>
</g>
<g>
</g>
<g>
</g>
<g>
</g>
<g>
</g>
<g>
</g>
<g>
</g>
<g>
</g>
<g>
</g>
</svg>
