<?xml version="1.0" encoding="utf-8"?>
<!-- Generator: Adobe Illustrator 22.0.1, SVG Export Plug-In . SVG Version: 6.00 Build 0)  -->
<svg version="1.1" id="Layer_1" xmlns="http://www.w3.org/2000/svg" xmlns:xlink="http://www.w3.org/1999/xlink" x="0px" y="0px"
	 viewBox="0 0 511.4 511.4" style="enable-background:new 0 0 511.4 511.4;" xml:space="preserve">
<style type="text/css">
	.st0{fill:#EFB73E;}
	.st1{fill:#CED9EA;}
	.st2{fill:#FFFFFF;}
	.st3{fill:#E95420;}
	.st4{fill:#869BB2;}
	.st5{fill:#AFBBD0;}
	.st6{fill:#535757;}
	.st7{fill:#79AF33;}
	.st8{fill:none;stroke:#535757;stroke-width:10;stroke-linecap:round;stroke-linejoin:round;stroke-miterlimit:10;}
</style>
<g>
	<rect x="16.6" y="387.7" class="st0" width="478.3" height="18.8"/>
	<path class="st1" d="M335.8,158v133.7H16.6V114.3c0-10.1,8.2-18.2,18.2-18.2h276.7l-1.3,10.7c-6,1.3-11.3,4.1-15.7,8H43.6
		c-4.6,0-8.3,3.7-8.3,8.3v141.4c0,4.6,3.7,8.3,8.3,8.3h265.1c4.6,0,8.3-3.7,8.3-8.3V158H335.8z"/>
	<path class="st2" d="M300.5,158v98.3H51.9V131.5h232.2c-0.8,3-1.3,6.1-1.3,9.4v8.8c0,4.6,3.7,8.3,8.3,8.3H300.5L300.5,158z"/>
</g>
<g>
	<path class="st3" d="M468.4,361.8v9.4H361.2v-9.4c0-5.2,4.2-9.4,9.4-9.4h79.5l0,0l0,0h8.8C464.2,352.4,468.4,356.6,468.4,361.8z"/>
	<path class="st3" d="M485.5,202.1c5.2,0,9.4,4.2,9.4,9.4s-4.2,9.4-9.4,9.4s-9.4-4.2-9.4-9.4S480.3,202.1,485.5,202.1z"/>
	<path class="st3" d="M432.5,69.6c5.2,0,9.4,4.2,9.4,9.4s-4.2,9.4-9.4,9.4s-9.4-4.2-9.4-9.4S427.3,69.6,432.5,69.6z"/>
	<path class="st3" d="M406.5,140.8v0.6H299.4v-0.6c0-10.1,8.2-18.2,18.2-18.2h70.7C398.3,122.6,406.5,130.8,406.5,140.8z"/>
	<path class="st3" d="M373.2,60.1l5.7,45.9H327l5.7-45.9c0.6-4.7,4.6-8.2,9.3-8.2h21.8C368.6,51.9,372.6,55.5,373.2,60.1z"/>
	<rect x="140.3" y="343.5" class="st4" width="80.6" height="27.6"/>
	<path class="st5" d="M335.8,308.2v0.6c0,10.1-8.2,18.2-18.2,18.2H34.8c-10.1,0-18.2-8.2-18.2-18.2v-0.6H335.8z"/>
</g>
<path class="st6" d="M511.4,379.4v35.3c0,4.6-3.7,8.3-8.3,8.3h-9.4v44.7c0,4.6-3.7,8.3-8.3,8.3s-8.3-3.7-8.3-8.3V423h-18.8v44.7
	c0,4.6-3.7,8.3-8.3,8.3s-8.3-3.7-8.3-8.3V423H78.4v44.7c0,4.6-3.7,8.3-8.3,8.3c-4.6,0-8.3-3.7-8.3-8.3V423H43.1v44.7
	c0,4.6-3.7,8.3-8.3,8.3s-8.3-3.7-8.3-8.3V423H8.3c-4.6,0-8.3-3.7-8.3-8.3v-35.3c0-4.6,3.7-8.3,8.3-8.3h115.4v-27.6H34.8
	C15.6,343.5,0,327.9,0,308.7V114.3c0-19.2,15.6-34.8,34.8-34.8h278.8l2.7-21.5c1.6-13,12.7-22.7,25.7-22.7h21.8
	c13.1,0,24.1,9.8,25.7,22.7l1.6,12.6h16.7C411.3,60.4,421,53,432.5,53c14.3,0,26,11.6,26,26c0,7.9-3.6,15-9.1,19.8l34.8,86.9
	c0.5,0,1,0,1.4,0c14.3,0,26,11.6,26,26c0,13.8-10.7,25-24.3,25.9L461,336c13.4,1,24,12.2,24,25.9v9.4h18.2
	C507.7,371.2,511.4,374.9,511.4,379.4z M494.9,406.5v-18.8H16.6v18.8H494.9z M494.9,211.5c0-5.2-4.2-9.4-9.4-9.4s-9.4,4.2-9.4,9.4
	s4.2,9.4,9.4,9.4S494.9,216.7,494.9,211.5z M443.8,335.8l27.4-102.6c-7-4.7-11.6-12.6-11.6-21.6c0-7.9,3.6-15,9.1-19.8l-34.8-86.9
	c-0.5,0-1,0-1.4,0c-11.4,0-21.1-7.4-24.6-17.7h-14.6l2.4,19.6c15.6,3.4,27.4,17.3,27.4,34v8.8c0,4.6-3.7,8.3-8.3,8.3h-62.4v150.8
	c0,19.2-15.6,34.8-34.8,34.8h-80.1v27.6h107.1v-9.4c0-14.3,11.6-26,26-26h73.2V335.8z M468.4,371.2v-9.4c0-5.2-4.2-9.4-9.4-9.4h-8.8
	l0,0l0,0h-79.5c-5.2,0-9.4,4.2-9.4,9.4v9.4H468.4z M441.9,79c0-5.2-4.2-9.4-9.4-9.4s-9.4,4.2-9.4,9.4s4.2,9.4,9.4,9.4
	S441.9,84.2,441.9,79z M406.5,141.4v-0.6c0-10.1-8.2-18.2-18.2-18.2h-70.7c-10.1,0-18.2,8.2-18.2,18.2v0.6H406.5z M378.9,106
	l-5.7-45.9c-0.6-4.7-4.6-8.2-9.3-8.2H342c-4.7,0-8.7,3.5-9.3,8.2L327,106H378.9z M335.8,308.7v-0.6H16.6v0.6
	c0,10.1,8.2,18.2,18.2,18.2h282.8C327.6,327,335.8,318.8,335.8,308.7z M335.8,291.6V158H317v106.6c0,4.6-3.7,8.3-8.3,8.3H43.6
	c-4.6,0-8.3-3.7-8.3-8.3V123.2c0-4.6,3.7-8.3,8.3-8.3h250.8c4.4-3.9,9.8-6.7,15.7-8l1.3-10.7H34.8c-10.1,0-18.2,8.2-18.2,18.2v177.3
	L335.8,291.6L335.8,291.6z M300.5,256.3V158h-9.4c-4.6,0-8.3-3.7-8.3-8.3v-8.8c0-3.3,0.5-6.4,1.3-9.4H51.9v124.8H300.5z
	 M220.9,371.2v-27.6h-80.6v27.6H220.9z"/>
<g>
	<g>
		<path class="st7" d="M171.5,218.9c-2.8,0-5-2.2-5-5v-30H154c-2,0-3.8-1.2-4.6-3c-0.8-1.8-0.5-3.9,0.8-5.4l24.5-27.5
			c0.9-1,2.2-1.6,3.6-1.7c0.1,0,0.1,0,0.2,0c1.3,0,2.6,0.5,3.5,1.4l28,27.5c1.4,1.4,1.9,3.6,1.1,5.5c-0.8,1.9-2.6,3.1-4.6,3.1H194
			v30c0,2.8-2.2,5-5,5H171.5z"/>
		<path class="st6" d="M178.5,151.4l28,27.5H189v35h-17.5v-35H154L178.5,151.4 M178.5,141.4c-0.1,0-0.2,0-0.3,0
			c-2.7,0.1-5.3,1.3-7.1,3.3l-24.5,27.5c-2.6,2.9-3.3,7.1-1.7,10.7c1.6,3.6,5.2,5.9,9.1,5.9h7.5v25c0,5.5,4.5,10,10,10H189
			c5.5,0,10-4.5,10-10v-25h7.5c4.1,0,7.7-2.5,9.3-6.2s0.6-8.1-2.3-10.9l-28-27.5C183.6,142.4,181.1,141.4,178.5,141.4L178.5,141.4z"
			/>
	</g>
	<polyline class="st8" points="136.5,223.9 136.5,241.4 224,241.4 224,223.9 	"/>
</g>
</svg>
