<?xml version="1.0"?>
<svg xmlns="http://www.w3.org/2000/svg" xmlns:xlink="http://www.w3.org/1999/xlink" version="1.1" id="Layer_1" x="0px" y="0px" viewBox="0 0 511.448 511.448" style="enable-background:new 0 0 511.448 511.448;" xml:space="preserve" width="512px" height="512px" class=""><g><g>
	<rect x="16.57" y="387.728" style="fill: rgb(255, 255, 255);" width="478.309" height="18.779" data-original="#FFFFFF" class="" data-old_color="#CDA0A0"/>
	<path style="fill: rgb(255, 255, 255);" d="M335.81,157.963v133.661H16.57V114.33c0-10.052,8.174-18.227,18.227-18.227h276.712l-1.337,10.748   c-5.954,1.292-11.334,4.109-15.73,8.031H43.633c-4.573,0-8.285,3.712-8.285,8.285v141.394c0,4.573,3.712,8.285,8.285,8.285h265.113   c4.573,0,8.285-3.712,8.285-8.285V157.963H335.81z" data-original="#FFFFFF" class="" data-old_color="#CDA0A0"/>
	<path style="fill: rgb(255, 255, 255);" d="M300.462,157.963v98.313H51.918V131.452H284.08c-0.828,2.994-1.292,6.131-1.292,9.389v8.837   c0,4.573,3.712,8.285,8.285,8.285H300.462z" data-original="#FFFFFF" class="" data-old_color="#CDA0A0"/>
</g><g>
	<path style="fill:#E95420" d="M468.367,361.769v9.389h-107.15v-9.389c0-5.181,4.209-9.389,9.389-9.389h79.501   c0.011,0,0.033,0,0.033,0c0.011,0,0.022,0,0.033,0h8.804C464.158,352.38,468.367,356.588,468.367,361.769z" data-original="#C2E95D" class="" data-old_color="#EFB73E"/>
	<path style="fill:#E95420" d="M485.489,202.149c5.181,0,9.389,4.209,9.389,9.389s-4.209,9.389-9.389,9.389   s-9.389-4.209-9.389-9.389S480.308,202.149,485.489,202.149z" data-original="#C2E95D" class="" data-old_color="#EFB73E"/>
	<path style="fill:#E95420" d="M432.466,69.592c5.181,0,9.389,4.209,9.389,9.389s-4.209,9.389-9.389,9.389   s-9.389-4.209-9.389-9.389S427.285,69.592,432.466,69.592z" data-original="#C2E95D" class="" data-old_color="#EFB73E"/>
	<path style="fill:#E95420" d="M406.507,140.841v0.552h-107.15v-0.552c0-10.052,8.174-18.227,18.227-18.227h70.697   C398.333,122.615,406.507,130.789,406.507,140.841z" data-original="#C2E95D" class="" data-old_color="#EFB73E"/>
	<path style="fill:#E95420" d="M373.158,60.148l5.733,45.898h-51.918l5.733-45.898c0.585-4.695,4.595-8.23,9.312-8.23h21.828   C368.563,51.918,372.573,55.453,373.158,60.148z" data-original="#C2E95D" class="" data-old_color="#EFB73E"/>
	<rect x="140.289" y="343.543" style="fill:#E95420" width="80.639" height="27.616" data-original="#C2E95D" class="" data-old_color="#EFB73E"/>
	<path style="fill:#E95420" d="M335.81,308.194v0.552c0,10.052-8.174,18.227-18.227,18.227H34.796   c-10.052,0-18.227-8.174-18.227-18.227v-0.552H335.81z" data-original="#C2E95D" class="" data-old_color="#EFB73E"/>
</g><path style="fill:#333333" d="M511.448,379.443v35.348c0,4.573-3.712,8.285-8.285,8.285h-9.389v44.738  c0,4.573-3.712,8.285-8.285,8.285s-8.285-3.712-8.285-8.285v-44.738h-18.779v44.738c0,4.573-3.712,8.285-8.285,8.285  c-4.573,0-8.285-3.712-8.285-8.285v-44.738H78.429v44.738c0,4.573-3.712,8.285-8.285,8.285c-4.573,0-8.285-3.712-8.285-8.285  v-44.738H43.081v44.738c0,4.573-3.712,8.285-8.285,8.285s-8.285-3.712-8.285-8.285v-44.738H8.285c-4.573,0-8.285-3.712-8.285-8.285  v-35.348c0-4.573,3.712-8.285,8.285-8.285H123.72v-27.616H34.796C15.609,343.543,0,327.934,0,308.746V114.33  c0-19.188,15.609-34.796,34.796-34.796h278.789l2.684-21.452c1.613-12.957,12.692-22.733,25.749-22.733h21.828  c13.057,0,24.136,9.776,25.749,22.733l1.58,12.615h16.691c3.469-10.262,13.178-17.674,24.6-17.674  c14.316,0,25.959,11.643,25.959,25.959c0,7.898-3.557,14.979-9.135,19.751l34.752,86.891c0.486-0.033,0.961-0.044,1.447-0.044  c14.316,0,25.959,11.643,25.959,25.959c0,13.753-10.748,25.031-24.291,25.904l-26.257,98.445  c13.421,0.993,24.037,12.217,24.037,25.882v9.389h18.227C507.736,371.159,511.448,374.87,511.448,379.443z M494.878,406.507v-18.779  H16.57v18.779H494.878z M494.878,211.538c0-5.181-4.209-9.389-9.389-9.389s-9.389,4.209-9.389,9.389s4.209,9.389,9.389,9.389  S494.878,216.719,494.878,211.538z M443.777,335.81l27.373-102.643c-7.003-4.662-11.621-12.615-11.621-21.629  c0-7.898,3.557-14.979,9.135-19.751l-34.752-86.891c-0.486,0.033-0.961,0.044-1.447,0.044c-11.422,0-21.132-7.412-24.6-17.674  h-14.614l2.441,19.585c15.642,3.401,27.384,17.342,27.384,33.99v8.837c0,4.573-3.712,8.285-8.285,8.285H352.38v150.783  c0,19.188-15.609,34.796-34.796,34.796h-80.086v27.616h107.15v-9.389c0-14.316,11.643-25.959,25.959-25.959H443.777z   M468.367,371.159v-9.389c0-5.181-4.209-9.389-9.389-9.389h-8.804c-0.011,0-0.022,0-0.033,0c0,0-0.022,0-0.033,0h-79.501  c-5.181,0-9.389,4.209-9.389,9.389v9.389H468.367z M441.855,78.982c0-5.181-4.209-9.389-9.389-9.389s-9.389,4.209-9.389,9.389  s4.209,9.389,9.389,9.389S441.855,84.162,441.855,78.982z M406.507,141.394v-0.552c0-10.052-8.174-18.227-18.227-18.227h-70.697  c-10.052,0-18.227,8.174-18.227,18.227v0.552H406.507z M378.891,106.045l-5.733-45.898c-0.585-4.695-4.595-8.23-9.312-8.23h-21.828  c-4.717,0-8.727,3.535-9.312,8.23l-5.733,45.898H378.891z M335.81,308.746v-0.552H16.57v0.552c0,10.052,8.174,18.227,18.227,18.227  h282.787C327.636,326.973,335.81,318.799,335.81,308.746z M335.81,291.625V157.963h-18.779v106.598c0,4.573-3.712,8.285-8.285,8.285  H43.633c-4.573,0-8.285-3.712-8.285-8.285V123.167c0-4.573,3.712-8.285,8.285-8.285h250.808c4.396-3.921,9.776-6.738,15.73-8.031  l1.337-10.748H34.796c-10.052,0-18.227,8.174-18.227,18.227v177.294H335.81z M300.462,256.276v-98.313h-9.389  c-4.573,0-8.285-3.712-8.285-8.285v-8.837c0-3.259,0.464-6.396,1.292-9.389H51.918v124.824H300.462z M220.928,371.159v-27.616  h-80.639v27.616H220.928z" data-original="#535757" class="active-path" data-old_color="#535757"/></g> </svg>
