<svg id="Layer_1" data-name="Layer 1" xmlns="http://www.w3.org/2000/svg" viewBox="0 0 232.32 250.19"><defs><style>.cls-1{fill:#79af33;}.cls-2{fill:#333;}.cls-3{fill:none;stroke:#333;stroke-linecap:round;stroke-linejoin:round;stroke-width:23.83px;}</style></defs><title>hw-icon-download</title><g id="DOWNLOAD"><path class="cls-1" d="M158.46,25a11.82,11.82,0,0,1,11.92,11.68v71.68h29.78a12.1,12.1,0,0,1,9.09,20l-58.38,65.52a12.62,12.62,0,0,1-8.58,4h-.48a11.94,11.94,0,0,1-8.34-3.33L66.76,129a12,12,0,0,1-2.62-13.1,11.87,11.87,0,0,1,11-7.39h29.71V37.05a11.79,11.79,0,0,1,11.67-11.91h41.94Z" transform="translate(-21.34 -13.36)"/><path class="cls-2" d="M141.78,185.83,75.07,120.32h41.69V36.91h41.7v83.41h41.7l-58.38,65.51m0,23.83h.72a24.09,24.09,0,0,0,16.92-7.86l58.37-65.53a23.7,23.7,0,0,0-17.63-39.55H182.25V37.16a23.91,23.91,0,0,0-23.79-23.8h-41.7A23.89,23.89,0,0,0,92.94,37.19V96.72H75.07A24.2,24.2,0,0,0,52.91,111.5a23.52,23.52,0,0,0,5.48,26L125.1,203a24.2,24.2,0,0,0,16.68,6.67Z" transform="translate(-21.34 -13.36)"/><polyline class="cls-3" points="11.91 196.58 11.91 238.27 220.41 238.27 220.41 196.58"/></g></svg>