<svg xmlns="http://www.w3.org/2000/svg" xmlns:xlink="http://www.w3.org/1999/xlink" viewBox="0 0 504 345"><defs><style>.a,.c,.f,.j,.m{fill:none;}.b{fill:#ced9ea;}.c{clip-path:url(#a);}.d{isolation:isolate;}.e{fill:#aea79f;}.e,.f,.z{opacity:0.5;}.f{stroke:#aea79f;}.f,.i,.j,.p,.s,.u{stroke-miterlimit:10;}.f,.m{stroke-width:3px;}.g{fill:#efb73e;}.h{fill:#79af33;}.i,.q,.s,.v,.z{fill:#fff;}.i,.j{stroke:#79af33;}.k,.t{fill:#df382c;}.l,.p{fill:#434c6d;}.m,.p{stroke:#434c6d;}.m,.x{stroke-linecap:round;stroke-linejoin:round;}.n{fill:#869bb2;}.o{clip-path:url(#b);}.p{stroke-width:2.81px;}.r{clip-path:url(#c);}.s,.u{stroke:#fff;}.s{stroke-width:7px;}.t{fill-rule:evenodd;}.u{stroke-width:2px;}.v{font-size:31.43px;font-family:Windows-Command-Prompt, Windows Command Prompt;letter-spacing:0.03em;}.w{fill:#44c4a1;}.x,.y{fill:#684035;}.x{stroke:#684035;stroke-width:4px;}.y{opacity:0.99;}.z{mix-blend-mode:overlay;}</style><clipPath id="a"><path class="b" d="M427.2,49.93V229H103.92v-179H427.2"/></clipPath><clipPath id="b"><rect class="a" x="223.4" y="250.32" width="84.33" height="39.35"/></clipPath><clipPath id="c"><path class="c" d="M427.2,49.93V229H103.92v-179H427.2"/></clipPath></defs><title>intro-img-p1-internetting_Website Assignment Images</title><g class="d"><path class="e" d="M430.52,44.08,403.64,45V4.63A4.63,4.63,0,0,0,399,0H60.12a4.63,4.63,0,0,0-4.63,4.63v191.2H24.94a4.09,4.09,0,0,0-4.09,3.87l-.14,2.51a4.1,4.1,0,0,1-4.1,3.87H4.1a4.09,4.09,0,0,0-4.1,4.1v2a4.09,4.09,0,0,0,4.1,4.1h3l4,32.26h0l4.27,34.15h0l2.35,18.78a4.55,4.55,0,0,0,4.51,4h37.5a4.53,4.53,0,0,0,3.3-1.44,4.88,4.88,0,0,0,.56-.73,4.22,4.22,0,0,0,.34-.67c.06-.16.12-.31.17-.47a5.15,5.15,0,0,0,.15-.68l1.68-13.41.06-.53h.61a4.85,4.85,0,0,0,4.8-4.24l4.26-34.15a4.78,4.78,0,0,0-4.2-5.37l.87-6.94H187.4v15.3h4.85l-11.83,40.06H166.09a1.81,1.81,0,0,0-1.8,1.8v5.11a1.81,1.81,0,0,0,1.8,1.8H293a1.81,1.81,0,0,0,1.8-1.8V294a1.81,1.81,0,0,0-1.8-1.8H278.71l-11.83-40.06h4.85v-15.3H399a4.63,4.63,0,0,0,4.63-4.63V148.62H468V44.08Z"/><polyline class="f" points="393.97 54.69 415.73 16.01 435.07 54.69"/><rect class="g" x="399.46" y="103.98" width="104.54" height="82.14"/><rect class="h" x="399.46" y="81.58" width="104.54" height="22.4"/><rect class="i" x="407.13" y="111.45" width="89.4" height="67"/><line class="j" x1="429.33" y1="111.24" x2="429.33" y2="178.66"/><line class="j" x1="451.73" y1="111.24" x2="451.73" y2="178.66"/><line class="j" x1="474.13" y1="111.24" x2="474.13" y2="178.66"/><line class="j" x1="406.92" y1="133.64" x2="496.53" y2="133.64"/><line class="j" x1="406.92" y1="156.05" x2="496.53" y2="156.05"/><path class="k" d="M467.15,144.74l6.09-6.09a3.06,3.06,0,1,0-4.33-4.32l-6.08,6.09-6.09-6.09a3.05,3.05,0,0,0-4.32,4.32l6.08,6.09-6.08,6.09a3,3,0,0,0,0,4.32,3,3,0,0,0,2.16.9,3,3,0,0,0,2.16-.9l6.09-6.09,6.08,6.09a3.06,3.06,0,1,0,4.33-4.32Z"/><circle class="l" cx="471.07" cy="91.9" r="3.63"/><circle class="l" cx="429.97" cy="91.9" r="3.63"/><polyline class="m" points="429.97 90.69 451.73 52 471.07 90.69"/><polygon class="n" points="316.16 334.65 214.97 334.65 236.55 261.56 294.58 261.56 316.16 334.65"/><g class="o"><polygon class="p" points="316.16 334.65 214.97 334.65 236.55 261.56 294.58 261.56 316.16 334.65"/></g><rect class="b" x="200.29" y="329.73" width="130.56" height="8.7" rx="1.8" ry="1.8"/><path class="l" d="M294.58,261.56l20.13,68.17h11.78a4.36,4.36,0,0,1,0,8.71H204.64a4.36,4.36,0,0,1,0-8.71h11.78l20.13-68.17h58m3.74-5H232.81l-1.06,3.59-19.07,64.58h-8a9.36,9.36,0,0,0,0,18.71H326.49a9.36,9.36,0,0,0,0-18.71h-8l-19.07-64.58-1.06-3.59Z"/><rect class="b" x="93.99" y="40" width="343.15" height="231.87" rx="2.13" ry="2.13"/><path class="l" d="M434.64,42.5V269.37H96.49V42.5H434.64m.37-5H96.12a4.63,4.63,0,0,0-4.63,4.63V269.74a4.63,4.63,0,0,0,4.63,4.63H435a4.63,4.63,0,0,0,4.63-4.63V42.13A4.63,4.63,0,0,0,435,37.5Z"/><path class="q" d="M94.06,238.81V42.13a2.06,2.06,0,0,1,2.06-2.06H435a2.06,2.06,0,0,1,2.06,2.06V238.81Z"/><path class="l" d="M434.5,42.64v193.6H96.63V42.64H434.5M435,37.5H96.12a4.64,4.64,0,0,0-4.63,4.63V241.39H439.64V42.13A4.64,4.64,0,0,0,435,37.5Z"/><circle class="l" cx="265.56" cy="256.3" r="7.25"/><path class="b" d="M427.2,49.93V229H103.92v-179H427.2"/><g class="r"><rect class="n" x="149.52" y="206.74" width="232.09" height="29.01" rx="3.6" ry="3.6"/><circle class="l" cx="330.84" cy="207.95" r="12.09"/><circle class="l" cx="287.32" cy="207.95" r="12.09"/><circle class="l" cx="243.8" cy="207.95" r="12.09"/><circle class="l" cx="200.29" cy="207.95" r="12.09"/><circle class="s" cx="330.84" cy="199.48" r="21.76"/><path class="t" d="M330.84,177.73c-12,0-21.76,10-21.76,22.31A22.29,22.29,0,0,0,324,221.21c1.09.2,1.49-.49,1.49-1.08s0-1.93,0-3.79c-6.05,1.34-7.33-3-7.33-3a5.89,5.89,0,0,0-2.42-3.27c-2-1.38.15-1.35.15-1.35a4.57,4.57,0,0,1,3.34,2.29c1.94,3.41,5.09,2.43,6.33,1.86a4.81,4.81,0,0,1,1.38-3c-4.83-.57-9.91-2.48-9.91-11a8.76,8.76,0,0,1,2.24-6,8.23,8.23,0,0,1,.21-5.9s1.83-.6,6,2.29a19.89,19.89,0,0,1,10.89,0c4.16-2.89,6-2.29,6-2.29a8.2,8.2,0,0,1,.22,5.9,8.75,8.75,0,0,1,2.23,6c0,8.57-5.09,10.46-9.93,11a5.4,5.4,0,0,1,1.47,4.13c0,3,0,5.39,0,6.12s.39,1.29,1.49,1.07A22.26,22.26,0,0,0,352.6,200C352.6,187.71,342.86,177.73,330.84,177.73Z"/><path class="u" d="M369.14,219.45l-6.08-6.07,4.43-2.56a.77.77,0,0,0,.39-.73.8.8,0,0,0-.49-.68L348.68,202a.77.77,0,0,0-.84.17.79.79,0,0,0-.18.85l7.46,18.72a.8.8,0,0,0,.68.49.79.79,0,0,0,.73-.39l2.56-4.43,6.07,6.07a.78.78,0,0,0,1.11,0l2.87-2.87A.8.8,0,0,0,369.14,219.45Z"/><path class="l" d="M365.56,106.4h7a2.32,2.32,0,0,1,2.32,2.32v1.16a2.33,2.33,0,0,0,2.33,2.33h12.76a2.32,2.32,0,0,1,2.32,2.32v18.56a2.32,2.32,0,0,1-2.32,2.33H359.76a2.32,2.32,0,0,1-2.32-2.33V114.53a2.32,2.32,0,0,1,2.32-2.32h1.16a2.32,2.32,0,0,0,2.32-2.33v-1.16A2.32,2.32,0,0,1,365.56,106.4Z"/><path class="l" d="M365.56,62.88h7a2.32,2.32,0,0,1,2.32,2.33v1.16a2.32,2.32,0,0,0,2.33,2.32h12.76A2.32,2.32,0,0,1,392.25,71V89.58a2.32,2.32,0,0,1-2.32,2.32H359.76a2.32,2.32,0,0,1-2.32-2.32V71a2.32,2.32,0,0,1,2.32-2.32h1.16a2.32,2.32,0,0,0,2.32-2.32V65.21A2.32,2.32,0,0,1,365.56,62.88Z"/><rect class="q" x="135.7" y="59.26" width="125.72" height="89.8"/><rect class="q" x="153.66" y="77.22" width="125.72" height="89.8"/><rect class="q" x="171.62" y="95.18" width="125.72" height="89.8"/><rect class="q" x="178.53" y="100.36" width="113.63" height="16.92"/><text class="v" transform="translate(194.64 151.13)">&gt;_</text><rect class="w" x="135.7" y="59.26" width="125.72" height="89.8"/><rect class="q" x="153.66" y="77.22" width="125.72" height="89.8"/><rect class="l" x="171.62" y="95.18" width="125.72" height="89.8"/><rect class="w" x="178.53" y="100.36" width="113.63" height="16.92"/><text class="v" transform="translate(194.64 151.13)">&gt;_</text></g><path class="g" d="M42.83,251.93h68.31L100.25,339a4.56,4.56,0,0,1-4.52,4H58.23a4.55,4.55,0,0,1-4.51-4Z"/><polygon class="x" points="102.6 320.23 106.87 286.08 47.1 286.08 51.37 320.23 102.6 320.23"/><circle class="k" cx="76.98" cy="302.48" r="13.06"/><path class="y" d="M40.1,253.82h73.77a4.1,4.1,0,0,0,4.1-4.09v-2a4.1,4.1,0,0,0-4.1-4.1H101.35a4.1,4.1,0,0,1-4.09-3.87l-.14-2.51A4.1,4.1,0,0,0,93,233.33H60.94a4.09,4.09,0,0,0-4.09,3.87l-.14,2.51a4.1,4.1,0,0,1-4.1,3.87H40.1a4.09,4.09,0,0,0-4.1,4.1v2A4.09,4.09,0,0,0,40.1,253.82Z"/><path class="z" d="M113.87,243.58H101.35a4.1,4.1,0,0,1-4.09-3.87l-.14-2.51A4.1,4.1,0,0,0,93,233.33H77V343H95.73a4.55,4.55,0,0,0,4.52-4L102,325.07h.61a4.85,4.85,0,0,0,4.8-4.24l4.26-34.15a4.78,4.78,0,0,0-4.2-5.37l3.44-27.49h3a4.1,4.1,0,0,0,4.1-4.09v-2A4.1,4.1,0,0,0,113.87,243.58Z"/></g></svg>