<svg xmlns="http://www.w3.org/2000/svg" xmlns:xlink="http://www.w3.org/1999/xlink" viewBox="0 0 500.44 343.56"><defs><style>.a,.ab,.ac,.d,.e,.f,.o,.t,.z{fill:none;}.b{fill:#aea79f;}.ac,.ad,.b,.c{opacity:0.5;}.d,.e,.f{stroke:#aea79f;}.aa,.ab,.d,.e,.i,.o,.p,.q,.r,.t,.u{stroke-miterlimit:10;}.ab,.d{stroke-width:4px;}.e,.f,.o,.t,.u,.z{stroke-width:3px;}.ac,.f,.t,.z{stroke-linecap:round;}.ac,.f,.z{stroke-linejoin:round;}.g{fill:#869bb2;}.h{clip-path:url(#a);}.i,.k{fill:#434c6d;}.ab,.i,.o,.u,.z{stroke:#434c6d;}.i{stroke-width:2.81px;}.j{fill:#ced9ea;}.l{fill:#fff;}.m{clip-path:url(#b);}.aa,.n,.u{fill:#afbbd0;}.p{fill:#1ccdca;stroke:#44c4a1;}.q{fill:#ef4a36;}.q,.t{stroke:#df382c;}.r{fill:#79af33;stroke:#38b44a;}.s{fill:#df382c;}.v{clip-path:url(#c);}.w{fill:#efb73e;}.x{fill:#27a2db;}.y{fill:#44c4a1;}.aa,.ac{stroke:#fff;}.aa{stroke-width:1.02px;opacity:0.3;}.ac{stroke-width:2.04px;}.ad{fill:gray;}.ae{fill:#c18e29;}</style><clipPath id="a"><rect class="a" x="212.83" y="248.82" width="84.33" height="39.35"/></clipPath><clipPath id="b"><path class="a" d="M418.83,44.51V226H91.16V44.51H418.83"/></clipPath><clipPath id="c"><rect class="a" x="482.9" y="208.35" width="19.6" height="51.46"/></clipPath></defs><title>Asset 1</title><path class="b" d="M460.54,203.94l-16.1,2.71V196.24l20-9.86-4.33-8.79-15.67,7.72V161.79H393.07V4.63A4.63,4.63,0,0,0,388.44,0H49.55a4.63,4.63,0,0,0-4.63,4.63V16.09l-1.77.31,1.77,10V232.24a4.63,4.63,0,0,0,4.63,4.63H186.2l-16.35,55.37H158.07a4.35,4.35,0,1,0,0,8.7H279.92a4.35,4.35,0,1,0,0-8.7H268.14l-16.35-55.37h84.82v68.69H444.44v-89l17.73-3Z"/><g class="c"><rect class="b" x="10.31" y="278.57" width="44.99" height="27" rx="2.45" ry="2.45"/><rect class="b" x="73.3" y="278.57" width="44.99" height="27" rx="2.45" ry="2.45"/><rect class="d" x="10.31" y="278.57" width="44.99" height="27" rx="2.45" ry="2.45"/><rect class="d" x="73.3" y="278.57" width="44.99" height="27" rx="2.45" ry="2.45"/></g><g class="c"><path class="e" d="M55.3,290.82c.5-.5-.5-8.49,9-9s9,9,9,9"/><path class="f" d="M115.12,296.8l-94.68-6s-18.94,0-18.94,9v3"/><path class="f" d="M13.48,296.8l94.69-6s18.93,0,18.93,9v3"/></g><polygon class="g" points="305.59 333.15 204.4 333.15 225.98 260.06 284.01 260.06 305.59 333.15"/><g class="h"><polygon class="i" points="305.59 333.15 204.4 333.15 225.98 260.06 284.01 260.06 305.59 333.15"/></g><rect class="j" x="189.71" y="328.24" width="130.56" height="8.7" rx="1.8" ry="1.8"/><path class="k" d="M284,260.06l20.13,68.18h11.78a4.35,4.35,0,1,1,0,8.7H194.07a4.35,4.35,0,1,1,0-8.7h11.78L226,260.06h58m3.74-5H222.24l-1.06,3.59-19.07,64.59h-8a9.35,9.35,0,1,0,0,18.7H315.92a9.35,9.35,0,1,0,0-18.7h-8L288.8,258.65l-1.05-3.59Z"/><rect class="j" x="83.42" y="38.5" width="343.15" height="231.87" rx="2.13" ry="2.13"/><path class="k" d="M424.07,41V267.87H85.92V41H424.07m.37-5H85.55a4.63,4.63,0,0,0-4.63,4.63V268.24a4.63,4.63,0,0,0,4.63,4.63H424.44a4.63,4.63,0,0,0,4.63-4.63V40.63A4.63,4.63,0,0,0,424.44,36Z"/><path class="l" d="M83.49,237.31V40.63a2.06,2.06,0,0,1,2.06-2.06H424.44a2.06,2.06,0,0,1,2.06,2.06V237.31Z"/><path class="k" d="M423.92,41.14v193.6H86.06V41.14H423.92m.52-5.14H85.55a4.64,4.64,0,0,0-4.63,4.63V239.89H429.07V40.63A4.65,4.65,0,0,0,424.44,36Z"/><circle class="k" cx="254.99" cy="254.8" r="7.25"/><g class="m"><path class="n" d="M381.59,84.2V237.53h-138V84.2h138m3.28-3.28H240.29v159.9H384.87V80.92Z"/><rect class="n" x="125.11" y="80.92" width="120.08" height="159.9"/><line class="o" x1="286.4" y1="196.04" x2="360.37" y2="196.04"/><rect class="p" x="262.34" y="188.02" width="16.04" height="16.04"/><line class="o" x1="286.4" y1="169.53" x2="360.37" y2="169.53"/><rect class="j" x="262.34" y="161.51" width="16.04" height="16.04"/><line class="o" x1="286.4" y1="143.02" x2="360.37" y2="143.02"/><rect class="q" x="262.34" y="135" width="16.04" height="16.04"/><line class="o" x1="286.4" y1="116.51" x2="360.37" y2="116.51"/><rect class="r" x="262.34" y="108.49" width="16.04" height="16.04"/><rect class="s" x="147.9" y="124.82" width="82.58" height="68.08"/><rect class="l" x="149.4" y="167.62" width="79.58" height="24.53"/><path class="s" d="M227.49,169.12v21.52H150.9V169.12h76.59m3-3H147.9v27.52h82.59V166.12Z"/><line class="t" x1="159.47" y1="174.58" x2="159.47" y2="185.23"/><line class="t" x1="166.13" y1="174.58" x2="166.13" y2="185.23"/><line class="t" x1="178.92" y1="179.9" x2="218.92" y2="179.9"/><line class="t" x1="185.59" y1="174.58" x2="185.59" y2="185.23"/><path class="l" d="M178.39,137.56v14.86a3.58,3.58,0,0,0,5.18,3.2l14.87-7.43a3.58,3.58,0,0,0,0-6.4l-14.87-7.43A3.58,3.58,0,0,0,178.39,137.56Z"/></g><polygon class="u" points="384.87 191.19 487.8 191.19 487.8 330.88 480.44 341.56 372.61 341.56 372.61 197.79 384.87 191.19"/><g class="v"><rect class="w" x="463.28" y="242.72" width="34.31" height="9.8" transform="matrix(0.99, -0.17, 0.17, 0.99, -34.5, 83.38)"/><rect class="s" x="465.73" y="220.67" width="34.31" height="9.8" transform="translate(-49.97 236.76) rotate(-26.24)"/></g><rect class="k" x="372.61" y="197.79" width="107.83" height="143.77"/><rect class="x" x="409.55" y="262.65" width="7.49" height="29.94" transform="translate(-75.26 373.55) rotate(-45)"/><rect class="j" x="419.49" y="279.17" width="29.94" height="7.49" transform="translate(-72.8 390.08) rotate(-45)"/><rect class="s" x="436.01" y="246.77" width="7.49" height="29.94" transform="translate(-56.27 387.62) rotate(-45)"/><rect class="y" x="403.61" y="252.7" width="29.94" height="7.49" transform="translate(-58.73 371.1) rotate(-45)"/><path class="o" d="M88.3,326.82c.5-.5-.5-8.49,9-9s9,9,9,9"/><path class="z" d="M148.12,332.8l-94.68-6s-18.94,0-18.94,9v3"/><path class="z" d="M46.48,332.8l94.69-6s18.93,0,18.93,9v3"/><rect class="aa" x="43.31" y="314.57" width="44.99" height="27" rx="2.45" ry="2.45"/><rect class="aa" x="106.3" y="314.57" width="44.99" height="27" rx="2.45" ry="2.45"/><rect class="ab" x="43.31" y="314.57" width="44.99" height="27" rx="2.45" ry="2.45"/><rect class="ab" x="106.3" y="314.57" width="44.99" height="27" rx="2.45" ry="2.45"/><line class="ac" x1="56.68" y1="332.56" x2="74.43" y2="323.81"/><line class="ac" x1="120.17" y1="332.56" x2="137.92" y2="323.81"/><polygon class="ad" points="79.15 52.4 140.8 41.53 156.58 108.09 115.47 115.33 91.3 98.41 79.15 52.4"/><polygon class="w" points="79.15 52.4 140.8 41.53 151.68 103.19 110.57 110.43 86.4 93.5 79.15 52.4"/><path class="k" d="M94,60.64l9.76,36.21,15.41,1.55,14.06-6.75L130,54.29Zm31,6.9-17.24,3,1.2,4.57,16.47-2.91,1.18,14.14-8.74,4.15v0l-.11,0-9.71-.93-1.81-7,4.47-.79,1,3.52,5.25.47,4.8-2.24-.47-5.93-15.65,2.76L102,67l22.61-4Z"/><polygon class="ae" points="86.4 93.5 110.57 110.43 106.95 89.88 86.4 93.5"/></svg>