<?xml version="1.0" encoding="iso-8859-1"?>
<!-- Generator: Adobe Illustrator 19.1.0, SVG Export Plug-In . SVG Version: 6.00 Build 0)  -->
<svg version="1.1" id="Capa_1" xmlns="http://www.w3.org/2000/svg" xmlns:xlink="http://www.w3.org/1999/xlink" x="0px" y="0px"
	 viewBox="0 0 64 64" style="enable-background:new 0 0 64 64;" xml:space="preserve">
<g>
	<g id="group-43svg">
		<path id="path-1_88_" style="fill:#FF917B;" d="M61,56c0,4.418-3.582,8-8,8H18c-4.419,0-8-3.582-8-8V12c0-4.418,3.581-8,8-8h35
			c4.418,0,8,3.582,8,8V56z"/>
		<path id="path-2_88_" d="M47.5,63h-35C7.262,63,3,58.738,3,53.5v-44C3,4.262,7.262,0,12.5,0h35C52.738,0,57,4.262,57,9.5v44
			C57,58.738,52.738,63,47.5,63z M12.5,3C8.916,3,6,5.916,6,9.5v44c0,3.584,2.916,6.5,6.5,6.5h35c3.584,0,6.5-2.916,6.5-6.5v-44
			C54,5.916,51.084,3,47.5,3H12.5z"/>
		<path id="path-3_87_" d="M49,14H13c-0.829,0-1.5-0.672-1.5-1.5S12.171,11,13,11h36c0.828,0,1.5,0.672,1.5,1.5S49.828,14,49,14z"/>
		<path id="path-4_85_" d="M49,22H13c-0.829,0-1.5-0.672-1.5-1.5S12.171,19,13,19h36c0.828,0,1.5,0.672,1.5,1.5S49.828,22,49,22z"/>
		<path id="path-5_76_" d="M20.901,41.526c-0.828,0-1.5-0.672-1.5-1.5c0-6.609,5.378-11.987,11.988-11.987
			c5.98,0,11.088,4.464,11.88,10.383c0.11,0.821-0.466,1.576-1.287,1.685c-0.822,0.126-1.576-0.466-1.686-1.287
			c-0.594-4.436-4.424-7.781-8.907-7.781c-4.956,0-8.988,4.031-8.988,8.987C22.401,40.854,21.73,41.526,20.901,41.526z"/>
		<path id="path-6_67_" d="M31.319,52c-0.003,0-0.007,0-0.01,0c-1.91,0-3.809-0.272-5.491-1.154
			c-0.734-0.385-1.016-1.185-0.631-1.918c0.385-0.734,1.29-0.964,2.025-0.577c1.278,0.67,2.663,1.042,4.117,1.052
			c0.829,0.006,1.496,0.48,1.49,1.308C32.814,51.536,32.143,52,31.319,52z M22.799,47.959c-0.472,0-0.937-0.223-1.229-0.638
			c-1.097-1.562-1.81-3.386-2.063-5.273c-0.11-0.821,0.466-1.576,1.287-1.686c0.822-0.116,1.576,0.466,1.686,1.287
			c0.19,1.413,0.723,2.779,1.545,3.948c0.476,0.678,0.312,1.614-0.366,2.089C23.397,47.871,23.096,47.959,22.799,47.959z"/>
		<path id="path-7_44_" d="M41.827,36.051l2.243-0.714c0.531-0.17,1.098,0.254,1.06,0.81c-0.009,0.133-0.039,0.283-0.104,0.409
			l-2.042,3.95c-0.206,0.397-0.695,0.55-1.092,0.345l-3.953-2.046c-0.125-0.065-0.234-0.162-0.318-0.265
			c-0.353-0.432-0.135-1.106,0.396-1.275l2.363-0.753L41.827,36.051z"/>
	</g>
</g>
<g>
</g>
<g>
</g>
<g>
</g>
<g>
</g>
<g>
</g>
<g>
</g>
<g>
</g>
<g>
</g>
<g>
</g>
<g>
</g>
<g>
</g>
<g>
</g>
<g>
</g>
<g>
</g>
<g>
</g>
</svg>
