<?xml version="1.0" encoding="iso-8859-1"?>
<!-- Generator: Adobe Illustrator 19.0.0, SVG Export Plug-In . SVG Version: 6.00 Build 0)  -->
<svg version="1.1" id="Layer_1" xmlns="http://www.w3.org/2000/svg" xmlns:xlink="http://www.w3.org/1999/xlink" x="0px" y="0px"
	 viewBox="0 0 512 512" style="enable-background:new 0 0 512 512;" xml:space="preserve">
<path style="fill:#E4EAF8;" d="M440.608,160.851H16.759c-4.777,0-8.65-3.873-8.65-8.65v-103.8c0-4.777,3.873-8.65,8.65-8.65h423.848
	c4.777,0,8.65,3.873,8.65,8.65v103.8C449.257,156.979,445.384,160.851,440.608,160.851z"/>
<path style="fill:#FF5050;" d="M120.559,160.851h-103.8c-4.777,0-8.65-3.873-8.65-8.65v-103.8c0-4.777,3.873-8.65,8.65-8.65h103.8
	V160.851z"/>
<path style="fill:#E4EAF8;" d="M440.608,316.55H16.759c-4.777,0-8.65-3.873-8.65-8.65V204.1c0-4.777,3.873-8.65,8.65-8.65h423.848
	c4.777,0,8.65,3.873,8.65,8.65v103.8C449.257,312.677,445.384,316.55,440.608,316.55z"/>
<path style="fill:#FFDC64;" d="M120.559,316.55h-103.8c-4.777,0-8.65-3.873-8.65-8.65V204.1c0-4.777,3.873-8.65,8.65-8.65h103.8
	V316.55z"/>
<path style="fill:#E4EAF8;" d="M440.608,472.249H16.759c-4.777,0-8.65-3.873-8.65-8.65V359.8c0-4.777,3.873-8.65,8.65-8.65h423.848
	c4.777,0,8.65,3.873,8.65,8.65v103.8C449.257,468.376,445.384,472.249,440.608,472.249z"/>
<path style="fill:#7DF5A5;" d="M120.559,472.249h-103.8c-4.777,0-8.65-3.873-8.65-8.65V359.8c0-4.777,3.873-8.65,8.65-8.65h103.8
	V472.249z"/>
<g>
	<path style="fill:#D5DCED;" d="M440.608,351.15h-51.9v48.127c0,9.533,5.228,18.3,13.616,22.832
		c3.858,2.085,8.101,3.118,12.333,3.118c4.967,0,9.92-1.424,14.225-4.246l1.427-0.935l18.139,43.792
		c0.157,0.377,0.372,0.708,0.544,1.075c0.07-0.445,0.265-0.848,0.265-1.313V359.8C449.257,355.023,445.384,351.15,440.608,351.15z"
		/>
	<path style="fill:#D5DCED;" d="M449.257,271.201l-16.25-16.25c-4.964-4.964-11.602-7.601-18.355-7.601
		c-3.343,0-6.715,0.646-9.926,1.975c-9.697,4.017-16.019,13.479-16.019,23.974v43.25h51.9c4.777,0,8.65-3.873,8.65-8.65V271.201z"/>
</g>
<polygon style="fill:#464655;" points="414.658,273.3 414.658,399.277 442.292,381.165 472.423,453.908 501.519,441.855 
	471.388,369.114 503.891,362.534 "/>
<path d="M16.759,168.96h423.848c9.241,0,16.759-7.518,16.759-16.759v-103.8c0-9.241-7.518-16.759-16.759-16.759H16.759
	C7.518,31.642,0,39.16,0,48.401v103.8C0,161.442,7.518,168.96,16.759,168.96z M441.148,48.401v103.8
	c0,0.298-0.242,0.541-0.541,0.541H128.668V47.86h311.939C440.905,47.86,441.148,48.103,441.148,48.401z M16.219,48.401
	c0-0.298,0.242-0.541,0.541-0.541h95.69v104.881h-95.69c-0.298,0-0.541-0.242-0.541-0.541V48.401z"/>
<path d="M155.159,91.11h147.049c4.479,0,8.109-3.631,8.109-8.109s-3.631-8.109-8.109-8.109H155.159
	c-4.479,0-8.109,3.631-8.109,8.109S150.68,91.11,155.159,91.11z"/>
<path d="M224.898,117.601c0,4.479,3.631,8.109,8.109,8.109h173c4.479,0,8.109-3.631,8.109-8.109s-3.631-8.109-8.109-8.109h-173
	C228.528,109.491,224.898,113.122,224.898,117.601z"/>
<path d="M198.411,109.491h-43.252c-4.479,0-8.109,3.631-8.109,8.109s3.631,8.109,8.109,8.109h43.252
	c4.479,0,8.109-3.631,8.109-8.109S202.889,109.491,198.411,109.491z"/>
<path d="M42.709,95.435c4.479,0,8.109-3.631,8.109-8.109c0-7.453,6.063-13.516,13.516-13.516S77.85,79.874,77.85,87.326
	s-6.063,13.516-13.516,13.516c-4.479,0-8.109,3.631-8.109,8.109s3.631,8.109,8.109,8.109c16.396,0,29.734-13.338,29.734-29.734
	S80.73,57.592,64.334,57.592S34.6,70.931,34.6,87.326C34.6,91.804,38.231,95.435,42.709,95.435z"/>
<path d="M64.421,126.791h-0.086c-4.479,0-8.066,3.631-8.066,8.109c0,4.479,3.674,8.109,8.153,8.109c4.479,0,8.109-3.631,8.109-8.109
	C72.53,130.422,68.899,126.791,64.421,126.791z"/>
<path d="M155.159,246.81h147.049c4.479,0,8.109-3.631,8.109-8.109c0-4.479-3.631-8.109-8.109-8.109H155.159
	c-4.479,0-8.109,3.631-8.109,8.109C147.049,243.179,150.68,246.81,155.159,246.81z"/>
<path d="M380.058,265.191h-147.05c-4.479,0-8.109,3.631-8.109,8.109s3.631,8.109,8.109,8.109h147.05
	c4.479,0,8.109-3.631,8.109-8.109S384.536,265.191,380.058,265.191z"/>
<path d="M198.411,265.191h-43.252c-4.479,0-8.109,3.631-8.109,8.109s3.631,8.109,8.109,8.109h43.252
	c4.479,0,8.109-3.631,8.109-8.109S202.889,265.191,198.411,265.191z"/>
<path d="M64.334,213.291c-16.396,0-29.734,13.338-29.734,29.734c0,4.479,3.631,8.109,8.109,8.109s8.109-3.631,8.109-8.109
	c0-7.453,6.063-13.516,13.516-13.516s13.516,6.063,13.516,13.516c0,7.453-6.063,13.516-13.516,13.516
	c-4.479,0-8.109,3.631-8.109,8.109s3.631,8.109,8.109,8.109c16.396,0,29.734-13.338,29.734-29.734S80.73,213.291,64.334,213.291z"/>
<path d="M64.421,282.491h-0.086c-4.479,0-8.066,3.631-8.066,8.109s3.674,8.109,8.153,8.109c4.479,0,8.109-3.631,8.109-8.109
	S68.899,282.491,64.421,282.491z"/>
<path d="M155.159,402.509h147.049c4.479,0,8.109-3.631,8.109-8.109s-3.631-8.109-8.109-8.109H155.159
	c-4.479,0-8.109,3.631-8.109,8.109S150.68,402.509,155.159,402.509z"/>
<path d="M388.708,420.89h-155.7c-4.479,0-8.109,3.631-8.109,8.109s3.631,8.109,8.109,8.109h155.7c4.479,0,8.109-3.631,8.109-8.109
	S393.186,420.89,388.708,420.89z"/>
<path d="M198.411,420.89h-43.252c-4.479,0-8.109,3.631-8.109,8.109s3.631,8.109,8.109,8.109h43.252c4.479,0,8.109-3.631,8.109-8.109
	S202.889,420.89,198.411,420.89z"/>
<path d="M64.334,368.99c-16.396,0-29.734,13.338-29.734,29.734c0,4.479,3.631,8.109,8.109,8.109s8.109-3.631,8.109-8.109
	c0-7.453,6.063-13.516,13.516-13.516s13.516,6.063,13.516,13.516s-6.063,13.516-13.516,13.516c-4.479,0-8.109,3.631-8.109,8.109
	s3.631,8.109,8.109,8.109c16.396,0,29.734-13.338,29.734-29.734C94.068,382.329,80.73,368.99,64.334,368.99z"/>
<path d="M64.421,438.19h-0.086c-4.479,0-8.066,3.631-8.066,8.109s3.674,8.109,8.153,8.109c4.479,0,8.109-3.631,8.109-8.109
	S68.899,438.19,64.421,438.19z"/>
<path d="M511.655,364.875c0.862-2.86,0.082-5.963-2.03-8.075l-52.259-52.259V204.1c0-9.241-7.518-16.759-16.759-16.759H16.759
	C7.518,187.341,0,194.859,0,204.1v103.8c0,9.241,7.518,16.759,16.759,16.759h389.789v18.381H16.759C7.518,343.04,0,350.558,0,359.8
	v103.8c0,9.241,7.518,16.759,16.759,16.759h423.848c9.241,0,16.759-7.518,16.759-16.759v-24.851l7.564,18.262
	c0.823,1.987,2.401,3.566,4.389,4.389c0.994,0.411,2.049,0.617,3.103,0.617c1.054,0,2.109-0.205,3.103-0.617l29.097-12.053
	c4.138-1.714,6.103-6.458,4.389-10.595l-26.363-63.644l22.85-4.625C508.428,369.89,510.793,367.735,511.655,364.875z M16.219,307.9
	V204.1c0-0.298,0.242-0.541,0.541-0.541h95.69v104.881h-95.69C16.461,308.441,16.219,308.198,16.219,307.9z M128.668,308.441V203.56
	h311.939c0.298,0,0.541,0.242,0.541,0.541v84.223l-20.757-20.757c-2.319-2.32-5.808-3.013-8.837-1.758
	c-3.031,1.255-5.006,4.213-5.006,7.492v35.14H128.668z M16.219,463.599V359.8c0-0.298,0.242-0.541,0.541-0.541h95.69V464.14h-95.69
	C16.461,464.14,16.219,463.898,16.219,463.599z M441.148,463.599c0,0.298-0.242,0.541-0.541,0.541H128.668V359.259h277.88v40.018
	c0,2.979,1.634,5.719,4.255,7.135c2.621,1.416,5.808,1.281,8.3-0.352l19.445-12.745l2.6,6.278V463.599z M469.78,361.164
	c-2.375,0.481-4.411,1.999-5.55,4.138c-1.139,2.14-1.261,4.675-0.334,6.915l27.028,65.25l-14.112,5.846l-27.028-65.25
	c-0.924-2.232-2.795-3.935-5.103-4.646c-0.783-0.241-1.587-0.36-2.387-0.36c-1.562,0-3.11,0.451-4.446,1.327l-15.079,9.884v-91.389
	l64.706,64.706L469.78,361.164z"/>
<g>
</g>
<g>
</g>
<g>
</g>
<g>
</g>
<g>
</g>
<g>
</g>
<g>
</g>
<g>
</g>
<g>
</g>
<g>
</g>
<g>
</g>
<g>
</g>
<g>
</g>
<g>
</g>
<g>
</g>
</svg>
