<?xml version="1.0" encoding="iso-8859-1"?>
<!-- Generator: Adobe Illustrator 19.0.0, SVG Export Plug-In . SVG Version: 6.00 Build 0)  -->
<svg version="1.1" id="Layer_1" xmlns="http://www.w3.org/2000/svg" xmlns:xlink="http://www.w3.org/1999/xlink" x="0px" y="0px"
	 viewBox="0 0 511.448 511.448" style="enable-background:new 0 0 511.448 511.448;" xml:space="preserve">
<g>
	<path style="fill:#FFFFFF;" d="M229.765,326.642v0.331H60.755v-27.616h169.01v26.821
		C229.765,326.332,229.765,326.487,229.765,326.642z"/>
	<path style="fill:#FFFFFF;" d="M255.724,149.126c14.924,0,27.064,12.14,27.064,27.064s-12.14,27.064-27.064,27.064
		s-27.064-12.14-27.064-27.064S240.8,149.126,255.724,149.126z"/>
	<path style="fill:#FFFFFF;" d="M494.878,96.656v150.938l-58.071-58.071c-8.241-8.241-19.199-12.781-30.853-12.781
		s-22.612,4.54-30.853,12.781L246.334,318.291v-27.218c0-4.573-3.712-8.285-8.285-8.285h-31.913l-25.607-25.605
		c-8.241-8.241-19.199-12.781-30.853-12.781s-22.612,4.54-30.853,12.781L93.22,282.787H52.47c-4.573,0-8.285,3.712-8.285,8.285
		v40.75L16.57,359.438V96.656c0-14.924,12.14-27.064,27.064-27.064h424.181C482.738,69.592,494.878,81.732,494.878,96.656z
		 M325.868,176.19c0-4.573-3.712-8.285-8.285-8.285h-19.022c-1.138-5.888-3.446-11.345-6.695-16.139l13.456-13.454
		c3.237-3.237,3.237-8.484,0-11.72c-3.238-3.237-8.485-3.237-11.72,0l-13.454,13.455c-4.795-3.248-10.262-5.556-16.139-6.694V114.33
		c0-4.573-3.712-8.285-8.285-8.285c-4.573,0-8.285,3.712-8.285,8.285v19.022c-5.877,1.138-11.345,3.446-16.139,6.694l-13.454-13.455
		c-3.237-3.237-8.484-3.237-11.72,0c-3.237,3.237-3.237,8.484,0,11.72l13.456,13.454c-3.249,4.794-5.556,10.251-6.695,16.139
		h-19.022c-4.573,0-8.285,3.712-8.285,8.285c0,4.573,3.712,8.285,8.285,8.285h19.022c1.138,5.888,3.446,11.345,6.695,16.139
		l-13.456,13.454c-3.237,3.237-3.237,8.484,0,11.72c1.613,1.624,3.735,2.43,5.856,2.43c2.121,0,4.242-0.806,5.866-2.43
		l13.455-13.454c4.795,3.248,10.262,5.556,16.139,6.694v19.022c0,4.573,3.712,8.285,8.285,8.285s8.285-3.712,8.285-8.285v-19.022
		c5.877-1.138,11.345-3.446,16.139-6.694l13.454,13.454c1.624,1.624,3.745,2.43,5.866,2.43c2.121,0,4.243-0.806,5.856-2.43
		c3.237-3.237,3.237-8.484,0-11.72l-13.456-13.454c3.248-4.794,5.556-10.251,6.695-16.139h19.022
		C322.157,184.475,325.868,180.763,325.868,176.19z"/>
</g>
<path style="fill:#535757;" d="M511.448,96.656v318.136c0,24.059-19.574,43.633-43.633,43.633H43.633
	C19.574,458.425,0,438.851,0,414.792v-35.348V96.656c0-24.059,19.574-43.633,43.633-43.633h424.181
	C491.873,53.023,511.448,72.597,511.448,96.656z M494.878,414.792V271.023l-69.791-69.78c-5.103-5.114-11.908-7.931-19.132-7.931
	c-7.224,0-14.029,2.817-19.132,7.931l-131.121,131.11l109.503,109.503h102.61C482.738,441.855,494.878,429.715,494.878,414.792z
	 M494.878,247.594V96.656c0-14.924-12.14-27.064-27.064-27.064H43.633c-14.924,0-27.064,12.14-27.064,27.064v262.782l27.616-27.616
	v-40.75c0-4.573,3.712-8.285,8.285-8.285h40.75l25.607-25.605c8.241-8.241,19.199-12.781,30.853-12.781
	c11.654,0,22.612,4.54,30.853,12.781l25.607,25.605h31.913c4.573,0,8.285,3.712,8.285,8.285v27.218l128.768-128.768
	c8.241-8.241,19.199-12.781,30.853-12.781c11.654,0,22.612,4.54,30.853,12.781L494.878,247.594z M43.633,441.855h298.131
	l-99.483-99.484c-1.237,0.74-2.684,1.171-4.231,1.171H55.906L16.57,382.879v31.913C16.57,429.715,28.71,441.855,43.633,441.855z
	 M229.765,326.973v-0.331c0-0.155,0-0.309,0-0.464v-26.821H60.755v27.616H229.765z M116.661,282.787h66.034l-13.884-13.885
	c-5.103-5.114-11.908-7.931-19.132-7.931s-14.029,2.817-19.132,7.931L116.661,282.787z"/>
<g>
	<path style="fill:#C2E95D;" d="M494.878,271.023v143.769c0,14.924-12.14,27.064-27.064,27.064h-102.61L255.702,332.353
		l131.121-131.11c5.103-5.114,11.908-7.931,19.132-7.931c7.224,0,14.029,2.817,19.132,7.931L494.878,271.023z"/>
	<path style="fill:#C2E95D;" d="M341.764,441.855H43.633c-14.924,0-27.064-12.14-27.064-27.064v-31.913l39.336-39.336H238.05
		c1.546,0,2.994-0.431,4.231-1.171L341.764,441.855z M246.334,370.606c0-4.573-3.712-8.285-8.285-8.285H52.47
		c-4.573,0-8.285,3.712-8.285,8.285c0,4.573,3.712,8.285,8.285,8.285H238.05C242.623,378.891,246.334,375.179,246.334,370.606z
		 M175.638,405.955c0-4.573-3.712-8.285-8.285-8.285H52.47c-4.573,0-8.285,3.712-8.285,8.285s3.712,8.285,8.285,8.285h114.882
		C171.926,414.239,175.638,410.528,175.638,405.955z"/>
</g>
<g>
	<path style="fill:#535757;" d="M317.584,167.905c4.573,0,8.285,3.712,8.285,8.285c0,4.573-3.712,8.285-8.285,8.285h-19.022
		c-1.138,5.888-3.446,11.345-6.695,16.139l13.456,13.454c3.237,3.237,3.237,8.484,0,11.72c-1.613,1.624-3.735,2.43-5.856,2.43
		s-4.242-0.806-5.866-2.43l-13.454-13.454c-4.795,3.248-10.262,5.556-16.139,6.694v19.022c0,4.573-3.712,8.285-8.285,8.285
		s-8.285-3.712-8.285-8.285v-19.022c-5.877-1.138-11.345-3.446-16.139-6.694l-13.454,13.454c-1.624,1.624-3.745,2.43-5.866,2.43
		c-2.121,0-4.243-0.806-5.856-2.43c-3.237-3.237-3.237-8.484,0-11.72l13.456-13.454c-3.249-4.794-5.556-10.251-6.695-16.139h-19.022
		c-4.573,0-8.285-3.712-8.285-8.285c0-4.573,3.712-8.285,8.285-8.285h19.022c1.138-5.888,3.446-11.345,6.695-16.139l-13.456-13.454
		c-3.237-3.237-3.237-8.484,0-11.72c3.238-3.237,8.485-3.237,11.72,0l13.454,13.455c4.795-3.248,10.262-5.556,16.139-6.694V114.33
		c0-4.573,3.712-8.285,8.285-8.285c4.573,0,8.285,3.712,8.285,8.285v19.022c5.877,1.138,11.345,3.446,16.139,6.694l13.454-13.455
		c3.237-3.237,8.484-3.237,11.72,0c3.237,3.237,3.237,8.484,0,11.72l-13.456,13.454c3.248,4.794,5.556,10.251,6.695,16.139
		L317.584,167.905L317.584,167.905z M282.787,176.19c0-14.924-12.14-27.064-27.064-27.064s-27.064,12.14-27.064,27.064
		s12.14,27.064,27.064,27.064S282.787,191.114,282.787,176.19z"/>
	<path style="fill:#535757;" d="M238.05,362.321c4.573,0,8.285,3.712,8.285,8.285c0,4.573-3.712,8.285-8.285,8.285H52.47
		c-4.573,0-8.285-3.712-8.285-8.285c0-4.573,3.712-8.285,8.285-8.285H238.05z"/>
</g>
<path style="fill:#C2E95D;" d="M182.696,282.787h-66.035l13.884-13.885c5.103-5.114,11.908-7.931,19.132-7.931
	s14.029,2.817,19.132,7.931L182.696,282.787z"/>
<path style="fill:#535757;" d="M167.353,397.67c4.573,0,8.285,3.712,8.285,8.285s-3.712,8.285-8.285,8.285H52.47
	c-4.573,0-8.285-3.712-8.285-8.285s3.712-8.285,8.285-8.285H167.353z"/>
<g>
</g>
<g>
</g>
<g>
</g>
<g>
</g>
<g>
</g>
<g>
</g>
<g>
</g>
<g>
</g>
<g>
</g>
<g>
</g>
<g>
</g>
<g>
</g>
<g>
</g>
<g>
</g>
<g>
</g>
</svg>
