<svg xmlns="http://www.w3.org/2000/svg" viewBox="0 0 504 504"><defs><style>.a{fill:#aea79f;opacity:0.5;}.b{fill:#f6c358;}.c{fill:#fcd462;}.d{fill:#64798a;}.e{fill:#fff;}.f{fill:#d5d6db;}.g{fill:#44c4a1;}.h{fill:#e56353;}.i{fill:#ebf0f3;}.j{fill:#e1e6e9;}.k{fill:#27a2db;}.l{fill:#dc8744;}</style></defs><title>intro-web-dev-course-graphics</title><path class="a" d="M468,202.41l-50.31,27.8h0L468,202.41l-50.31-43.49V41.54a9.13,9.13,0,0,0-8.78-9.36H271.08L252.13,15.8a28.26,28.26,0,0,0-36.27,0L196.92,32.18H59.09A9,9,0,0,0,50.31,41v74.88h0v43.09L0,202.41v238.1H0a28.31,28.31,0,0,0,5.85,17h0A27.74,27.74,0,0,0,27.5,468H439.92c8.77,0,17-4.09,21.64-10.53l-105-57.91h.58l105.06,57.91a28.31,28.31,0,0,0,5.85-17V202.41Z"/><polygon class="b" points="270 367.7 504 238.41 36 238.41 270 367.7"/><path class="b" d="M251.86,51.8,36,238.41H504L288.13,51.8A28.26,28.26,0,0,0,251.86,51.8Z"/><path class="c" d="M36,238.41h0v238.1a28.31,28.31,0,0,0,5.85,17L270,367.7Z"/><path class="d" d="M444.91,68.18H95.09A9,9,0,0,0,86.31,77V136H453.69V77.54A9.13,9.13,0,0,0,444.91,68.18Z"/><path class="e" d="M453.69,136h-289a4.39,4.39,0,0,1-4.09-2.93l-4.68-14.62a4.4,4.4,0,0,0-4.1-2.93H106.2a4.38,4.38,0,0,0-4.09,2.93l-4.69,14.62A4.38,4.38,0,0,1,93.33,136h-7V402.21H453.69Z"/><path class="f" d="M86.31,402.21v24.57a9,9,0,0,0,8.77,8.78H444.91a9,9,0,0,0,8.78-8.78V402.21Z"/><circle class="c" cx="359.5" cy="92.16" r="9.94"/><circle class="g" cx="395.19" cy="92.16" r="9.94"/><circle class="h" cx="431.46" cy="92.16" r="9.94"/><path class="i" d="M166.46,129.6h62L225,118.49a4.38,4.38,0,0,0-4.09-2.93H161.77a.58.58,0,0,0,.59.59Z"/><rect class="j" x="86.31" y="151.83" width="367.38" height="95.94"/><circle class="f" cx="106.2" cy="199.8" r="9.36"/><polygon class="i" points="100.94 199.8 107.37 205.65 107.37 193.37 100.94 199.8"/><circle class="f" cx="433.8" cy="199.8" r="9.36"/><polygon class="i" points="439.06 199.8 432.63 205.65 432.63 193.37 439.06 199.8"/><circle class="k" cx="381.73" cy="416.25" r="7.02"/><circle class="h" cx="403.38" cy="416.25" r="7.02"/><circle class="g" cx="425.02" cy="416.25" r="7.02"/><rect class="d" x="100.93" y="413.33" width="98.87" height="6.44"/><rect class="d" x="105.03" y="350.73" width="66.11" height="6.44"/><rect class="d" x="105.03" y="376.47" width="44.46" height="6.44"/><rect class="d" x="192.78" y="350.73" width="66.11" height="6.44"/><rect class="d" x="192.78" y="376.47" width="44.46" height="6.44"/><rect class="d" x="281.11" y="350.73" width="66.11" height="6.44"/><rect class="d" x="281.11" y="376.47" width="44.46" height="6.44"/><rect class="d" x="368.86" y="350.73" width="66.11" height="6.44"/><rect class="d" x="368.86" y="376.47" width="44.46" height="6.44"/><path class="g" d="M253.62,263.57h-55a5.24,5.24,0,0,0-5.27,5.26v55a5.25,5.25,0,0,0,5.27,5.27h55a5.24,5.24,0,0,0,5.26-5.27v-55A5.24,5.24,0,0,0,253.62,263.57Z"/><path class="b" d="M165.87,263.57h-55a5.24,5.24,0,0,0-5.27,5.26v55a5.25,5.25,0,0,0,5.27,5.27h55a5.24,5.24,0,0,0,5.26-5.27v-55A5.23,5.23,0,0,0,165.87,263.57Z"/><path class="h" d="M341.37,263.57h-55a5.24,5.24,0,0,0-5.27,5.26v55a5.25,5.25,0,0,0,5.27,5.27h55a5.24,5.24,0,0,0,5.26-5.27v-55C347.22,265.91,344.29,263.57,341.37,263.57Z"/><path class="k" d="M429.7,263.57h-55a5.24,5.24,0,0,0-5.27,5.26v55a5.25,5.25,0,0,0,5.27,5.27h55a5.25,5.25,0,0,0,5.27-5.27v-55A5.24,5.24,0,0,0,429.7,263.57Z"/><rect class="i" x="99.76" y="82.22" width="234.59" height="19.89"/><path class="c" d="M504,238.41h0L270,367.7,498.15,493.47a28.31,28.31,0,0,0,5.85-17V238.41Z"/><path class="b" d="M41.85,493.47A27.74,27.74,0,0,0,63.5,504H475.92c8.77,0,17-4.09,21.64-10.53L269.41,367.7Z"/><polygon class="c" points="36 238.41 36 238.41 36 453.11 270 367.7 36 238.41"/><path class="l" d="M36,453.11v23.4a28.31,28.31,0,0,0,5.85,17L270,367.7Z"/></svg>