<?xml version="1.0" encoding="iso-8859-1"?>
<!-- Generator: Adobe Illustrator 18.1.1, SVG Export Plug-In . SVG Version: 6.00 Build 0)  -->
<svg version="1.1" id="Capa_1" xmlns="http://www.w3.org/2000/svg" xmlns:xlink="http://www.w3.org/1999/xlink" x="0px" y="0px"
	 viewBox="0 0 235.065 235.065" style="enable-background:new 0 0 235.065 235.065;" xml:space="preserve">
<g>
	<g>
		<path style="fill:#010002;" d="M156.019,58.832h18.025l-12.358,69.772c-1.376,8.066-1.42,13.908-0.131,17.514
			c1.289,3.595,4.166,5.401,8.626,5.401s8.838-1.028,13.13-3.089c4.291-2.061,8.148-5.232,11.585-9.524s6.222-9.692,8.371-16.214
			c2.143-6.521,3.22-14.245,3.22-23.176c0-12.874-2.154-23.861-6.44-32.955c-4.291-9.094-10.171-16.611-17.633-22.529
			c-7.468-5.929-16.268-10.258-26.396-13.005s-21.022-4.128-32.7-4.128c-13.386,0-25.83,2.404-37.328,7.212
			c-11.498,4.814-21.495,11.422-29.996,19.825c-8.496,8.414-15.148,18.411-19.95,30.002c-4.808,11.58-7.207,24.149-7.207,37.714
			c0,13.391,2.012,25.4,6.043,36.045c4.036,10.65,9.915,19.695,17.639,27.168c7.723,7.462,17.291,13.212,28.702,17.242
			c11.411,4.03,24.503,6.048,39.27,6.048c4.971,0,10.633-0.598,16.986-1.795c6.353-1.207,12.102-3.008,17.253-5.412l7.979,24.721
			c-7.038,3.432-14.201,5.831-21.495,7.201c-7.299,1.376-15.665,2.067-25.101,2.067c-16.649,0-32.058-2.41-46.216-7.207
			c-14.163-4.814-26.428-11.933-36.812-21.37c-10.389-9.442-18.498-21.158-24.34-35.147C2.915,157.23,0,141.049,0,122.686
			c0-18.71,3.345-35.62,10.046-50.725c6.69-15.093,15.703-27.973,27.032-38.623c11.33-10.639,24.459-18.83,39.39-24.59
			c14.93-5.744,30.72-8.621,47.369-8.621c15.79,0,30.47,2.279,44.029,6.821c13.554,4.553,25.313,11.068,35.267,19.57
			c9.954,8.496,17.769,18.884,23.437,31.16c5.662,12.265,8.496,26.216,8.496,41.832c0,10.987-1.925,21.278-5.793,30.899
			c-3.862,9.616-9.181,17.938-15.958,24.976c-6.788,7.033-14.68,12.608-23.687,16.731c-9.007,4.117-18.667,6.179-28.963,6.179
			c-4.297,0-8.278-0.468-11.977-1.414c-3.688-0.946-6.777-2.535-9.263-4.765c-2.491-2.235-4.335-5.151-5.537-8.757
			c-1.202-3.601-1.55-8.061-1.028-13.386h-1.028c-2.578,3.606-5.363,7.125-8.365,10.552c-3.008,3.438-6.309,6.483-9.915,9.143
			c-3.601,2.665-7.555,4.765-11.841,6.309c-4.297,1.539-9.013,2.317-14.163,2.317c-4.117,0-8.066-0.903-11.841-2.698
			c-3.78-1.806-7.044-4.34-9.785-7.598c-2.752-3.258-4.939-7.207-6.565-11.846c-1.637-4.634-2.448-9.785-2.448-15.447
			c0-10.639,1.713-20.984,5.145-31.024c3.432-10.046,8.115-18.923,14.033-26.646s12.787-13.94,20.598-18.667
			c7.811-4.716,16.094-7.076,24.84-7.076c6.005,0,11.074,0.897,15.191,2.698c4.123,1.806,7.892,4.166,11.33,7.087L156.019,58.832z
			 M139.795,89.992c-2.23-1.893-4.547-3.35-6.946-4.378c-2.404-1.033-5.406-1.545-9.013-1.545c-5.145,0-9.91,1.458-14.283,4.378
			c-4.378,2.915-8.159,6.685-11.33,11.324c-3.182,4.634-5.624,9.834-7.343,15.572c-1.713,5.76-2.578,11.379-2.578,16.867
			c0,5.667,1.159,10.307,3.481,13.913c2.317,3.595,6.304,5.401,11.966,5.401c2.404,0,4.982-0.729,7.723-2.181
			c2.752-1.463,5.406-3.394,7.99-5.798c2.573-2.399,5.058-5.151,7.462-8.235c2.404-3.095,4.547-6.353,6.44-9.785L139.795,89.992z"/>
	</g>
</g>
<g>
</g>
<g>
</g>
<g>
</g>
<g>
</g>
<g>
</g>
<g>
</g>
<g>
</g>
<g>
</g>
<g>
</g>
<g>
</g>
<g>
</g>
<g>
</g>
<g>
</g>
<g>
</g>
<g>
</g>
</svg>
