<?xml version="1.0" encoding="iso-8859-1"?>
<!-- Generator: Adobe Illustrator 19.1.0, SVG Export Plug-In . SVG Version: 6.00 Build 0)  -->
<svg version="1.1" id="Capa_1" xmlns="http://www.w3.org/2000/svg" xmlns:xlink="http://www.w3.org/1999/xlink" x="0px" y="0px"
	 viewBox="0 0 64 64" style="enable-background:new 0 0 64 64;" xml:space="preserve">
<g>
	<g>
		<path d="M20.295,8L5.058,50.664l1.884,0.672L11.705,38h19.591l4.763,13.336l1.884-0.672L22.705,8H20.295z M12.419,36L21.5,10.573
			L30.581,36H12.419z"/>
		<path d="M48.289,27l-8.233,23.672l1.889,0.656L44.146,45h10.709l2.201,6.328l1.889-0.656L50.711,27H48.289z M44.841,43
			L49.5,29.606L54.159,43H44.841z"/>
		<path d="M0,64h64V0H0V64z M2,2h60v60H2V2z"/>
	</g>
</g>
<g>
</g>
<g>
</g>
<g>
</g>
<g>
</g>
<g>
</g>
<g>
</g>
<g>
</g>
<g>
</g>
<g>
</g>
<g>
</g>
<g>
</g>
<g>
</g>
<g>
</g>
<g>
</g>
<g>
</g>
</svg>
