<?xml version="1.0" encoding="utf-8"?>
<!-- Generator: Adobe Illustrator 22.1.0, SVG Export Plug-In . SVG Version: 6.00 Build 0)  -->
<svg version="1.1" id="Layer_1" xmlns="http://www.w3.org/2000/svg" xmlns:xlink="http://www.w3.org/1999/xlink" x="0px" y="0px"
	 viewBox="0 0 695.7 334.3" style="enable-background:new 0 0 695.7 334.3;" xml:space="preserve">
<style type="text/css">
	.st0{enable-background:new    ;}
</style>
<title>Asset 2</title>
<g class="st0">
	<path d="M231.9,0h0.4c1.1,0.5,1.7,1.4,1.7,2.9c-2.8,3.5-5.7,6.8-8.7,10c-3.2,4.1-6.5,9.3-10,15.7c-1.6,1.2-4.7,6.9-9.2,17.1
		C199.8,62,195,78.8,191.7,96.3c-0.6,2.3-1.1,6.6-1.7,12.9c10.2,2.7,18.7,6.6,25.7,11.6c1,0,2.8,1.4,5.4,4.1v1.3
		c0,0.4-0.6,0.9-1.7,1.7c-14.7-8.5-24.7-13-29.9-13.3l-0.4,0.8c-0.3,9-0.4,14.9-0.4,17.9c1.1,14.6,2.3,23.8,3.7,27.3
		c3.4,13.9,7.4,25.8,12,35.7c2.5,6.6,8.9,17.2,19.1,31.9c7,8.6,14.8,16.6,23.2,24c13.8,9.8,25,16.8,33.6,20.8
		c17.2,6.6,30.3,10,39.4,10c0,0.5,4.7,1.3,14.2,2.4c0.5,0,0.8-0.1,0.8-0.4l5,0.4h14.9l2.5,0.4c0.5-0.3,1.1-0.4,2.1-0.4v0.4l0.9-0.4
		h2.1c2.8,0,6.2-0.1,10.4-0.4l1.7,0.4c21.9-1.6,42-4.7,60.2-9.1v0.4c2.8-1,9.6-2.8,20.3-5.4c19.4-5.5,29.8-8.3,31.2-8.3
		c9.7-3.3,18.4-5.7,26.1-7l17.1-5c7.1-2.2,17.9-4.7,32.3-7.5c0-0.9,10.9-2.7,32.8-5.4c12.7-0.6,19.7-0.9,21.1-0.9h2.5
		c1,0,2.2-0.1,3.7-0.4c18.2,2.2,28.7,3.7,31.5,4.6c17.2,3.7,30.2,7.8,39,12.4c0,0.3,1.2,1.3,3.7,2.9c-2.5,6.8-9.7,19.8-21.5,39
		c0,0.4-0.4,0.8-1.3,1.3h-0.9c-8.1-2.5-16.1-5.5-24-9.1c-18.8-7-34.2-10.4-46.1-10.4c0-0.4-6.3-0.8-19-1.2l-0.9,0.4l-0.8-0.4
		c-0.3,0-0.4,0.1-0.4,0.4l-4.2-0.4h-5.8c-6.2,0-15.5,0.8-27.8,2.4l-0.8-0.4c-31.6,4.2-56.5,8.6-74.7,13.3c-5.9,1.1-9.5,1.7-10.8,1.7
		l-1.7-0.9c-25.2,4.4-41,6.6-47.3,6.6v-0.4l-0.8,0.4c-3.2,0-9.4,0.3-18.8,0.9c-0.3,0-0.4-0.1-0.4-0.4l-2.1,0.4h-0.4
		c-17,0-31-0.8-41.9-2.5c-5.5,0-9.8-0.7-12.9-2.1c-8.2-1.6-13.2-2.4-14.9-2.4c0-0.5-1.1-1-3.3-1.7c-0.3,0-0.4,0.1-0.4,0.4
		c-7.8-2-17.6-5.4-29.5-10.4c-6.8-4.2-11.3-6.2-13.3-6.2c-1.2-1-3.9-2.3-8.3-3.7c-5.9-3.2-11.9-6.8-17.8-10.8l-9.6-7
		c-9.4-7.4-17.1-14.1-23.2-20.3c-5.7-5.5-9.3-9.7-10.8-12.5c-1-0.7-4.1-5.2-9.1-13.7c-3.3-6.1-6.5-12.3-9.6-18.7
		c-4.1-8.7-7.7-19.8-10.7-33.2l-1.7-17.4c0.5-11.7,1.3-20.6,2.4-26.6c-0.6-0.9-6.4-1.5-17.4-1.7h-5c-2.5,8.3-5.7,17.9-9.6,28.6
		c0,0.7-0.8,2.8-2.4,6.2c0,0.7-1.5,4.1-4.6,10.4c0,1.4-2.3,5.9-7,13.7c-3.6,7.2-6.8,12.1-9.6,14.9c-4.3,5.5-9.3,10.6-14.9,15.3
		c-4.6,4-9.7,7.1-15.3,9.2c0,1.2-7.7,3.5-23.2,7c-3.1,0-4.6,0.1-4.6,0.4l-2.1-0.4h-3.3c-1.4,0-3.5,0.1-6.2,0.4v-0.4
		c-0.3,0-0.4,0.1-0.4,0.4c-10-1.4-17.8-3.7-23.2-7c-2.5-1.2-6.3-4.1-11.2-8.7c-2.4-0.7-5.7-6.5-10-17.5L0,171c0-0.4,1-5.2,2.9-14.6
		c0.5,0,1.5-2.1,2.8-6.2c0.5,0,1.6-2.1,3.3-6.2c8.3-9.6,16.4-15.8,24.1-18.7c0-1.2,2.5-1.9,7.4-2.1c1.7,0.3,2.5,0.7,2.5,1.3v0.4
		c-0.2,0.7-2.1,1.5-5.9,2.5c-7.9,5.1-13,8.7-15.3,10.7c-6.1,6.2-9.4,10.7-10,13.3c-2.4,2.9-4.3,9.1-5.8,18.7
		c0,9.9,2.8,18.1,8.3,24.5c5.5,5.9,10.2,9.4,14.1,10.4c0,1.5,6.4,3.2,19.1,5h3.7c1.2,0,2.3-0.3,3.3-0.9l1.7,0.5
		c7.5-1.7,13-4.2,16.6-7.5c0.5,0,2.4-1.9,5.8-5.8c3.7-3.3,8.3-9.1,13.7-17.5c4.9-8.3,9-16.3,12.5-24c1-1.4,2.2-4.3,3.7-8.7
		c3.1-8.5,6.4-16.6,10-24.1c1.1-3.5,2.6-7.2,4.6-11.1V110c0-0.5-0.4-0.8-1.3-0.8c-1.8,0-3.5-0.2-5.4-0.5c-2.5,0.3-4,0.5-4.6,0.5
		l-9.1-0.9l-1.7,0.4c-14-1.6-25.8-4.8-35.4-9.5c-9.3-4-16.3-11-21.1-21.2c-2-6.3-2.9-12.8-2.9-19.5c0-6.1,2.3-12.5,7-19.4
		c0.6-0.1,1.9-1.3,3.8-3.8c6.1-5.2,12.1-7.8,18.2-7.8h2.9c12.5,0,21.5,6.2,27,18.7l0.5,4.1l-0.9,0.5H100c-2.1,0-4.2-2.2-6.2-6.6
		c-0.5,0-2.1-1.7-4.6-5c-4.7-3.3-10.5-5.5-17.4-6.6c-5.4,0-11.1,2.8-17,8.3c-3.5,4.1-5.5,8.5-5.9,13.3c-0.5,0-0.8,0.6-0.8,1.7
		c0,0.3,0.1,0.4,0.4,0.4l-0.4,2.1v1.3c0,16.5,7.2,28.1,21.6,34.9c10.7,6.1,26.7,9.1,48.1,9.1c0.1,0,0.7-0.1,1.7-0.4
		c0.6,0.3,2,0.5,4.1,0.8c2.5,0,4.7-3.2,6.6-9.5c2.5-3.6,4.3-6.8,5.4-9.6c8.5-13.2,15.6-23.3,21.2-30.3
		c12.2-14.5,24.5-26.7,36.9-36.5c8.9-6.4,15.5-10.3,19.9-11.6c0.3-0.4,2.1-1.2,5.4-2.4C219,3.3,223.3,2,231.9,0z M80.5,203.7h1.3
		c0.4,0,0.8-0.4,1.3-1.3v-1.2C82.4,201.3,81.5,202.1,80.5,203.7z M86.3,196.7v0.4c1.2-0.3,2.8-1.8,5-4.5h0.4v-0.5h-0.4
		C88.8,193.5,87.1,195.1,86.3,196.7z M96.7,193v0.8h0.4c4.2-2.7,8.7-7.2,13.7-13.7v-0.8h-0.4c-2.1,1.8-6.4,6.4-12.9,13.7H96.7z
		 M100.4,181.3c0,0.3-0.1,0.7-0.4,1.3h0.4c0.6,0,0.9-0.3,0.9-0.9v-0.4H100.4z M125.7,132.8l-4.5,10.4c-5.3,11.6-9.1,17.5-11.2,17.9
		h-1.7c-1.4,2.3-2.1,3.8-2.1,4.5v1.7l1.2,2.1c0,1.2-2.1,4.9-6.2,11.1v0.5h0.4c0.6-0.3,4-4.6,10.4-12.9l-0.8-1.3V166
		c0-0.6,4-8.5,12-23.7c0-0.7,0.9-3.3,2.8-7.8v-1.7H125.7z M111.2,178v0.4h0.8c0.6,0,1.1-0.7,1.3-2.1h-0.4
		C112.4,176.4,111.9,176.9,111.2,178z M113.3,175.5v0.5h0.8l0.5-1.7C114.1,174.3,113.7,174.7,113.3,175.5z M118.3,136.9l0.4,0.9
		l-0.4,0.8v0.4h0.4l7.4-18.2h-0.8C124.5,121.7,122.2,127.1,118.3,136.9z M135.6,109.6c0,0.3-0.4,1.6-1.3,3.7l0.9,0.4
		c1.1-1.8,1.7-3.1,1.7-3.7l-0.9-0.4H135.6z M144.8,85.4c1,1.1,2.1,1.7,3.3,1.7c3.1-6.6,5.2-12.1,6.2-16.5
		C150.3,73.9,147.1,78.9,144.8,85.4z M151,103.3c0,0.7,7.1,1.2,21.2,1.7c3.9-14.9,8.8-29.4,14.6-43.6c0.6-0.1,2.1-2.8,4.5-8.3
		c0.5,0,3.3-4.4,8.3-13.3c0.6-0.1,3.2-4,7.5-11.6l6.2-8.7c1.8-1,3.4-3.3,5-6.6c0.9-0.4,1.7-1.5,2.4-3.3c-0.3,0-0.4-0.1-0.4-0.4
		c-6.6,1.8-13.2,5.6-19.5,11.6c-12.4,13-21,23.5-25.7,31.5c-6,9.2-11.4,19.4-16.2,30.7C156,89.5,153.4,96.2,151,103.3z M160.5,60.2
		c-1.6,2-2.4,3.7-2.4,5c0.5,0,0.8,0.2,0.8,0.5c1.4-0.5,2.1-1.9,2.1-4.2v-1.3H160.5z M178,138.6c1.4,14.4,2.7,24.6,4.1,30.8
		c0,0.5-0.4,2.3-1.3,5.4c0.5,0,1.9,3.3,4.2,10c3.1,6.6,4.9,10,5.4,10v-0.9c-4.4-9.9-6.6-15.8-6.6-17.8v-0.9c0-0.5,0.8-0.8,2.4-0.8
		c-1.9-10.1-3.9-22.8-6.2-38.2C179.6,136.1,178.9,136.9,178,138.6z M178.8,130.8v1.2c0.6,1.8,0.9,3.1,0.9,3.7h0.4v-0.8l-0.9-4.1
		H178.8z M180.1,98.3c1,0.8,2,1.3,2.9,1.3c0.8-6.6,2.1-13.8,4.1-21.6c-0.9,0-1.6,1.5-2.1,4.6c-0.8,0-2.2,4.3-4.2,12.8
		C180.3,95.4,180.1,96.4,180.1,98.3z M191.7,178.8v1.3h0.8v-0.4C192.5,179.1,192.2,178.8,191.7,178.8z M199.5,202v0.4
		c1,2,2.1,2.9,3.3,2.9c-1.2-2.7-2.1-4-2.4-4.1C199.8,201.3,199.5,201.6,199.5,202z M209.5,223.6c2,2.9,5.3,6.3,10,10.4h0.5v-0.4
		c-4.3-5.5-7.1-8.8-8.3-10H209.5z M376.7,290.8c-0.5-0.3-1-0.4-1.7-0.4l-1.7,0.4c-0.3,0-0.4-0.1-0.4-0.4c-3.6,0.6-9.3,0.9-17,0.9
		l-1.7-0.5c-0.3,0-0.4,0.2-0.4,0.5l-2.1-0.5h-4.2v0.9c1.1,0,5.5,0.4,13.3,1.3h1.7c10.9,0,22.6-1.3,34.9-3.8v-0.4h-0.9L376.7,290.8z
		 M431.1,287.1c0.3,0.5,0.4,1.1,0.4,1.7c7.7-1.6,11.6-2.9,11.6-3.7h-0.4L431.1,287.1z M464.3,278v0.8l12.9-2.9v-0.8
		C469.8,276,465.5,277,464.3,278z M494.9,273h0.4c22.6-2.5,45.4-5.3,68.5-8.3c12.6-0.6,19.1-1,19.5-1.3c0.3,0,0.7,0.1,1.3,0.4
		c5.1-0.3,9.4-0.4,12.9-0.4h1.2l4.2,0.4v-0.8c-3.6-0.8-13.5-1.3-29.9-1.3H565c-2.1,1-8.8,1.9-19.9,2.4c-23.2,2.5-40,5.3-50.2,8.3
		V273z M510.3,275.1v0.4l3.8,0.9h2.1l2.1-0.5v-1.2h-1.7C515.1,274.7,513.1,274.8,510.3,275.1z M570,270.1l-0.8-0.4
		c-0.3,0-0.5,0.1-0.5,0.4c-2.1-0.3-3.5-0.7-4.1-1.3c-7.4,0.6-16.5,1.8-27.3,3.7v0.5h2.1l21.1-2.1v0.5l0.9-0.5c0.7,0,1.2,0.2,1.7,0.5
		c2.5-0.3,4-0.6,4.6-0.9c0.3,0,0.4,0.1,0.4,0.4l2.1-0.4c0.2,0,2,0.1,5.4,0.4c0.6,0,0.9-0.1,0.9-0.4l2.9,0.4h0.4
		c12.2,0,21.4,0.6,27.3,1.7c0.6-0.3,1-0.4,1.3-0.4v-1.7c-7.2-1.4-15.5-2.1-24.9-2.1c-0.3,0-0.7,0.1-1.3,0.4c-0.3,0-0.4-0.1-0.4-0.4
		C576.5,269,572.6,269.5,570,270.1z M541.8,255.6v0.9c3.6-0.6,11.8-1.4,24.5-2.5v-0.8c-0.6-0.7-0.9-1.1-0.9-1.3
		C557.1,252.7,549.2,253.9,541.8,255.6z M546.4,260.5h2.1c0-0.5-0.3-0.8-0.8-0.8h-0.4C546.7,259.8,546.4,260.1,546.4,260.5z
		 M548.9,259.8v0.4c2.3,0,3.5,0.1,3.7,0.4c0.3-0.3,1.3-0.4,2.8-0.4c0-0.6-0.3-0.9-0.8-0.9h-0.8L548.9,259.8z M573.3,252.2
		c0.1,0.6,0.4,0.9,0.9,0.9h0.8c0.6,0,0.9-0.3,0.9-0.9H573.3z M578.3,251.5v0.8h6.2c3.3,1.4,5.4,2.1,6.2,2.1l-0.5-2.9v-0.9
		C589,250.6,585,250.9,578.3,251.5z M584.2,245.2l0.4,0.9c7.4-0.6,12-0.9,14.1-0.9c2.5,0.3,4,0.4,4.6,0.4c0.1,0,0.7-0.1,1.7-0.4
		c1.1,0.3,2.2,0.4,3.3,0.4c0.7,0,1.2-0.1,1.7-0.4c5.5,0.6,13,1.1,22.4,1.7c0.1-1.4,1.7-2.1,4.6-2.1v-0.9
		c-10.3-0.8-17.1-1.2-20.3-1.2C608.4,242.8,597.6,243.6,584.2,245.2z M597.5,254.4v0.4c4.1,0,16.1,1.4,36,4.1v-0.4
		c0-2-2.1-2.9-6.2-2.9c-10.4-0.8-18.8-1.2-25.3-1.2H597.5z M617.8,268.1v0.4l2.8,0.4h0.9v-0.4l-2.9-0.4H617.8z M620.6,251.1h2.9
		c0.6,0,0.9-0.3,0.9-0.9h-2.9C620.9,250.3,620.6,250.6,620.6,251.1z M635.2,268.1v0.4c13,4.2,19.7,6.2,20.3,6.2h0.5v-0.5
		c0-0.7-2.4-1.5-7.1-2.4c-1.9-0.7-6.3-2-13.3-3.7H635.2z M642.2,251.9v0.4c10.2,2.2,19,4.8,26.6,7.9l2.1-0.4h1.2
		c1.2,1.4,1.9,2.1,2.1,2.1h2.8l0.4-1.7l-25.3-6.6c0-0.5-3.2-1.1-9.5-1.7H642.2z M645.1,265.5c0,0.5,5.5,2.3,16.6,5.4h0.4
		c0-0.4,0.3-0.9,0.9-1.7v-0.8C651.4,266.5,645.4,265.5,645.1,265.5z M665,272.6l0.9,0.5c0-1,1.2-1.8,3.7-2.1v-1.2
		c-1.1,0-1.7-0.2-1.7-0.5C666.9,269.2,665.9,270.3,665,272.6z M671.3,265.9c0.1,0.6,0.3,0.9,0.8,0.9h0.5c0-0.6-0.3-0.9-0.9-0.9
		H671.3z"/>
</g>
<g class="st0">
	<path d="M286.5,167.5c-4.9,4.1-9.6,7.1-14.1,8.8c-4.5,1.7-9.4,2.6-14.5,2.6c-8.5,0-15.1-2.1-19.7-6.3c-4.6-4.2-6.9-9.5-6.9-16
		c0-3.8,0.9-7.3,2.6-10.4c1.7-3.1,4-5.7,6.8-7.6c2.8-1.9,6-3.3,9.5-4.3c2.6-0.7,6.5-1.3,11.7-2c10.6-1.3,18.5-2.8,23.5-4.5
		c0-1.8,0.1-3,0.1-3.4c0-5.4-1.2-9.2-3.7-11.4c-3.4-3-8.4-4.5-15-4.5c-6.2,0-10.8,1.1-13.7,3.3c-3,2.2-5.1,6-6.6,11.5l-12.9-1.8
		c1.2-5.5,3.1-10,5.8-13.4c2.7-3.4,6.6-6,11.6-7.8c5.1-1.8,11-2.7,17.7-2.7c6.6,0,12,0.8,16.2,2.3c4.1,1.6,7.2,3.5,9.2,5.9
		c2,2.4,3.3,5.4,4.1,9c0.4,2.2,0.7,6.3,0.7,12.2v17.6c0,12.3,0.3,20,0.8,23.3c0.6,3.2,1.7,6.4,3.3,9.3h-13.8
		C287.8,174.4,286.9,171.2,286.5,167.5z M285.4,138.1c-4.8,2-12,3.6-21.5,5c-5.4,0.8-9.3,1.7-11.5,2.6c-2.2,1-4,2.4-5.2,4.3
		c-1.2,1.9-1.8,4-1.8,6.3c0,3.5,1.3,6.4,4,8.8c2.7,2.3,6.6,3.5,11.7,3.5c5.1,0,9.6-1.1,13.5-3.3c4-2.2,6.9-5.3,8.7-9.1
		c1.4-3,2.1-7.4,2.1-13.2V138.1z"/>
	<path d="M322.9,177.1v-15h15v15H322.9z"/>
	<path d="M364.6,177.1v-15h15v15H364.6z"/>
	<path d="M406.2,177.1v-15h15v15H406.2z"/>
</g>
</svg>
