<?xml version="1.0" encoding="iso-8859-1"?>
<!-- Generator: Adobe Illustrator 19.1.0, SVG Export Plug-In . SVG Version: 6.00 Build 0)  -->
<svg version="1.1" id="Capa_1" xmlns="http://www.w3.org/2000/svg" xmlns:xlink="http://www.w3.org/1999/xlink" x="0px" y="0px"
	 viewBox="0 0 62 62" style="enable-background:new 0 0 62 62;" xml:space="preserve">
<g>
	<g>
		<path d="M11.289,7.146L3.056,30.819l1.889,0.656l2.201-6.328h10.709l2.201,6.328l1.889-0.656L13.711,7.146H11.289z M7.841,23.146
			L12.5,9.752l4.659,13.394H7.841z"/>
		<path d="M40.056,30.819l1.889,0.656l2.201-6.328h10.709l2.201,6.328l1.889-0.656L50.711,7.146h-2.422L40.056,30.819z
			 M54.159,23.146h-9.317L49.5,9.752L54.159,23.146z"/>
		<rect x="30" y="2.146" width="2" height="2"/>
		<rect x="30" y="30.146" width="2" height="4"/>
		<rect x="30" y="18.146" width="2" height="4"/>
		<rect x="30" y="12.146" width="2" height="4"/>
		<rect x="30" y="24.146" width="2" height="4"/>
		<rect x="30" y="6.146" width="2" height="4"/>
		<rect x="30" y="36.146" width="2" height="2"/>
		<polygon points="54.854,59.854 62,52.854 62,51.439 54.854,44.439 53.366,45.854 58.586,51.146 3.414,51.146 8.707,45.854 
			7.146,44.439 0,51.439 0,52.854 7.146,59.854 8.634,58.439 3.414,53.146 58.586,53.146 53.366,58.439 		"/>
	</g>
</g>
<g>
</g>
<g>
</g>
<g>
</g>
<g>
</g>
<g>
</g>
<g>
</g>
<g>
</g>
<g>
</g>
<g>
</g>
<g>
</g>
<g>
</g>
<g>
</g>
<g>
</g>
<g>
</g>
<g>
</g>
</svg>
