<svg xmlns="http://www.w3.org/2000/svg" viewBox="0 0 504 396"><defs><style>.a{fill:#aea79f;opacity:0.5;}.b,.k{fill:#fff;}.c{fill:#2f4859;}.d,.e,.f{fill:none;stroke:#aea79f;stroke-width:10px;}.d,.e,.f,.j,.k{stroke-miterlimit:10;}.e{stroke-dasharray:30.22 20.15;}.f{stroke-dasharray:30.71 20.47;}.g{fill:#777;}.h,.j{fill:#64798a;}.i{fill:#3a556a;}.j,.k{stroke:#64798a;stroke-width:4px;}.l{fill:#ebf0f3;}.m{fill:#e1e6e9;}.n{fill:#d5d6db;}.o{fill:#fcd462;}.p{fill:#f6c358;}.q{fill:#dc8744;}.r{fill:#44c4a1;}.s{fill:#3ea69b;}.t{fill:#31978c;}.u{fill:#e56353;}.v{fill:#d15241;}.w{fill:#ce412d;}.x{fill:#27a2db;}.y{fill:#2d93ba;}.z{fill:#1c75a1;}</style></defs><title>intro-img-typography</title><rect class="a" width="468" height="360" rx="27" ry="27"/><rect class="b" x="36" y="36" width="468" height="360" rx="27" ry="27"/><path class="c" d="M63,36H477a27,27,0,0,1,27,27v0a0,0,0,0,1,0,0H36a0,0,0,0,1,0,0v0A27,27,0,0,1,63,36Z"/><polyline class="d" points="476 353 476 368 461 368"/><line class="e" x1="440.85" y1="368" x2="199.07" y2="368"/><polyline class="d" points="189 368 174 368 174 353"/><line class="f" x1="174" y1="332.53" x2="174" y2="189.24"/><polyline class="d" points="174 179 174 164 189 164"/><line class="e" x1="209.15" y1="164" x2="450.93" y2="164"/><polyline class="d" points="461 164 476 164 476 179"/><line class="f" x1="476" y1="199.47" x2="476" y2="342.76"/><path class="g" d="M296.68,283.24H247.74L237.35,314h16.5v17H200.34V314h16.43l37.09-103.52H237.45V195.16h69.43v15.33h-17l38,103.52h15.2v17H289.89V314h16.89Zm-5.12-15.91-18.08-56.84h-1.86l-18.81,56.84Z"/><path class="g" d="M445.16,314.49V331H412.74V319.47q-13.49,13.09-30.08,13.09a32.79,32.79,0,0,1-22.41-8.4,27.35,27.35,0,0,1-9.52-21.48,27.67,27.67,0,0,1,10.1-21.88q10.11-8.69,24.37-8.69,13.28,0,25.68,8v-9.38q0-7.22-1.36-11.13t-6.4-7q-5-3.12-13.14-3.12-14,0-20.21,11.13L352,255.9q11.81-22.07,40.82-22.07a52.9,52.9,0,0,1,18.4,2.88q7.77,2.88,11.58,7.42a24.38,24.38,0,0,1,5.12,9.82q1.32,5.26,1.32,16.79v43.75Zm-34.28-18.65q-12-9.37-24.31-9.37A18.92,18.92,0,0,0,373.68,291a14.64,14.64,0,0,0-5.18,11.62A15,15,0,0,0,373,313.71q4.54,4.5,12.35,4.5,13.49,0,25.49-11.33Z"/><rect class="h" x="68.31" y="105.36" width="68.21" height="216"/><rect class="c" x="68.31" y="105.36" width="68.21" height="16.67"/><polygon class="i" points="135.76 150.07 135.76 144.77 104.69 144.77 104.69 122.03 99.38 122.03 99.38 144.77 68.31 144.77 68.31 150.07 99.38 150.07 99.38 173.57 68.31 173.57 68.31 178.87 99.38 178.87 99.38 203.13 68.31 203.13 68.31 208.43 99.38 208.43 99.38 231.93 68.31 231.93 68.31 237.99 99.38 237.99 99.38 261.48 68.31 261.48 68.31 266.79 99.38 266.79 99.38 290.28 68.31 290.28 68.31 296.35 99.38 296.35 99.38 321.36 104.69 321.36 104.69 296.35 135.76 296.35 135.76 290.28 104.69 290.28 104.69 266.79 135.76 266.79 135.76 261.48 104.69 261.48 104.69 237.99 135.76 237.99 135.76 231.93 104.69 231.93 104.69 208.43 135.76 208.43 135.76 203.13 104.69 203.13 104.69 178.87 135.76 178.87 135.76 173.57 104.69 173.57 104.69 150.07 135.76 150.07"/><path class="j" d="M275.67,81.45a5.31,5.31,0,0,0-5.62-5.62H119.3a5.31,5.31,0,0,0-5.63,5.62v18h162v-18Z"/><path class="k" d="M113.67,99.45v82.21c0,2.68,2.25,4.47,5.63,4.47H270.05c3.37,0,5.62-1.79,5.62-4.47V99.45Z"/><rect class="l" x="122.67" y="110.7" width="14.63" height="14.63"/><rect class="m" x="148.55" y="110.7" width="14.63" height="14.63"/><rect class="n" x="174.42" y="110.7" width="14.63" height="14.63"/><rect class="o" x="200.3" y="110.7" width="14.63" height="14.63"/><rect class="p" x="226.17" y="110.7" width="14.63" height="14.63"/><rect class="q" x="252.05" y="110.7" width="14.63" height="14.63"/><rect class="r" x="122.67" y="135.45" width="14.63" height="14.63"/><rect class="s" x="148.55" y="135.45" width="14.63" height="14.63"/><rect class="t" x="174.42" y="135.45" width="14.63" height="14.63"/><rect class="u" x="200.3" y="135.45" width="14.63" height="14.63"/><rect class="v" x="226.17" y="135.45" width="14.63" height="14.63"/><rect class="w" x="252.05" y="135.45" width="14.63" height="14.63"/><rect class="x" x="122.67" y="160.2" width="14.63" height="14.63"/><rect class="y" x="148.55" y="160.2" width="14.63" height="14.63"/><rect class="z" x="174.42" y="160.2" width="14.63" height="14.63"/><rect class="h" x="200.3" y="160.2" width="14.63" height="14.63"/><rect class="i" x="226.17" y="160.2" width="14.63" height="14.63"/><rect class="c" x="252.05" y="160.2" width="14.63" height="14.63"/></svg>