<svg xmlns="http://www.w3.org/2000/svg" viewBox="0 0 723.34 245.98"><defs><style>.a{fill:#1a1a1a;}.b{font-size:35px;font-family:MaybeMaybeNot, Maybe Maybe Not;}.c{font-size:49px;}.d{font-size:55px;letter-spacing:0.09em;}</style></defs><title>Asset 3</title><path class="a" d="M149.19,54.06c-.46-10.18.92-21.28-.93-31-.46-3.24-1.38-5.08-4.16-6.47-6-2.78-17.12-.93-23.59-.93-11.57,0-23.13,0-34.7.93a3.24,3.24,0,0,0,0,6.47c9.72.93,19.89.47,30.07.47,3.7,0,22.67-2.78,25,0,3.7,3.7,1.39,20.35,1.85,25.9,0,4.16.46,8.33.46,12.49a39.16,39.16,0,0,0,.47,7.4q2.07,6.95-2.78,5.55c-6,2.78-20.35.93-26.83.93-6.48.46-21.74,3.7-26.83-.93-4.63-4.62-1.85-19.43-1.85-26.36,0-8.33.46-16.2-.93-24.52,0-.93-1.85-.93-2.31,0-2.31,9.25-2.31,19.43-2.78,29.14-.46,8.79-2.31,19-.46,27.3a5.59,5.59,0,0,0,2.31,2.31c8.33,2.31,19,.46,27.76,0,10.64-.46,24.06,1.39,34.23-.93C154.28,78.58,149.19,63.77,149.19,54.06Z"/><path class="a" d="M241.25,154v-5.09c0-14.34.46-29.14-9.25-40.71a2.93,2.93,0,0,0-4.17,0c0-1.85-.92-3.7-2.77-3.7q-50,0-99.93,1.39c0-1.39-.92-3.24-.92-4.63a20.82,20.82,0,0,1-.46-5.08A209.35,209.35,0,0,0,147.8,94.3c9.25-1.38,13.42-2.77,15.27-12.49,2.31-10.17.92-21.27.92-31.45.47-10.18,3.24-25,.47-34.24C161.22,5,151,5.48,140.86,3.63c-19-2.77-41.63-5.55-60.6-1.85C73.32,3.17,68.23,5,67.77,12.42c-.46,3.7,5.55,3.7,6,0,.47-7.86,33.77-6,39.79-6,10.64.46,25.9,0,35.62,4.63,12,6,8.79,19.89,8.79,31.92,0,7.4,2.77,30.07-.93,36.54-10.64,17.12-50.88,11.11-67.54,9.26-13.88-1.39-17.58-5.56-19.43-19-.46-5.55.47-12,.93-17.58.46-11.57.92-23.59.46-35.16,0-1.39-1.85-1.39-2.31-.46-3.24,19.89-6.48,43.48-5.09,63.84.92,11.56,7.4,12,18,13.41,8.79.93,17.12,1.85,25.91,2.32-.47,2.31-.47,4.16-.93,6.47,0,1.39-.46,2.78,0,3.7-14.8.47-29.61,1.39-44.41,2.32a103.48,103.48,0,0,0-12-.93c.47-4.62,1.39-11.1-3.7-13-3.24-.93-7.86-.46-11.1-.46-4.63,0-9.25.46-13.88.46-1.85,0-2.77,1.39-2.31,3.24.46,3.7,1.39,7.4,1.85,11.1-3.24.46-6.94,1.39-10.18,1.85-.92,0-1.39.46-1.39.92-.92-.46-1.85-.46-1.85.47C3,136.4,3,161.38,2.54,185.9c-.46,12.49-6.94,41.64,2.78,52.28s36.08,5.09,48.11,5.09c28.68,0,57.83.46,86.51.92,25.44,0,53.66,3.7,79.1.46,10.64-1.38,18-5.09,20.82-15.73C245.87,207.18,241.71,177.11,241.25,154Zm-6.48,26.37c-15.26.93-30.07,3.7-45.8,3.7a70.56,70.56,0,0,0,.47-10.18c14.34,1.85,30.53,3.24,43.94-.92.47,0,.47-.46.93-.46A47.83,47.83,0,0,0,234.77,180.35Zm-.46-11.56a1.69,1.69,0,0,0-1.39-.47c-14.8.47-28.68,2.78-43.48,1.85a23.53,23.53,0,0,0-.93-6c14.81,1.39,31,2.31,45.8-.46ZM186.2,156.3c13.41,4.16,33.77,1.85,48.11-2.32v4.63c-15.73.46-31,2.31-46.73,2.31C187.12,159.07,186.66,157.68,186.2,156.3Zm38.39-44.88a3.57,3.57,0,0,0,2.32-.92,1.69,1.69,0,0,0,.46,1.38,53.56,53.56,0,0,1,5.55,11.57,116.59,116.59,0,0,0-31,4.16,50.76,50.76,0,0,1-1.85-14.34c0-.46,0-.46-.47-.92C207.94,111.88,216.27,111.42,224.59,111.42ZM120.05,96.62a22.86,22.86,0,0,0-.93,5.55,15.85,15.85,0,0,0,.46,4.63,40,40,0,0,0-7.4.46v-3.7a31.34,31.34,0,0,0-.92-6.48A53.38,53.38,0,0,1,120.05,96.62Zm-79.57,3.7c1.38,0,5.08-.46,6.47.46.46.46,0,5.09,0,7.4a158.28,158.28,0,0,0-20.82,1.39c-.46-2.77-.46-6-.92-8.79C30.3,100.32,35.39,100.32,40.48,100.32Zm-27.3,17.11c11.1-1.85,22.67-3.23,33.77-4.16h.46c49.5,1.85,99.47.93,149.43-.92v.46c-1.85,6.47-1.39,13,0,19.43a2.76,2.76,0,0,0,3.7,1.85c11.1-1.39,22.2-2.78,33.77-3.24a99.65,99.65,0,0,1,.46,16.65c-7.86.93-16.19,2.32-24.05,3.24-8.33.93-17.12.46-25,3.24a.45.45,0,0,0-.47.46c-9.25-20.81-31.45-35.16-53.66-29.6-22.2-3.71-44,9.71-56,28.68-20.81-4.17-43-3.7-64.3-3.7.46-11.11.46-22.21,0-32.85A2.79,2.79,0,0,0,13.18,117.43Zm117.51,97.15a88.55,88.55,0,0,0-.93,11.11v4.16a84.66,84.66,0,0,1-15.27,0c.93-6,2.32-12.49,1.85-18a41.77,41.77,0,0,0,25,.92c.47,1.85.93,3.7,1.39,6,.93,2.31,1.85,5.09,4.17,6,.92.46,1.85-.46,1.85-1.39,0-2.31-1.39-4.16-2.32-6a23,23,0,0,1-1.85-6,1.64,1.64,0,0,0,.93-.47,43.52,43.52,0,0,0,7.86-4.62h0c.93,3.7,3.24,8.32,6.48,10.64A65,65,0,0,1,133,229.39c-.47-1.39-.47-2.78-.93-4.17a37.6,37.6,0,0,1,0-10.17C132.54,214.12,131.15,213.66,130.69,214.58Zm-13-76.33a26.44,26.44,0,0,0-6.47,2.32,31.76,31.76,0,0,0-5.09-6c2.77-1.39,5.55-2.31,8.32-3.7v.46A46.5,46.5,0,0,0,117.73,138.25Zm-.92-8.32c2.31-.47,4.62-1.39,6.94-1.39,0,.46.46,1.39,1.38.92,1.85,0,3.7-.46,6-.46q.69,2.77,1.39,5.55a1.61,1.61,0,0,0,.46.93,57.06,57.06,0,0,0-12.49,1.39C119.58,135,118.19,132.7,116.81,129.93ZM108,142a14.08,14.08,0,0,0-3.7,1.85c-.93.47-.93,1.39-.47,2.32a22,22,0,0,0-4.62,4.62c-2.32-1.85-5.09-3.7-6.94-6.47l-.46-.46a47.62,47.62,0,0,1,11.1-7.87C104.78,137.79,106.17,140.1,108,142ZM96.91,152.59a38.07,38.07,0,0,0-5.55,9.26,53,53,0,0,0-12-4.17,79,79,0,0,1,9.72-12C91.36,148.89,93.68,151.67,96.91,152.59ZM90.44,166a29.91,29.91,0,0,0-.93,14.34l-.46-.46c-5.09-1.39-11.1-.46-16.65-.46A61.13,61.13,0,0,1,78,160.92,101.86,101.86,0,0,1,90.44,166ZM89.05,182.2a.45.45,0,0,0,.46-.46,39.06,39.06,0,0,0,2.32,7.86c0,.47.46.93.92,1.39-5.55,4.16-10.64,9.25-15.73,14.34a45.32,45.32,0,0,1-4.62-22.66C77.48,182.66,84,183.59,89.05,182.2Zm-10.64,25a147.37,147.37,0,0,0,15.73-13,37.9,37.9,0,0,0,7.86,9.25c-.46,0-.92,0-.92.46A108.16,108.16,0,0,0,90,221.06a49.26,49.26,0,0,1-12.49-13.42A1.46,1.46,0,0,1,78.41,207.18Zm25-1.85v-.46a49.55,49.55,0,0,0,9.72,6c-1.85,5.56-1.85,12-1.85,18.51a53.58,53.58,0,0,1-9.26-2.32c-.46-.46-.92-.46-1.38-.92h-.47a52.6,52.6,0,0,1-6.94-3.7C96.91,217.36,101.08,211.35,103.39,205.33Zm-5.55-17.58c-7.4-17.11,1.39-35.62,17.12-44.41,14.34-3.7,30.07-2.77,41.17,7.87,17.12,16.19,5.55,44.41-13,53.2C126.52,212.27,105.24,204.87,97.84,187.75Zm39.78-58.29a95.34,95.34,0,0,1,11.11,1.85,19.15,19.15,0,0,0-3.7,5.56c-2.32-.47-5.09-.93-7.41-1.39a2.06,2.06,0,0,0,.93-2.78A5.4,5.4,0,0,1,137.62,129.46Zm29.61,23.6h0a34.83,34.83,0,0,0-5.09-6.48,13.47,13.47,0,0,0,5.55-4.63c2.78,2.78,5.56,5.56,7.41,9.26C172.78,152.13,170.47,153.52,167.23,153.06Zm10.18,1.85a66,66,0,0,1,3.7,10.18,27.57,27.57,0,0,0-8.79,0h-.93a42.72,42.72,0,0,0-1.85-7.41C171.86,157.22,175.1,156.76,177.41,154.91ZM158,143.34a52.28,52.28,0,0,0-8.79-4.62l4.16-5.56a42.73,42.73,0,0,1,11.11,6A19.46,19.46,0,0,1,158,143.34Zm1.85,67.54a15.73,15.73,0,0,1-2.78-5.55,1,1,0,0,0-.92-.92l5.55-5.56c1.39.93,3.24,1.85,4.62,2.78,1.86.92,3.71,2.31,6,3.24a59.4,59.4,0,0,1-8.79,9.71C162.14,213.2,160.75,212.27,159.83,210.88ZM168.62,197a14.57,14.57,0,0,0-4.63-2.31,34.87,34.87,0,0,0,4.63-9.25h.46a22.64,22.64,0,0,1,5.55.46c1.85.46,3.24,1.39,5.09,1.39h0a64.63,64.63,0,0,1-5.55,13C173.24,198.86,170.93,198.39,168.62,197Zm1.85-15.72a50.21,50.21,0,0,0,1.39-12h.46a68.78,68.78,0,0,0,9.72-.46,52.31,52.31,0,0,1-.47,14.8C178.33,181.74,173.71,181.28,170.47,181.28ZM11.33,153.06c20.36,2.31,42.1,4.62,62.45,2.77a41.19,41.19,0,0,0-4.16,9.25c-19.43-.92-38.86-1.85-58.75-2.77C10.87,159.53,11.33,156.3,11.33,153.06ZM9.94,176.19c18.51-1.39,37-.47,55.05-2.32,1.39,0,1.85-2.31.47-2.31-18-2.78-37.47.46-55.52,3.24,0-1.85.47-3.7.47-5.09v-4.16c19,1.38,38.39,2.77,57.36,3.7a79.18,79.18,0,0,0-2.31,10.17v4.17l-.47-.47c-18-1.84-37.47-.92-56,0A18,18,0,0,0,9.94,176.19ZM7.63,204.41c19.43.46,39.32,2.77,58.75,1.38,1.39,0,1.85-2.31.47-2.77-18.51-3.7-39.79-2.32-58.76-.46q.71-8.34,1.39-16.66c18.51.93,37.94,1.85,56,0a.45.45,0,0,0,.46-.46,30.79,30.79,0,0,0,.46,6.48l-.46-.47c-17.58-4.16-37.47-1.85-55.51-.92-1.85,0-1.85,3.24,0,3.24,18-.93,37,1.85,55.05.46a1,1,0,0,0,.92-.93,50.44,50.44,0,0,0,9.26,22.21c-22.21-1.85-44.88-.93-67.55-.93A75.19,75.19,0,0,1,7.63,204.41ZM213,237.71h-9.25c-8.79,1.39-18.51,0-27.3,0H117.27c-18,0-36.55.47-54.59.47-18.5,0-49,6.47-54.12-16.66a14,14,0,0,1-.47-4.62c23.14.92,46.73,2.77,69.86,1.85a39.76,39.76,0,0,0,6.48,6c-23.14-.93-46.73,0-69.86.46-.92,0-.92,1.39,0,1.85,25.44,1.85,51.81,3.7,77.72,2.78a62.65,62.65,0,0,0,36.08,6.94,62.84,62.84,0,0,0,20.36-5.09c27.29.46,55.05-.46,81.88-4.63C227.37,232.63,221.82,235.86,213,237.71ZM232.92,222h0c-25,.92-50.42,3.23-75.4,6a57.75,57.75,0,0,0,10.64-7.86c21.74-.47,43.48-.47,65.22-1.85C233.38,219.67,232.92,221.06,232.92,222Zm.46-9.72c-20.35.46-40.7,2.31-61.06,4.16a59.65,59.65,0,0,0,10.18-13.87,1.7,1.7,0,0,0,1.39.46c16.65,0,34.69.92,50.88-1.85C234.31,204.87,234.31,208.57,233.38,212.27Zm-49.49-12.49a60.85,60.85,0,0,0,4.16-12.95c14.8,1.85,31.92,2.77,46.72-1.39v10.64C218.12,195.15,200.54,197.93,183.89,199.78Z"/><path class="a" d="M120.05,30.46a27.65,27.65,0,0,0-7.41,10.18c-3.23-2.77-6.47-5.09-11.1-5.55-6-.92-10.64,4.63-7.86,10.18a28.28,28.28,0,0,0,16.19,13.88,7,7,0,0,0,11.56-3.24h0A40.57,40.57,0,0,0,131.61,37.4C133,30,125.13,25.84,120.05,30.46Z"/><text class="b" transform="translate(272.8 49.86)">The<tspan class="c"><tspan x="0" y="71">Young Artists’</tspan></tspan><tspan class="d"><tspan x="0" y="156">Collective</tspan></tspan></text></svg>