<?xml version="1.0" encoding="utf-8"?>
<!-- Generator: Adobe Illustrator 22.1.0, SVG Export Plug-In . SVG Version: 6.00 Build 0)  -->
<svg version="1.1" id="Layer_1" xmlns="http://www.w3.org/2000/svg" xmlns:xlink="http://www.w3.org/1999/xlink" x="0px" y="0px"
	 viewBox="0 0 800 223.3" style="enable-background:new 0 0 800 223.3;" xml:space="preserve">
<style type="text/css">
	.st0{enable-background:new    ;}
	.st1{fill:#0071BC;}
</style>
<g class="st0">
	<path d="M94.1,30c0,1.1,0.1,2.4,0.3,4c0.2,1.6,0.3,3,0.2,4.4c-0.1,1.4-0.4,2.5-1.1,3.4c-0.7,0.9-2,1.2-3.8,0.9
		c-5.6,0-11.6,0.2-18,0.6c-6.4,0.4-12.7,1.3-18.9,2.8c-6.2,1.5-12.1,3.6-17.7,6.3c-5.6,2.8-10.4,6.5-14.2,11.3
		c2.9,2.1,6.2,4.2,9.9,6.2c3.7,2,7,3.7,9.9,5.1c2.1,1.1,4.3,2.2,6.7,3.2c2.3,1.1,4.7,2.2,7,3.5c2.3,1.3,4.5,2.6,6.5,4
		c2,1.4,3.8,3,5.2,4.8c1.4,1.8,2.6,3.8,3.6,5.9c1,2.2,1.6,4.3,1.7,6.5c0.1,2.2-0.2,4.3-1,6.3c-0.8,2-2.2,3.7-4.4,5.1
		c-6.4,5-13.4,8.5-21,10.7c-7.6,2.1-15.7,2.7-24.1,2c-2.8,0-5.2-1.1-7.4-3.4s-3.9-4.8-5.2-7.7c-0.3-0.7-0.6-1.7-0.9-3.1
		c-0.3-1.4-0.4-2.8-0.3-4.2c0.1-1.4,0.5-2.6,1.1-3.7c0.6-1.1,1.6-1.6,3-1.6c3.2,0.5,6.2,0.8,9,0.8c2.8,0,5.5-0.3,8.1-0.8
		c2.6-0.5,5.1-1.3,7.6-2.2c2.5-0.9,5-2.1,7.6-3.4c-2.9-1.5-6.2-3.2-10-5.1c-3.8-1.9-7.5-4-11.2-6.2s-7.3-4.7-10.6-7.5
		c-3.3-2.7-6-5.8-8-9.1c-2.1-3.3-3.3-7-3.7-11c-0.4-4,0.5-8.3,2.5-13c2.2-3.4,5.1-6.5,8.9-9.2c3.7-2.7,7.8-5.2,12.3-7.3
		c4.5-2.1,9.3-3.9,14.4-5.3c5.1-1.4,10.2-2.6,15.3-3.5c5.1-0.8,10.1-1.4,14.9-1.6c4.8-0.2,9.1-0.1,13,0.2c2.9,0.8,5.4,2.4,7.5,4.7
		C91,25.7,92.7,27.9,94.1,30z"/>
	<path d="M172.4,103c2.9,1.4,5.3,3.7,7.3,6.8c2,3.2,2.9,6.4,2.9,9.7c0,2.9-0.9,4.7-2.8,5.4c-1.9,0.7-3.9,0.4-6.1-1
		c-8.9-4.2-17.4-8.1-25.6-11.9c-8.2-3.7-16.3-7.6-24.4-11.8v6.9c0,2.9,0,5.9,0.2,8.9c0.1,3.1,0.5,5.7,1.2,7.9
		c0.4,1.1,0.8,2.4,1.1,3.8c0.3,1.4,0.4,2.7,0.3,4c-0.1,1.3-0.5,2.4-1,3.3c-0.6,0.9-1.7,1.3-3.2,1.3c-1.9,0-3.6-0.4-5-1.2
		c-1.5-0.8-2.7-1.8-3.8-2.9c-1.1-1.1-2-2.3-2.7-3.6c-0.7-1.3-1.3-2.4-1.6-3.5c-2.9-5.6-4.6-11.4-5-17.5c-0.4-6.1-0.3-12.3,0.5-18.6
		c-1.5,0-2.7-0.3-3.7-0.8c-1-0.5-2.2-1.2-3.7-2c-1.5-0.6-3.1-1.8-4.6-3.8c-1.6-1.9-2.9-4-3.9-6.2c-1-2.2-1.5-4.5-1.5-6.7
		c0-2.2,0.9-4,2.8-5.4c2.9-1.4,5.5-2.9,7.8-4.4c2.3-1.5,4.5-3.3,6.8-5.4c-0.7-5.6-1.1-10.9-1.2-16c-0.1-5-0.1-10.4-0.1-16.1
		c0-2.7,0.9-4.6,2.9-5.8c1.9-1.1,4.4-1,7.4,0.4c3.2,1.5,5.5,4.1,7,7.9c1.4,3.8,2.6,9,3.4,15.7c3.7-3.5,7.6-6.7,11.8-9.7
		c4.1-2.9,8.1-6.2,11.8-9.7c1.4-0.9,2.9-1.1,4.6-0.7c1.7,0.5,3.3,1.4,5,2.7c1.6,1.4,3,3,4.3,5c1.2,2,2.2,4,2.8,6.1
		c0.6,2.1,0.8,4.1,0.5,5.9c-0.3,1.9-1.1,3.4-2.6,4.6c-6.6,4.9-13,9.8-19,14.6c-6.1,4.9-12.5,9.7-19.1,14.5V78
		c8.1,4.2,16.2,8.4,24.2,12.5C156.1,94.7,164.2,98.8,172.4,103z"/>
	<path d="M248.9,103.8c0.3,0.7,0.6,1.7,0.9,2.9c0.3,1.2,0.4,2.4,0.3,3.6c-0.1,1.2-0.4,2.3-1,3.3c-0.6,1-1.5,1.7-2.8,2.1
		c-1.3,0-2.5-0.3-3.7-0.8c-1.2-0.5-2.2-1.3-3.2-2.2c-1-0.9-1.9-1.9-2.7-2.9c-0.8-1-1.5-2.1-2.1-3.1c-4.6,0-9.1-0.2-13.6-0.6
		c-4.5-0.4-8.7-0.6-12.6-0.6c-0.3,4.2-0.8,8.3-1.4,12.3c-0.6,4-1.2,8-1.7,12.1c-0.6,4-1,8.1-1.2,12.3c-0.3,4.1-0.1,8.4,0.4,12.7
		c0,0.9,0,2-0.1,3.2c-0.1,1.2-0.3,2.2-0.7,3.1c-0.4,0.9-1.1,1.5-2,1.9c-0.9,0.3-2.2,0.2-3.8-0.5c-3.6-0.8-6.3-2.5-7.9-5.2
		c-1.7-2.7-2.8-5.9-3.3-9.6c-0.5-3.7-0.6-7.7-0.1-12.1c0.4-4.4,0.9-8.6,1.6-12.8c0.6-4.2,1.2-8.1,1.8-11.6c0.5-3.5,0.7-6.4,0.5-8.5
		c-1.5-0.9-3-1.5-4.4-1.7c-1.5-0.2-2.9-0.4-4.4-0.5c-1.4,0-2.9-0.1-4.3-0.3c-1.4-0.2-2.8-0.6-4.2-1.4c-1.6-0.5-3.5-1.7-5.6-3.6
		c-2.1-1.9-3.9-4-5.4-6.4c-1.4-2.3-2.3-4.7-2.5-7.2c-0.2-2.4,0.9-4.5,3.1-6.1c1-1,2.1-1.5,3.2-1.7c1.2-0.1,2.3,0,3.5,0.3
		c1.2,0.3,2.3,0.7,3.4,1.3c1.1,0.6,2.1,1,3,1.3c2.6,1.3,5.2,2.3,7.8,3.1c2.6,0.8,5.2,1.5,8,2.2c1.6-4.2,2.5-8.7,2.7-13.6
		c0.2-4.8,0.3-9.8,0.3-14.7s0.2-9.8,0.7-14.5c0.5-4.7,1.7-9.1,3.8-13.1c1.5-1.4,3.5-2.2,5.9-2.4c2.4-0.2,4.4,0.1,5.9,0.9
		c3.5,3.4,6.5,7.2,8.9,11.2c2.4,4.1,4.6,8.5,6.5,13c1.8,4.6,3.5,9.3,5,14.2c1.5,4.9,3,9.7,4.6,14.4c1.6,4.8,3.4,9.4,5.4,13.9
		C243.6,95.7,246,99.9,248.9,103.8z M224,83c-1.7-3.8-3.4-7.8-5-11.9c-1.6-4.1-3.8-7.9-6.6-11.3c0,0.6,0,1.3-0.1,2.1
		c-0.1,0.8-0.1,2-0.3,3.7c-0.1,1.7-0.4,3.9-0.7,6.6c-0.3,2.8-0.8,6.4-1.4,10.9H224z"/>
	<path d="M327.2,19.8c1.5-0.4,3-0.2,4.6,0.5c1.6,0.7,3,1.7,4.4,3.1c1.3,1.3,2.5,2.9,3.5,4.6c1,1.8,1.7,3.5,2,5.1
		c0.3,1.6,0.3,3.1-0.2,4.5c-0.4,1.3-1.4,2.2-2.9,2.6c-6.3,2.4-12.8,4.6-19.6,6.6c-6.8,2-13.3,4-19.6,6c-4.5,12.1-8.1,24.4-10.8,36.8
		c-2.7,12.5-5,25.1-6.9,37.9c-0.3,1.3-0.9,2.1-1.8,2.5c-0.9,0.4-1.9,0.5-2.9,0.5c-1-0.1-2-0.4-3.1-0.8c-1.1-0.4-1.9-0.8-2.5-1
		c-2.6-1.9-4.5-4.3-5.6-7.3c-1.2-2.9-1.4-6-0.7-9.2c1.3-8.9,2.9-17.7,4.7-26.3c1.8-8.6,4-17.1,6.5-25.4c-3.8,1.2-7.5,2.2-11.2,3
		c-3.7,0.8-7,1.9-10.1,3.3c-1.5,0.4-3,0.3-4.6-0.5c-1.6-0.7-3-1.7-4.4-3.1c-1.4-1.4-2.6-3-3.7-4.7c-1.1-1.7-1.8-3.5-2.2-5.1
		c-0.4-1.7-0.5-3.1-0.2-4.4c0.3-1.3,1-2.1,2.3-2.6c7-2.5,14-4.8,20.9-6.9c6.9-2.1,13.9-4.4,20.9-7c0.6-1.3,1.5-2,2.6-2.1
		c1.1-0.1,2.3,0.2,3.5,0.9c6.5-1.9,12.7-3.8,18.5-5.6C314.9,23.7,320.9,21.8,327.2,19.8z"/>
	<path d="M403.1,95c1.4-0.2,2.8,0.2,4.3,1.3c1.4,1.1,2.8,2.5,4,4.3s2.2,3.8,3,6.1c0.8,2.2,1.3,4.4,1.4,6.5c0.2,2.1-0.1,3.9-0.8,5.4
		c-0.7,1.6-1.9,2.6-3.7,3.1c-6.3,1.4-12.4,2.8-18.4,4.3c-6,1.5-11.6,2.9-17,4.3c0.6,2.2,1,4.3,1.1,6.4c0.2,2-0.1,3.8-0.6,5.2
		c-0.6,1.4-1.4,2.3-2.6,2.8s-2.8,0.1-4.8-1c-1.2-0.5-2.3-1.2-3.2-2c-1-0.8-1.9-1.6-2.8-2.4c-0.9-0.8-1.8-1.5-2.6-2.1
		c-0.8-0.6-1.6-0.9-2.2-0.9c-2.8,0.7-5.1,1.2-6.8,1.6c-1.7,0.3-3.6-0.2-5.5-1.6c-2.7-2.3-5-4.9-6.8-7.7c-1.8-2.9-2.8-6.1-2.8-9.8
		c0-1.9,0.8-3.5,2.4-4.7c1.6-1.2,3.5-2.2,5.8-3s4.5-1.3,6.8-1.7c2.2-0.4,4.1-0.8,5.5-1c0-6.5-0.2-12.9-0.6-19.1
		c-0.4-6.2-1.2-13-2.2-20.2c0-0.7-0.2-1.4-0.6-2c-0.4-0.6-0.6-1.4-0.6-2.2l-1.5-1.7H350c-2.1,0-4.2-1-6.4-3.1
		c-2.2-2-3.9-4.4-5.2-7.1c-1.3-2.7-2.1-5.4-2.2-8.2c-0.1-2.8,0.9-5,2.9-6.5c4.2-2.1,8.6-4,13.3-5.7c4.7-1.7,9.3-3.4,14.1-5
		c4.7-1.6,9.4-3.3,14-5.1c4.6-1.7,8.9-3.8,13-6.1c1.6-0.7,3.2-0.7,4.9-0.1c1.7,0.7,3.2,1.7,4.7,3.2s2.8,3.3,3.9,5.2
		c1.1,2,1.9,4,2.3,6c0.5,2,0.5,3.8,0.2,5.4c-0.3,1.6-1.2,2.8-2.6,3.5c-3.3,2.5-6.7,4.6-10,6.2c-3.4,1.6-6.9,3-10.3,4.3
		c-3.5,1.3-7,2.4-10.7,3.5c-3.6,1.1-7.3,2.4-11,3.9c1.4,2.2,2.5,4.3,3.2,6.4c0.8,2.1,1.5,3.8,2.2,5.2c2.7-1,5.2-1.7,7.4-2.2
		c2.2-0.5,4.4-0.4,6.4,0.1c2,0.5,3.8,1.6,5.5,3.3c1.7,1.7,3.4,4.2,5.1,7.5c1.2,3.7,1.2,6.6,0,8.7c-1.2,2.1-3,3.7-5.2,4.9
		c-2.3,1.2-4.9,2-7.7,2.5c-2.8,0.5-5.2,1-7.3,1.5v8.8c4.8-1.6,9.5-3.1,14.2-4.5C393.6,97.9,398.3,96.5,403.1,95z"/>
	<path d="M563.5,55.8c1.4-0.7,2.9-0.7,4.7-0.1c1.7,0.7,3.3,1.7,4.7,3.2c1.4,1.5,2.8,3.2,4,5.1c1.2,2,2,3.9,2.5,5.8
		c0.5,1.9,0.5,3.6,0,5.2c-0.5,1.6-1.5,2.7-3.1,3.4c-2.9,1.5-6,3-9.2,4.4c-3.3,1.4-6.3,2.8-9.1,4.2v43.8c0,3.5-0.9,5.7-2.7,6.5
		c-1.8,0.8-3.8,0.6-5.8-0.8c-1.4-0.7-2.7-1.6-3.9-2.8s-2.2-2.5-3.2-3.9c-0.9-1.4-1.6-2.9-2.2-4.4c-0.6-1.5-0.8-3-0.8-4.4V95.4
		l-16.8,8.4v46.8c0,3.2-0.7,5.1-2.2,5.6c-1.5,0.5-3.2,0.4-5.1-0.4c-2-0.8-3.9-2-5.7-3.7c-1.9-1.6-3.2-3.1-4.1-4.4
		c-1.8-2.7-2.9-5.8-3.3-9.2c-0.4-3.4-0.5-6.9-0.3-10.4c0.2-3.5,0.6-7.1,1.1-10.6c0.5-3.5,0.9-6.7,1.1-9.6c-1.8-1.8-3.3-3.9-4.6-6.3
		c-1.3-2.4-2-4.8-2.2-7.2c-0.2-2.4,0.2-4.5,1.3-6.5c1-1.9,2.9-3.2,5.5-3.9c0-10,0.2-19.9,0.7-29.6c0.4-9.8,0.7-19.2,0.7-28.3
		c0-2.9,1-5,2.9-6.2c2-1.2,4.3-1,7.1,0.5c1,0.7,2.1,1.7,3.2,2.9c1.1,1.2,2.2,2.5,3.1,3.9c0.9,1.4,1.6,2.9,2,4.4
		c0.5,1.6,0.5,3,0.2,4.4v36.6c0.4,0,1.3-0.3,2.6-0.9c1.4-0.6,2.9-1.3,4.5-2.2c1.7-0.8,3.2-1.6,4.7-2.4s2.6-1.3,3.4-1.6v-41
		c0-2.9,0.9-5,2.8-6.2c1.8-1.2,3.8-1.1,5.9,0.3c2.8,2.3,5.1,5,7,8.2c1.9,3.1,2.9,6.2,2.9,9.1v21.1c0.7,0,1.4-0.2,2.2-0.8
		C561,56.1,562.1,55.8,563.5,55.8z"/>
	<path d="M644,103.8c0.3,0.7,0.6,1.7,0.9,2.9c0.3,1.2,0.4,2.4,0.3,3.6c-0.1,1.2-0.4,2.3-1,3.3c-0.6,1-1.5,1.7-2.8,2.1
		c-1.3,0-2.5-0.3-3.7-0.8c-1.2-0.5-2.2-1.3-3.2-2.2c-1-0.9-1.9-1.9-2.7-2.9c-0.8-1-1.5-2.1-2.1-3.1c-4.6,0-9.2-0.2-13.7-0.6
		c-4.5-0.4-8.7-0.6-12.6-0.6c-0.3,4.2-0.8,8.3-1.3,12.3c-0.6,4-1.2,8-1.7,12.1c-0.6,4-1,8.1-1.2,12.3c-0.2,4.1-0.1,8.4,0.4,12.7
		c0,0.9,0,2-0.1,3.2c-0.1,1.2-0.3,2.2-0.7,3.1c-0.4,0.9-1,1.5-1.9,1.9c-0.9,0.3-2.2,0.2-3.8-0.5c-3.6-0.8-6.3-2.5-8-5.2
		c-1.7-2.7-2.8-5.9-3.3-9.6c-0.5-3.7-0.6-7.7-0.2-12.1c0.4-4.4,0.9-8.6,1.6-12.8c0.6-4.2,1.2-8.1,1.8-11.6c0.5-3.5,0.7-6.4,0.5-8.5
		c-1.5-0.9-3-1.5-4.4-1.7c-1.5-0.2-2.9-0.4-4.3-0.5c-1.4,0-2.9-0.1-4.3-0.3c-1.4-0.2-2.8-0.6-4.2-1.4c-1.6-0.5-3.5-1.7-5.6-3.6
		c-2.1-1.9-3.9-4-5.4-6.4c-1.4-2.3-2.3-4.7-2.5-7.2c-0.2-2.4,0.9-4.5,3.1-6.1c1-1,2.1-1.5,3.2-1.7c1.2-0.1,2.3,0,3.4,0.3
		c1.2,0.3,2.3,0.7,3.4,1.3c1.1,0.6,2.1,1,3,1.3c2.6,1.3,5.2,2.3,7.8,3.1c2.6,0.8,5.2,1.5,7.9,2.2c1.6-4.2,2.5-8.7,2.7-13.6
		c0.2-4.8,0.3-9.8,0.3-14.7s0.2-9.8,0.7-14.5c0.4-4.7,1.7-9.1,3.8-13.1c1.5-1.4,3.5-2.2,5.9-2.4c2.4-0.2,4.4,0.1,5.9,0.9
		c3.5,3.4,6.5,7.2,8.9,11.2c2.4,4.1,4.6,8.5,6.5,13c1.8,4.6,3.5,9.3,5,14.2c1.5,4.9,3,9.7,4.7,14.4c1.6,4.8,3.4,9.4,5.4,13.9
		C638.7,95.7,641.1,99.9,644,103.8z M619.1,83c-1.7-3.8-3.4-7.8-4.9-11.9c-1.6-4.1-3.8-7.9-6.6-11.3c0,0.6,0,1.3-0.1,2.1
		c-0.1,0.8-0.1,2-0.3,3.7c-0.1,1.7-0.4,3.9-0.7,6.6c-0.3,2.8-0.8,6.4-1.3,10.9H619.1z"/>
	<path d="M735.7,149.2c0.6,0.9,1.2,2,2,3.3c0.7,1.3,1.3,2.6,1.8,4c0.5,1.4,0.8,2.9,0.9,4.4c0.1,1.5-0.2,2.9-0.8,4.3
		c-0.6,1.3-1.5,2-2.6,2.1c-1.1,0.1-2.2-0.1-3.4-0.5c-1.2-0.5-2.4-1.1-3.5-2c-1.1-0.9-2-1.6-2.7-2.3c-4.7-6.9-9.3-13.8-13.8-20.5
		c-4.5-6.8-9-13.6-13.6-20.3c-4.6-6.8-9.2-13.4-14-20.1c-4.8-6.6-9.9-13.3-15.1-19.9c-1.4,6-2.5,12-3.2,17.8
		c-0.8,5.9-1.5,11.9-2.3,18c0,1.3-0.4,2.1-1.3,2.5c-0.9,0.4-1.8,0.5-2.9,0.3c-1.1-0.2-2.2-0.5-3.5-1c-1.2-0.5-2.1-1.1-2.7-1.7
		c-2.1-2.1-3.7-4.4-4.9-7c-1.2-2.6-1.7-5.6-1.7-9c0.5-6,1.3-11.7,2.4-17.2c1.1-5.5,2-11.2,2.7-17.2c0-0.7-0.2-1.4-0.7-2
		c-0.5-0.6-0.7-1.2-0.7-1.7c0-1,0-2.1,0.1-3.2c0-1.1,0.2-2.2,0.4-3.2c0.2-0.9,0.6-1.7,1.2-2.3c0.5-0.6,1.3-0.9,2.3-0.9h1.3
		c0-1.4,0-2.4,0.2-3.1c0.1-0.6,0.5-1.3,1.2-2c-1.4,0.7-2.8,1.4-4,2c-1.3,0.6-2.7,1.3-4.1,2.1c-1.3,0.9-2.7,1.1-4.2,0.5
		c-1.5-0.5-2.9-1.5-4.2-2.9c-1.3-1.4-2.5-3.1-3.5-5c-1-1.9-1.8-3.9-2.2-5.8s-0.5-3.8-0.2-5.4c0.3-1.6,1.1-2.9,2.4-3.8
		c5-3,10.7-5.5,17.2-7.5c6.4-2,12.9-3,19.5-3.1c6.5,0,12.8,1,18.7,3.2C700,25,705,28.8,709,34c2.4,2.7,4.1,5.6,5.2,8.8
		c1.1,3.1,1.5,6.3,1.4,9.3c-0.2,3.1-1.2,5.9-2.9,8.5c-1.8,2.7-4.3,4.8-7.6,6.4c-3.3,2-6.6,3.7-9.8,5.1c-3.3,1.4-6.6,2.4-10,2.8
		c3.9,6.3,8,12.6,12.2,18.8c4.2,6.2,8.6,12.4,13,18.5c4.4,6.1,8.7,12.3,13,18.4C727.7,136.9,731.8,143,735.7,149.2z M694.4,44.7
		c-2-0.8-4-1.2-5.9-1.4c-2-0.1-3.9-0.1-5.9-0.1c-0.1,0-0.4,0.4-0.8,1c-0.4,0.7-0.8,1.5-1.3,2.4c-0.5,0.9-0.9,1.8-1.3,2.6
		c-0.4,0.9-0.6,1.4-0.6,1.7c2.6-1,5.2-2,7.9-3C689.2,47,691.8,45.9,694.4,44.7z"/>
	<path d="M782.6,52.8c3.5,4.9,5.3,9.7,5.5,14.4c0.2,4.7-0.7,9.3-2.7,13.6c-2,4.4-4.8,8.7-8.3,12.8c-3.6,4.2-7.3,8.2-11.3,12
		c-4,3.9-7.9,7.6-11.7,11.1c-3.8,3.6-6.9,6.9-9.3,10.1c-0.1,3.1-0.5,5.3-1.3,6.5c-0.8,1.2-1.7,1.8-2.9,1.8c-1.2-0.1-2.5-0.6-3.9-1.6
		c-1.4-1-2.8-2.4-4-4c-1.3-1.6-2.5-3.3-3.5-5c-1-1.7-1.8-3.4-2.3-4.9c-2-10.6-3.6-21.3-4.9-32.2c-1.3-10.9-2.9-21.5-5-31.8
		c-0.8,0-1.6,0.1-2.3,0.1c-0.8,0.1-1.8,0.6-3.2,1.4c-1.2,0.2-2.5-0.2-3.9-1.1c-1.4-0.9-2.7-2.3-4-4c-1.2-1.7-2.4-3.6-3.5-5.7
		c-1-2.1-1.8-4.1-2.2-6c-0.4-1.9-0.5-3.6-0.2-5.1s1.2-2.5,2.5-3c1,0,2.1-0.2,3.3-0.5c1.2-0.3,2.5-0.7,3.8-1c1.3-0.3,2.6-0.7,4-1
		s2.7-0.4,4.1-0.3c0-2.9,0.9-5,2.8-6.2c1.8-1.2,3.8-1,5.9,0.5c1.4,0.7,2.5,1.5,3.3,2.2c0.8,0.8,1.5,2,2.1,3.5
		c4.8,0.6,9.7,1.4,14.7,2.3c5,1,9.8,2.3,14.5,4c4.7,1.7,9.1,3.9,13.2,6.7C776.1,45.1,779.6,48.6,782.6,52.8z M768.5,63
		c-11-5.8-22.1-8.7-33.3-8.7c0,2.6,0.2,5.2,0.5,7.9c0.3,2.7,0.7,5.5,1.1,8.5c0.5,3.1,0.9,6.4,1.3,10.1c0.5,3.7,0.9,7.9,1.3,12.5
		c1.3-1,2.6-2.1,4-3.4c1.4-1.2,3.2-3,5.2-5.2c2.1-2.2,4.7-5,7.9-8.5C759.8,72.8,763.7,68.4,768.5,63z"/>
</g>
<g class="st0">
	<path class="st1" d="M105.9,30c0,1.1,0.1,2.4,0.3,4c0.2,1.6,0.3,3,0.2,4.4c-0.1,1.4-0.4,2.5-1.1,3.4c-0.7,0.9-2,1.2-3.8,0.9
		c-5.6,0-11.6,0.2-18,0.6c-6.4,0.4-12.7,1.3-18.9,2.8c-6.2,1.5-12.1,3.6-17.7,6.3c-5.6,2.8-10.4,6.5-14.2,11.3
		c2.9,2.1,6.2,4.2,9.9,6.2c3.7,2,7,3.7,9.9,5.1c2.1,1.1,4.3,2.2,6.7,3.2c2.3,1.1,4.7,2.2,7,3.5c2.3,1.3,4.5,2.6,6.5,4
		c2,1.4,3.8,3,5.2,4.8c1.4,1.8,2.6,3.8,3.6,5.9c1,2.2,1.6,4.3,1.7,6.5c0.1,2.2-0.2,4.3-1,6.3c-0.8,2-2.2,3.7-4.4,5.1
		c-6.4,5-13.4,8.5-21,10.7c-7.6,2.1-15.7,2.7-24.1,2c-2.8,0-5.2-1.1-7.4-3.4s-3.9-4.8-5.2-7.7c-0.3-0.7-0.6-1.7-0.9-3.1
		c-0.3-1.4-0.4-2.8-0.3-4.2c0.1-1.4,0.5-2.6,1.1-3.7c0.6-1.1,1.6-1.6,3-1.6c3.2,0.5,6.2,0.8,9,0.8c2.8,0,5.5-0.3,8.1-0.8
		c2.6-0.5,5.1-1.3,7.6-2.2c2.5-0.9,5-2.1,7.6-3.4c-2.9-1.5-6.2-3.2-10-5.1c-3.8-1.9-7.5-4-11.2-6.2s-7.3-4.7-10.6-7.5
		c-3.3-2.7-6-5.8-8-9.1c-2.1-3.3-3.3-7-3.7-11c-0.4-4,0.5-8.3,2.5-13c2.2-3.4,5.1-6.5,8.9-9.2C27,33.5,31.1,31,35.6,29
		c4.5-2.1,9.3-3.9,14.4-5.3c5.1-1.4,10.2-2.6,15.3-3.5c5.1-0.8,10.1-1.4,14.9-1.6c4.8-0.2,9.1-0.1,13,0.2c2.9,0.8,5.4,2.4,7.5,4.7
		C102.8,25.7,104.5,27.9,105.9,30z"/>
	<path class="st1" d="M184.2,103c2.9,1.4,5.3,3.7,7.3,6.8c2,3.2,2.9,6.4,2.9,9.7c0,2.9-0.9,4.7-2.8,5.4c-1.9,0.7-3.9,0.4-6.1-1
		c-8.9-4.2-17.4-8.1-25.6-11.9c-8.2-3.7-16.3-7.6-24.4-11.8v6.9c0,2.9,0,5.9,0.2,8.9c0.1,3.1,0.5,5.7,1.2,7.9
		c0.4,1.1,0.8,2.4,1.1,3.8c0.3,1.4,0.4,2.7,0.3,4c-0.1,1.3-0.5,2.4-1,3.3c-0.6,0.9-1.7,1.3-3.2,1.3c-1.9,0-3.6-0.4-5-1.2
		c-1.5-0.8-2.7-1.8-3.8-2.9c-1.1-1.1-2-2.3-2.7-3.6c-0.7-1.3-1.3-2.4-1.6-3.5c-2.9-5.6-4.6-11.4-5-17.5c-0.4-6.1-0.3-12.3,0.5-18.6
		c-1.5,0-2.7-0.3-3.7-0.8c-1-0.5-2.2-1.2-3.7-2c-1.5-0.6-3.1-1.8-4.6-3.8c-1.6-1.9-2.9-4-3.9-6.2c-1-2.2-1.5-4.5-1.5-6.7
		c0-2.2,0.9-4,2.8-5.4c2.9-1.4,5.5-2.9,7.8-4.4c2.3-1.5,4.5-3.3,6.8-5.4c-0.7-5.6-1.1-10.9-1.2-16c-0.1-5-0.1-10.4-0.1-16.1
		c0-2.7,0.9-4.6,2.9-5.8c1.9-1.1,4.4-1,7.4,0.4c3.2,1.5,5.5,4.1,7,7.9c1.4,3.8,2.6,9,3.4,15.7c3.7-3.5,7.6-6.7,11.8-9.7
		c4.1-2.9,8.1-6.2,11.8-9.7c1.4-0.9,2.9-1.1,4.6-0.7c1.7,0.5,3.3,1.4,5,2.7c1.6,1.4,3,3,4.3,5c1.2,2,2.2,4,2.8,6.1
		c0.6,2.1,0.8,4.1,0.5,5.9c-0.3,1.9-1.1,3.4-2.6,4.6c-6.6,4.9-13,9.8-19,14.6c-6.1,4.9-12.5,9.7-19.1,14.5V78
		c8.1,4.2,16.2,8.4,24.2,12.5C167.9,94.7,176,98.8,184.2,103z"/>
	<path class="st1" d="M260.7,103.8c0.3,0.7,0.6,1.7,0.9,2.9c0.3,1.2,0.4,2.4,0.3,3.6c-0.1,1.2-0.4,2.3-1,3.3c-0.6,1-1.5,1.7-2.8,2.1
		c-1.3,0-2.5-0.3-3.7-0.8c-1.2-0.5-2.2-1.3-3.2-2.2c-1-0.9-1.9-1.9-2.7-2.9c-0.8-1-1.5-2.1-2.1-3.1c-4.6,0-9.1-0.2-13.6-0.6
		c-4.5-0.4-8.7-0.6-12.6-0.6c-0.3,4.2-0.8,8.3-1.4,12.3c-0.6,4-1.2,8-1.7,12.1c-0.6,4-1,8.1-1.2,12.3c-0.3,4.1-0.1,8.4,0.4,12.7
		c0,0.9,0,2-0.1,3.2c-0.1,1.2-0.3,2.2-0.7,3.1c-0.4,0.9-1.1,1.5-2,1.9c-0.9,0.3-2.2,0.2-3.8-0.5c-3.6-0.8-6.3-2.5-7.9-5.2
		c-1.7-2.7-2.8-5.9-3.3-9.6c-0.5-3.7-0.6-7.7-0.1-12.1c0.4-4.4,0.9-8.6,1.6-12.8c0.6-4.2,1.2-8.1,1.8-11.6c0.5-3.5,0.7-6.4,0.5-8.5
		c-1.5-0.9-3-1.5-4.4-1.7c-1.5-0.2-2.9-0.4-4.4-0.5c-1.4,0-2.9-0.1-4.3-0.3c-1.4-0.2-2.8-0.6-4.2-1.4c-1.6-0.5-3.5-1.7-5.6-3.6
		c-2.1-1.9-3.9-4-5.4-6.4c-1.4-2.3-2.3-4.7-2.5-7.2c-0.2-2.4,0.9-4.5,3.1-6.1c1-1,2.1-1.5,3.2-1.7c1.2-0.1,2.3,0,3.5,0.3
		c1.2,0.3,2.3,0.7,3.4,1.3c1.1,0.6,2.1,1,3,1.3c2.6,1.3,5.2,2.3,7.8,3.1c2.6,0.8,5.2,1.5,8,2.2c1.6-4.2,2.5-8.7,2.7-13.6
		c0.2-4.8,0.3-9.8,0.3-14.7s0.2-9.8,0.7-14.5c0.5-4.7,1.7-9.1,3.8-13.1c1.5-1.4,3.5-2.2,5.9-2.4c2.4-0.2,4.4,0.1,5.9,0.9
		c3.5,3.4,6.5,7.2,8.9,11.2c2.4,4.1,4.6,8.5,6.5,13c1.8,4.6,3.5,9.3,5,14.2c1.5,4.9,3,9.7,4.6,14.4c1.6,4.8,3.4,9.4,5.4,13.9
		C255.4,95.7,257.8,99.9,260.7,103.8z M235.8,83c-1.7-3.8-3.4-7.8-5-11.9c-1.6-4.1-3.8-7.9-6.6-11.3c0,0.6,0,1.3-0.1,2.1
		c-0.1,0.8-0.1,2-0.3,3.7c-0.1,1.7-0.4,3.9-0.7,6.6c-0.3,2.8-0.8,6.4-1.4,10.9H235.8z"/>
	<path class="st1" d="M339,19.8c1.5-0.4,3-0.2,4.6,0.5c1.6,0.7,3,1.7,4.4,3.1c1.3,1.3,2.5,2.9,3.5,4.6c1,1.8,1.7,3.5,2,5.1
		c0.3,1.6,0.3,3.1-0.2,4.5c-0.4,1.3-1.4,2.2-2.9,2.6c-6.3,2.4-12.8,4.6-19.6,6.6c-6.8,2-13.3,4-19.6,6c-4.5,12.1-8.1,24.4-10.8,36.8
		c-2.7,12.5-5,25.1-6.9,37.9c-0.3,1.3-0.9,2.1-1.8,2.5c-0.9,0.4-1.9,0.5-2.9,0.5c-1-0.1-2-0.4-3.1-0.8c-1.1-0.4-1.9-0.8-2.5-1
		c-2.6-1.9-4.5-4.3-5.6-7.3c-1.2-2.9-1.4-6-0.7-9.2c1.3-8.9,2.9-17.7,4.7-26.3c1.8-8.6,4-17.1,6.5-25.4c-3.8,1.2-7.5,2.2-11.2,3
		c-3.7,0.8-7,1.9-10.1,3.3c-1.5,0.4-3,0.3-4.6-0.5c-1.6-0.7-3-1.7-4.4-3.1c-1.4-1.4-2.6-3-3.7-4.7c-1.1-1.7-1.8-3.5-2.2-5.1
		c-0.4-1.7-0.5-3.1-0.2-4.4c0.3-1.3,1-2.1,2.3-2.6c7-2.5,14-4.8,20.9-6.9c6.9-2.1,13.9-4.4,20.9-7c0.6-1.3,1.5-2,2.6-2.1
		c1.1-0.1,2.3,0.2,3.5,0.9c6.5-1.9,12.7-3.8,18.5-5.6C326.7,23.7,332.7,21.8,339,19.8z"/>
	<path class="st1" d="M414.9,95c1.4-0.2,2.8,0.2,4.3,1.3c1.4,1.1,2.8,2.5,4,4.3s2.2,3.8,3,6.1c0.8,2.2,1.3,4.4,1.4,6.5
		c0.2,2.1-0.1,3.9-0.8,5.4c-0.7,1.6-1.9,2.6-3.7,3.1c-6.3,1.4-12.4,2.8-18.4,4.3c-6,1.5-11.6,2.9-17,4.3c0.6,2.2,1,4.3,1.1,6.4
		c0.2,2-0.1,3.8-0.6,5.2c-0.6,1.4-1.4,2.3-2.6,2.8s-2.8,0.1-4.8-1c-1.2-0.5-2.3-1.2-3.2-2c-1-0.8-1.9-1.6-2.8-2.4
		c-0.9-0.8-1.8-1.5-2.6-2.1c-0.8-0.6-1.6-0.9-2.2-0.9c-2.8,0.7-5.1,1.2-6.8,1.6c-1.7,0.3-3.6-0.2-5.5-1.6c-2.7-2.3-5-4.9-6.8-7.7
		c-1.8-2.9-2.8-6.1-2.8-9.8c0-1.9,0.8-3.5,2.4-4.7c1.6-1.2,3.5-2.2,5.8-3s4.5-1.3,6.8-1.7c2.2-0.4,4.1-0.8,5.5-1
		c0-6.5-0.2-12.9-0.6-19.1c-0.4-6.2-1.2-13-2.2-20.2c0-0.7-0.2-1.4-0.6-2c-0.4-0.6-0.6-1.4-0.6-2.2l-1.5-1.7h-1.2
		c-2.1,0-4.2-1-6.4-3.1c-2.2-2-3.9-4.4-5.2-7.1c-1.3-2.7-2.1-5.4-2.2-8.2c-0.1-2.8,0.9-5,2.9-6.5c4.2-2.1,8.6-4,13.3-5.7
		c4.7-1.7,9.3-3.4,14.1-5c4.7-1.6,9.4-3.3,14-5.1c4.6-1.7,8.9-3.8,13-6.1c1.6-0.7,3.2-0.7,4.9-0.1c1.7,0.7,3.2,1.7,4.7,3.2
		s2.8,3.3,3.9,5.2c1.1,2,1.9,4,2.3,6c0.5,2,0.5,3.8,0.2,5.4c-0.3,1.6-1.2,2.8-2.6,3.5c-3.3,2.5-6.7,4.6-10,6.2
		c-3.4,1.6-6.9,3-10.3,4.3c-3.5,1.3-7,2.4-10.7,3.5c-3.6,1.1-7.3,2.4-11,3.9c1.4,2.2,2.5,4.3,3.2,6.4c0.8,2.1,1.5,3.8,2.2,5.2
		c2.7-1,5.2-1.7,7.4-2.2c2.2-0.5,4.4-0.4,6.4,0.1c2,0.5,3.8,1.6,5.5,3.3c1.7,1.7,3.4,4.2,5.1,7.5c1.2,3.7,1.2,6.6,0,8.7
		c-1.2,2.1-3,3.7-5.2,4.9c-2.3,1.2-4.9,2-7.6,2.5c-2.8,0.5-5.2,1-7.3,1.5v8.8c4.8-1.6,9.5-3.1,14.2-4.5
		C405.4,97.9,410.1,96.5,414.9,95z"/>
	<path class="st1" d="M575.3,55.8c1.4-0.7,2.9-0.7,4.7-0.1c1.7,0.7,3.3,1.7,4.7,3.2c1.4,1.5,2.8,3.2,4,5.1c1.2,2,2,3.9,2.5,5.8
		c0.5,1.9,0.5,3.6,0,5.2c-0.5,1.6-1.5,2.7-3.1,3.4c-2.9,1.5-6,3-9.2,4.4c-3.3,1.4-6.3,2.8-9.1,4.2v43.8c0,3.5-0.9,5.7-2.7,6.5
		c-1.8,0.8-3.8,0.6-5.8-0.8c-1.4-0.7-2.7-1.6-3.9-2.8s-2.2-2.5-3.2-3.9c-0.9-1.4-1.6-2.9-2.2-4.4c-0.6-1.5-0.8-3-0.8-4.4V95.4
		l-16.8,8.4v46.8c0,3.2-0.7,5.1-2.2,5.6c-1.5,0.5-3.2,0.4-5.1-0.4c-2-0.8-3.9-2-5.7-3.7c-1.9-1.6-3.2-3.1-4.1-4.4
		c-1.8-2.7-2.9-5.8-3.3-9.2c-0.4-3.4-0.5-6.9-0.3-10.4c0.2-3.5,0.6-7.1,1.1-10.6c0.5-3.5,0.9-6.7,1.1-9.6c-1.8-1.8-3.3-3.9-4.6-6.3
		c-1.3-2.4-2-4.8-2.2-7.2c-0.2-2.4,0.2-4.5,1.3-6.5c1-1.9,2.9-3.2,5.5-3.9c0-10,0.2-19.9,0.7-29.6c0.4-9.8,0.7-19.2,0.7-28.3
		c0-2.9,1-5,2.9-6.2c2-1.2,4.3-1,7.1,0.5c1,0.7,2.1,1.7,3.2,2.9c1.1,1.2,2.2,2.5,3.1,3.9c0.9,1.4,1.6,2.9,2,4.4
		c0.5,1.6,0.5,3,0.2,4.4v36.6c0.4,0,1.3-0.3,2.6-0.9c1.4-0.6,2.9-1.3,4.5-2.2c1.7-0.8,3.2-1.6,4.7-2.4s2.6-1.3,3.4-1.6v-41
		c0-2.9,0.9-5,2.8-6.2c1.8-1.2,3.8-1.1,5.9,0.3c2.8,2.3,5.1,5,7,8.2c1.9,3.1,2.9,6.2,2.9,9.1v21.1c0.7,0,1.4-0.2,2.2-0.8
		C572.8,56.1,573.9,55.8,575.3,55.8z"/>
	<path class="st1" d="M655.8,103.8c0.3,0.7,0.6,1.7,0.9,2.9c0.3,1.2,0.4,2.4,0.3,3.6c-0.1,1.2-0.4,2.3-1,3.3c-0.6,1-1.5,1.7-2.8,2.1
		c-1.3,0-2.5-0.3-3.7-0.8c-1.2-0.5-2.2-1.3-3.2-2.2c-1-0.9-1.9-1.9-2.7-2.9c-0.8-1-1.5-2.1-2.1-3.1c-4.6,0-9.2-0.2-13.7-0.6
		c-4.5-0.4-8.7-0.6-12.6-0.6c-0.3,4.2-0.8,8.3-1.3,12.3c-0.6,4-1.2,8-1.7,12.1c-0.6,4-1,8.1-1.2,12.3c-0.2,4.1-0.1,8.4,0.4,12.7
		c0,0.9,0,2-0.1,3.2c-0.1,1.2-0.3,2.2-0.7,3.1c-0.4,0.9-1,1.5-1.9,1.9c-0.9,0.3-2.2,0.2-3.8-0.5c-3.6-0.8-6.3-2.5-8-5.2
		c-1.7-2.7-2.8-5.9-3.3-9.6c-0.5-3.7-0.6-7.7-0.2-12.1c0.4-4.4,0.9-8.6,1.6-12.8c0.6-4.2,1.2-8.1,1.8-11.6c0.5-3.5,0.7-6.4,0.5-8.5
		c-1.5-0.9-3-1.5-4.4-1.7c-1.5-0.2-2.9-0.4-4.3-0.5c-1.4,0-2.9-0.1-4.3-0.3c-1.4-0.2-2.8-0.6-4.2-1.4c-1.6-0.5-3.5-1.7-5.6-3.6
		c-2.1-1.9-3.9-4-5.4-6.4c-1.4-2.3-2.3-4.7-2.5-7.2c-0.2-2.4,0.9-4.5,3.1-6.1c1-1,2.1-1.5,3.2-1.7c1.2-0.1,2.3,0,3.4,0.3
		c1.2,0.3,2.3,0.7,3.4,1.3c1.1,0.6,2.1,1,3,1.3c2.6,1.3,5.2,2.3,7.8,3.1c2.6,0.8,5.2,1.5,7.9,2.2c1.6-4.2,2.5-8.7,2.7-13.6
		c0.2-4.8,0.3-9.8,0.3-14.7s0.2-9.8,0.7-14.5c0.4-4.7,1.7-9.1,3.8-13.1c1.5-1.4,3.5-2.2,5.9-2.4c2.4-0.2,4.4,0.1,5.9,0.9
		c3.5,3.4,6.5,7.2,8.9,11.2c2.4,4.1,4.6,8.5,6.5,13c1.8,4.6,3.5,9.3,5,14.2c1.5,4.9,3,9.7,4.7,14.4c1.6,4.8,3.4,9.4,5.4,13.9
		C650.5,95.7,652.9,99.9,655.8,103.8z M630.9,83c-1.7-3.8-3.4-7.8-4.9-11.9c-1.6-4.1-3.8-7.9-6.6-11.3c0,0.6,0,1.3-0.1,2.1
		c-0.1,0.8-0.1,2-0.3,3.7c-0.1,1.7-0.4,3.9-0.7,6.6c-0.3,2.8-0.8,6.4-1.3,10.9H630.9z"/>
	<path class="st1" d="M747.5,149.2c0.6,0.9,1.2,2,2,3.3c0.7,1.3,1.3,2.6,1.8,4c0.5,1.4,0.8,2.9,0.9,4.4c0.1,1.5-0.2,2.9-0.8,4.3
		c-0.6,1.3-1.5,2-2.6,2.1c-1.1,0.1-2.2-0.1-3.4-0.5c-1.2-0.5-2.4-1.1-3.5-2c-1.1-0.9-2-1.6-2.7-2.3c-4.7-6.9-9.3-13.8-13.8-20.5
		c-4.5-6.8-9-13.6-13.6-20.3c-4.6-6.8-9.2-13.4-14-20.1C693,95,688,88.3,682.7,81.8c-1.4,6-2.5,12-3.2,17.8
		c-0.8,5.9-1.5,11.9-2.3,18c0,1.3-0.4,2.1-1.3,2.5c-0.9,0.4-1.8,0.5-2.9,0.3c-1.1-0.2-2.2-0.5-3.5-1c-1.2-0.5-2.1-1.1-2.7-1.7
		c-2.1-2.1-3.7-4.4-4.9-7c-1.2-2.6-1.7-5.6-1.7-9c0.5-6,1.3-11.7,2.4-17.2c1.1-5.5,2-11.2,2.7-17.2c0-0.7-0.2-1.4-0.7-2
		c-0.5-0.6-0.7-1.2-0.7-1.7c0-1,0-2.1,0.1-3.2c0-1.1,0.2-2.2,0.4-3.2c0.2-0.9,0.6-1.7,1.2-2.3c0.5-0.6,1.3-0.9,2.3-0.9h1.3
		c0-1.4,0-2.4,0.2-3.1c0.1-0.6,0.5-1.3,1.2-2c-1.4,0.7-2.8,1.4-4,2c-1.3,0.6-2.7,1.3-4.1,2.1c-1.3,0.9-2.7,1.1-4.2,0.5
		c-1.5-0.5-2.9-1.5-4.2-2.9c-1.3-1.4-2.5-3.1-3.5-5c-1-1.9-1.8-3.9-2.2-5.8s-0.5-3.8-0.2-5.4c0.3-1.6,1.1-2.9,2.4-3.8
		c5-3,10.7-5.5,17.2-7.5c6.4-2,12.9-3,19.5-3.1c6.5,0,12.8,1,18.7,3.2c5.9,2.2,10.8,6,14.8,11.2c2.4,2.7,4.1,5.6,5.2,8.8
		c1.1,3.1,1.5,6.3,1.4,9.3c-0.2,3.1-1.2,5.9-2.9,8.5c-1.8,2.7-4.3,4.8-7.6,6.4c-3.3,2-6.6,3.7-9.8,5.1c-3.3,1.4-6.6,2.4-10,2.8
		c3.9,6.3,8,12.6,12.2,18.8c4.2,6.2,8.6,12.4,13,18.5c4.4,6.1,8.7,12.3,13,18.4C739.5,136.9,743.6,143,747.5,149.2z M706.2,44.7
		c-2-0.8-4-1.2-5.9-1.4c-2-0.1-3.9-0.1-5.9-0.1c-0.1,0-0.4,0.4-0.8,1c-0.4,0.7-0.8,1.5-1.3,2.4c-0.5,0.9-0.9,1.8-1.3,2.6
		c-0.4,0.9-0.6,1.4-0.6,1.7c2.6-1,5.2-2,7.9-3C701,47,703.6,45.9,706.2,44.7z"/>
	<path class="st1" d="M794.4,52.8c3.5,4.9,5.3,9.7,5.5,14.4c0.2,4.7-0.7,9.3-2.7,13.6c-2,4.4-4.8,8.7-8.3,12.8
		c-3.6,4.2-7.3,8.2-11.3,12c-4,3.9-7.9,7.6-11.7,11.1c-3.8,3.6-6.9,6.9-9.3,10.1c-0.1,3.1-0.5,5.3-1.3,6.5c-0.8,1.2-1.7,1.8-2.9,1.8
		c-1.2-0.1-2.5-0.6-3.9-1.6c-1.4-1-2.8-2.4-4-4c-1.3-1.6-2.5-3.3-3.5-5c-1-1.7-1.8-3.4-2.3-4.9c-2-10.6-3.6-21.3-4.9-32.2
		c-1.3-10.9-2.9-21.5-5-31.8c-0.8,0-1.6,0.1-2.3,0.1c-0.8,0.1-1.8,0.6-3.2,1.4c-1.2,0.2-2.5-0.2-3.9-1.1c-1.4-0.9-2.7-2.3-4-4
		c-1.2-1.7-2.4-3.6-3.5-5.7c-1-2.1-1.8-4.1-2.2-6c-0.4-1.9-0.5-3.6-0.2-5.1s1.2-2.5,2.5-3c1,0,2.1-0.2,3.3-0.5
		c1.2-0.3,2.5-0.7,3.8-1c1.3-0.3,2.6-0.7,4-1s2.7-0.4,4.1-0.3c0-2.9,0.9-5,2.8-6.2c1.8-1.2,3.8-1,5.9,0.5c1.4,0.7,2.5,1.5,3.3,2.2
		c0.8,0.8,1.5,2,2.1,3.5c4.8,0.6,9.7,1.4,14.7,2.3c5,1,9.8,2.3,14.5,4c4.7,1.7,9.1,3.9,13.2,6.7C787.9,45.1,791.4,48.6,794.4,52.8z
		 M780.3,63c-11-5.8-22.1-8.7-33.3-8.7c0,2.6,0.2,5.2,0.5,7.9c0.3,2.7,0.7,5.5,1.1,8.5c0.5,3.1,0.9,6.4,1.3,10.1
		c0.5,3.7,0.9,7.9,1.3,12.5c1.3-1,2.6-2.1,4-3.4c1.4-1.2,3.2-3,5.2-5.2c2.1-2.2,4.7-5,7.9-8.5C771.6,72.8,775.5,68.4,780.3,63z"/>
</g>
<g class="st0">
	<path d="M28.9,177.6l0.7,1.9l0.4,6.5l-0.3,2.3l-4.2-0.1l-5,0.1v-2l-0.5-2.6l-7.1,0l-0.7,1.4l0.6,5.5c1.6,0,3.1,0.1,4.5,0.1
		c1.2,0,2.3,0.1,3.3,0.1c1,0,1.7,0.1,1.9,0.1c0.2,0.1,0.6,0.1,1.3,0.2c0.7,0,1.5,0.1,2.4,0.2c0.9,0.1,2,0.1,3.2,0.1l0.6,8.2v4.3
		l-0.5,7.4l-4.9,1.9l-11.8,0.1l-4.2-1.6l-1-4.4l0.2-6.6l0.1-2l2.4,0.1l5.1,0.5l0.2,6.9l5.5,0.3l0.2-10l-3.7-0.1l-4.5-0.1l-4.7-1
		l-0.6-10.4l0.9-7.1l5.9-1.5l9.1,0L28.9,177.6z"/>
	<path d="M57.4,208.3l-0.5,3.2l-2,1.3l-6.7,0.5l-11.8-0.6l-1.5-1.4l-1.4-2l0.4-8.6c0-3.8,0-7.1,0-10.1c0-1.3,0-2.5,0-3.7
		c0-1.2,0-2.3,0-3.3c0-1,0-1.8,0.1-2.4c0-0.6,0.1-1,0.1-1c0-0.1,0.1-0.3,0.3-0.7c0.2-0.4,0.4-0.8,0.6-1.2c0.4-0.5,0.7-1,1-1.6
		l10-0.7l7.3,0.7l3.7,1.1l0.9,3.3L57.4,208.3z M47.6,208l1.3-20.9l-1.7-0.7l-6.4,0.1l-0.8,1.7v9.3l-0.3,11.3l1.1,0.1l4.1,0L47.6,208
		z"/>
	<path d="M61.7,176.9l4.9-0.2l-0.3,29.4l2.3,1.1l2,0.4L72,207l0.9-5.6l-0.2-14.8l0.7-9.6h10.7l-0.8,30.6l-0.7,2.5l-1.1,2.8
		l-11.1-0.1l-6.2-1.2l-2.7-3.3L61.7,176.9z"/>
	<path d="M98.9,176.7l6.5,0.2l1.9,0.1l-0.7,7.1l-4.9-0.2l0.3,29L91.2,213l0.5-17.2l0.2-12l-5.9-0.4l0.4-6.3L98.9,176.7z"/>
	<path d="M126.2,176.9h0.5l5.2,0.1l1.6,35.9l-6.9,0.2l-0.3-14.3l-6.6,0.3l-0.4,13.8H112l-2.5-0.1v-6.3l-0.5-11.3l0.6-18.3l10.2,0.1
		l-0.2,16.9l7.5-0.1L126.2,176.9z"/>
	<path d="M156.8,179.5v6l-0.1,3l-8.2-0.3v-1.9v-2.6l-4,0l-0.7,1.4l0.7,6.7l6.3,0.3l6.1,0.6l0.2,6.2v4.4l-0.8,7.7l-5.5,2.2l-8.1-0.3
		l-3.7-1.2l-1.8-1.1l-0.9-3.6l0.3-6.1l0.3-2l2.1,0.1l4.8,0.4v1.5v1.6v0.8v1.3l5.7,0.5l0.2-8.8l-12.2-0.5l-0.5-10.8l-0.1-7.1l2-1.2
		c1.4-0.1,2.7-0.1,3.8-0.2c1-0.1,1.9-0.1,2.7-0.2c0.8,0,1.4-0.1,1.6-0.1c0.2,0,0.5,0,1,0c0.5,0,1,0,1.5,0.1c0.6,0,1.2,0.1,2,0.1
		l3.8,0.8L156.8,179.5z"/>
	<path d="M171.6,176.2l0.4,1.9v3.3l-0.2,1.8l-9.8,0l-0.3-3.2l-0.1-3.4l0.8-0.5L171.6,176.2z M171.8,185.8l-0.5,6.1l0.7,12.4
		l-0.4,8.3l-0.9,0.1l-8.6-0.1l-0.3-2.3l-0.1-13.1l0.3-11.6L171.8,185.8z"/>
	<path d="M178.7,177c1.8,0,3.5-0.1,4.9-0.1c1.3,0,2.6,0,3.8,0c1.2,0,2.1,0,2.6,0.1c0.4,0.1,0.9,0.2,1.5,0.3c0.7,0.2,1.4,0.3,2.1,0.5
		c0.7,0.2,1.5,0.4,2.2,0.7l3.3,4.3c0.3,3.1,0.4,6,0.5,8.7c0,1.2,0,2.4,0,3.6s0,2.3,0,3.4s0,2.1-0.1,2.9s-0.2,1.6-0.3,2.1
		c-0.2,0.8-0.3,1.4-0.5,2.1c-0.2,0.6-0.3,1.2-0.3,1.6c-0.2,0.6-0.2,1.1-0.2,1.5l-3.2,3.9l-7.4,0.3h-11.1l0.3-36H178.7z M181.8,183.5
		l-0.6,22.5l5.9,0.1l0.8-0.7l1.5-11.7V188l-1.1-4L181.8,183.5z"/>
	<path d="M203.3,195.7l0.2-1.8l-0.1-1.8l0.3-10.8l0.5-4.2l19.9,0.3l0.3,9.6h-13l-0.2,6.1l10-0.1v0.5l0.3,4.2l-9.3,0.1l0.3,7.3
		l12.4,0.5v7.5l-21.5-0.3L203.3,195.7z"/>
	<path d="M243.4,213l-1-9.3l0.3-12.7V177l11.6-0.1l4.8,0.8l3.9,0.9l0.7,1.1l2.5,8.7l-0.6,4.3l-1.4,2.2l-1.1,0.8l-2.6,0.6l2.8,1
		l1.5,1l1.5,4.7l-1.2,7.5l-2.6,1.7l-6.4,0.7L243.4,213z M251.7,193.4l2.5-0.3l2.4-1.5l0.8-3.3l0.2-3.9l-2.8-1.7l-1.7-0.2l-2.1,0.1
		L251.7,193.4z M251.1,206.1l2.1,0.7l1.9-0.3l1.3-2.3l-0.3-3.4l-1-2.4l-1.8,0h-2.1l0.4,2.2L251.1,206.1z"/>
	<path d="M292.8,208.1l-0.6,3.5l-2,1.3l-6.3,0.5l-11.5-0.9l-1.6-1.3l-1.2-2l0.2-8.4c0-3.7,0.1-7,0.2-9.9c0-1.2,0-2.5,0-3.7
		s0-2.3,0-3.2c0-0.9,0-1.7,0.1-2.3c0-0.6,0.1-0.9,0.1-1c0-0.1,0.1-0.3,0.3-0.7c0.2-0.4,0.5-0.7,0.8-1.1l0.8-1.6l9.7-0.7l7,0.7
		l3.4,1.1l0.9,3.3L292.8,208.1z M284.2,205.5l0.7-18.3l-1.5-0.7l-5.9-0.1l-0.5,1.7l0.1,6.9v11l1,0.1l3.8,0.1L284.2,205.5z"/>
	<path d="M308.8,176.6l8,0.4l1.7,17.8l0.6,17.7l-1.8,0.1l-7,0.2h-0.7l-0.5-11l-5.7-0.3l-1.6,11.3l-6,0.1l2-18.3l1.8-10.5l1.3-7.3
		l4.1-0.2H308.8z M309.4,196.4l-0.1-6.8l-1.6-4.8l-3.8-0.2l-0.6,12.1L309.4,196.4z"/>
	<path d="M336,176.8l3.8,0.3l3.1,1.4l2.4,3.2l-0.8,9.5l-1,1.5l-3.6,0.9l4.1,2.5l1.1,2.4v3.9l-0.5,10.4l-1.6,0.3l-6.3-0.2l-0.3-9.6
		l-0.4-5l-1.5-1.3l-2.8-0.7v3.6v9.1l0.2,3.8l-6,0l-2.8,0.1l-1-0.1v-7.1v-5.1l0.3-6.7l-0.2-11.5l-0.1-5.7l5.8,0L336,176.8z
		 M328.6,186.6v5h2.2l2.2-0.1l1.4-1.1v-0.5l0.2-3.3l-0.5-3v-0.1l-0.6-2l-1.7-0.6h-3.2l-0.2,1.8L328.6,186.6z"/>
	<path d="M351.2,177c1.8,0,3.5-0.1,4.9-0.1c1.3,0,2.6,0,3.8,0s2.1,0,2.6,0.1c0.4,0.1,0.9,0.2,1.5,0.3c0.7,0.2,1.4,0.3,2.1,0.5
		c0.7,0.2,1.5,0.4,2.2,0.7l3.3,4.3c0.3,3.1,0.4,6,0.5,8.7c0,1.2,0,2.4,0,3.6s0,2.3,0,3.4s0,2.1-0.1,2.9c-0.1,0.9-0.2,1.6-0.3,2.1
		c-0.2,0.8-0.3,1.4-0.5,2.1s-0.3,1.2-0.3,1.6c-0.2,0.6-0.2,1.1-0.2,1.5l-3.2,3.9L360,213H349l0.3-36H351.2z M354.3,183.5l-0.6,22.5
		l5.9,0.1l0.8-0.7l1.5-11.7V188l-1.1-4L354.3,183.5z"/>
	<path d="M410.9,179.5v6l-0.1,3l-8.2-0.3v-1.9v-2.6l-4,0l-0.7,1.4l0.7,6.7l6.3,0.3l6.1,0.6l0.2,6.2v4.4l-0.8,7.7l-5.5,2.2l-8.1-0.3
		l-3.7-1.2l-1.8-1.1l-0.9-3.6l0.3-6.1l0.3-2l2.1,0.1l4.8,0.4v1.5v1.6v0.8v1.3l5.7,0.5l0.2-8.8l-12.2-0.5l-0.5-10.8L391,178l2-1.2
		c1.4-0.1,2.7-0.1,3.8-0.2c1-0.1,1.9-0.1,2.7-0.2c0.8,0,1.4-0.1,1.6-0.1c0.2,0,0.5,0,1,0c0.5,0,1,0,1.5,0.1c0.6,0,1.2,0.1,2,0.1
		l3.8,0.8L410.9,179.5z"/>
	<path d="M432.4,176.9h0.5l5.2,0.1l1.6,35.9l-6.9,0.2l-0.3-14.3l-6.6,0.3l-0.4,13.8h-7.3l-2.5-0.1v-6.3l-0.5-11.3l0.6-18.3l10.2,0.1
		l-0.2,16.9l7.5-0.1L432.4,176.9z"/>
	<path d="M466.2,208.1l-0.6,3.5l-2,1.3l-6.3,0.5l-11.5-0.9l-1.6-1.3l-1.2-2l0.2-8.4c0-3.7,0.1-7,0.2-9.9c0-1.2,0-2.5,0-3.7
		s0-2.3,0-3.2c0-0.9,0-1.7,0.1-2.3s0.1-0.9,0.1-1c0-0.1,0.1-0.3,0.3-0.7s0.5-0.7,0.8-1.1l0.8-1.6l9.7-0.7l7,0.7l3.4,1.1l0.9,3.3
		L466.2,208.1z M457.6,205.5l0.7-18.3l-1.5-0.7l-5.9-0.1l-0.5,1.7l0.1,6.9v11l1,0.1l3.8,0.1L457.6,205.5z"/>
	<path d="M493.2,185.6l-0.1,0.2c0,0.6-0.1,1.1-0.1,1.5c0,0.4-0.1,0.9-0.1,1.5s-0.1,1.1-0.1,1.7c-0.1,1.3-0.2,2.9-0.3,4.6l-2.2,3.1
		l-5.9,1.6l-5.2,0.2l0.9,8.2l0.3,4.2l-4.2,0.4c-0.2,0-0.5,0-0.8,0s-0.7,0-1,0.1c-0.4,0-0.8,0-1.3,0l-2.2-0.3v-7.4l-0.3-4.9
		c0-1,0-1.9,0-2.8c-0.1-0.8-0.1-1.5-0.1-2.1c0-0.7,0-1.1,0-1.4v-11.3l0.2-5.8h2.4c0.7,0,1.4,0,2.2,0c0.8,0,1.6,0,2.4,0
		c0.7,0,1.5,0,2.2,0c0.8,0,1.5,0,2.1,0c0.6,0,1.2,0,1.6,0c0.5,0,0.8,0,1,0.1c0.3,0.1,0.8,0.1,1.4,0.2c0.6,0.1,1.2,0.1,1.8,0.2
		c0.7,0.1,1.4,0.2,2.2,0.3l2.2,1.4L493.2,185.6z M484.3,194.2c0-0.2,0-0.6,0.1-1.1s0.1-1.1,0.1-1.7s0.1-1.2,0.1-1.7c0-0.5,0-0.8,0-1
		c0-0.1,0-0.3-0.1-0.6c-0.1-0.2-0.1-0.5-0.2-0.8c-0.1-0.3-0.2-0.5-0.2-0.8s-0.1-0.4-0.1-0.6l-1.5-1.3l-2.1-0.4h-4.2l-0.3,0.8
		l-0.2,3.5l0.5,6.2l2.5,0.4l4.9-0.4L484.3,194.2z"/>
	<path d="M536.7,191.9v4.2l-0.2,1.8l-1.9,0.2l-2.1,0l0.1,1l-0.6,13.5l-9.3,0.9l-6.6-0.5l-3.5-2.1l-0.6-2.3l-0.3-11l4.1-2l-4.1-1.7
		l-0.1-12.3l0.5-3.5l1.7-1.4l6.2-0.6l11,0.6l1.2,1.4l1.4,2v4.6l-8.1,0.6v-4.6v-1.4l-5.8-0.1l-0.9,2.5l-0.1,10.3l4.6-0.5l2.3,0
		l0.2-2.5l1.3-0.5l5,0.4l0.3,2.7L536.7,191.9z M524.2,206.4l0.7-8.5l-7.1,0l0,7.6l1.6,0.7L524.2,206.4z"/>
	<path d="M575.1,177.6l0.7,1.9l0.4,6.5l-0.3,2.3l-4.2-0.1l-5,0.1v-2l-0.5-2.6l-7.1,0l-0.7,1.4l0.6,5.5c1.6,0,3.1,0.1,4.5,0.1
		c1.2,0,2.3,0.1,3.3,0.1c1,0,1.7,0.1,1.9,0.1c0.2,0.1,0.6,0.1,1.3,0.2c0.7,0,1.5,0.1,2.4,0.2c0.9,0.1,2,0.1,3.2,0.1l0.6,8.2v4.3
		l-0.5,7.4l-4.9,1.9l-11.8,0.1l-4.2-1.6l-1-4.4l0.2-6.6l0.1-2l2.4,0.1l5.1,0.5l0.2,6.9l5.5,0.3l0.2-10l-3.7-0.1l-4.5-0.1l-4.7-1
		l-0.6-10.4l0.9-7.1l5.9-1.5l9.1,0L575.1,177.6z"/>
	<path d="M595.2,213l-3.6-16.5l-1.4,0v5.5l0.7,11l-0.7,0.3l-9.9-0.3l-0.7-2.7l-0.1-17.5l0.6-16.3l10.7,0.2l-0.7,9l0.1,3.7h0.7
		l7.5-12.6h5l0.9,0.4l-8.6,14.1l10,21.6L595.2,213z"/>
	<path d="M616.4,176.6l5.9,0h2.2l0.9,2.3l2,15.8l2,18.3l-6.1-0.1l-0.9-0.3l-0.6-11l-6.2,0.3l0.7,10.8h-1.7h-7l-1.8-0.1l0.7-22
		l2-13.6L616.4,176.6z M621.6,196.4l-0.5-11.7l-5.5-1.2c0,0.7,0,1.4,0,2.2c-0.1,0.6-0.2,1.3-0.3,2c-0.1,0.7-0.1,1.4-0.1,2
		c0,0.6,0,1.3,0,1.9s0,1.3,0,1.8v2l0.6,1.1L621.6,196.4z"/>
	<path d="M630.4,176.7l19,0.1l0.6,6.3l-8.5,1l1.6,28.7l-9.3,0l0.2-27.6l-4.8-0.3l-0.7-8L630.4,176.7z"/>
	<path d="M655.4,176.8l14.7-0.1l2.7,0.2l0.2,4.7l-0.2,4.3l-6.1-0.1l-5.7-0.2l0.2,2.7l-0.2,2.6l10.2-0.2l0,3.1l-0.4,1l-9.3,0.4
		l-0.7,0.1l0,8.4v2.1l6.7,0.2h4.8l-0.1,7.1l-7.5-0.2l-11.7,0.2l-0.8-7.7l0.7-13.4l-0.7-12.1l0.3-3.2L655.4,176.8z"/>
	<path d="M713.3,185.3l0,0.2c-0.1,0.6-0.1,1.1-0.1,1.5c0,0.4-0.1,0.9-0.1,1.5c0,0.6-0.1,1.1-0.1,1.7c-0.1,1.4-0.2,2.9-0.3,4.7
		l-2.3,3.1l-5.9,1.6l-4.6,0.2l0.2,8.3l-0.4,4.2l-3.5,0.4c-0.2,0-0.5,0-0.8,0c-0.3,0-0.7,0-1,0.1c-0.5,0-0.9,0-1.3,0l-2.2-0.3v-7.4
		l-0.4-4.9c0-1,0-1.9,0-2.8c0-0.8,0-1.5,0-2.1s0-1.1,0-1.4v-11.4l0.2-5.8c0.8,0,1.6,0,2.4,0c0.7,0,1.4,0,2.3,0c0.8,0,1.6,0,2.4,0
		c0.7,0,1.5,0,2.2,0c0.8,0,1.4,0,2.1,0s1.2,0,1.7,0c0.5,0,0.8,0,1,0.1c0.3,0.1,0.8,0.1,1.4,0.2c0.6,0.1,1.2,0.1,1.8,0.2
		c0.7,0.1,1.4,0.2,2.1,0.3l2.2,1.4L713.3,185.3z M705,191.7c0-0.2,0.1-0.4,0.1-0.8c0-0.3,0.1-0.6,0.1-0.9c0-0.3,0.1-0.6,0.1-0.9
		s0-0.4,0-0.5c0-0.1,0-0.3-0.1-0.6s-0.1-0.5-0.2-0.8c-0.1-0.3-0.2-0.5-0.2-0.8c-0.1-0.2-0.1-0.4-0.1-0.5l-1.4-1.3l-2.8-0.4h-4.2
		l-0.3,0.8l-0.2,3.5l0.5,3.9h2.5h5.5L705,191.7z"/>
	<path d="M725.4,176.6l5.9,0h2.2l0.9,2.3l2,15.8l2,18.3l-6.1-0.1l-0.9-0.3l-0.6-11l-6.2,0.3l0.7,10.8h-1.7h-7l-1.8-0.1l0.7-22
		l2-13.6L725.4,176.6z M730.7,196.4l-0.5-11.7l-5.5-1.2c0,0.7,0,1.4,0,2.2c-0.1,0.6-0.2,1.3-0.3,2c-0.1,0.7-0.1,1.4-0.1,2
		c0,0.6,0,1.3,0,1.9s0,1.3,0,1.8v2l0.6,1.1L730.7,196.4z"/>
	<path d="M747.5,176.7c0.7,0,1.5,0,2.2,0c0.8,0,1.5,0,2.1,0s1.2,0,1.7,0c0.5,0,0.8,0,1,0.1c0.3,0.1,0.8,0.1,1.4,0.2
		c0.6,0.1,1.2,0.1,1.8,0.2c0.7,0.1,1.4,0.2,2.1,0.2l2.5,0.6l1.1,2.5l0.3,5.1c0,0,0,0.2-0.1,0.6c-0.1,0.4-0.2,0.8-0.2,1.2
		c-0.1,0.6-0.2,1.2-0.3,1.9l-0.1,0.5l-0.2,0.5l-0.6,1.2l-1.1,1.7l-1.1,0.4l2.4,1.5l1,2.6v3.8l-0.3,11.5h-2.7l-6-0.7l-0.4-9.8
		l-0.4-4.5l-0.7-0.8l-1.7-0.7l-1.3-0.2v2.9v8.6l0.2,4.6h-4.2c-0.2,0-0.5,0-0.8,0c-0.3,0-0.7,0-1,0.1c-0.5,0-0.9,0-1.3,0l-2-0.3v-7.4
		l-0.5-4.9c0.1-1,0.2-1.9,0.3-2.7c0.1-0.7,0.1-1.4,0.2-2.1c0.1-0.7,0.1-1.2,0.1-1.4v-10.8l-0.5-6.3c0.8,0,1.6,0,2.4,0
		c0.7,0,1.4,0,2.2,0C745.9,176.8,746.7,176.8,747.5,176.7z M745.3,183.4l0.7,3.5v3.9h1.6l4.5-0.1l2-0.6c0-0.2,0-0.4,0-0.7
		c0-0.3,0.1-0.6,0.1-0.9c0-0.3,0.1-0.6,0.1-0.9c0-0.3,0-0.5,0-0.6c0-0.1,0-0.3-0.1-0.6s-0.1-0.5-0.2-0.8c-0.1-0.3-0.1-0.5-0.2-0.8
		c0-0.2-0.1-0.4-0.2-0.6l-1.5-1.3l-2.8-0.4h-3.9L745.3,183.4z"/>
	<path d="M782.5,213l-3.6-16.5l-1.4,0v5.5l0.7,11l-0.7,0.3l-9.9-0.3l-0.7-2.7l-0.1-17.5l0.6-16.3l10.7,0.2l-0.7,9l0.1,3.7h0.7
		l7.5-12.6h5l0.9,0.4l-8.6,14.1l10,21.6L782.5,213z"/>
</g>
</svg>
