<?xml version="1.0" encoding="utf-8"?>
<!-- Generator: Adobe Illustrator 22.1.0, SVG Export Plug-In . SVG Version: 6.00 Build 0)  -->
<svg version="1.1" id="Layer_1" xmlns="http://www.w3.org/2000/svg" xmlns:xlink="http://www.w3.org/1999/xlink" x="0px" y="0px"
	 viewBox="0 0 739.5 412" style="enable-background:new 0 0 739.5 412;" xml:space="preserve">
<style type="text/css">
	.st0{fill:#754C24;}
	.st1{fill:#A67C52;}
	.st2{enable-background:new    ;}
	.st3{fill:#603813;}
	.st4{fill:#8C6239;}
	.st5{fill:#C69C6D;}
</style>
<title>Asset 1</title>
<path class="st0" d="M632.1,232.7c3.2-7.3,8.9-10.6,15.6-12.8c0.8-0.3,1.5-0.6,2.2-1.1c8.3-5.2,17.6-6.1,27.1-5.2
	c3.4,0.5,6.7,1.3,9.8,2.5c4.5,1.5,8.7,3.5,13.2,4.9c14.8,4.6,25.1,17.9,25.9,33.4c0.2,5.6,1.5,10.9,2.6,16.4
	c2,9.7,1.2,19.1-4.2,27.7c-3.1,4.9-5.9,10-8.3,15.3c-2.5,5.8-6.8,10.7-12.2,14c-6.1,3.5-11.8,7.9-16.8,12.9c-4,4.2-9.2,7.2-14.8,8.7
	c-5.3,1.3-10.2,4.1-13.9,8.1c-4.7,5.2-10.9,8-17.6,9.4c-4.9,1-9.9,1.5-14.8,2.3c-2,0.3-4,1-6,1.3s-4.3,0.7-6-0.1
	c-2.5-1.2-4.7-2.9-6.5-4.9c-3.8-3.8-7.3-7.9-10.9-12c-2-2.2-3.7-4.5-5.3-7.1c-4.4-7.9-9.7-15.2-15.8-21.8c-2.8-3.2-5-6.8-6.7-10.7
	c-4.7-10.4-8.9-21.1-13.7-31.5c-2.9-6.2-3.5-12.3-0.3-18.3c2.3-3.8,2.7-8.5,1.3-12.6c-1.2-3.5-1.3-7.3,0.7-10.4
	c3.9-5.9,8.1-11.7,12.5-17.3c1.2-1.6,3.3-2.5,5-3.7c6.1-4.1,13.1-5.1,20.2-5.7c13.8-1.1,25.6,2.8,34.4,14.1
	C629.7,229.6,630.6,230.8,632.1,232.7L632.1,232.7z M653.1,340.3l11.2,5.8c8.5-1.9,16.3-6.1,22.4-12.3c4.2-4.1,9.4-7.3,14.3-10.5
	c5.4-3.4,9.3-8.9,10.8-15.1l-15.2-10.5c0.2-0.3,0.4-0.6,0.6-1c5.4,2.5,10.2,6.1,15.7,9.2c2.8-4.4,6.1-8.4,8.3-13
	c3.3-6.8,3.9-14.7,1.7-21.9c-1.5-4.8-2.3-9.9-2.3-14.9c0-1.1-0.1-2.3-0.2-3.4c-0.3-5.3-1.6-9.9-7.1-12.3c-3.2-1.6-6.2-3.5-9.1-5.7
	c4.1,0.7,7.3,3.5,10.9,5.3c0.2-0.3,0.5-0.7,0.4-0.8c-4.5-6.7-11.1-11.6-18.8-13.9c-2.7-0.7-5.3-1.6-7.9-2.5
	c-12.2-5.1-24.2-5.3-36.1,0.3c-1,0.5-2.1,0.7-3.2,1.1c-5.3,2-10.4,4-14.1,8.9c-3.2,4.2-5.2,3.9-9,0c-0.5-0.4-1-0.9-1.4-1.4
	c-5.6-7.4-13.3-11.1-22.1-12.2c-10.7-1.3-20.9,0.6-29.9,7c-1.2,0.9-2.2,2-3,3.2c-2.6,3.5-5,7.2-7.5,10.7c-2.1,2.6-2.7,6-1.8,9.2
	c1.8,5.5,1.2,11.5-1.6,16.5c-2.6,4.7-1.5,9.5,0.5,14.2c4.8,11.1,9.6,22.2,14.7,33.2c1.5,3.3,3.5,6.3,5.9,8.9
	c5.7,5.9,10.3,12.6,14.8,19.5c2.2,3.3,4.5,6.4,7.1,9.4c3.2,3.8,6.5,7.3,9.8,11c3.7,4.1,5.5,4.3,10.7,2.7c3.8-1.2,7.9-1.6,11.8-2.3
	c4.2-0.8,8.6-1.2,12.6-3.9c-2-3.1-5.7-3.7-8.1-6c3.3,0.2,3.7,0.4,10.8,5.2l12.2-10.6l-9.2-5.8C652.8,341.1,653,340.7,653.1,340.3
	L653.1,340.3z"/>
<path class="st0" d="M533.8,268c-2.8-1.9-4.3-5.2-3.9-8.5c0.3-3.3,2.7-5,5.6-6c1.1-0.3,2.1-0.6,3.2-0.9c2-1,3.8-0.3,5.4,0.9
	c5.3,3.8,4.5,11.2-2,15C539.5,270.2,536.6,270.1,533.8,268z M534.4,262.6c1.6,3.1,3.3,3.9,5.7,2.7c2.9-1.4,4.5-5.2,3.3-7.7
	c-0.8-2.1-3.1-3.1-5.2-2.3c-0.2,0.1-0.3,0.1-0.5,0.2C533.6,257.6,532.8,259.4,534.4,262.6L534.4,262.6z"/>
<path class="st1" d="M622.9,203.1c3.5-2,10,0.1,12.3,4c1.9,2.7,1.2,6.4-1.5,8.2c-0.1,0.1-0.2,0.2-0.3,0.2c-4,2.6-10.8,0.5-12.9-3.9
	C619,208.7,620.2,204.7,622.9,203.1L622.9,203.1z M633.6,207.7c-2.3-0.4-4.6-0.6-6.9-0.7c-2.3,0-3,1.6-1.9,3.6c1,1.8,3.9,3.3,5.7,3
	C632.6,213.2,633.4,211.9,633.6,207.7L633.6,207.7z"/>
<path class="st0" d="M534.7,289.3c-1.6-3.2-1.1-6.5,1.3-7.8c3.4-1.9,9.7,0,11.5,3.6c1.3,2.6,0.1,6.6-2.6,8.1
	C541.6,295.1,536.7,293.2,534.7,289.3L534.7,289.3z M540.6,290.3c1.3,0.5,2.7,0.4,3.8-0.3c0.8-0.9,1.2-2.1,0.8-3.3
	c-0.6-1.3-1.7-2.2-3-2.6c-1.4-0.3-3,0.3-4.8,0.6C537.2,287.9,538.7,289.5,540.6,290.3L540.6,290.3z"/>
<path class="st0" d="M668,197.9c2.2-1.4,8.1-0.1,9.2,1.9s0,5-2.7,6.4c-2.5,1.5-5.7,0.6-7.2-1.9c-0.1-0.1-0.2-0.3-0.2-0.4
	C665.7,201.5,666.1,199.1,668,197.9z"/>
<path class="st0" d="M732.2,303.4c-1-1.7-0.4-4,1.3-5c0,0,0,0,0,0c1.8-0.9,4.7,0.4,5.6,2.5c0.8,1.8,0.1,3.1-0.5,3.5
	C735.6,306,733.3,305.3,732.2,303.4z"/>
<path class="st1" d="M548.5,298.9c1.5-1,3.5-0.6,4.5,0.9c0,0,0,0,0,0.1c0.9,1.6,0.4,3.6-1.1,4.6c-1.4,1-3.3,0.8-4.4-0.6
	c-0.1-0.1-0.1-0.2-0.2-0.3C546.5,301.9,547,299.9,548.5,298.9z"/>
<path class="st0" d="M658.1,194c1.3-0.1,3.4,0.2,4.1,1.2c1.1,1.4,0.1,3.1-1.4,3.9c-1.6,0.9-3.6,0.3-4.4-1.3c0,0,0-0.1-0.1-0.1
	c-0.6-1.3-0.1-2.8,1.1-3.5C657.6,194.1,657.9,194,658.1,194z"/>
<path class="st0" d="M646.5,190.4c0.7-0.8,1.9-0.8,2.7-0.1c0.2,0.2,0.4,0.5,0.5,0.8c0.2,1.2-0.2,2.3-1,3.2c-0.7,0.5-2.1,0.1-4.3,0.1
	C645.5,192.4,645.8,191.1,646.5,190.4z"/>
<path class="st0" d="M550.7,317.7c-0.1-1.2,0.3-2.3,1.1-3.1c0.4-0.4,2.5,0.1,2.7,0.7c0.4,0.9,0,2.2-0.2,4.3
	C552.6,318.8,551,318.5,550.7,317.7z"/>
<path class="st0" d="M726.2,329.6c0.2-0.2,1.1,0.2,1.7,0.3c-0.1,0.7-0.3,1.4-0.6,2c-0.2,0.3-1,0.1-2.1,0.1
	C725.6,330.9,725.7,330,726.2,329.6z"/>
<path class="st1" d="M679.3,278c-9.5,5.1-18.7-0.1-19.4-9.7c-0.1-0.8-0.3-1.6-0.5-2.4c-0.9-5.3,1.8-9.1,5.3-12.3
	c1.1-1,3.3-1.2,4.9-1c2.5,0.4,5,1.1,7.5,2c5.6,1.8,9.4,6.1,9.8,11C687.3,271.6,684.1,275.3,679.3,278L679.3,278z"/>
<path class="st0" d="M636.3,285.5c-6.9,3.7-13.9,1.7-16-4c-0.8-2.6-1.3-5.4-1.5-8.1c-0.4-2.9,1.2-5,3.5-6.5c5.6-3.9,14.7-3,19.7,1.8
	c3,2.8,3.5,5.7,1.5,9.2C641.7,281,639.2,283.6,636.3,285.5L636.3,285.5z"/>
<path class="st1" d="M641.2,320.6c-4.7,2.5-9.2,1.5-14-3.2c-3.2-3-3.8-7.1-1.6-11.1c1.8-3.6,5.9-5.5,9.8-4.4
	c3.7,0.9,6.3,3.3,8.5,6.2C647.2,312.6,646,318,641.2,320.6L641.2,320.6z"/>
<path class="st0" d="M653.4,302.9c-1.6-3-1.9-6.6-0.7-9.9c2-5,7-6.7,11.4-3.5c1.9,1.5,3.5,3.3,4.8,5.4c2.9,4.9,1.7,9.7-2.7,12.1
	c-4.5,2.4-10.1,0.7-12.5-3.8C653.5,303.1,653.4,303,653.4,302.9z"/>
<path class="st0" d="M602.6,249.4c0.3-2.7,1.8-4.9,4.6-5.6c4-0.9,10.8,2.5,12,6.5c0.6,2,0.5,4.1-0.3,6c-1.3,3.1-4.2,4.3-7.5,4.2
	s-6.3-1.2-8.5-4.5C602.7,253.8,602.3,251.5,602.6,249.4z"/>
<path class="st0" d="M639.6,255.8c-1.4-2.9,0.2-8,2.9-9.4c2.9-1.6,7.2,0.1,8.6,3.2c1.2,2.8-0.3,6.6-3.4,8.1S640.8,258.4,639.6,255.8
	z"/>
<path class="st0" d="M605.6,300.9c-2.9-2.4-2.1-6.6,1.6-8.1c3.4-1.4,9.8,2.1,10.4,5.8c0.4,2.4-0.7,4-2.9,5
	C611.8,304.9,608.9,303.7,605.6,300.9z"/>
<path class="st1" d="M603.6,273.1c1.2,2.2,0.3,5.5-1.6,6.5s-4.5-0.3-5.7-2.5c-1.1-2.1-0.3-4.7,1.8-5.9
	C600.3,270.4,602.6,271.2,603.6,273.1z"/>
<path class="st0" d="M580.2,275.9c1.7-0.7,3.7,0.1,4.5,1.8c1,2,0.2,4.4-1.7,5.4c-1.7,0.8-3.7,0.3-4.7-1.3
	C577.3,280,578.3,276.8,580.2,275.9z"/>
<path class="st0" d="M718,251.5L697.2,238C708.3,242.2,715.7,247.1,718,251.5z"/>
<path class="st0" d="M583.1,260.5c-0.7-1.9,0.3-3.1,1.9-3.9c1.8-0.9,4.8-0.2,5.6,1.4c1.1,2.2-0.8,2.8-2,3.6
	C586,262.8,583.7,262.4,583.1,260.5z"/>
<path class="st0" d="M670.1,244.4c-1.7,0.9-4.4,0.5-5.3-0.9s-0.1-3.6,1.6-4.5c1.6-0.9,3.7-0.3,4.6,1.3
	C671.6,241.7,672,243.3,670.1,244.4L670.1,244.4z"/>
<path class="st0" d="M691.2,284.5c-0.8-1.6-0.2-3.6,1.4-4.5c0,0,0.1,0,0.1,0c1.6-0.9,3.7-0.4,4.7,1.2c0.7,1.7,0.1,3.7-1.5,4.6
	C694.2,286.5,692.2,286,691.2,284.5L691.2,284.5z"/>
<path class="st0" d="M652,326.5c0.6,1.7-0.1,3.7-1.7,4.6c-1.4,0.7-3.1,0.2-3.8-1.1c-0.1-0.1-0.1-0.2-0.2-0.4
	c-0.9-1.9-0.2-4.4,1.3-5.1C649.4,323.9,651.3,324.8,652,326.5z"/>
<path class="st0" d="M605,325.4c-0.7-1.7-0.1-3.6,1.4-4.6c1.6-0.9,3.7-0.4,4.6,1.2c0,0,0,0,0,0c0.8,1.7,0.2,3.6-1.3,4.6
	C608,327.5,606,327,605,325.4L605,325.4z"/>
<path class="st0" d="M704.2,260c7.8,3.6,13.8,8.1,15.8,12.4C714.5,267.9,709.1,265.1,704.2,260L704.2,260z"/>
<path class="st0" d="M684.1,332.4c-0.2,0.5-0.5,1.1-0.7,1.6c-4.7-2.4-9.5-4.5-13.7-7.8c0.2-0.3,0.3-0.6,0.5-0.9L684.1,332.4z"/>
<path class="st0" d="M706.7,315.2l-13.4-8.6C701.3,309.1,705.3,311.8,706.7,315.2z"/>
<path class="st0" d="M720,281.9c-4.7-3.4-10-6.1-13.7-10.8C711.2,274.1,716.4,277,720,281.9z"/>
<path class="st0" d="M718.8,260.5l-13.6-9.8l0.6-0.8c4.8,3,9.9,5.4,13.6,9.8L718.8,260.5z"/>
<path class="st0" d="M719,291.4l-11.4-9.3l0.7-0.8c3.2,2.4,6.5,4.8,9.7,7.2c0.7,0.6,1.3,1.3,1.9,2
	C719.5,290.8,719.3,291.1,719,291.4z"/>
<path class="st0" d="M684.2,311.8c4.1,2.9,8.8,4.7,12.4,8.4l-0.6,0.9l-12.5-8.3L684.2,311.8z"/>
<path class="st0" d="M671.8,340.3l-12-6.4C666.9,335.2,669.8,336.8,671.8,340.3z"/>
<path class="st0" d="M703.7,289.5c4.1,2,8.3,4,11.3,7.9C710.8,295.4,706.8,293.1,703.7,289.5z"/>
<path class="st0" d="M689.5,328.5l-8.7-5.9C685.6,323.7,687.8,325.3,689.5,328.5z"/>
<path class="st0" d="M648.4,348c0.3-0.4,0.5-0.7,0.6-0.7c2.1,0.6,4.2,1.3,5.5,3.5L648.4,348L648.4,348z"/>
<g class="st2">
	<path class="st3" d="M9.4,127c1.4-0.4,2.8-0.9,3.9-1.4c1.2-0.5,2.4-0.7,3.5-0.8c3.6-0.5,7.2,0.1,10.8,1.6c2.1,0.7,3.4,2.1,4.1,4.3
		c0.6,1.8,1.2,3.5,1.9,5.2c0.7,1.7,1.3,3.4,2,5.2c0.5,1.6,1,3.1,1.5,4.7c0.5,1.6,1.1,3.2,1.8,4.8c0.2-0.9,0.4-1.9,0.5-2.9
		c0.2-1,0.4-2,0.7-2.9c1.3-4.5,2.8-8.9,4.5-13.2c1.6-4.3,4.1-8.2,7.5-11.7c1.6-1.7,3.2-3.3,4.8-4.8c1.6-1.5,3.3-3,5-4.5
		c1.7-1.4,3.4-2,4.9-1.8c1.5,0.2,3.1,1,4.9,2.5c2.4,1.8,3.8,4,4.4,6.5c0.6,2.5,0.8,5.1,0.8,7.8c0,1.3,0,2.6,0.1,3.8
		c0.1,1.2,0.1,2.5,0.1,3.7c-0.1,1.4-0.2,2.9-0.3,4.4c-0.1,1.5-0.3,2.9-0.8,4.3c-0.5,1.7-1.1,3.4-1.8,5.1c-0.7,1.7-1.4,3.4-2.1,5
		l0,0.2c0,0.1,0,0.2,0,0.3c0,0.1,0,0.2,0,0.4c0.7-0.1,1.4-0.2,2.1-0.3c0.6-0.1,1.3-0.1,1.9-0.1c1.9-0.1,3.9-0.2,5.9-0.3
		c2-0.1,4,0,6,0.2c0.9,0.1,1.7,0.4,2.4,0.8c0.7,0.5,1.5,0.9,2.2,1.4c1.1,0.8,2.2,1.7,3.3,2.6c1.1,0.9,2.1,1.9,3.1,2.8
		c0.2,0.2,0.4,0.4,0.6,0.6c0.1,0.3,0.3,0.5,0.6,0.6l16.9-7.1c0,0.2,0.1,0.4,0.2,0.5c-0.4,0.8-1,1.5-1.7,2.1
		c-0.7,0.6-1.5,1.1-2.3,1.5c-1.9,1.2-3.7,2.4-5.5,3.6c-1.8,1.2-3.7,2.4-5.7,3.6c1.6,2.3,2.4,4.5,2.6,6.8c0.2,2.3,0.1,4.6-0.3,7
		c-0.1,1.1-0.3,2.2-0.3,3.2c-0.1,1-0.2,2.1-0.3,3.2c-0.1,1.4-0.2,2.9-0.3,4.2c-0.1,1.4-0.5,2.8-1.1,4.2c-0.7,1.3-1.1,2.7-1.5,4.1
		c-0.3,1.4-0.8,2.8-1.4,4.3c-1.3,2.7-2.8,5.5-4.4,8.4c-0.9,1.7-1.9,3.3-2.8,4.9c-0.9,1.6-1.9,3.2-2.8,4.7c-1,1.5-1.9,3-2.9,4.5
		c-1,1.5-2,3-3.1,4.4c-0.6,0.9-1.3,1.7-1.9,2.4c-0.6,0.7-1.4,1.4-2.1,2.1c-0.8,0.7-1.6,1.2-2.6,1.6c-1,0.4-1.9,0.9-2.8,1.5
		c-0.1,0.1-0.2,0.2-0.3,0.1c-0.1,0-0.2,0-0.3,0.1c-3.8,2.8-7.7,2.7-11.6-0.3c-0.4-0.3-0.8-0.5-1.2-0.8c-0.4-0.3-0.8-0.6-1.2-1
		c-1-1-1.7-2.2-1.9-3.5c-0.3-1.3-0.5-2.5-0.8-3.7c-0.5-1.6-0.8-3.2-0.9-4.9c-0.2-1.7-0.1-3.4,0.2-5c0.4-2.7,1.1-5.3,2-7.9
		c1.7-4.4,3.7-8.6,6.1-12.5c2.4-3.9,5-7.7,7.9-11.3c0.9-1,1.9-2.1,2.8-3.1c1-1,2-2,3-3c0.8-0.7,1.2-1.4,1.4-2.2
		c0.1-0.8,0.3-1.6,0.3-2.5c-0.1-2.2-0.5-4.2-1.2-6.2c-0.6-2-1.7-3.8-3.1-5.4c-1.1-1.3-2.4-1.8-3.9-1.7c-1.1,0.1-2.1,0.1-3.2,0.1
		c-1,0-2.1,0-3.2,0.1c-0.5,0.1-1.1,0.2-1.7,0.3c-0.6,0.1-1.1,0.4-1.6,0.7c-1.3,1-2.5,1.9-3.6,2.9c-1.2,1-2.4,1.9-3.6,2.9
		c-0.8,0.7-1.6,1.2-2.5,1.6c-0.9,0.4-1.8,0.9-2.7,1.3c-1,0.5-1.4,1.2-1.3,2.2c0.3,1.9,0.6,3.8,0.9,5.8c0.3,1.9,0.6,3.9,0.8,5.8
		c0.1,0.5,0.1,1.1,0,1.6c-0.1,0.5-0.1,1-0.2,1.6c0,1.3,0,2.6,0,4c0,1.3-0.1,2.6-0.2,4c-0.1,1.6-0.9,2.9-2.6,4.2
		c-1.3,0.8-2.5,1.4-3.7,2.1c-1.2,0.6-2.5,1.2-4,1.6c-1.1,0.3-2.2,0.8-3.2,1.6c-1,0.8-2.1,1.5-3.1,2.2c-0.2,0.1-0.4,0.3-0.7,0.5
		c-0.3,0.2-0.5,0.4-0.7,0.5c-1.1,0.4-1.9,0.5-2.2,0.3c-0.3-0.2-0.5-0.9-0.6-2.1c-0.3-2.3-0.5-4.5-0.7-6.8c-0.2-2.3-0.5-4.5-0.8-6.8
		c-0.1-1.3-0.3-2.6-0.6-3.9c-0.3-1.3-0.6-2.5-0.9-3.8c-0.1-0.9-0.2-1.7-0.3-2.6c-0.1-0.9-0.2-1.7-0.3-2.6l-1.4-12.1
		c-0.4-2.2-0.7-4.5-1.2-6.7c-0.4-2.2-0.7-4.5-1-6.8c-0.4-4.1-0.8-8.2-1.2-12.3c-0.4-4.1-0.8-8.2-1.2-12.3c-0.1-1.9-0.9-3-2.5-3.4
		c-0.5-0.1-0.9-0.1-1.3,0c-0.8,0.4-1.6,0.5-2.5,0.4C11.6,128.2,10.6,127.8,9.4,127z M40.3,156.3c0.3,0.8,0.7,1.7,1.1,2.6
		c0.4,0.9,0.8,1.8,1.2,2.6c0.1,0.2,0.5,0.3,1,0.3c0.5,0,0.8-0.1,1-0.3c2.5-1.7,5.1-3.6,7.6-5.5c0.8-0.7,1.5-1.4,2.3-2.1
		c0.8-0.7,1.5-1.5,2.2-2.4c0.7-0.7,1.2-1.4,1.8-2.2c0.5-0.8,1.1-1.6,1.7-2.3c1.3-1.6,2.4-3.3,3.5-4.9c1.1-1.7,2.1-3.4,3-5.3
		c1.1-2.5,1.9-5,2.2-7.5c0.4-2.5,0.6-5.2,0.7-7.9c0-1.6-0.2-3.2-0.6-4.6c-0.3-1.4-1-2.8-2-4.2c-0.3-0.4-0.5-0.7-0.8-0.9
		c-0.2-0.2-0.6-0.1-1.1,0.3c-1.5,1.1-2.9,2.2-4.4,3.2c-1.5,1-2.9,2.1-4.2,3.3c-3.6,3.2-6.4,6.8-8.2,10.7c-0.7,1.2-1.2,2.4-1.6,3.7
		c-0.4,1.3-0.9,2.5-1.6,3.6c-1.8,3.1-3.1,6.3-4,9.5C40.2,149.1,39.9,152.6,40.3,156.3z M79.8,186.3l-0.3-0.1c-1,1-1.9,2.1-2.7,3.2
		c-1.3,2.1-2.7,4.2-4.1,6.2c-1.4,2.1-2.7,4.2-3.9,6.2c-1.2,1.9-2.2,3.9-3,6c-0.8,2-1.4,4.2-1.8,6.5c-0.3,1.6-0.6,3.2-0.8,4.8
		c-0.2,1.6-0.7,3.2-1.5,4.6c-0.5,1-0.8,2-1,3.1c-0.2,1.1-0.8,2-1.8,2.7c-0.1,0-0.1,0.2-0.1,0.4c0,0.3,0.1,0.4,0.2,0.5
		c0.6,0.1,1.1,0.3,1.7,0.5c0.6,0.2,1.1,0,1.7-0.5c0.8-0.7,1.5-1.3,2.3-1.9c0.8-0.6,1.6-1.2,2.5-1.8c1.1-0.6,1.9-1.4,2.5-2.4
		c0.6-1,1.1-1.9,1.6-2.9c0.8-1.6,1.6-3.2,2.2-4.9c0.7-1.7,1.3-3.4,1.9-5c0.9-2.1,1.6-4.3,2.2-6.4c0.6-2.2,1-4.4,1.2-6.8
		c0.1-1.3,0.2-2.6,0.4-3.9c0.1-1.3,0.2-2.6,0.4-3.9c0.1-0.8,0.1-1.5,0.1-2.2C79.6,187.8,79.7,187.1,79.8,186.3z"/>
	<path class="st3" d="M139.1,167c-0.1,0.6-0.3,1.1-0.5,1.7c-0.2,0.6-0.4,1.2-0.5,1.7c-0.4,1.6-0.8,3.1-1.1,4.6
		c-0.4,1.5-0.8,3-1.3,4.5c-0.4,1-0.7,2.1-1,3.1c-0.3,1-0.7,2-1.3,3c-0.4,0.7-0.9,1.4-1.6,2c-0.6,0.6-1.4,1-2.5,1.1
		c-0.5,0.1-1,0.3-1.4,0.6c-0.4,0.3-0.9,0.6-1.4,0.6c-4.2,0.7-7.8-0.7-10.8-4.2c-3.2-3.7-4.7-7.9-4.5-12.6c0-1.5,0.1-3.1,0.4-4.7
		c0.3-1.6,0.5-3.2,0.7-4.7c0.2-0.9,0.3-1.8,0.5-2.5c0.1-0.8,0.3-1.6,0.5-2.5c0.1-0.6,0.3-1.1,0.4-1.5c0.2-0.4,0.3-0.8,0.4-1.3
		c0.5-1.7,1-3.3,1.7-4.7c0.1-0.5,0.4-0.9,0.6-1.2c0.3-0.3,0.5-0.7,0.7-1c0.6-0.9,1.2-1.7,1.7-2.5c0.5-0.8,1.1-1.6,1.7-2.3
		c0.6-0.6,1.1-1.2,1.7-1.8c0.6-0.6,1.2-1,2.1-1.4c0.7-0.3,1.3-0.7,1.8-1.2c0.5-0.5,1.1-0.9,1.8-1.2c1.9-1.1,3.7-1.1,5.3-0.2
		c0.7,0.4,1.5,0.8,2.2,1c0.7,0.3,1.4,0.6,2,0.9c0.2-0.6,0.5-1.3,0.7-2c0.3-0.8,0.5-1.5,0.9-2.2c0.6-1.1,1.3-1.8,2.2-2.3
		c0.9-0.4,2-0.6,3.2-0.6c0.9,0,1.7,0,2.6,0c0.9,0,1.7,0.3,2.4,0.8c0.9,0.5,1.8,1.1,2.6,1.6c0.8,0.6,1.4,1.5,1.8,2.6
		c0.2,0.6,0.5,1.3,0.8,1.9c0.3,0.7,0.6,1.3,0.8,1.9c0.2,0.8,0.4,1.6,0.5,2.4c0.1,0.8,0.2,1.5,0.3,2.3c0.1,0.5,0.1,1,0.1,1.4
		c0,0.4,0,0.9,0.1,1.4c0,1.4,0.1,2.8,0.3,4.2c0.2,1.3,0.2,2.7,0.3,4.2c0,1,0.1,2,0.2,3c0.1,1,0.1,2,0,3c-0.3,1.6-0.5,3.1-0.6,4.7
		c-0.1,1.6-0.5,3.1-1.2,4.6c-0.4,0.9-0.6,1.9-0.7,3c-0.1,1.1-0.2,2.1-0.4,3.1c-0.1,0.1-0.1,0.2-0.1,0.3c0,0.1,0,0.2-0.1,0.3
		c-0.4,0.8-0.8,1.6-1.2,2.4c-0.4,0.8-0.8,1.5-1.3,2.3c0.6,0.5,1.2,0.9,1.8,1.4c0.6,0.5,1.2,1,1.8,1.4c1.5-0.6,3-1.7,4.4-3.3
		c1.3-1.5,2.3-3.1,3-4.8c0.7-1.7,1.4-3.4,1.9-5.2c0.4-0.9,0.9-1.9,1.4-2.9c0.6-1,1-1.9,1.4-2.9c0.2-0.6,0.5-1.5,0.9-2.8
		c0.4-1.3,0.8-2.6,1.2-4c0.4-1.4,0.8-2.7,1.2-3.9c0.3-1.2,0.6-2.2,0.8-2.9c0.1-0.1,0.2-0.3,0.3-0.5c0.1-0.2,0.2-0.3,0.3-0.3
		c0.8,0,1-0.1,0.8-0.1c-0.2-0.1,0-0.1,0.7,0.1c0.6,0.1,0.7,0.3,0.5,0.4c-0.2,0.2-0.4,0.5-0.6,1.1c-0.2,0.7-0.5,1.7-0.8,3
		c-0.3,1.3-0.7,2.7-1.1,4c-0.4,1.4-0.9,2.7-1.3,4c-0.4,1.3-0.8,2.3-1,3c-0.3,0.8-0.5,1.3-0.6,1.4c-0.1,0.1-0.2,0.5-0.5,1.1
		c-0.6,1.1-1.1,2.2-1.5,3.3c-0.4,1.1-0.9,2.3-1.5,3.4c-0.4,1.3-1,2.5-1.6,3.5c-0.6,1.1-1.4,2.1-2.4,3c-0.7,0.7-1.4,1.3-2.1,2
		c-0.8,0.7-1.5,1.2-2.3,1.7c-0.8,0.6-1.8,0.9-3.1,1.1c-0.6,0.1-1.1,0.2-1.5,0.2c-0.4,0.1-0.7,0.1-0.9,0.1c-0.2,0-0.5-0.1-0.8-0.3
		c-0.3-0.2-0.7-0.4-1.3-0.8c-1.1-0.6-2-1.3-2.7-2c-0.7-0.8-1.4-1.7-2.2-2.8c-1.6-2.4-2.6-4.9-3.2-7.6c-0.2-0.8-0.4-1.7-0.4-2.7
		c0-1-0.1-2-0.3-2.9l-0.4-2.4l-0.4-2.2C139.1,167.1,139.1,167.1,139.1,167z M136.7,145.8c-0.3,0.1-0.7,0.1-1.1,0.2
		c-0.4,0.1-0.8,0-1.2-0.1c-0.5-0.1-0.9-0.4-1.3-0.7c-0.4-0.3-0.8-0.6-1.1-0.9c-0.4-0.2-0.7-0.3-1.1-0.6c-0.4-0.2-0.8-0.3-1.3-0.2
		c-1.4,0.2-2.5,0.8-3.4,1.7c-0.9,0.9-1.7,1.9-2.4,3c-0.4,0.8-0.8,1.7-1.3,2.6c-0.5,0.9-0.9,1.8-1.3,2.8c-0.2,0.2-0.3,0.5-0.4,0.9
		c-0.1,0.3-0.2,0.7-0.2,1c-0.3,0.9-0.5,1.8-0.7,2.7c-0.2,0.9-0.4,1.7-0.6,2.6c-0.3,1.6-0.6,3.2-0.9,4.8c-0.3,1.6-0.6,3.3-0.9,5
		c-0.1,1.1-0.3,2.2-0.4,3.3c-0.1,1.1-0.2,2.3-0.3,3.5c-0.1,1.1,0,2.1,0.4,3.1c0.4,0.9,0.9,1.8,1.3,2.6c0.3,0.5,0.7,1,1.2,1.4
		c0.5,0.4,1,0.9,1.5,1.3c0.8,0.8,1.8,1.1,2.9,1.1c1.2,0,2.1-0.4,2.8-1c0.7-0.9,1.4-1.8,2.1-2.7c0.7-0.9,1.2-1.9,1.7-2.8
		c0.7-1.3,1.2-2.7,1.5-4.1c0.4-1.4,0.8-2.8,1.2-4.2c0.5-1.5,1-3,1.3-4.6c0.4-1.5,0.8-3,1.5-4.4c0.7-1.6,1.1-3.3,1.3-4.9
		c0.1-1.6,0.1-3.3-0.1-5c-0.1-1.2-0.2-2.4-0.3-3.6C137,148.2,136.8,147,136.7,145.8z"/>
	<path class="st3" d="M171.5,125.4c-0.8-0.1-1.5-0.6-2.3-1.4c-0.7-0.8-1.2-1.7-1.3-2.5c-0.1-0.9,0-1.5,0.4-2c0.4-0.5,1-0.8,1.7-1.2
		c1-0.4,2-0.8,3-1.4c0.9-0.5,2-0.9,3.1-1.2c0.8-0.2,1.7-0.3,2.7-0.2c1,0.1,2,0.2,3,0.3c0.9,0.1,1.5,0.5,1.8,1.1
		c0.3,0.7,0.6,1.3,0.8,1.9c0.2,0.5,0.3,1.1,0.2,1.7c-0.1,0.6-0.3,1.1-0.7,1.5c-0.7,0.8-1.5,1.5-2.4,2.3c-0.9,0.7-1.9,1.2-3.2,1.4
		L171.5,125.4z M206.9,151c0.4,0.3,0.4,0.6,0.1,0.9c-0.3,0.3-0.5,0.8-0.6,1.3c-0.6,1.8-1.1,3.7-1.6,5.6c-0.5,1.9-1.1,3.8-1.8,5.8
		c-0.2,0.6-0.4,1.3-0.6,2.1c-0.1,0.8-0.3,1.5-0.6,2.1c-0.8,1.8-1.6,3.5-2.4,5.2c-0.8,1.7-1.9,3.2-3.2,4.6c-0.4,0.4-0.7,1-1.1,1.7
		c-0.4,0.8-0.8,1.3-1.3,1.6c-0.8,0.4-1.6,0.7-2.4,1c-0.8,0.3-1.6,0.6-2.4,0.9c-0.9,0.4-1.9,0.6-2.8,0.7c-1,0.1-2,0-3.1-0.2
		c-1.7-0.5-3.1-1.3-4.3-2.4c-1.1-1.1-2.1-2.4-2.9-3.9c-0.3-0.8-0.7-1.6-1-2.5c-0.3-0.8-0.6-1.7-1-2.5c-0.8-1.7-1.3-3.4-1.5-5.1
		c-0.2-1.7-0.5-3.4-1-5c-0.4-1.8-0.7-3.6-0.8-5.5c-0.1-1.8-0.2-3.7-0.3-5.5c-0.1-1.1-0.2-2.1-0.3-3.2c-0.1-1-0.1-2.1-0.1-3.2
		c0-0.9-0.1-1.7-0.1-2.5c0-0.8,0-1.6,0.1-2.5c0.1-0.3,0.1-0.7,0-1c-0.1-0.3,0-0.7,0-1c0.2-3,1.6-4.7,4.4-5.1
		c0.8-0.1,1.8-0.1,2.7,0.1c1,0.2,1.9,0.4,2.8,0.6c1.4,0.3,2.5,1,3.3,1.9c0.9,0.9,1.7,1.8,2.6,2.6c0.4,0.5,0.7,1.1,0.8,1.8
		c0.1,0.7,0.3,1.4,0.5,2l0.8,1.8c0.2,0.5,0.3,1.1,0.4,1.7c0.1,0.6,0.2,1.2,0.3,1.7c0.2,1.3,0.4,2.6,0.5,3.9c0.2,1.3,0.3,2.6,0.4,3.9
		c0.1,0.9,0.2,1.7,0.3,2.5c0.1,0.8,0.1,1.7,0.2,2.5l0.3,1.8c-0.2,2.1-0.2,4.2-0.1,6.4c0.1,2.1,0.3,4.3,0.5,6.4
		c0.1,0.3,0.1,0.6,0.2,0.9c0.1,0.3,0.1,0.6-0.1,0.8c-0.2,0.2-0.4,0.6-0.6,1c-0.2,0.4-0.5,0.7-0.8,0.7c-0.6,0.2-1,0.5-1.1,1
		c-0.1,0.5-0.2,1-0.3,1.5c0.5-0.3,0.9-0.6,1.3-0.8c0.3-0.2,0.8-0.4,1.3-0.6c1.3-0.4,2.4-1.2,3.1-2.2c0.7-1,1.4-2.1,2.1-3.1
		c2.2-3.2,3.9-6.6,5.2-10c1.3-3.5,2.6-7.1,3.8-10.8c0.1-0.5,0.2-0.9,0.3-1.3c0-0.4,0.1-0.9,0.3-1.4c0.5,0.1,0.7,0.2,0.7,0
		C206.3,150.7,206.5,150.8,206.9,151z M193.9,181.9C193.6,182.1,193.6,182,193.9,181.9C194.2,181.6,194.2,181.6,193.9,181.9z"/>
	<path class="st3" d="M223,172.8c0.3-0.4,0.5-0.7,0.7-1.1c0.2-0.4,0.5-0.7,0.7-1.1c1.6-3.3,3.2-6.5,4.8-9.4c1.5-2.9,3-6.1,4.2-9.6
		c0.1-0.6,0.4-1.4,0.7-2.5c0.4-1.1,0.6-1.9,0.7-2.5c0.1-0.5,0.2-0.9,0.2-1.3c0-0.4,0.1-0.8,0.2-1.3c0.2-0.7,0.4-1.4,0.6-2.1
		c0.2-0.7,0.4-1.4,0.6-2.1c0.1-0.2,0.2-0.4,0.4-0.4c0.2,0,0.4-0.1,0.6-0.1c0.9,0.1,1.2,0.2,1,0.3c-0.2,0.1-0.5,0.6-0.7,1.4
		c-0.1,0.6-0.2,1.1-0.1,1.6c0.1,0.5,0.1,1-0.1,1.6c-0.1,0.6-0.3,1.1-0.4,1.7c-0.1,0.6-0.3,1.1-0.5,1.7c-0.8,2-1.5,3.9-2.3,5.8
		c-0.7,1.9-1.5,3.8-2.4,5.7c-0.8,1.7-1.5,3.4-2,5.3c-0.5,1.8-1.2,3.6-2,5.3c-0.7,1.2-1.3,2.4-1.8,3.6c-0.5,1.2-1.1,2.3-1.8,3.4
		c-0.8,1.2-1.7,2.2-2.8,2.9c-1.1,0.7-2.4,1-4.1,0.8c-0.6-0.1-1.1-0.2-1.7-0.2c-0.5,0-1.1-0.1-1.7-0.2c-1.7-0.3-3.1-0.9-4.2-1.9
		c-1.1-1-2.2-2-3.3-3.2c-1.1-1.3-1.8-2.6-2.3-4c-0.4-1.4-0.8-2.9-1-4.4c-0.3-2.3-0.6-4.5-0.9-6.8c-0.4-2.3-0.7-4.6-0.9-6.8
		c-0.2-1.8-0.4-3.7-0.6-5.5c-0.2-1.8-0.4-3.7-0.5-5.5c-0.2-1.2-0.3-2.3-0.3-3.2c0-1,0-2.1-0.1-3.3c-0.1-0.6-0.2-1.9-0.4-3.7
		c-0.2-1.8-0.4-3.8-0.6-6c-0.2-2.2-0.4-4.2-0.6-6c-0.2-1.8-0.3-3.1-0.4-3.7c-0.1-1.3-0.2-2.6-0.3-3.9c-0.1-1.3-0.2-2.7-0.3-4.1
		c-0.1-1.2-0.2-2.3-0.4-3.4c-0.2-1.1-0.2-2.2-0.2-3.4c0-1.4,0-2.8,0-4.2c0-1.4,0-2.8,0-4.2c0-1.5,0.7-2.5,2.3-3
		c1.1-0.3,2.2-0.4,3.3-0.4c1,0.1,2.2,0.2,3.4,0.4c0.9,0.1,1.6,0.3,2.2,0.7c0.6,0.4,1.3,0.7,1.9,0.9c0.9,0.4,1.7,1,2.3,1.7
		c0.6,0.7,1.1,1.5,1.6,2.3c0.6,0.9,0.9,1.8,1,2.7c0.1,0.9,0.2,1.9,0.2,2.8c0.2,1.2,0.3,2.3,0.5,3.4c0.1,1.1,0.2,2.2,0.3,3.2
		c0,1.4,0.1,2.8,0.2,4.1c0.1,1.3,0.2,2.6,0.3,3.9c0.1,0.3,0.2,1.3,0.3,2.9c0.1,1.6,0.3,3.4,0.5,5.3c0.2,1.9,0.4,3.6,0.6,5.3
		c0.2,1.6,0.3,2.6,0.4,2.9c0.1,0.7,0.2,1.5,0.2,2.2c0,0.7,0,1.5,0.1,2.4c0,1,0.1,2,0.3,2.9c0.2,1,0.2,1.9,0.1,2.9
		c-0.1,1.6,0.1,3,0.5,4.5c0.4,1.4,0.6,2.9,0.6,4.4c0,1.2,0,2.4,0.2,3.7c0.1,1.2,0.3,2.5,0.3,3.6c0,0.6,0.1,1,0.2,1.4
		c0.2,0.4,0.3,0.9,0.4,1.4c0.3,1.8,0.5,3.6,0.8,5.3c0.2,1.7,0.5,3.5,0.8,5.3l0.1,0.6c0.1,0,0.2,0,0.2,0.1
		C222.9,172.8,222.9,172.8,223,172.8z"/>
</g>
<g class="st2">
	<path class="st3" d="M233.7,158.3l0.1-5.4c-0.1-0.4-0.1-0.8-0.1-1.2c0-0.4,0-0.8,0-1.4c0.1-0.2,0.1-0.5,0.2-0.7
		c0.1-0.2,0.1-0.5,0.2-0.7c0-1.2,0.1-2.3,0.3-3.3c0.2-1,0.4-2,0.6-3.1c0.4-2,1.1-4.2,1.9-6.4c0.2-0.6,0.5-1.2,0.8-1.8
		c0.3-0.6,0.5-1.3,0.8-1.8c0.2-0.4,0.3-0.7,0.5-1.1c0.2-0.4,0.3-0.7,0.5-0.9c0.3-0.4,0.5-0.8,0.7-1.2c0.2-0.4,0.4-0.8,0.7-1
		c0.5-0.8,1-1.7,1.5-2.5c0.5-0.8,1.1-1.5,1.8-2.2c0.4-0.6,0.9-1.1,1.5-1.5c0.5-0.4,1-0.7,1.5-1.1c0.4-0.3,0.7-0.5,0.8-0.8
		c0.4-0.7,1-1.3,1.6-1.7c0.6-0.4,1.3-0.7,2-1.1c0.5-0.3,1-0.5,1.5-0.7c0.5-0.2,1.2-0.2,1.9-0.1c0.5,0,1.1,0,1.5,0
		c0.5,0,1,0.1,1.6,0.3c1.3,0.7,2.2,1.5,2.8,2.5c0.2,0.5,0.6,1.2,1.1,2c0.3,0.5,0.6,0.9,0.9,1.2c0.3,0.3,0.6,0.7,0.9,1.2
		c0,0.1,0.1,0.2,0.1,0.3c0.1,0.1,0.1,0.2,0.1,0.3c0,0.6,0,1.1,0,1.7c0,0.6,0,1.2-0.1,1.7c0.1,0.7,0.1,1.5-0.1,2.2
		c0,0.1,0,0.2-0.1,0.3c-0.1,0.1-0.2,0.3-0.2,0.5c-0.2,0.4-0.3,0.7-0.4,1.1c-0.1,0.3-0.2,0.7-0.4,1.1c-0.2,0.6-0.4,1.2-0.6,1.7
		c-0.2,0.6-0.4,1.2-0.6,1.7l-0.4,0.6c-0.8,0.6-1.2,1-1.4,1.4c-1.1,2.5-2.6,4.7-4.3,6.6c-0.7,0.9-1.5,1.7-2.3,2.5s-1.5,1.6-2.3,2.5
		c-0.7,0.7-1.3,1.3-2,1.8c-0.7,0.5-1.3,1.1-2,1.8c-0.7,0.4-1,1.3-1.1,2.5c-0.2,1-0.3,2.1-0.4,3.2c-0.1,1.1-0.2,2.2-0.2,3.3
		c-0.1,0.9-0.1,1.7-0.1,2.6c0,0.8-0.1,1.6-0.4,2.5c0,0.1,0.1,0.2,0.1,0.3c0.1,0.1,0.1,0.2,0.1,0.3c0.9,0.7,1.8,1.4,2.6,1.9
		c0.9,0.5,2,0.7,3.3,0.6c0.9,0,1.7-0.2,2.5-0.4c0.8-0.2,1.6-0.5,2.4-0.9c0.8-0.2,1.6-0.6,2.3-1.2c0.7-0.6,1.4-1.2,2.1-1.8
		c0.7-0.8,1.5-1.5,2.3-2.2c0.8-0.7,1.6-1.5,2.3-2.3c1.1-1.2,2.1-2.4,3.1-3.6c0.9-1.2,1.7-2.6,2.3-4.2c0.5-1.1,1-2.1,1.6-3.2
		c0.6-1.1,1.1-2.2,1.6-3.2c0.8-1.9,1.5-3.8,2.3-5.6c0.7-1.9,1.5-3.8,2.3-5.8c0.2-0.6,0.5-1.2,0.7-1.8c0.2-0.6,0.5-1.2,0.7-1.8
		c0.3-0.4,0.6-0.5,0.9-0.3c0.5,0.1,0.8,0.5,1,1c0.2,0.5,0.2,1.1,0.1,1.6c-0.1,0.9-0.4,1.6-0.9,2.1c-0.5,0.5-1,1.1-1.4,1.9
		c-0.4,0.6-0.6,1.4-0.5,2.2c-0.1,0.7-0.2,1.3-0.4,1.9l-0.6,2.6c-0.1,0.6-0.3,0.9-0.6,1.1c-0.4,0.6-0.8,1.2-1.2,1.8
		c-0.3,0.5-0.6,1.3-0.6,2.2c-0.1,0.3-0.2,0.7-0.3,1c-0.2,0.3-0.3,0.6-0.5,1c-0.4,1-0.8,2.1-1.3,3.1c-0.5,1-1.1,2-1.8,2.8
		c-0.4,0.5-0.6,1-0.8,1.4c-0.2,0.5-0.4,1-0.5,1.6c-0.4,1-0.8,2-1.3,2.9c-0.5,0.9-1.1,1.7-1.9,2.4c-0.5,0.4-0.9,0.8-1.4,1.1
		c-0.4,0.3-0.9,0.7-1.4,1.1c-0.4,0.3-0.7,0.6-1,0.9c-0.3,0.3-0.6,0.6-1,0.9c-0.5,0.3-0.9,0.5-1.4,0.7c-0.4,0.2-0.9,0.4-1.3,0.7
		c-0.8,0.4-1.4,0.5-1.7,0.6c-0.5,0.2-1,0.3-1.4,0.4c-0.4,0.1-0.9,0.2-1.4,0.4c-1.4,0.4-2.8,0.6-4.2,0.5c-1.4-0.1-2.8-0.3-4.2-0.6
		c-1.2-0.3-2.4-0.9-3.5-1.7c-1.1-0.8-2.1-1.6-3.2-2.5c-0.9-0.7-1.7-1.6-2.5-2.7c-0.9-1.3-1.6-2.6-2.3-4c-0.7-1.4-1.1-2.8-1.3-4.3
		C233.8,158.4,233.8,158.4,233.7,158.3z M258.4,125.7c-0.2,0.2-0.4,0.4-0.6,0.6c-0.2,0.1-0.4,0.3-0.6,0.6c-0.5,0.4-0.9,0.8-1.4,1.2
		c-0.4,0.4-0.9,0.8-1.4,1.2c-0.2,0.2-0.4,0.4-0.6,0.5c-0.2,0.1-0.3,0.2-0.4,0.5c-0.4,0.9-0.8,1.8-1.1,2.6c-0.4,0.8-0.7,1.7-1.2,2.5
		c-0.2,0.4-0.2,0.7-0.3,0.9c0,0.3-0.1,0.5-0.3,0.8c-0.1,0.6-0.3,1.1-0.6,1.5c-0.3,0.4-0.5,0.9-0.6,1.5c-0.1,0.6-0.2,1.2-0.3,1.8
		c-0.1,0.6-0.2,1.2-0.3,1.8c-0.5,1.8-0.9,3.8-1.2,5.9l0.6-0.4c0.8-0.7,1.5-1.3,2.2-2c0.7-0.7,1.4-1.4,2-2.1c0.9-1,1.8-2.1,2.7-3.2
		c0.9-1.1,1.7-2.3,2.5-3.5c1-1.4,1.6-2.8,2-4.4c0.3-1.6,0.6-3.2,0.9-4.9c0.1-0.5,0.2-0.9,0.1-1.3c-0.1-0.4-0.1-0.8-0.1-1.4
		C259.8,126.8,259,126.6,258.4,125.7z"/>
</g>
<g class="st2">
	<path class="st3" d="M296.9,156.1c0.3-0.6,0.7-1.1,1-1.6c0.3-0.5,0.6-1,1-1.5c0.9-1.3,1.7-2.6,2.6-3.9c0.8-1.2,1.6-2.5,2.4-3.8
		c0.7-1,1.3-2,1.7-3.1c0.4-1.1,0.9-2.2,1.3-3.4c0.3-0.6,0.6-1.2,0.9-1.8c0.2-0.6,0.5-1.2,0.7-1.9c0.4-1.4,0.7-2.8,0.8-4.4
		c0.2-2,0.9-3.7,2.1-4.9c1.2-1.3,2.9-1.7,5-1.1c0.5,0.1,0.9,0.4,1.3,0.8c0.4,0.4,0.7,0.8,1,1.3c0.5,1,0.9,2,1.3,3.1
		c0.4,1,0.8,2.1,1.1,3.1c0.1,0.6,0.3,1.2,0.7,1.5c0.7,0.9,1.1,1.8,1.2,2.9c0.1,1,0.3,2,0.6,3c0.3,1.2,0.5,2.3,0.5,3.5
		c0,1.1,0.1,2.3,0.2,3.5c0.1,1.1,0.1,2.1,0.2,3.1c0,1,0.1,2,0.2,3.1c0,0.1,0.1,0.3,0.4,0.4c1.2-1.4,2.3-2.7,3.4-4
		c1.1-1.3,2.2-2.6,3.3-4c0.7-1,1.5-2,2.2-2.9c0.8-0.9,1.5-1.9,2.2-2.9l0.8-1.1c0.4-0.5,0.6-0.8,0.8-1c0.3,0.3,0.5,0.5,0.8,0.6
		c0.3,0.1,0.4,0.5,0.4,1c0,0.6-0.1,1.1-0.3,1.5c-0.2,0.5-0.4,0.9-0.5,1.4c-1.6,3.3-3.6,6.4-5.9,9.2c-0.8,1-1.6,2-2.5,2.9
		c-0.8,1-1.6,1.9-2.5,2.9c-0.3,0.4-0.6,0.7-0.9,1.1c-0.3,0.4-0.6,0.8-0.7,1.3c-0.3,0.4-0.4,0.8-0.5,1.2c-0.1,0.5-0.2,0.9-0.4,1.4
		c-0.2,0.9-0.3,1.9-0.4,2.9c-0.1,1-0.2,2-0.3,3c-0.1,0.9-0.1,1.8-0.2,2.8c-0.1,1-0.1,1.9-0.2,2.8c-0.1,2.1-0.4,4.1-0.8,6.1
		c-0.5,1.9-1.4,3.7-2.8,5.2c-1.5,2-2.6,4.2-3.2,6.8c-0.2,0.9-0.4,1.8-0.7,2.6c-0.3,0.8-0.3,1.7-0.1,2.6c0.1,0.5,0,1.1-0.3,1.7
		c-0.3,0.6-0.6,1.1-1,1.6c-0.6,0.8-1.3,1.5-1.9,2.4c-0.6,0.8-1,1.8-1.2,2.9c0,0.1,0,0.2-0.1,0.2c-0.4,0.6-0.9,1.3-1.5,2
		c-0.5,0.7-1,1.3-1.5,2c-0.4,0.4-0.7,0.7-1.1,1.1c-0.3,0.3-0.7,0.6-1.1,0.9c-0.8,0.5-1.6,0.6-2.3,0.5c-0.7-0.1-1.4-0.3-2.1-0.6
		c-2.6-1.1-4.4-2.7-5.5-4.7c-1.1-2-1.7-4.2-1.9-6.6c-0.1-2.6,0.2-5,1-7.1c0.3-0.8,0.7-1.6,1.1-2.2c0.4-0.7,1-1.2,1.8-1.7
		c0.2-0.1,0.3-0.3,0.3-0.5c0-0.2,0.1-0.4,0.3-0.5c1.1-1.2,2.1-2.4,3-3.8c0.9-1.3,1.7-2.7,2.6-4c0.7-1.1,1.4-2.2,2.1-3.4
		c0.7-1.2,1.5-2.4,2.3-3.6c0.4-0.5,0.7-0.9,1-1.1c0.8-0.7,1.1-1.4,1-2.3c-0.1-0.9-0.1-1.7-0.2-2.6c-0.1-1.7-0.1-3.5-0.2-5.2
		c-0.1-1.7-0.1-3.5-0.2-5.4c-0.1-0.5-0.2-1.1-0.2-1.8c-0.1-0.6-0.1-1.2-0.2-1.8c0-0.9-0.1-1.7-0.3-2.6c-0.1-0.9-0.2-1.7-0.3-2.6
		c0-0.6,0-1.1-0.1-1.6c-0.1-0.5-0.1-1.1-0.1-1.6c-0.1,0-0.2,0-0.2-0.1c0-0.1-0.1-0.1-0.2-0.1c-0.4,0.7-0.8,1.4-1.2,2.1
		c-0.4,0.7-0.8,1.4-1.2,2.1c-0.4,0.8-0.9,1.7-1.4,2.5c-0.5,0.9-1,1.7-1.4,2.7c-0.7,1.3-1.4,2.6-2.1,3.8c-0.7,1.2-1.5,2.4-2.3,3.7
		c-1,1.5-2,2.8-3.2,4c-1.2,1.2-2.6,2.1-4.4,2.8c-1.5,0.4-2.8,0.5-4,0.1s-2.4-0.9-3.6-1.7c-0.1-0.1-0.2-0.2-0.2-0.5
		c-0.4-0.8-0.7-1.7-1.1-2.6c-0.4-0.9-0.6-1.8-0.7-2.7c-0.1-0.5-0.2-1-0.4-1.5c-0.2-0.5-0.3-1-0.4-1.5c-0.1-1.5-0.3-3.1-0.4-4.6
		c-0.1-1.6-0.3-3.1-0.6-4.6c-0.2-1.2-0.4-2.4-0.7-3.7c-0.3-1.3-0.5-2.5-0.7-3.7c-0.1-0.9-0.2-1.7-0.2-2.7c0-0.9,0-1.9-0.1-2.9
		c0-0.6,0-1.2,0-1.8c-0.1-0.7-0.1-1.2,0-1.8c0-1.3,0-2.6-0.1-3.9c-0.1-1.3-0.2-2.6-0.3-3.9c0-1.1,0-2.1-0.2-3.1s-0.4-1.9-0.8-2.8
		c-0.5,0.2-1,0.4-1.4,0.5c-0.4,0.2-0.9,0.3-1.4,0.2c-0.4,0.1-0.8,0-1.3-0.3c-0.4-0.3-0.9-0.5-1.3-0.6c-0.4-0.3-0.4-0.6-0.2-1
		c0.4-1.5,1-2.8,1.9-3.8c0.9-1.1,2.1-1.8,3.6-2.3c0.8-0.2,1.7-0.4,2.6-0.3c0.9,0,1.9,0.2,2.9,0.6c1.8,0.6,3.3,1.5,4.4,2.8
		c1.1,1.3,2,2.6,2.8,4.2c0.3,0.8,0.8,1.6,1.4,2.4c0.6,0.8,1.1,1.6,1.5,2.4c0.6,1.3,1.2,2.8,1.7,4.5c0.2,0.8,0.4,1.7,0.5,2.5
		c0.1,0.8,0.2,1.6,0.5,2.5c0.5,1.8,0.9,3.5,1.1,5.2c0.3,1.7,0.3,3.4,0.2,5.2c-0.1,0.6-0.1,1.1,0,1.7c0.1,0.6,0.2,1.1,0.2,1.7
		c0.2,1.1-0.2,2-1.2,2.8c-0.3,0.3-0.4,0.7-0.3,1.2c0,0.9,0.1,1.8,0.3,2.7C296.6,154.2,296.8,155.1,296.9,156.1z M311.7,179.2
		c-0.4,0.6-0.8,1.1-1.2,1.6c-0.4,0.4-0.8,1-1.2,1.6l-4.4,6.1c-0.2,0.4-0.3,0.7-0.6,1.1c-0.2,0.4-0.5,0.6-0.9,0.8
		c-0.4,0.3-0.7,0.6-0.8,0.9c-0.2,0.3-0.3,0.6-0.5,0.8c-0.2,0.4-0.3,0.7-0.3,1c-0.1,0.3-0.2,0.6-0.3,1c-0.2,0.6-0.4,1.1-0.6,1.6
		c-0.1,0.5-0.3,0.9-0.6,1.4c-1.7,3.2-1.6,6.4,0.1,9.5c0.3,0.5,0.5,1.1,0.8,1.7c0.2,0.6,0.6,1.2,1.2,1.6c1,0.7,1.8,0.9,2.5,0.4
		c0.7-0.4,1.3-0.9,2-1.5c0.6-0.5,1.3-1.1,1.9-1.8c0.1,0,0.1-0.2,0.1-0.5c0.6-2,1.1-3.9,1.6-5.8c0.5-1.9,1-3.9,1.4-6
		c0.4-1.7,0.6-3.5,0.6-5.4c0.1-0.9,0.1-1.8,0-2.8c-0.1-1-0.2-2-0.2-3.1c0-0.7,0-1.3-0.2-2C311.8,180.7,311.7,180,311.7,179.2z"/>
	<path class="st3" d="M330.2,86c-1.1-3.3-1.8-6.8-2.2-10.3c-0.4-3.5-1.2-7.2-2.4-11.2l1.1-0.2c0.9-1,2.2-1.6,3.8-1.6
		c1.6,0,3.2,0.3,4.7,0.9c1.5,0.6,2.9,1.5,4.1,2.7c1.2,1.2,1.9,2.5,2.2,3.9c-0.2,2.3-0.4,4.5-0.7,6.4c-0.3,1.9-0.5,4.1-0.7,6.5
		l-1.1,1.5c-1.5,0.8-2.9,1.3-4.2,1.5S332.1,86.2,330.2,86z"/>
	<path class="st3" d="M413.8,120.8c0.4,0.2,0.4,0.4,0.1,0.6c-0.3,0.3-0.5,0.6-0.6,1.1c-0.6,1.6-1.2,3.2-1.7,4.8
		c-0.5,1.6-1.2,3.2-2,4.8c-0.2,0.6-0.4,1.2-0.5,1.7c-0.1,0.6-0.4,1.2-0.7,1.8c-0.7,1.4-1.6,2.9-2.5,4.3c-0.9,1.4-2,2.7-3.4,3.9
		c-0.4,0.4-0.8,0.9-1.1,1.5c-0.4,0.6-0.8,1.1-1.3,1.4c-0.8,0.4-1.6,0.6-2.4,0.9c-0.8,0.2-1.6,0.5-2.4,0.9c-1.3,0.4-2.7,0.6-4,0.6
		c-0.4,0.3-0.7,0.6-1,0.8c-0.3,0.3-0.6,0.5-1,0.8c-0.4,0.3-1.1,0.6-2.1,1c-0.1,0-0.6,0.2-1.5,0.6c-0.9,0.4-1.8,0.7-2.9,1
		c-1.1,0.3-2.1,0.7-3.2,1.1c-1,0.4-1.8,0.6-2.2,0.7c-0.5,0.2-0.9,0.4-1.3,0.5c-0.4,0.2-0.8,0.1-1.4-0.3l-0.3,0.1
		c-1,0.5-2,0.5-2.9,0.1c-0.9-0.4-1.8-0.7-2.7-0.9c-0.2-0.1-0.4-0.2-0.5-0.2c-0.1-0.1-0.3-0.1-0.5-0.1c-0.5,0-1-0.2-1.4-0.4
		c-0.4-0.3-0.7-0.6-1-1c-0.3-0.3-0.2-0.7,0.1-1.3c0.3-0.6,0.7-0.8,1.2-0.5c0.9,0.4,1.8,0.8,2.7,1.1c0.9,0.3,1.8,0.4,2.7,0.4
		c0.3,0.1,0.9,0.1,1.8,0.2c1.2-0.1,2.1-0.4,2.8-1c0.7-0.6,1.2-1.3,1.6-2c0.1-0.5,0.4-0.7,0.7-0.8c1.5-0.9,2.6-2,3.2-3.2
		c0.7-1.3,1.2-2.6,1.6-4.1c0.2-0.7,0.4-1.4,0.6-2.1c0.2-0.7,0.2-1.5,0.1-2.2c-0.2-1.5-0.5-3-0.9-4.5c-0.4-1.5-1-3-2-4.5
		c-1.3-1.9-2.8-3.7-4.6-5.5c-0.7-0.7-1.4-1.3-2.3-1.8c-0.9-0.5-1.7-1.1-2.5-1.7c-1-0.8-2.1-1.6-3.2-2.3c-1.1-0.7-2.2-1.4-3.2-2.1
		c-0.1,0-0.6-0.3-1.5-0.9l-1.5-1.1c-1.4-1.1-2.5-2.2-3.4-3.2c-0.9-1.1-1.8-2.3-2.6-3.9c-1.4-2.4-1.7-4.8-1.2-7.2
		c0.1-0.6,0.4-1.1,0.7-1.5c0.4-0.4,0.7-0.9,1.1-1.4c0.3-0.4,0.6-0.7,1-1.1c0.4-0.3,0.7-0.7,1-1.1c1.1-1.4,2.7-2.4,4.7-3.1
		c2.1-0.7,4.2-0.3,6.5,1.1c0.2,0.2,0.6,0.5,1,0.9c0.4,0.4,0.7,0.9,0.9,1.3c0.2,0.5,0.4,0.8,0.3,1.2c0,0.3-0.2,0.5-0.6,0.6
		c-0.4,0.1-0.7,0.5-0.8,1.3c-0.1,0.8-0.2,1.5-0.3,2.3c-0.1,0.7-0.3,1.4-0.5,2.1c-0.1,0.5-0.4,0.9-0.6,1.2c-0.3,0.3-0.5,0.7-0.7,1
		c-0.5,1.1-0.6,1.9-0.2,2.5c0.3,0.6,1.1,1.4,2.3,2.4c1.4,1.2,2.9,2.2,4.5,3c1.6,0.8,3.3,1.6,5,2.6c1.5,0.6,2.9,1.4,4.3,2.2
		c1.3,0.8,2.7,1.7,4,2.7c0.7,0.5,1.4,1.1,2.1,1.6c0.7,0.5,1.3,1.1,2,1.7c0.6,0.5,1.2,0.9,1.7,1.3c0.5,0.4,1.1,0.8,1.7,1.3
		c1,0.7,1.7,1.5,2.1,2.5c0.4,0.9,0.8,1.8,1.2,2.8c0.3,0.5,0.5,0.9,0.7,1.3c0.2,0.4,0.3,0.8,0.4,1.3c0.3,1.5,0.3,2.9,0,4.1
		c-0.3,1.3-0.8,2.4-1.3,3.4c-0.5,1-1.2,1.9-1.9,2.7c-0.7,0.8-1.2,1.4-1.6,1.9l-0.8,1.1l1.4-0.7c1.3-0.4,2.4-1.1,3.1-1.9
		c0.7-0.8,1.5-1.7,2.2-2.6c2.4-2.7,4.3-5.5,5.6-8.5c1.4-3,2.7-6,3.9-9.1c0.2-0.2,0.3-0.5,0.3-0.9c0.1-0.3,0.1-0.8,0.3-1.4
		c0.5,0.1,0.7,0.2,0.7,0C413.2,120.5,413.4,120.5,413.8,120.8z"/>
</g>
<g class="st2">
	<path class="st3" d="M123.3,231.6c1.4-0.5,2.8-0.9,3.9-1.4c1.2-0.5,2.4-0.7,3.5-0.8c3.6-0.5,7.2,0.1,10.8,1.6
		c2.1,0.7,3.4,2.1,4.1,4.3c0.6,1.8,1.2,3.5,1.9,5.2c0.7,1.7,1.3,3.4,2,5.2c0.5,1.6,1,3.1,1.5,4.7c0.5,1.6,1.1,3.2,1.8,4.8
		c0.2-0.9,0.4-1.9,0.5-2.9c0.2-1,0.4-2,0.7-2.9c1.3-4.5,2.8-8.9,4.5-13.2c1.6-4.3,4.1-8.2,7.5-11.7c1.6-1.7,3.2-3.3,4.8-4.8
		c1.6-1.5,3.3-3,5-4.5c1.7-1.4,3.4-2,4.8-1.8c1.5,0.2,3.1,1,4.9,2.5c2.4,1.8,3.8,4,4.4,6.5c0.6,2.5,0.8,5.1,0.8,7.8
		c0,1.3,0,2.6,0.1,3.8c0.1,1.2,0.1,2.5,0.1,3.7c-0.1,1.4-0.2,2.9-0.3,4.4c-0.1,1.5-0.3,2.9-0.8,4.3c-0.5,1.7-1.1,3.4-1.8,5.1
		c-0.7,1.7-1.4,3.4-2.1,5l0,0.2c0,0.1,0,0.2,0,0.3c0,0.1,0,0.2,0,0.4c0.7-0.1,1.4-0.2,2.1-0.3c0.6-0.1,1.3-0.1,1.9-0.1
		c1.9-0.1,3.9-0.2,5.9-0.3c2-0.1,4,0,6,0.2c0.9,0.1,1.7,0.4,2.4,0.8c0.7,0.5,1.5,0.9,2.2,1.4c1.1,0.8,2.2,1.7,3.3,2.6
		c1.1,0.9,2.1,1.9,3.1,2.8c0.2,0.2,0.4,0.4,0.6,0.6c0.1,0.3,0.3,0.5,0.6,0.6l16.9-7.1c0,0.2,0.1,0.4,0.2,0.5c-0.4,0.8-1,1.5-1.7,2.1
		c-0.7,0.6-1.5,1.1-2.3,1.5c-1.9,1.2-3.7,2.4-5.5,3.6c-1.8,1.2-3.7,2.4-5.7,3.6c1.6,2.3,2.4,4.5,2.6,6.8c0.2,2.3,0.1,4.6-0.3,7
		c-0.1,1.1-0.2,2.2-0.3,3.2c-0.1,1-0.2,2.1-0.3,3.2c-0.1,1.4-0.2,2.9-0.3,4.2c-0.1,1.4-0.5,2.8-1.1,4.2c-0.7,1.3-1.1,2.7-1.5,4.1
		c-0.3,1.4-0.8,2.8-1.4,4.3c-1.3,2.7-2.8,5.5-4.4,8.4c-0.9,1.7-1.9,3.3-2.8,4.9c-0.9,1.6-1.9,3.2-2.8,4.7c-1,1.5-1.9,3-2.9,4.5
		c-1,1.5-2,3-3.1,4.4c-0.6,0.9-1.3,1.7-1.9,2.4c-0.6,0.7-1.4,1.4-2.1,2.1c-0.8,0.7-1.6,1.2-2.6,1.6c-1,0.4-1.9,0.9-2.8,1.5
		c-0.1,0.1-0.2,0.2-0.3,0.1c-0.1,0-0.2,0-0.3,0.1c-3.8,2.8-7.7,2.7-11.6-0.3c-0.4-0.3-0.8-0.5-1.2-0.8c-0.4-0.3-0.8-0.6-1.2-1
		c-1-1-1.7-2.2-1.9-3.5c-0.3-1.3-0.5-2.5-0.8-3.7c-0.5-1.6-0.8-3.2-0.9-4.9c-0.2-1.7-0.1-3.4,0.2-5c0.4-2.7,1.1-5.3,2-7.9
		c1.7-4.4,3.7-8.6,6.1-12.5c2.4-3.9,5-7.7,7.9-11.3c0.9-1,1.9-2.1,2.8-3.1c1-1,2-2,3-3c0.8-0.7,1.2-1.4,1.4-2.2
		c0.1-0.8,0.3-1.6,0.3-2.5c-0.1-2.2-0.5-4.2-1.2-6.2c-0.6-2-1.7-3.8-3.1-5.4c-1.1-1.3-2.4-1.8-3.9-1.7c-1.1,0.1-2.1,0.1-3.2,0.1
		c-1,0-2.1,0-3.2,0.1c-0.5,0.1-1.1,0.2-1.7,0.3c-0.6,0.1-1.1,0.4-1.6,0.7c-1.3,1-2.5,1.9-3.6,2.9c-1.2,1-2.4,1.9-3.6,2.9
		c-0.8,0.7-1.6,1.2-2.5,1.6c-0.9,0.4-1.8,0.9-2.7,1.3c-1,0.5-1.4,1.2-1.3,2.2c0.3,1.9,0.6,3.8,0.9,5.8c0.3,1.9,0.6,3.9,0.8,5.8
		c0.1,0.5,0.1,1.1,0,1.6c-0.1,0.5-0.1,1-0.2,1.6c0,1.3,0,2.6,0,4c0,1.3-0.1,2.6-0.2,4c-0.1,1.6-0.9,2.9-2.6,4.2
		c-1.3,0.8-2.5,1.4-3.7,2.1c-1.2,0.6-2.5,1.2-4,1.6c-1.1,0.3-2.2,0.8-3.2,1.6c-1,0.8-2.1,1.5-3.1,2.2c-0.2,0.1-0.4,0.3-0.7,0.5
		c-0.3,0.2-0.5,0.4-0.7,0.5c-1.1,0.4-1.9,0.5-2.2,0.3c-0.3-0.2-0.5-0.9-0.6-2.1c-0.3-2.3-0.5-4.5-0.7-6.8s-0.5-4.5-0.8-6.8
		c-0.1-1.3-0.3-2.6-0.6-3.9c-0.3-1.3-0.6-2.5-0.9-3.8c-0.1-0.9-0.2-1.7-0.3-2.6c-0.1-0.9-0.2-1.7-0.3-2.6l-1.4-12.1
		c-0.4-2.2-0.7-4.5-1.2-6.7c-0.4-2.2-0.7-4.5-1-6.8c-0.4-4.1-0.8-8.2-1.2-12.3c-0.4-4.1-0.8-8.2-1.2-12.3c-0.1-1.8-0.9-3-2.5-3.4
		c-0.5-0.1-0.9-0.1-1.3,0c-0.8,0.4-1.6,0.5-2.5,0.4C125.5,232.9,124.5,232.4,123.3,231.6z M154.2,260.9c0.3,0.8,0.7,1.7,1.1,2.6
		c0.4,0.9,0.8,1.8,1.2,2.6c0.1,0.2,0.5,0.3,1,0.3c0.5,0,0.8-0.1,1-0.3c2.5-1.7,5.1-3.6,7.6-5.5c0.8-0.7,1.5-1.4,2.3-2.1
		c0.8-0.7,1.5-1.5,2.2-2.4c0.7-0.7,1.2-1.4,1.8-2.2c0.5-0.8,1.1-1.6,1.7-2.3c1.3-1.6,2.4-3.3,3.5-4.9c1.1-1.7,2.1-3.4,3-5.3
		c1.1-2.5,1.9-5,2.2-7.5c0.4-2.5,0.6-5.2,0.7-7.9c0-1.6-0.2-3.2-0.6-4.6c-0.3-1.4-1-2.8-2-4.2c-0.3-0.4-0.5-0.7-0.8-0.9
		c-0.2-0.2-0.6-0.1-1.1,0.3c-1.5,1.1-2.9,2.2-4.4,3.2c-1.5,1-2.9,2.1-4.2,3.3c-3.6,3.2-6.4,6.8-8.2,10.7c-0.7,1.2-1.2,2.4-1.6,3.7
		c-0.4,1.3-0.9,2.5-1.6,3.6c-1.8,3.1-3.1,6.3-4,9.5C154.1,253.8,153.8,257.2,154.2,260.9z M193.7,291l-0.3-0.1c-1,1-1.9,2.1-2.7,3.2
		c-1.3,2.1-2.7,4.2-4.1,6.2c-1.4,2.1-2.7,4.2-3.9,6.2c-1.2,1.9-2.2,3.9-3,6c-0.8,2-1.4,4.2-1.8,6.5c-0.3,1.6-0.5,3.2-0.8,4.8
		c-0.2,1.6-0.7,3.2-1.5,4.6c-0.5,1-0.8,2-1,3.1c-0.2,1.1-0.8,2-1.8,2.7c-0.1,0-0.1,0.2-0.1,0.4c0,0.3,0.1,0.4,0.2,0.5
		c0.6,0.1,1.1,0.3,1.7,0.5c0.6,0.2,1.1,0,1.7-0.5c0.8-0.7,1.5-1.3,2.3-1.9c0.8-0.6,1.6-1.2,2.5-1.8c1.1-0.6,1.9-1.4,2.5-2.4
		c0.6-1,1.1-1.9,1.6-2.9c0.8-1.6,1.6-3.2,2.2-4.9c0.6-1.7,1.3-3.4,1.9-5c0.9-2.1,1.6-4.3,2.2-6.4c0.6-2.2,1-4.4,1.2-6.8
		c0.1-1.3,0.2-2.6,0.4-3.9c0.1-1.3,0.2-2.6,0.4-3.9c0.1-0.8,0.1-1.5,0.1-2.2C193.6,292.5,193.6,291.7,193.7,291z"/>
	<path class="st3" d="M253,271.6c-0.1,0.6-0.3,1.1-0.5,1.7c-0.2,0.6-0.4,1.2-0.5,1.7c-0.4,1.6-0.8,3.1-1.1,4.6
		c-0.4,1.5-0.8,3-1.3,4.5c-0.4,1-0.7,2.1-1,3.1c-0.3,1-0.7,2-1.3,3c-0.4,0.7-0.9,1.4-1.6,2c-0.6,0.6-1.4,1-2.5,1.1
		c-0.5,0.1-1,0.3-1.4,0.6c-0.4,0.3-0.9,0.6-1.4,0.6c-4.2,0.7-7.8-0.7-10.8-4.2c-3.2-3.7-4.7-7.9-4.5-12.6c0-1.5,0.1-3.1,0.4-4.7
		c0.3-1.6,0.5-3.2,0.7-4.7c0.2-0.9,0.3-1.8,0.5-2.5c0.1-0.8,0.3-1.6,0.5-2.5c0.1-0.6,0.3-1.1,0.4-1.5c0.2-0.4,0.3-0.8,0.4-1.3
		c0.5-1.7,1-3.3,1.7-4.7c0.1-0.5,0.4-0.8,0.6-1.2c0.3-0.3,0.5-0.7,0.7-1c0.6-0.9,1.2-1.7,1.7-2.5c0.5-0.8,1.1-1.6,1.7-2.3
		c0.6-0.6,1.1-1.2,1.7-1.8c0.6-0.6,1.2-1,2.1-1.4c0.7-0.3,1.3-0.7,1.8-1.2c0.5-0.5,1.1-0.9,1.8-1.2c1.9-1.1,3.7-1.1,5.3-0.2
		c0.7,0.4,1.5,0.8,2.2,1c0.7,0.3,1.4,0.6,2,0.9c0.2-0.6,0.5-1.3,0.7-2c0.3-0.8,0.5-1.5,0.9-2.2c0.6-1.1,1.3-1.8,2.2-2.3
		c0.9-0.4,2-0.6,3.2-0.6c0.9,0,1.7,0,2.6,0c0.9,0,1.7,0.3,2.4,0.8c0.9,0.5,1.8,1.1,2.6,1.6c0.8,0.6,1.4,1.5,1.8,2.6
		c0.2,0.6,0.5,1.3,0.8,1.9c0.3,0.7,0.6,1.3,0.8,1.9c0.2,0.8,0.4,1.6,0.5,2.4c0.1,0.8,0.2,1.5,0.3,2.3c0.1,0.5,0.1,1,0.1,1.4
		c0,0.4,0,0.9,0.1,1.4c0,1.4,0.1,2.8,0.3,4.2c0.2,1.3,0.2,2.7,0.3,4.2c0,1,0.1,2,0.2,3c0.1,1,0.1,2,0,3c-0.3,1.6-0.5,3.1-0.6,4.7
		c-0.1,1.5-0.5,3.1-1.2,4.6c-0.4,0.9-0.6,1.9-0.7,3c-0.1,1.1-0.2,2.1-0.4,3.1c-0.1,0.1-0.1,0.2-0.1,0.3c0,0.1,0,0.2-0.1,0.3
		c-0.4,0.8-0.8,1.6-1.2,2.4c-0.4,0.8-0.8,1.5-1.3,2.3c0.6,0.5,1.2,0.9,1.8,1.4c0.6,0.5,1.2,1,1.8,1.4c1.5-0.6,3-1.7,4.4-3.3
		c1.3-1.5,2.3-3.1,3-4.8c0.7-1.7,1.4-3.4,1.9-5.2c0.4-0.9,0.9-1.9,1.4-2.9c0.6-1,1-1.9,1.4-2.9c0.2-0.6,0.5-1.5,0.9-2.8
		c0.4-1.3,0.8-2.6,1.2-4c0.4-1.4,0.8-2.7,1.2-3.9c0.3-1.2,0.6-2.2,0.8-2.9c0.1-0.1,0.2-0.3,0.3-0.5c0.1-0.2,0.2-0.3,0.3-0.3
		c0.8,0,1-0.1,0.8-0.1c-0.2-0.1,0-0.1,0.7,0.1c0.6,0.1,0.7,0.3,0.5,0.4c-0.2,0.1-0.4,0.5-0.6,1.1c-0.2,0.7-0.5,1.7-0.8,3
		c-0.3,1.3-0.7,2.7-1.1,4c-0.4,1.4-0.9,2.7-1.3,4c-0.4,1.3-0.8,2.3-1,3c-0.3,0.8-0.5,1.3-0.6,1.4c-0.1,0.1-0.2,0.5-0.5,1.1
		c-0.6,1.1-1.1,2.2-1.5,3.3c-0.4,1.1-0.9,2.3-1.5,3.4c-0.4,1.3-1,2.5-1.6,3.5c-0.6,1.1-1.4,2.1-2.4,3c-0.7,0.7-1.4,1.3-2.1,2
		c-0.8,0.7-1.5,1.2-2.3,1.7c-0.8,0.6-1.8,0.9-3.1,1.1c-0.6,0.1-1.1,0.2-1.5,0.2c-0.4,0.1-0.7,0.1-0.9,0.1c-0.2,0-0.5-0.1-0.8-0.3
		c-0.3-0.2-0.7-0.4-1.3-0.8c-1.1-0.6-2-1.3-2.7-2c-0.7-0.8-1.4-1.7-2.2-2.8c-1.6-2.4-2.6-4.9-3.2-7.6c-0.2-0.8-0.4-1.7-0.4-2.7
		c0-1-0.1-2-0.3-2.9l-0.4-2.4l-0.4-2.2C253.1,271.8,253,271.7,253,271.6z M250.6,250.5c-0.3,0.1-0.7,0.1-1.1,0.2
		c-0.4,0.1-0.8,0-1.2-0.1c-0.5-0.1-0.9-0.4-1.3-0.7c-0.4-0.3-0.8-0.6-1.1-0.9c-0.4-0.2-0.7-0.3-1.1-0.6c-0.4-0.2-0.8-0.3-1.3-0.2
		c-1.4,0.2-2.5,0.8-3.4,1.7c-0.9,0.9-1.7,1.9-2.4,3c-0.4,0.8-0.8,1.7-1.3,2.6c-0.5,0.9-0.9,1.8-1.3,2.8c-0.2,0.2-0.3,0.5-0.4,0.9
		c-0.1,0.3-0.2,0.7-0.2,1c-0.3,0.9-0.5,1.8-0.7,2.7c-0.2,0.9-0.4,1.7-0.6,2.6c-0.3,1.6-0.6,3.2-0.9,4.8c-0.3,1.6-0.6,3.3-0.9,5
		c-0.1,1.1-0.3,2.2-0.4,3.3c-0.1,1.1-0.2,2.3-0.3,3.5c-0.1,1.1,0,2.1,0.4,3.1c0.4,0.9,0.9,1.8,1.3,2.6c0.3,0.5,0.7,1,1.2,1.4
		c0.5,0.4,1,0.9,1.5,1.3c0.8,0.8,1.8,1.1,2.9,1.1c1.2,0,2.1-0.4,2.8-1c0.7-0.9,1.4-1.8,2.1-2.7c0.7-0.9,1.2-1.9,1.7-2.8
		c0.7-1.3,1.2-2.7,1.5-4.1c0.4-1.4,0.8-2.8,1.2-4.2c0.5-1.5,1-3,1.3-4.6c0.4-1.5,0.8-3,1.5-4.4c0.7-1.6,1.1-3.3,1.3-4.9
		c0.1-1.6,0.1-3.3-0.1-5c-0.1-1.2-0.2-2.4-0.3-3.6C250.9,252.8,250.8,251.6,250.6,250.5z"/>
</g>
<g class="st2">
	<path class="st3" d="M312.6,256.5c0.6,0.1,1.1,0.2,1.7,0.2c0.5,0,1.1,0.1,1.7,0.2c1.5,0.3,2.8,0.8,4,1.4c1.2,0.6,2.2,1.6,3.1,2.9
		c0.6,0.8,1.1,1.6,1.7,2.4c0.6,0.8,1,1.7,1.4,2.7c0.9,2.3,1.5,4.3,1.8,6.1c0.1,0.5,0.1,1.1-0.1,1.7c-0.1,0.6-0.2,1.2-0.4,1.9
		c0.3,0.4,0.5,0.8,0.8,1.4c0.2,0.5,0.5,1.1,0.8,1.7c0.4,0.6,1,0.7,1.8,0.2c1.7-1.4,3.1-2.8,4-4.3c0.5-1,1.1-1.9,1.7-2.7
		c0.6-0.9,1.2-1.8,1.7-2.7c1.2-2.1,2.2-4.2,2.9-6.6c0.8-2.3,1.4-4.7,1.9-7c0.3-1.1,0.5-2.2,0.7-3.2c0.2-1,0.4-2.1,0.5-3.2
		c0.1-1.1,0.3-2.2,0.4-3.3c0.1-1.1,0.2-2.2,0.2-3.3c0-0.6,0-1,0-1.5c0-0.4,0-0.9,0.2-1.3c0-0.2,0.1-0.5,0.4-0.7
		c0,0.1,0.1,0.2,0.2,0.1c0.1,0.1,0.2,0.1,0.3,0.1c1,0.6,1.4,1.4,1.3,2.3c-0.1,0.9,0.1,1.9,0.6,2.9c0.5,1.2,0.7,2.6,0.6,4
		c-0.6,3.3-1.2,6.3-2,9c-0.7,2.6-1.5,5.2-2.5,7.7c-1,2.5-2.4,4.8-4.1,7c-0.9,1.1-1.8,2.2-2.8,3.3c-1,1.1-2,2.2-3,3.2
		c-0.5,0.5-1,1-1.5,1.5c-0.5,0.5-1.1,1-1.6,1.6c-0.5,0.4-0.9,0.6-1.4,0.7c-1.2,0-2-0.2-2.5-0.6c-0.5-0.4-1.2-0.9-2.2-1.6
		c-1-0.7-1.9-1.4-2.9-2.1c-0.9-0.7-1.9-1.4-2.9-2.1c-1-0.9-1.9-1.9-2.6-3c-0.7-1.1-1.5-2-2.4-2.7c-0.9-0.7-1.9-1.4-3.1-2
		c-1.3-0.7-2.6-1.6-3.8-2.7c-0.7-0.5-1.5-0.8-2.4-0.8c-0.5,0.1-1.1,0.1-1.7,0c-0.6-0.1-1.2-0.2-1.9-0.3c-1-0.2-1.4,0.2-1.3,1
		c0,0.9-0.1,1.7-0.5,2.4c-0.4,0.7-0.8,1.4-1.2,2c-0.4,0.5-0.6,1-0.7,1.5c-0.1,0.5-0.2,1-0.3,1.6c-0.2,0.7-0.4,1.4-0.5,2.2
		c-0.1,0.8-0.3,1.5-0.6,2.1c-0.1,0.5-0.4,0.9-0.7,1.2c-0.3,0.3-0.6,0.7-0.9,1.2c-0.3,0.3-0.5,0.6-0.6,1c-0.1,0.4-0.2,0.7-0.4,1
		c0.1,0.2,0.3,0.4,0.6,0.6c0.2,0.2,0.4,0.4,0.4,0.6c0,0.2,0,0.5-0.1,0.8c-0.1,0.3-0.3,0.6-0.4,0.9c-0.3,0.6-0.7,1.2-1,1.9
		c-0.3,0.7-0.7,1.3-1,2c-0.1,0-0.1,0.1-0.1,0.3c0.3,0.9-0.1,1.5-1,1.6c-1.2,0.2-1.9-0.2-2.3-1.3c-0.3-1.4-0.7-2.7-1-4
		c-0.4-1.3-0.7-2.7-0.9-4.1c-0.2-1.4-0.4-2.8-0.5-4.1c-0.1-1.4-0.2-2.7-0.2-4c0-1.3-0.1-2.6-0.2-3.8c-0.1-1.2-0.3-2.4-0.5-3.5
		c-0.2-1.2-0.3-2.3-0.5-3.4c-0.1-1.1-0.2-2.2-0.3-3.4c-0.1-0.9-0.3-1.7-0.3-2.7c-0.1-0.9-0.2-1.8-0.2-2.7l-0.4-5.9
		c-0.2-1.8-0.4-3.6-0.5-5.3c-0.2-1.7-0.3-3.5-0.5-5.3c0-0.6,0-1-0.2-1.5c-0.1-0.4-0.2-0.9-0.2-1.5c0-0.9-0.1-1.7-0.2-2.5
		c-0.1-0.8-0.2-1.6-0.3-2.5c0-1-0.2-1.9-0.4-2.9c-0.2-1-0.4-1.9-0.5-2.7l-2.6-16.2c0-0.8-0.1-1.5-0.2-2.2c-0.1-0.7-0.2-1.4-0.2-2.2
		c-0.1-0.5-0.1-1.1-0.1-1.7c0-0.6,0-1.2,0-1.9c0-0.8-0.1-1.5-0.1-2.2c-0.1-0.7-0.1-1.5,0-2.4c0.1-1.5,0.6-3,1.6-4.4
		c0.2-0.2,0.4-0.4,0.7-0.4c0.3,0,0.5-0.1,0.7-0.3c1.5-0.7,3.3-0.9,5.3-0.7c0.6,0.1,1.1,0.2,1.7,0.2c0.6,0,1.1,0.1,1.6,0.4
		c0.6,0.5,1.2,0.8,1.9,1.2c0.6,0.3,1.2,0.9,1.6,1.5c1.1,1.5,1.7,3,1.9,4.5c0,0.8,0,1.5,0,2.1c0,0.7,0,1.4,0,2.1
		c-0.1,0.3,0,0.8,0.1,1.5c0,0.6,0,1,0.1,1.5c0.1,0.4,0.1,0.9,0.2,1.4c0,0.6,0.1,1.4,0.2,2.4c0.1,0.3,0.2,1.1,0.4,2.4
		c0.2,1.3,0.5,2.7,0.7,4.2c0.3,1.5,0.5,2.8,0.7,4.1c0.2,1.2,0.3,2,0.4,2.3c0.1,0.6,0.2,1.3,0.4,1.9c0.2,0.6,0.3,1.2,0.5,1.7l0.6,3.8
		l0.1,0.6c0.1,0.5,0.2,1.1,0.3,1.7c0.1,0.6,0.3,1.1,0.3,1.7l0.4,2.7c0.5-0.4,0.9-0.8,1.4-1.2s0.9-0.8,1.4-1.2
		c0.5-0.6,1.1-1.2,1.6-1.7c0.5-0.5,1.1-1.1,1.8-1.6c0.5-0.3,1-0.6,1.5-0.9c0.5-0.3,1-0.6,1.5-0.9c0.1,0,0.2-0.1,0.3-0.1
		c0.1-0.1,0.2-0.1,0.3-0.1c1.7-1,3.4-1.8,5.1-2.3c1.7-0.5,3.5-0.5,5.4,0c1.7,0.4,3.3,1,4.8,1.7c1.5,0.8,2.8,1.8,3.8,3.2
		c0.5,0.7,0.9,1.4,1.1,2.1c0.2,0.7,0.3,1.5,0.4,2.2c0.2,1.1,0.2,2.1,0.2,3.1c-0.1,1-0.3,2-0.7,2.9c-0.4,0.8-0.9,1.6-1.3,2.4
		c-0.5,0.8-0.9,1.7-1.3,2.6c-0.2,0.2-0.3,0.5-0.3,0.7c0,0.2-0.1,0.5-0.3,0.7c-0.7,1.5-1.7,2.8-3,3.8c-1.3,1-2.6,2-3.9,3.1
		c-1.1,0.7-2.2,1.2-3.4,1.4c-1.2,0.2-2.3,0.5-3.5,0.8C313.1,256.3,312.8,256.4,312.6,256.5z M299.1,260.3c0.2-0.2,0.3-0.4,0.4-0.4
		c0.1,0,0.2-0.1,0.3-0.2c0.8-0.7,1.5-1.3,2.4-2c0.8-0.7,1.6-1.4,2.4-2c0.8-0.7,1.4-1.3,2-2c0.6-0.6,1-1.4,1.3-2.4
		c0.1-0.6,0.3-1.1,0.5-1.6c0.2-0.5,0.4-1,0.6-1.6l1.8-3.8c0.4-0.8,0.7-1.7,0.9-2.5c0.2-0.9,0.5-1.6,0.9-2.4c0.7-1.2,1.1-2.4,1.3-3.7
		c0.2-1.2,0.3-2.5,0.3-3.7c0.1-0.5,0.1-0.8-0.2-1c-0.3-0.2-0.7-0.2-1.1-0.1c-0.8,0.4-1.4,0.6-1.7,0.8c-1.1,0.7-2.1,1.4-3.2,2.2
		c-1,0.7-2.1,1.4-3.2,2.1c-0.8,0.7-1.4,1.4-2,2.1c-0.6,0.7-1.2,1.4-1.7,2c-0.5,0.5-0.8,1.3-1.1,2.3c0,0.6,0,1.1,0.2,1.5
		c0.1,0.5,0.2,1,0.2,1.5c-0.1,1.6-0.2,3-0.3,4.5c-0.2,1.5-0.3,3-0.3,4.5c-0.1,0.9-0.2,1.8-0.3,2.7
		C299.3,258.2,299.2,259.2,299.1,260.3z"/>
</g>
<g class="st2">
	<path class="st3" d="M340.7,264l0.1-5.4c-0.1-0.4-0.1-0.8-0.1-1.2c0-0.4,0-0.8,0-1.4c0.1-0.2,0.1-0.5,0.2-0.7
		c0.1-0.2,0.1-0.5,0.2-0.7c0-1.2,0.1-2.3,0.3-3.3s0.4-2,0.6-3.1c0.4-2,1.1-4.2,1.9-6.4c0.2-0.6,0.5-1.2,0.8-1.8
		c0.3-0.6,0.5-1.3,0.8-1.8c0.2-0.4,0.3-0.7,0.5-1.1c0.2-0.4,0.3-0.7,0.5-0.9c0.3-0.4,0.5-0.8,0.7-1.2c0.2-0.4,0.4-0.8,0.7-1
		c0.5-0.8,1-1.7,1.5-2.5c0.5-0.8,1.1-1.5,1.8-2.2c0.4-0.6,0.9-1.1,1.5-1.5c0.5-0.4,1-0.7,1.5-1.1c0.4-0.3,0.7-0.5,0.8-0.8
		c0.4-0.7,1-1.3,1.6-1.7c0.6-0.4,1.3-0.7,2-1.1c0.5-0.3,1-0.5,1.5-0.7c0.5-0.2,1.2-0.2,1.9-0.1c0.5,0,1.1,0,1.5,0
		c0.5,0,1,0.1,1.6,0.3c1.3,0.7,2.2,1.5,2.8,2.5c0.2,0.5,0.6,1.2,1.1,2c0.3,0.5,0.6,0.9,0.9,1.2c0.3,0.3,0.6,0.7,0.9,1.2
		c0,0.1,0.1,0.2,0.1,0.3c0.1,0.1,0.1,0.2,0.1,0.3c0,0.6,0,1.1,0,1.7c0,0.6,0,1.2-0.1,1.7c0.1,0.7,0.1,1.5-0.1,2.2
		c0,0.1,0,0.2-0.1,0.3c-0.1,0.1-0.2,0.3-0.2,0.5c-0.2,0.4-0.3,0.7-0.4,1.1c-0.1,0.3-0.2,0.7-0.4,1.1c-0.2,0.6-0.4,1.2-0.6,1.7
		c-0.2,0.6-0.4,1.2-0.6,1.7l-0.4,0.6c-0.8,0.6-1.2,1-1.4,1.4c-1.1,2.5-2.6,4.7-4.3,6.6c-0.7,0.9-1.5,1.7-2.3,2.5
		c-0.8,0.8-1.5,1.6-2.3,2.5c-0.7,0.7-1.3,1.3-2,1.8c-0.7,0.5-1.3,1.1-2,1.8c-0.7,0.4-1,1.3-1.1,2.5c-0.2,1-0.3,2.1-0.4,3.2
		s-0.2,2.2-0.2,3.3c-0.1,0.9-0.1,1.7-0.1,2.6s-0.1,1.6-0.4,2.5c0,0.1,0.1,0.2,0.1,0.3c0.1,0.1,0.1,0.2,0.1,0.3
		c0.9,0.7,1.8,1.4,2.6,1.9c0.9,0.5,2,0.7,3.3,0.6c0.9,0,1.7-0.2,2.5-0.4c0.8-0.2,1.6-0.5,2.4-0.9c0.8-0.2,1.6-0.6,2.3-1.2
		c0.7-0.6,1.4-1.2,2.1-1.8c0.7-0.8,1.5-1.5,2.3-2.2c0.8-0.7,1.6-1.5,2.3-2.3c1.1-1.2,2.1-2.4,3.1-3.6c0.9-1.2,1.7-2.6,2.3-4.2
		c0.5-1.1,1-2.1,1.6-3.2c0.6-1.1,1.1-2.2,1.6-3.2c0.8-1.9,1.5-3.8,2.3-5.6c0.7-1.9,1.5-3.8,2.3-5.8c0.2-0.6,0.5-1.2,0.7-1.8
		c0.2-0.6,0.5-1.2,0.7-1.8c0.3-0.4,0.6-0.5,0.9-0.3c0.5,0.1,0.8,0.5,1,1c0.2,0.5,0.2,1.1,0.1,1.6c-0.1,0.9-0.4,1.6-0.9,2.1
		c-0.5,0.5-1,1.1-1.4,1.9c-0.4,0.6-0.6,1.4-0.5,2.2c-0.1,0.7-0.2,1.3-0.4,1.9l-0.6,2.6c-0.1,0.6-0.3,0.9-0.6,1.1
		c-0.4,0.6-0.8,1.2-1.2,1.8c-0.3,0.5-0.6,1.3-0.6,2.2c-0.1,0.3-0.2,0.7-0.3,1c-0.2,0.3-0.3,0.6-0.5,1c-0.4,1-0.8,2.1-1.3,3.1
		c-0.5,1-1.1,2-1.8,2.8c-0.4,0.5-0.6,1-0.8,1.4c-0.2,0.5-0.4,1-0.5,1.6c-0.4,1-0.8,2-1.3,2.9s-1.1,1.7-1.9,2.4
		c-0.5,0.4-0.9,0.8-1.4,1.1c-0.4,0.3-0.9,0.7-1.4,1.1c-0.4,0.3-0.7,0.6-1,0.9c-0.3,0.3-0.6,0.6-1,0.9c-0.5,0.3-0.9,0.5-1.4,0.7
		c-0.4,0.2-0.9,0.4-1.3,0.7c-0.8,0.4-1.4,0.5-1.7,0.6c-0.5,0.2-1,0.3-1.4,0.4c-0.4,0.1-0.9,0.2-1.4,0.4c-1.4,0.4-2.8,0.6-4.2,0.5
		c-1.4-0.1-2.8-0.3-4.2-0.6c-1.2-0.3-2.4-0.9-3.5-1.7c-1.1-0.8-2.1-1.6-3.2-2.5c-0.9-0.7-1.7-1.6-2.5-2.7c-0.9-1.3-1.6-2.6-2.3-4
		c-0.7-1.4-1.1-2.8-1.3-4.3C340.8,264.2,340.7,264.1,340.7,264z M365.4,231.5c-0.2,0.2-0.4,0.4-0.6,0.6c-0.2,0.1-0.4,0.3-0.6,0.6
		c-0.5,0.4-0.9,0.8-1.4,1.2c-0.4,0.4-0.9,0.8-1.4,1.2c-0.2,0.2-0.4,0.4-0.6,0.5c-0.2,0.1-0.3,0.2-0.4,0.5c-0.4,0.9-0.8,1.8-1.1,2.6
		c-0.4,0.8-0.7,1.7-1.1,2.5c-0.2,0.4-0.2,0.7-0.3,0.9c0,0.3-0.1,0.5-0.3,0.8c-0.1,0.6-0.3,1.1-0.6,1.5c-0.3,0.4-0.5,0.9-0.6,1.5
		c-0.1,0.6-0.2,1.2-0.3,1.8c-0.1,0.6-0.2,1.2-0.3,1.8c-0.5,1.8-0.9,3.8-1.2,5.9l0.6-0.4c0.8-0.7,1.5-1.3,2.2-2
		c0.7-0.7,1.4-1.4,2-2.1c0.9-1,1.8-2.1,2.7-3.2c0.9-1.1,1.7-2.3,2.5-3.5c1-1.4,1.6-2.8,2-4.4c0.3-1.6,0.7-3.2,0.9-4.9
		c0.1-0.5,0.2-0.9,0.1-1.3c-0.1-0.4-0.1-0.8-0.1-1.4C366.7,232.6,365.9,232.4,365.4,231.5z"/>
</g>
<g class="st2">
	<path class="st3" d="M414.4,266.9l0.1,0.3c0.3,1.2,0.6,1.8,1,2c0.4,0.2,1.1-0.1,2.2-0.8c1.9-1.2,3.6-2.9,5.2-5.1
		c0.4-0.6,0.9-1.2,1.5-1.8c0.6-0.6,1.1-1.2,1.5-1.8c0.7-1.2,1.4-2.5,2.1-3.8c0.7-1.3,1.4-2.6,2.1-3.9c0.9-2.2,1.9-4.5,2.8-6.7
		c0.9-2.2,1.9-4.5,2.8-6.7c0.1-0.5,0.3-0.9,0.4-1.3c0.1-0.4,0.2-0.8,0.4-1.3l0.3,0.1c0,0.2,0,0.4,0,0.6c0,0.2,0,0.4,0,0.6
		c0.1,0.9,0.2,1.5,0.1,2c0.1,0.9,0.2,1.5,0.1,1.8c-0.3,1.1-0.5,2.2-0.7,3.3c-0.2,1.1-0.5,2.1-0.9,3.2c-0.4,1.2-0.8,2.3-1.2,3.4
		c-0.4,1.1-1,2.2-1.9,3.2c-0.4,0.6-0.8,1.3-1.1,2.1c-0.3,0.8-0.7,1.6-1.1,2.4c-1.5,3.1-3.6,5.9-6.3,8.4c-0.5,0.4-0.9,0.8-1.3,1.3
		c-0.4,0.5-0.9,0.9-1.3,1.3c-1.9,1.7-3.9,2.5-6,2.3c-0.6-0.1-1.1-0.3-1.6-0.6c-0.5-0.2-1.1-0.5-1.7-0.9c-4.9-2.2-8.1-6-9.7-11.6
		c-0.4-1.2-0.7-2.5-0.9-3.8c-0.2-1.3-0.4-2.6-0.6-4c-0.1-1.3-0.2-2.6-0.3-4c-0.1-1.4-0.2-2.7-0.2-4c0.1-1,0.1-2,0-3c0-1,0-1.9,0-2.8
		c0.1-0.3,0.1-0.7,0.1-1.1c0-0.4,0-0.7,0.1-1.1c0.2-0.9-0.1-1.5-0.9-1.7c-0.6-0.1-1.1-0.2-1.5-0.3c-0.4,0-0.9-0.1-1.5-0.3
		c-0.6-0.1-1.1-0.3-1.7-0.5c-0.6-0.2-1.2-0.5-1.8-0.9c-0.2-0.1-0.5-0.3-0.9-0.7c-0.4-0.4-0.7-0.7-0.9-0.8c0,0.6-0.2,1.4-0.4,2.5
		c-0.3,1.1-0.5,1.9-0.6,2.3c-0.1,0.7-0.3,1.6-0.5,2.7c-0.3,1.1-0.6,2.3-0.9,3.5c-0.4,1.2-0.7,2.4-1.1,3.5c-0.4,1.1-0.7,1.9-0.9,2.4
		c-0.2,0.5-0.5,1-0.6,1.6c-0.2,0.6-0.4,1-0.5,1.4c-0.2,0.2-0.3,0.5-0.3,0.7c0,0.2-0.1,0.4-0.3,0.4c-0.3,0.2-0.5,0.3-0.7,0.5
		c-0.2,0.2-0.5,0.2-0.8,0c-0.1-0.1-0.1-0.4,0.2-1c0.2-0.6,0.4-1,0.5-1.2c0.5-2.4,1-4.4,1.6-6c0.6-1.6,1.2-3.6,1.6-6
		c0.1-1.1,0.3-2.5,0.5-4.3c0.2-1.7,0.5-3.2,0.9-4.3c0.1-0.5-0.1-0.8-0.7-1.1c-0.6-0.3-1.1-0.6-1.5-1c-0.8-1-1.4-2.1-1.8-3.3
		c-0.4-1.4-0.8-2.7-1.1-4.1c-0.3-1.4-0.6-2.8-0.7-4.2c-0.3-1.8-0.3-3.7,0-5.5c0.3-1.9,0.9-3.6,1.7-5.3c0.4-0.9,0.9-1.8,1.5-2.5
		c0.6-0.8,1.3-1.5,1.9-2.3c0.4-0.5,1-0.8,1.8-0.9c2.8-0.4,4.5,0.7,5.1,3.5c0.3,1.3,0.6,2.6,0.9,3.9c0.3,1.3,0.4,2.7,0.4,4
		c0,1.2-0.1,2.4-0.3,3.6c-0.2,1.2-0.4,2.4-0.6,3.6c-0.1,1.1-0.4,2.2-0.7,3.2c-0.3,1-0.6,2.1-0.7,3.1c0,0.4,0.1,0.9,0.5,1.3
		c0.3,0.4,0.7,0.9,1,1.4c0.2,0.3,0.3,0.6,0.5,0.8c0.2,0.2,0.4,0.5,0.7,0.8c0.4,0.5,0.8,0.6,1.2,0.5c0.4-0.2,0.8-0.3,1.2-0.4
		c0.5-0.2,1-0.4,1.4-0.5c0.4-0.2,0.9-0.4,1.4-0.7c0.4-0.3,0.7-0.6,1.1-1c0.3-0.4,0.7-0.8,1-1.2c1.7-1.5,3.6-2.5,5.5-3.2l0.3-0.1
		c1,0.3,2.1,0.5,3.1,0.7c1.1,0.2,2,0.5,2.9,1c1.2,0.7,2.2,1.5,3.2,2.5c0.9,1,1.6,2.2,2,3.6c0.2,0.5,0.3,1,0.3,1.4c0,0.4,0,0.8,0,1.2
		c-0.2,2.2-0.7,4.3-1.5,6.2c-0.7,1.7-1.3,3.4-1.6,5.2c-0.2,0.9-0.5,1.8-1.1,2.6c-0.5,0.8-1,1.6-1.6,2.5c-0.4,0.8-0.6,1.6-0.5,2.2
		c0.1,0.9,0.3,1.7,0.4,2.6c0.1,0.9,0.3,1.8,0.6,2.6c0.1,0.5,0.2,1,0.2,1.4c0.1,0.4-0.1,0.9-0.4,1.5c-0.4,0.8-0.3,1.6,0.2,2.4
		c0.7,1,1,2.1,0.8,3.4C416.6,265.1,415.8,266.1,414.4,266.9z M391.9,203.5c-0.1,1.2-0.3,2.3-0.4,3.4c-0.2,1-0.3,2-0.3,3
		c-0.1,1-0.1,2,0,3c0.1,1,0.3,2.1,0.7,3.1c0.3-0.7,0.6-1.7,0.9-2.9c0.3-1.3,0.5-2.5,0.5-3.8c0.1-1.3,0-2.5-0.2-3.6
		C392.8,204.6,392.4,203.9,391.9,203.5z"/>
</g>
<g class="st2">
	<path class="st3" d="M453.3,254c0.3-0.6,0.7-1.1,1-1.6c0.3-0.5,0.6-1,1-1.5c0.9-1.3,1.7-2.6,2.6-3.9c0.8-1.2,1.6-2.5,2.4-3.8
		c0.7-1,1.3-2,1.7-3.1c0.4-1.1,0.9-2.2,1.3-3.4c0.3-0.6,0.6-1.2,0.9-1.8c0.2-0.6,0.5-1.2,0.7-1.9c0.4-1.4,0.7-2.8,0.8-4.4
		c0.2-2,0.9-3.7,2.1-4.9c1.2-1.3,2.9-1.7,5-1.1c0.5,0.1,0.9,0.4,1.3,0.8c0.4,0.4,0.7,0.8,1,1.3c0.5,1,0.9,2,1.3,3.1
		c0.4,1,0.8,2.1,1.1,3.1c0.1,0.6,0.3,1.2,0.7,1.5c0.7,0.9,1.1,1.8,1.2,2.9c0.1,1,0.3,2,0.6,3c0.3,1.2,0.5,2.3,0.5,3.5
		c0,1.1,0.1,2.3,0.2,3.5c0.1,1.1,0.1,2.1,0.2,3.1c0,1,0.1,2,0.2,3.1c0,0.1,0.1,0.3,0.4,0.4c1.2-1.4,2.3-2.7,3.4-4
		c1.1-1.3,2.2-2.6,3.3-4c0.7-1,1.5-2,2.2-2.9c0.8-0.9,1.5-1.9,2.2-2.9l0.8-1.1c0.4-0.5,0.6-0.8,0.8-1c0.3,0.3,0.5,0.5,0.8,0.6
		c0.3,0.1,0.4,0.5,0.4,1c0,0.6-0.1,1.1-0.3,1.5c-0.2,0.5-0.4,0.9-0.5,1.4c-1.6,3.3-3.6,6.4-5.9,9.2c-0.8,1-1.6,2-2.5,2.9
		c-0.8,1-1.6,1.9-2.5,2.9c-0.3,0.4-0.6,0.7-0.9,1.1c-0.3,0.4-0.6,0.8-0.7,1.3c-0.3,0.4-0.4,0.8-0.5,1.2c-0.1,0.5-0.2,0.9-0.4,1.4
		c-0.2,0.9-0.3,1.9-0.4,2.9c-0.1,1-0.2,2-0.3,3c-0.1,0.9-0.1,1.8-0.2,2.8c-0.1,1-0.1,1.9-0.2,2.8c-0.1,2.1-0.4,4.1-0.8,6.1
		c-0.5,1.9-1.4,3.7-2.8,5.2c-1.5,2-2.6,4.2-3.2,6.8c-0.2,0.9-0.4,1.8-0.7,2.6c-0.3,0.8-0.3,1.7-0.1,2.6c0.1,0.5,0,1.1-0.3,1.7
		c-0.3,0.6-0.6,1.1-1,1.6c-0.6,0.8-1.3,1.5-1.9,2.4c-0.6,0.8-1,1.8-1.2,2.9c0,0.1,0,0.2-0.1,0.2c-0.4,0.6-0.9,1.3-1.5,2
		c-0.5,0.7-1,1.3-1.5,2c-0.4,0.4-0.7,0.7-1,1.1c-0.3,0.3-0.7,0.6-1.1,0.9c-0.8,0.5-1.6,0.6-2.3,0.5c-0.7-0.1-1.4-0.3-2.1-0.6
		c-2.6-1.1-4.4-2.7-5.5-4.7c-1.1-2-1.7-4.2-1.9-6.6c-0.1-2.6,0.2-5,1-7.1c0.3-0.8,0.7-1.6,1.1-2.2c0.4-0.7,1-1.2,1.8-1.7
		c0.2-0.1,0.3-0.3,0.3-0.5c0-0.2,0.1-0.4,0.3-0.5c1.1-1.2,2.1-2.4,3-3.8c0.9-1.3,1.7-2.7,2.6-4c0.7-1.1,1.4-2.2,2.1-3.4
		c0.7-1.2,1.5-2.4,2.3-3.6c0.4-0.5,0.7-0.9,1-1.1c0.8-0.7,1.1-1.4,1-2.3c-0.1-0.9-0.1-1.7-0.2-2.6c-0.1-1.7-0.1-3.5-0.2-5.2
		c-0.1-1.7-0.1-3.5-0.2-5.4c-0.1-0.5-0.2-1.1-0.2-1.8c-0.1-0.6-0.1-1.2-0.2-1.8c0-0.9-0.1-1.7-0.2-2.6c-0.1-0.9-0.2-1.7-0.3-2.6
		c0-0.6,0-1.1-0.1-1.6c-0.1-0.5-0.1-1.1-0.1-1.6c-0.1,0-0.2,0-0.2-0.1c0-0.1-0.1-0.1-0.2-0.1c-0.4,0.7-0.8,1.4-1.2,2.1
		c-0.4,0.7-0.8,1.4-1.2,2.1c-0.4,0.8-0.9,1.7-1.4,2.5c-0.5,0.9-1,1.7-1.4,2.7c-0.7,1.3-1.4,2.6-2.1,3.8c-0.7,1.2-1.5,2.4-2.3,3.7
		c-1,1.5-2,2.8-3.2,4c-1.2,1.2-2.6,2.1-4.4,2.8c-1.5,0.4-2.8,0.5-4,0.1c-1.2-0.4-2.4-0.9-3.6-1.7c-0.1-0.1-0.2-0.2-0.2-0.5
		c-0.4-0.8-0.7-1.7-1.2-2.6c-0.4-0.9-0.6-1.8-0.7-2.7c-0.1-0.5-0.2-1-0.4-1.5c-0.2-0.5-0.3-1-0.4-1.5c-0.1-1.5-0.3-3.1-0.4-4.6
		c-0.1-1.6-0.3-3.1-0.6-4.6c-0.2-1.2-0.4-2.4-0.7-3.7c-0.3-1.3-0.5-2.5-0.7-3.7c-0.1-0.9-0.2-1.7-0.2-2.7c0-0.9,0-1.9-0.1-2.9
		c0-0.6,0-1.2,0-1.8c-0.1-0.7-0.1-1.2,0-1.8c0-1.3,0-2.6-0.1-3.9c-0.1-1.3-0.2-2.6-0.3-3.9c0-1.1,0-2.1-0.2-3.1
		c-0.2-1-0.4-1.9-0.8-2.8c-0.5,0.2-1,0.4-1.4,0.5c-0.4,0.2-0.9,0.3-1.4,0.2c-0.4,0.1-0.8,0-1.3-0.3c-0.4-0.3-0.9-0.5-1.3-0.6
		c-0.4-0.3-0.4-0.6-0.2-1c0.4-1.5,1-2.8,1.9-3.8c0.9-1.1,2.1-1.8,3.6-2.3c0.8-0.2,1.7-0.4,2.6-0.3c0.9,0,1.9,0.2,2.9,0.6
		c1.8,0.6,3.3,1.5,4.3,2.8c1.1,1.3,2,2.6,2.8,4.2c0.3,0.8,0.8,1.6,1.4,2.4c0.6,0.8,1.1,1.6,1.5,2.4c0.6,1.3,1.2,2.8,1.7,4.5
		c0.2,0.8,0.4,1.7,0.5,2.5c0.1,0.8,0.2,1.6,0.5,2.5c0.5,1.8,0.9,3.5,1.1,5.2c0.3,1.7,0.3,3.4,0.2,5.2c-0.1,0.6-0.1,1.1,0,1.7
		c0.1,0.6,0.2,1.1,0.2,1.7c0.2,1.1-0.2,2-1.2,2.8c-0.3,0.3-0.4,0.7-0.3,1.2c0,0.9,0.1,1.8,0.3,2.7C453,252.1,453.1,253,453.3,254z
		 M468,277.1c-0.4,0.6-0.8,1.1-1.2,1.6c-0.4,0.4-0.8,1-1.2,1.6l-4.4,6.1c-0.2,0.4-0.3,0.7-0.6,1.1c-0.2,0.4-0.5,0.6-0.9,0.8
		c-0.4,0.3-0.7,0.6-0.8,0.9c-0.2,0.3-0.3,0.6-0.5,0.8c-0.2,0.4-0.3,0.7-0.3,1c-0.1,0.3-0.2,0.6-0.3,1c-0.2,0.6-0.4,1.1-0.6,1.6
		c-0.1,0.5-0.3,0.9-0.6,1.4c-1.7,3.2-1.6,6.4,0.1,9.5c0.3,0.5,0.5,1.1,0.8,1.7c0.2,0.6,0.6,1.2,1.2,1.6c1,0.7,1.8,0.9,2.5,0.4
		c0.7-0.4,1.3-0.9,2-1.5c0.6-0.5,1.3-1.1,1.9-1.8c0.1,0,0.1-0.2,0.1-0.5c0.6-2,1.1-3.9,1.6-5.8c0.5-1.9,1-3.9,1.4-6
		c0.4-1.7,0.6-3.5,0.6-5.4c0.1-0.9,0.1-1.8,0-2.8c-0.1-1-0.2-2-0.2-3.1c0-0.7,0-1.3-0.2-2C468.1,278.6,468,277.9,468,277.1z"/>
</g>
<path class="st4" d="M142.7,57.2c2.8,2.2,3.6,5.4,2,7.6c-2.3,3.2-8.8,4-12,1.5c-2.3-1.8-2.8-5.9-1-8.4
	C133.9,54.8,139.1,54.5,142.7,57.2L142.7,57.2z M136.9,58.7c-1.3,0.1-2.6,0.8-3.4,1.8c-0.4,1.2-0.2,2.4,0.6,3.4
	c1,0.9,2.4,1.3,3.8,1.2c1.4-0.3,2.6-1.5,4.1-2.5C141,59.6,139,58.7,136.9,58.7z"/>
<path class="st5" d="M414.9,82.2c3.5-2,10,0.2,12.3,4c1.9,2.7,1.2,6.4-1.5,8.2c-0.1,0.1-0.2,0.2-0.3,0.2c-4,2.6-10.8,0.5-12.9-3.9
	C411,87.7,412.2,83.7,414.9,82.2L414.9,82.2z M425.6,86.7c-2.3-0.4-4.6-0.6-6.9-0.7c-2.3,0-3,1.6-1.9,3.6c1,1.8,3.9,3.3,5.7,3
	C424.6,92.2,425.4,90.9,425.6,86.7L425.6,86.7z"/>
<path class="st4" d="M497.1,166c1.4-0.1,3.4,0.2,4.1,1.2c1.1,1.4,0.1,3.1-1.4,3.9c-1.6,0.9-3.6,0.3-4.4-1.3c0,0,0-0.1-0.1-0.1
	c-0.6-1.3-0.1-2.8,1.1-3.5C496.6,166.1,496.9,166,497.1,166z"/>
<path class="st5" d="M485.5,162.4c0.7-0.8,1.9-0.8,2.7-0.1c0.2,0.2,0.4,0.5,0.5,0.8c0.2,1.2-0.2,2.3-1,3.2c-0.6,0.5-2.1,0.1-4.3,0.1
	C484.5,164.4,484.8,163.1,485.5,162.4z"/>
<path class="st0" d="M111.3,345.8c1.4,1.1,1.7,3.2,0.5,4.6c0,0,0,0,0,0c-1.3,1.3-3.3,1.5-4.8,0.4c-1.4-1-1.7-2.9-0.7-4.3
	c0.1-0.1,0.1-0.2,0.2-0.3C107.8,344.8,109.9,344.7,111.3,345.8z"/>
<path class="st5" d="M78.7,377.6c-3.8-3.7-4.2-8.3-1.2-14.3c1.9-4,5.6-5.7,10.1-4.9c4,0.6,7,4,7.1,8c0.2,3.8-1.2,7-3.3,10
	C88.2,381,82.6,381.5,78.7,377.6L78.7,377.6z"/>
<path class="st5" d="M50.9,302.5c2.3-2.2,7.7-2.2,9.9-0.1c2.3,2.3,2.1,6.9-0.5,9.2c-2.3,2-6.4,1.7-8.8-0.8S48.8,304.5,50.9,302.5z"
	/>
<path class="st4" d="M476.5,204c1.9-0.2,4.8,0.3,5.8,1.6c1.5,2,0.1,4.3-2,5.6c-2.3,1.2-5.1,0.4-6.3-1.9c0,0,0-0.1-0.1-0.1
	C473,207.1,474.1,204.3,476.5,204z"/>
</svg>
