<?xml version="1.0" encoding="utf-8"?>
<!-- Generator: Adobe Illustrator 22.1.0, SVG Export Plug-In . SVG Version: 6.00 Build 0)  -->
<svg version="1.1" id="Layer_1" xmlns="http://www.w3.org/2000/svg" xmlns:xlink="http://www.w3.org/1999/xlink" x="0px" y="0px"
	 viewBox="0 0 723.3 246" style="enable-background:new 0 0 723.3 246;" xml:space="preserve">
<style type="text/css">
	.st0{fill:#1A1A1A;}
	.st1{enable-background:new    ;}
</style>
<title>Asset 3</title>
<path class="st0" d="M149.2,54.1c-0.5-10.2,0.9-21.3-0.9-31c-0.5-3.2-1.4-5.1-4.2-6.5c-6-2.8-17.1-0.9-23.6-0.9
	c-11.6,0-23.1,0-34.7,0.9c-1.8,0.1-3.2,1.6-3.1,3.4c0.1,1.6,1.4,3,3.1,3.1c9.7,0.9,19.9,0.5,30.1,0.5c3.7,0,22.7-2.8,25,0
	c3.7,3.7,1.4,20.4,1.9,25.9c0,4.2,0.5,8.3,0.5,12.5c-0.1,2.5,0.1,5,0.5,7.4c1.4,4.6,0.5,6.5-2.8,5.6c-6,2.8-20.3,0.9-26.8,0.9
	c-6.5,0.5-21.7,3.7-26.8-0.9c-4.6-4.6-1.8-19.4-1.8-26.4c0-8.3,0.5-16.2-0.9-24.5c0-0.9-1.8-0.9-2.3,0c-2.3,9.2-2.3,19.4-2.8,29.1
	c-0.5,8.8-2.3,19-0.5,27.3c0.5,1,1.3,1.8,2.3,2.3c8.3,2.3,19,0.5,27.8,0c10.6-0.5,24.1,1.4,34.2-0.9
	C154.3,78.6,149.2,63.8,149.2,54.1z"/>
<path class="st0" d="M241.2,154v-5.1c0-14.3,0.5-29.1-9.2-40.7c-1.1-1.2-3-1.2-4.1,0c0,0,0,0,0,0c0-1.8-0.9-3.7-2.8-3.7
	c-33.3,0-66.6,0.5-99.9,1.4c0-1.4-0.9-3.2-0.9-4.6c-0.4-1.7-0.5-3.4-0.5-5.1c8-0.2,16.1-0.8,24.1-1.9c9.2-1.4,13.4-2.8,15.3-12.5
	c2.3-10.2,0.9-21.3,0.9-31.5c0.5-10.2,3.2-25,0.5-34.2C161.2,5,151,5.5,140.9,3.6c-19-2.8-41.6-5.6-60.6-1.9
	c-6.9,1.4-12,3.2-12.5,10.6c-0.5,3.7,5.6,3.7,6,0c0.5-7.9,33.8-6,39.8-6c10.6,0.5,25.9,0,35.6,4.6c12,6,8.8,19.9,8.8,31.9
	c0,7.4,2.8,30.1-0.9,36.5c-10.6,17.1-50.9,11.1-67.5,9.3c-13.9-1.4-17.6-5.6-19.4-19c-0.5-5.6,0.5-12,0.9-17.6
	c0.5-11.6,0.9-23.6,0.5-35.2c0-1.4-1.8-1.4-2.3-0.5c-3.2,19.9-6.5,43.5-5.1,63.8c0.9,11.6,7.4,12,18,13.4c8.8,0.9,17.1,1.8,25.9,2.3
	c-0.5,2.3-0.5,4.2-0.9,6.5c0,1.4-0.5,2.8,0,3.7c-14.8,0.5-29.6,1.4-44.4,2.3c-4-0.5-8-0.9-12-0.9c0.5-4.6,1.4-11.1-3.7-13
	c-3.2-0.9-7.9-0.5-11.1-0.5c-4.6,0-9.2,0.5-13.9,0.5c-1.9,0-2.8,1.4-2.3,3.2c0.5,3.7,1.4,7.4,1.9,11.1c-3.2,0.5-6.9,1.4-10.2,1.8
	c-0.9,0-1.4,0.5-1.4,0.9c-0.9-0.5-1.9-0.5-1.9,0.5C3,136.4,3,161.4,2.5,185.9c-0.5,12.5-6.9,41.6,2.8,52.3s36.1,5.1,48.1,5.1
	c28.7,0,57.8,0.5,86.5,0.9c25.4,0,53.7,3.7,79.1,0.5c10.6-1.4,18-5.1,20.8-15.7C245.9,207.2,241.7,177.1,241.2,154z M234.8,180.4
	c-15.3,0.9-30.1,3.7-45.8,3.7c0.4-3.4,0.6-6.8,0.5-10.2c14.3,1.9,30.5,3.2,43.9-0.9c0.5,0,0.5-0.5,0.9-0.5
	C234.2,175.1,234.4,177.8,234.8,180.4L234.8,180.4z M234.3,168.8c-0.4-0.4-0.9-0.5-1.4-0.5c-14.8,0.5-28.7,2.8-43.5,1.9
	c0-2-0.4-4-0.9-6c14.8,1.4,31,2.3,45.8-0.5L234.3,168.8z M186.2,156.3c13.4,4.2,33.8,1.9,48.1-2.3v4.6c-15.7,0.5-31,2.3-46.7,2.3
	C187.1,159.1,186.7,157.7,186.2,156.3z M224.6,111.4c0.9,0,1.7-0.3,2.3-0.9c-0.1,0.5,0.1,1,0.5,1.4c2.3,3.6,4.2,7.5,5.6,11.6
	c-10.5,0-20.9,1.4-31,4.2c-1.3-4.7-1.9-9.5-1.9-14.3c0-0.5,0-0.5-0.5-0.9C207.9,111.9,216.3,111.4,224.6,111.4z M120.1,96.6
	c-0.5,1.8-0.8,3.7-0.9,5.6c-0.1,1.6,0.1,3.1,0.5,4.6c-2.5-0.1-5,0.1-7.4,0.5v-3.7c-0.1-2.2-0.4-4.4-0.9-6.5
	C114.2,96.7,117.1,96.5,120.1,96.6z M40.5,100.3c1.4,0,5.1-0.5,6.5,0.5c0.5,0.5,0,5.1,0,7.4c-7,0-13.9,0.5-20.8,1.4
	c-0.5-2.8-0.5-6-0.9-8.8C30.3,100.3,35.4,100.3,40.5,100.3z M13.2,117.4c11.1-1.8,22.7-3.2,33.8-4.2h0.5
	c49.5,1.8,99.5,0.9,149.4-0.9v0.5c-1.9,6.5-1.4,13,0,19.4c0.4,1.5,1.9,2.3,3.4,2c0.1,0,0.2-0.1,0.3-0.1c11.1-1.4,22.2-2.8,33.8-3.2
	c0.6,5.5,0.8,11.1,0.5,16.6c-7.9,0.9-16.2,2.3-24.1,3.2c-8.3,0.9-17.1,0.5-25,3.2c-0.2,0-0.5,0.2-0.5,0.4c0,0,0,0,0,0
	c-9.2-20.8-31.4-35.2-53.7-29.6c-22.2-3.7-44,9.7-56,28.7c-20.8-4.2-43-3.7-64.3-3.7c0.5-11.1,0.5-22.2,0-32.8
	C11.8,117.3,12.5,117.5,13.2,117.4z M130.7,214.6c-0.5,3.7-0.9,7.4-0.9,11.1v4.2c-5.1,0.5-10.2,0.5-15.3,0c0.9-6,2.3-12.5,1.8-18
	c8,2.9,16.8,3.2,25,0.9c0.5,1.9,0.9,3.7,1.4,6c0.9,2.3,1.9,5.1,4.2,6c0.9,0.5,1.9-0.5,1.9-1.4c0-2.3-1.4-4.2-2.3-6
	c-0.9-1.9-1.5-3.9-1.9-6c0.4-0.1,0.7-0.2,0.9-0.5c2.8-1.3,5.4-2.8,7.9-4.6l0,0c0.9,3.7,3.2,8.3,6.5,10.6
	c-7.9,6.2-17.1,10.4-26.8,12.5c-0.5-1.4-0.5-2.8-0.9-4.2c-0.5-3.4-0.5-6.8,0-10.2C132.5,214.1,131.1,213.7,130.7,214.6z
	 M117.7,138.2c-2.2,0.5-4.4,1.3-6.5,2.3c-1.4-2.2-3.2-4.2-5.1-6c2.8-1.4,5.6-2.3,8.3-3.7v0.5C115.4,133.7,116.4,136,117.7,138.2
	L117.7,138.2z M116.8,129.9c2.3-0.5,4.6-1.4,6.9-1.4c0,0.5,0.5,1.4,1.4,0.9c1.8,0,3.7-0.5,6-0.5c0.5,1.8,0.9,3.7,1.4,5.6
	c0,0.4,0.2,0.7,0.5,0.9c-4.2,0-8.4,0.5-12.5,1.4C119.6,135,118.2,132.7,116.8,129.9L116.8,129.9z M108,142c-1.3,0.4-2.6,1.1-3.7,1.9
	c-0.9,0.5-0.9,1.4-0.5,2.3c-1.8,1.3-3.3,2.9-4.6,4.6c-2.3-1.9-5.1-3.7-6.9-6.5l-0.5-0.5c3.3-3.1,7-5.8,11.1-7.9
	C104.8,137.8,106.2,140.1,108,142z M96.9,152.6c-2.3,2.8-4.1,5.9-5.6,9.3c-3.8-1.9-7.8-3.3-12-4.2c2.8-4.3,6.1-8.3,9.7-12
	C91.4,148.9,93.7,151.7,96.9,152.6z M90.4,166c-1.5,4.6-1.8,9.6-0.9,14.3l-0.5-0.5c-5.1-1.4-11.1-0.5-16.7-0.5
	c0.9-6.4,2.8-12.7,5.6-18.5C82.3,162.3,86.4,164,90.4,166z M89.1,182.2c0.2,0,0.5-0.2,0.5-0.4c0,0,0,0,0,0c0.5,2.7,1.3,5.3,2.3,7.9
	c0,0.5,0.5,0.9,0.9,1.4c-5.6,4.2-10.6,9.2-15.7,14.3c-3.5-7-5.1-14.8-4.6-22.7C77.5,182.7,84,183.6,89.1,182.2z M78.4,207.2
	c5.5-4,10.8-8.3,15.7-13c2.1,3.5,4.8,6.6,7.9,9.2c-0.5,0-0.9,0-0.9,0.5c-4.2,5.4-7.9,11.1-11.1,17.1c-5-3.7-9.2-8.2-12.5-13.4
	C77.7,207.4,78.1,207.2,78.4,207.2L78.4,207.2z M103.4,205.3v-0.5c3,2.4,6.3,4.4,9.7,6c-1.8,5.6-1.8,12-1.8,18.5
	c-3.1-0.5-6.2-1.3-9.3-2.3c-0.5-0.5-0.9-0.5-1.4-0.9h-0.5c-2.4-1.1-4.7-2.3-6.9-3.7C96.9,217.4,101.1,211.4,103.4,205.3L103.4,205.3
	z M97.9,187.8c-7.4-17.1,1.4-35.6,17.1-44.4c14.3-3.7,30.1-2.8,41.2,7.9c17.1,16.2,5.6,44.4-13,53.2
	C126.5,212.3,105.2,204.9,97.9,187.8L97.9,187.8z M137.6,129.5c3.7,0.4,7.4,1,11.1,1.9c-1.5,1.6-2.8,3.5-3.7,5.6
	c-2.3-0.5-5.1-0.9-7.4-1.4c1-0.5,1.4-1.7,0.9-2.8c0,0,0,0,0,0C137.9,131.8,137.6,130.6,137.6,129.5L137.6,129.5z M167.2,153.1
	L167.2,153.1c-1.4-2.4-3.1-4.5-5.1-6.5c2.2-1,4.2-2.6,5.6-4.6c2.8,2.8,5.6,5.6,7.4,9.3C172.8,152.1,170.5,153.5,167.2,153.1
	L167.2,153.1z M177.4,154.9c1.5,3.3,2.7,6.7,3.7,10.2c-2.9-0.5-5.9-0.5-8.8,0h-0.9c-0.4-2.5-1-5-1.9-7.4
	C171.9,157.2,175.1,156.8,177.4,154.9L177.4,154.9z M158,143.3c-2.8-1.8-5.7-3.4-8.8-4.6l4.2-5.6c4,1.4,7.7,3.5,11.1,6
	C162.6,141,160.4,142.4,158,143.3z M159.9,210.9c-1.3-1.6-2.2-3.5-2.8-5.6c0-0.5-0.4-0.9-0.9-0.9l5.6-5.6c1.4,0.9,3.2,1.9,4.6,2.8
	c1.9,0.9,3.7,2.3,6,3.2c-2.6,3.6-5.5,6.8-8.8,9.7C162.1,213.2,160.8,212.3,159.9,210.9L159.9,210.9z M168.6,197
	c-1.4-1-3-1.8-4.6-2.3c2-2.8,3.6-6,4.6-9.2h0.5c1.9-0.1,3.7,0.1,5.6,0.5c1.9,0.5,3.2,1.4,5.1,1.4l0,0c-1.4,4.5-3.2,8.9-5.6,13
	C173.2,198.9,170.9,198.4,168.6,197z M170.5,181.3c0.9-3.9,1.4-8,1.4-12h0.5c3.2,0.1,6.5-0.1,9.7-0.5c0.5,4.9,0.4,9.9-0.5,14.8
	C178.3,181.7,173.7,181.3,170.5,181.3z M11.3,153.1c20.4,2.3,42.1,4.6,62.4,2.8c-1.8,2.9-3.2,6-4.2,9.2c-19.4-0.9-38.9-1.9-58.8-2.8
	C10.9,159.5,11.3,156.3,11.3,153.1z M9.9,176.2c18.5-1.4,37-0.5,55-2.3c1.4,0,1.8-2.3,0.5-2.3c-18-2.8-37.5,0.5-55.5,3.2
	c0-1.9,0.5-3.7,0.5-5.1v-4.2c19,1.4,38.4,2.8,57.4,3.7c-1,3.3-1.8,6.7-2.3,10.2v4.2l-0.5-0.5c-18-1.8-37.5-0.9-56,0
	C9.8,180.9,10.1,178.5,9.9,176.2z M7.6,204.4c19.4,0.5,39.3,2.8,58.7,1.4c1.4,0,1.8-2.3,0.5-2.8c-18.5-3.7-39.8-2.3-58.8-0.5
	c0.5-5.6,0.9-11.1,1.4-16.7c18.5,0.9,37.9,1.9,56,0c0.2,0,0.5-0.2,0.5-0.4c0,0,0,0,0,0c-0.1,2.2,0.1,4.3,0.5,6.5l-0.5-0.5
	c-17.6-4.2-37.5-1.9-55.5-0.9c-1.9,0-1.9,3.2,0,3.2c18-0.9,37,1.9,55,0.5c0.5,0,0.9-0.4,0.9-0.9c1.2,8,4.4,15.7,9.3,22.2
	c-22.2-1.9-44.9-0.9-67.6-0.9C7.7,211.2,7.6,207.8,7.6,204.4z M213,237.7h-9.2c-8.8,1.4-18.5,0-27.3,0h-59.2
	c-18,0-36.5,0.5-54.6,0.5c-18.5,0-49,6.5-54.1-16.7c-0.4-1.5-0.6-3.1-0.5-4.6c23.1,0.9,46.7,2.8,69.9,1.9c1.9,2.2,4.1,4.2,6.5,6
	c-23.1-0.9-46.7,0-69.9,0.5c-0.9,0-0.9,1.4,0,1.9c25.4,1.9,51.8,3.7,77.7,2.8c11.1,5.9,23.6,8.3,36.1,6.9c7-0.5,13.9-2.3,20.4-5.1
	c27.3,0.5,55.1-0.5,81.9-4.6C227.4,232.6,221.8,235.9,213,237.7z M232.9,222L232.9,222c-25,0.9-50.4,3.2-75.4,6
	c3.8-2.2,7.4-4.8,10.6-7.9c21.7-0.5,43.5-0.5,65.2-1.9C233.4,219.7,232.9,221.1,232.9,222z M233.4,212.3
	c-20.4,0.5-40.7,2.3-61.1,4.2c4-4.1,7.5-8.8,10.2-13.9c0.4,0.4,0.9,0.5,1.4,0.5c16.6,0,34.7,0.9,50.9-1.9
	C234.3,204.9,234.3,208.6,233.4,212.3L233.4,212.3z M183.9,199.8c1.9-4.1,3.3-8.5,4.2-12.9c14.8,1.9,31.9,2.8,46.7-1.4v10.6
	C218.1,195.1,200.5,197.9,183.9,199.8L183.9,199.8z"/>
<path class="st0" d="M120.1,30.5c-3.2,2.8-5.8,6.3-7.4,10.2c-3.2-2.8-6.5-5.1-11.1-5.5c-6-0.9-10.6,4.6-7.9,10.2
	c3.4,6.6,9.2,11.5,16.2,13.9c2.8,2.7,7.2,2.5,9.9-0.3c0.8-0.8,1.4-1.9,1.7-3l0,0c5-5.2,8.5-11.5,10.2-18.5
	C133,30,125.1,25.8,120.1,30.5z"/>
<g class="st1">
	<path d="M293.3,18.5c0.4,0.1,0.6,0.3,0.6,0.4c-0.3,1.4-0.4,2.4-0.4,2.8V25c-2.1,0.3-3.5,0.4-4.4,0.4l-1.4-0.2v0.2l-0.4-0.2h-1
		c0,0.3-0.1,0.9-0.2,1.6c0.1,1.8,0.2,3,0.2,3.4c-0.1,0.7-0.2,1.3-0.2,1.6h0.2l-0.2,0.4v3c0,0.3-0.1,0.4-0.4,0.4l0.2,1.4v1
		c0,1.1-0.1,2-0.4,2.6h0.2l-0.2,0.4l0.2,0.4h-0.2c0.1,0.3,0.2,0.5,0.2,0.6c0,0.3-0.1,2.2-0.4,5.8c0.1,1.2,0.2,1.8,0.2,2h-0.2
		c0.1,0.2,0.2,0.5,0.2,0.6c0,2.3,0.1,4,0.4,5.2c-0.1,0.3-0.2,0.5-0.2,0.6c0,0.9,0.1,1.4,0.4,1.4l-0.2,0.4v2c0,0.3,0.1,0.6,0.2,0.8
		c0,0.8-1.1,1.2-3.4,1.2c0,0.1-0.7,0.3-2.2,0.6c-0.7-0.2-1-0.7-1-1.4c0-0.1,0.1-0.2,0.2-0.2l-0.2-0.4v-0.4c0.1-3,0.2-4.4,0.4-4.4
		c0-0.1-0.1-0.2-0.2-0.2l0.4-6.4h-0.2l0.2-0.4v-2l0.2-0.4H280l0.2-0.4v-2.6c0-0.7-0.1-1.7-0.2-2.8c0.1-0.5,0.2-0.8,0.4-0.8l-0.2-0.4
		c0-0.1,0.1-0.2,0.2-0.2l-0.2-0.4v-0.4l0.2-1c-0.1,0-0.2-0.1-0.2-0.2h0.2l-0.2-0.4c0.4-3.3,0.6-7.1,0.6-11.5l-0.4-0.2h-3.2
		c-0.1,0-0.2,0.1-0.2,0.2l-0.4-0.2h-0.2c-0.1,0-0.2,0.1-0.2,0.2c-0.3-0.1-0.5-0.2-0.6-0.2c-0.4,0-0.9,0.1-1.6,0.4v-4
		c0-0.1-0.1-0.2-0.2-0.2c0.1-1.1,0.3-1.6,0.6-1.6h2l4.8-0.8l1.2,0.2l1.4-0.2c0.1,0,0.2,0.1,0.2,0.2c1.2-0.3,2.8-0.4,4.8-0.4h4.2
		C293.2,18.7,293.3,18.7,293.3,18.5z M281.1,55.3c0,1.1-0.1,2.4-0.2,3.8c0.1,1.3,0.3,2,0.6,2v-1.8c0-0.9-0.1-2.2-0.2-4H281.1z
		 M281.9,30.4l0.2,0.4V31l-0.2,0.4h0.2l-0.2,0.4v2.4c0,0.1,0.1,0.2,0.2,0.2l-0.2,0.4V36c0,0.3,0.1,0.6,0.2,0.8
		c-0.1,0.2-0.2,0.5-0.2,0.8l0.2,0.4c-0.1,0.3-0.2,0.5-0.2,0.6c0.4,0,0.6-1.1,0.6-3.2v-1.2c0-0.9-0.1-2.2-0.2-4L281.9,30.4z
		 M284.7,20.1v0.2h1.8c0.1,0,0.2-0.1,0.2-0.2l0.4,0.2h0.2v-0.4h-0.2L284.7,20.1z M284.9,21.3c0,0.3,0.2,0.4,0.6,0.4l0.4-0.2
		c0.3,0.1,0.5,0.2,0.6,0.2l0.2-0.4H284.9z"/>
	<path d="M310,18.5c2.2,0.1,3.9,0.2,5,0.2h2.4c-0.2,2.2-0.4,3.7-0.6,4.2l0.2,0.4c0,0.1-0.1,0.3-0.2,0.6l0.2,1.2v0.2
		c0,0.1-0.1,0.2-0.2,0.2c0,0.1,0.1,0.2,0.2,0.2l-0.2,1v2.4c0,0.3-0.1,0.4-0.4,0.4l0.2,1c0,0.6-0.1,2.1-0.2,4.6h-0.2l0.2,0.4V37
		c0,0.1-0.1,0.2-0.2,0.2c0,0.1,0.1,0.2,0.2,0.2c-0.3,2-0.4,3.2-0.4,3.6l0.2,1c-0.1,1.2-0.2,1.8-0.4,1.8l0.2,0.4
		c0,0.3-0.1,0.6-0.2,0.8c0.1,0.7,0.2,1.3,0.2,1.8v1c-0.3,1-0.4,1.5-0.4,1.6c0.1,1.7,0.2,2.7,0.2,3c-0.3,0-0.5,0.8-0.6,2.4
		c0.1,0.2,0.2,0.5,0.2,0.8h-0.2l0.2,0.4v0.4c0,1-0.1,2-0.2,2.8l0.4,3c-3.6,0.1-5.6,0.3-5.8,0.4v-0.4l0.2-1h-0.2
		c0.1-0.2,0.2-1.1,0.4-2.8H310l0.2-0.4v-0.8c0-0.1-0.1-0.2-0.2-0.2l0.2-0.4v-0.2c0-0.3-0.1-0.6-0.2-0.8l0.2-0.4
		c-0.1-0.3-0.2-0.5-0.2-0.6c0.1,0,0.2-0.1,0.2-0.2H310l0.2-0.4c0-0.1-0.1-0.2-0.2-0.2l0.2-1.4v-1.4c0-0.1,0.1-0.2,0.2-0.2
		c0-1.5-0.5-2.2-1.4-2.2h-0.4c-1.6,0-3.2,0.1-4.8,0.4c0,1.9,0.2,3.5,0.6,4.8l-0.2,0.4v0.4c0,0.1,0.1,0.2,0.2,0.2l-0.2,0.4v6.4
		c-4,0.4-6.6,0.9-7.8,1.4c0-0.1,0.1-0.2,0.2-0.2c0.1-2.5,0.2-4.3,0.2-5.4v-4c0-0.1,0.1-0.2,0.2-0.2l-0.2-0.4v-3.6
		c0-0.1-0.1-0.2-0.2-0.2l0.2-0.4c0-0.1-0.1-0.2-0.2-0.2l0.2-0.4v-0.8l-0.2-0.4h0.2l-0.2-0.4v-3c0-0.1,0.1-0.2,0.2-0.2
		c-0.1-0.3-0.2-0.5-0.2-0.6s0.1-0.2,0.2-0.2l-0.2-1v-1l0.2-2h-0.2l0.2-0.4v-0.8l-0.2-0.4h0.2l-0.2-0.4V35l-0.2-1h0.2
		c0-0.1-0.1-0.2-0.2-0.2c0.1-1.6,0.3-2.4,0.4-2.4l-0.2-0.4c0-0.1,0.1-0.2,0.2-0.2l-0.2-1c0-1.8,0.1-5,0.2-9.5
		c0.1-0.2,0.2-0.5,0.2-0.6h2.8c0.1,0,0.2-0.1,0.2-0.2l0.4,0.2h0.4c1.9-0.3,3-0.4,3.2-0.4c0.3,0,0.4,0.2,0.4,0.4v0.4
		c0,0.3-0.1,0.6-0.2,0.8c0.1,0.2,0.2,0.5,0.2,0.8v0.8l-0.2,0.4h0.2l-0.4,2c0.1,0.2,0.2,0.5,0.2,0.8v0.8c0,0.3-0.1,0.6-0.2,0.8
		c0.1,0.3,0.2,0.5,0.2,0.6c-0.1,0.7-0.2,1.3-0.2,1.6h0.2l-0.2,0.4c-0.1,2.3-0.2,4-0.2,5.2V36c0,0.1,0.1,0.2,0.2,0.2l-0.2,0.4v6.6
		l0.2,1h0.6l1-0.2v0.2c2.3-0.5,3.4-0.7,3.4-0.8l0.4,0.2c0.3-0.1,0.5-0.2,0.6-0.2c0.3-2.8,0.4-4.5,0.4-5l-0.2-1
		c0.1-0.3,0.2-0.5,0.2-0.6h-0.2c0.2-0.7,0.4-2.5,0.6-5.4l-0.2-0.4c0.1-0.8,0.2-1.2,0.4-1.2c-0.1-0.5-0.2-0.8-0.4-0.8
		c0.1-0.3,0.2-0.5,0.2-0.6l-0.2-1.8h0.2l-0.2-0.4v-3c0-0.1,0.1-0.2,0.2-0.2C310.4,22.1,310.1,20.6,310,18.5z M297.9,32.6
		c0,0.1,0.1,0.2,0.2,0.2l-0.2,1.4V40c0.3,0,0.4-0.1,0.4-0.4V35c0-0.1,0.1-0.2,0.2-0.2C298.4,33.3,298.2,32.6,297.9,32.6z
		 M299.9,39.8v0.4c0,1.1-0.1,2.2-0.2,3.2c0.1,0.9,0.2,1.7,0.2,2.6h0.4v-0.8c0-0.1-0.1-0.2-0.2-0.2l0.2-0.4v-4.4
		C300.3,39.9,300.2,39.8,299.9,39.8z M299.9,24.5V29h0.2c0-0.8,0.1-1.2,0.2-1.4h-0.2l0.2-0.4v-0.6c0-0.1-0.1-0.2-0.2-0.2l0.2-0.4
		v-0.4l-0.2-1H299.9z M301.3,21.3v0.2l0.2,0.4c-0.1,0.2-0.2,0.5-0.2,0.8c0,0.1,0.1,0.2,0.2,0.2l-0.2,0.4v0.8l0.2,0.4
		c-0.1,0-0.2,0.1-0.2,0.2l0.4,0.2c0-0.9,0.1-1.4,0.2-1.4l-0.2-0.4v-1.8H301.3z M302.5,28.6c0,0.8-0.1,1.2-0.2,1.2l0.2,0.4
		c-0.1,0.7-0.2,1.3-0.2,1.6h0.2l-0.2,0.4v2l-0.2,1.4h0.2l-0.2,0.4v1h0.2l0.6-5.8c-0.1-0.5-0.2-1.3-0.2-2.6H302.5z M312.4,38.2v1.4
		l0.4,0.2c-0.1-0.5-0.2-1-0.2-1.6H312.4z M313,31.4v2c0,0.5-0.1,1.1-0.2,1.8c0.1,0.2,0.2,0.6,0.2,1.2h0.2l0.2-1v-0.8l-0.2-2.4
		c0.1,0,0.2-0.1,0.2-0.2h-0.2l0.2-0.4v-0.2H313z M313.4,54.3v1.4h0.2l0.2-1C313.8,54.4,313.6,54.3,313.4,54.3z"/>
	<path d="M340.3,17.5c0.2,0.1,0.5,0.2,0.8,0.2v-0.2c0.1,0,0.2,0.1,0.2,0.2l1-0.2c0.6,0,1.1,0.5,1.4,1.6c1.5,0.2,2.2,0.4,2.2,0.8
		c-0.3,1.2-0.4,2-0.4,2.4c0.1,1.7,0.2,2.7,0.2,3c-0.4,0-0.6,0.1-0.6,0.4c-0.3-0.1-0.5-0.2-0.6-0.2c-1.9,0-3.9,0.1-6,0.4
		c-0.1,0-0.5-0.1-1.2-0.2c-0.8,0-2.7,0.1-5.8,0.4c-0.5-0.1-1.1-0.2-1.6-0.2c-0.1,0.4-0.2,1.2-0.4,2.4c0.1,0,0.2,0.1,0.2,0.2h-0.2
		l0.2,0.4v5.2c0.3,0.3,0.4,0.8,0.4,1.4h1.2c0.6,0,1.3-0.1,2.2-0.2c0.4,0.3,0.8,0.4,1,0.4v2c0.1,0,0.3,0.1,0.6,0.2
		c0.1,0,0.2-0.1,0.2-0.2l1,0.2h0.2l0.4-0.2V38c-0.1,2-0.2,3.3-0.2,4h0.2l-0.2,0.4l0.2,0.4l-0.2,1l0.2,0.8c-0.1,0.5-0.2,1.1-0.2,1.6
		c-0.5,0.1-0.8,0.3-0.8,0.6c-0.3-0.1-0.5-0.2-0.6-0.2c-0.3,0.2-1.1,0.4-2.2,0.6l-0.4-0.2h-2l0.2,0.4v0.2l-0.6-0.4H330v4.6l0.2,1H330
		l0.2,0.4v1l-0.2,0.4h0.2l-0.2,0.4c0.1,1.1,0.3,1.6,0.6,1.6h2.8c0.1,0,0.2,0.1,0.2,0.2c0.1,0,0.2-0.1,0.2-0.2l2,0.2h0.2
		c1,0,2.8-0.2,5.4-0.6v0.2l0.4-0.2h0.6c0.4,0.1,0.6,0.5,0.6,1.2c-0.1,0-0.2,0.1-0.2,0.2h0.2l-0.2,0.4v0.2l0.4,0.6l1-0.2h1.4
		c0,2.8,0.2,4.2,0.6,4.2c0,0.1-0.1,0.2-0.2,0.2l0.2,1v0.4c0,1-0.3,1.7-1,2h-3.6c-0.1,0-0.2,0.1-0.2,0.2l-0.4-0.2l-3.2,0.4v-0.2
		l-0.4,0.2c-0.4,0-0.6-0.1-0.6-0.2c-1,0.1-1.7,0.3-2,0.4c-0.7-0.1-1.3-0.2-1.8-0.2c-1.2,0-3,0.1-5.2,0.4v-0.2l-0.4,0.2h-4.8
		l-0.4-0.2l0.2-1.4v-1c0-0.3-0.8-0.5-2.4-0.6c0-0.3-0.1-0.4-0.2-0.4c0.1-0.4,0.3-0.6,0.4-0.6l-0.2-0.4l0.2-0.4H320
		c0.2-0.4,0.4-1.4,0.6-2.8l-0.2-0.4v-2c0-0.1-0.1-0.2-0.2-0.2c0.3-0.6,0.4-1.2,0.4-1.8h-0.2l0.2-0.4v-8l-0.2-0.4h0.2l-0.2-0.4V41
		c0-0.1-0.1-0.2-0.2-0.2l0.4-1c0-0.1-0.1-0.3-0.2-0.6c0.1-0.7,0.2-1.3,0.2-1.8v-0.2c0-0.1-0.1-0.2-0.2-0.2l0.2-0.4v-1
		c0-0.1-0.1-0.2-0.2-0.2c0.1-0.2,0.3-1.1,0.4-2.8c-0.1-1.9-0.2-3.5-0.2-4.8c0.1,0,0.2-0.1,0.2-0.2h-0.2l0.2-0.4V26
		c0-0.1-0.1-0.2-0.2-0.2l0.2-0.4c0-0.1-0.1-0.2-0.2-0.2l0.2-0.4l-0.2-0.4h0.2c-0.2-1.3-0.4-2.3-0.6-3l0.2-0.4l-0.2-0.4l0.4-1.4h-0.2
		c0.1-0.3,0.2-0.5,0.2-0.6h0.4c3.3,0,5-0.1,5-0.4c0.7,0.3,1.9,0.4,3.6,0.4c0.1,0,0.2-0.1,0.2-0.2l0.8,0.2
		C337.1,18.2,340.3,17.9,340.3,17.5z M343.1,60.1l0.4,3.4c-0.1,0-0.2,0.1-0.2,0.2h0.2c-0.1,0.3-0.2,0.5-0.2,0.6h-0.2v-0.4
		c-0.3,0.1-0.5,0.2-0.6,0.2c-0.4-0.3-0.8-0.4-1.2-0.4c-0.5,0-0.8,0.2-0.8,0.4c-0.1,0-0.2-0.1-0.2-0.2l-2.4,0.2h-0.2
		c-0.3,0-0.6-0.1-0.8-0.2l-0.4,0.2c-0.3,0-0.6-0.1-0.8-0.2c-1.1,0.1-2.1,0.2-2.8,0.2h-2.4l-1.2,0.2c-1.1-0.1-1.6-0.3-1.6-0.4
		l-0.4,0.2h-1.4c-1.3,0-2,0.2-2,0.6l-0.2,1.4h2.2l0.4-0.2v0.2l0.4-0.2h0.2c0.1,0,0.2,0.1,0.2,0.2l0.4-0.2h1.4l1-0.2
		c0,0.1,0.1,0.2,0.2,0.2v-0.2l0.4,0.2h0.4l0.4-0.2v0.2l0.4-0.2l0.8,0.2c0.7-0.1,1.4-0.2,2-0.2v0.2l0.4-0.2h0.6
		c0.1,0,0.2,0.1,0.2,0.2c0.6-0.1,2.7-0.4,6.4-0.8c0.1,0,0.2,0.1,0.2,0.2c1.7-0.1,2.6-0.3,2.6-0.6v-0.4l-0.4-0.6h0.2
		c0-0.1-0.1-0.2-0.2-0.2c0-0.1,0.1-0.5,0.2-1.2c-0.1-1.6-0.3-2.4-0.6-2.4L343.1,60.1z M326.4,60.7h0.2c0.3-0.1,0.4-0.2,0.6-0.2v0.2
		c0.2-0.1,0.5-0.2,0.8-0.2v-0.2h-1.2C326.5,60.3,326.4,60.5,326.4,60.7z M343.5,20.3l-0.2,1v1.6c-5.1,0.1-8.4,0.3-9.8,0.6
		c-0.2-0.1-0.5-0.2-0.8-0.2c-0.3,0.1-0.5,0.2-0.6,0.2v-0.2l-1.2,0.4c-0.3-0.1-0.5-0.2-0.6-0.2c0,0.1-0.1,0.2-0.2,0.2v-0.2l-0.4,0.2
		c-1-0.1-1.5-0.2-1.6-0.2l-1,0.2v0.6c0,0.5,0.1,1.1,0.2,1.8c-0.1,0.2-0.2,0.5-0.2,0.8h0.2l-0.4,2.2c0.2,4,0.4,6,0.6,6
		c0.2,0.1,0.5,0.2,0.8,0.2h0.2c0-0.3,0.1-0.4,0.2-0.4l-0.2-0.4v-2.4c0-0.3-0.1-0.6-0.2-0.8l0.2-0.4c-0.1-1.4-0.2-2.4-0.2-3.2v-1.2
		c0-0.5-0.2-0.9-0.6-1.4c0-0.3,0.3-0.5,0.8-0.6c0.5,0,1.4,0.1,2.6,0.4l0.4-0.2c0.1,0,0.3,0.1,0.6,0.2c6.8-0.3,10.9-0.6,12.3-0.8
		c0-0.4,0.1-1,0.4-2h-0.2l0.2-0.4v-1.2l-1-0.2H343.5z M334.2,39.6l0.2,1.2c-0.1,1.9-0.3,2.8-0.4,2.8l0.2,0.4c0,0.3-0.1,0.4-0.4,0.4
		c-0.5,0-1.1-0.1-1.8-0.2c-0.1,0-0.2,0.1-0.2,0.2l-1-0.2h-1.6l-1,0.2v-0.2c-0.5,0.2-0.8,0.4-0.8,0.6c0,0.7,0.1,1,0.4,1l-0.2,0.4v0.6
		c0,0.9,0.1,1.7,0.2,2.6l-0.2,1.2c0,0.1,0.1,0.2,0.2,0.2l-0.2,1v1.2c0,0.1,0.1,0.2,0.2,0.2l-0.2,0.4c0,0.1,0.1,0.2,0.2,0.2l-0.2,1
		c0,0.3,0.1,0.6,0.2,0.8l-0.2,0.4c0.2,0.5,0.4,0.8,0.6,0.8h0.4c0.3,0,0.4-0.1,0.4-0.4c0-0.6-0.1-2.5-0.4-5.6c0.1,0,0.2-0.1,0.2-0.2
		c-0.1,0-0.2-0.1-0.2-0.2c0.1,0,0.2-0.1,0.2-0.2c-0.1,0-0.2-0.1-0.2-0.2h0.2l-0.2-0.4v-1.4c0-0.7-0.1-1.5-0.4-2.4
		c0.3,0,0.4-0.1,0.4-0.4c0.9,0.3,1.7,0.4,2.4,0.4h2.8c0.6-0.5,1.1-0.8,1.4-0.8l-0.2-1c0.3,0,0.4-0.1,0.4-0.4v-1
		c0-0.1-0.1-0.2-0.2-0.2c0.1-1.1,0.3-1.6,0.4-1.6l-0.2-0.4c0.1-0.4,0.3-0.6,0.4-0.6c-0.1-0.3-0.2-0.5-0.2-0.6h-1
		C334.4,39.3,334.2,39.4,334.2,39.6z M329.4,58.3v0.2h1.6v-0.4C330.3,58.2,329.7,58.3,329.4,58.3z"/>
</g>
<g class="st1">
	<path d="M304.6,78.4l0.3,2.8v0.3h2.5c0.3,0,0.7,0.7,1.1,2l-0.3,0.6v0.6c0,0.4,0.1,0.8,0.3,1.1c-0.9,6.4-1.4,9.6-1.4,9.8
		c0.2,0.3,0.3,0.7,0.3,1.1c-0.2,2.7-0.3,4.2-0.3,4.5l0.3,0.6l-0.3,0.6l0.3,1.7h-0.3c0,0.2,0.1,0.3,0.3,0.3l-0.3,2v1.7
		c0,1.3,0.1,2.4,0.3,3.4l-0.6,6.2h0.3l-0.3,0.5v2l0.3,2h-0.3l0.3,0.5c0,0.2-0.1,0.3-0.3,0.3l0.3,0.5v0.3l-0.3,0.6h0.3l-0.3,0.6v0.6
		c0,0.2,0.1,0.3,0.3,0.3l-0.3,0.6c-0.2,5.2-0.3,8.6-0.3,10.1c0.2,0.6,0.4,0.8,0.6,0.8c-1.1,4.1-2.7,6.2-4.8,6.2
		c-0.2,0-0.3-0.1-0.3-0.3c-0.4,0-0.6,0.1-0.6,0.3l-3.4-0.3h-2.5c-0.2,0-0.3,0.1-0.3,0.3l-0.6-0.3h-3.1c-0.2,0-0.3-0.1-0.3-0.3
		c-0.7,0.4-1.8,0.6-3.1,0.6h-0.6c-0.2,0-0.3-0.1-0.3-0.3l-0.6,0.3c-0.6-0.4-1.2-0.6-1.7-0.6c-0.1,0-0.7,0.1-1.7,0.3
		c0-0.2-0.1-0.3-0.3-0.3v0.3l-0.6-0.3c-0.2,0-0.5,0.1-0.9,0.3c-1.7,0-2.8-0.8-3.1-2.2l0.3-0.6v-0.5h-0.3l-0.6,0.3
		c0-0.4-1-0.8-3.1-1.4c0-1.7-0.2-2.5-0.6-2.5c0-0.2,0.1-0.3,0.3-0.3c0-0.4-0.2-1-0.6-2c0.4-1.7,0.6-2.9,0.6-3.7h-0.3l0.3-0.6v-3.9
		c0-0.3,2.5-0.8,7.6-1.4v2c0.7-0.4,1.8-0.6,3.1-0.6c0.4,0.1,0.6,0.3,0.6,0.6c-0.2,1.9-0.3,3.4-0.3,4.5v0.3h1.4
		c0.2,0,0.3-0.1,0.3-0.3l0.6,0.3c3.2-0.3,4.8-0.9,4.8-1.7l0.6-3.9l-0.3-0.6c0.2-0.3,0.3-0.7,0.3-1.1h-0.6l0.3-0.5v-2.5
		c0-0.3-0.7-0.6-2-0.8c-2.1,0.2-4.2,0.6-6.5,1.4c-2.1,0-3.1-0.8-3.1-2.5l-0.3-2H281c-0.2,0-0.3,0.1-0.3,0.3c-2.4-1-3.6-3.4-3.6-7
		l-0.3-2.8c0.2-2,0.3-4.1,0.3-6.5v-1.4l0.3-0.6l-0.6-0.3c0.4-0.7,0.6-1.4,0.6-2.2V95c0-0.2-0.1-0.3-0.3-0.3l0.3-0.6v-9.3l-0.3-2h0.3
		l-0.3-0.5v-0.8c0-0.2,0.1-0.3,0.3-0.3l-0.3-0.6c0-0.9,3.1-1.4,9.3-1.4l0.3,0.6c-0.2,1-0.3,1.9-0.3,2.5c0.2,0,0.9-0.1,2.2-0.3
		c0.7,0.2,1.1,0.8,1.1,1.7V84c0,0.2-0.1,0.3-0.3,0.3c0,0.2,0.1,0.3,0.3,0.3c-0.4,1.5-0.6,3.3-0.6,5.3c0,1.4,0.1,3.5,0.3,6.5
		c-0.4,4-0.8,6.8-1.1,8.4c0.2,0.2,0.4,1.3,0.6,3.4h2.8c0.4,0,1.1-1.4,2-4.2c0-0.2-0.1-0.3-0.3-0.3l0.6-4.8h-0.3l0.3-0.6v-16
		c0-0.4,0.1-0.8,0.3-1.1c-0.2-0.3-0.3-0.7-0.3-1.1v-0.3c0-0.3,0.4-0.7,1.1-1.1h3.4C299.7,78.7,301.8,78.6,304.6,78.4z M305.7,83.2
		v0.6l-0.6-0.3h-0.3c-0.4,2.7-0.6,4.5-0.6,5.6V95l-0.3,1.4h0.3L304,97c0,0.2,0.1,0.3,0.3,0.3l-0.3,0.6c0,1.1-0.1,2.6-0.3,4.5
		l0.3,2.5c-0.2,1.7-0.3,3.6-0.3,5.6c-0.2,0-0.3,0.1-0.3,0.3h0.3l-0.3,0.6v0.3c0,0.6,0.1,1.1,0.3,1.4l-0.3,1.7v0.3
		c0,0.2,0.1,0.3,0.3,0.3l-0.3,0.6v3.7c0,0.7-0.1,1.5-0.3,2.5c0.2,0.2,0.3,0.9,0.3,2c0,0.2-0.1,0.3-0.3,0.3l0.3,0.6
		c0,0.2-0.1,0.3-0.3,0.3c0,0.2,0.1,0.3,0.3,0.3l-0.3,1.4v2c0,0.2,0.1,0.3,0.3,0.3c-0.2,0.2-0.4,1.8-0.6,4.8h0.3
		c0,4.3-3.4,6.5-10.1,6.5c-2.6-0.2-4-0.4-4.2-0.5c-1.9,0.2-2.8,0.4-2.8,0.5l-1.4-0.3h-3.4c-0.4,0-0.6,0.2-0.6,0.5
		c0.2,0.4,0.3,0.6,0.3,0.8h5.1l0.6-0.3c0,0.3,0.7,0.6,2,0.8c1-0.4,2-0.6,3.1-0.6l1.4,0.3c0.7-0.2,1.4-0.3,2-0.3
		c0.2,0,0.3,0.1,0.3,0.3c0.1,0,0.5-0.1,1.1-0.3c2.4,0.2,3.8,0.3,4.2,0.3c0-0.2,0.1-0.3,0.3-0.3v0.3l0.6-0.3c0.2,0,0.3,0.1,0.3,0.3
		c1.7-0.5,2.5-1.3,2.5-2.5c0-0.5,0.2-1.5,0.6-2.8c0-4.8,0.2-7.7,0.6-8.7c-0.2-0.3-0.3-0.7-0.3-1.1c0-0.2,0.1-0.3,0.3-0.3l-0.3-0.6
		c0-0.2,0.1-0.3,0.3-0.3c0-0.2-0.1-0.3-0.3-0.3c0-0.2,0.1-0.9,0.3-2.2c0-0.3-0.1-2-0.3-5.1l0.3-0.5c0-0.2-0.1-0.3-0.3-0.3l0.6-6.5
		h-0.3l0.3-0.6c0-0.2-0.1-0.3-0.3-0.3l0.3-0.6v-0.3l-0.3-1.4c0.2,0,0.3-0.1,0.3-0.3h-0.3l0.3-0.6v-0.8c0-0.2-0.1-0.3-0.3-0.3
		l0.3-0.5v-2.5c0-0.2-0.1-0.3-0.3-0.3c0-0.2,0.1-0.3,0.3-0.3l-0.3-1.1c0-1.1,0.2-2.2,0.6-3.4l-0.3-1.7v-1.4l0.3-0.6h-0.3
		c0.6-4.4,0.9-6.9,1.1-7.6c-0.2-0.3-0.3-0.7-0.3-1.1v-1.7H305.7z M282.4,127.6c0.1,2.6,0.4,3.9,0.8,3.9h0.8v-2.8l0.3-1.4
		L282.4,127.6z M287.4,117.5l-0.6-0.3h-0.3c-0.2,0-0.3,0.1-0.3,0.3l-0.6-0.3h-2.5v2.2c0.6,0,0.8,0.1,0.8,0.3
		c2.8-0.9,4.6-1.4,5.4-1.4h3.4V118l-0.3-1.4h-1.1c-0.2,0-0.3,0.1-0.3,0.3l-0.6-0.3C288.5,116.8,287.4,117.1,287.4,117.5z
		 M286.1,85.1h0.3l-0.3,0.6v1.7l0.3,1.7c0,0.2-0.1,0.3-0.3,0.3l0.3,1.1c-0.2,8-0.4,12.5-0.6,13.5c0.2,0.4,0.3,0.6,0.3,0.8h-0.3
		c0.3,1.3,0.5,2,0.8,2c0.4-4.7,0.8-7.3,1.1-7.9c0-0.2-0.1-0.3-0.3-0.3l0.3-2.8v-0.3l-0.3-2h0.3l-0.3-0.6l0.3-1.4l-0.3-1.1l0.3-1.4
		l-0.3-0.6L288,84c-0.4-0.2-0.6-0.3-0.8-0.3C286.4,83.9,286.1,84.4,286.1,85.1z M295.3,101.7v2h0.3v-2H295.3z M297.6,123.4h0.3
		l-0.3,0.6v2.3h0.3c0.2-1.7,0.4-2.5,0.6-2.5c-0.2-0.4-0.3-0.6-0.3-0.8l0.3-1.4C298.1,121.4,297.8,122.1,297.6,123.4z M300.4,81.5
		c0,0.9-0.1,1.8-0.3,2.8h0.3c-0.4,0.9-0.6,2.6-0.6,5.1v0.3c0,0.2,0.1,0.3,0.3,0.3l-0.3,0.6v9.5h0.6v-3.9l0.3-2h-0.3l0.3-0.6v-2
		c0-0.2-0.1-0.3-0.3-0.3l0.3-0.6v-9.3H300.4z M299.8,100.6v2.2h0.6l-0.3-0.6c0.2-0.4,0.3-0.6,0.3-0.8h-0.3l0.3-0.6v-0.3H299.8z"/>
	<path d="M326.2,77.9v0.3l0.6-0.3h1.4c0.4,0,0.8,0.1,1.1,0.3l0.6-0.3c5.6,0,8.6,0.7,9.3,2.2c1.1,1.6,1.9,4.6,2.5,9h-0.3
		c0.2,0.4,0.3,0.6,0.3,0.8c0,1.5,0.2,3.5,0.6,5.9c0,0.2-0.1,0.3-0.3,0.3l0.3,1.4v2c0,0.2-0.1,0.3-0.3,0.3l0.6,1.7l-0.6,0.3
		c0.4,0.6,0.6,1.2,0.6,1.7v1.1c0,0.4-0.1,0.8-0.3,1.1c0.2,0.3,0.3,0.7,0.3,1.1v2l-0.3,0.6h0.3c0,0.2-0.1,0.3-0.3,0.3
		c0.2,2.2,0.4,3.4,0.6,3.4l-0.3,0.6c0,0.6,0.1,0.8,0.3,0.8c-0.3,2.5-0.5,4.2-0.8,5c0,0.2,0.1,0.3,0.3,0.3c0,8-0.8,13.3-2.5,16
		c-0.3,0-1.5,0.6-3.4,1.7h-0.6c-0.4-0.2-0.6-0.3-0.8-0.3v0.3l-0.6-0.3h-0.6l-1.7,0.3l-0.6-0.3c-2.1,0.3-4.7,0.6-7.9,0.9
		c-5.6-0.6-8.4-1.4-8.4-2.5c-1,0-1.9-1.9-2.8-5.6v-3.1l-0.3-0.6h0.3l-0.3-0.6v-2.2c0-0.4,0.1-0.8,0.3-1.1c-0.2-0.3-0.3-0.7-0.3-1.1
		v-2c0-0.2-0.1-0.3-0.3-0.3l0.3-0.6c0-0.6-0.1-0.8-0.3-0.8c0.2-0.7,0.4-2.7,0.6-5.9c-0.2-1.8-0.3-3.4-0.3-5h0.3l-0.3-0.5
		c0-0.8,0.2-2.4,0.6-4.8c-0.2-0.4-0.3-0.6-0.3-0.8h0.3l-0.3-0.6v-1.4l0.3-0.6h-0.3l0.3-0.6v-3.6c0-0.9,0.4-3.1,1.1-6.7h-0.3
		c0-4,2.3-6.7,7-8.2C321.9,78.7,323.8,78.4,326.2,77.9z M313.6,99.5c0.2,3.1,0.4,4.8,0.6,5.1c-0.2,0.3-0.3,0.7-0.3,1.1v0.8
		c0,0.2,0.1,0.3,0.3,0.3l-0.3,0.6l0.3,2.8c-0.2,0-0.3,0.1-0.3,0.3c0.2,0,0.3,0.1,0.3,0.3h-0.3c0,0.2,0.1,0.3,0.3,0.3l-0.3,1.4v4.2
		l-0.3,0.6h0.3l-0.3,0.6v0.5c0,0.2,0.1,0.3,0.3,0.3l-0.3,0.6l0.6,3.4h-0.3l0.3,0.5v1.1c0,0.4-0.1,0.8-0.3,1.1
		c0.5,6.9,2.8,10.4,6.7,10.4v-0.3c0.2,0.2,1.3,0.4,3.4,0.5v-0.3c1.1,0.4,3.4,0.5,7,0.5c3.6-0.5,5.7-1.1,6.2-1.7v0.3
		c1.5,0,2.4-3,2.8-9v-2.2l0.3-1.7l-0.3-0.6c0.2-0.3,0.3-0.7,0.3-1.1V120c0-0.2-0.1-0.3-0.3-0.3c0.4-0.8,0.6-2.1,0.6-3.7v-4.8
		c0-1.3,0.1-3.4,0.3-6.2h-0.3l0.3-0.5c-0.2-0.4-0.3-0.6-0.3-0.8h0.3l-0.3-0.6v-0.6c0-4.7-0.4-9.8-1.1-15.2l0.3-0.5
		c-1.1-4.1-2-6.2-2.5-6.2c-0.5-0.6-1.9-1.1-4.2-1.7c-10.9,0.6-16.3,2-16.3,4.2C314.6,86.8,313.6,92.2,313.6,99.5z M325.7,82.9
		l1.1,0.3l1.1-0.3c4.5,0.7,6.7,2.1,6.7,4.2c0.3,0,0.6,1.2,1.1,3.6c0,0.2-0.1,0.3-0.3,0.3c0.2,1.7,0.4,2.5,0.6,2.5
		c0,0.2-0.1,0.3-0.3,0.3l0.3,1.4v2.5c0,0.6,0.1,1.1,0.3,1.4l-0.3,1.7v5.3c0,0.4,0.1,0.8,0.3,1.1c-0.2,0.3-0.3,0.7-0.3,1.1v2.8
		c0,0.2,0.1,0.3,0.3,0.3l-0.3,0.6v1.1c0,0.2,0.1,0.3,0.3,0.3l-0.3,0.5c0.2,0.4,0.3,0.6,0.3,0.8h-0.3l0.3,0.6l-0.3,1.1l0.3,0.6
		l-0.3,1.7c0.2,1.3,0.3,2.1,0.3,2.2c-0.2,0.4-0.3,0.6-0.3,0.8h0.3l-0.3,0.6v2.8c-0.4,3.6-1.4,5.3-2.8,5.3c-3.1,0.6-4.7,1-4.8,1.1
		l-0.6-0.3h-1.4c-5.1-0.5-7.6-1.5-7.6-2.8c-0.3-0.9-0.7-2.9-1.1-5.9c0.2-0.4,0.3-0.6,0.3-0.8l-0.3-0.6c0-0.2,0.1-0.3,0.3-0.3
		l-0.3-1.4v-0.3c0-1.9-0.1-4.2-0.3-7l0.3-1.1c-0.2-0.7-0.3-1.5-0.3-2.2h0.3l-0.3-0.6v-3.6c0-0.4,0.1-0.8,0.3-1.1
		c-0.2-0.3-0.3-0.7-0.3-1.1v-2.2l0.3-1.7l-0.3-0.6l0.3-0.6c0-0.4-0.1-0.5-0.3-0.5c0.4-4.1,0.9-7.8,1.7-11
		C321.9,84.4,324,83.3,325.7,82.9z M319.5,94.4c0,0.2,0.1,0.3,0.3,0.3c-0.2,1.9-0.3,3.3-0.3,4.2v2.8c0,0.2,0.1,0.3,0.3,0.3
		c-0.2,0.6-0.4,0.8-0.6,0.8l0.3,1.4v0.6l-0.3,0.5h0.3c0,0.2-0.1,0.3-0.3,0.3l0.3,2.8v2c0,0.2,0.1,0.3,0.3,0.3l-0.3,0.6v0.3l0.3,0.6
		c-0.2,0-0.3,0.1-0.3,0.3h0.3l-0.3,0.6v1.4c0,0.2,0.1,0.3,0.3,0.3l-0.3,0.5v2c0,0.2,0.1,0.3,0.3,0.3c-0.2,0.4-0.3,0.6-0.3,0.8
		c0.2,0.6,0.4,0.9,0.6,0.9l-0.3,0.5c0,6.2,0.8,9.3,2.5,9.3c1.3,0.6,2.3,0.8,3.1,0.8h0.8c4.7-0.4,7-0.9,7-1.7l1.1-7l-0.3-0.6V111
		c0-0.2,0.1-0.3,0.3-0.3l-0.3-0.5c0-0.2,0.1-0.3,0.3-0.3l-0.3-0.5v-0.3c0-0.2,0.1-0.3,0.3-0.3l-0.3-0.6v-0.3l0.3-0.6h-0.3l0.3-0.6
		v-1.4l-0.3-0.5h0.3l-0.3-0.6c0-0.2,0.1-0.3,0.3-0.3l-0.3-0.6v-0.3l0.3-1.7c0-0.2-0.1-0.3-0.3-0.3l0.3-1.1c-0.2-4.2-0.5-7.3-0.9-9.3
		l0.3-0.6c-0.3-3.4-1.9-5.1-4.8-5.1c-1.3-0.2-2.4-0.3-3.4-0.3c-3.2,0.8-4.8,1.9-4.8,3.4c-0.6,1.8-0.9,3.9-1.1,6.2H319.5z"/>
	<path d="M373.7,78.2h1.4c0.5,0,0.9,0.9,1.1,2.8v3.7c0,0.6,0.1,1.1,0.3,1.4l-0.3,1.7v0.6c0,1.6,0.1,3.3,0.3,5l-0.3,1.1
		c0.2,1.6,0.3,2.8,0.3,3.7c-0.2,4-0.3,6.3-0.3,7c0.2,0,0.3,0.1,0.3,0.3c-0.2,0-0.3,0.1-0.3,0.3h0.3l-0.3,0.5
		c0.1,2.1,0.3,3.1,0.5,3.1l-0.3,0.5v2.8c0,0.2-0.1,0.3-0.3,0.3l0.3,0.6c-0.2,0.3-0.3,0.7-0.3,1.1h0.3l-0.3,0.5v2.5l0.3,1.7l-0.6,2.8
		l0.3,0.5l-0.3,0.6c0,0.2,0.1,0.3,0.3,0.3c0,4.7-1,9.1-3.1,13.2c-0.4,0-0.6,0.2-0.6,0.5l-0.5-0.3c-1.2,0.6-2.1,0.9-2.5,0.9h-2.5
		c-0.2,0-0.3-0.1-0.3-0.3c-0.4,0.2-0.6,0.3-0.8,0.3c-0.4-0.2-0.6-0.3-0.8-0.3v0.3c-0.3-0.2-1.3-0.4-2.8-0.6c-0.2,0-0.3,0.1-0.3,0.3
		c-4.1-0.3-6.2-0.5-6.2-0.8c-0.2,0-0.3,0.1-0.3,0.3c-5.8-0.8-8.7-3.6-8.7-8.4c0-2.8-0.1-5.4-0.3-7.9c0.2-0.4,0.3-0.6,0.3-0.8
		c-0.4-0.8-0.6-2.3-0.6-4.5v-8.7c0-0.4,0.1-0.8,0.3-1.1c0-0.2-0.1-0.3-0.3-0.3l0.3-2v-0.3c0-4.8,0.2-7.7,0.6-8.7
		c-0.2-0.3-0.3-0.7-0.3-1.1l0.3-1.4l-0.3-0.5c0.2-0.4,0.3-0.7,0.3-0.9h-0.3c0.1-0.3,0.3-1.4,0.6-3.3c0-0.2-0.1-0.3-0.3-0.3
		c0.4-5.4,0.9-8.2,1.4-8.2c0.4,0,0.6-0.1,0.6-0.3l1.4,0.3h3.7c1,0,1.6,0.6,1.7,1.7l-0.3,0.6v7.9c0,0.4-0.1,0.8-0.3,1.1
		c0,0.2,0.1,0.3,0.3,0.3c0,0.6-0.6,5.2-1.7,13.8h0.3c0,0.2-0.1,0.3-0.3,0.3c0.4,1.7,0.6,2.9,0.6,3.7H354c0.2,0.4,0.3,0.6,0.3,0.8
		c-0.2,1-0.3,1.5-0.3,1.7c0.4,0.7,0.6,1.4,0.6,2.2c0,0.5-0.1,1.2-0.3,2.2l0.3,1.7c-0.2,0-0.3,0.1-0.3,0.3h0.3l-0.3,0.6v0.6
		c0,0.4,0.1,0.8,0.3,1.1l-0.3,0.5l0.6,2.2c-0.2,0-0.3,0.1-0.3,0.3c0.2,0,0.6,0.7,1.1,2c0.5,1.6,2.6,3.2,6.2,4.8
		c3.2-0.6,4.8-2.2,4.8-4.8c0.1-0.6,0.5-3.1,1.1-7.6h-0.3l0.3-0.6v-0.3c0-2.2,0.1-5.7,0.3-10.4h-0.3l0.3-0.5v-0.6l-0.3-0.6h0.3
		l-0.3-0.6c0.2-2.2,0.3-3.8,0.3-4.8c-0.2-1.3-0.3-2.1-0.3-2.2c0.2,0,0.3-0.1,0.3-0.3h-0.3l0.3-0.6c0-0.2-0.1-0.3-0.3-0.3
		c0-0.2,0.1-0.5,0.3-0.8c0-0.6-0.1-2.2-0.3-4.8c0-0.8,0.1-2.5,0.3-5.1c-0.2-1.8-0.3-3.6-0.3-5.3C370.6,78.4,372.5,78.2,373.7,78.2z
		 M348.4,128.2c0.4,1.1,0.6,2.3,0.8,3.6h0.6v-0.3c-0.6-1.8-0.9-3-0.9-3.6L348.4,128.2z M349,110.2c0.2,0.7,0.3,1.4,0.3,2h0.3v-2.2
		L349,110.2z M349.5,98.9v2h0.3v-2H349.5z M352.9,80.4c0,0.2-0.1,0.3-0.3,0.3l0.3,1.7h0.3l0.3-1.4C353.5,80.6,353.3,80.4,352.9,80.4
		z M356.6,128.7v0.3l2,1.4c0.4,0,0.6-0.2,0.6-0.6C357.5,129.1,356.7,128.7,356.6,128.7z M369.8,113c0,0.1-0.1,1.3-0.3,3.7h0.3
		c-0.4,0.7-0.6,1.4-0.6,2.2v0.3c0.1,0.4,0.3,0.5,0.6,0.5c0.4-2.2,0.5-3.5,0.5-3.7H370c0-0.2,0.1-0.3,0.3-0.3
		c-0.2-0.7-0.3-1.6-0.3-2.8H369.8z M372,84.3c0,0.4-0.1,0.6-0.3,0.6l0.3,2.8v2h0.5V88c0-0.2-0.1-0.3-0.3-0.3c0-0.2,0.1-0.3,0.3-0.3
		c-0.2-0.7-0.3-1.7-0.3-3.1H372z M373.4,79.8l0.6,2.8h0.3v-0.6c-0.2-1-0.3-1.8-0.3-2.2H373.4z M374,92.5v1.7h0.3l-0.3,0.6V95h0.3
		c0-0.4,0.1-0.6,0.3-0.6c-0.2-0.8-0.3-1.4-0.3-2H374z M374,95.6v3.4h0.3v-3.4H374z"/>
	<path d="M412.5,77.9h1.1c0,0.4,0.1,0.5,0.3,0.5l-0.3,1.4v6.5c0,0.2-0.1,0.3-0.3,0.3c0,0.2,0.1,0.3,0.3,0.3l-0.3,2v5.6
		c0,0.2,0.1,0.3,0.3,0.3l-0.3,0.6v1.1c0,0.6,0.1,1.1,0.3,1.4c-0.2,3.5-0.5,6.5-0.8,9h0.3c-0.2,0.4-0.3,0.6-0.3,0.8
		c0.1,3.6,0.2,5.3,0.5,5.3l-0.8,5.6c0.2,0.3,0.3,0.7,0.3,1.1c0,0.2-0.1,0.5-0.3,0.8l0.3,1.7v0.5c0,0.2-0.1,0.3-0.3,0.3l0.3,0.6v10.7
		c0,0.4-0.1,0.8-0.3,1.1c0.2,0.3,0.3,0.7,0.3,1.1c-0.2,0.4-0.3,0.6-0.3,0.8c-1.1,0-4.5,0.2-10.1,0.6c-0.9-3.6-1.9-6.1-2.8-7.6
		c-5.4-16.9-8.7-26.6-9.9-29.2c-0.4,0.1-0.6,0.2-0.6,0.5c0,0.2,0.1,0.3,0.3,0.3l-0.3,1.4v3.4c0,0.8,0.2,2.9,0.6,6.2h-0.3l0.3,0.6
		v0.3c0,0.2-0.1,0.3-0.3,0.3l0.3,0.6v4.5c0.1,1.3,0.3,2,0.6,2c-0.2,1.7-0.4,2.5-0.6,2.5c0,0.2,0.1,0.3,0.3,0.3l-0.3,2v1.4
		c0.1,0.4,0.3,0.6,0.6,0.6c-0.2,1.5-0.4,2.2-0.6,2.2c0.2,0.4,0.3,0.6,0.3,0.8l-0.3,1.4h0.3c-0.2,0.4-0.3,0.6-0.3,0.8l0.3,0.6
		l-0.3,0.6c0.2,1,0.3,1.8,0.3,2.2c-0.6,0.9-2.3,1.4-5,1.4c-1.3-0.4-2.4-0.6-3.4-0.6h-1.1c0-0.7-0.1-1.1-0.3-1.1l0.3-0.5
		c0-0.2-0.1-0.3-0.3-0.3l0.3-0.6v-2.5c0-0.2,0.1-0.3,0.3-0.3c-0.2-1.9-0.4-2.8-0.6-2.8l0.3-0.6v-1.7c0-0.2-0.1-0.3-0.3-0.3l0.3-0.6
		c-0.2-3.9-0.3-6.6-0.3-8.1h0.3c-0.2-0.4-0.3-0.7-0.3-0.9c0-0.5,0.1-3,0.3-7.6h0.3l-0.3-0.5l0.3-1.7c-0.4-0.6-0.6-1.2-0.6-1.7v-1.4
		c0-0.2,0.1-0.3,0.3-0.3l-0.3-0.6v-3.4c0-0.2,0.1-0.3,0.3-0.3l-0.3-0.6v-2.8c0-1.3,0.1-3.4,0.3-6.2h-0.3l0.3-0.6v-4.5
		c0-0.2,0.1-0.3,0.3-0.3l-0.3-0.6c0-0.2,0.1-0.3,0.3-0.3c-0.2-1.9-0.4-2.8-0.6-2.8c0-0.4,0.7-0.9,2-1.4c0.1,0.4,0.3,0.6,0.6,0.6h2
		c0.2,0,0.3-0.1,0.3-0.3c0.4,0.2,0.6,0.3,0.8,0.3c0.7,0,2.2-0.2,4.2-0.6c0.2,0,0.3,0.1,0.3,0.3l1.4-0.3h1.4c0.6,0.2,1.3,1.2,2,3.1
		h-0.3c1.5,5.9,2.7,9.8,3.4,11.5c1.9,6.3,3.2,10,3.9,11.2c0,0.1,0.7,2.2,2,6.2c0.4,0,0.7-1.1,0.9-3.4l-0.6-2.8
		c0.2,0,0.3-0.1,0.3-0.3h-0.3l0.3-0.5c-0.2-3.7-0.3-6.6-0.3-8.4l-0.3-0.5l0.3-0.6l-0.3-1.4l0.3-0.6c-0.2-0.3-0.3-0.7-0.3-1.1h0.3
		c-0.2-0.3-0.4-1.2-0.5-2.8l0.3-1.1c-0.2-0.4-0.3-0.7-0.3-0.9c0.2-0.3,0.3-0.7,0.3-1.1h-0.3l0.3-0.6v-2.5c0-0.2,0.1-0.3,0.3-0.3
		c-0.2-2.2-0.5-3.4-0.8-3.6c0.4,0,0.5-0.4,0.5-1.1C407.8,78,410.6,77.9,412.5,77.9z M406.8,80.1l-0.6-0.3h-0.8v10.1l0.3,0.6h-0.3
		c0.2,0.2,0.4,1.8,0.6,4.8l-0.3,2.8c0.2,0.3,0.3,0.7,0.3,1.1h-0.3c0.3,0,0.6,3.6,0.8,10.7l-0.8,5c0.2,0.4,0.3,0.7,0.3,0.9
		c-0.2,0.3-0.3,0.7-0.3,1.1c-3.2-5.1-4.8-8.5-4.8-10.4c-0.6-0.4-1.6-2.6-2.8-6.7c-0.4,0-0.7-1-0.8-3.1c-1-2.1-1.8-4.1-2.2-5.9h0.3
		c-1.6-5.9-2.7-9-3.4-9.3l-2-0.3c-0.5,0-3,0.2-7.6,0.6v0.3c-0.2,6.5-0.3,9.8-0.3,10.1c-0.2,0-0.3,0.1-0.3,0.3h0.3l-0.3,0.5
		c0,0.2,0.1,0.3,0.3,0.3l-0.3,1.4c0,0.6,0.1,0.8,0.3,0.8l-0.3,2.8v2c0,1.1,0.1,2.6,0.3,4.5l-0.3,0.5c0.3,3,0.4,4.7,0.6,5l-0.6,3.1
		h0.3l-0.3,0.5v0.6c0,0.2,0.1,0.3,0.3,0.3l-0.3,0.6v1.1l0.3,1.7c-0.2,0.3-0.3,0.8-0.3,1.4h0.3c0,0.2-0.1,0.3-0.3,0.3l0.6,5.6
		c-0.2,0-0.3,0.1-0.3,0.3h0.3c0,0.2-0.1,0.3-0.3,0.3l0.3,1.4v7l0.3,1.4c2.2,0.2,3.8,0.3,4.8,0.3h0.3v-1.7c0-0.4,0.1-0.8,0.3-1.1
		c0-0.2-0.1-0.3-0.3-0.3l0.3-3.4v-1.7c0-0.2-0.1-0.3-0.3-0.3l0.3-0.6c0-0.2-0.1-0.5-0.3-0.8l0.6-2.5c-0.2-3.3-0.3-6.1-0.3-8.4v-0.8
		c0-0.2,0.1-0.3,0.3-0.3l-0.3-0.6v-1.4c0-0.2,0.1-0.3,0.3-0.3l-0.3-0.6c0-0.2,0.1-0.3,0.3-0.3c-0.4-0.7-0.6-1.8-0.6-3.1v-1.4
		c0-0.2-0.1-0.3-0.3-0.3c0.4-0.7,0.6-1.4,0.6-2.2v-0.6c0-1.1-0.1-1.7-0.3-2c0.2-1,0.3-1.8,0.3-2.5v-4.5h0.5c1.8,4.9,3.2,8.2,4.2,9.8
		l3.6,11c-0.2,0-0.3,0.1-0.3,0.3c0.5,0,1.8,3.6,3.9,10.7c2,5.1,3.4,8.2,4.2,9.3l0.6-0.3l1.4,0.5c2.9,0,4.4-0.6,4.5-1.7v-0.6
		c-0.2-0.3-0.3-0.7-0.3-1.1h0.3c0-0.2-0.1-0.3-0.3-0.3l0.3-1.4v-3.4c0-0.6-0.1-0.8-0.3-0.8l0.3-1.4v-6.7c0-3.3,0.2-5.5,0.6-6.5
		l-0.3-1.7v-1.7c0-0.2-0.1-0.3-0.3-0.3l0.3-0.6c0.2-3.3,0.3-5.9,0.3-7.9h0.3l-0.3-0.6c0.2-0.4,0.3-0.6,0.3-0.8h-0.3l0.3-0.6v-5.4
		l-0.3-0.5h0.3l-0.3-0.6l0.3-0.5h-0.3l0.3-0.6l-0.3-0.6h0.3l-0.3-0.6c0-0.2,0.1-0.3,0.3-0.3c0-0.2-0.1-0.3-0.3-0.3
		c0.2-2.4,0.4-3.7,0.6-3.7l-0.3-0.6V84c0-0.2,0.1-0.3,0.3-0.3l-0.3-0.6v-1.7c0-0.2,0.1-0.3,0.3-0.3c-0.4-0.8-0.6-1.3-0.6-1.7h-1.1
		C408,79.6,406.8,79.8,406.8,80.1z"/>
	<path d="M433.8,76.1c0.5,0,1.2,0.1,2.2,0.3l1.7-0.3c5.6,1,8.4,2.7,8.4,5.1c0.5,0,1,1.6,1.4,4.8c0,0.2-0.1,0.3-0.3,0.3
		c0.4,2.5,0.6,5.3,0.6,8.2c0.2,0,0.3,0.1,0.3,0.3h-0.3l0.3,0.5v0.9c0,0.2-0.1,0.3-0.3,0.3c0,0.2,0.1,0.3,0.3,0.3
		c0,1.6-0.4,2.7-1.1,3.4c-0.2,0-0.5-0.1-0.9-0.3c-4.1,0.4-6.2,0.7-6.2,0.9c-0.8-0.2-1.5-0.7-2.2-1.4c0.4-1.1,0.6-1.9,0.6-2.2
		c-0.2,0-0.3-0.1-0.3-0.3h0.3l-0.3-0.5v-0.6c0-0.2,0.1-0.3,0.3-0.3c-0.2-0.4-0.3-0.6-0.3-0.8c0.2-0.4,0.3-0.6,0.3-0.8
		c-0.2,0-0.3-0.1-0.3-0.3h0.3c-0.6-4.7-1.2-7-2-7l-2.2-1.1c-2.8,0.6-4.6,1.5-5.3,2.8c-2.1,2.9-3.1,6.9-3.1,11.8h0.3
		c-0.2,1.7-0.4,2.5-0.5,2.5l0.3,0.6v0.6c0,0.4-0.1,0.8-0.3,1.1l0.3,0.6c0,0.2-0.1,0.3-0.3,0.3l0.3,2.8v1.1c0,0.2-0.1,0.3-0.3,0.3
		l0.3,0.5v0.3c0,2.2,0.1,5.4,0.3,9.8h-0.3c0.4,0.9,0.5,1.8,0.5,2.8l-0.3,0.5c0.2,0.3,0.3,0.7,0.3,1.1l-0.3,0.6
		c0.8,3.2,1.9,4.8,3.4,4.8c0,0.2,0.1,0.3,0.3,0.3h1.7c0.2,0,0.3-0.1,0.3-0.3c0.2,0,0.3,0.1,0.3,0.3c3.2-0.7,4.8-1.8,4.8-3.4
		c0.2-1.7,0.4-2.5,0.5-2.5c0-0.2-0.1-0.3-0.3-0.3l0.3-1.4v-0.6c0-0.2-0.1-0.3-0.3-0.3c0-0.2,0.1-0.3,0.3-0.3c0-0.7-0.3-1.3-0.8-2
		l-0.6,0.3c-0.7-0.4-1.4-0.6-2.2-0.6l-0.6,0.3l-0.5-0.3c-0.4,0-1.1,0.2-2.2,0.6v-0.3l-0.6,0.3H429c-0.3,0-0.6-0.3-0.9-0.8
		c0.1-2.4,0.3-3.7,0.6-3.7l-0.6-5.6c0.1,0,0.5-0.1,1.1-0.3c2,0,8.1-0.3,18.3-0.9l0.3,1.4v2.2l-0.3,1.4h0.3l-0.3,0.5
		c0,0.2,0.1,0.3,0.3,0.3c-0.4,2.2-0.6,3.8-0.6,4.8l0.3,0.6l-0.3,1.7v2.8c0,0.6,0.1,0.9,0.3,0.9l-0.3,1.4v9c-1,2.1-2.5,3.1-4.5,3.1
		h-0.3c-0.4,0-0.8-0.1-1.1-0.3c-1.5,0.8-4.7,1.1-9.6,1.1v0.3l-0.6-0.3c-0.2,0-0.3,0.1-0.3,0.3c-5.4,0-9.1-0.8-11-2.2
		c-0.7-0.9-1.6-2.4-2.5-4.5v-0.3c0-1.7-0.1-4.2-0.3-7.3l0.3-0.6c-0.2-0.3-0.3-0.7-0.3-1.1v-1.7c0-0.2,0.1-0.3,0.3-0.3l-0.3-0.6v-2
		c0-0.2,0.1-0.3,0.3-0.3c0-0.2-0.1-0.3-0.3-0.3l0.3-1.4v-5.1c0-0.2-0.1-0.3-0.3-0.3l0.3-0.6v-1.1c0-0.2-0.1-0.3-0.3-0.3l0.3-0.5
		c-0.2-3.3-0.3-6.1-0.3-8.2h0.3l-0.3-0.6v-4.5l0.3-1.7c0-0.2-0.1-0.3-0.3-0.3c1.2-10,4-15.4,8.2-16.3c2.8-0.9,4.9-1.5,6.5-1.7v0.3
		C432.4,76.3,433,76.1,433.8,76.1z M428.5,79h0.3c1-0.2,1.8-0.3,2.2-0.3v-0.5h-0.8C429,78.2,428.5,78.5,428.5,79z"/>
	<path d="M489.9,77c0,0.4,0.3,0.5,0.9,0.5c3.6,0.1,5.3,0.3,5.3,0.6l0.6-0.3c0.2,0,0.3,0.1,0.3,0.3c0.2,0,0.3-0.1,0.3-0.3
		c1.5,0.4,3.3,0.5,5.3,0.5h0.6l0.6-0.3v2.8c0,3.7-0.2,6.2-0.6,7.3c0.4,0.6,0.6,1.2,0.6,1.7V91h-0.6c0.2,1.9,0.4,2.8,0.6,2.8
		c-0.2,0.4-0.3,0.6-0.3,0.8c0.2,0.4,0.3,0.6,0.3,0.8h-0.3c0.1,0.5,0.3,1.6,0.6,3.4h-0.3c0,0.2,0.1,0.3,0.3,0.3c-0.1,1.3-0.3,2-0.6,2
		c0.4,0.9,0.6,2.6,0.6,5.1v2.2c0,0.2-0.1,0.3-0.3,0.3l0.3,0.6v2.2l-0.6,0.8c0.4,0,0.7,0.7,0.9,2c0,0.2-0.1,0.9-0.3,2.2l0.3,2
		l-0.3,0.5l0.3,0.6c-0.2,0.4-0.3,0.6-0.3,0.8h0.3c0,0.2-0.1,0.3-0.3,0.3l0.3,3.4v0.8l-0.3,1.4h0.3L504,127v1.4
		c0,0.2,0.1,0.3,0.3,0.3c0,0.2-0.1,0.3-0.3,0.3l0.3,1.4c-0.2,2.1-0.3,4-0.3,5.6v0.3c0,0.6-0.4,0.8-1.1,0.8c-1.3,0-3.9,0.1-7.6,0.3
		l-0.6-0.8l0.3-0.6h-0.3l0.3-0.5c-0.2-1.6-0.3-2.9-0.3-3.9l0.3-0.5c-0.2,0-0.3-0.1-0.3-0.3h0.3l-0.3-0.6v-7.3c0-0.2-0.1-0.3-0.3-0.3
		c0-0.2,0.1-0.3,0.3-0.3l-0.3-1.4v-0.3l0.3-1.4c-0.2,0-0.3-0.1-0.3-0.3h0.3c-0.4-2.2-0.6-3.8-0.8-4.8c-0.7-0.3-1.6-0.6-2.8-0.9
		c-2.6,0.2-4.8,0.7-6.5,1.4c-1.7,0-2.5,1.4-2.5,4.2h-0.3c0,0.2,0.1,0.3,0.3,0.3c-0.9,4.3-1.6,6.5-2,6.7c0.2,0.4,0.3,0.6,0.3,0.8
		c0,3-0.2,4.5-0.6,4.5c0,0.2,0.1,0.3,0.3,0.3c-0.4,2.7-0.5,4.5-0.5,5.6c0.2,0,0.3,0.1,0.3,0.3c0,0.8-2.3,1.5-7,2
		c0,0.2-0.2,0.3-0.6,0.3c-0.4-0.2-0.6-0.3-0.8-0.3c0-1.3-0.1-2.1-0.3-2.2c0.4-3.6,0.6-6.7,0.6-9.3h-0.3l0.3-0.5
		c0.2-3.5,0.3-6,0.3-7.6h0.3c0-0.2-0.1-0.3-0.3-0.3c0.4-2.2,0.6-4.8,0.6-7.9v-1.4c0-0.2-0.1-0.3-0.3-0.3l0.3-0.5v-1.7
		c0-0.2-0.1-0.3-0.3-0.3l0.3-0.6v-0.3l-0.3-3.4c0.2,0,0.3-0.1,0.3-0.3h-0.3l0.3-0.6v-2.5l0.3-2h-0.3l0.3-0.6V95
		c0-0.2-0.1-0.3-0.3-0.3l0.3-0.6v-1.4c0-1.1-0.1-2.6-0.3-4.5c0-0.2,0.1-0.3,0.3-0.3l-0.3-1.4v-2.8c0-0.2,0.1-0.3,0.3-0.3l-0.3-0.6
		l0.3-2.8c-0.2-0.4-0.3-0.6-0.3-0.8c0.4-0.4,1.7-0.8,3.7-1.1l0.6,0.3c1-0.4,3.8-0.6,8.4-0.8l0.6,0.3l1.4-0.6v0.3L489.9,77z
		 M473.6,122c-0.2,1.9-0.3,3.3-0.3,4.2v2.2l0.3,0.6c-0.2,0-0.3,0.1-0.3,0.3l0.6,0.3v-4.5c0-0.2,0.1-0.3,0.3-0.3l-0.3-0.6l0.3-0.6
		l-0.3-0.5c0.2-0.3,0.3-0.7,0.3-1.1H473.6z M474.2,116.4c-0.4,2.7-0.6,4.3-0.6,4.8v0.3h0.3c0.4-1.5,0.6-2.4,0.6-2.8v-2.2H474.2z
		 M474.2,89.1c0.2,1,0.3,1.8,0.3,2.2c-0.2,0.4-0.3,0.6-0.3,0.8h0.6c0-0.8,0.1-1.4,0.3-1.7C474.8,89.6,474.5,89.1,474.2,89.1z
		 M474.2,111v5.1c0.4,0,0.6-0.2,0.6-0.6h-0.3l0.3-0.6v-0.6c0-0.2-0.1-0.3-0.3-0.3l0.3-0.6v-0.3l-0.3-0.5h0.3
		c-0.2-0.3-0.3-0.9-0.3-1.7H474.2z M475.3,80.1c0.2,0.9,0.3,2.1,0.3,3.7h0.3c0-0.1,0.1-0.7,0.3-1.7h-0.3l0.8-1.7v-0.6L475.3,80.1z
		 M477,85.1c0,0.8-0.1,1.4-0.3,1.7h0.3l-0.3,0.5v0.3h0.3c0.4,0,0.5-0.2,0.5-0.5V86l-0.3-0.6c0.2,0,0.3-0.1,0.3-0.3H477z M478.4,94.1
		v2.5l-0.3,0.6h0.3l-0.3,0.6c0,0.2,0.1,0.3,0.3,0.3c-0.2,1.7-0.4,2.7-0.6,3.1h0.3l-0.3,0.6v0.8c0,0.2,0.1,0.3,0.3,0.3l-0.6,3.1h0.3
		l-0.3,0.6v1.4l-0.3,3.4h0.3l-0.3,0.6v2h0.3c0-0.5,0.2-0.9,0.6-1.4h-0.3l0.3-0.6v-3.1c0-0.2,0.1-0.3,0.3-0.3l-0.3-0.6v-0.3l0.3-1.4
		h-0.3c0.3-0.5,0.6-1.7,0.8-3.7c0-0.2-0.1-0.3-0.3-0.3l0.3-1.4v-3.4c0-0.4,0.1-0.8,0.3-1.1l-0.3-0.5c0.2-0.4,0.3-0.6,0.3-0.8
		c-0.2-0.4-0.3-0.7-0.3-0.9H478.4z M477.6,129.6v2.2h0.3v-2.2H477.6z M478.1,127.3l-0.3,1.4v0.6h0.3l0.3-1.7v-0.3H478.1z
		 M480.1,116.4l-0.3,2c0.3,0,0.6-0.7,0.9-2H480.1z M483.2,87.4l-1.7,13.5h0.5c0.3,0,0.6-0.8,0.9-2.5l-0.3-0.6
		c0.2-0.3,0.3-0.7,0.3-1.1h-0.3c0.2-0.3,0.5-2.2,0.8-5.9l-0.3-0.5c0.4-1.6,0.6-2.5,0.6-2.8H483.2z M484,93.9l-0.3,2.5L484,97
		c-0.4,1.1-0.6,2.6-0.6,4.5c0.4,0,0.6-0.2,0.6-0.6c0-0.6,0.1-2.6,0.3-5.9v-1.1H484z M486.3,93.9h0.3c-0.6,0.9-0.8,2.9-0.8,6.2v0.6
		h0.3c0.3-2.1,0.5-3.1,0.8-3.1c0-0.2-0.1-0.3-0.3-0.3c0.6-2.4,0.9-4,0.9-4.8l-0.3-1.4c0.2-0.3,0.3-0.7,0.3-1.1
		C487.1,89.9,486.7,91.2,486.3,93.9z M486.6,105.4l-0.3,2c0.2,0,0.3,0.1,0.3,0.3h-0.3c0.2,0.3,0.3,0.7,0.3,1.1h0.6l0.3-2
		c-0.4,0-0.6-0.5-0.6-1.4H486.6z M486.8,86.3c0,0.2-0.1,0.5-0.3,0.9h0.3l-0.3,0.5v1.7c0.6-0.2,0.9-0.8,0.9-1.7l-0.3-0.5
		c0.2-0.4,0.3-0.7,0.3-0.9H486.8z M491.1,84.3l0.3,0.6c0,0.2-0.1,0.3-0.3,0.3l0.3,0.6c-0.1,1.7-0.3,2.5-0.5,2.5l0.3,0.6l-0.3,1.1
		c0.2,0.3,0.3,0.7,0.3,1.1h0.3v-0.5h0.3v0.8c0,0.2-0.1,0.3-0.3,0.3l0.3,0.5V93l-0.3,0.6h0.3l-0.6,2.5c0,0.2,0.1,0.3,0.3,0.3
		l-0.3,1.4v1.7h0.3l1.4-6.7c-0.2-0.3-0.3-0.7-0.3-1.1l0.3-1.4c-0.4-1-0.6-1.7-0.6-2.2h0.3l-0.6-1.1l0.3-0.6
		c-0.4-1.4-0.6-2.2-0.6-2.2L491.1,84.3z M492.8,79.8l0.5,2.8c0.4,0,0.6-0.2,0.6-0.6v-1.1c0-0.2-0.1-0.3-0.3-0.3l0.3-0.6
		c0-0.4-0.2-0.6-0.6-0.6L492.8,79.8z M493.3,105.1c0,0.4-0.1,0.8-0.3,1.1l0.3,1.7v0.3l-0.3,0.5l0.5,0.3h0.3c0-0.2,0.1-0.5,0.3-0.8
		c-0.4-1.4-0.6-2.2-0.6-2.5c0.2,0,0.3-0.1,0.3-0.3L493.3,105.1z M494.7,95v2.8l0.6-0.3L495,97v-1.4l0.3-0.5H494.7z M496.7,84.6
		l-0.3,2v0.8c0,0.4,0.1,0.8,0.3,1.1l-0.6,1.1h0.6l-0.3,0.6h0.6v-5.6H496.7z M496.4,91c0.2,0.4,0.3,0.6,0.3,0.8l-0.3,0.6
		c0.2,0.3,0.3,0.7,0.3,1.1h-0.3c0.2,0.4,0.3,0.6,0.3,0.8h0.3c0-0.4,0.1-0.6,0.3-0.6c-0.2-0.4-0.3-0.7-0.3-0.9l0.3-0.6
		c-0.2-0.3-0.3-0.9-0.3-1.7L496.4,91z M496.7,118.9c0,1.1-0.1,1.7-0.3,1.7l0.3,0.6v2.2h0.6v-1.1c0-0.2-0.1-0.3-0.3-0.3
		c0-0.2,0.1-0.3,0.3-0.3c-0.2-0.7-0.3-1.6-0.3-2.8H496.7z M498.4,79.8v0.3c0.2,1,0.3,1.9,0.3,2.5v1.1l-0.3,0.6
		c0.2,0,0.3,0.1,0.3,0.3h-0.3l0.3,0.6c0,0.4-0.2,0.6-0.6,0.6c0.2,0.4,0.3,0.6,0.3,0.8c-0.2,0.4-0.3,0.6-0.3,0.8h0.3l-0.3,0.6v0.6
		c0,0.2,0.1,0.3,0.3,0.3l-0.3,0.6v0.3h0.6c0-0.8,0.1-1.8,0.3-3.1l-0.3-0.5c0.6-2.8,0.9-4.2,1.1-4.2c-0.2-0.4-0.3-0.6-0.3-0.8v-0.8
		L498.4,79.8z M499.2,93c0,0.4-0.1,0.8-0.3,1.1h0.3l-0.3,0.6c0.1,0.4,0.3,0.5,0.6,0.5V93H499.2z M498.9,120.9v3.1h0.6
		c-0.2-1.7-0.3-2.7-0.3-3.1H498.9z M500.9,90.8l-0.3,1.4v3.7c0,0.4-0.1,0.8-0.3,1.1c0.2,0.3,0.3,0.7,0.3,1.1v3.9l-0.3,0.6l0.6,0.3
		c0-1.6,0.1-2.4,0.3-2.5l-0.3-0.6c0.2-0.3,0.3-0.7,0.3-1.1c0-0.2-0.1-0.3-0.3-0.3l0.3-0.6v-7H500.9z M501.5,112.1v0.6
		c0,0.6,0.1,0.8,0.3,0.8l-0.3,1.4v3.4h-0.6v0.3h0.6l-0.3,0.5l0.3,0.6l-0.3,0.6c0,0.2,0.1,0.3,0.3,0.3l-0.3,1.4v0.3
		c0,0.2,0.1,0.3,0.3,0.3l-0.3,0.6v2l-0.3,1.4h0.3c0.6,0,0.9-2.2,0.9-6.5v-5.6c0-0.4,0.1-0.8,0.3-1.1c-0.2-0.3-0.3-0.8-0.3-1.7
		C501.7,111.6,501.5,111.8,501.5,112.1z"/>
	<path d="M520.8,76.2h6.2c9.4,0.7,14,2,14,3.9c1,1,2.5,1.9,4.5,2.5c1.3,1.3,2,2.7,2,4.2c0,0.2,0.1,0.5,0.3,0.8h-0.3l0.3,0.6v1.4
		c0,1.5,0.1,2.8,0.3,3.9c0,6.4-2.2,9.5-6.7,9.5c-1.5,0-3.5,0.3-5.9,0.8v0.3c2.2,2.3,3.7,4.7,4.5,7c1.2,0.5,2.8,3.9,4.8,10.1
		c0.2,0,0.3,0.1,0.3,0.3l-0.3,0.6c0.4,0,0.6,3.1,0.8,9.3c-0.2,1.9-0.3,3.1-0.3,3.4l0.6,3.4c-5.2,0.2-8.7,0.5-10.4,0.9
		c-1-0.2-1.9-0.3-2.8-0.3h-0.3l0.3-2v-0.3c0-0.2-0.1-0.3-0.3-0.3l0.3-0.5v-1.4c0-0.4-0.2-0.6-0.5-0.6v0.3c-2.1-0.1-3.1-0.6-3.1-1.4
		c0-14.8-0.6-22.2-1.7-22.2c0-0.3-0.6-0.6-1.7-0.8l-2,0.6v-0.6H522c-0.4,0.1-0.5,0.3-0.5,0.6v10.4c0,0.2,0.1,0.3,0.3,0.3
		c-0.2,0.9-0.4,1.4-0.5,1.4l0.3,0.5v0.3c0,0.4-0.1,0.8-0.3,1.1l0.3,0.6l-0.3,1.4c0,0.4,0.1,1.4,0.3,3.1c-0.2,1.6-0.3,2.6-0.3,2.8
		c0,0.4,0.2,2.1,0.5,5c-0.2,0-0.3,0.1-0.3,0.3l0.5,0.3l-0.3,0.6v1.4h-11.5c0-0.6-0.1-0.8-0.3-0.8c0.2-0.5,0.5-1.7,0.8-3.7l-1.4,0.3
		H509l-1.4-0.3v-0.8l0.3-1.4h-0.3c0-0.2,0.1-0.3,0.3-0.3c-0.2-2.8-0.3-4.9-0.3-6.2v-3.4l0.3-2.8h-0.3l0.3-0.6v-1.4
		c0-0.2-0.1-0.3-0.3-0.3l0.3-0.6v-0.3l-0.3-1.4h0.3l-0.3-0.6l0.3-0.5c-0.2,0-0.3-0.1-0.3-0.3h0.3l-0.3-0.6v-1.7
		c0-1.2,0.2-2.5,0.5-3.9h-0.3c0-0.2,0.1-0.3,0.3-0.3c-0.2-1-0.3-1.8-0.3-2.2l0.3-0.6c-0.1-0.8-0.3-1.1-0.5-1.1l0.8-5.3l-0.5-2.2
		c0.2-0.3,0.3-0.7,0.3-1.1V95c0-0.4-0.1-0.8-0.3-1.1l0.3-0.6l-0.3-1.7l0.3-0.5h-0.3c0-0.2,0.1-0.3,0.3-0.3c0-0.2-0.1-0.5-0.3-0.8
		l0.3-2c-0.2-0.4-0.3-0.6-0.3-0.8h0.3l-0.3-0.6c0.4-0.7,0.5-1.4,0.5-2.2v-5.6l-0.3-2C512.9,76.4,517.1,76.2,520.8,76.2z M512.4,89.9
		v4.8c0,0.4,0.2,0.6,0.5,0.6v-2c0-0.2-0.1-0.3-0.3-0.3l0.3-0.5l-0.3-1.4l0.3-1.7C512.6,89.4,512.4,89.6,512.4,89.9z M517.5,107.7
		c0.2,5.6,0.4,8.7,0.6,9.3l-0.3,1.7c0.1,3.6,0.3,5.3,0.6,5.3c-0.4,0.7-0.6,1.8-0.6,3.1c0,0.4,0.1,0.5,0.3,0.5l-0.3,2v5.3
		c0,0.2-0.4,0.6-1.1,1.1l-3.4-0.5c0,0.4-0.3,1.2-0.8,2.2c2.8,0.6,5,0.8,6.5,0.8c0.1-0.4,0.2-0.6,0.5-0.6c0-0.2-0.1-0.3-0.3-0.3
		l0.3-2v-0.6c0-0.7-0.1-1.5-0.3-2.5c0.2-0.3,0.3-0.7,0.3-1.1h-0.3c0.2-0.4,0.3-0.6,0.3-0.8l-0.3-0.6c0.2-0.4,0.3-0.6,0.3-0.8
		s-0.1-0.3-0.3-0.3l0.3-1.4v-4.5l0.3-1.7c-0.2-0.4-0.3-0.7-0.3-0.9c0-0.2,0.1-0.3,0.3-0.3c-0.2-1.7-0.4-2.5-0.5-2.5l0.3-0.6v-2.8
		c0-0.2-0.1-0.3-0.3-0.3l0.3-0.5c0-0.4-0.1-1.4-0.3-3.1c0-1.9,1.3-2.8,3.9-2.8v-0.3c-1.7-0.2-2.5-0.4-2.5-0.6L517.5,107.7z
		 M513,114.7c0,1.7-0.1,3.3-0.3,4.8c0,0.2,0.1,0.3,0.3,0.3l-0.3,1.4v1.1l0.3,2h0.3v-4.8c0-0.2,0.1-0.3,0.3-0.3l-0.3-0.6v-0.5l0.3-2
		h-0.3l0.3-0.6c-0.2-0.4-0.3-0.6-0.3-0.8H513z M517.2,83.8v3.1c0,0.2-0.1,0.3-0.3,0.3l0.8,4.5l-0.3,0.6c0.2,0.4,0.3,0.6,0.3,0.8
		c-0.4,0.1-0.6,0.3-0.6,0.6v0.6h1.7v-2l0.3-2h-0.3l0.3-0.6V88l-0.3-0.6c1.3-0.9,2-1.6,2-2l6.2-0.6c1.6,0.2,2.8,0.3,3.6,0.3v-0.6
		c-1.1-0.6-2.9-1.1-5.6-1.7v0.3l-0.6-0.3L517.2,83.8z M520,101.7c0,0.4,0.7,0.7,2,0.9C522,102.2,521.3,101.9,520,101.7z M520.6,90.5
		h0.3l-0.3,0.6v0.3c0,1.6,0.3,2.6,0.9,3.1c1-0.5,3.3-1,7-1.4c2.2-0.5,3.4-2.1,3.4-4.8c-0.5-1.1-1.4-1.7-2.8-1.7v0.3
		c-0.4-0.2-0.7-0.3-0.9-0.3c-4.9,0-7.3,0.7-7.3,2C520.8,89.1,520.7,89.8,520.6,90.5z M521.1,79.3v0.3h4.2c0-0.4-0.2-0.5-0.6-0.5
		h-1.7L521.1,79.3z M530.7,115.2v0.6c0,0.2,0.1,0.3,0.3,0.3l-0.3,0.6v0.8l0.3,1.7l-0.3,0.5c0.2,0.9,0.3,2.2,0.3,3.9h0.3
		c0-1.5,0.1-2.2,0.3-2.2l-0.3-0.6v-1.1c0-0.8,0.1-1.5,0.3-2.2c-0.2-0.7-0.3-1.5-0.3-2.2H530.7z M543,83.5v0.3l0.8,5.6V93
		c0,0.9-0.7,2.6-2,5.1c-1.6,1.1-4.8,2-9.5,2.8v0.6c0,0.6,0.9,0.8,2.8,0.8c1.8-0.2,3.5-0.6,5.1-1.1l0.6,0.3h0.6
		c3.2,0,4.8-2.5,4.8-7.6V93c0-0.2,0.1-0.3,0.3-0.3l-0.3-0.5v-1.1c0-4.5-0.8-7.1-2.5-7.6H543z M540.8,115.8v0.6
		c0.4,3.6,0.6,6.1,0.6,7.3h0.3c0,0.2-0.1,0.3-0.3,0.3c0.2,1.9,0.3,3.3,0.3,4.2v1.7c0,0.4,0.1,0.8,0.3,1.1c-0.2,0.6-0.4,0.8-0.5,0.8
		l0.3,0.6c-0.4,0.9-0.6,1.4-0.8,1.4c-3.9,0-5.9,0.3-5.9,0.9c0,0.7-0.1,1.5-0.3,2.5c0.7,0.2,1.1,0.4,1.1,0.6c2.2-0.4,3.9-0.8,5-1.1
		c0.3,0.2,0.7,0.3,1.1,0.3c0.9-0.1,1.4-0.4,1.4-0.9v-2.8c0-0.4,0.1-0.8,0.3-1.1c0-0.2-0.1-0.3-0.3-0.3l0.3-1.1
		c-0.1-3.2-0.3-4.8-0.6-4.8l0.3-0.6c0-1.9-0.7-4.6-2-8.2l-0.3-1.4H540.8z M535.2,123.7v5.6h0.3c0.2-2.1,0.4-3.1,0.6-3.1l-0.3-0.6v-2
		H535.2z M538,127.1l-0.3,1.4c0,0.2,0.1,0.3,0.3,0.3l-0.3,0.6c0,0.2,0.1,0.3,0.3,0.3c-0.2,0.4-0.3,0.7-0.3,0.9v0.3h0.3
		c0.1-1.5,0.3-2.2,0.6-2.2c-0.2-0.3-0.3-0.8-0.3-1.4H538z M541.6,89.7c0,0.4-0.1,0.8-0.3,1.1c0.2,0.3,0.3,0.7,0.3,1.1l-0.8,3.7h0.6
		c0.4-1.2,0.5-2.1,0.5-2.5v-3.4H541.6z"/>
	<path d="M579.6,77.3c1.5,0,2.2,0.8,2.2,2.5v0.3c0,0.2-0.1,0.3-0.3,0.3c0,0.2,0.1,0.3,0.3,0.3l-0.3,2.8v1.1c0,0.4,0.1,0.8,0.3,1.1
		c-0.2,0.3-0.3,0.7-0.3,1.1v2.2h-2.2c-0.2,0-0.3,0.1-0.3,0.3c-0.2,0-0.3-0.1-0.3-0.3l-2.8,0.3H570V95c0,0.2-0.1,0.3-0.3,0.3l0.3,0.6
		v2.8c0,0.4-0.1,0.8-0.3,1.1c0.2,0.3,0.3,0.8,0.3,1.4c0,0.7-0.2,2.7-0.5,5.9c0.2,0.4,0.3,0.6,0.3,0.8h-0.3l0.3,0.6v10.1
		c0,0.2-0.1,0.3-0.3,0.3c0.4,1.1,0.5,2.8,0.5,5c0,0.2-0.1,0.5-0.3,0.9c0.2,0.3,0.3,0.7,0.3,1.1h-0.3l1.1,7.6
		c-0.2,0.4-0.3,0.6-0.3,0.8c0.4,0.6,0.6,1.2,0.6,1.7v1.7c-0.9,0-1.4,0.2-1.4,0.6c-0.4-0.2-0.7-0.3-0.9-0.3c-0.2,0-0.9,0.1-2.2,0.3
		c-0.4-0.2-0.6-0.3-0.8-0.3v0.3c-2.2-0.5-3.4-1.1-3.4-2l0.3-0.5v-1.1c0-0.2-0.1-0.3-0.3-0.3l0.3-0.6v-3.6c0-0.4-0.1-0.8-0.3-1.1
		c0.2-0.3,0.3-0.7,0.3-1.1c0-0.2-0.1-0.3-0.3-0.3l0.3-0.5v-0.3l-0.3-1.4h0.3l-0.3-0.6l0.3-0.6l-0.3-0.6l0.3-0.6l-0.3-1.4l0.3-0.6
		c0-0.2-0.1-0.5-0.3-0.8l0.6-4.2c0-0.2-0.1-0.3-0.3-0.3l0.3-1.4v-2.5l-0.3-0.6h0.3l-0.3-0.6c0-0.1,0.1-1.3,0.3-3.6l-0.3-0.6l0.3-0.5
		c-0.2-3.4-0.4-5.5-0.6-6.5h0.3l-0.3-0.6v-9.8l-1.7,0.3c-2.3-0.2-3.5-0.3-3.7-0.3c0,0.2-0.1,0.3-0.3,0.3v-0.3l-0.5,0.3
		c-0.4,0-0.8-0.1-1.1-0.3c-0.4,0.2-0.7,0.3-0.9,0.3v-0.3l-0.5,0.3h-0.6c-1,0-1.5-0.3-1.7-0.9l0.3-2.8h-0.3l0.3-0.6v-0.3
		c0-0.2-0.1-0.3-0.3-0.3l0.8-3.1l-0.3-1.7v-1.1c0-0.3,0.3-0.5,0.9-0.8c2.2,0.4,4,0.5,5.3,0.5h2.2l1.4-0.3v0.3l0.6-0.3
		c3.1,0.2,5.6,0.3,7.3,0.3h0.3c0.2,0,0.3-0.1,0.3-0.3l0.6,0.3c1.9,0,3.7-0.2,5.6-0.5v0.3l0.6-0.3h2.5V77.3z M567.2,80.4h-0.3
		l-2.8-0.3v0.3l-0.6-0.3c-1.1,0-2.8,0.1-5,0.3l-3.4-0.3c-0.3,0.2-0.7,0.3-1.1,0.3c-0.2,3.9-0.4,5.9-0.6,5.9c0.2,0.3,0.3,0.7,0.3,1.1
		h2.2c0.2,0,0.3-0.1,0.3-0.3c0.2,0,0.3,0.1,0.3,0.3c0.4,0,0.6-0.1,0.6-0.3l2.8,0.3h1.7c0.2,0,0.3,0.1,0.3,0.3l0.6-0.3h0.6l1.4,0.3
		v6.2c0,0.9-0.2,1.4-0.6,1.4c0.6,2,0.8,7,0.8,15.2v3.1c0,0.7,0.1,1.5,0.3,2.5c-0.1,0.4-0.3,2.1-0.6,5.1c0.2,0.4,0.3,0.6,0.3,0.8
		c-0.2,0-0.3,0.1-0.3,0.3c0.2,0,0.3,0.1,0.3,0.3h-0.3l0.3,0.5v1.7c0,0.2-0.1,0.3-0.3,0.3l0.3,0.6v1.1c0,0.2-0.1,0.3-0.3,0.3l0.6,2.5
		c-0.1,0.8-0.3,1.1-0.6,1.1l0.3,0.6v1.1c0,0.2-0.1,0.3-0.3,0.3c0,2.4,0.8,3.7,2.5,3.7h0.3c0.3,0,0.9-0.2,1.7-0.5
		c-0.4-3.5-0.7-9.1-1.1-16.9c0.2-1.1,0.3-2.6,0.3-4.5V113l-0.3-0.6h0.3l-0.3-0.6c0-0.2,0.1-0.3,0.3-0.3l-0.3-1.4
		c0-3,0.2-6.2,0.6-9.6c0-0.2-0.1-0.3-0.3-0.3l0.3-1.4v-5.1c0-4.3,0.3-6.5,0.8-6.5h5.6c2.2,0,3.7-0.2,4.5-0.5c0,0.2,0.1,0.3,0.3,0.3
		v-1.7l0.3-2.8c-0.2,0-0.3-0.1-0.3-0.3h0.3l-0.3-0.6l0.3-0.6l-0.3-1.4C576.6,80.2,572.5,80.4,567.2,80.4z"/>
	<path d="M593.3,75.9h0.3c0.4,0,0.7,0.7,0.8,2h-0.3c0.2,0.4,0.3,0.6,0.3,0.8c1.8-0.4,3.2-0.5,4.2-0.5v1.1c0,0.6-0.1,1.1-0.3,1.4
		l0.3,1.7v0.3l-0.3,0.5h0.3c0,0.2-0.1,0.3-0.3,0.3L599,88c-0.2,2.5-0.3,4.5-0.3,6.2h-0.3l0.3,0.6v4.2c0,0.6-0.1,1.1-0.3,1.4l0.3,1.7
		v1.4c0,2.2-0.2,3.4-0.6,3.4l0.3,0.6v2l-0.3,1.4h0.3l-0.3,0.6l0.3,0.6c-0.4,0-0.6,0.2-0.6,0.6v4.5c0,0.4,0.1,0.8,0.3,1.1
		c-0.3,1.9-0.4,3.3-0.6,4.2c0.2,0.8,0.3,1.4,0.3,2c0,0.8-0.1,1.8-0.3,3.1c0,0.1,0.1,0.7,0.3,1.7c-0.2,2.6-0.4,4.4-0.6,5.4h0.3
		l-0.3,0.6v2.8c0,0.4-0.2,0.6-0.5,0.6h-1.4c-1.6,0-3.9,0.1-7,0.3c-0.2-1.3-0.4-2-0.5-2l0.3-0.6v-0.3c0-0.4-0.9-0.7-2.8-0.8v-6.2
		l0.3-1.4c-0.2,0-0.3-0.1-0.3-0.3c0.2,0,0.3-0.1,0.3-0.3h-0.3l0.3-0.5V120c0-1.8,0.1-3.5,0.3-5.3c-0.2-0.8-0.3-2.3-0.3-4.5v-0.8
		l0.3-0.6h-0.3l0.3-0.5c0-0.2-0.1-0.5-0.3-0.8l0.3-1.7h-0.3l0.3-0.5v-5.4c0-0.2-0.1-0.3-0.3-0.3l0.3-0.6v-8.4c0-0.2,0.1-0.3,0.3-0.3
		c0-0.2-0.1-0.3-0.3-0.3l0.3-1.4v-1.7c0-0.4-0.1-0.8-0.3-1.1c0-0.2,0.1-0.3,0.3-0.3l-0.6-5c0-0.2,0.1-0.3,0.3-0.3l-0.6-3.9h0.6
		c0.9,0,1.8,0.1,2.8,0.3C590,76.1,591.6,75.9,593.3,75.9z M594.2,85.7c0.1,0.7,0.3,1.1,0.6,1.1l-0.3,0.5v2.5l-0.3,2.8h0.3
		c-0.2,0.4-0.3,0.6-0.3,0.8c0,2.2-0.1,8.7-0.3,19.4h0.3l-0.3,0.5v0.6c0,0.2,0.1,0.3,0.3,0.3l-0.3,0.6v2c0,0.8-0.1,1.8-0.3,3.1
		c0.2,0.4,0.3,0.7,0.3,0.9h-0.3c0,0.2,0.1,0.3,0.3,0.3c-0.2,2.1-0.4,3.1-0.6,3.1l0.3,1.4v2.2c0,1.6-0.1,3.9-0.3,7
		c0.2,0,0.3,0.1,0.3,0.3h-2.2l-0.6-0.3v0.3l-0.6-0.3h-0.6v0.6c0,0.2,0.1,0.3,0.3,0.3l-0.3,0.6c0.1,0.4,0.3,0.5,0.6,0.5h0.3
		c0.2,0,0.3-0.1,0.3-0.3c0.7,0.4,1.4,0.5,2.2,0.5c1.6,0,2.7-0.5,3.1-1.4c0-0.6-0.1-0.8-0.3-0.8c0-0.2,0.1-0.5,0.3-0.8l-0.3-9
		c0-1,0.1-4,0.3-9h-0.3l0.3-0.6v-3.1l0.3-0.6h-0.3c0.4-0.8,0.6-2.3,0.6-4.5v-0.9c0-0.4-0.1-0.8-0.3-1.1l0.6-3.1h-0.3
		c0-0.2,0.1-0.3,0.3-0.3l-0.3-1.4v-5.4c0-4.7,0.2-7,0.5-7c-0.3-1.1-0.6-2.4-0.8-3.9l0.3-0.6v-0.6c0-0.2-0.1-0.3-0.3-0.3
		c0-0.2,0.1-0.3,0.3-0.3l-0.3-1.4v-0.8h-0.3c-1.1,0-1.7,0.8-1.7,2.5C594.5,84.7,594.4,85.7,594.2,85.7z"/>
	<path d="M622.5,76.5l0.5,0.3h3.1c3,0,4.9,3.5,5.9,10.4h0.3l-0.3,0.5c0.1,2.2,0.3,3.4,0.6,3.4c-0.2,1.5-0.5,2.4-0.9,2.8v3.9
		c0,0.8-1.3,1.3-3.9,1.7l-0.6-0.3h-2c-0.2,0-0.3,0.1-0.3,0.3l-0.6-0.3l-0.6,0.3c0-0.2-0.1-0.3-0.3-0.3c0,0.2-0.1,0.3-0.3,0.3v-5.3
		c0-0.2-0.1-0.3-0.3-0.3c0-0.2,0.1-0.3,0.3-0.3c-0.3-3.4-0.9-5.2-1.7-5.3c-3-0.2-4.8-0.3-5.4-0.3c0,0.2-0.1,0.3-0.3,0.3V88
		c-1.5,0-2.8,2.3-3.7,7c0,2.4,3,5,9,7.9c5.6,3.3,8.4,6.2,8.4,8.7l0.6,2l-0.3,1.4c0.2,1.3,0.3,2.1,0.3,2.2c-0.2,0.4-0.3,0.7-0.3,0.9
		c0.2,0,0.3,0.1,0.3,0.3h-0.3c0.2,2.1,0.4,3.1,0.5,3.1l-0.3,0.6v2.5c0,0.2,0.1,0.3,0.3,0.3l-0.3,0.6v4.8c0,2.1-0.7,4.3-2,6.7
		c-0.4,0.4-1.6,1.1-3.6,2H618l-1.7,0.3c-0.3-0.2-0.7-0.3-1.1-0.3c-0.4,0-1.9,0.1-4.2,0.3c-2.5,0-4.7-0.9-6.7-2.8
		c-0.6-1.2-0.8-2.1-0.8-2.5v-7.8l-0.3-1.7c0-0.2,0.1-0.3,0.3-0.3l-0.3-1.1c0-4.3,0.3-6.5,0.8-6.5c3.3,0,5.6-0.2,6.7-0.6l0.9,1.7
		c-0.2,0.3-0.3,0.7-0.3,1.1v0.3c0,0.2,0.1,0.3,0.3,0.3l-0.3,0.5c0,0.4,0.1,0.6,0.3,0.6l-0.3,2v2.5c0,1.1,0.6,2,1.7,2.5v-0.3
		c0.2,0,0.3,0.1,0.3,0.3l4.2-0.8v0.3c2.4,0,3.8-1.6,4.2-4.8v-0.6c0-4.2-1.5-7-4.5-8.2c-0.9-0.6-2.6-1.5-5.1-2.5
		c0,0.2-0.1,0.3-0.3,0.3c0-0.7-1.2-1.4-3.4-2.2c-3.7-1.8-5.6-4.5-5.6-8.2c-0.2,0-0.3-1.5-0.3-4.5v-0.5l-0.3-0.6h0.3l-0.3-0.6v-0.6
		c0-1.7,0.2-3.3,0.6-4.8h-0.3c1.1-5,3-8.3,5.6-10.1c1.6-1,5.1-1.7,10.4-2C621.2,77,622.5,76.8,622.5,76.5z M604.3,92.5
		c0.3,3.1,0.4,4.8,0.6,5c-0.2,0.3-0.3,0.7-0.3,1.1v0.6l0.3,0.6h-0.3c0,3.9,2.7,6.8,8.2,8.7c0,0.3,1.9,1.3,5.6,2.8
		c2.8,2.1,4.3,3.4,4.5,3.9c0.5,1,0.9,2.4,1.1,4.2c0,0.2-0.1,0.3-0.3,0.3l0.3,1.7c-0.6,4.1-1.6,6.2-3.1,6.2c-0.9,0.5-3.6,1.1-7.9,1.7
		c-2.6-0.7-3.9-2.1-3.9-4.2v-0.8c0-0.4,0.1-0.8,0.3-1.1c0-0.2-0.1-0.3-0.3-0.3l0.3-1.1c-0.1-2.8-0.3-4.2-0.6-4.2
		c-0.2,0-0.3,0.1-0.3,0.3l-1.4-0.3h-1.7c0,0.6-0.1,0.8-0.3,0.8c0.2,1,0.3,1.8,0.3,2.2c0,1.6,0.1,5.2,0.3,10.7
		c-0.2,0-0.3,0.1-0.3,0.3h0.3c0,0.2-0.1,0.3-0.3,0.3c0,2.6,1,4.1,3.1,4.5c0,0.3,2.2,0.8,6.7,1.4c1.9-0.2,2.8-0.4,2.8-0.6l4.5,0.6
		c3.9-0.7,5.9-3.5,5.9-8.4h-0.3l0.3-0.6v-0.3c0-0.2-0.1-0.3-0.3-0.3l0.3-0.6v-5.3l-0.3-1.4h0.3l-0.3-0.6c0-0.2,0.1-0.3,0.3-0.3
		l-0.3-1.4v-0.3c0-0.2,0.1-0.3,0.3-0.3l-0.3-0.6v-1.4c0-0.4,0.1-0.8,0.3-1.1c0-3.8-1.7-6.5-5-8.1c0-0.1-1-0.8-2.8-2l-0.6,0.3
		c0-0.8-1.7-1.8-5-3.1c-3-2.6-4.5-4.5-4.5-5.9v-2l0.3-1.4h-0.3c0.7-4.3,2.9-6.5,6.5-6.5h2.8l0.6,0.3v-0.3c3.2,0,4.8,1.6,4.8,4.8
		c0.2,0,0.3,1,0.3,2.8v2l-0.3,1.4c0.6,0.4,1.2,0.6,1.7,0.6h1.1c0.2,0,0.3-0.1,0.3-0.3l0.6,0.3h0.8l1.1-0.8c-0.5-10.7-1.3-16-2.5-16
		c0-1.4-1.3-2.2-3.9-2.5h-6.7c-6.2,0-10.1,2.4-11.8,7.3C605.3,86.5,604.8,88.7,604.3,92.5z"/>
	<path d="M664.1,77.3c1.5,0,2.2,0.8,2.2,2.5v0.3c0,0.2-0.1,0.3-0.3,0.3c0,0.2,0.1,0.3,0.3,0.3l-0.3,2.8v1.1c0,0.4,0.1,0.8,0.3,1.1
		c-0.2,0.3-0.3,0.7-0.3,1.1v2.2h-2.2c-0.2,0-0.3,0.1-0.3,0.3c-0.2,0-0.3-0.1-0.3-0.3l-2.8,0.3h-5.9V95c0,0.2-0.1,0.3-0.3,0.3
		l0.3,0.6v2.8c0,0.4-0.1,0.8-0.3,1.1c0.2,0.3,0.3,0.8,0.3,1.4c0,0.7-0.2,2.7-0.6,5.9c0.2,0.4,0.3,0.6,0.3,0.8H654l0.3,0.6v10.1
		c0,0.2-0.1,0.3-0.3,0.3c0.4,1.1,0.6,2.8,0.6,5c0,0.2-0.1,0.5-0.3,0.9c0.2,0.3,0.3,0.7,0.3,1.1h-0.3l1.1,7.6
		c-0.2,0.4-0.3,0.6-0.3,0.8c0.4,0.6,0.5,1.2,0.5,1.7v1.7c-0.9,0-1.4,0.2-1.4,0.6c-0.4-0.2-0.7-0.3-0.9-0.3c-0.2,0-0.9,0.1-2.2,0.3
		c-0.4-0.2-0.6-0.3-0.8-0.3v0.3c-2.2-0.5-3.4-1.1-3.4-2l0.3-0.5v-1.1c0-0.2-0.1-0.3-0.3-0.3l0.3-0.6v-3.6c0-0.4-0.1-0.8-0.3-1.1
		c0.2-0.3,0.3-0.7,0.3-1.1c0-0.2-0.1-0.3-0.3-0.3l0.3-0.5v-0.3l-0.3-1.4h0.3l-0.3-0.6l0.3-0.6l-0.3-0.6l0.3-0.6l-0.3-1.4l0.3-0.6
		c0-0.2-0.1-0.5-0.3-0.8l0.6-4.2c0-0.2-0.1-0.3-0.3-0.3l0.3-1.4v-2.5l-0.3-0.6h0.3l-0.3-0.6c0-0.1,0.1-1.3,0.3-3.6l-0.3-0.6l0.3-0.5
		c-0.2-3.4-0.4-5.5-0.6-6.5h0.3l-0.3-0.6v-9.8l-1.7,0.3c-2.3-0.2-3.5-0.3-3.7-0.3c0,0.2-0.1,0.3-0.3,0.3v-0.3l-0.6,0.3
		c-0.4,0-0.8-0.1-1.1-0.3c-0.4,0.2-0.7,0.3-0.9,0.3v-0.3l-0.5,0.3h-0.6c-1,0-1.5-0.3-1.7-0.9l0.3-2.8H636l0.3-0.6v-0.3
		c0-0.2-0.1-0.3-0.3-0.3l0.8-3.1l-0.3-1.7v-1.1c0-0.3,0.3-0.5,0.9-0.8c2.2,0.4,4,0.5,5.3,0.5h2.2l1.4-0.3v0.3l0.5-0.3
		c3.1,0.2,5.6,0.3,7.3,0.3h0.3c0.2,0,0.3-0.1,0.3-0.3l0.6,0.3c1.9,0,3.7-0.2,5.6-0.5v0.3l0.6-0.3h2.5V77.3z M651.8,80.4h-0.3
		l-2.8-0.3v0.3l-0.6-0.3c-1.1,0-2.8,0.1-5,0.3l-3.4-0.3c-0.3,0.2-0.7,0.3-1.1,0.3c-0.2,3.9-0.4,5.9-0.6,5.9c0.2,0.3,0.3,0.7,0.3,1.1
		h2.2c0.2,0,0.3-0.1,0.3-0.3c0.2,0,0.3,0.1,0.3,0.3c0.4,0,0.6-0.1,0.6-0.3l2.8,0.3h1.7c0.2,0,0.3,0.1,0.3,0.3l0.5-0.3h0.6l1.4,0.3
		v6.2c0,0.9-0.2,1.4-0.6,1.4c0.6,2,0.8,7,0.8,15.2v3.1c0,0.7,0.1,1.5,0.3,2.5c-0.1,0.4-0.3,2.1-0.6,5.1c0.2,0.4,0.3,0.6,0.3,0.8
		c-0.2,0-0.3,0.1-0.3,0.3c0.2,0,0.3,0.1,0.3,0.3h-0.3l0.3,0.5v1.7c0,0.2-0.1,0.3-0.3,0.3l0.3,0.6v1.1c0,0.2-0.1,0.3-0.3,0.3l0.6,2.5
		c-0.1,0.8-0.3,1.1-0.6,1.1l0.3,0.6v1.1c0,0.2-0.1,0.3-0.3,0.3c0,2.4,0.8,3.7,2.5,3.7h0.3c0.3,0,0.9-0.2,1.7-0.5
		c-0.4-3.5-0.7-9.1-1.1-16.9c0.2-1.1,0.3-2.6,0.3-4.5V113l-0.3-0.6h0.3l-0.3-0.6c0-0.2,0.1-0.3,0.3-0.3l-0.3-1.4
		c0-3,0.2-6.2,0.6-9.6c0-0.2-0.1-0.3-0.3-0.3l0.3-1.4v-5.1c0-4.3,0.3-6.5,0.8-6.5h5.6c2.2,0,3.7-0.2,4.5-0.5c0,0.2,0.1,0.3,0.3,0.3
		v-1.7l0.3-2.8c-0.2,0-0.3-0.1-0.3-0.3h0.3l-0.3-0.6l0.3-0.6l-0.3-1.4C661.1,80.2,657,80.4,651.8,80.4z"/>
	<path d="M690,76.5l0.5,0.3h3.1c3,0,4.9,3.5,5.9,10.4h0.3l-0.3,0.5c0.1,2.2,0.3,3.4,0.6,3.4c-0.2,1.5-0.5,2.4-0.9,2.8v3.9
		c0,0.8-1.3,1.3-3.9,1.7l-0.6-0.3h-2c-0.2,0-0.3,0.1-0.3,0.3l-0.6-0.3l-0.6,0.3c0-0.2-0.1-0.3-0.3-0.3c0,0.2-0.1,0.3-0.3,0.3v-5.3
		c0-0.2-0.1-0.3-0.3-0.3c0-0.2,0.1-0.3,0.3-0.3c-0.3-3.4-0.9-5.2-1.7-5.3c-3-0.2-4.8-0.3-5.4-0.3c0,0.2-0.1,0.3-0.3,0.3V88
		c-1.5,0-2.8,2.3-3.7,7c0,2.4,3,5,9,7.9c5.6,3.3,8.4,6.2,8.4,8.7l0.6,2l-0.3,1.4c0.2,1.3,0.3,2.1,0.3,2.2c-0.2,0.4-0.3,0.7-0.3,0.9
		c0.2,0,0.3,0.1,0.3,0.3h-0.3c0.2,2.1,0.4,3.1,0.5,3.1l-0.3,0.6v2.5c0,0.2,0.1,0.3,0.3,0.3l-0.3,0.6v4.8c0,2.1-0.7,4.3-2,6.7
		c-0.4,0.4-1.6,1.1-3.6,2h-6.7l-1.7,0.3c-0.3-0.2-0.7-0.3-1.1-0.3c-0.4,0-1.9,0.1-4.2,0.3c-2.5,0-4.7-0.9-6.7-2.8
		c-0.6-1.2-0.8-2.1-0.8-2.5v-7.8l-0.3-1.7c0-0.2,0.1-0.3,0.3-0.3l-0.3-1.1c0-4.3,0.3-6.5,0.8-6.5c3.3,0,5.6-0.2,6.7-0.6l0.9,1.7
		c-0.2,0.3-0.3,0.7-0.3,1.1v0.3c0,0.2,0.1,0.3,0.3,0.3l-0.3,0.5c0,0.4,0.1,0.6,0.3,0.6l-0.3,2v2.5c0,1.1,0.6,2,1.7,2.5v-0.3
		c0.2,0,0.3,0.1,0.3,0.3l4.2-0.8v0.3c2.4,0,3.8-1.6,4.2-4.8v-0.6c0-4.2-1.5-7-4.5-8.2c-0.9-0.6-2.6-1.5-5.1-2.5
		c0,0.2-0.1,0.3-0.3,0.3c0-0.7-1.2-1.4-3.4-2.2c-3.7-1.8-5.6-4.5-5.6-8.2c-0.2,0-0.3-1.5-0.3-4.5v-0.5l-0.3-0.6h0.3l-0.3-0.6v-0.6
		c0-1.7,0.2-3.3,0.6-4.8H670c1.1-5,3-8.3,5.6-10.1c1.6-1,5.1-1.7,10.4-2C688.7,77,690,76.8,690,76.5z M671.7,92.5
		c0.3,3.1,0.4,4.8,0.6,5c-0.2,0.3-0.3,0.7-0.3,1.1v0.6l0.3,0.6H672c0,3.9,2.7,6.8,8.2,8.7c0,0.3,1.9,1.3,5.6,2.8
		c2.8,2.1,4.3,3.4,4.5,3.9c0.5,1,0.9,2.4,1.1,4.2c0,0.2-0.1,0.3-0.3,0.3l0.3,1.7c-0.6,4.1-1.6,6.2-3.1,6.2c-0.9,0.5-3.6,1.1-7.9,1.7
		c-2.6-0.7-3.9-2.1-3.9-4.2v-0.8c0-0.4,0.1-0.8,0.3-1.1c0-0.2-0.1-0.3-0.3-0.3l0.3-1.1c-0.1-2.8-0.3-4.2-0.6-4.2
		c-0.2,0-0.3,0.1-0.3,0.3l-1.4-0.3h-1.7c0,0.6-0.1,0.8-0.3,0.8c0.2,1,0.3,1.8,0.3,2.2c0,1.6,0.1,5.2,0.3,10.7
		c-0.2,0-0.3,0.1-0.3,0.3h0.3c0,0.2-0.1,0.3-0.3,0.3c0,2.6,1,4.1,3.1,4.5c0,0.3,2.2,0.8,6.7,1.4c1.9-0.2,2.8-0.4,2.8-0.6l4.5,0.6
		c3.9-0.7,5.9-3.5,5.9-8.4h-0.3l0.3-0.6v-0.3c0-0.2-0.1-0.3-0.3-0.3l0.3-0.6v-5.3l-0.3-1.4h0.3l-0.3-0.6c0-0.2,0.1-0.3,0.3-0.3
		l-0.3-1.4v-0.3c0-0.2,0.1-0.3,0.3-0.3l-0.3-0.6v-1.4c0-0.4,0.1-0.8,0.3-1.1c0-3.8-1.7-6.5-5-8.1c0-0.1-1-0.8-2.8-2l-0.6,0.3
		c0-0.8-1.7-1.8-5-3.1c-3-2.6-4.5-4.5-4.5-5.9v-2l0.3-1.4h-0.3c0.7-4.3,2.9-6.5,6.5-6.5h2.8l0.6,0.3v-0.3c3.2,0,4.8,1.6,4.8,4.8
		c0.2,0,0.3,1,0.3,2.8v2l-0.3,1.4c0.6,0.4,1.2,0.6,1.7,0.6h1.1c0.2,0,0.3-0.1,0.3-0.3l0.6,0.3h0.8l1.1-0.8c-0.5-10.7-1.3-16-2.5-16
		c0-1.4-1.3-2.2-3.9-2.5h-6.7c-6.2,0-10.1,2.4-11.8,7.3C672.7,86.5,672.2,88.7,671.7,92.5z"/>
	<path d="M713,71.5c1.9,0,3.9,0.8,5.9,2.5c1.7,1.4,2.5,3.5,2.5,6.5v3.9c0,3.1-1.6,7.3-4.8,12.7h-5l-2.8,0.3l-0.3-0.6v-1.7
		c0.6,0,1.3-1.7,2-5.1c-4.3,0-6.6-2.9-7-8.7v-0.5h0.3l-0.3-0.6c0-1.8,1.3-4,3.9-6.7C710.1,72.2,712,71.5,713,71.5z M714.7,74.6
		c0,0.3-0.3,0.8-0.8,1.4c0.7-0.4,1.4-0.6,2-0.6c0-0.3-0.3-0.6-0.8-0.9H714.7z M715.8,94v0.3c0.2,0,0.7-0.7,1.7-2.2v-0.6
		C717.2,91.6,716.6,92.4,715.8,94z"/>
</g>
<g class="st1">
	<path d="M291.4,155.4c2,0.4,3.2,0.6,3.5,0.6v-0.3c0.2,0,0.3,0.1,0.3,0.3c0.3,0,1.3-0.1,3.2-0.3c6.1,0,10.2,2.4,12.3,7.3
		c0.8,2.8,1.3,7.5,1.3,13.9l0.3,0.6c-0.4,1.1-0.8,2.7-1,4.7h0.3c0,0.3-0.4,0.8-1.3,1.3l-4.4-0.9c-0.8,0.4-1.6,0.6-2.5,0.6
		c-0.3,0-0.6-0.3-1-1c0.4-3.1,0.9-5.2,1.3-6.3c0-5.5-1.2-8.7-3.5-9.8c0-0.7-1.9-1.4-5.7-2.2c-5.2,0-8.6,3.8-10.1,11.4h0.3l-0.3,0.6
		v0.6l0.3,0.6h-0.3c0,0.2,0.1,0.3,0.3,0.3c-0.4,1.7-0.6,3.5-0.6,5.4v0.6c0,0.6,0.1,1,0.3,1l-0.3,1.6v4.4c0,2.7-0.1,5.6-0.3,8.5
		c0.4,2.5,0.6,5.7,0.6,9.5v1.3c0,2.4,0.8,4.1,2.5,5c2,0.7,4.3,1.1,6.9,1.3v-0.3c0.2,0,0.3,0.1,0.3,0.3c4,0,6-1.7,6-5
		c0.6-1,0.9-2.7,0.9-5c0-1.1-0.1-2.9-0.3-5.4c0.3-0.4,2.6-0.7,6.9-0.9c0-0.3,0.4-0.5,1.3-0.6c0.8,0,1.6,1.8,2.2,5.4H311l0.3,0.6v0.6
		c0,5.2-1,11.2-3.1,18c0,2.1-8,3.1-24,3.1c-6.1-0.7-9.2-4.3-9.2-10.7v-2.8c0-0.2,0.1-0.3,0.3-0.3l-0.3-0.6v-1c0-0.2,0.1-0.3,0.3-0.3
		l-0.3-0.6c0-0.2,0.1-0.3,0.3-0.3c0-0.2-0.1-0.5-0.3-0.9l0.3-3.8c0-0.3-0.1-1.3-0.3-3.1h0.3l-0.3-0.6V192l0.3-1.6H275l0.3-0.6v-2.2
		l0.3-1.9c0-0.2-0.1-0.3-0.3-0.3c0.3-3.8,0.6-6.9,0.9-9.2l-0.3-0.6c0-4.6,1.2-9.7,3.5-15.1c2.3-3,5.3-4.4,8.8-4.4
		C289.8,155.8,290.9,155.6,291.4,155.4z M277.2,195.8c0,0.6-0.1,0.9-0.3,0.9l0.3,1.6v1.6c0,3.8,0.3,5.7,1,5.7h0.3l-0.3-0.6v-4.4
		l-0.3-1.9l0.3-0.6C277.9,196.5,277.6,195.8,277.2,195.8z M277.2,212.5v0.3c0,0.2,0.1,0.3,0.3,0.3l-0.3,0.6v0.6
		c0,0.5,0.1,0.9,0.3,1.3c-0.2,0.4-0.3,0.7-0.3,0.9c0.2,0,0.3,0.1,0.3,0.3l0.6-0.3h0.3v0.9h0.3v-0.3c-0.6-2.2-0.9-3.8-0.9-4.8H277.2z
		 M279.1,166.7c-0.4,2.2-0.6,3.3-0.6,3.5v0.3h0.3c0-0.5,0.3-1.5,0.9-2.8c-0.2-0.4-0.3-0.7-0.3-0.9H279.1z M278.8,221.3v0.3
		c0,0.4,0.7,1,2.2,1.9v-0.6c-0.3,0-0.9-0.5-1.9-1.6H278.8z M281.3,182.5c0,0.9-0.2,2.7-0.6,5.4l0.3,1.9l-0.3,0.6l0.3,0.6
		c0,0.4-0.1,0.6-0.3,0.6c0.2,0.9,0.3,2.5,0.3,4.7h0.3c0-0.6,0.1-1.4,0.3-2.2l-0.3-0.6c0.2-0.4,0.3-0.8,0.3-1.3
		c0-0.2-0.1-0.3-0.3-0.3l0.3-0.6v-3.1c0-0.2,0.1-0.3,0.3-0.3c0-0.2-0.1-0.3-0.3-0.3l0.3-1.6v-1.3c0-0.5-0.1-0.9-0.3-1.3
		c0.2-0.4,0.3-0.7,0.3-0.9H281.3z M282.2,160.4c-0.8,1.1-1.3,1.8-1.3,2.2c1.3-1.1,2.2-1.6,2.5-1.6v-0.6H282.2z M281.6,175.2v2.2h0.3
		c0-0.2,0.1-0.8,0.3-1.9L281.6,175.2z M287.9,221.3v0.3l2.2,0.6h0.3c-0.2-0.4-0.3-0.7-0.3-1H287.9z M292.3,161.7v0.3h3.5
		c-0.2-0.6-0.9-0.9-1.9-0.9H293C292.5,161.1,292.3,161.3,292.3,161.7z M303.7,219.1c-0.8,1.5-1.4,2.2-1.9,2.2v0.6h0.3
		c0.3,0,0.9-0.9,1.9-2.8H303.7z M303.1,207.1c0,0.2,0.1,0.3,0.3,0.3l-1,4.4v0.3h0.3c0.6-2.3,0.9-4,0.9-5H303.1z M303.1,163.9v0.3
		l1.6,1.9C304.1,164.7,303.6,164,303.1,163.9z M303.4,201.8c0,0.5-0.1,0.9-0.3,1.3c0.2,0.4,0.3,0.8,0.3,1.3h0.6
		c0-0.4,0.1-0.6,0.3-0.6c-0.2-0.3-0.3-0.9-0.3-1.9H303.4z M304.3,160.1v0.6c0.3,0,0.9,0.6,1.9,1.9V162c-0.8-0.8-1.3-1.5-1.3-1.9
		H304.3z M306.2,202.7v2.2l0.3,2.2l-0.3,0.6c0,0.2,0.1,0.3,0.3,0.3c-0.4,4.6-1.1,7.5-2.2,8.8h0.3c1.5-2,2.2-4.3,2.2-7v-1.9
		c0-1.1-0.1-2.9-0.3-5.4H306.2z M308.1,201.8v0.3c0.2,1.1,0.3,2.1,0.3,3.1c0.4,0,0.6-0.2,0.6-0.6c0-0.3-0.2-1.3-0.6-2.8H308.1z"/>
	<path d="M336.5,157.6v0.3l0.6-0.3h1.6c0.5,0,0.9,0.1,1.3,0.3l0.6-0.3c6.2,0,9.7,0.8,10.4,2.5c1.2,1.8,2.1,5.1,2.8,10.1h-0.3
		c0.2,0.4,0.3,0.7,0.3,0.9c0,1.7,0.2,3.9,0.6,6.6c0,0.2-0.1,0.3-0.3,0.3l0.3,1.6v2.2c0,0.2-0.1,0.3-0.3,0.3l0.6,1.9l-0.6,0.3
		c0.4,0.7,0.6,1.3,0.6,1.9v1.3c0,0.5-0.1,0.9-0.3,1.3c0.2,0.4,0.3,0.8,0.3,1.3v2.2l-0.3,0.6h0.3c0,0.2-0.1,0.3-0.3,0.3
		c0.2,2.5,0.4,3.8,0.6,3.8l-0.3,0.6c0,0.6,0.1,0.9,0.3,0.9c-0.3,2.8-0.6,4.7-0.9,5.7c0,0.2,0.1,0.3,0.3,0.3c0,9-0.9,15-2.8,18
		c-0.4,0-1.6,0.6-3.8,1.9h-0.6c-0.4-0.2-0.7-0.3-0.9-0.3v0.3l-0.6-0.3H345l-1.9,0.3l-0.6-0.3c-2.4,0.4-5.3,0.7-8.8,1
		c-6.3-0.6-9.5-1.6-9.5-2.8c-1.1,0-2.2-2.1-3.2-6.3v-3.5l-0.3-0.6h0.3l-0.3-0.6v-2.5c0-0.5,0.1-0.9,0.3-1.3
		c-0.2-0.4-0.3-0.8-0.3-1.3V204c0-0.2-0.1-0.3-0.3-0.3l0.3-0.6c0-0.6-0.1-0.9-0.3-0.9c0.2-0.8,0.4-3,0.6-6.6c-0.2-2-0.3-3.9-0.3-5.7
		h0.3l-0.3-0.6c0-0.9,0.2-2.7,0.6-5.4c-0.2-0.4-0.3-0.7-0.3-0.9h0.3l-0.3-0.6v-1.6l0.3-0.6H321l0.3-0.6v-4.1c0-1,0.4-3.5,1.3-7.6
		h-0.3c0-4.5,2.6-7.5,7.9-9.2C331.6,158.5,333.7,158.2,336.5,157.6z M322.2,181.9c0.2,3.5,0.4,5.4,0.6,5.7c-0.2,0.4-0.3,0.8-0.3,1.3
		v0.9c0,0.2,0.1,0.3,0.3,0.3l-0.3,0.6l0.3,3.2c-0.2,0-0.3,0.1-0.3,0.3c0.2,0,0.3,0.1,0.3,0.3h-0.3c0,0.2,0.1,0.3,0.3,0.3l-0.3,1.6
		v4.7l-0.3,0.6h0.3l-0.3,0.6v0.6c0,0.2,0.1,0.3,0.3,0.3l-0.3,0.6l0.6,3.8h-0.3l0.3,0.6v1.3c0,0.5-0.1,0.9-0.3,1.3
		c0.6,7.8,3.1,11.7,7.6,11.7v-0.3c0.2,0.2,1.5,0.4,3.8,0.6v-0.3c1.2,0.4,3.8,0.6,7.9,0.6c4.1-0.6,6.4-1.2,6.9-1.9v0.3
		c1.7,0,2.7-3.4,3.2-10.1V209l0.3-1.9l-0.3-0.6c0.2-0.4,0.3-0.8,0.3-1.3v-0.3c0-0.2-0.1-0.3-0.3-0.3c0.4-0.9,0.6-2.3,0.6-4.1v-5.3
		c0-1.5,0.1-3.8,0.3-7h-0.3l0.3-0.6c-0.2-0.4-0.3-0.7-0.3-0.9h0.3l-0.3-0.6v-0.6c0-5.3-0.4-11-1.3-17.1l0.3-0.6
		c-1.3-4.6-2.2-7-2.8-7c-0.6-0.6-2.1-1.3-4.7-1.9c-12.2,0.7-18.3,2.2-18.3,4.7C323.4,167.6,322.2,173.7,322.2,181.9z M335.8,163.3
		l1.3,0.3l1.3-0.3c5,0.8,7.5,2.4,7.5,4.8c0.3,0,0.7,1.4,1.3,4.1c0,0.2-0.1,0.3-0.3,0.3c0.2,1.9,0.4,2.8,0.6,2.8
		c0,0.2-0.1,0.3-0.3,0.3l0.3,1.6v2.8c0,0.7,0.1,1.2,0.3,1.6l-0.3,1.9v6c0,0.5,0.1,0.9,0.3,1.3c-0.2,0.4-0.3,0.8-0.3,1.3v3.2
		c0,0.2,0.1,0.3,0.3,0.3l-0.3,0.6v1.3c0,0.2,0.1,0.3,0.3,0.3l-0.3,0.6c0.2,0.4,0.3,0.7,0.3,0.9h-0.3l0.3,0.6l-0.3,1.3l0.3,0.6
		l-0.3,1.9c0.2,1.5,0.3,2.3,0.3,2.5c-0.2,0.4-0.3,0.7-0.3,0.9h0.3l-0.3,0.6v3.1c-0.5,4-1.5,6-3.1,6c-3.5,0.7-5.3,1.1-5.4,1.3
		l-0.6-0.3h-1.6c-5.7-0.6-8.5-1.6-8.5-3.1c-0.4-1.1-0.8-3.3-1.3-6.6c0.2-0.4,0.3-0.7,0.3-0.9l-0.3-0.6c0-0.2,0.1-0.3,0.3-0.3
		l-0.3-1.6v-0.3c0-2.1-0.1-4.7-0.3-7.9l0.3-1.3c-0.2-0.8-0.3-1.7-0.3-2.5h0.3l-0.3-0.6v-4.1c0-0.5,0.1-0.9,0.3-1.3
		c-0.2-0.4-0.3-0.8-0.3-1.3v-2.5l0.3-1.9l-0.3-0.6l0.3-0.6c0-0.4-0.1-0.6-0.3-0.6c0.4-4.6,1-8.7,1.9-12.3
		C331.6,164.9,334,163.8,335.8,163.3z M328.9,176.2c0,0.2,0.1,0.3,0.3,0.3c-0.2,2.1-0.3,3.7-0.3,4.7v3.1c0,0.2,0.1,0.3,0.3,0.3
		c-0.2,0.6-0.4,0.9-0.6,0.9l0.3,1.6v0.6l-0.3,0.6h0.3c0,0.2-0.1,0.3-0.3,0.3l0.3,3.1v2.2c0,0.2,0.1,0.3,0.3,0.3l-0.3,0.6v0.3
		l0.3,0.6c-0.2,0-0.3,0.1-0.3,0.3h0.3l-0.3,0.6v1.6c0,0.2,0.1,0.3,0.3,0.3l-0.3,0.6v2.2c0,0.2,0.1,0.3,0.3,0.3
		c-0.2,0.4-0.3,0.7-0.3,0.9c0.2,0.6,0.4,1,0.6,1l-0.3,0.6c0,6.9,0.9,10.4,2.8,10.4c1.4,0.6,2.6,0.9,3.5,0.9h0.9
		c5.3-0.4,7.9-1,7.9-1.9l1.3-7.9l-0.3-0.6v-10.7c0-0.2,0.1-0.3,0.3-0.3l-0.3-0.6c0-0.2,0.1-0.3,0.3-0.3l-0.3-0.6v-0.3
		c0-0.2,0.1-0.3,0.3-0.3l-0.3-0.6v-0.3l0.3-0.6h-0.3l0.3-0.6v-1.6l-0.3-0.6h0.3l-0.3-0.6c0-0.2,0.1-0.3,0.3-0.3l-0.3-0.6V186
		l0.3-1.9c0-0.2-0.1-0.3-0.3-0.3l0.3-1.3c-0.2-4.7-0.5-8.2-1-10.4l0.3-0.6c-0.3-3.8-2.1-5.7-5.3-5.7c-1.5-0.2-2.7-0.3-3.8-0.3
		c-3.6,0.9-5.4,2.1-5.4,3.8c-0.6,2.1-1,4.4-1.3,6.9H328.9z"/>
	<path d="M367.6,156.3l0.6,0.3h0.6c0.5,0,0.9-0.1,1.3-0.3l0.6,0.3c1.5-0.2,2.6-0.3,3.5-0.3c1.3,0,1.9,0.9,1.9,2.8v1.3
		c-0.2,0.4-0.3,0.7-0.3,0.9c1.9-0.2,3-0.3,3.5-0.3l1.6,1.9l-0.3,0.6v1.3l0.3,1.6l-0.6,0.3l0.9,2.2l-0.6,1.3
		c-0.2,7.5-0.3,12.8-0.3,16.1c0,0.2,0.1,0.5,0.3,0.9c-0.2,0.4-0.3,0.8-0.3,1.3c0,0.2,0.1,0.3,0.3,0.3c0,0.2-0.1,0.3-0.3,0.3
		c0.4,1.6,0.6,3,0.6,4.4v1.3l-0.3,1.6c0.2,0,0.3,0.1,0.3,0.3h-0.3c0.2,0.4,0.3,0.7,0.3,1c0,0.2-0.1,0.3-0.3,0.3l0.3,1.6v1.6
		c0,0.9-0.1,2-0.3,3.5c0.2,0.4,0.3,0.8,0.3,1.3c-0.1,1.3-0.3,1.9-0.6,1.9c0,2.1,0.5,3.1,1.6,3.1c0.5,0,0.9,0.1,1.3,0.3l6.3-1.3
		c0.4,0.2,0.8,0.3,1.3,0.3c0-0.2,0.1-0.3,0.3-0.3v0.3c1.1-0.4,2.6-0.6,4.4-0.6c0.6,0.7,0.9,1.6,0.9,2.8h0.3l3.8-0.3v0.9
		c0,2,0.1,3.8,0.3,5.4c-0.4,2.8-0.6,4.8-0.6,6l-0.6-0.3l-0.6,0.3v-0.6c-0.2,0-0.3,0.1-0.3,0.3l-1.6-0.3h-0.9l-2.2,0.6v-0.3l-0.6,0.3
		l-0.6-0.3c-0.2,0-0.5,0.1-0.9,0.3l-1.6-0.3l-4.4,0.6l-0.6-0.3l-5,0.6c-0.4-0.2-0.7-0.3-0.9-0.3c-0.4,0.2-0.7,0.3-0.9,0.3v-0.3
		l-0.6,0.3l-1.3-0.3l-1.6,0.3l-0.6-0.3c-0.4,0.2-0.7,0.3-0.9,0.3l-1.3-0.3c-0.7,0.4-1.2,0.6-1.6,0.6l-0.9-1.3l0.3-0.6
		c0-1.8-1.3-2.7-3.8-2.8c-0.2-1.7-0.4-2.5-0.6-2.5l0.3-0.6v-2.2c0-0.6,0.1-1,0.3-1c-0.4-2.4-0.6-6-0.6-11c0-0.2,0.1-0.5,0.3-0.9
		c-0.2-0.6-0.4-0.9-0.6-0.9c0-0.2,0.1-0.3,0.3-0.3c-0.2-5-0.3-8.6-0.3-11v-5.4l0.3-1.9c-0.4-2.3-0.7-3.5-0.9-3.5
		c0-0.2,0.1-0.3,0.3-0.3c-0.2-2.1-0.3-3.7-0.3-4.8c0-0.5,0.1-1.4,0.3-2.5l-0.3-0.6c0.2-0.4,0.3-0.8,0.3-1.3h-0.3l0.3-0.6v-6.6
		l-0.3-1.6h0.3c0-0.2-0.1-0.3-0.3-0.3l0.3-1.6v-0.3l-0.6-0.9v-0.3c0-0.2,0.3-0.5,0.9-0.9l0.6,0.3C366.8,157,367.6,156.8,367.6,156.3
		z M367.9,172.1c0,1.2-0.2,2.4-0.6,3.5c0.2,0,0.3,0.1,0.3,0.3c-0.2,0-0.3,0.1-0.3,0.3h0.3l-0.3,0.6v1.9c0.4,0,0.7-1.1,0.9-3.2
		l-0.3-0.6c0-0.2,0.1-0.8,0.3-1.9v-0.9H367.9z M396.3,214.7c0,1.1-0.2,2.9-0.6,5.4h-1.9c-0.2,0-0.3,0.1-0.3,0.3
		c-1.1-0.2-1.6-0.4-1.6-0.6l-0.6,0.3c-0.2,0-0.3-0.1-0.3-0.3l-1.6,0.3H389c-0.5,0-0.9-0.1-1.3-0.3c-0.4,0.2-0.7,0.3-1,0.3l-0.6-0.3
		c-0.9,0.6-3.5,0.9-7.9,0.9h-3.8c-2.3,0-3.5,0.3-3.5,0.9l0.6,1.6c0.2,0,0.3-0.1,0.3-0.3l1.6,0.3h2.2c0.2,0,0.3-0.1,0.3-0.3l0.6,0.3
		h0.3c2.2,0,5.6-0.1,10.1-0.3c0-0.2,0.1-0.3,0.3-0.3v0.3l0.6-0.3h4.8c0.2,0,1.4-0.2,3.5-0.6h1.6l0.6,0.3c0.2-1.3,0.4-1.9,0.6-1.9
		c0-0.2-0.1-0.3-0.3-0.3l0.3-1.6v-0.9c0-2.1-0.2-3.2-0.6-3.2l0.3-0.6v-0.3L396.3,214.7z M372,163.9v6.3h0.3l0.3-1.6v-0.9
		c0-0.2-0.1-0.3-0.3-0.3l0.3-0.6v-0.3l-0.3-0.6c0.2,0,0.3-0.1,0.3-0.3h-0.3l0.3-0.6v-0.3C372.6,164.1,372.4,163.9,372,163.9z
		 M375.1,166.4c0.2,0.4,0.3,0.7,0.3,0.9h-0.3l0.3,0.6c-0.2,1.1-0.3,1.7-0.3,1.9l0.3,0.6c-0.2,0.4-0.3,0.8-0.3,1.2l0.3,2.2h-0.3
		c0.2,1.3,0.4,1.9,0.6,1.9l-0.3,0.6l0.3,0.6h-0.3l0.3,0.6v0.6c0,0.2-0.1,0.3-0.3,0.3l0.3,0.6l-0.3,0.6l0.3,0.6
		c-0.2,0.4-0.3,0.8-0.3,1.3h0.3c-0.2,0.4-0.3,0.7-0.3,1c0.2,1.9,0.3,3,0.3,3.5h-0.3l0.3,0.6v14.2c0,1.2,0.1,2.6,0.3,4.4
		c-0.2,0.4-0.3,0.7-0.3,1c0.2,0.4,0.3,0.8,0.3,1.3h-0.3l0.3,0.6v0.3l-0.6,2.2l0.6,0.3h1.6c0-0.2,0.1-0.5,0.3-0.9
		c-0.4,0-0.6-0.2-0.6-0.6v-0.3c0.5,0,0.9-1.3,1.3-3.8c0-0.2-0.1-0.3-0.3-0.3l0.3-1.6v-8.8c0-0.2,0.1-0.3,0.3-0.3l-0.3-0.6v-0.9
		c0-0.2,0.1-0.3,0.3-0.3l-0.9-4.7c0.2-1.1,0.3-2.1,0.3-2.8v-4.4c0-0.2-0.1-0.3-0.3-0.3l0.3-0.6c0-0.2-0.1-0.3-0.3-0.3
		c0.4-1.7,0.6-3.5,0.6-5.3v-0.6c0-0.2-0.1-0.3-0.3-0.3c0.2-0.4,0.3-0.7,0.3-0.9l-0.3-0.6c0.2-0.8,0.4-1.3,0.6-1.3l-0.6-1.9
		c0-0.2,0.1-0.3,0.3-0.3l-0.3-2.2v-2.2c0-0.4-0.2-0.6-0.6-0.6C376.2,163,375.4,164.1,375.1,166.4z"/>
	<path d="M413.2,156.3l0.6,0.3h0.6c0.5,0,0.9-0.1,1.3-0.3l0.6,0.3c1.5-0.2,2.6-0.3,3.5-0.3c1.3,0,1.9,0.9,1.9,2.8v1.3
		c-0.2,0.4-0.3,0.7-0.3,0.9c1.9-0.2,3-0.3,3.5-0.3l1.6,1.9l-0.3,0.6v1.3l0.3,1.6l-0.6,0.3l0.9,2.2l-0.6,1.3
		c-0.2,7.5-0.3,12.8-0.3,16.1c0,0.2,0.1,0.5,0.3,0.9c-0.2,0.4-0.3,0.8-0.3,1.3c0,0.2,0.1,0.3,0.3,0.3c0,0.2-0.1,0.3-0.3,0.3
		c0.4,1.6,0.6,3,0.6,4.4v1.3l-0.3,1.6c0.2,0,0.3,0.1,0.3,0.3h-0.3c0.2,0.4,0.3,0.7,0.3,1c0,0.2-0.1,0.3-0.3,0.3l0.3,1.6v1.6
		c0,0.9-0.1,2-0.3,3.5c0.2,0.4,0.3,0.8,0.3,1.3c-0.1,1.3-0.3,1.9-0.6,1.9c0,2.1,0.5,3.1,1.6,3.1c0.5,0,0.9,0.1,1.3,0.3l6.3-1.3
		c0.4,0.2,0.8,0.3,1.3,0.3c0-0.2,0.1-0.3,0.3-0.3v0.3c1.1-0.4,2.6-0.6,4.4-0.6c0.6,0.7,0.9,1.6,0.9,2.8h0.3l3.8-0.3v0.9
		c0,2,0.1,3.8,0.3,5.4c-0.4,2.8-0.6,4.8-0.6,6l-0.6-0.3l-0.6,0.3v-0.6c-0.2,0-0.3,0.1-0.3,0.3l-1.6-0.3h-0.9l-2.2,0.6v-0.3l-0.6,0.3
		l-0.6-0.3c-0.2,0-0.5,0.1-0.9,0.3l-1.6-0.3l-4.4,0.6l-0.6-0.3l-5,0.6c-0.4-0.2-0.7-0.3-0.9-0.3c-0.4,0.2-0.7,0.3-0.9,0.3v-0.3
		l-0.6,0.3l-1.3-0.3l-1.6,0.3l-0.6-0.3c-0.4,0.2-0.7,0.3-0.9,0.3l-1.3-0.3c-0.7,0.4-1.2,0.6-1.6,0.6l-0.9-1.3l0.3-0.6
		c0-1.8-1.3-2.7-3.8-2.8c-0.2-1.7-0.4-2.5-0.6-2.5l0.3-0.6v-2.2c0-0.6,0.1-1,0.3-1c-0.4-2.4-0.6-6-0.6-11c0-0.2,0.1-0.5,0.3-0.9
		c-0.2-0.6-0.4-0.9-0.6-0.9c0-0.2,0.1-0.3,0.3-0.3c-0.2-5-0.3-8.6-0.3-11v-5.4l0.3-1.9c-0.4-2.3-0.7-3.5-0.9-3.5
		c0-0.2,0.1-0.3,0.3-0.3c-0.2-2.1-0.3-3.7-0.3-4.8c0-0.5,0.1-1.4,0.3-2.5l-0.3-0.6c0.2-0.4,0.3-0.8,0.3-1.3h-0.3l0.3-0.6v-6.6
		l-0.3-1.6h0.3c0-0.2-0.1-0.3-0.3-0.3l0.3-1.6v-0.3l-0.6-0.9v-0.3c0-0.2,0.3-0.5,0.9-0.9l0.6,0.3C412.4,157,413.2,156.8,413.2,156.3
		z M413.5,172.1c0,1.2-0.2,2.4-0.6,3.5c0.2,0,0.3,0.1,0.3,0.3c-0.2,0-0.3,0.1-0.3,0.3h0.3l-0.3,0.6v1.9c0.4,0,0.7-1.1,0.9-3.2
		l-0.3-0.6c0-0.2,0.1-0.8,0.3-1.9v-0.9H413.5z M441.9,214.7c0,1.1-0.2,2.9-0.6,5.4h-1.9c-0.2,0-0.3,0.1-0.3,0.3
		c-1.1-0.2-1.6-0.4-1.6-0.6l-0.6,0.3c-0.2,0-0.3-0.1-0.3-0.3l-1.6,0.3h-0.3c-0.5,0-0.9-0.1-1.3-0.3c-0.4,0.2-0.7,0.3-1,0.3l-0.6-0.3
		c-0.9,0.6-3.5,0.9-7.9,0.9h-3.8c-2.3,0-3.5,0.3-3.5,0.9l0.6,1.6c0.2,0,0.3-0.1,0.3-0.3l1.6,0.3h2.2c0.2,0,0.3-0.1,0.3-0.3l0.6,0.3
		h0.3c2.2,0,5.6-0.1,10.1-0.3c0-0.2,0.1-0.3,0.3-0.3v0.3l0.6-0.3h4.8c0.2,0,1.4-0.2,3.5-0.6h1.6l0.6,0.3c0.2-1.3,0.4-1.9,0.6-1.9
		c0-0.2-0.1-0.3-0.3-0.3l0.3-1.6v-0.9c0-2.1-0.2-3.2-0.6-3.2l0.3-0.6v-0.3L441.9,214.7z M417.6,163.9v6.3h0.3l0.3-1.6v-0.9
		c0-0.2-0.1-0.3-0.3-0.3l0.3-0.6v-0.3l-0.3-0.6c0.2,0,0.3-0.1,0.3-0.3h-0.3l0.3-0.6v-0.3C418.2,164.1,418,163.9,417.6,163.9z
		 M420.7,166.4c0.2,0.4,0.3,0.7,0.3,0.9h-0.3l0.3,0.6c-0.2,1.1-0.3,1.7-0.3,1.9l0.3,0.6c-0.2,0.4-0.3,0.8-0.3,1.2l0.3,2.2h-0.3
		c0.2,1.3,0.4,1.9,0.6,1.9l-0.3,0.6l0.3,0.6h-0.3l0.3,0.6v0.6c0,0.2-0.1,0.3-0.3,0.3l0.3,0.6l-0.3,0.6l0.3,0.6
		c-0.2,0.4-0.3,0.8-0.3,1.3h0.3c-0.2,0.4-0.3,0.7-0.3,1c0.2,1.9,0.3,3,0.3,3.5h-0.3l0.3,0.6v14.2c0,1.2,0.1,2.6,0.3,4.4
		c-0.2,0.4-0.3,0.7-0.3,1c0.2,0.4,0.3,0.8,0.3,1.3h-0.3l0.3,0.6v0.3l-0.6,2.2l0.6,0.3h1.6c0-0.2,0.1-0.5,0.3-0.9
		c-0.4,0-0.6-0.2-0.6-0.6v-0.3c0.5,0,0.9-1.3,1.3-3.8c0-0.2-0.1-0.3-0.3-0.3l0.3-1.6v-8.8c0-0.2,0.1-0.3,0.3-0.3l-0.3-0.6v-0.9
		c0-0.2,0.1-0.3,0.3-0.3l-0.9-4.7c0.2-1.1,0.3-2.1,0.3-2.8v-4.4c0-0.2-0.1-0.3-0.3-0.3l0.3-0.6c0-0.2-0.1-0.3-0.3-0.3
		c0.4-1.7,0.6-3.5,0.6-5.3v-0.6c0-0.2-0.1-0.3-0.3-0.3c0.2-0.4,0.3-0.7,0.3-0.9l-0.3-0.6c0.2-0.8,0.4-1.3,0.6-1.3l-0.6-1.9
		c0-0.2,0.1-0.3,0.3-0.3l-0.3-2.2v-2.2c0-0.4-0.2-0.6-0.6-0.6C421.9,163,421,164.1,420.7,166.4z"/>
	<path d="M487.2,155c0.4,0.2,0.8,0.3,1.3,0.3V155c0.2,0,0.3,0.1,0.3,0.3l1.6-0.3c1,0,1.7,0.8,2.2,2.5c2.3,0.3,3.5,0.7,3.5,1.3
		c-0.4,1.9-0.6,3.1-0.6,3.8c0.2,2.6,0.3,4.2,0.3,4.7c-0.6,0-0.9,0.2-0.9,0.6c-0.4-0.2-0.7-0.3-1-0.3c-3,0-6.2,0.2-9.5,0.6
		c-0.2,0-0.8-0.1-1.9-0.3c-1.3,0-4.3,0.2-9.1,0.6c-0.8-0.2-1.7-0.3-2.5-0.3c-0.2,0.6-0.4,1.8-0.6,3.8c0.2,0,0.3,0.1,0.3,0.3h-0.3
		l0.3,0.6v8.2c0.4,0.5,0.6,1.2,0.6,2.2h1.9c0.9,0,2-0.1,3.5-0.3c0.7,0.4,1.2,0.6,1.6,0.6v3.2c0.2,0,0.5,0.1,0.9,0.3
		c0.2,0,0.3-0.1,0.3-0.3l1.6,0.3h0.3l0.6-0.3v0.3c-0.2,3.1-0.3,5.2-0.3,6.3h0.3l-0.3,0.6l0.3,0.6l-0.3,1.6l0.3,1.3
		c-0.2,0.8-0.3,1.7-0.3,2.5c-0.8,0.1-1.3,0.4-1.3,0.9c-0.4-0.2-0.7-0.3-0.9-0.3c-0.5,0.3-1.7,0.6-3.5,0.9l-0.6-0.3H472l0.3,0.6v0.3
		l-0.9-0.6h-0.3v7.3l0.3,1.6h-0.3l0.3,0.6v1.6l-0.3,0.6h0.3l-0.3,0.6c0.2,1.7,0.5,2.5,1,2.5h4.4c0.2,0,0.3,0.1,0.3,0.3
		c0.2,0,0.3-0.1,0.3-0.3l3.1,0.3h0.3c1.5,0,4.4-0.3,8.5-0.9v0.3l0.6-0.3h0.9c0.6,0.2,0.9,0.8,0.9,1.9c-0.2,0-0.3,0.1-0.3,0.3h0.3
		l-0.3,0.6v0.3l0.6,0.9l1.6-0.3h2.2c0,4.4,0.3,6.6,0.9,6.6c0,0.2-0.1,0.3-0.3,0.3l0.3,1.6v0.6c0,1.6-0.5,2.7-1.6,3.2h-5.7
		c-0.2,0-0.3,0.1-0.3,0.3l-0.6-0.3l-5,0.6v-0.3l-0.6,0.3c-0.6,0-0.9-0.1-0.9-0.3c-1.6,0.2-2.6,0.4-3.2,0.6c-1.1-0.2-2.1-0.3-2.8-0.3
		c-1.9,0-4.7,0.2-8.2,0.6V233l-0.6,0.3h-7.6l-0.6-0.3l0.3-2.2v-1.6c0-0.4-1.3-0.7-3.8-0.9c0-0.4-0.1-0.6-0.3-0.6
		c0.2-0.6,0.4-0.9,0.6-0.9l-0.3-0.6l0.3-0.6h-0.3c0.3-0.7,0.6-2.1,0.9-4.4l-0.3-0.6v-3.1c0-0.2-0.1-0.3-0.3-0.3
		c0.4-1,0.6-1.9,0.6-2.8h-0.3l0.3-0.6v-12.6l-0.3-0.6h0.3l-0.3-0.6V192c0-0.2-0.1-0.3-0.3-0.3l0.6-1.6c0-0.2-0.1-0.5-0.3-0.9
		c0.2-1.1,0.3-2.1,0.3-2.8V186c0-0.2-0.1-0.3-0.3-0.3l0.3-0.6v-1.6c0-0.2-0.1-0.3-0.3-0.3c0.2-0.3,0.4-1.7,0.6-4.4
		c-0.2-3-0.3-5.5-0.3-7.6c0.2,0,0.3-0.1,0.3-0.3h-0.3l0.3-0.6v-1.9c0-0.2-0.1-0.3-0.3-0.3l0.3-0.6c0-0.2-0.1-0.3-0.3-0.3l0.3-0.6
		l-0.3-0.6h0.3c-0.3-2-0.6-3.6-0.9-4.7l0.3-0.6l-0.3-0.6l0.6-2.2h-0.3c0.2-0.4,0.3-0.7,0.3-0.9h0.6c5.2,0,7.9-0.2,7.9-0.6
		c1.1,0.4,3,0.6,5.7,0.6c0.2,0,0.3-0.1,0.3-0.3l1.3,0.3C482.1,156.2,487.2,155.6,487.2,155z M491.6,221.9l0.6,5.4
		c-0.2,0-0.3,0.1-0.3,0.3h0.3c-0.2,0.4-0.3,0.7-0.3,1h-0.3v-0.6c-0.4,0.2-0.7,0.3-0.9,0.3c-0.7-0.4-1.3-0.6-1.9-0.6
		c-0.8,0.1-1.3,0.3-1.3,0.6c-0.2,0-0.3-0.1-0.3-0.3l-3.8,0.3h-0.3c-0.5,0-0.9-0.1-1.3-0.3l-0.6,0.3c-0.5,0-0.9-0.1-1.3-0.3
		c-1.8,0.2-3.3,0.3-4.4,0.3h-3.8l-1.9,0.3c-1.7-0.2-2.5-0.4-2.5-0.6l-0.6,0.3h-2.2c-2.1,0-3.2,0.3-3.2,0.9l-0.3,2.2h3.5l0.6-0.3v0.3
		l0.6-0.3h0.3c0.2,0,0.3,0.1,0.3,0.3l0.6-0.3h2.2l1.6-0.3c0,0.2,0.1,0.3,0.3,0.3v-0.3l0.6,0.3h0.6l0.6-0.3v0.3l0.6-0.3l1.3,0.3
		c1.1-0.2,2.2-0.3,3.2-0.3v0.3l0.6-0.3h1c0.2,0,0.3,0.1,0.3,0.3c0.9-0.2,4.2-0.6,10.1-1.3c0.2,0,0.3,0.1,0.3,0.3
		c2.7-0.2,4.1-0.5,4.1-0.9v-0.6l-0.6-1h0.3c0-0.2-0.1-0.3-0.3-0.3c0-0.2,0.1-0.8,0.3-1.9c-0.2-2.5-0.5-3.8-0.9-3.8L491.6,221.9z
		 M465.4,222.9h0.3c0.4-0.2,0.7-0.3,0.9-0.3v0.3c0.4-0.2,0.8-0.3,1.3-0.3v-0.3H466C465.6,222.3,465.4,222.5,465.4,222.9z
		 M492.2,159.5l-0.3,1.6v2.5c-8,0.2-13.1,0.5-15.5,0.9c-0.4-0.2-0.8-0.3-1.3-0.3c-0.4,0.2-0.7,0.3-0.9,0.3v-0.3l-1.9,0.6
		c-0.4-0.2-0.7-0.3-0.9-0.3c0,0.2-0.1,0.3-0.3,0.3v-0.3l-0.6,0.3c-1.5-0.2-2.3-0.3-2.5-0.3l-1.6,0.3v0.9c0,0.8,0.1,1.7,0.3,2.8
		c-0.2,0.4-0.3,0.8-0.3,1.3h0.3l-0.6,3.5c0.3,6.3,0.6,9.5,1,9.5c0.4,0.2,0.8,0.3,1.3,0.3h0.3c0-0.4,0.1-0.6,0.3-0.6l-0.3-0.6v-3.8
		c0-0.5-0.1-0.9-0.3-1.3l0.3-0.6c-0.2-2.1-0.3-3.8-0.3-5v-1.9c0-0.7-0.3-1.5-1-2.2c0-0.5,0.4-0.8,1.3-0.9c0.8,0,2.2,0.2,4.1,0.6
		l0.6-0.3c0.2,0,0.5,0.1,0.9,0.3c10.7-0.5,17.1-0.9,19.3-1.3c0-0.6,0.2-1.6,0.6-3.2h-0.3l0.3-0.6v-1.9l-1.6-0.3H492.2z M477.7,189.7
		l0.3,1.9c-0.2,2.9-0.4,4.4-0.6,4.4l0.3,0.6c0,0.4-0.2,0.6-0.6,0.6c-0.8,0-1.7-0.1-2.8-0.3c-0.2,0-0.3,0.1-0.3,0.3l-1.6-0.3h-2.5
		l-1.6,0.3V197c-0.8,0.3-1.3,0.6-1.3,0.9c0,1.1,0.2,1.6,0.6,1.6l-0.3,0.6v0.9c0,1.4,0.1,2.7,0.3,4.1l-0.3,1.9c0,0.2,0.1,0.3,0.3,0.3
		l-0.3,1.6v1.9c0,0.2,0.1,0.3,0.3,0.3l-0.3,0.6c0,0.2,0.1,0.3,0.3,0.3l-0.3,1.6c0,0.5,0.1,0.9,0.3,1.3l-0.3,0.6
		c0.3,0.8,0.6,1.3,1,1.3h0.6c0.4,0,0.6-0.2,0.6-0.6c0-1-0.2-3.9-0.6-8.8c0.2,0,0.3-0.1,0.3-0.3c-0.2,0-0.3-0.1-0.3-0.3
		c0.2,0,0.3-0.1,0.3-0.3c-0.2,0-0.3-0.1-0.3-0.3h0.3l-0.3-0.6v-2.2c0-1.1-0.2-2.3-0.6-3.8c0.4,0,0.6-0.2,0.6-0.6
		c1.5,0.4,2.7,0.6,3.8,0.6h4.4c0.9-0.8,1.7-1.3,2.2-1.3l-0.3-1.6c0.4,0,0.6-0.2,0.6-0.6v-1.6c0-0.2-0.1-0.3-0.3-0.3
		c0.2-1.7,0.4-2.5,0.6-2.5l-0.3-0.6c0.2-0.6,0.4-0.9,0.6-0.9c-0.2-0.4-0.3-0.7-0.3-0.9h-1.6C477.9,189.2,477.7,189.4,477.7,189.7z
		 M470.1,219.1v0.3h2.5v-0.6C471.5,219,470.7,219.1,470.1,219.1z"/>
	<path d="M521.4,156.9c0.4,0.2,3.2,0.5,8.2,1v-0.3c5.6,0,8.9,1.8,9.8,5.4c0,0.6,0.2,0.9,0.6,0.9c0.2,0,0.3-0.1,0.3-0.3
		c2,0.4,3,1,3.2,1.6v0.9c0,0.5-0.1,0.9-0.3,1.3c0.4,0.7,0.6,1.3,0.6,1.9h-0.3l0.3,0.6c-0.2,4.8-0.3,8.4-0.3,10.7
		c0.2,2.6,0.3,4.1,0.3,4.4l-1.3,0.9H542c-0.5,0-0.9-0.1-1.3-0.3c-0.4,0.2-0.8,0.3-1.3,0.3c-0.4,0-0.6-0.1-0.6-0.3l-2.2,0.3h-3.5
		c-1.5,0-2.2-1.5-2.2-4.4v-2.2c-0.2,0-0.8-0.1-1.9-0.3c0.2-0.4,0.3-0.7,0.3-0.9c0-1.1-0.2-1.6-0.6-1.6c0.4-0.8,0.6-1.6,0.6-2.5H529
		l0.3-0.6v-0.6l-0.3-1.6h-1.3c-2.9,0-4.8,0.8-5.7,2.5v2.8l-0.3,1.6l0.6,0.3l-0.3,0.6v3.8c0,0.2-0.1,0.3-0.3,0.3l0.3,0.6l-0.3,1.3
		c0.2,0.4,0.3,0.7,0.3,0.9c-0.4,0.7-0.6,1.3-0.6,1.9v3.1c0,1.8-0.2,3.2-0.6,4.1c0.2,0,0.3,0.1,0.3,0.3h-0.3l0.3,0.6
		c0,0.5-0.1,0.9-0.3,1.3c0.3,3.1,0.5,4.8,0.6,5l-0.3,1.9v2.5c0,0.2-0.1,0.3-0.3,0.3c0.4,1.6,0.6,3.9,0.6,6.9c0.2,0,0.3,0.1,0.3,0.3
		h-0.3c0.5,1.7,1.9,2.5,4.1,2.5h0.9c1.4,0,2.6-2.6,3.5-7.9c-0.6-2-1-3.4-1-4.4c1.9-0.6,4.4-1,7.3-1c0.2,0,0.3-0.1,0.3-0.3
		c2.1,0,3.2,0.8,3.2,2.5v0.3h3.8c0,0.8,0.1,1.7,0.3,2.8c0,0.5-0.1,1.4-0.3,2.5c0.2,2.1,0.3,3.8,0.3,5c0,0.5-0.1,2.1-0.3,4.7l0.3,0.6
		c-0.4,5.5-2,8.2-4.8,8.2c-5,1.3-8.9,2-11.7,2.2c-8.2,0-13.1-1.3-14.9-3.8c-0.9-1.1-1.5-1.9-1.6-2.5c0.2,0,0.3-0.1,0.3-0.3
		c-0.7-0.9-2-2.1-4.1-3.5c-1.3-2.4-1.9-6.6-1.9-12.6c0.2-1.4,0.3-2.8,0.3-4.1v-6.6c0-0.2,0.1-0.3,0.3-0.3c0-0.2-0.1-0.3-0.3-0.3
		l0.3-3.8v-1.3l-0.3-1.9c0.2-0.4,0.3-0.7,0.3-0.9s-0.1-0.3-0.3-0.3l0.3-1.6v-0.6c0-0.2-0.1-0.3-0.3-0.3l0.3-0.6v-5l0.3-3.2H506
		c0.2-0.6,0.4-0.9,0.6-0.9l-0.3-0.6c0-0.6,0.2-1.5,0.6-2.5h-0.3c1.5-11.4,5.3-17,11.4-17C520.3,157.6,521.4,157.4,521.4,156.9z
		 M540.4,207.1c-0.2,11.4-0.8,17-1.9,17c0,2-4.9,3.1-14.8,3.5c-5.6-0.8-9-1.5-10.1-1.9v0.3c0.5,1.3,1.8,2.5,4.1,3.5
		c2.3,0.2,3.5,0.5,3.5,0.9l0.6-0.3h3.8l0.6,0.3v-0.3l0.6,0.3c3.3,0,7.4-0.8,12.3-2.5c1.9-1,2.8-2.8,2.8-5.4c0-0.8,0.2-2.2,0.6-4.1
		c-0.2-4.3-0.3-7.2-0.3-8.8h0.3l-0.3-0.6v-1.9H540.4z M517.4,182.2c0,0.7,0.1,2.5,0.3,5.4c-0.2,3.7-0.3,6.9-0.3,9.5H517l0.3,0.6v2.2
		c0,0.2-0.1,0.3-0.3,0.3l0.3,0.6v0.6l-0.3,0.6c0.2,0,0.3,0.1,0.3,0.3H517l0.3,0.6v0.9c0.4,5.9,1,8.8,1.9,8.8h0.3l-0.3-0.6v-7.9
		c0-0.2,0.1-0.3,0.3-0.3l-0.3-0.6V203l0.3-0.6h-0.3c0-0.2,0.1-0.3,0.3-0.3c-0.3-2.9-0.5-4.7-0.6-5.4c0.4,0,0.7-4.1,1-12.3h0.3
		l-0.3-0.6v-0.6c0-0.2,0.1-0.3,0.3-0.3l-0.3-0.6v-0.3l0.3-0.6h-0.3c0-0.2,0.1-0.3,0.3-0.3c-0.2-2.1-0.3-3.7-0.3-4.7v-1.6
		c0.8-3.2,2.1-4.7,3.8-4.7c0-0.4,1.5-0.6,4.4-0.6c0,0.2,0.1,0.3,0.3,0.3l0.6-0.9V168l-2.2-0.3h-4.7c-2.1,0-3.4,1.9-3.8,5.7
		C518.3,173.8,518,176.7,517.4,182.2z M540.4,165.8l-0.3,4.4l0.3,1.3c-0.2,0.4-0.3,0.7-0.3,0.9h0.3c-0.2,0.8-0.4,1.3-0.6,1.3
		l0.6,2.8c-0.4,1-0.6,1.9-0.6,2.8l-0.6-0.3c-1.5,0-3.8,0.1-6.9,0.3c0.1,3.4,0.5,5,0.9,5c5.5,0,8.2-0.5,8.2-1.6
		c0.2-0.4,0.3-0.8,0.3-1.3c0-2.2,0.1-5.6,0.3-10.1l-0.6-5.7H540.4z"/>
	<path d="M584.1,157c1.7,0,2.5,0.9,2.5,2.8v0.3c0,0.2-0.1,0.3-0.3,0.3c0,0.2,0.1,0.3,0.3,0.3l-0.3,3.2v1.3c0,0.5,0.1,0.9,0.3,1.3
		c-0.2,0.4-0.3,0.8-0.3,1.3v2.5h-2.5c-0.2,0-0.3,0.1-0.3,0.3c-0.2,0-0.3-0.1-0.3-0.3l-3.1,0.3h-6.6v6.3c0,0.2-0.1,0.3-0.3,0.3
		l0.3,0.6v3.1c0,0.5-0.1,0.9-0.3,1.3c0.2,0.4,0.3,0.9,0.3,1.6c0,0.8-0.2,3-0.6,6.6c0.2,0.4,0.3,0.7,0.3,0.9h-0.3l0.3,0.6v11.4
		c0,0.2-0.1,0.3-0.3,0.3c0.4,1.3,0.6,3.2,0.6,5.7c0,0.2-0.1,0.6-0.3,1c0.2,0.4,0.3,0.8,0.3,1.3h-0.3l1.3,8.5
		c-0.2,0.4-0.3,0.7-0.3,0.9c0.4,0.7,0.6,1.3,0.6,1.9v1.9c-1,0-1.6,0.2-1.6,0.6c-0.4-0.2-0.7-0.3-1-0.3c-0.2,0-1,0.1-2.5,0.3
		c-0.4-0.2-0.7-0.3-0.9-0.3v0.3c-2.5-0.6-3.8-1.3-3.8-2.2l0.3-0.6v-1.3c0-0.2-0.1-0.3-0.3-0.3l0.3-0.6v-4.1c0-0.5-0.1-0.9-0.3-1.3
		c0.2-0.4,0.3-0.8,0.3-1.3c0-0.2-0.1-0.3-0.3-0.3l0.3-0.6v-0.3l-0.3-1.6h0.3l-0.3-0.6l0.3-0.6l-0.3-0.6l0.3-0.6l-0.3-1.6l0.3-0.6
		c0-0.2-0.1-0.5-0.3-0.9l0.6-4.8c0-0.2-0.1-0.3-0.3-0.3l0.3-1.6v-2.8l-0.3-0.6h0.3l-0.3-0.6c0-0.1,0.1-1.5,0.3-4.1l-0.3-0.6l0.3-0.6
		c-0.3-3.8-0.5-6.2-0.6-7.3h0.3l-0.3-0.6v-11l-1.9,0.3c-2.6-0.2-4-0.3-4.1-0.3c0,0.2-0.1,0.3-0.3,0.3v-0.3l-0.6,0.3
		c-0.5,0-0.9-0.1-1.3-0.3c-0.4,0.2-0.7,0.3-1,0.3v-0.3l-0.6,0.3h-0.6c-1.1,0-1.7-0.3-1.9-1l0.3-3.1h-0.3l0.3-0.6v-0.3
		c0-0.2-0.1-0.3-0.3-0.3l0.9-3.5l-0.3-1.9v-1.3c0-0.3,0.3-0.6,1-0.9c2.5,0.4,4.5,0.6,6,0.6h2.5l1.6-0.3v0.3l0.6-0.3
		c3.5,0.2,6.3,0.3,8.2,0.3h0.3c0.2,0,0.3-0.1,0.3-0.3l0.6,0.3c2.1,0,4.2-0.2,6.3-0.6v0.3l0.6-0.3h2.8V157z M570.2,160.4h-0.3
		l-3.1-0.3v0.3l-0.6-0.3c-1.3,0-3.1,0.1-5.7,0.3l-3.8-0.3c-0.4,0.2-0.8,0.3-1.3,0.3c-0.2,4.4-0.4,6.6-0.6,6.6
		c0.2,0.4,0.3,0.8,0.3,1.3h2.5c0.2,0,0.3-0.1,0.3-0.3c0.2,0,0.3,0.1,0.3,0.3c0.4,0,0.6-0.1,0.6-0.3l3.1,0.3h1.9
		c0.2,0,0.3,0.1,0.3,0.3l0.6-0.3h0.6l1.6,0.3v6.9c0,1.1-0.2,1.6-0.6,1.6c0.6,2.2,0.9,7.9,0.9,17v3.5c0,0.8,0.1,1.7,0.3,2.8
		c-0.1,0.4-0.4,2.3-0.6,5.7c0.2,0.4,0.3,0.7,0.3,0.9c-0.2,0-0.3,0.1-0.3,0.3c0.2,0,0.3,0.1,0.3,0.3h-0.3l0.3,0.6v1.9
		c0,0.2-0.1,0.3-0.3,0.3l0.3,0.6v1.3c0,0.2-0.1,0.3-0.3,0.3l0.6,2.8c-0.2,0.8-0.4,1.3-0.6,1.3l0.3,0.6v1.3c0,0.2-0.1,0.3-0.3,0.3
		c0,2.7,0.9,4.1,2.8,4.1h0.3c0.4,0,1-0.2,1.9-0.6c-0.4-3.9-0.8-10.2-1.3-18.9c0.2-1.2,0.3-2.9,0.3-5V197l-0.3-0.6h0.3l-0.3-0.6
		c0-0.2,0.1-0.3,0.3-0.3l-0.3-1.6c0-3.3,0.2-6.9,0.6-10.7c0-0.2-0.1-0.3-0.3-0.3l0.3-1.6v-5.7c0-4.8,0.3-7.3,0.9-7.3h6.3
		c2.5,0,4.1-0.2,5-0.6c0,0.2,0.1,0.3,0.3,0.3v-1.9l0.3-3.1c-0.2,0-0.3-0.1-0.3-0.3h0.3l-0.3-0.6l0.3-0.6l-0.3-1.6
		C580.8,160.2,576.1,160.4,570.2,160.4z"/>
	<path d="M604.5,155.4h0.3c0.5,0,0.8,0.7,0.9,2.2h-0.3c0.2,0.4,0.3,0.7,0.3,0.9c2-0.4,3.5-0.6,4.7-0.6v1.3c0,0.7-0.1,1.2-0.3,1.6
		l0.3,1.9v0.3l-0.3,0.6h0.3c0,0.2-0.1,0.3-0.3,0.3l0.6,5c-0.2,2.8-0.3,5.1-0.3,6.9h-0.3l0.3,0.6v4.7c0,0.7-0.1,1.2-0.3,1.6l0.3,1.9
		v1.6c0,2.5-0.2,3.8-0.6,3.8l0.3,0.6v2.2l-0.3,1.6h0.3l-0.3,0.6l0.3,0.6c-0.4,0.1-0.6,0.3-0.6,0.6v5c0,0.5,0.1,0.9,0.3,1.3
		c-0.3,2.2-0.5,3.7-0.6,4.7c0.2,0.8,0.3,1.6,0.3,2.2c0,0.9-0.1,2-0.3,3.5c0,0.2,0.1,0.8,0.3,1.9c-0.2,2.9-0.4,4.9-0.6,6h0.3
		l-0.3,0.6v3.2c0,0.4-0.2,0.6-0.6,0.6h-1.6c-1.8,0-4.4,0.1-7.9,0.3c-0.2-1.5-0.4-2.2-0.6-2.2l0.3-0.6v-0.3c0-0.5-1.1-0.8-3.2-0.9
		v-6.9l0.3-1.6c-0.2,0-0.3-0.1-0.3-0.3c0.2,0,0.3-0.1,0.3-0.3h-0.3l0.3-0.6v-7c0-2,0.1-4,0.3-6c-0.2-0.9-0.3-2.6-0.3-5v-0.9l0.3-0.6
		h-0.3l0.3-0.6c0-0.2-0.1-0.5-0.3-0.9l0.3-1.9h-0.3l0.3-0.6v-6c0-0.2-0.1-0.3-0.3-0.3l0.3-0.6v-9.5c0-0.2,0.1-0.3,0.3-0.3
		c0-0.2-0.1-0.3-0.3-0.3l0.3-1.6v-1.9c0-0.5-0.1-0.9-0.3-1.3c0-0.2,0.1-0.3,0.3-0.3l-0.6-5.7c0-0.2,0.1-0.3,0.3-0.3l-0.6-4.4h0.6
		c1,0,2,0.1,3.1,0.3C600.8,155.6,602.6,155.4,604.5,155.4z M605.5,166.4c0.2,0.8,0.4,1.3,0.6,1.3l-0.3,0.6v2.8l-0.3,3.2h0.3
		c-0.2,0.4-0.3,0.7-0.3,0.9c0,2.5-0.1,9.8-0.3,21.8h0.3l-0.3,0.6v0.6c0,0.2,0.1,0.3,0.3,0.3l-0.3,0.6v2.2c0,0.9-0.1,2-0.3,3.5
		c0.2,0.4,0.3,0.7,0.3,1h-0.3c0,0.2,0.1,0.3,0.3,0.3c-0.2,2.3-0.4,3.5-0.6,3.5l0.3,1.6v2.5c0,1.8-0.1,4.4-0.3,7.9
		c0.2,0,0.3,0.1,0.3,0.3h-2.5l-0.6-0.3v0.3l-0.6-0.3h-0.6v0.6c0,0.2,0.1,0.3,0.3,0.3l-0.3,0.6c0.1,0.4,0.3,0.6,0.6,0.6h0.3
		c0.2,0,0.3-0.1,0.3-0.3c0.8,0.4,1.6,0.6,2.5,0.6c1.8,0,3-0.5,3.5-1.6c0-0.6-0.1-0.9-0.3-0.9c0-0.2,0.1-0.5,0.3-0.9l-0.3-10.1
		c0-1.1,0.1-4.4,0.3-10.1h-0.3l0.3-0.6v-3.5l0.3-0.6h-0.3c0.4-0.9,0.6-2.6,0.6-5v-1c0-0.5-0.1-0.9-0.3-1.3l0.6-3.5h-0.3
		c0-0.2,0.1-0.3,0.3-0.3l-0.3-1.6v-6c0-5.2,0.2-7.9,0.6-7.9c-0.4-1.2-0.7-2.7-0.9-4.4l0.3-0.6v-0.6c0-0.2-0.1-0.3-0.3-0.3
		c0-0.2,0.1-0.3,0.3-0.3l-0.3-1.6v-0.9h-0.3c-1.3,0-1.9,0.9-1.9,2.8C605.8,165.3,605.7,166.4,605.5,166.4z"/>
	<path d="M652.7,156.7h2.8v0.3l-0.3,3.2c0.7,0,1.2,0.1,1.6,0.3c1.5-0.2,2.2-0.4,2.2-0.6c0.4,0.2,0.9,0.3,1.6,0.3v1.6l-2.2,9.8h0.3
		l-1.9,6h0.3c-0.6,1.7-1,4.3-1.3,7.9c-0.5,2.3-1.2,5.2-2.2,8.5h0.3c-0.2,1.2-0.7,2.9-1.6,5h0.3c-2.7,9.8-5.1,17.6-7.3,23.7
		c-0.8,1.7-1.3,2.5-1.6,2.5h-3.8c-0.9,0-2-0.1-3.5-0.3c-0.3,0.2-0.9,0.3-1.9,0.3c-0.5-1.5-0.8-2.2-0.9-2.2l0.3-0.6v-0.3
		c-0.4-0.5-0.6-0.9-0.6-1.3h-1.3c-0.2,0-0.3,0.1-0.3,0.3c-0.9,0-1.5-2-1.9-6c-0.2-1.7-0.9-4.4-1.9-7.9c-1.5-6.1-2.2-9.7-2.2-11
		c0-1-0.9-5.9-2.8-14.5h0.3c-0.6-4.2-1.1-6.4-1.6-6.6l0.3-0.6c-1-4.4-1.8-9.1-2.5-14.2v-0.9c2-0.6,5.1-1.4,9.5-2.2h0.3
		c0.4,1.5,0.6,2.5,0.6,3.2h0.9c0.2,0,0.3-0.1,0.3-0.3c1,0.3,1.6,0.6,1.6,0.9l0.6-0.3h1.6v0.3c0.2,5,0.7,7.6,1.6,7.6l-0.3,0.6
		c0,2,0.2,3.9,0.6,5.7h-0.3c0.4,0.7,0.6,1.3,0.6,1.9c0,0.5-0.1,0.9-0.3,1.3c0.6,2.5,1.3,6.3,1.9,11.4c0.3,0,0.7-1.4,1.3-4.1
		c0-0.2-0.1-0.3-0.3-0.3l4.4-24.6v-0.3h-0.3l0.3-0.6v-1.6L652.7,156.7z M630.9,162l1.9,9.2l-0.3,0.6c0.6,7.2,2,15.9,4.1,25.9
		c0,0.6,0.1,1.4,0.3,2.2h-0.3c0.4,1,0.8,1.5,1.3,1.6l0.3-2.2v-2.8l-2.5-12h0.3l-0.6-2.5l0.3-0.6c-0.2-2.1-0.5-3.2-0.9-3.2l0.3-0.6
		l-0.3-0.6l0.3-0.6c-0.6-3.8-1-5.9-1.3-6.3v-0.3h0.3c-0.6-2-0.9-4.2-0.9-6.6v-0.6L630.9,162z M631.2,204.9l0.3,1.6v0.9h0.6
		c-0.4-1.3-0.6-2.1-0.6-2.5H631.2z M634,212.5l0.6,3.1h0.3v-0.3c-0.2-1.1-0.3-2.1-0.3-2.8H634z M653.6,167.7h0.3
		c-0.3,1.1-0.6,1.6-0.9,1.6c0.2,0.4,0.3,0.7,0.3,0.9c-0.6,0.6-1.3,4.4-1.9,11.4c-0.3,0-0.6,1-0.9,3.1h0.3l-2.8,12.9
		c0.2,0,0.3,0.1,0.3,0.3c-0.2,0-0.5,0.3-0.9,1l0.3,0.6c-0.8,2.7-1.9,7.5-3.1,14.2c-0.2,0-0.3,0.1-0.3,0.3c0.2,0.4,0.3,0.7,0.3,0.9
		c-0.2,0-0.3,0.1-0.3,0.3c0.2,0,0.3,0.1,0.3,0.3c-0.4,0-0.7,0.8-0.9,2.5c0.2,0,0.3,0.1,0.3,0.3c-1,1.3-1.8,1.9-2.5,1.9v-0.3
		c-0.7,0.4-1.2,0.6-1.6,0.6h-3.5c-0.2,0.4-0.3,0.8-0.3,1.3v0.6h1.6c0.6,0,1.2,0.2,1.9,0.6c0.4-0.2,0.8-0.3,1.3-0.3v0.3
		c2.5,0,3.8-1,3.8-3.1c1.5-4,2.6-8.3,3.5-12.9c1.3-3.4,2.3-6.8,3.2-10.4h-0.3c1.3-4.3,2.1-8.1,2.5-11.7c0.4,0,0.6-0.2,0.6-0.6h-0.3
		l0.3-0.6v-1.3c0-1.1,0.9-5.7,2.8-13.9l0.9-6.3c-2.3,0-3.5,0.7-3.5,2.2L653.6,167.7z M647,184.7v0.6h0.3c0.6-2.8,0.9-4.4,0.9-4.8
		C647.8,180.6,647.4,182,647,184.7z"/>
	<path d="M701.5,155c0.4,0.2,0.8,0.3,1.3,0.3V155c0.2,0,0.3,0.1,0.3,0.3l1.6-0.3c1,0,1.7,0.8,2.2,2.5c2.3,0.3,3.5,0.7,3.5,1.3
		c-0.4,1.9-0.6,3.1-0.6,3.8c0.2,2.6,0.3,4.2,0.3,4.7c-0.6,0-0.9,0.2-0.9,0.6c-0.4-0.2-0.7-0.3-1-0.3c-3,0-6.2,0.2-9.5,0.6
		c-0.2,0-0.8-0.1-1.9-0.3c-1.3,0-4.3,0.2-9.1,0.6c-0.8-0.2-1.7-0.3-2.5-0.3c-0.2,0.6-0.4,1.8-0.6,3.8c0.2,0,0.3,0.1,0.3,0.3h-0.3
		l0.3,0.6v8.2c0.4,0.5,0.6,1.2,0.6,2.2h1.9c0.9,0,2-0.1,3.5-0.3c0.7,0.4,1.2,0.6,1.6,0.6v3.2c0.2,0,0.5,0.1,0.9,0.3
		c0.2,0,0.3-0.1,0.3-0.3l1.6,0.3h0.3l0.6-0.3v0.3c-0.2,3.1-0.3,5.2-0.3,6.3h0.3l-0.3,0.6l0.3,0.6l-0.3,1.6l0.3,1.3
		c-0.2,0.8-0.3,1.7-0.3,2.5c-0.8,0.1-1.3,0.4-1.3,0.9c-0.4-0.2-0.7-0.3-0.9-0.3c-0.5,0.3-1.7,0.6-3.5,0.9l-0.6-0.3h-3.1l0.3,0.6v0.3
		l-0.9-0.6h-0.3v7.3l0.3,1.6h-0.3l0.3,0.6v1.6l-0.3,0.6h0.3l-0.3,0.6c0.2,1.7,0.5,2.5,1,2.5h4.4c0.2,0,0.3,0.1,0.3,0.3
		c0.2,0,0.3-0.1,0.3-0.3l3.1,0.3h0.3c1.5,0,4.4-0.3,8.5-0.9v0.3l0.6-0.3h0.9c0.6,0.2,0.9,0.8,0.9,1.9c-0.2,0-0.3,0.1-0.3,0.3h0.3
		l-0.3,0.6v0.3l0.6,0.9l1.6-0.3h2.2c0,4.4,0.3,6.6,0.9,6.6c0,0.2-0.1,0.3-0.3,0.3l0.3,1.6v0.6c0,1.6-0.5,2.7-1.6,3.2h-5.7
		c-0.2,0-0.3,0.1-0.3,0.3l-0.6-0.3l-5,0.6v-0.3l-0.6,0.3c-0.6,0-0.9-0.1-0.9-0.3c-1.6,0.2-2.6,0.4-3.2,0.6c-1.1-0.2-2.1-0.3-2.8-0.3
		c-1.9,0-4.7,0.2-8.2,0.6V233l-0.6,0.3h-7.6l-0.6-0.3l0.3-2.2v-1.6c0-0.4-1.3-0.7-3.8-0.9c0-0.4-0.1-0.6-0.3-0.6
		c0.2-0.6,0.4-0.9,0.6-0.9l-0.3-0.6l0.3-0.6h-0.3c0.3-0.7,0.6-2.1,0.9-4.4l-0.3-0.6v-3.1c0-0.2-0.1-0.3-0.3-0.3
		c0.4-1,0.6-1.9,0.6-2.8h-0.3l0.3-0.6v-12.6l-0.3-0.6h0.3l-0.3-0.6V192c0-0.2-0.1-0.3-0.3-0.3l0.6-1.6c0-0.2-0.1-0.5-0.3-0.9
		c0.2-1.1,0.3-2.1,0.3-2.8V186c0-0.2-0.1-0.3-0.3-0.3l0.3-0.6v-1.6c0-0.2-0.1-0.3-0.3-0.3c0.2-0.3,0.4-1.7,0.6-4.4
		c-0.2-3-0.3-5.5-0.3-7.6c0.2,0,0.3-0.1,0.3-0.3h-0.3l0.3-0.6v-1.9c0-0.2-0.1-0.3-0.3-0.3l0.3-0.6c0-0.2-0.1-0.3-0.3-0.3l0.3-0.6
		l-0.3-0.6h0.3c-0.3-2-0.6-3.6-0.9-4.7l0.3-0.6l-0.3-0.6l0.6-2.2h-0.3c0.2-0.4,0.3-0.7,0.3-0.9h0.6c5.2,0,7.9-0.2,7.9-0.6
		c1.1,0.4,3,0.6,5.7,0.6c0.2,0,0.3-0.1,0.3-0.3l1.3,0.3C696.4,156.2,701.5,155.6,701.5,155z M705.9,221.9l0.6,5.4
		c-0.2,0-0.3,0.1-0.3,0.3h0.3c-0.2,0.4-0.3,0.7-0.3,1h-0.3v-0.6c-0.4,0.2-0.7,0.3-0.9,0.3c-0.7-0.4-1.3-0.6-1.9-0.6
		c-0.8,0.1-1.3,0.3-1.3,0.6c-0.2,0-0.3-0.1-0.3-0.3l-3.8,0.3h-0.3c-0.5,0-0.9-0.1-1.3-0.3l-0.6,0.3c-0.5,0-0.9-0.1-1.3-0.3
		c-1.8,0.2-3.3,0.3-4.4,0.3H686l-1.9,0.3c-1.7-0.2-2.5-0.4-2.5-0.6l-0.6,0.3h-2.2c-2.1,0-3.2,0.3-3.2,0.9l-0.3,2.2h3.5l0.6-0.3v0.3
		l0.6-0.3h0.3c0.2,0,0.3,0.1,0.3,0.3l0.6-0.3h2.2l1.6-0.3c0,0.2,0.1,0.3,0.3,0.3v-0.3l0.6,0.3h0.6l0.6-0.3v0.3l0.6-0.3l1.3,0.3
		c1.1-0.2,2.2-0.3,3.2-0.3v0.3l0.6-0.3h1c0.2,0,0.3,0.1,0.3,0.3c0.9-0.2,4.2-0.6,10.1-1.3c0.2,0,0.3,0.1,0.3,0.3
		c2.7-0.2,4.1-0.5,4.1-0.9v-0.6l-0.6-1h0.3c0-0.2-0.1-0.3-0.3-0.3c0-0.2,0.1-0.8,0.3-1.9c-0.2-2.5-0.5-3.8-0.9-3.8L705.9,221.9z
		 M679.7,222.9h0.3c0.4-0.2,0.7-0.3,0.9-0.3v0.3c0.4-0.2,0.8-0.3,1.3-0.3v-0.3h-1.9C679.9,222.3,679.7,222.5,679.7,222.9z
		 M706.5,159.5l-0.3,1.6v2.5c-8,0.2-13.1,0.5-15.5,0.9c-0.4-0.2-0.8-0.3-1.3-0.3c-0.4,0.2-0.7,0.3-0.9,0.3v-0.3l-1.9,0.6
		c-0.4-0.2-0.7-0.3-0.9-0.3c0,0.2-0.1,0.3-0.3,0.3v-0.3l-0.6,0.3c-1.5-0.2-2.3-0.3-2.5-0.3l-1.6,0.3v0.9c0,0.8,0.1,1.7,0.3,2.8
		c-0.2,0.4-0.3,0.8-0.3,1.3h0.3l-0.6,3.5c0.3,6.3,0.6,9.5,1,9.5c0.4,0.2,0.8,0.3,1.3,0.3h0.3c0-0.4,0.1-0.6,0.3-0.6l-0.3-0.6v-3.8
		c0-0.5-0.1-0.9-0.3-1.3l0.3-0.6c-0.2-2.1-0.3-3.8-0.3-5v-1.9c0-0.7-0.3-1.5-1-2.2c0-0.5,0.4-0.8,1.3-0.9c0.8,0,2.2,0.2,4.1,0.6
		l0.6-0.3c0.2,0,0.5,0.1,0.9,0.3c10.7-0.5,17.1-0.9,19.3-1.3c0-0.6,0.2-1.6,0.6-3.2h-0.3l0.3-0.6v-1.9l-1.6-0.3H706.5z M692,189.7
		l0.3,1.9c-0.2,2.9-0.4,4.4-0.6,4.4l0.3,0.6c0,0.4-0.2,0.6-0.6,0.6c-0.8,0-1.7-0.1-2.8-0.3c-0.2,0-0.3,0.1-0.3,0.3l-1.6-0.3h-2.5
		l-1.6,0.3V197c-0.8,0.3-1.3,0.6-1.3,0.9c0,1.1,0.2,1.6,0.6,1.6l-0.3,0.6v0.9c0,1.4,0.1,2.7,0.3,4.1l-0.3,1.9c0,0.2,0.1,0.3,0.3,0.3
		l-0.3,1.6v1.9c0,0.2,0.1,0.3,0.3,0.3l-0.3,0.6c0,0.2,0.1,0.3,0.3,0.3l-0.3,1.6c0,0.5,0.1,0.9,0.3,1.3l-0.3,0.6
		c0.3,0.8,0.6,1.3,1,1.3h0.6c0.4,0,0.6-0.2,0.6-0.6c0-1-0.2-3.9-0.6-8.8c0.2,0,0.3-0.1,0.3-0.3c-0.2,0-0.3-0.1-0.3-0.3
		c0.2,0,0.3-0.1,0.3-0.3c-0.2,0-0.3-0.1-0.3-0.3h0.3l-0.3-0.6v-2.2c0-1.1-0.2-2.3-0.6-3.8c0.4,0,0.6-0.2,0.6-0.6
		c1.5,0.4,2.7,0.6,3.8,0.6h4.4c0.9-0.8,1.7-1.3,2.2-1.3l-0.3-1.6c0.4,0,0.6-0.2,0.6-0.6v-1.6c0-0.2-0.1-0.3-0.3-0.3
		c0.2-1.7,0.4-2.5,0.6-2.5l-0.3-0.6c0.2-0.6,0.4-0.9,0.6-0.9c-0.2-0.4-0.3-0.7-0.3-0.9h-1.6C692.2,189.2,692,189.4,692,189.7z
		 M684.4,219.1v0.3h2.5v-0.6C685.8,219,684.9,219.1,684.4,219.1z"/>
</g>
</svg>
