<svg xmlns="http://www.w3.org/2000/svg" viewBox="0 0 739.47 411.96"><defs><style>.a{fill:#754c24;}.b{fill:#a67c52;}.c{font-size:162.46px;fill:#603813;font-family:Bakery, Bakery;}.d{letter-spacing:-0.01em;}.e{letter-spacing:-0.02em;}.f{letter-spacing:0.03em;}.g{fill:#8c6239;}.h{fill:#c69c6d;}</style></defs><title>Asset 1</title><path class="a" d="M632.06,232.7c3.24-7.26,8.94-10.64,15.59-12.79a9.91,9.91,0,0,0,2.17-1.06c8.33-5.2,17.57-6.09,27.07-5.18a45.54,45.54,0,0,1,9.85,2.46c4.45,1.48,8.73,3.5,13.21,4.89a36.84,36.84,0,0,1,25.87,33.41c.21,5.59,1.48,10.94,2.62,16.39,2,9.68,1.21,19.08-4.23,27.72a145.83,145.83,0,0,0-8.33,15.3,30.81,30.81,0,0,1-12.24,14,78.75,78.75,0,0,0-16.77,12.94,31.94,31.94,0,0,1-14.8,8.7,28.09,28.09,0,0,0-13.94,8.09c-4.69,5.18-10.88,8-17.62,9.41-4.88,1-9.88,1.48-14.82,2.27-2,.32-4,1.05-6,1.28s-4.31.7-6-.06a23,23,0,0,1-6.53-4.94c-3.77-3.84-7.34-7.88-10.86-12a45,45,0,0,1-5.26-7.07,112.86,112.86,0,0,0-15.8-21.77,40.12,40.12,0,0,1-6.65-10.74c-4.73-10.43-8.87-21.12-13.65-31.52-2.88-6.25-3.55-12.3-.3-18.3a15,15,0,0,0,1.26-12.65c-1.16-3.53-1.33-7.32.73-10.43,3.92-5.92,8.12-11.66,12.45-17.27,1.22-1.58,3.29-2.53,5-3.68,6.12-4.05,13.12-5.15,20.25-5.74,13.75-1.13,25.56,2.78,34.44,14.13.9,1.15,1.79,2.3,3.3,4.22Zm21.06,107.64,11.21,5.8a45,45,0,0,0,22.43-12.34c4.22-4.1,9.39-7.27,14.34-10.54a24.66,24.66,0,0,0,10.81-15.13l-15.24-10.46c.18-.33.37-.65.56-1,5.4,2.53,10.25,6.15,15.67,9.24,2.84-4.35,6.12-8.37,8.29-12.95a30.57,30.57,0,0,0,1.69-21.93,51.32,51.32,0,0,1-2.35-14.92c0-1.14-.08-2.29-.15-3.43-.3-5.29-1.61-9.85-7.08-12.31a56.16,56.16,0,0,1-9.09-5.67c4.08.73,7.28,3.48,10.94,5.27.17-.33.45-.67.38-.77a34.57,34.57,0,0,0-18.84-13.94,81.06,81.06,0,0,1-7.87-2.53c-12.17-5.1-24.2-5.33-36.13.29-1,.48-2.13.72-3.18,1.12-5.27,2-10.38,4-14.06,8.85-3.2,4.19-5.18,3.91-9.05,0a13.93,13.93,0,0,1-1.38-1.39c-5.58-7.39-13.31-11.13-22.06-12.21-10.69-1.33-20.91.56-29.86,7a14.14,14.14,0,0,0-3,3.16c-2.56,3.53-5,7.16-7.53,10.71a10.27,10.27,0,0,0-1.84,9.21A20.86,20.86,0,0,1,559.14,266c-2.57,4.66-1.48,9.53.53,14.16,4.82,11.1,9.64,22.2,14.73,33.18a32.69,32.69,0,0,0,5.89,8.92c5.73,5.93,10.29,12.65,14.77,19.5a95.82,95.82,0,0,0,7.1,9.35c3.15,3.75,6.5,7.33,9.79,11,3.7,4.07,5.46,4.26,10.67,2.68,3.82-1.16,7.87-1.58,11.82-2.31,4.25-.79,8.62-1.2,12.58-3.87-2-3.1-5.7-3.67-8.12-6,3.35.2,3.73.39,10.79,5.18l12.16-10.64-9.19-5.75c.16-.34.31-.67.46-1Z"/><path class="a" d="M533.77,268a9,9,0,0,1-3.88-8.49c.31-3.29,2.67-5,5.56-6a32.71,32.71,0,0,0,3.19-.95c2.05-1,3.76-.28,5.41.92,5.3,3.84,4.45,11.23-2,15C539.45,270.16,536.57,270.06,533.77,268Zm.63-5.44c1.57,3.07,3.32,3.91,5.71,2.73,2.93-1.44,4.51-5.16,3.28-7.71a4,4,0,0,0-5.62-2.09C533.64,257.56,532.76,259.4,534.4,262.6Z"/><path class="b" d="M622.91,203.15c3.5-2,10,.15,12.32,4a5.91,5.91,0,0,1-1.86,8.44c-4,2.6-10.81.53-12.91-3.89-1.43-3-.27-7,2.45-8.53Zm10.73,4.51a66.46,66.46,0,0,0-6.88-.71c-2.27,0-3,1.64-1.9,3.64,1,1.82,3.89,3.31,5.71,3,2.07-.37,2.84-1.67,3.07-5.91Z"/><path class="a" d="M534.67,289.34c-1.63-3.16-1.06-6.45,1.35-7.78,3.44-1.9,9.67,0,11.5,3.58,1.34,2.59.07,6.57-2.58,8.1-3.31,1.91-8.23,0-10.27-3.9Zm5.89,1a4.52,4.52,0,0,0,3.85-.27,3.54,3.54,0,0,0,.85-3.32,4.91,4.91,0,0,0-3-2.65c-1.42-.33-3,.31-4.8.56C537.2,287.9,538.68,289.5,540.56,290.38Z"/><path class="a" d="M668,197.91c2.22-1.35,8.09-.13,9.17,1.92s0,5-2.7,6.42a5.24,5.24,0,0,1-7.39-2.32C665.73,201.51,666.1,199.05,668,197.91Z"/><path class="a" d="M732.17,303.37a3.65,3.65,0,0,1,1.33-5c1.76-.91,4.65.35,5.61,2.54.8,1.82.1,3.13-.55,3.49C735.6,306,733.31,305.34,732.17,303.37Z"/><path class="b" d="M548.49,298.85a3.27,3.27,0,0,1,4.58.92,3.57,3.57,0,0,1-1.1,4.64,3.12,3.12,0,0,1-4.56-.9A3.61,3.61,0,0,1,548.49,298.85Z"/><path class="a" d="M658.11,194c1.35-.15,3.39.23,4.1,1.16,1.07,1.39.1,3.06-1.44,3.94a3.27,3.27,0,0,1-4.49-1.4A2.58,2.58,0,0,1,658.11,194Z"/><path class="a" d="M646.55,190.42a1.89,1.89,0,0,1,3.18.69,3.63,3.63,0,0,1-1,3.16c-.65.54-2.1.13-4.32.15C645.48,192.37,645.76,191.09,646.55,190.42Z"/><path class="a" d="M550.73,317.73a3.69,3.69,0,0,1,1.13-3.13c.41-.38,2.45.13,2.74.73.43.9,0,2.23-.16,4.29C552.63,318.76,551,318.48,550.73,317.73Z"/><path class="a" d="M726.21,329.6c.25-.24,1.1.17,1.69.29a6.23,6.23,0,0,1-.62,2c-.22.28-1,.09-2.12.13C725.62,330.86,725.74,330,726.21,329.6Z"/><path class="b" d="M679.33,278c-9.46,5.11-18.72-.13-19.44-9.68-.06-.81-.32-1.6-.46-2.4-.9-5.29,1.78-9.11,5.31-12.28,1.1-1,3.32-1.19,4.94-1a41.19,41.19,0,0,1,7.45,2c5.64,1.81,9.43,6.06,9.77,11,.4,6-2.8,9.69-7.57,12.39Z"/><path class="a" d="M636.28,285.49c-6.91,3.69-13.89,1.74-16-4a37.85,37.85,0,0,1-1.52-8.11c-.37-2.92,1.23-5,3.45-6.49,5.64-3.87,14.69-3,19.71,1.81,3,2.84,3.49,5.69,1.53,9.22a20.93,20.93,0,0,1-7.21,7.61Z"/><path class="b" d="M641.15,320.59c-4.66,2.46-9.18,1.45-14-3.16-3.2-3.05-3.77-7.08-1.57-11.08a8.27,8.27,0,0,1,9.78-4.35c3.66.92,6.31,3.32,8.54,6.21,3.35,4.35,2.1,9.82-2.73,12.38Z"/><path class="a" d="M653.38,302.88a12.07,12.07,0,0,1-.71-9.87c2-5,7-6.66,11.38-3.46a18.23,18.23,0,0,1,4.76,5.39c2.88,4.92,1.65,9.73-2.73,12.11a9.26,9.26,0,0,1-12.7-4.17Z"/><path class="a" d="M602.58,249.35c.33-2.67,1.75-4.89,4.59-5.57,4-.94,10.75,2.54,12,6.49a9.55,9.55,0,0,1-.28,6c-1.3,3.09-4.16,4.31-7.49,4.2s-6.33-1.16-8.52-4.51C602.74,253.75,602.3,251.5,602.58,249.35Z"/><path class="a" d="M639.57,255.79c-1.39-2.85.17-8,2.86-9.43,2.88-1.56,7.19.08,8.59,3.25,1.24,2.83-.34,6.57-3.43,8.12S640.84,258.42,639.57,255.79Z"/><path class="a" d="M605.57,300.91c-2.91-2.42-2.11-6.6,1.62-8.15,3.41-1.42,9.81,2.1,10.41,5.77.39,2.42-.74,4-2.91,5C611.79,304.89,608.92,303.7,605.57,300.91Z"/><path class="b" d="M603.64,273.1c1.16,2.21.35,5.54-1.58,6.45s-4.55-.31-5.66-2.53a4.4,4.4,0,0,1,1.82-5.85A4.35,4.35,0,0,1,603.64,273.1Z"/><path class="a" d="M580.18,275.9a3.43,3.43,0,0,1,4.47,1.76,4.11,4.11,0,0,1-1.72,5.44,3.67,3.67,0,0,1-4.69-1.27C577.28,280,578.35,276.76,580.18,275.9Z"/><path class="a" d="M718,251.51,697.16,238C708.29,242.18,715.66,247.05,718,251.51Z"/><path class="a" d="M583.06,260.46c-.66-1.89.26-3.14,1.9-3.92,1.85-.9,4.82-.2,5.64,1.44,1.07,2.17-.75,2.8-2,3.58C586,262.8,583.72,262.35,583.06,260.46Z"/><path class="a" d="M670.08,244.35c-1.74.92-4.4.46-5.27-.91s-.1-3.59,1.56-4.54a3.38,3.38,0,0,1,4.6,1.28c.67,1.51,1,3.16-.89,4.17Z"/><path class="a" d="M691.15,284.51a3.33,3.33,0,0,1,1.54-4.53,3.49,3.49,0,0,1,4.68,1.18,3.72,3.72,0,0,1-1.45,4.65,4,4,0,0,1-4.77-1.3Z"/><path class="a" d="M652,326.51a3.74,3.74,0,0,1-1.7,4.57,2.82,2.82,0,0,1-4-1.49c-.88-1.87-.21-4.37,1.34-5.07A3.52,3.52,0,0,1,652,326.51Z"/><path class="a" d="M605,325.43a3.75,3.75,0,0,1,1.39-4.63A3.36,3.36,0,0,1,611,322a3.66,3.66,0,0,1-1.35,4.62,3.5,3.5,0,0,1-4.61-1.19Z"/><path class="a" d="M704.15,260C712,263.62,718,268.14,720,272.4c-5.5-4.54-10.94-7.25-15.89-12.4Z"/><path class="a" d="M684.13,332.42c-.25.55-.49,1.09-.73,1.64-4.67-2.38-9.5-4.48-13.65-7.82.17-.31.33-.62.49-.94l13.89,7.12Z"/><path class="a" d="M706.66,315.23l-13.39-8.61C701.32,309.09,705.28,311.75,706.66,315.23Z"/><path class="a" d="M720,281.85c-4.73-3.38-10-6.08-13.71-10.8C711.24,274.11,716.36,277,720,281.85Z"/><path class="a" d="M718.81,260.49l-13.57-9.81.57-.8c4.76,3,9.9,5.35,13.62,9.79Z"/><path class="a" d="M719,291.39l-11.36-9.33.65-.83c3.23,2.4,6.49,4.77,9.7,7.21a15.82,15.82,0,0,1,1.86,2C719.54,290.78,719.26,291.08,719,291.39Z"/><path class="a" d="M684.21,311.78c4.07,2.89,8.83,4.73,12.38,8.4l-.62.94-12.48-8.28Z"/><path class="a" d="M671.78,340.31l-12-6.37C666.86,335.16,669.75,336.79,671.78,340.31Z"/><path class="a" d="M703.7,289.53c4.14,2.05,8.33,4,11.26,7.89C710.82,295.39,706.85,293.08,703.7,289.53Z"/><path class="a" d="M689.46,328.55l-8.74-5.93C685.56,323.7,687.78,325.28,689.46,328.55Z"/><path class="a" d="M648.44,348c.28-.36.47-.73.57-.7,2.14.57,4.18,1.33,5.46,3.48l-6-2.78Z"/><text class="c" transform="translate(22 211.16) rotate(-9.07) scale(0.99 1)">Bail<tspan class="d" x="222.56" y="0">e</tspan><tspan x="264.47" y="0">y’s </tspan><tspan x="0" y="121.3" xml:space="preserve">   Ba</tspan><tspan class="e" x="253.91" y="121.3">k</tspan><tspan x="312.4" y="121.3">e</tspan><tspan class="f" x="356.58" y="121.3">r</tspan><tspan x="404.83" y="121.3">y</tspan></text><path class="g" d="M142.67,57.22c2.8,2.19,3.65,5.42,2,7.64-2.34,3.15-8.81,4-12,1.51-2.3-1.8-2.79-5.94-1-8.43,2.21-3.11,7.46-3.46,10.95-.72Zm-5.79,1.49a4.6,4.6,0,0,0-3.39,1.85,3.56,3.56,0,0,0,.61,3.38,4.91,4.91,0,0,0,3.78,1.18c1.43-.29,2.65-1.54,4.14-2.5C141,59.57,139,58.74,136.88,58.71Z"/><path class="h" d="M414.91,82.15c3.5-2,10,.15,12.32,4a5.91,5.91,0,0,1-1.86,8.44c-4,2.6-10.81.53-12.91-3.89-1.43-3-.27-7,2.45-8.53Zm10.73,4.51a66.46,66.46,0,0,0-6.88-.71c-2.27,0-3,1.64-1.9,3.64,1,1.82,3.89,3.31,5.71,3,2.07-.37,2.84-1.67,3.07-5.91Z"/><path class="g" d="M497.11,166c1.35-.15,3.39.23,4.1,1.16,1.07,1.39.1,3.06-1.44,3.94a3.27,3.27,0,0,1-4.49-1.4A2.58,2.58,0,0,1,497.11,166Z"/><path class="h" d="M485.55,162.42a1.89,1.89,0,0,1,3.18.69,3.63,3.63,0,0,1-1,3.16c-.65.54-2.1.13-4.32.15C484.48,164.37,484.76,163.09,485.55,162.42Z"/><path class="a" d="M111.34,345.77a3.27,3.27,0,0,1,.51,4.64,3.57,3.57,0,0,1-4.76.35,3.11,3.11,0,0,1-.52-4.61A3.6,3.6,0,0,1,111.34,345.77Z"/><path class="h" d="M78.66,377.65c-3.76-3.69-4.16-8.3-1.24-14.31,1.94-4,5.61-5.74,10.09-4.85a8.27,8.27,0,0,1,7.1,8c.24,3.76-1.25,7-3.33,10-3.13,4.52-8.72,5-12.62,1.14Z"/><path class="h" d="M50.94,302.54c2.3-2.18,7.66-2.24,9.86-.12,2.35,2.28,2.09,6.88-.51,9.17-2.31,2-6.37,1.66-8.77-.81S48.82,304.55,50.94,302.54Z"/><path class="g" d="M476.55,204c1.91-.22,4.78.32,5.79,1.63,1.51,2,.14,4.31-2,5.56a4.63,4.63,0,0,1-6.33-2C473,207.12,474.08,204.31,476.55,204Z"/></svg>